<?xml version="1.0" encoding="UTF-8" standalone="no"?>
<svg
   viewBox="0 0 655.22492 233.47197"
   version="1.1"
   id="svg1"
   width="655.22491"
   height="233.47197"
   xml:space="preserve"
   xmlns="http://www.w3.org/2000/svg"
   xmlns:svg="http://www.w3.org/2000/svg"><defs
     id="defs1"><linearGradient
       id="swatch251"><stop
         style="stop-color:#195962;stop-opacity:1;"
         offset="0"
         id="stop251" /></linearGradient><filter
       style="color-interpolation-filters:sRGB"
       id="filter90-2"
       x="-0.020186609"
       y="-0.031382771"
       width="1.0434854"
       height="1.070755"><feFlood
         result="flood"
         in="SourceGraphic"
         flood-opacity="0.796078"
         flood-color="rgb(62,67,73)"
         id="feFlood89-3" /><feGaussianBlur
         result="blur"
         in="SourceGraphic"
         stdDeviation="2.132 0"
         id="feGaussianBlur89-7" /><feOffset
         result="offset"
         in="blur"
         dx="1.000000"
         dy="1.000000"
         id="feOffset89-5" /><feComposite
         result="comp1"
         operator="in"
         in="flood"
         in2="offset"
         id="feComposite89-9" /><feComposite
         result="fbSourceGraphic"
         operator="over"
         in="SourceGraphic"
         in2="comp1"
         id="feComposite90-2" /><feColorMatrix
         result="fbSourceGraphicAlpha"
         in="fbSourceGraphic"
         values="0 0 0 -1 0 0 0 0 -1 0 0 0 0 -1 0 0 0 0 1 0"
         id="feColorMatrix90-2" /><feFlood
         id="feFlood90-8"
         result="flood"
         in="fbSourceGraphic"
         flood-opacity="0.796078"
         flood-color="rgb(62,67,73)" /><feGaussianBlur
         id="feGaussianBlur90-9"
         result="blur"
         in="fbSourceGraphic"
         stdDeviation="3.000000" /><feOffset
         id="feOffset90-7"
         result="offset"
         in="blur"
         dx="1.000000"
         dy="1.000000" /><feComposite
         id="feComposite91-3"
         result="comp1"
         operator="in"
         in="flood"
         in2="offset" /><feComposite
         id="feComposite92-6"
         result="comp2"
         operator="over"
         in="fbSourceGraphic"
         in2="comp1" /></filter></defs><!--! Font Awesome Pro 6.4.2 by @fontawesome - https://fontawesome.com License - https://fontawesome.com/license (Commercial License) Copyright 2023 Fonticons, Inc. --><g
     id="layer5"
     transform="translate(-1527.1,-828.92805)"><g
       id="layer8"
       style="display:inline"
       transform="matrix(1.3279932,0,0,1.3279932,-503.27577,-364.82233)"><path
         id="rect65-3-9"
         transform="matrix(0.49821912,0,0,0.61340563,1202.4933,373.91754)"
         d="m 851.7972,875.02576 h 590.4649 c 14.4536,0 26.0895,8.60482 26.0895,19.29332 v 211.74182 c 0,10.6885 -11.6359,19.2933 -26.0895,19.2933 H 851.7972 c -14.45355,0 -26.08944,-8.6048 -26.08944,-19.2933 V 894.31908 c 0,-10.6885 11.63589,-19.29332 26.08944,-19.29332 z"
         style="display:inline;mix-blend-mode:normal;fill:#ffffff;fill-opacity:1;stroke:#e6e6e6;stroke-width:1.312;stroke-linecap:butt;stroke-linejoin:miter;stroke-dasharray:none;stroke-dashoffset:0;stroke-opacity:1;paint-order:fill markers stroke;filter:url(#filter90-2)" /><g
         id="g41-5-9"
         style="display:inline"
         transform="matrix(0.73400272,0,0,0.73400272,1013.4948,705.2009)"><path
           id="rect11-2-96-7"
           d="m 884.2432,192.95468 h 359.0109 a 18.14255,18.14255 45 0 1 18.1425,18.14255 v 126.63435 a 18.14255,18.14255 135 0 1 -18.1425,18.14255 H 884.2432 A 18.14255,18.14255 45 0 1 866.10065,337.73158 V 211.09723 a 18.14255,18.14255 135 0 1 18.14255,-18.14255 z"
           style="font-variation-settings:'wght' 500;fill:none;fill-opacity:0.1;stroke:#195962;stroke-width:4.39384;stroke-linecap:round;stroke-linejoin:round;stroke-dasharray:none;stroke-opacity:1;paint-order:markers fill stroke"
           transform="matrix(0.92016709,0,0,0.69628804,56.855601,194.47989)" /><path
           style="font-weight:500;font-size:21.3333px;font-family:Montserrat;-inkscape-font-specification:'Montserrat Medium';font-variation-settings:'wght' 500;fill:#3e4349;stroke-width:3.5;stroke-linecap:round;stroke-linejoin:round;paint-order:markers fill stroke"
           d="m 883.96399,345.0207 v 2.21875 q -1.0625,-0.98958 -2.27083,-1.47916 -1.19792,-0.48959 -2.55208,-0.48959 -2.66666,0 -4.08333,1.63542 -1.41666,1.62499 -1.41666,4.70832 0,3.07291 1.41666,4.70833 1.41667,1.625 4.08333,1.625 1.35416,0 2.55208,-0.48959 1.20833,-0.48958 2.27083,-1.47916 v 2.19791 q -1.10417,0.75 -2.34375,1.125 -1.22916,0.375 -2.60416,0.375 -3.53125,0 -5.56249,-2.15625 -2.03125,-2.16666 -2.03125,-5.90624 0,-3.74999 2.03125,-5.90624 2.03124,-2.16666 5.56249,-2.16666 1.39583,0 2.62499,0.375 1.23959,0.36458 2.32292,1.10416 z m 7.68749,4.03125 q -1.54167,0 -2.4375,1.20833 -0.89583,1.19791 -0.89583,3.29166 0,2.09375 0.88541,3.30208 0.89584,1.19791 2.44792,1.19791 1.53124,0 2.42708,-1.20833 0.89583,-1.20833 0.89583,-3.29166 0,-2.07291 -0.89583,-3.28124 -0.89584,-1.21875 -2.42708,-1.21875 z m 0,-1.625 q 2.49999,0 3.92707,1.625 1.42708,1.62499 1.42708,4.49999 0,2.86458 -1.42708,4.49999 -1.42708,1.625 -3.92707,1.625 -2.51042,0 -3.9375,-1.625 -1.41666,-1.63541 -1.41666,-4.49999 0,-2.875 1.41666,-4.49999 1.42708,-1.625 3.9375,-1.625 z m 17.61455,2.52083 q 0.71875,-1.29167 1.71875,-1.90625 1,-0.61458 2.35416,-0.61458 1.82291,0 2.8125,1.28125 0.98958,1.27083 0.98958,3.62499 v 7.04166 h -1.92708 v -6.97916 q 0,-1.67708 -0.59375,-2.48958 -0.59375,-0.8125 -1.8125,-0.8125 -1.48958,0 -2.35416,0.98959 -0.86458,0.98958 -0.86458,2.69791 v 6.59374 h -1.92708 v -6.97916 q 0,-1.6875 -0.59375,-2.48958 -0.59375,-0.8125 -1.83333,-0.8125 -1.46875,0 -2.33333,1 -0.86458,0.98958 -0.86458,2.6875 v 6.59374 H 900.1098 V 347.7082 h 1.92708 v 1.8125 q 0.65624,-1.07292 1.57291,-1.58333 0.91667,-0.51042 2.17708,-0.51042 1.27083,0 2.15625,0.64583 0.89583,0.64583 1.32291,1.875 z m 13.55207,7.67707 v 6.18749 h -1.92709 V 347.7082 h 1.92709 v 1.77083 q 0.60416,-1.04167 1.52083,-1.54166 0.92708,-0.51042 2.20833,-0.51042 2.12499,0 3.44791,1.6875 1.33333,1.68749 1.33333,4.43749 0,2.75 -1.33333,4.43749 -1.32292,1.6875 -3.44791,1.6875 -1.28125,0 -2.20833,-0.5 -0.91667,-0.51041 -1.52083,-1.55208 z m 6.52082,-4.07291 q 0,-2.11458 -0.875,-3.31249 -0.86458,-1.20834 -2.38541,-1.20834 -1.52083,0 -2.39583,1.20834 -0.86458,1.19791 -0.86458,3.31249 0,2.11458 0.86458,3.32291 0.875,1.19792 2.39583,1.19792 1.52083,0 2.38541,-1.19792 0.875,-1.20833 0.875,-3.32291 z m 9.68748,-4.49999 q -1.54166,0 -2.43749,1.20833 -0.89584,1.19791 -0.89584,3.29166 0,2.09375 0.88542,3.30208 0.89583,1.19791 2.44791,1.19791 1.53125,0 2.42708,-1.20833 0.89583,-1.20833 0.89583,-3.29166 0,-2.07291 -0.89583,-3.28124 -0.89583,-1.21875 -2.42708,-1.21875 z m 0,-1.625 q 2.5,0 3.92708,1.625 1.42708,1.62499 1.42708,4.49999 0,2.86458 -1.42708,4.49999 -1.42708,1.625 -3.92708,1.625 -2.51041,0 -3.93749,-1.625 -1.41667,-1.63541 -1.41667,-4.49999 0,-2.875 1.41667,-4.49999 1.42708,-1.625 3.93749,-1.625 z m 18.22914,4.90624 v 7.04166 h -1.91666 v -6.97916 q 0,-1.65625 -0.64584,-2.47916 -0.64583,-0.82292 -1.93749,-0.82292 -1.55208,0 -2.44791,0.98959 -0.89584,0.98958 -0.89584,2.69791 v 6.59374 h -1.92708 V 347.7082 h 1.92708 v 1.8125 q 0.6875,-1.05209 1.61458,-1.57292 0.9375,-0.52083 2.15625,-0.52083 2.01041,0 3.04166,1.25 1.03125,1.23958 1.03125,3.65624 z m 13.80206,0.72917 v 0.9375 h -8.81248 q 0.125,1.97916 1.1875,3.02082 1.07291,1.03125 2.97916,1.03125 1.10416,0 2.13541,-0.27083 1.04167,-0.27083 2.0625,-0.8125 v 1.8125 q -1.03125,0.4375 -2.11458,0.66666 -1.08333,0.22917 -2.19792,0.22917 -2.79166,0 -4.42707,-1.625 -1.625,-1.62499 -1.625,-4.39582 0,-2.86458 1.54166,-4.54166 1.55209,-1.6875 4.17708,-1.6875 2.35416,0 3.71875,1.52083 1.37499,1.51041 1.37499,4.11458 z m -1.91666,-0.5625 q -0.0208,-1.57292 -0.88542,-2.51041 -0.85416,-0.9375 -2.27083,-0.9375 -1.60416,0 -2.57291,0.90625 -0.95833,0.90624 -1.10416,2.55207 z m 14.76039,-0.16667 v 7.04166 h -1.91666 v -6.97916 q 0,-1.65625 -0.64584,-2.47916 -0.64583,-0.82292 -1.93749,-0.82292 -1.55208,0 -2.44791,0.98959 -0.89584,0.98958 -0.89584,2.69791 v 6.59374 h -1.92708 V 347.7082 h 1.92708 v 1.8125 q 0.6875,-1.05209 1.61458,-1.57292 0.9375,-0.52083 2.15625,-0.52083 2.01041,0 3.04166,1.25 1.03125,1.23958 1.03125,3.65624 z m 5.71874,-7.93749 v 3.3125 h 3.94791 v 1.48958 h -3.94791 v 6.33332 q 0,1.42708 0.38542,1.83333 0.39583,0.40625 1.59375,0.40625 h 1.96874 v 1.60417 h -1.96874 q -2.21875,0 -3.0625,-0.82292 -0.84375,-0.83333 -0.84375,-3.02083 v -6.33332 h -1.40625 v -1.48958 h 1.40625 v -3.3125 z m 13.33333,-0.57291 h 2.1041 v 6.5729 l 6.9792,-6.5729 h 2.7083 l -7.7187,7.24999 8.2708,8.30207 h -2.7708 l -7.4688,-7.48957 v 7.48957 h -2.1041 z m 22.8229,9.23957 v 0.9375 h -8.8125 q 0.125,1.97916 1.1875,3.02082 1.0729,1.03125 2.9791,1.03125 1.1042,0 2.1354,-0.27083 1.0417,-0.27083 2.0625,-0.8125 v 1.8125 q -1.0312,0.4375 -2.1145,0.66666 -1.0834,0.22917 -2.1979,0.22917 -2.7917,0 -4.4271,-1.625 -1.625,-1.62499 -1.625,-4.39582 0,-2.86458 1.5416,-4.54166 1.5521,-1.6875 4.1771,-1.6875 2.3542,0 3.7188,1.52083 1.375,1.51041 1.375,4.11458 z m -1.9167,-0.5625 q -0.021,-1.57292 -0.8854,-2.51041 -0.8542,-0.9375 -2.2708,-0.9375 -1.6042,0 -2.573,0.90625 -0.9583,0.90624 -1.1041,2.55207 z m 9.9167,7.95832 q -0.8125,2.08333 -1.5834,2.71874 -0.7708,0.63542 -2.0625,0.63542 h -1.5312 v -1.60416 h 1.125 q 0.7916,0 1.2291,-0.375 0.4375,-0.375 0.9688,-1.77083 l 0.3437,-0.875 -4.7187,-11.47915 h 2.0312 l 3.6459,9.12498 3.6458,-9.12498 h 2.0312 z"
           id="text11-2-8-2-3"
           aria-label="Component Key" /><path
           style="font-weight:500;font-size:20.5595px;font-family:Montserrat;-inkscape-font-specification:'Montserrat Medium';font-variation-settings:'wght' 500;fill:#3e4349;stroke-width:4.06237;stroke-linecap:round;stroke-linejoin:round;paint-order:markers fill stroke"
           d="m 873.33494,410.48223 h 5.41092 v 1.64637 h -5.41092 z m 14.81729,-9.16544 h 1.85718 v 9.22568 l 5.51132,-4.84875 h 2.35912 l -5.96306,5.26034 6.21403,5.98313 h -2.40932 l -5.71209,-5.49123 v 5.49123 h -1.85718 z m 20.86067,9.53688 v 0.90349 h -8.49284 q 0.12046,1.90738 1.14442,2.91126 1.034,0.99384 2.8711,0.99384 1.06412,0 2.05796,-0.261 1.00388,-0.26101 1.98769,-0.78303 v 1.74675 q -0.99384,0.42163 -2.03788,0.64249 -1.04404,0.22085 -2.11819,0.22085 -2.69041,0 -4.2665,-1.56606 -1.56606,-1.56605 -1.56606,-4.23638 0,-2.76067 1.48575,-4.37692 1.49578,-1.62629 4.02557,-1.62629 2.26877,0 3.58385,1.46567 1.32513,1.45563 1.32513,3.96533 z m -1.84715,-0.5421 q -0.0201,-1.51586 -0.85329,-2.41935 -0.82319,-0.90349 -2.18847,-0.90349 -1.54598,0 -2.47959,0.87337 -0.92357,0.87338 -1.06411,2.45951 z m 9.55696,7.66966 q -0.78303,2.00777 -1.5259,2.62013 -0.74287,0.61237 -1.98769,0.61237 h -1.4757 v -1.54598 h 1.08419 q 0.76295,0 1.18458,-0.36139 0.42163,-0.3614 0.93361,-1.7066 l 0.33128,-0.84326 -4.54758,-11.06278 h 1.95757 l 3.51358,8.794 3.51359,-8.794 h 1.95757 z m 22.11551,-11.85584 v 1.72667 q -0.78302,-0.43166 -1.57609,-0.64248 -0.78303,-0.22085 -1.58613,-0.22085 -1.79695,0 -2.7908,1.14442 -0.99384,1.13439 -0.99384,3.19235 0,2.05795 0.99384,3.20238 0.99385,1.13438 2.7908,1.13438 0.8031,0 1.58613,-0.21081 0.79307,-0.22085 1.57609,-0.65252 v 1.7066 q -0.77299,0.36139 -1.60621,0.54209 -0.82318,0.1807 -1.75679,0.1807 -2.53982,0 -4.03561,-1.59617 -1.49578,-1.59617 -1.49578,-4.30665 0,-2.75064 1.50582,-4.32674 1.51587,-1.57609 4.14604,-1.57609 0.8533,0 1.66644,0.1807 0.81314,0.17066 1.57609,0.52202 z m 9.72762,1.29501 q -0.31121,-0.1807 -0.68264,-0.26101 -0.3614,-0.0904 -0.80311,-0.0904 -1.56605,0 -2.40931,1.02396 -0.83323,1.01392 -0.83323,2.92129 v 5.9229 h -1.85718 v -11.24347 h 1.85718 v 1.74675 q 0.58225,-1.02396 1.51586,-1.51586 0.93361,-0.50194 2.26878,-0.50194 0.19074,0 0.42163,0.0301 0.23089,0.0201 0.51198,0.0703 z m 11.10293,3.43327 v 0.90349 h -8.49284 q 0.12047,1.90738 1.14442,2.91126 1.034,0.99384 2.87111,0.99384 1.06411,0 2.05795,-0.261 1.00389,-0.26101 1.98769,-0.78303 v 1.74675 q -0.99384,0.42163 -2.03788,0.64249 -1.04404,0.22085 -2.11819,0.22085 -2.6904,0 -4.2665,-1.56606 -1.56605,-1.56605 -1.56605,-4.23638 0,-2.76067 1.48574,-4.37692 1.49579,-1.62629 4.02557,-1.62629 2.26877,0 3.58386,1.46567 1.32512,1.45563 1.32512,3.96533 z m -1.84714,-0.5421 q -0.0201,-1.51586 -0.8533,-2.41935 -0.82319,-0.90349 -2.18846,-0.90349 -1.54598,0 -2.47959,0.87337 -0.92357,0.87338 -1.06412,2.45951 z m 9.98862,0.97377 q -2.23866,0 -3.10199,0.51198 -0.86334,0.51198 -0.86334,1.74675 0,0.98381 0.64248,1.56606 0.65253,0.57221 1.76683,0.57221 1.53594,0 2.45951,-1.08419 0.93361,-1.09423 0.93361,-2.90122 v -0.41159 z m 3.68425,-0.76295 v 6.4148 h -1.84715 v -1.70659 q -0.63244,1.02396 -1.57609,1.51586 -0.94365,0.48186 -2.30893,0.48186 -1.72667,0 -2.75063,-0.96373 -1.01392,-0.97376 -1.01392,-2.60005 0,-1.89734 1.26489,-2.86106 1.27493,-0.96373 3.79467,-0.96373 h 2.59001 v -0.1807 q 0,-1.27493 -0.84326,-1.96761 -0.83322,-0.70271 -2.34908,-0.70271 -0.96373,0 -1.87726,0.23089 -0.91353,0.23089 -1.75679,0.69268 v -1.7066 q 1.01392,-0.39152 1.96761,-0.58225 0.95368,-0.20078 1.85718,-0.20078 2.43943,0 3.64409,1.26489 1.20466,1.26489 1.20466,3.83483 z m 5.63177,-8.02102 v 3.19235 h 3.80472 v 1.43555 h -3.80472 v 6.1036 q 0,1.37532 0.37144,1.76683 0.38148,0.39152 1.53594,0.39152 h 1.89734 v 1.54597 h -1.89734 q -2.13827,0 -2.95141,-0.79306 -0.81315,-0.80311 -0.81315,-2.91126 v -6.1036 h -1.35524 v -1.43555 h 1.35524 v -3.19235 z m 6.23411,3.19235 h 1.84714 v 11.24347 h -1.84714 z m 0,-4.37693 h 1.84714 v 2.33905 h -1.84714 z m 10.06894,5.67194 q -1.48575,0 -2.34909,1.1645 -0.86333,1.15446 -0.86333,3.17227 0,2.0178 0.8533,3.1823 0.86333,1.15446 2.35912,1.15446 1.4757,0 2.33904,-1.1645 0.86334,-1.1645 0.86334,-3.17226 0,-1.99773 -0.86334,-3.16223 -0.86334,-1.17454 -2.33904,-1.17454 z m 0,-1.56606 q 2.40931,0 3.78463,1.56606 1.37532,1.56605 1.37532,4.33677 0,2.76067 -1.37532,4.33676 -1.37532,1.56606 -3.78463,1.56606 -2.41936,0 -3.79468,-1.56606 -1.36527,-1.57609 -1.36527,-4.33676 0,-2.77072 1.36527,-4.33677 1.37532,-1.56606 3.79468,-1.56606 z m 17.56788,4.72828 v 6.78624 h -1.8471 v -6.726 q 0,-1.59618 -0.6224,-2.38924 -0.6224,-0.79307 -1.8672,-0.79307 -1.4958,0 -2.3591,0.95369 -0.8634,0.95369 -0.8634,2.60005 v 6.35457 h -1.8572 v -11.24347 h 1.8572 v 1.74675 q 0.6626,-1.01392 1.556,-1.51586 0.9035,-0.50194 2.0781,-0.50194 1.9375,0 2.9313,1.20466 0.9938,1.19462 0.9938,3.52362 z m 12.0466,-7.64958 v 3.19235 h 3.8047 v 1.43555 h -3.8047 v 6.1036 q 0,1.37532 0.3715,1.76683 0.3814,0.39152 1.5359,0.39152 h 1.8973 v 1.54597 h -1.8973 q -2.1383,0 -2.9514,-0.79306 -0.8132,-0.80311 -0.8132,-2.91126 v -6.1036 h -1.3552 v -1.43555 h 1.3552 v -3.19235 z m 6.2341,3.19235 h 1.8472 v 11.24347 h -1.8472 z m 0,-4.37693 h 1.8472 v 2.33905 h -1.8472 z m 14.466,6.53527 q 0.6927,-1.24481 1.6564,-1.8371 0.9637,-0.59229 2.2688,-0.59229 1.7567,0 2.7104,1.23477 0.9537,1.22474 0.9537,3.49351 v 6.78624 h -1.8572 v -6.726 q 0,-1.61625 -0.5722,-2.39928 -0.5722,-0.78303 -1.7467,-0.78303 -1.4356,0 -2.2688,0.95369 -0.8332,0.95369 -0.8332,2.60005 v 6.35457 h -1.8572 v -6.726 q 0,-1.62629 -0.5722,-2.39928 -0.5722,-0.78303 -1.7668,-0.78303 -1.4155,0 -2.2487,0.96373 -0.8333,0.95369 -0.8333,2.59001 v 6.35457 h -1.8571 v -11.24347 h 1.8571 v 1.74675 q 0.6325,-1.034 1.5159,-1.5259 0.8834,-0.4919 2.0981,-0.4919 1.2247,0 2.078,0.62241 0.8634,0.6224 1.275,1.80698 z m 20.8908,3.00161 v 0.90349 h -8.4929 q 0.1205,1.90738 1.1444,2.91126 1.034,0.99384 2.8711,0.99384 1.0642,0 2.058,-0.261 1.0039,-0.26101 1.9877,-0.78303 v 1.74675 q -0.9939,0.42163 -2.0379,0.64249 -1.044,0.22085 -2.1182,0.22085 -2.6904,0 -4.2665,-1.56606 -1.566,-1.56605 -1.566,-4.23638 0,-2.76067 1.4857,-4.37692 1.4958,-1.62629 4.0256,-1.62629 2.2687,0 3.5838,1.46567 1.3252,1.45563 1.3252,3.96533 z m -1.8472,-0.5421 q -0.02,-1.51586 -0.8533,-2.41935 -0.8232,-0.90349 -2.1885,-0.90349 -1.5459,0 -2.4795,0.87337 -0.9236,0.87338 -1.0642,2.45951 z"
           id="text11-9-0-7-7"
           transform="scale(1.0006928,0.99930768)"
           aria-label="- key creation time" /><path
           style="display:inline;fill:none;fill-opacity:1;stroke:#195962;stroke-width:2.48502;stroke-linecap:square;stroke-dasharray:4.97003, 4.97003;stroke-dashoffset:0;stroke-opacity:1;paint-order:fill markers stroke"
           d="m 850.55372,198.75048 223.49328,0 a 12.362879,12.362879 45 0 1 12.3629,12.36288 v 49.53492"
           id="path71-5-3-4"
           transform="matrix(0.96439285,0,0,0.96305804,36.49511,189.52526)" /><path
           id="path2-3-2-6-6-21-5"
           style="display:inline;fill:none;stroke:#006961;stroke-width:12.5773;stroke-linecap:round;stroke-dasharray:none;stroke-opacity:1"
           d="m 156.30312,759.25868 c -9.78054,19.91382 -30.12868,33.02384 -53.81237,33.02384 -33.173715,0 -60.066326,-26.89261 -60.066326,-60.06633 0,-33.17372 26.892611,-60.06633 60.066326,-60.06633 23.31181,0 43.58824,15.15712 53.54415,34.5646 m -9.14624,1.20213 h 4.97796 c 10.89491,0.20296 25.86265,0 38.79397,0 l 11.43353,7.63836 14.59897,-7.63836 14.59896,7.3422 h 10.87817 l 11.54761,-7.3422 17.66083,7.3422 16.34856,-7.34219 22,25.45886 -22,25.45887 h -135.8606 -4.97796 M 89.058073,732.21619 c -4e-6,6.98969 -5.666271,12.65596 -12.655965,12.65596 -6.989695,0 -12.655963,-5.66627 -12.655967,-12.65596 -2e-6,-6.9897 5.666268,-12.65597 12.655967,-12.65597 6.989698,0 12.655967,5.66627 12.655965,12.65597 z"
           transform="matrix(0.26930483,0,0,-0.2689321,1105.9745,577.66267)" /><path
           style="color:#000000;fill:#ee5937;fill-opacity:1;stroke-width:0.488525;stroke-linejoin:round;stroke-dasharray:0.952622, 0.952622;-inkscape-stroke:none;paint-order:fill markers stroke"
           d="m 1173.3391,433.64794 0.031,-1.90543 c 0.3029,0.01 0.603,0.01 0.9009,-0.01 l 0.072,1.90357 c -0.3368,0.0117 -0.6715,0.0157 -1.0038,0.01 z m -1,-0.0421 c -0.3341,-0.0216 -0.6676,-0.0529 -1.0008,-0.094 l 0.2317,-1.89103 c 0.2973,0.0372 0.5955,0.0646 0.8951,0.0842 z m 3.0048,-0.0334 -0.1728,-1.89681 c 0.2976,-0.0274 0.5937,-0.0628 0.8891,-0.10784 l 0.2845,1.88437 c -0.3326,0.0509 -0.6661,0.0902 -1.0008,0.12031 z m -5.0009,-0.21085 c -0.3306,-0.0598 -0.6617,-0.12942 -0.9913,-0.21094 l 0.4581,-1.85007 c 0.2868,0.0705 0.5777,0.13295 0.8719,0.18614 z m 6.9903,-0.0862 -0.3855,-1.86536 c 0.293,-0.0598 0.5838,-0.12962 0.872,-0.20702 l 0.4942,1.84058 c -0.3251,0.0872 -0.6519,0.16401 -0.9807,0.2318 z m -8.9519,-0.39494 c -0.3241,-0.10038 -0.6443,-0.2126 -0.9609,-0.33507 l 0.686,-1.77651 c 0.2758,0.10653 0.5561,0.20351 0.8387,0.291 z m 10.8945,-0.12315 -0.5917,-1.81099 c 0.2835,-0.092 0.5645,-0.19379 0.8435,-0.30343 l 0.6975,1.77287 c -0.3122,0.12268 -0.6293,0.23701 -0.9493,0.34155 z m -12.7875,-0.60207 c -0.3047,-0.13931 -0.6078,-0.28775 -0.9076,-0.44853 l 0.9008,-1.67921 c 0.26,0.13932 0.5266,0.27012 0.7996,0.39494 z m 14.6593,-0.13177 -0.7898,-1.73368 c 0.2703,-0.12326 0.5384,-0.25631 0.8042,-0.39681 l 0.8903,1.68402 c -0.2955,0.15616 -0.5972,0.30636 -0.9047,0.44647 z m -16.4362,-0.81183 c -0.2898,-0.17489 -0.5711,-0.35722 -0.8454,-0.54396 l 1.0727,-1.57536 c 0.2507,0.17078 0.5027,0.33459 0.7567,0.48773 z m 18.2159,-0.12893 -0.9819,-1.63249 c 0.2563,-0.15401 0.5084,-0.31606 0.7547,-0.48478 l 1.0753,1.57251 c -0.2776,0.18998 -0.5601,0.37173 -0.8481,0.54476 z m -19.8702,-0.99603 c -0.2664,-0.20007 -0.5271,-0.4066 -0.7826,-0.61735 l 1.2128,-1.46944 c 0.2344,0.1934 0.4723,0.38171 0.7138,0.56297 z m 21.5332,-0.13736 -1.1602,-1.51158 c 0.2388,-0.18321 0.471,-0.37114 0.6966,-0.56571 l 1.245,1.44269 c -0.2555,0.22045 -0.5163,0.4311 -0.7814,0.6346 z m -23.0656,-1.12114 c -0.245,-0.21732 -0.4874,-0.43845 -0.7261,-0.66507 l 1.3119,-1.38165 c 0.222,0.21064 0.4483,0.41796 0.6784,0.62205 z m 24.5874,-0.18802 -1.3175,-1.37578 c 0.2148,-0.20585 0.4244,-0.41992 0.6296,-0.64037 l 1.395,1.29857 c -0.2276,0.24436 -0.4633,0.4841 -0.7071,0.71758 z m -26.0138,-1.15739 c -0.2298,-0.22926 -0.4574,-0.46215 -0.6823,-0.6975 l 1.3778,-1.31572 c 0.2137,0.22388 0.431,0.44462 0.6507,0.664 z m 27.384,-0.3149 -1.4636,-1.21941 c 0.1915,-0.22975 0.3768,-0.4648 0.5543,-0.70513 l 1.5323,1.13172 c -0.1998,0.27042 -0.4078,0.53475 -0.623,0.79282 z m -28.0654,-2.98553 h -0.1296 V 422.277 h 0.9522 v 1.90533 h -0.6384 z m 0.2395,0.14992 c 0.1841,0.20398 0.4226,0.46136 0.6049,0.65761 l -1.3969,1.29662 c -0.2221,-0.23926 -0.437,-0.47911 -0.6498,-0.71465 l 1.4371,-1.23988 z m 29.0244,1.21931 -1.5915,-1.04668 c 0.1653,-0.25161 0.3225,-0.50585 0.4713,-0.76343 l 1.6497,0.95321 c -0.1688,0.29245 -0.3461,0.57776 -0.5295,0.8569 z m -26.554,-1.34061 -0.9533,-0.0186 0.037,-1.90436 0.9522,0.0177 z m -39.0391,-0.0284 v -1.90543 h 0.9521 v 1.90543 z m 1.9055,0 v -1.90543 h 0.9521 v 1.90543 z m 1.9043,0 v -1.90543 h 0.9534 v 1.90543 z m 1.9055,0 v -1.90543 h 0.9531 v 1.90543 z m 1.9054,0 v -1.90543 h 0.9523 v 1.90543 z m 1.9055,0 v -1.90543 h 0.9523 v 1.90543 z m 1.9053,0 v -1.90543 h 0.9524 v 1.90543 z m 1.9045,0 v -1.90543 h 0.9533 v 1.90543 z m 1.9056,0 v -1.90543 h 0.9531 v 1.90543 z m 1.9054,0 v -1.90543 h 0.9523 v 1.90543 z m 1.9055,0 v -1.90543 h 0.9522 v 1.90543 z m 1.9054,0 v -1.90543 h 0.9523 v 1.90543 z m 1.9044,0 v -1.90543 h 0.9532 v 1.90543 z m 1.9055,0 v -1.90543 h 0.9532 v 1.90543 z m 1.9055,0 v -1.90543 h 0.9521 v 1.90543 z m 1.9054,0 v -1.90543 h 0.9522 v 1.90543 z m 1.9054,0 v -1.90543 h 0.9523 v 1.90543 z m 1.9046,0 v -1.90543 h 0.953 v 1.90543 z m 1.9054,0 v -1.90543 h 0.9532 v 1.90543 z m 32.3076,-0.36829 -1.6974,-0.86543 c 0.1352,-0.26531 0.263,-0.53612 0.3835,-0.81104 l 1.7451,0.7653 c -0.1344,0.30666 -0.2781,0.61087 -0.4312,0.91117 z m -68.2467,-0.0245 -0.6231,-0.7214 1.4418,-1.24518 0.6229,0.72033 z m -1.2462,-1.44181 -0.6221,-0.72042 1.4408,-1.24616 0.6231,0.72042 z m 70.301,-0.37604 -1.7834,-0.66976 c 0.1043,-0.27815 0.2001,-0.5619 0.2891,-0.84916 l 1.8207,0.56483 c -0.099,0.31931 -0.2075,0.63773 -0.3264,0.95409 z m -71.5463,-1.06578 -0.623,-0.72032 1.4419,-1.24615 0.623,0.72139 z m 61.2386,-0.67741 -0.046,-1.90553 c 0.2344,-0.01 0.4674,-0.0421 0.687,-0.10773 l 0.5485,1.82441 c -0.3886,0.11698 -0.7891,0.18889 -1.1896,0.18889 z m -1.1926,-0.12982 c -0.3931,-0.096 -0.7708,-0.24376 -1.1232,-0.44079 l 0.9293,-1.66304 c 0.2019,0.11277 0.4203,0.1983 0.6441,0.25287 z m 12.0967,-0.0489 -1.8482,-0.46471 c 0.072,-0.28835 0.1358,-0.57992 0.1917,-0.87502 l 1.872,0.35506 c -0.062,0.32871 -0.1332,0.65703 -0.2155,0.98467 z m -8.6208,-0.5038 -1.0047,-1.61925 c 0.1967,-0.12208 0.3783,-0.27149 0.5363,-0.44177 l 1.3977,1.29484 c -0.2738,0.29541 -0.5867,0.55338 -0.9293,0.76618 z m -64.7678,-0.0813 -0.6231,-0.72041 1.4417,-1.24607 0.6232,0.7214 z m 59.208,-0.5228 c -0.2888,-0.2809 -0.539,-0.59962 -0.7433,-0.94743 l 1.642,-0.96575 c 0.1174,0.19978 0.2631,0.38592 0.4294,0.54759 z m 14.5556,-0.8664 -1.8883,-0.25474 c 0.04,-0.29393 0.07,-0.59226 0.093,-0.89305 l 1.8998,0.14598 c -0.024,0.33224 -0.059,0.66644 -0.1053,1.00181 z m -74.2998,-1.80805 -1.4632,-1.21853 0.6232,-0.72022 1.4416,1.24517 m -0.4475,0.44413 0.6221,0.7214 -1.4407,1.24518 -0.6231,-0.72042 m 68.2137,0.53749 -1.6852,-0.88825 c 0.1075,-0.20447 0.1878,-0.42453 0.2367,-0.64987 l 1.8617,0.40455 c -0.087,0.39523 -0.2249,0.77635 -0.4132,1.13357 z m -8.3918,-0.91313 c -0.1075,-0.39171 -0.1593,-0.7938 -0.1594,-1.19374 h 1.9055 c 10e-5,0.23534 0.032,0.46911 0.091,0.68995 z m 15.9179,-0.81869 -1.9042,-0.0421 c 0.011,-0.29853 0.011,-0.59755 -0.011,-0.89687 l 1.9045,-0.0686 c 0.012,0.33527 0.013,0.67104 0.011,1.00758 z m -8.9163,-0.50566 c -0.012,-0.23327 -0.054,-0.46411 -0.1252,-0.6822 l 1.8111,-0.59452 c 0.1265,0.38544 0.1983,0.78508 0.2175,1.186 z m -5.1691,-0.42178 -1.8797,-0.31303 c 0.067,-0.39866 0.1863,-0.78636 0.3568,-1.15259 l 1.7271,0.8035 c -0.097,0.20928 -0.1665,0.43452 -0.2042,0.66212 z m -59.5233,0 -1.4418,-1.24606 0.623,-0.72051 1.4408,1.24527 z m 64.2639,-0.88913 c -0.1269,-0.1938 -0.2811,-0.37231 -0.4551,-0.52574 l 1.2603,-1.42839 c 0.3022,0.2663 0.5672,0.57208 0.7883,0.90921 z m 7.3785,-0.0206 c -0.027,-0.29931 -0.062,-0.59618 -0.1053,-0.8902 l 1.8843,-0.28149 c 0.05,0.3342 0.089,0.6678 0.1193,1.00093 z m -11.5403,-0.27423 -1.459,-1.22519 c 0.2589,-0.30843 0.5586,-0.58178 0.8903,-0.81094 l 1.0829,1.56761 c -0.1907,0.13188 -0.3651,0.2906 -0.5142,0.46852 z m -58.8571,-0.25817 -1.4417,-1.24616 0.6231,-0.72031 1.4418,1.24616 z m 61.9827,-0.36358 c -0.207,-0.10269 -0.43,-0.17793 -0.6566,-0.22132 l 0.3589,-1.87115 c 0.3971,0.0765 0.7821,0.20613 1.144,0.38553 z m -2.0362,-0.1211 -0.6383,-1.79483 c 0.3819,-0.13579 0.7794,-0.21819 1.1803,-0.24699 l 0.1374,1.90053 c -0.2324,0.0157 -0.4628,0.0646 -0.6794,0.14129 z m 10.1895,-0.76049 c -0.06,-0.29511 -0.1286,-0.58629 -0.2052,-0.87307 l 1.8405,-0.49232 c 0.088,0.32684 0.1637,0.65487 0.2311,0.98182 z m -68.8897,-0.19654 -1.4419,-1.24518 0.6232,-0.7214 1.4416,1.24616 z m 5.4414,-0.19458 -0.8252,-0.47528 0.9503,-1.65061 0.7576,0.43599 -0.011,-0.0177 0.8456,-0.43893 0.8777,1.68978 -0.8454,0.43992 -0.8254,-1.58966 z m 12.342,-0.22153 c -0.3003,0.0304 -0.7395,-0.0735 -0.7395,-0.0735 l 0.2634,-1.88731 c 0,0 0.1053,0.0441 0.1982,0.0274 0.093,-0.0157 0.1433,-0.0588 0.1433,-0.0588 l 0.8559,1.70126 c -0.2096,0.14766 -0.421,0.25993 -0.7213,0.29099 z m -1.6832,-0.20506 -0.9436,-0.13178 0.2633,-1.88711 0.9438,0.13158 z m 9.5235,-0.16891 -0.1413,-0.0598 0.4571,-1.87175 v -0.01 l 0.2919,-0.16215 0.9256,1.66511 -0.6994,0.38818 c -0.2567,0.14245 -0.5648,0.15872 -0.8349,0.0441 z m -11.7132,-0.22231 -0.8426,-0.44363 0.8865,-1.68598 0.8425,0.44266 z m -5.0274,-0.0783 -0.878,-1.69077 0.8455,-0.43894 0.8779,1.69078 z m 10.4728,-0.0441 -0.8559,-1.70214 0.8511,-0.42845 0.8558,1.70233 z m -15.5661,-0.01 -0.8253,-0.47519 0.9512,-1.65157 0.8253,0.47607 z m 20.8157,-0.0774 -0.8767,-0.37212 0.7451,-1.75357 0.8768,0.37211 z m -22.9056,-0.72925 -0.6231,0.72033 -1.4407,-1.24508 0.622,-0.7214 c 0.4741,0.42316 0.9558,0.83701 1.4418,1.24615 z m 66.7298,0.41072 c -0.093,-0.2855 -0.1938,-0.56738 -0.3024,-0.84445 l 1.7746,-0.69563 c 0.1232,0.31421 0.2351,0.63096 0.3389,0.94929 z m -40.4398,-0.14422 -0.9245,-1.6648 0.8319,-0.46294 0.9256,1.665 z m -17.4548,-0.20124 -0.8777,-1.69077 0.8455,-0.43981 0.8545,1.67352 z m 1.7323,-2.14215 0.8435,0.44275 -0.8864,1.68696 -0.8435,-0.44373 0.066,-0.1211 z m 10.5844,2.06201 -0.8769,-0.37211 0.7452,-1.75388 0.877,0.37231 z m -1.9161,0.0362 -0.8558,-1.70214 0.8512,-0.42844 0.8558,1.70223 z m 15.8783,-0.53093 v -1.90543 c 0.2773,9e-5 0.5538,0 0.8302,0 l -0.3284,-0.17176 v -0.01 l 0.3359,0.17557 c 0.036,-2e-4 0.072,2e-4 0.1076,0 v 0.0568 l 0.9541,0.49899 -0.011,-0.562 c 0.3163,0 0.6301,-0.01 0.9427,-0.01 l 0.033,1.90456 c -0.3226,0.01 -0.6431,0.01 -0.9619,0.011 l -0.011,-1.33865 -0.9542,-0.49909 0.011,1.84352 c -0.3201,0 -0.6397,0 -0.9581,0 z m -0.9543,0 h -0.9522 l 0.011,-1.90543 0.9523,0.01 z m -1.9072,-0.01 h -0.4992 -0.4541 l 0.011,-1.90544 h 0.4533 0.4989 z m -1.9426,-0.01 -0.9142,-0.01 0.011,-1.90534 0.9151,0.01 v 0 h 0.037 l -0.011,1.90533 z m -1.8644,-0.01 h -0.9534 v -1.90543 h 0.9534 z m 10.4793,0 v -1.90543 h 0.9532 v 1.90553 z m 27.1514,-0.72894 c -0.1234,-0.27139 -0.2553,-0.53985 -0.395,-0.80526 l 1.6858,-0.88748 c 0.1563,0.29658 0.3044,0.59776 0.4438,0.90452 z m -28.1839,-1.52716 -1.6489,-0.95409 c 0.168,-0.2902 0.3445,-0.5757 0.5296,-0.8567 l 1.5906,1.04746 c -0.1641,0.24935 -0.3212,0.50399 -0.4713,0.76333 z m 27.3471,-0.0637 c -0.1527,-0.25571 -0.3141,-0.5076 -0.4828,-0.75578 l 1.5762,-1.07146 c 0.1883,0.27717 0.3702,0.56071 0.5429,0.85013 z m -26.5074,-1.16209 -1.5371,-1.12604 c 0.1966,-0.26864 0.4011,-0.53387 0.6154,-0.79478 l 1.4723,1.20903 c -0.1889,0.22985 -0.3721,0.46803 -0.5506,0.71179 z m 25.4988,-0.3245 c -0.182,-0.23866 -0.3698,-0.47165 -0.5639,-0.69738 l 1.4446,-1.24146 c 0.2198,0.25572 0.4306,0.51721 0.6335,0.78341 z m -24.3547,-1.07529 -1.4151,-1.27574 c 0.2271,-0.2515 0.4603,-0.4938 0.6977,-0.72806 l 1.3385,1.35687 c -0.2146,0.21202 -0.4226,0.42689 -0.6211,0.64693 z m 23.185,-0.29098 c -0.2068,-0.21633 -0.4194,-0.42639 -0.6384,-0.63077 l 1.2995,-1.39302 c 0.2456,0.22896 0.4847,0.46509 0.7166,0.70797 z m -21.9055,-0.9732 -1.2652,-1.42457 c 0.2491,-0.22113 0.5058,-0.43883 0.7729,-0.6489 l 1.1783,1.49806 c -0.2321,0.18262 -0.4602,0.37486 -0.686,0.57541 z m 20.5907,-0.25493 c -0.2285,-0.19135 -0.4635,-0.37623 -0.7042,-0.55523 l 1.1374,-1.52951 c 0.2688,0.19997 0.5326,0.40837 0.7909,0.625 z m -19.1784,-0.86533 -1.106,-1.55144 c 0.2759,-0.19664 0.5561,-0.3828 0.8387,-0.56004 l 1.0124,1.61445 c -0.2555,0.16009 -0.504,0.32519 -0.7451,0.49703 z m 17.7375,-0.20692 c -0.2503,-0.16578 -0.504,-0.32391 -0.7615,-0.47342 l 0.9562,-1.64786 c 0.2916,0.16941 0.5775,0.34673 0.8568,0.53152 z m -16.2177,-0.74629 -0.9197,-1.66774 c 0.2941,-0.16225 0.5931,-0.31607 0.8968,-0.46097 l 0.8206,1.71937 c -0.2695,0.12865 -0.5357,0.26493 -0.7977,0.40934 z m 14.6653,-0.16019 c -0.267,-0.13647 -0.5371,-0.26463 -0.8101,-0.38465 l 0.7662,-1.74426 c 0.3085,0.13569 0.6118,0.27981 0.9103,0.43236 z m -13.046,-0.61362 -0.7214,-1.76317 c 0.3105,-0.12708 0.6263,-0.24534 0.9455,-0.35409 l 0.6145,1.80344 c -0.2819,0.096 -0.5616,0.20047 -0.8386,0.31382 z m 11.4,-0.11159 c -0.2783,-0.10521 -0.5607,-0.20251 -0.8471,-0.29197 l 0.5676,-1.81873 c 0.3197,0.0999 0.6376,0.20898 0.9532,0.32831 z m -9.7045,-0.46744 -0.5096,-1.83588 c 0.3236,-0.0902 0.6507,-0.17097 0.9809,-0.24151 l 0.3977,1.86351 c -0.2908,0.0618 -0.5807,0.13382 -0.869,0.21388 z m 7.9891,-0.0686 c -0.2878,-0.0735 -0.5794,-0.13677 -0.8751,-0.1937 l 0.3599,-1.87105 c 0.3279,0.0628 0.6568,0.13522 0.9846,0.21849 z m -6.2373,-0.30725 -0.2901,-1.88339 c 0.3332,-0.0519 0.6682,-0.092 1.0028,-0.12316 l 0.1766,1.89682 c -0.2977,0.0274 -0.5949,0.0646 -0.8893,0.10973 z m 4.473,-0.0314 c -0.2948,-0.0392 -0.5926,-0.0715 -0.8921,-0.094 l 0.148,-1.89967 c 0.3336,0.0264 0.6683,0.0608 1.0027,0.10686 z m -2.6878,-0.13549 -0.068,-1.90349 c 0.3368,-0.0117 0.6729,-0.0137 1.0085,-0.01 l -0.046,1.90456 c -0.2995,-0.01 -0.598,-0.01 -0.8959,0.01 z"
           id="path2-7-9-5-7-0-0" /></g></g></g></svg>
