<?xml version="1.0" encoding="UTF-8" standalone="no"?>
<svg
   viewBox="0 0 655.22492 233.47197"
   version="1.1"
   id="svg1"
   width="655.22491"
   height="233.47197"
   xml:space="preserve"
   xmlns="http://www.w3.org/2000/svg"
   xmlns:svg="http://www.w3.org/2000/svg"><defs
     id="defs1"><linearGradient
       id="swatch251"><stop
         style="stop-color:#195962;stop-opacity:1;"
         offset="0"
         id="stop251" /></linearGradient><filter
       style="color-interpolation-filters:sRGB"
       id="filter90-2"
       x="-0.020186609"
       y="-0.031382771"
       width="1.0434854"
       height="1.070755"><feFlood
         result="flood"
         in="SourceGraphic"
         flood-opacity="0.796078"
         flood-color="rgb(62,67,73)"
         id="feFlood89-3" /><feGaussianBlur
         result="blur"
         in="SourceGraphic"
         stdDeviation="2.132 0"
         id="feGaussianBlur89-7" /><feOffset
         result="offset"
         in="blur"
         dx="1.000000"
         dy="1.000000"
         id="feOffset89-5" /><feComposite
         result="comp1"
         operator="in"
         in="flood"
         in2="offset"
         id="feComposite89-9" /><feComposite
         result="fbSourceGraphic"
         operator="over"
         in="SourceGraphic"
         in2="comp1"
         id="feComposite90-2" /><feColorMatrix
         result="fbSourceGraphicAlpha"
         in="fbSourceGraphic"
         values="0 0 0 -1 0 0 0 0 -1 0 0 0 0 -1 0 0 0 0 1 0"
         id="feColorMatrix90-2" /><feFlood
         id="feFlood90-8"
         result="flood"
         in="fbSourceGraphic"
         flood-opacity="0.796078"
         flood-color="rgb(62,67,73)" /><feGaussianBlur
         id="feGaussianBlur90-9"
         result="blur"
         in="fbSourceGraphic"
         stdDeviation="3.000000" /><feOffset
         id="feOffset90-7"
         result="offset"
         in="blur"
         dx="1.000000"
         dy="1.000000" /><feComposite
         id="feComposite91-3"
         result="comp1"
         operator="in"
         in="flood"
         in2="offset" /><feComposite
         id="feComposite92-6"
         result="comp2"
         operator="over"
         in="fbSourceGraphic"
         in2="comp1" /></filter></defs><!--! Font Awesome Pro 6.4.2 by @fontawesome - https://fontawesome.com License - https://fontawesome.com/license (Commercial License) Copyright 2023 Fonticons, Inc. --><g
     id="layer5"
     transform="translate(-1527.1,-828.92805)"><g
       id="layer8"
       style="display:inline"
       transform="matrix(1.3279932,0,0,1.3279932,-503.27577,-364.82233)"><path
         id="rect65-3-9"
         transform="matrix(0.49821912,0,0,0.61340563,1202.4933,373.91754)"
         d="m 851.7972,875.02576 h 590.4649 c 14.4536,0 26.0895,8.60482 26.0895,19.29332 v 211.74182 c 0,10.6885 -11.6359,19.2933 -26.0895,19.2933 H 851.7972 c -14.45355,0 -26.08944,-8.6048 -26.08944,-19.2933 V 894.31908 c 0,-10.6885 11.63589,-19.29332 26.08944,-19.29332 z"
         style="display:inline;mix-blend-mode:normal;fill:#ffffff;fill-opacity:1;stroke:#e6e6e6;stroke-width:1.312;stroke-linecap:butt;stroke-linejoin:miter;stroke-dasharray:none;stroke-dashoffset:0;stroke-opacity:1;paint-order:fill markers stroke;filter:url(#filter90-2)" /><g
         id="g41-5-9"
         style="display:inline"
         transform="matrix(0.73400272,0,0,0.73400272,1013.4948,705.2009)"><path
           id="rect11-2-96-7"
           d="m 884.2432,192.95468 h 359.0109 a 18.14255,18.14255 45 0 1 18.1425,18.14255 v 126.63435 a 18.14255,18.14255 135 0 1 -18.1425,18.14255 H 884.2432 A 18.14255,18.14255 45 0 1 866.10065,337.73158 V 211.09723 a 18.14255,18.14255 135 0 1 18.14255,-18.14255 z"
           style="font-variation-settings:'wght' 500;fill:none;fill-opacity:0.1;stroke:#195962;stroke-width:4.39384;stroke-linecap:round;stroke-linejoin:round;stroke-dasharray:none;stroke-opacity:1;paint-order:markers fill stroke"
           transform="matrix(0.92016709,0,0,0.69628804,56.855601,194.47989)" /><path
           style="font-weight:500;font-size:21.3333px;font-family:Montserrat;-inkscape-font-specification:'Montserrat Medium';font-variation-settings:'wght' 500;fill:#3e4349;stroke-width:3.5;stroke-linecap:round;stroke-linejoin:round;paint-order:markers fill stroke"
           d="m 871.07776,351.78019 c 0,3.17866 1.408,8.08532 7.01865,8.08532 3.79733,0 5.93066,-2.04799 6.39999,-6.16532 h -2.04799 c -0.46934,2.944 -1.728,4.41599 -4.33066,4.41599 -3.09333,0 -5.05599,-2.47466 -5.05599,-6.35732 0,-3.98933 1.87733,-6.44266 4.88532,-6.44266 2.51733,0 3.75466,1.152 4.20266,3.328 h 2.02666 c -0.61866,-3.41333 -2.58133,-5.07733 -5.99465,-5.07733 -5.67466,0 -7.10399,4.97066 -7.10399,8.21332 z m 19.94663,-3.90399 c -3.136,0 -5.03466,2.24 -5.03466,5.99466 0,3.75466 1.87733,5.99465 5.05599,5.99465 3.13599,0 5.05599,-2.23999 5.05599,-5.90932 0,-3.86133 -1.856,-6.07999 -5.07732,-6.07999 z m 0.0213,1.64266 c 2.00533,0 3.19999,1.64267 3.19999,4.416 0,2.62399 -1.23733,4.28799 -3.19999,4.28799 -1.984,0 -3.2,-1.64266 -3.2,-4.35199 0,-2.688 1.216,-4.352 3.2,-4.352 z m 6.976,-1.32266 v 11.17865 h 1.79199 v -7.01866 c 0,-1.62133 1.17333,-2.92266 2.624,-2.92266 1.32266,0 2.06933,0.81067 2.06933,2.24 v 7.70132 h 1.792 v -7.01866 c 0,-1.62133 1.17333,-2.92266 2.62399,-2.92266 1.30133,0 2.06933,0.832 2.06933,2.24 v 7.70132 h 1.792 v -8.38399 c 0,-2.00533 -1.152,-3.11466 -3.24266,-3.11466 -1.49333,0 -2.38933,0.448 -3.43466,1.70666 -0.66134,-1.19466 -1.55733,-1.70666 -3.008,-1.70666 -1.49333,0 -2.47466,0.55466 -3.43466,1.89866 v -1.57866 z m 17.32264,15.82931 h 1.792 v -5.82399 c 0.93866,1.15199 1.98399,1.66399 3.43466,1.66399 2.87999,0 4.77866,-2.32533 4.77866,-5.88799 0,-3.75466 -1.83467,-6.10132 -4.8,-6.10132 -1.51466,0 -2.73066,0.68266 -3.56266,2.00533 v -1.68533 h -1.64266 z m 4.90666,-14.48531 c 1.96266,0 3.24266,1.72799 3.24266,4.39466 0,2.53866 -1.30133,4.26666 -3.24266,4.26666 -1.87733,0 -3.11466,-1.70667 -3.11466,-4.33066 0,-2.624 1.23733,-4.33066 3.11466,-4.33066 z m 11.41332,-1.664 c -3.136,0 -5.03466,2.24 -5.03466,5.99466 0,3.75466 1.87733,5.99465 5.05599,5.99465 3.13599,0 5.05599,-2.23999 5.05599,-5.90932 0,-3.86133 -1.856,-6.07999 -5.07732,-6.07999 z m 0.0213,1.64266 c 2.00533,0 3.19999,1.64267 3.19999,4.416 0,2.62399 -1.23733,4.28799 -3.19999,4.28799 -1.984,0 -3.2,-1.64266 -3.2,-4.35199 0,-2.688 1.216,-4.352 3.2,-4.352 z m 6.976,-1.32266 v 11.17865 h 1.79199 v -6.16533 c 0,-2.28266 1.19467,-3.77599 3.02933,-3.77599 1.408,0 2.304,0.85333 2.304,2.19733 v 7.74399 h 1.77066 v -8.44799 c 0,-1.856 -1.38666,-3.05066 -3.54133,-3.05066 -1.66399,0 -2.73066,0.64 -3.71199,2.19733 v -1.87733 z m 20.90664,6.18666 c 0,-4.05333 -1.51466,-6.50666 -4.97066,-6.50666 -3.11466,0 -5.11999,2.38933 -5.11999,6.05866 0,3.66932 1.94133,5.93065 5.07733,5.93065 2.55999,0 4.33066,-1.45066 4.77866,-3.88266 h -1.792 c -0.49067,1.472 -1.49333,2.24 -2.92266,2.24 -2.06933,0 -3.24267,-1.55733 -3.28533,-3.83999 z m -8.19199,-1.45067 c 0.14934,-2.06933 1.408,-3.41333 3.2,-3.41333 1.83466,0 3.09333,1.49333 3.09333,3.41333 z m 10.11201,-4.73599 v 11.17865 h 1.792 v -6.16533 c 0,-2.28266 1.19467,-3.77599 3.02933,-3.77599 1.408,0 2.304,0.85333 2.304,2.19733 v 7.74399 h 1.77066 v -8.44799 c 0,-1.856 -1.38666,-3.05066 -3.54133,-3.05066 -1.664,0 -2.73066,0.64 -3.71199,2.19733 v -1.87733 z m 15.72266,0 h -1.83467 v -3.072 h -1.77066 v 3.072 H 972.091 v 1.45066 h 1.51466 v 8.44799 c 0,1.13066 0.768,1.77066 2.15466,1.77066 0.42667,0 0.85334,-0.0427 1.45067,-0.14933 v -1.49333 c -0.23467,0.064 -0.512,0.0853 -0.85333,0.0853 -0.768,0 -0.98134,-0.21333 -0.98134,-1.00266 v -7.65866 h 1.83467 z m 9.45066,5.73866 2.53867,-2.53867 5.48265,7.97866 h 2.34667 l -6.39999,-9.21599 6.33599,-6.33599 h -2.56 l -7.74399,7.87199 v -7.87199 h -1.98399 v 15.55198 h 1.98399 z m 21.41865,0.448 c 0,-4.05333 -1.5147,-6.50666 -4.9707,-6.50666 -3.11464,0 -5.11997,2.38933 -5.11997,6.05866 0,3.66932 1.94133,5.93065 5.07737,5.93065 2.56,0 4.3306,-1.45066 4.7786,-3.88266 h -1.792 c -0.4906,1.472 -1.4933,2.24 -2.9226,2.24 -2.0694,0 -3.24271,-1.55733 -3.28537,-3.83999 z m -8.19201,-1.45067 c 0.14931,-2.06933 1.40801,-3.41333 3.20001,-3.41333 1.8347,0 3.0933,1.49333 3.0933,3.41333 z m 16.89601,-4.73599 -3.0933,8.70398 -2.8587,-8.70398 h -1.8987 l 3.776,11.22131 -0.6826,1.77067 c -0.2987,0.78933 -0.6827,1.088 -1.4294,1.088 -0.256,0 -0.5546,-0.0427 -0.9386,-0.128 v 1.59999 c 0.3626,0.192 0.7253,0.27734 1.1946,0.27734 1.216,0 2.2614,-0.66134 2.88,-2.304 l 4.9707,-13.52531 z"
           id="text11-2-8-2-3"
           aria-label="Component Key" /><path
           style="font-weight:500;font-size:20.5595px;font-family:Montserrat;-inkscape-font-specification:'Montserrat Medium';font-variation-settings:'wght' 500;fill:#3e4349;stroke-width:4.06237;stroke-linecap:round;stroke-linejoin:round;paint-order:markers fill stroke"
           d="m 878.23163,410.52263 h -4.95484 v 1.48028 h 4.95484 z m 9.02563,-8.57331 h -1.70644 v 14.98787 h 1.70644 v -4.19413 l 1.66532,-1.64476 3.63903,5.83889 h 2.11763 l -4.39974,-7.0519 3.74183,-3.72127 h -2.19987 l -4.5642,4.56421 z m 17.969,10.17695 c 0,-3.9063 -1.45973,-6.27065 -4.79037,-6.27065 -3.00168,0 -4.93428,2.30267 -4.93428,5.8389 0,3.53624 1.87092,5.71554 4.89316,5.71554 2.46714,0 4.17358,-1.39804 4.60533,-3.74183 h -1.727 c -0.47286,1.41861 -1.43916,2.15875 -2.81665,2.15875 -1.99427,0 -3.12504,-1.50084 -3.16616,-3.70071 z m -7.89485,-1.39804 c 0.14392,-1.99428 1.35693,-3.28952 3.08392,-3.28952 1.76812,0 2.98113,1.43916 2.98113,3.28952 z m 16.28314,-4.56421 -2.98113,8.38827 -2.75497,-8.38827 h -1.8298 l 3.63904,10.81429 -0.65791,1.70644 c -0.28783,0.7607 -0.6579,1.04854 -1.37748,1.04854 -0.24672,0 -0.53455,-0.0411 -0.90462,-0.12336 v 1.54196 c 0.34951,0.18504 0.69902,0.26728 1.15133,0.26728 1.17189,0 2.17931,-0.63735 2.77553,-2.22043 l 4.79037,-13.03472 z m 16.85881,3.61847 c -0.2056,-2.56994 -1.78868,-3.92687 -4.25582,-3.92687 -2.89889,0 -4.79036,2.30267 -4.79036,5.88002 0,3.47456 1.85035,5.67442 4.7698,5.67442 2.56994,0 4.19414,-1.54196 4.39973,-4.17358 h -1.727 c -0.28783,1.727 -1.17189,2.5905 -2.63161,2.5905 -1.89148,0 -3.02225,-1.54196 -3.02225,-4.09134 0,-2.69329 1.11021,-4.29693 2.98113,-4.29693 1.43916,0 2.34378,0.84294 2.54938,2.34378 z m 7.15471,-2.11763 v -1.74756 c -0.28783,-0.0411 -0.43175,-0.0617 -0.6579,-0.0617 -1.11021,0 -1.95315,0.65791 -2.94001,2.26155 v -1.95315 h -1.58308 v 10.77317 h 1.727 v -5.59218 c 0,-3.02225 1.37748,-3.63903 3.45399,-3.68015 z m 10.75263,4.46141 c 0,-3.9063 -1.45972,-6.27065 -4.79036,-6.27065 -3.00169,0 -4.93428,2.30267 -4.93428,5.8389 0,3.53624 1.87092,5.71554 4.89316,5.71554 2.46714,0 4.17358,-1.39804 4.60533,-3.74183 h -1.727 c -0.47287,1.41861 -1.43916,2.15875 -2.81665,2.15875 -1.99427,0 -3.12504,-1.50084 -3.16616,-3.70071 z m -7.89484,-1.39804 c 0.14391,-1.99428 1.35692,-3.28952 3.08392,-3.28952 1.76812,0 2.98113,1.43916 2.98113,3.28952 z m 9.6013,-1.37749 h 1.727 c 0.14391,-1.31581 0.92517,-1.91203 2.52882,-1.91203 1.54196,0 2.40546,0.57566 2.40546,1.60364 v 0.45231 c 0,0.71958 -0.43175,1.02797 -1.78868,1.19245 -3.1456,0.41119 -5.34547,0.6579 -5.34547,3.53623 0,1.95315 1.35693,3.18672 3.53623,3.18672 1.35693,0 2.44658,-0.47287 3.6596,-1.58308 0.12335,1.08966 0.6579,1.58308 1.76811,1.58308 0.34951,0 0.61679,-0.0411 1.17189,-0.18503 v -1.29525 c -0.18503,0.0411 -0.26727,0.0411 -0.37007,0.0411 -0.59622,0 -0.92517,-0.30839 -0.92517,-0.84294 v -6.33233 c 0,-1.91203 -1.39805,-2.94001 -4.05023,-2.94001 -1.93259,0 -4.21469,0.57567 -4.31749,3.49512 z m 3.43344,6.55848 c -1.33637,0 -2.11763,-0.63734 -2.11763,-1.727 0,-2.36434 3.59791,-1.76812 5.34547,-2.56994 v 1.9326 c 0,1.02797 -1.19245,2.36434 -3.22784,2.36434 z m 11.98617,-9.7452 h -1.76812 v -2.96057 h -1.70643 v 2.96057 h -1.45973 v 1.39804 h 1.45973 v 8.14156 c 0,1.08966 0.74014,1.70644 2.0765,1.70644 0.41119,0 0.82238,-0.0411 1.39805,-0.14391 v -1.43917 c -0.22615,0.0617 -0.49343,0.0822 -0.82238,0.0822 -0.74014,0 -0.94574,-0.2056 -0.94574,-0.9663 v -7.38086 h 1.76812 z m 3.49513,0 h -1.70644 v 10.77317 h 1.70644 z m 0,-4.2147 h -1.727 v 2.15875 h 1.727 z m 6.94911,3.9063 c -3.02224,0 -4.85204,2.15875 -4.85204,5.77722 0,3.61848 1.80924,5.77722 4.8726,5.77722 3.02225,0 4.8726,-2.15874 4.8726,-5.69498 0,-3.72127 -1.78867,-5.85946 -4.89316,-5.85946 z m 0.0206,1.58309 c 1.93259,0 3.08393,1.58308 3.08393,4.25581 0,2.52882 -1.19245,4.13246 -3.08393,4.13246 -1.91203,0 -3.08392,-1.58308 -3.08392,-4.19414 0,-2.59049 1.17189,-4.19413 3.08392,-4.19413 z m 6.72297,-1.27469 v 10.77317 h 1.727 v -5.94169 c 0,-2.19987 1.15133,-3.63903 2.91944,-3.63903 1.35693,0 2.22043,0.82238 2.22043,2.11763 v 7.46309 h 1.70644 v -8.14156 c 0,-1.78867 -1.33637,-2.94001 -3.41288,-2.94001 -1.60364,0 -2.63161,0.61679 -3.57735,2.11763 v -1.80923 z m 20.29226,0 h -1.7681 v -2.96057 h -1.70648 v 2.96057 h -1.45973 v 1.39804 h 1.45973 v 8.14156 c 0,1.08966 0.74018,1.70644 2.07648,1.70644 0.4112,0 0.8224,-0.0411 1.3981,-0.14391 v -1.43917 c -0.2262,0.0617 -0.4935,0.0822 -0.8224,0.0822 -0.7401,0 -0.9457,-0.2056 -0.9457,-0.9663 v -7.38086 h 1.7681 z m 3.4951,0 h -1.7064 v 10.77317 h 1.7064 z m 0,-4.2147 h -1.727 v 2.15875 h 1.727 z m 2.7139,4.2147 v 10.77317 h 1.727 v -6.76407 c 0,-1.56252 1.1307,-2.81665 2.5288,-2.81665 1.2747,0 1.9942,0.78126 1.9942,2.15875 v 7.42197 h 1.727 v -6.76407 c 0,-1.56252 1.1308,-2.81665 2.5289,-2.81665 1.2541,0 1.9942,0.80182 1.9942,2.15875 v 7.42197 h 1.727 v -8.07988 c 0,-1.93259 -1.1102,-3.00169 -3.125,-3.00169 -1.4392,0 -2.3027,0.43175 -3.3101,1.64476 -0.6373,-1.15133 -1.5008,-1.64476 -2.8989,-1.64476 -1.4391,0 -2.3849,0.53455 -3.3101,1.8298 v -1.5214 z m 25.8021,5.96225 c 0,-3.9063 -1.4597,-6.27065 -4.7903,-6.27065 -3.0017,0 -4.9343,2.30267 -4.9343,5.8389 0,3.53624 1.8709,5.71554 4.8932,5.71554 2.4671,0 4.1735,-1.39804 4.6053,-3.74183 h -1.727 c -0.4729,1.41861 -1.4392,2.15875 -2.8167,2.15875 -1.9942,0 -3.125,-1.50084 -3.1661,-3.70071 z m -7.8948,-1.39804 c 0.1439,-1.99428 1.3569,-3.28952 3.0839,-3.28952 1.7681,0 2.9811,1.43916 2.9811,3.28952 z"
           id="text11-9-0-7-7"
           transform="scale(1.0006928,0.99930768)"
           aria-label="- key creation time" /><path
           style="display:inline;fill:none;fill-opacity:1;stroke:#195962;stroke-width:2.48502;stroke-linecap:square;stroke-dasharray:4.97003, 4.97003;stroke-dashoffset:0;stroke-opacity:1;paint-order:fill markers stroke"
           d="m 850.55372,198.75048 223.49328,0 a 12.362879,12.362879 45 0 1 12.3629,12.36288 v 49.53492"
           id="path71-5-3-4"
           transform="matrix(0.96439285,0,0,0.96305804,36.49511,189.52526)" /><path
           id="path2-3-2-6-6-21-5"
           style="display:inline;fill:none;stroke:#006961;stroke-width:12.5773;stroke-linecap:round;stroke-dasharray:none;stroke-opacity:1"
           d="m 156.30312,759.25868 c -9.78054,19.91382 -30.12868,33.02384 -53.81237,33.02384 -33.173715,0 -60.066326,-26.89261 -60.066326,-60.06633 0,-33.17372 26.892611,-60.06633 60.066326,-60.06633 23.31181,0 43.58824,15.15712 53.54415,34.5646 m -9.14624,1.20213 h 4.97796 c 10.89491,0.20296 25.86265,0 38.79397,0 l 11.43353,7.63836 14.59897,-7.63836 14.59896,7.3422 h 10.87817 l 11.54761,-7.3422 17.66083,7.3422 16.34856,-7.34219 22,25.45886 -22,25.45887 h -135.8606 -4.97796 M 89.058073,732.21619 c -4e-6,6.98969 -5.666271,12.65596 -12.655965,12.65596 -6.989695,0 -12.655963,-5.66627 -12.655967,-12.65596 -2e-6,-6.9897 5.666268,-12.65597 12.655967,-12.65597 6.989698,0 12.655967,5.66627 12.655965,12.65597 z"
           transform="matrix(0.26930483,0,0,-0.2689321,1105.9745,577.66267)" /><path
           style="color:#000000;fill:#ee5937;fill-opacity:1;stroke-width:0.488525;stroke-linejoin:round;stroke-dasharray:0.952622, 0.952622;-inkscape-stroke:none;paint-order:fill markers stroke"
           d="m 1173.3391,433.64794 0.031,-1.90543 c 0.3029,0.01 0.603,0.01 0.9009,-0.01 l 0.072,1.90357 c -0.3368,0.0117 -0.6715,0.0157 -1.0038,0.01 z m -1,-0.0421 c -0.3341,-0.0216 -0.6676,-0.0529 -1.0008,-0.094 l 0.2317,-1.89103 c 0.2973,0.0372 0.5955,0.0646 0.8951,0.0842 z m 3.0048,-0.0334 -0.1728,-1.89681 c 0.2976,-0.0274 0.5937,-0.0628 0.8891,-0.10784 l 0.2845,1.88437 c -0.3326,0.0509 -0.6661,0.0902 -1.0008,0.12031 z m -5.0009,-0.21085 c -0.3306,-0.0598 -0.6617,-0.12942 -0.9913,-0.21094 l 0.4581,-1.85007 c 0.2868,0.0705 0.5777,0.13295 0.8719,0.18614 z m 6.9903,-0.0862 -0.3855,-1.86536 c 0.293,-0.0598 0.5838,-0.12962 0.872,-0.20702 l 0.4942,1.84058 c -0.3251,0.0872 -0.6519,0.16401 -0.9807,0.2318 z m -8.9519,-0.39494 c -0.3241,-0.10038 -0.6443,-0.2126 -0.9609,-0.33507 l 0.686,-1.77651 c 0.2758,0.10653 0.5561,0.20351 0.8387,0.291 z m 10.8945,-0.12315 -0.5917,-1.81099 c 0.2835,-0.092 0.5645,-0.19379 0.8435,-0.30343 l 0.6975,1.77287 c -0.3122,0.12268 -0.6293,0.23701 -0.9493,0.34155 z m -12.7875,-0.60207 c -0.3047,-0.13931 -0.6078,-0.28775 -0.9076,-0.44853 l 0.9008,-1.67921 c 0.26,0.13932 0.5266,0.27012 0.7996,0.39494 z m 14.6593,-0.13177 -0.7898,-1.73368 c 0.2703,-0.12326 0.5384,-0.25631 0.8042,-0.39681 l 0.8903,1.68402 c -0.2955,0.15616 -0.5972,0.30636 -0.9047,0.44647 z m -16.4362,-0.81183 c -0.2898,-0.17489 -0.5711,-0.35722 -0.8454,-0.54396 l 1.0727,-1.57536 c 0.2507,0.17078 0.5027,0.33459 0.7567,0.48773 z m 18.2159,-0.12893 -0.9819,-1.63249 c 0.2563,-0.15401 0.5084,-0.31606 0.7547,-0.48478 l 1.0753,1.57251 c -0.2776,0.18998 -0.5601,0.37173 -0.8481,0.54476 z m -19.8702,-0.99603 c -0.2664,-0.20007 -0.5271,-0.4066 -0.7826,-0.61735 l 1.2128,-1.46944 c 0.2344,0.1934 0.4723,0.38171 0.7138,0.56297 z m 21.5332,-0.13736 -1.1602,-1.51158 c 0.2388,-0.18321 0.471,-0.37114 0.6966,-0.56571 l 1.245,1.44269 c -0.2555,0.22045 -0.5163,0.4311 -0.7814,0.6346 z m -23.0656,-1.12114 c -0.245,-0.21732 -0.4874,-0.43845 -0.7261,-0.66507 l 1.3119,-1.38165 c 0.222,0.21064 0.4483,0.41796 0.6784,0.62205 z m 24.5874,-0.18802 -1.3175,-1.37578 c 0.2148,-0.20585 0.4244,-0.41992 0.6296,-0.64037 l 1.395,1.29857 c -0.2276,0.24436 -0.4633,0.4841 -0.7071,0.71758 z m -26.0138,-1.15739 c -0.2298,-0.22926 -0.4574,-0.46215 -0.6823,-0.6975 l 1.3778,-1.31572 c 0.2137,0.22388 0.431,0.44462 0.6507,0.664 z m 27.384,-0.3149 -1.4636,-1.21941 c 0.1915,-0.22975 0.3768,-0.4648 0.5543,-0.70513 l 1.5323,1.13172 c -0.1998,0.27042 -0.4078,0.53475 -0.623,0.79282 z m -28.0654,-2.98553 h -0.1296 V 422.277 h 0.9522 v 1.90533 h -0.6384 z m 0.2395,0.14992 c 0.1841,0.20398 0.4226,0.46136 0.6049,0.65761 l -1.3969,1.29662 c -0.2221,-0.23926 -0.437,-0.47911 -0.6498,-0.71465 l 1.4371,-1.23988 z m 29.0244,1.21931 -1.5915,-1.04668 c 0.1653,-0.25161 0.3225,-0.50585 0.4713,-0.76343 l 1.6497,0.95321 c -0.1688,0.29245 -0.3461,0.57776 -0.5295,0.8569 z m -26.554,-1.34061 -0.9533,-0.0186 0.037,-1.90436 0.9522,0.0177 z m -39.0391,-0.0284 v -1.90543 h 0.9521 v 1.90543 z m 1.9055,0 v -1.90543 h 0.9521 v 1.90543 z m 1.9043,0 v -1.90543 h 0.9534 v 1.90543 z m 1.9055,0 v -1.90543 h 0.9531 v 1.90543 z m 1.9054,0 v -1.90543 h 0.9523 v 1.90543 z m 1.9055,0 v -1.90543 h 0.9523 v 1.90543 z m 1.9053,0 v -1.90543 h 0.9524 v 1.90543 z m 1.9045,0 v -1.90543 h 0.9533 v 1.90543 z m 1.9056,0 v -1.90543 h 0.9531 v 1.90543 z m 1.9054,0 v -1.90543 h 0.9523 v 1.90543 z m 1.9055,0 v -1.90543 h 0.9522 v 1.90543 z m 1.9054,0 v -1.90543 h 0.9523 v 1.90543 z m 1.9044,0 v -1.90543 h 0.9532 v 1.90543 z m 1.9055,0 v -1.90543 h 0.9532 v 1.90543 z m 1.9055,0 v -1.90543 h 0.9521 v 1.90543 z m 1.9054,0 v -1.90543 h 0.9522 v 1.90543 z m 1.9054,0 v -1.90543 h 0.9523 v 1.90543 z m 1.9046,0 v -1.90543 h 0.953 v 1.90543 z m 1.9054,0 v -1.90543 h 0.9532 v 1.90543 z m 32.3076,-0.36829 -1.6974,-0.86543 c 0.1352,-0.26531 0.263,-0.53612 0.3835,-0.81104 l 1.7451,0.7653 c -0.1344,0.30666 -0.2781,0.61087 -0.4312,0.91117 z m -68.2467,-0.0245 -0.6231,-0.7214 1.4418,-1.24518 0.6229,0.72033 z m -1.2462,-1.44181 -0.6221,-0.72042 1.4408,-1.24616 0.6231,0.72042 z m 70.301,-0.37604 -1.7834,-0.66976 c 0.1043,-0.27815 0.2001,-0.5619 0.2891,-0.84916 l 1.8207,0.56483 c -0.099,0.31931 -0.2075,0.63773 -0.3264,0.95409 z m -71.5463,-1.06578 -0.623,-0.72032 1.4419,-1.24615 0.623,0.72139 z m 61.2386,-0.67741 -0.046,-1.90553 c 0.2344,-0.01 0.4674,-0.0421 0.687,-0.10773 l 0.5485,1.82441 c -0.3886,0.11698 -0.7891,0.18889 -1.1896,0.18889 z m -1.1926,-0.12982 c -0.3931,-0.096 -0.7708,-0.24376 -1.1232,-0.44079 l 0.9293,-1.66304 c 0.2019,0.11277 0.4203,0.1983 0.6441,0.25287 z m 12.0967,-0.0489 -1.8482,-0.46471 c 0.072,-0.28835 0.1358,-0.57992 0.1917,-0.87502 l 1.872,0.35506 c -0.062,0.32871 -0.1332,0.65703 -0.2155,0.98467 z m -8.6208,-0.5038 -1.0047,-1.61925 c 0.1967,-0.12208 0.3783,-0.27149 0.5363,-0.44177 l 1.3977,1.29484 c -0.2738,0.29541 -0.5867,0.55338 -0.9293,0.76618 z m -64.7678,-0.0813 -0.6231,-0.72041 1.4417,-1.24607 0.6232,0.7214 z m 59.208,-0.5228 c -0.2888,-0.2809 -0.539,-0.59962 -0.7433,-0.94743 l 1.642,-0.96575 c 0.1174,0.19978 0.2631,0.38592 0.4294,0.54759 z m 14.5556,-0.8664 -1.8883,-0.25474 c 0.04,-0.29393 0.07,-0.59226 0.093,-0.89305 l 1.8998,0.14598 c -0.024,0.33224 -0.059,0.66644 -0.1053,1.00181 z m -74.2998,-1.80805 -1.4632,-1.21853 0.6232,-0.72022 1.4416,1.24517 m -0.4475,0.44413 0.6221,0.7214 -1.4407,1.24518 -0.6231,-0.72042 m 68.2137,0.53749 -1.6852,-0.88825 c 0.1075,-0.20447 0.1878,-0.42453 0.2367,-0.64987 l 1.8617,0.40455 c -0.087,0.39523 -0.2249,0.77635 -0.4132,1.13357 z m -8.3918,-0.91313 c -0.1075,-0.39171 -0.1593,-0.7938 -0.1594,-1.19374 h 1.9055 c 10e-5,0.23534 0.032,0.46911 0.091,0.68995 z m 15.9179,-0.81869 -1.9042,-0.0421 c 0.011,-0.29853 0.011,-0.59755 -0.011,-0.89687 l 1.9045,-0.0686 c 0.012,0.33527 0.013,0.67104 0.011,1.00758 z m -8.9163,-0.50566 c -0.012,-0.23327 -0.054,-0.46411 -0.1252,-0.6822 l 1.8111,-0.59452 c 0.1265,0.38544 0.1983,0.78508 0.2175,1.186 z m -5.1691,-0.42178 -1.8797,-0.31303 c 0.067,-0.39866 0.1863,-0.78636 0.3568,-1.15259 l 1.7271,0.8035 c -0.097,0.20928 -0.1665,0.43452 -0.2042,0.66212 z m -59.5233,0 -1.4418,-1.24606 0.623,-0.72051 1.4408,1.24527 z m 64.2639,-0.88913 c -0.1269,-0.1938 -0.2811,-0.37231 -0.4551,-0.52574 l 1.2603,-1.42839 c 0.3022,0.2663 0.5672,0.57208 0.7883,0.90921 z m 7.3785,-0.0206 c -0.027,-0.29931 -0.062,-0.59618 -0.1053,-0.8902 l 1.8843,-0.28149 c 0.05,0.3342 0.089,0.6678 0.1193,1.00093 z m -11.5403,-0.27423 -1.459,-1.22519 c 0.2589,-0.30843 0.5586,-0.58178 0.8903,-0.81094 l 1.0829,1.56761 c -0.1907,0.13188 -0.3651,0.2906 -0.5142,0.46852 z m -58.8571,-0.25817 -1.4417,-1.24616 0.6231,-0.72031 1.4418,1.24616 z m 61.9827,-0.36358 c -0.207,-0.10269 -0.43,-0.17793 -0.6566,-0.22132 l 0.3589,-1.87115 c 0.3971,0.0765 0.7821,0.20613 1.144,0.38553 z m -2.0362,-0.1211 -0.6383,-1.79483 c 0.3819,-0.13579 0.7794,-0.21819 1.1803,-0.24699 l 0.1374,1.90053 c -0.2324,0.0157 -0.4628,0.0646 -0.6794,0.14129 z m 10.1895,-0.76049 c -0.06,-0.29511 -0.1286,-0.58629 -0.2052,-0.87307 l 1.8405,-0.49232 c 0.088,0.32684 0.1637,0.65487 0.2311,0.98182 z m -68.8897,-0.19654 -1.4419,-1.24518 0.6232,-0.7214 1.4416,1.24616 z m 5.4414,-0.19458 -0.8252,-0.47528 0.9503,-1.65061 0.7576,0.43599 -0.011,-0.0177 0.8456,-0.43893 0.8777,1.68978 -0.8454,0.43992 -0.8254,-1.58966 z m 12.342,-0.22153 c -0.3003,0.0304 -0.7395,-0.0735 -0.7395,-0.0735 l 0.2634,-1.88731 c 0,0 0.1053,0.0441 0.1982,0.0274 0.093,-0.0157 0.1433,-0.0588 0.1433,-0.0588 l 0.8559,1.70126 c -0.2096,0.14766 -0.421,0.25993 -0.7213,0.29099 z m -1.6832,-0.20506 -0.9436,-0.13178 0.2633,-1.88711 0.9438,0.13158 z m 9.5235,-0.16891 -0.1413,-0.0598 0.4571,-1.87175 v -0.01 l 0.2919,-0.16215 0.9256,1.66511 -0.6994,0.38818 c -0.2567,0.14245 -0.5648,0.15872 -0.8349,0.0441 z m -11.7132,-0.22231 -0.8426,-0.44363 0.8865,-1.68598 0.8425,0.44266 z m -5.0274,-0.0783 -0.878,-1.69077 0.8455,-0.43894 0.8779,1.69078 z m 10.4728,-0.0441 -0.8559,-1.70214 0.8511,-0.42845 0.8558,1.70233 z m -15.5661,-0.01 -0.8253,-0.47519 0.9512,-1.65157 0.8253,0.47607 z m 20.8157,-0.0774 -0.8767,-0.37212 0.7451,-1.75357 0.8768,0.37211 z m -22.9056,-0.72925 -0.6231,0.72033 -1.4407,-1.24508 0.622,-0.7214 c 0.4741,0.42316 0.9558,0.83701 1.4418,1.24615 z m 66.7298,0.41072 c -0.093,-0.2855 -0.1938,-0.56738 -0.3024,-0.84445 l 1.7746,-0.69563 c 0.1232,0.31421 0.2351,0.63096 0.3389,0.94929 z m -40.4398,-0.14422 -0.9245,-1.6648 0.8319,-0.46294 0.9256,1.665 z m -17.4548,-0.20124 -0.8777,-1.69077 0.8455,-0.43981 0.8545,1.67352 z m 1.7323,-2.14215 0.8435,0.44275 -0.8864,1.68696 -0.8435,-0.44373 0.066,-0.1211 z m 10.5844,2.06201 -0.8769,-0.37211 0.7452,-1.75388 0.877,0.37231 z m -1.9161,0.0362 -0.8558,-1.70214 0.8512,-0.42844 0.8558,1.70223 z m 15.8783,-0.53093 v -1.90543 c 0.2773,9e-5 0.5538,0 0.8302,0 l -0.3284,-0.17176 v -0.01 l 0.3359,0.17557 c 0.036,-2e-4 0.072,2e-4 0.1076,0 v 0.0568 l 0.9541,0.49899 -0.011,-0.562 c 0.3163,0 0.6301,-0.01 0.9427,-0.01 l 0.033,1.90456 c -0.3226,0.01 -0.6431,0.01 -0.9619,0.011 l -0.011,-1.33865 -0.9542,-0.49909 0.011,1.84352 c -0.3201,0 -0.6397,0 -0.9581,0 z m -0.9543,0 h -0.9522 l 0.011,-1.90543 0.9523,0.01 z m -1.9072,-0.01 h -0.4992 -0.4541 l 0.011,-1.90544 h 0.4533 0.4989 z m -1.9426,-0.01 -0.9142,-0.01 0.011,-1.90534 0.9151,0.01 v 0 h 0.037 l -0.011,1.90533 z m -1.8644,-0.01 h -0.9534 v -1.90543 h 0.9534 z m 10.4793,0 v -1.90543 h 0.9532 v 1.90553 z m 27.1514,-0.72894 c -0.1234,-0.27139 -0.2553,-0.53985 -0.395,-0.80526 l 1.6858,-0.88748 c 0.1563,0.29658 0.3044,0.59776 0.4438,0.90452 z m -28.1839,-1.52716 -1.6489,-0.95409 c 0.168,-0.2902 0.3445,-0.5757 0.5296,-0.8567 l 1.5906,1.04746 c -0.1641,0.24935 -0.3212,0.50399 -0.4713,0.76333 z m 27.3471,-0.0637 c -0.1527,-0.25571 -0.3141,-0.5076 -0.4828,-0.75578 l 1.5762,-1.07146 c 0.1883,0.27717 0.3702,0.56071 0.5429,0.85013 z m -26.5074,-1.16209 -1.5371,-1.12604 c 0.1966,-0.26864 0.4011,-0.53387 0.6154,-0.79478 l 1.4723,1.20903 c -0.1889,0.22985 -0.3721,0.46803 -0.5506,0.71179 z m 25.4988,-0.3245 c -0.182,-0.23866 -0.3698,-0.47165 -0.5639,-0.69738 l 1.4446,-1.24146 c 0.2198,0.25572 0.4306,0.51721 0.6335,0.78341 z m -24.3547,-1.07529 -1.4151,-1.27574 c 0.2271,-0.2515 0.4603,-0.4938 0.6977,-0.72806 l 1.3385,1.35687 c -0.2146,0.21202 -0.4226,0.42689 -0.6211,0.64693 z m 23.185,-0.29098 c -0.2068,-0.21633 -0.4194,-0.42639 -0.6384,-0.63077 l 1.2995,-1.39302 c 0.2456,0.22896 0.4847,0.46509 0.7166,0.70797 z m -21.9055,-0.9732 -1.2652,-1.42457 c 0.2491,-0.22113 0.5058,-0.43883 0.7729,-0.6489 l 1.1783,1.49806 c -0.2321,0.18262 -0.4602,0.37486 -0.686,0.57541 z m 20.5907,-0.25493 c -0.2285,-0.19135 -0.4635,-0.37623 -0.7042,-0.55523 l 1.1374,-1.52951 c 0.2688,0.19997 0.5326,0.40837 0.7909,0.625 z m -19.1784,-0.86533 -1.106,-1.55144 c 0.2759,-0.19664 0.5561,-0.3828 0.8387,-0.56004 l 1.0124,1.61445 c -0.2555,0.16009 -0.504,0.32519 -0.7451,0.49703 z m 17.7375,-0.20692 c -0.2503,-0.16578 -0.504,-0.32391 -0.7615,-0.47342 l 0.9562,-1.64786 c 0.2916,0.16941 0.5775,0.34673 0.8568,0.53152 z m -16.2177,-0.74629 -0.9197,-1.66774 c 0.2941,-0.16225 0.5931,-0.31607 0.8968,-0.46097 l 0.8206,1.71937 c -0.2695,0.12865 -0.5357,0.26493 -0.7977,0.40934 z m 14.6653,-0.16019 c -0.267,-0.13647 -0.5371,-0.26463 -0.8101,-0.38465 l 0.7662,-1.74426 c 0.3085,0.13569 0.6118,0.27981 0.9103,0.43236 z m -13.046,-0.61362 -0.7214,-1.76317 c 0.3105,-0.12708 0.6263,-0.24534 0.9455,-0.35409 l 0.6145,1.80344 c -0.2819,0.096 -0.5616,0.20047 -0.8386,0.31382 z m 11.4,-0.11159 c -0.2783,-0.10521 -0.5607,-0.20251 -0.8471,-0.29197 l 0.5676,-1.81873 c 0.3197,0.0999 0.6376,0.20898 0.9532,0.32831 z m -9.7045,-0.46744 -0.5096,-1.83588 c 0.3236,-0.0902 0.6507,-0.17097 0.9809,-0.24151 l 0.3977,1.86351 c -0.2908,0.0618 -0.5807,0.13382 -0.869,0.21388 z m 7.9891,-0.0686 c -0.2878,-0.0735 -0.5794,-0.13677 -0.8751,-0.1937 l 0.3599,-1.87105 c 0.3279,0.0628 0.6568,0.13522 0.9846,0.21849 z m -6.2373,-0.30725 -0.2901,-1.88339 c 0.3332,-0.0519 0.6682,-0.092 1.0028,-0.12316 l 0.1766,1.89682 c -0.2977,0.0274 -0.5949,0.0646 -0.8893,0.10973 z m 4.473,-0.0314 c -0.2948,-0.0392 -0.5926,-0.0715 -0.8921,-0.094 l 0.148,-1.89967 c 0.3336,0.0264 0.6683,0.0608 1.0027,0.10686 z m -2.6878,-0.13549 -0.068,-1.90349 c 0.3368,-0.0117 0.6729,-0.0137 1.0085,-0.01 l -0.046,1.90456 c -0.2995,-0.01 -0.598,-0.01 -0.8959,0.01 z"
           id="path2-7-9-5-7-0-0" /></g></g></g></svg>
