<?xml version="1.0" encoding="UTF-8" standalone="no"?>
<svg
   viewBox="0 0 657.02161 189.17072"
   version="1.1"
   id="svg1"
   width="657.02161"
   height="189.17072"
   xml:space="preserve"
   xmlns="http://www.w3.org/2000/svg"
   xmlns:svg="http://www.w3.org/2000/svg"><defs
     id="defs1"><linearGradient
       id="swatch251"><stop
         style="stop-color:#195962;stop-opacity:1;"
         offset="0"
         id="stop251" /></linearGradient><marker
       style="overflow:visible"
       id="Square-4"
       refX="0"
       refY="0"
       orient="auto"
       markerWidth="1"
       markerHeight="1"
       viewBox="0 0 1 1"
       preserveAspectRatio="xMidYMid"><path
         transform="scale(0.5)"
         style="fill:context-stroke;fill-rule:evenodd;stroke:none"
         d="M -5,-5 V 5 H 5 V -5 Z"
         id="path18-3" /></marker><filter
       style="color-interpolation-filters:sRGB"
       id="filter90-2-0-5"
       x="-0.019165826"
       y="-0.028762213"
       width="1.0414438"
       height="1.0655139"><feFlood
         result="flood"
         in="SourceGraphic"
         flood-opacity="0.796078"
         flood-color="rgb(62,67,73)"
         id="feFlood89-3-6-2" /><feGaussianBlur
         result="blur"
         in="SourceGraphic"
         stdDeviation="2.132 0"
         id="feGaussianBlur89-7-8-5" /><feOffset
         result="offset"
         in="blur"
         dx="1.000000"
         dy="1.000000"
         id="feOffset89-5-9-4" /><feComposite
         result="comp1"
         operator="in"
         in="flood"
         in2="offset"
         id="feComposite89-9-2-7" /><feComposite
         result="fbSourceGraphic"
         operator="over"
         in="SourceGraphic"
         in2="comp1"
         id="feComposite90-2-6-4" /><feColorMatrix
         result="fbSourceGraphicAlpha"
         in="fbSourceGraphic"
         values="0 0 0 -1 0 0 0 0 -1 0 0 0 0 -1 0 0 0 0 1 0"
         id="feColorMatrix90-2-6-4" /><feFlood
         id="feFlood90-8-4-3"
         result="flood"
         in="fbSourceGraphic"
         flood-opacity="0.796078"
         flood-color="rgb(62,67,73)" /><feGaussianBlur
         id="feGaussianBlur90-9-9-0"
         result="blur"
         in="fbSourceGraphic"
         stdDeviation="3.000000" /><feOffset
         id="feOffset90-7-5-7"
         result="offset"
         in="blur"
         dx="1.000000"
         dy="1.000000" /><feComposite
         id="feComposite91-3-0-8"
         result="comp1"
         operator="in"
         in="flood"
         in2="offset" /><feComposite
         id="feComposite92-6-4-6"
         result="comp2"
         operator="over"
         in="fbSourceGraphic"
         in2="comp1" /></filter></defs><!--! Font Awesome Pro 6.4.2 by @fontawesome - https://fontawesome.com License - https://fontawesome.com/license (Commercial License) Copyright 2023 Fonticons, Inc. --><g
     id="layer18"
     style="display:inline"
     transform="translate(-2435.5118,2102.3859)"><g
       id="layer25"><path
         style="display:inline;fill:#ffffff;fill-opacity:1;stroke:none;stroke-width:1.31168;stroke-linecap:butt;stroke-linejoin:miter;stroke-dasharray:none;stroke-dashoffset:0;stroke-opacity:1;paint-order:fill markers stroke;filter:url(#filter90-2-0-5)"
         id="rect65-7-3"
         width="642.6438"
         height="250.32849"
         x="825.70776"
         y="875.02576"
         transform="matrix(0.67681622,0,0,0.57271382,1980.6417,-2579.5677)"
         d="m 860.41563,875.02576 h 573.22807 c 19.2282,0 34.7079,18.29346 34.7079,41.01672 v 168.29502 c 0,22.7233 -15.4797,41.0167 -34.7079,41.0167 H 860.41563 c -19.22816,0 -34.70787,-18.2934 -34.70787,-41.0167 V 916.04248 c 0,-22.72326 15.47971,-41.01672 34.70787,-41.01672 z"
         ry="41.016724"
         rx="34.707863" /><g
         id="g10-8-7-3-0-9"
         transform="matrix(0.55050909,0.33336718,-0.33336718,0.55050909,2745.1539,-2546.3344)"
         style="display:inline;fill:#c83737;stroke-width:1.7;stroke-dasharray:none"><circle
           style="fill:#ffffff;fill-opacity:1;stroke:none;stroke-width:14.841;stroke-linecap:square;stroke-dasharray:none;stroke-dashoffset:0;stroke-opacity:1;paint-order:fill markers stroke"
           id="path73-6-7-4-9"
           cx="228.22922"
           cy="841.32001"
           transform="rotate(0.01535728)"
           r="33.171581" /><path
           id="path3-6-9-0-8-3"
           style="font-variation-settings:'wght' 700;fill:none;stroke:#195962;stroke-width:6.40174;stroke-linecap:round;stroke-linejoin:round;paint-order:markers fill stroke"
           d="m 563.52509,693.28894 a 35.520878,35.520878 0 0 1 -35.52088,35.52088 35.520878,35.520878 0 0 1 -35.52088,-35.52088 35.520878,35.520878 0 0 1 35.52088,-35.52088 35.520878,35.520878 0 0 1 35.52088,35.52088 z"
           transform="rotate(22.152263)" /><g
           id="g9-2-1-6-0-6"
           transform="translate(-1.3219444,-1.6027733)"><path
             d="m 221.1513,845.27224 c 0.0245,1.19424 -0.23692,2.22055 -0.78414,3.07896 -0.54765,0.83668 -1.38159,1.48371 -2.5018,1.94111 -1.12021,0.45737 -2.51629,0.70319 -4.18825,0.73743 -1.23765,0.0254 -2.3034,-0.0398 -3.19722,-0.19519 -0.40967,-0.0614 -0.81981,-0.1454 -1.2304,-0.25248 -0.81861,-0.21326 -1.47042,-1.16054 -1.48776,-2.00679 l -0.0193,-0.94161 c -0.0173,-0.84625 0.59808,-1.25531 1.40189,-0.99093 0.54067,0.1779 1.10164,0.33456 1.68292,0.47012 1.11318,0.2596 2.09317,0.38071 2.94,0.36338 0.95541,-0.0196 1.62563,-0.17459 2.01069,-0.46476 0.40678,-0.29073 0.6055,-0.66408 0.59616,-1.12009 -0.006,-0.30395 -0.0986,-0.57361 -0.27724,-0.80889 -0.15687,-0.23564 -0.50985,-0.50005 -1.05893,-0.79293 -0.54906,-0.29285 -1.40389,-0.66636 -2.56449,-1.1205 -1.11717,-0.45504 -2.0387,-0.90321 -2.76459,-1.3445 -0.72633,-0.46305 -1.26988,-1.0167 -1.63063,-1.66098 -0.36121,-0.66602 -0.55204,-1.49842 -0.57249,-2.49726 -0.0338,-1.65022 0.58141,-2.901 1.84562,-3.75236 1.2642,-0.85137 2.96027,-1.29882 5.08819,-1.3424 1.1074,-0.0227 2.16274,0.0643 3.166,0.26099 0.55248,0.10835 1.1157,0.25922 1.68968,0.45273 0.80179,0.27028 1.17351,1.19658 0.86143,1.98335 l -0.26453,0.66566 c -0.31266,0.78654 -1.20031,1.16326 -2.0021,0.89235 -0.36088,-0.12188 -0.71322,-0.23163 -1.057,-0.32905 -0.78701,-0.24462 -1.58224,-0.35863 -2.38563,-0.34218 -0.71656,0.0147 -1.25739,0.12356 -1.62252,0.32648 -0.34343,0.20264 -0.51112,0.49924 -0.50312,0.89009 0.006,0.28225 0.098,0.54105 0.27657,0.77636 0.19986,0.21314 0.56303,0.44464 1.0895,0.69452 0.54818,0.24942 1.34781,0.58068 2.39896,0.99362 1.029,0.39161 1.91729,0.80789 2.66487,1.24877 0.74715,0.41919 1.32306,0.96129 1.72768,1.62641 0.4259,0.64296 0.64974,1.49642 0.67154,2.5604 z m 8.40639,-11.1515 0.30142,14.71885 c 0.0173,0.84626 -0.6546,1.54635 -1.5009,1.56367 l -1.78842,0.0366 c -0.84626,0.0173 -1.54635,-0.6546 -1.56367,-1.5009 l -0.30141,-14.71886 c -0.0173,-0.84627 0.6546,-1.54636 1.5009,-1.56367 l 1.78841,-0.0366 c 0.84627,-0.0173 1.54636,0.6546 1.56367,1.50092 z m -2.58432,-8.45298 c 0.71654,-0.0147 1.33892,0.1463 1.86718,0.48309 0.52779,0.31507 0.80102,0.92856 0.8197,1.8405 0.0182,0.89027 -0.22965,1.51444 -0.74357,1.87258 -0.51404,0.35807 -1.12931,0.54445 -1.84585,0.55913 -0.73826,0.0151 -1.37152,-0.14564 -1.89976,-0.48242 -0.50653,-0.33721 -0.7689,-0.95093 -0.78714,-1.84119 -0.0187,-0.91197 0.21837,-1.53591 0.71111,-1.87186 0.51401,-0.35808 1.14015,-0.54469 1.87841,-0.5598 z m 13.39221,6.37288 c 1.08569,-0.0222 2.06723,0.17489 2.94469,0.5914 0.87743,0.41649 1.62903,1.05274 2.25479,1.90885 l 0.13022,-0.003 c 0.053,-1.62151 0.92731,-2.07451 1.82469,-2.0929 l 1.0393,-0.0213 c 0.84625,-0.0173 1.54634,0.6546 1.56365,1.50091 l 0.14972,16.1761 c 0.006,0.63934 -0.23499,1.62306 -0.66503,2.2835 -0.43004,0.66044 -1.6198,1.93803 -2.93234,2.55141 -1.31208,0.63511 -2.94522,0.97267 -4.89944,1.0127 -1.2594,0.0258 -2.43346,-0.0261 -3.52226,-0.15591 -0.5644,-0.0688 -1.12339,-0.17137 -1.677,-0.30716 -0.82165,-0.20163 -1.4805,-1.1291 -1.49782,-1.97537 l -0.0166,-0.8113 c -0.0173,-0.84624 0.6054,-1.27193 1.41728,-1.03366 0.63265,0.18566 1.27493,0.33315 1.92677,0.44237 1.17744,0.21474 2.3741,0.30981 3.59007,0.28491 1.25939,-0.0258 1.98092,-0.20257 2.81336,-0.83044 0.83244,-0.62787 0.89293,-1.80789 0.88606,-2.76748 -0.007,-0.9596 -0.0109,-0.89572 0.005,-1.20015 l -0.093,0.14247 c -0.58885,0.94616 -1.30245,1.63415 -2.14085,2.06405 -0.8384,0.4299 -1.78955,0.65574 -2.85352,0.67753 -2.10622,0.0431 -3.77289,-0.72647 -5.00005,-2.30882 -1.2059,-1.60451 -1.8384,-3.85073 -1.89754,-6.73862 -0.0596,-2.90961 0.50192,-5.19113 1.68453,-6.84455 1.18262,-1.65342 2.83789,-2.50193 4.96582,-2.54551 z m 1.61152,3.90968 c -0.75999,0.0156 -1.3963,0.235 -1.90898,0.65818 -0.4914,0.40107 -0.85915,1.00596 -1.10329,1.81472 -0.22283,0.78655 -0.32202,1.77699 -0.29756,2.97124 0.0365,1.78052 0.34608,3.1101 0.92888,3.9888 0.58233,0.85699 1.47062,1.27326 2.66486,1.2488 0.62971,-0.0129 1.17099,-0.0999 1.62385,-0.2613 0.45245,-0.18299 0.81602,-0.46201 1.09073,-0.83695 0.29598,-0.39705 0.51374,-0.90114 0.65333,-1.5122 0.1396,-0.6111 0.20037,-1.3509 0.18258,-2.21946 l -0.012,-0.58626 c -0.0262,-1.2811 -0.17753,-2.30982 -0.4542,-3.08619 -0.27657,-0.77636 -0.68982,-1.33268 -1.23979,-1.66898 -0.55038,-0.358 -1.25984,-0.52813 -2.12841,-0.51033 z"
             style="font-size:13.2602px;font-family:'Noto Sans';-inkscape-font-specification:'Noto Sans, @wght=700';font-variation-settings:'wght' 700;display:inline;fill:#195962;stroke-width:10.8591;stroke-linecap:round;stroke-linejoin:round;paint-order:markers fill stroke"
             id="path1-2-8-1-9-4-0" /><path
             id="path4-4-9-2-29-5"
             style="font-variation-settings:'wght' 700;display:inline;fill:none;stroke:#195962;stroke-width:3.64767;stroke-linecap:round;stroke-linejoin:round;stroke-opacity:1;paint-order:markers fill stroke"
             d="m 208.35953,828.56065 c 4.20155,-6.40232 11.67933,-11.91499 20.19969,-11.73012 8.20624,0.17805 13.83263,3.91368 19.70116,9.24107" /><path
             id="path4-6-7-0-1-61-0"
             style="font-variation-settings:'wght' 700;display:inline;fill:none;stroke:#195962;stroke-width:3.64767;stroke-linecap:round;stroke-linejoin:round;stroke-opacity:1;paint-order:markers fill stroke"
             d="m 248.51397,859.76996 c -5.73327,5.42971 -12.71409,8.56595 -19.29605,9.02109 -8.96638,0.62002 -15.41863,-3.91867 -20.7683,-10.62518" /></g></g><path
         style="display:inline;fill:none;fill-opacity:1;stroke:#195962;stroke-width:1.4;stroke-linecap:butt;stroke-linejoin:miter;stroke-dasharray:2.8, 2.8;stroke-dashoffset:0;stroke-opacity:1;marker-start:url(#Square-4);paint-order:fill markers stroke"
         d="m 2615.6864,-2004.3631 110.2489,0.03"
         id="path252-3" /><path
         style="font-weight:500;font-size:18.6667px;font-family:Montserrat;-inkscape-font-specification:'Montserrat Medium';font-variation-settings:'wght' 500;fill:#3e4349;stroke-width:1.7;stroke-linecap:round;stroke-linejoin:round;paint-order:markers fill stroke"
         d="m 2762.466,-1978.0749 q -1.96,0 -3.5467,-0.8587 -1.568,-0.8773 -2.464,-2.3893 -0.896,-1.5307 -0.896,-3.4347 0,-1.904 0.896,-3.416 0.896,-1.5307 2.4827,-2.3893 1.5867,-0.8774 3.5467,-0.8774 1.5306,0 2.8,0.5227 1.2693,0.504 2.1653,1.512 l -1.2133,1.176 q -1.4747,-1.5493 -3.6774,-1.5493 -1.456,0 -2.632,0.6533 -1.176,0.6533 -1.848,1.8107 -0.6533,1.1386 -0.6533,2.5573 0,1.4187 0.6533,2.576 0.672,1.1387 1.848,1.792 1.176,0.6534 2.632,0.6534 2.184,0 3.6774,-1.568 l 1.2133,1.176 q -0.896,1.008 -2.184,1.5306 -1.2693,0.5227 -2.8,0.5227 z m 9.1094,-8.3814 q 0.4666,-0.8586 1.3813,-1.3066 0.9147,-0.448 2.2213,-0.448 v 1.736 q -0.1493,-0.019 -0.4106,-0.019 -1.456,0 -2.296,0.8773 -0.8214,0.8587 -0.8214,2.464 v 4.9281 h -1.792 v -9.8934 h 1.7174 z m 13.216,-1.6613 h 1.7546 l -4.7973,10.8827 q -0.6347,1.512 -1.4933,2.128 -0.84,0.616 -2.0347,0.616 -0.728,0 -1.4187,-0.2427 -0.672,-0.224 -1.12,-0.672 l 0.7653,-1.344 q 0.7654,0.728 1.7734,0.728 0.6533,0 1.0827,-0.3546 0.448,-0.336 0.8026,-1.176 l 0.3174,-0.6907 -4.3681,-9.8747 h 1.8667 l 3.4534,7.9147 z m 8.68,-0.093 q 1.4373,0 2.576,0.6346 1.1387,0.6347 1.7733,1.7734 0.6534,1.1386 0.6534,2.632 0,1.4933 -0.6534,2.6507 -0.6346,1.1386 -1.7733,1.7733 -1.1387,0.6347 -2.576,0.6347 -1.064,0 -1.96,-0.4107 -0.8774,-0.4107 -1.4934,-1.1947 v 5.1147 h -1.792 v -13.5147 h 1.7174 v 1.568 q 0.5973,-0.8213 1.512,-1.232 0.9146,-0.4293 2.016,-0.4293 z m -0.1494,8.5307 q 0.952,0 1.6987,-0.4294 0.7654,-0.448 1.1947,-1.232 0.448,-0.8027 0.448,-1.8293 0,-1.0267 -0.448,-1.8107 -0.4293,-0.8027 -1.1947,-1.232 -0.7467,-0.4293 -1.6987,-0.4293 -0.9333,0 -1.6986,0.448 -0.7467,0.4293 -1.1947,1.2133 -0.4293,0.784 -0.4293,1.8107 0,1.0266 0.4293,1.8293 0.4293,0.784 1.1947,1.232 0.7653,0.4294 1.6986,0.4294 z m 13.1974,0.8773 q -0.392,0.336 -0.9707,0.5227 -0.5786,0.168 -1.1946,0.168 -1.4934,0 -2.3147,-0.8027 -0.8214,-0.8027 -0.8214,-2.296 v -5.432 h -1.68 v -1.4747 h 1.68 v -2.1653 h 1.792 v 2.1653 h 2.8374 v 1.4747 h -2.8374 v 5.3573 q 0,0.8027 0.392,1.232 0.4107,0.4294 1.1574,0.4294 0.8213,0 1.4,-0.4667 z m 6.0667,0.6907 q -1.4747,0 -2.6507,-0.6534 -1.176,-0.6533 -1.848,-1.792 -0.6533,-1.1573 -0.6533,-2.6133 0,-1.456 0.6533,-2.5947 0.672,-1.1573 1.848,-1.792 1.176,-0.6533 2.6507,-0.6533 1.4746,0 2.632,0.6533 1.176,0.6347 1.8293,1.792 0.672,1.1387 0.672,2.5947 0,1.456 -0.672,2.6133 -0.6533,1.1387 -1.8293,1.792 -1.1574,0.6534 -2.632,0.6534 z m 0,-1.568 q 0.952,0 1.6986,-0.4294 0.7654,-0.448 1.1947,-1.232 0.4293,-0.8027 0.4293,-1.8293 0,-1.0267 -0.4293,-1.8107 -0.4293,-0.8027 -1.1947,-1.232 -0.7466,-0.4293 -1.6986,-0.4293 -0.952,0 -1.7174,0.4293 -0.7466,0.4293 -1.1946,1.232 -0.4294,0.784 -0.4294,1.8107 0,1.0266 0.4294,1.8293 0.448,0.784 1.1946,1.232 0.7654,0.4294 1.7174,0.4294 z m 15.3813,-8.4374 h 1.6987 v 8.5494 q 0,2.5946 -1.288,3.8266 -1.288,1.2507 -3.8453,1.2507 -1.4,0 -2.6694,-0.392 -1.2693,-0.3733 -2.0533,-1.0827 l 0.8586,-1.3813 q 0.6907,0.5973 1.6987,0.9333 1.0267,0.3547 2.1094,0.3547 1.736,0 2.5573,-0.8213 0.84,-0.8214 0.84,-2.5014 v -0.784 q -0.6347,0.7654 -1.568,1.1574 -0.9147,0.3733 -1.9973,0.3733 -1.4187,0 -2.5761,-0.5973 -1.1386,-0.616 -1.792,-1.6987 -0.6533,-1.1014 -0.6533,-2.5014 0,-1.4 0.6533,-2.4826 0.6534,-1.1014 1.792,-1.6987 1.1574,-0.5973 2.5761,-0.5973 1.12,0 2.072,0.4106 0.9706,0.4107 1.5866,1.2134 z m -3.4533,7.9147 q 0.9707,0 1.736,-0.4107 0.784,-0.4106 1.2133,-1.1386 0.448,-0.7467 0.448,-1.6801 0,-1.4373 -0.952,-2.3146 -0.952,-0.896 -2.4453,-0.896 -1.512,0 -2.464,0.896 -0.952,0.8773 -0.952,2.3146 0,0.9334 0.4293,1.6801 0.448,0.728 1.2134,1.1386 0.784,0.4107 1.7733,0.4107 z m 10.2854,-6.2534 q 0.4666,-0.8586 1.3813,-1.3066 0.9147,-0.448 2.2213,-0.448 v 1.736 q -0.1493,-0.019 -0.4106,-0.019 -1.456,0 -2.296,0.8773 -0.8214,0.8587 -0.8214,2.464 v 4.9281 h -1.792 v -9.8934 h 1.7174 z m 8.68,-1.7546 q 2.0533,0 3.136,1.008 1.1013,1.008 1.1013,3.0053 v 5.9734 h -1.6987 v -1.3067 q -0.448,0.6907 -1.288,1.064 -0.8213,0.3547 -1.96,0.3547 -1.6613,0 -2.6693,-0.8027 -0.9893,-0.8027 -0.9893,-2.1093 0,-1.3067 0.952,-2.0907 0.952,-0.8027 3.024,-0.8027 h 2.8373 v -0.3547 q 0,-1.1573 -0.672,-1.7733 -0.672,-0.616 -1.9787,-0.616 -0.8773,0 -1.7173,0.2987 -0.84,0.28 -1.4187,0.7653 l -0.7466,-1.344 q 0.7653,-0.616 1.8293,-0.9333 1.064,-0.336 2.2587,-0.336 z m -0.4107,8.7173 q 1.0267,0 1.7733,-0.448 0.7467,-0.4666 1.0827,-1.3066 v -1.3814 h -2.7627 q -2.2773,0 -2.2773,1.5307 0,0.7467 0.5787,1.176 0.5786,0.4293 1.6053,0.4293 z m 13.216,-8.7173 q 1.4374,0 2.576,0.6346 1.1387,0.6347 1.7734,1.7734 0.6533,1.1386 0.6533,2.632 0,1.4933 -0.6533,2.6507 -0.6347,1.1386 -1.7734,1.7733 -1.1386,0.6347 -2.576,0.6347 -1.064,0 -1.96,-0.4107 -0.8773,-0.4107 -1.4933,-1.1947 v 5.1147 h -1.792 v -13.5147 h 1.7173 v 1.568 q 0.5973,-0.8213 1.512,-1.232 0.9147,-0.4293 2.016,-0.4293 z m -0.1493,8.5307 q 0.952,0 1.6987,-0.4294 0.7653,-0.448 1.1946,-1.232 0.448,-0.8027 0.448,-1.8293 0,-1.0267 -0.448,-1.8107 -0.4293,-0.8027 -1.1946,-1.232 -0.7467,-0.4293 -1.6987,-0.4293 -0.9334,0 -1.6987,0.448 -0.7467,0.4293 -1.1947,1.2133 -0.4293,0.784 -0.4293,1.8107 0,1.0266 0.4293,1.8293 0.4294,0.784 1.1947,1.232 0.7653,0.4294 1.6987,0.4294 z m 12.9173,-8.5307 q 1.8854,0 2.9867,1.1013 1.12,1.0827 1.12,3.192 v 5.6934 h -1.792 v -5.4881 q 0,-1.4373 -0.6907,-2.1653 -0.6906,-0.728 -1.9786,-0.728 -1.456,0 -2.296,0.8587 -0.84,0.84 -0.84,2.4266 v 5.0961 h -1.7921 v -13.8507 h 1.7921 v 5.3573 q 0.56,-0.7093 1.456,-1.1013 0.9146,-0.392 2.0346,-0.392 z m 9.2214,9.9867 h -1.792 v -9.8934 h 1.792 z m -0.896,-11.7974 q -0.5227,0 -0.8774,-0.336 -0.336,-0.336 -0.336,-0.8213 0,-0.4854 0.336,-0.8214 0.3547,-0.3546 0.8774,-0.3546 0.5226,0 0.8586,0.336 0.3547,0.3173 0.3547,0.8026 0,0.504 -0.3547,0.8587 -0.336,0.336 -0.8586,0.336 z m 8.624,11.9094 q -1.512,0 -2.7067,-0.6534 -1.176,-0.6533 -1.848,-1.792 -0.672,-1.1573 -0.672,-2.6133 0,-1.456 0.672,-2.5947 0.672,-1.1573 1.848,-1.792 1.1947,-0.6533 2.7067,-0.6533 1.344,0 2.3893,0.5413 1.064,0.5413 1.6427,1.568 l -1.3627,0.8773 q -0.4667,-0.7093 -1.1573,-1.064 -0.6907,-0.3546 -1.5307,-0.3546 -0.9707,0 -1.7547,0.4293 -0.7653,0.4293 -1.2133,1.232 -0.4293,0.784 -0.4293,1.8107 0,1.0453 0.4293,1.848 0.448,0.784 1.2133,1.2133 0.784,0.4294 1.7547,0.4294 0.84,0 1.5307,-0.3547 0.6906,-0.3547 1.1573,-1.064 l 1.3627,0.8587 q -0.5787,1.0266 -1.6427,1.5866 -1.0453,0.5414 -2.3893,0.5414 z m 14.2053,0 q -1.2133,0 -2.3333,-0.3174 -1.12,-0.336 -1.7547,-0.84 l 0.7467,-1.4186 q 0.6533,0.4666 1.5866,0.7466 0.9334,0.28 1.8854,0.28 2.352,0 2.352,-1.344 0,-0.448 -0.3174,-0.7093 -0.3173,-0.2613 -0.8026,-0.3734 -0.4667,-0.1306 -1.344,-0.28 -1.1947,-0.1866 -1.96,-0.4293 -0.7467,-0.2427 -1.288,-0.8213 -0.5414,-0.5787 -0.5414,-1.624 0,-1.344 1.12,-2.1467 1.12,-0.8213 3.0054,-0.8213 0.9893,0 1.9786,0.2426 0.9894,0.2427 1.624,0.6534 l -0.7653,1.4186 q -1.2133,-0.784 -2.856,-0.784 -1.1387,0 -1.736,0.3734 -0.5973,0.3733 -0.5973,0.9893 0,0.4853 0.336,0.7653 0.336,0.28 0.8213,0.4107 0.504,0.1307 1.4,0.2987 1.1947,0.2053 1.9227,0.448 0.7466,0.224 1.2693,0.784 0.5227,0.56 0.5227,1.568 0,1.344 -1.1574,2.1467 -1.1386,0.784 -3.1173,0.784 z m 8.3067,-0.112 h -1.792 v -9.8934 h 1.792 z m -0.896,-11.7974 q -0.5227,0 -0.8774,-0.336 -0.336,-0.336 -0.336,-0.8213 0,-0.4854 0.336,-0.8214 0.3547,-0.3546 0.8774,-0.3546 0.5226,0 0.8586,0.336 0.3547,0.3173 0.3547,0.8026 0,0.504 -0.3547,0.8587 -0.336,0.336 -0.8586,0.336 z m 12.0773,1.904 h 1.6987 v 8.5494 q 0,2.5946 -1.288,3.8266 -1.288,1.2507 -3.8454,1.2507 -1.4,0 -2.6693,-0.392 -1.2693,-0.3733 -2.0533,-1.0827 l 0.8586,-1.3813 q 0.6907,0.5973 1.6987,0.9333 1.0267,0.3547 2.1093,0.3547 1.736,0 2.5574,-0.8213 0.84,-0.8214 0.84,-2.5014 v -0.784 q -0.6347,0.7654 -1.568,1.1574 -0.9147,0.3733 -1.9974,0.3733 -1.4186,0 -2.576,-0.5973 -1.1386,-0.616 -1.792,-1.6987 -0.6533,-1.1014 -0.6533,-2.5014 0,-1.4 0.6533,-2.4826 0.6534,-1.1014 1.792,-1.6987 1.1574,-0.5973 2.576,-0.5973 1.12,0 2.072,0.4106 0.9707,0.4107 1.5867,1.2134 z m -3.4533,7.9147 q 0.9706,0 1.736,-0.4107 0.784,-0.4106 1.2133,-1.1386 0.448,-0.7467 0.448,-1.6801 0,-1.4373 -0.952,-2.3146 -0.952,-0.896 -2.4453,-0.896 -1.512,0 -2.464,0.896 -0.952,0.8773 -0.952,2.3146 0,0.9334 0.4293,1.6801 0.448,0.728 1.2133,1.1386 0.784,0.4107 1.7734,0.4107 z m 13.8507,-8.008 q 1.8853,0 2.9866,1.1013 1.12,1.0827 1.12,3.192 v 5.6934 h -1.792 v -5.4881 q 0,-1.4373 -0.6906,-2.1653 -0.6907,-0.728 -1.9787,-0.728 -1.456,0 -2.296,0.8587 -0.84,0.84 -0.84,2.4266 v 5.0961 h -1.792 v -9.8934 h 1.7173 v 1.4933 q 0.5414,-0.7653 1.456,-1.176 0.9334,-0.4106 2.1094,-0.4106 z m 11.032,0 q 2.0533,0 3.136,1.008 1.1013,1.008 1.1013,3.0053 v 5.9734 h -1.6986 v -1.3067 q -0.448,0.6907 -1.288,1.064 -0.8214,0.3547 -1.96,0.3547 -1.6614,0 -2.6694,-0.8027 -0.9893,-0.8027 -0.9893,-2.1093 0,-1.3067 0.952,-2.0907 0.952,-0.8027 3.024,-0.8027 h 2.8373 v -0.3547 q 0,-1.1573 -0.672,-1.7733 -0.672,-0.616 -1.9786,-0.616 -0.8774,0 -1.7174,0.2987 -0.84,0.28 -1.4186,0.7653 l -0.7467,-1.344 q 0.7653,-0.616 1.8293,-0.9333 1.064,-0.336 2.2587,-0.336 z m -0.4107,8.7173 q 1.0267,0 1.7734,-0.448 0.7466,-0.4666 1.0826,-1.3066 v -1.3814 h -2.7626 q -2.2774,0 -2.2774,1.5307 0,0.7467 0.5787,1.176 0.5787,0.4293 1.6053,0.4293 z m 13.5334,0.6907 q -0.392,0.336 -0.9707,0.5227 -0.5787,0.168 -1.1947,0.168 -1.4933,0 -2.3146,-0.8027 -0.8214,-0.8027 -0.8214,-2.296 v -5.432 h -1.68 v -1.4747 h 1.68 v -2.1653 h 1.792 v 2.1653 h 2.8374 v 1.4747 h -2.8374 v 5.3573 q 0,0.8027 0.392,1.232 0.4107,0.4294 1.1574,0.4294 0.8213,0 1.4,-0.4667 z m 9.5946,-9.3147 h 1.7921 v 9.8934 h -1.6987 v -1.4934 q -0.5414,0.7654 -1.4374,1.1947 -0.8773,0.4107 -1.9226,0.4107 -1.9787,0 -3.1174,-1.0827 -1.1386,-1.1013 -1.1386,-3.2294 v -5.6933 h 1.792 v 5.488 q 0,1.4374 0.6906,2.184 0.6907,0.728 1.9787,0.728 1.4187,0 2.24,-0.8586 0.8213,-0.8587 0.8213,-2.4267 z m 6.9254,1.6613 q 0.4667,-0.8586 1.3813,-1.3066 0.9147,-0.448 2.2214,-0.448 v 1.736 q -0.1494,-0.019 -0.4107,-0.019 -1.456,0 -2.296,0.8773 -0.8213,0.8587 -0.8213,2.464 v 4.9281 h -1.792 v -9.8934 h 1.7173 z m 14.6534,3.3414 q 0,0.2053 -0.037,0.5413 h -8.0267 q 0.168,1.3067 1.1387,2.1094 0.9894,0.784 2.4454,0.784 1.7733,0 2.856,-1.1947 l 0.9893,1.1573 q -0.672,0.784 -1.68,1.1947 -0.9893,0.4107 -2.2213,0.4107 -1.568,0 -2.7814,-0.6347 -1.2133,-0.6533 -1.8853,-1.8107 -0.6534,-1.1573 -0.6534,-2.6133 0,-1.4374 0.6347,-2.5947 0.6533,-1.1573 1.7734,-1.792 1.1386,-0.6533 2.5573,-0.6533 1.4187,0 2.52,0.6533 1.12,0.6347 1.736,1.792 0.6347,1.1573 0.6347,2.6507 z m -4.8907,-3.584 q -1.288,0 -2.1653,0.784 -0.8587,0.784 -1.0081,2.0533 h 6.3467 q -0.1493,-1.2507 -1.0266,-2.0347 -0.8587,-0.8026 -2.1467,-0.8026 z"
         id="text11-2-8-02-9-7"
         transform="scale(0.98944431,1.0106683)"
         aria-label="Cryptographic signature" /></g></g></svg>
