<?xml version="1.0" encoding="UTF-8" standalone="no"?>
<svg
   viewBox="0 0 657.02161 189.17072"
   version="1.1"
   id="svg1"
   width="657.02161"
   height="189.17072"
   xml:space="preserve"
   xmlns="http://www.w3.org/2000/svg"
   xmlns:svg="http://www.w3.org/2000/svg"><defs
     id="defs1"><linearGradient
       id="swatch251"><stop
         style="stop-color:#195962;stop-opacity:1;"
         offset="0"
         id="stop251" /></linearGradient><marker
       style="overflow:visible"
       id="Square-4"
       refX="0"
       refY="0"
       orient="auto"
       markerWidth="1"
       markerHeight="1"
       viewBox="0 0 1 1"
       preserveAspectRatio="xMidYMid"><path
         transform="scale(0.5)"
         style="fill:context-stroke;fill-rule:evenodd;stroke:none"
         d="M -5,-5 V 5 H 5 V -5 Z"
         id="path18-3" /></marker><filter
       style="color-interpolation-filters:sRGB"
       id="filter90-2-0-5"
       x="-0.019165826"
       y="-0.028762213"
       width="1.0414438"
       height="1.0655139"><feFlood
         result="flood"
         in="SourceGraphic"
         flood-opacity="0.796078"
         flood-color="rgb(62,67,73)"
         id="feFlood89-3-6-2" /><feGaussianBlur
         result="blur"
         in="SourceGraphic"
         stdDeviation="2.132 0"
         id="feGaussianBlur89-7-8-5" /><feOffset
         result="offset"
         in="blur"
         dx="1.000000"
         dy="1.000000"
         id="feOffset89-5-9-4" /><feComposite
         result="comp1"
         operator="in"
         in="flood"
         in2="offset"
         id="feComposite89-9-2-7" /><feComposite
         result="fbSourceGraphic"
         operator="over"
         in="SourceGraphic"
         in2="comp1"
         id="feComposite90-2-6-4" /><feColorMatrix
         result="fbSourceGraphicAlpha"
         in="fbSourceGraphic"
         values="0 0 0 -1 0 0 0 0 -1 0 0 0 0 -1 0 0 0 0 1 0"
         id="feColorMatrix90-2-6-4" /><feFlood
         id="feFlood90-8-4-3"
         result="flood"
         in="fbSourceGraphic"
         flood-opacity="0.796078"
         flood-color="rgb(62,67,73)" /><feGaussianBlur
         id="feGaussianBlur90-9-9-0"
         result="blur"
         in="fbSourceGraphic"
         stdDeviation="3.000000" /><feOffset
         id="feOffset90-7-5-7"
         result="offset"
         in="blur"
         dx="1.000000"
         dy="1.000000" /><feComposite
         id="feComposite91-3-0-8"
         result="comp1"
         operator="in"
         in="flood"
         in2="offset" /><feComposite
         id="feComposite92-6-4-6"
         result="comp2"
         operator="over"
         in="fbSourceGraphic"
         in2="comp1" /></filter></defs><!--! Font Awesome Pro 6.4.2 by @fontawesome - https://fontawesome.com License - https://fontawesome.com/license (Commercial License) Copyright 2023 Fonticons, Inc. --><g
     id="layer18"
     style="display:inline"
     transform="translate(-2435.5118,2102.3859)"><g
       id="layer25"><path
         style="display:inline;fill:#ffffff;fill-opacity:1;stroke:none;stroke-width:1.31168;stroke-linecap:butt;stroke-linejoin:miter;stroke-dasharray:none;stroke-dashoffset:0;stroke-opacity:1;paint-order:fill markers stroke;filter:url(#filter90-2-0-5)"
         id="rect65-7-3"
         width="642.6438"
         height="250.32849"
         x="825.70776"
         y="875.02576"
         transform="matrix(0.67681622,0,0,0.57271382,1980.6417,-2579.5677)"
         d="m 860.41563,875.02576 h 573.22807 c 19.2282,0 34.7079,18.29346 34.7079,41.01672 v 168.29502 c 0,22.7233 -15.4797,41.0167 -34.7079,41.0167 H 860.41563 c -19.22816,0 -34.70787,-18.2934 -34.70787,-41.0167 V 916.04248 c 0,-22.72326 15.47971,-41.01672 34.70787,-41.01672 z"
         ry="41.016724"
         rx="34.707863" /><g
         id="g10-8-7-3-0-9"
         transform="matrix(0.55050909,0.33336718,-0.33336718,0.55050909,2745.1539,-2546.3344)"
         style="display:inline;fill:#c83737;stroke-width:1.7;stroke-dasharray:none"><circle
           style="fill:#ffffff;fill-opacity:1;stroke:none;stroke-width:14.841;stroke-linecap:square;stroke-dasharray:none;stroke-dashoffset:0;stroke-opacity:1;paint-order:fill markers stroke"
           id="path73-6-7-4-9"
           cx="228.22922"
           cy="841.32001"
           transform="rotate(0.01535728)"
           r="33.171581" /><path
           id="path3-6-9-0-8-3"
           style="font-variation-settings:'wght' 700;fill:none;stroke:#195962;stroke-width:6.40174;stroke-linecap:round;stroke-linejoin:round;paint-order:markers fill stroke"
           d="m 563.52509,693.28894 a 35.520878,35.520878 0 0 1 -35.52088,35.52088 35.520878,35.520878 0 0 1 -35.52088,-35.52088 35.520878,35.520878 0 0 1 35.52088,-35.52088 35.520878,35.520878 0 0 1 35.52088,35.52088 z"
           transform="rotate(22.152263)" /><g
           id="g9-2-1-6-0-6"
           transform="translate(-1.3219444,-1.6027733)"><path
             d="m 221.1513,845.27224 c 0.0245,1.19424 -0.23692,2.22055 -0.78414,3.07896 -0.54765,0.83668 -1.38159,1.48371 -2.5018,1.94111 -1.12021,0.45737 -2.51629,0.70319 -4.18825,0.73743 -1.23765,0.0254 -2.3034,-0.0398 -3.19722,-0.19519 -0.40967,-0.0614 -0.81981,-0.1454 -1.2304,-0.25248 -0.81861,-0.21326 -1.47042,-1.16054 -1.48776,-2.00679 l -0.0193,-0.94161 c -0.0173,-0.84625 0.59808,-1.25531 1.40189,-0.99093 0.54067,0.1779 1.10164,0.33456 1.68292,0.47012 1.11318,0.2596 2.09317,0.38071 2.94,0.36338 0.95541,-0.0196 1.62563,-0.17459 2.01069,-0.46476 0.40678,-0.29073 0.6055,-0.66408 0.59616,-1.12009 -0.006,-0.30395 -0.0986,-0.57361 -0.27724,-0.80889 -0.15687,-0.23564 -0.50985,-0.50005 -1.05893,-0.79293 -0.54906,-0.29285 -1.40389,-0.66636 -2.56449,-1.1205 -1.11717,-0.45504 -2.0387,-0.90321 -2.76459,-1.3445 -0.72633,-0.46305 -1.26988,-1.0167 -1.63063,-1.66098 -0.36121,-0.66602 -0.55204,-1.49842 -0.57249,-2.49726 -0.0338,-1.65022 0.58141,-2.901 1.84562,-3.75236 1.2642,-0.85137 2.96027,-1.29882 5.08819,-1.3424 1.1074,-0.0227 2.16274,0.0643 3.166,0.26099 0.55248,0.10835 1.1157,0.25922 1.68968,0.45273 0.80179,0.27028 1.17351,1.19658 0.86143,1.98335 l -0.26453,0.66566 c -0.31266,0.78654 -1.20031,1.16326 -2.0021,0.89235 -0.36088,-0.12188 -0.71322,-0.23163 -1.057,-0.32905 -0.78701,-0.24462 -1.58224,-0.35863 -2.38563,-0.34218 -0.71656,0.0147 -1.25739,0.12356 -1.62252,0.32648 -0.34343,0.20264 -0.51112,0.49924 -0.50312,0.89009 0.006,0.28225 0.098,0.54105 0.27657,0.77636 0.19986,0.21314 0.56303,0.44464 1.0895,0.69452 0.54818,0.24942 1.34781,0.58068 2.39896,0.99362 1.029,0.39161 1.91729,0.80789 2.66487,1.24877 0.74715,0.41919 1.32306,0.96129 1.72768,1.62641 0.4259,0.64296 0.64974,1.49642 0.67154,2.5604 z m 8.40639,-11.1515 0.30142,14.71885 c 0.0173,0.84626 -0.6546,1.54635 -1.5009,1.56367 l -1.78842,0.0366 c -0.84626,0.0173 -1.54635,-0.6546 -1.56367,-1.5009 l -0.30141,-14.71886 c -0.0173,-0.84627 0.6546,-1.54636 1.5009,-1.56367 l 1.78841,-0.0366 c 0.84627,-0.0173 1.54636,0.6546 1.56367,1.50092 z m -2.58432,-8.45298 c 0.71654,-0.0147 1.33892,0.1463 1.86718,0.48309 0.52779,0.31507 0.80102,0.92856 0.8197,1.8405 0.0182,0.89027 -0.22965,1.51444 -0.74357,1.87258 -0.51404,0.35807 -1.12931,0.54445 -1.84585,0.55913 -0.73826,0.0151 -1.37152,-0.14564 -1.89976,-0.48242 -0.50653,-0.33721 -0.7689,-0.95093 -0.78714,-1.84119 -0.0187,-0.91197 0.21837,-1.53591 0.71111,-1.87186 0.51401,-0.35808 1.14015,-0.54469 1.87841,-0.5598 z m 13.39221,6.37288 c 1.08569,-0.0222 2.06723,0.17489 2.94469,0.5914 0.87743,0.41649 1.62903,1.05274 2.25479,1.90885 l 0.13022,-0.003 c 0.053,-1.62151 0.92731,-2.07451 1.82469,-2.0929 l 1.0393,-0.0213 c 0.84625,-0.0173 1.54634,0.6546 1.56365,1.50091 l 0.14972,16.1761 c 0.006,0.63934 -0.23499,1.62306 -0.66503,2.2835 -0.43004,0.66044 -1.6198,1.93803 -2.93234,2.55141 -1.31208,0.63511 -2.94522,0.97267 -4.89944,1.0127 -1.2594,0.0258 -2.43346,-0.0261 -3.52226,-0.15591 -0.5644,-0.0688 -1.12339,-0.17137 -1.677,-0.30716 -0.82165,-0.20163 -1.4805,-1.1291 -1.49782,-1.97537 l -0.0166,-0.8113 c -0.0173,-0.84624 0.6054,-1.27193 1.41728,-1.03366 0.63265,0.18566 1.27493,0.33315 1.92677,0.44237 1.17744,0.21474 2.3741,0.30981 3.59007,0.28491 1.25939,-0.0258 1.98092,-0.20257 2.81336,-0.83044 0.83244,-0.62787 0.89293,-1.80789 0.88606,-2.76748 -0.007,-0.9596 -0.0109,-0.89572 0.005,-1.20015 l -0.093,0.14247 c -0.58885,0.94616 -1.30245,1.63415 -2.14085,2.06405 -0.8384,0.4299 -1.78955,0.65574 -2.85352,0.67753 -2.10622,0.0431 -3.77289,-0.72647 -5.00005,-2.30882 -1.2059,-1.60451 -1.8384,-3.85073 -1.89754,-6.73862 -0.0596,-2.90961 0.50192,-5.19113 1.68453,-6.84455 1.18262,-1.65342 2.83789,-2.50193 4.96582,-2.54551 z m 1.61152,3.90968 c -0.75999,0.0156 -1.3963,0.235 -1.90898,0.65818 -0.4914,0.40107 -0.85915,1.00596 -1.10329,1.81472 -0.22283,0.78655 -0.32202,1.77699 -0.29756,2.97124 0.0365,1.78052 0.34608,3.1101 0.92888,3.9888 0.58233,0.85699 1.47062,1.27326 2.66486,1.2488 0.62971,-0.0129 1.17099,-0.0999 1.62385,-0.2613 0.45245,-0.18299 0.81602,-0.46201 1.09073,-0.83695 0.29598,-0.39705 0.51374,-0.90114 0.65333,-1.5122 0.1396,-0.6111 0.20037,-1.3509 0.18258,-2.21946 l -0.012,-0.58626 c -0.0262,-1.2811 -0.17753,-2.30982 -0.4542,-3.08619 -0.27657,-0.77636 -0.68982,-1.33268 -1.23979,-1.66898 -0.55038,-0.358 -1.25984,-0.52813 -2.12841,-0.51033 z"
             style="font-size:13.2602px;font-family:'Noto Sans';-inkscape-font-specification:'Noto Sans, @wght=700';font-variation-settings:'wght' 700;display:inline;fill:#195962;stroke-width:10.8591;stroke-linecap:round;stroke-linejoin:round;paint-order:markers fill stroke"
             id="path1-2-8-1-9-4-0" /><path
             id="path4-4-9-2-29-5"
             style="font-variation-settings:'wght' 700;display:inline;fill:none;stroke:#195962;stroke-width:3.64767;stroke-linecap:round;stroke-linejoin:round;stroke-opacity:1;paint-order:markers fill stroke"
             d="m 208.35953,828.56065 c 4.20155,-6.40232 11.67933,-11.91499 20.19969,-11.73012 8.20624,0.17805 13.83263,3.91368 19.70116,9.24107" /><path
             id="path4-6-7-0-1-61-0"
             style="font-variation-settings:'wght' 700;display:inline;fill:none;stroke:#195962;stroke-width:3.64767;stroke-linecap:round;stroke-linejoin:round;stroke-opacity:1;paint-order:markers fill stroke"
             d="m 248.51397,859.76996 c -5.73327,5.42971 -12.71409,8.56595 -19.29605,9.02109 -8.96638,0.62002 -15.41863,-3.91867 -20.7683,-10.62518" /></g></g><path
         style="display:inline;fill:none;fill-opacity:1;stroke:#195962;stroke-width:1.4;stroke-linecap:butt;stroke-linejoin:miter;stroke-dasharray:2.8, 2.8;stroke-dashoffset:0;stroke-opacity:1;marker-start:url(#Square-4);paint-order:fill markers stroke"
         d="m 2615.6864,-2004.3631 110.2489,0.03"
         id="path252-3" /><path
         style="font-weight:500;font-size:18.6667px;font-family:Montserrat;-inkscape-font-specification:'Montserrat Medium';font-variation-settings:'wght' 500;fill:#3e4349;stroke-width:1.7;stroke-linecap:round;stroke-linejoin:round;paint-order:markers fill stroke"
         d="m 2755.41,-1984.8696 c 0,2.7813 1.232,7.0747 6.1413,7.0747 3.3227,0 5.1894,-1.792 5.6001,-5.3947 h -1.7921 c -0.4106,2.576 -1.512,3.864 -3.7893,3.864 -2.7067,0 -4.424,-2.1653 -4.424,-5.5627 0,-3.4906 1.6427,-5.6373 4.2747,-5.6373 2.2026,0 3.2853,1.008 3.6773,2.912 h 1.7734 c -0.5414,-2.9867 -2.2587,-4.4427 -5.2454,-4.4427 -4.9653,0 -6.216,4.3494 -6.216,7.1867 z m 18.312,-1.7733 v -1.5867 c -0.2613,-0.037 -0.392,-0.056 -0.5973,-0.056 -1.008,0 -1.7733,0.5973 -2.6693,2.0533 v -1.7733 h -1.4374 v 9.7814 h 1.568 v -5.0774 c 0,-2.744 1.2507,-3.304 3.136,-3.3413 z m 7.4294,-1.3627 -2.7067,7.616 -2.5013,-7.616 h -1.6614 l 3.304,9.8187 -0.5973,1.5493 c -0.2613,0.6907 -0.5973,0.952 -1.2507,0.952 -0.224,0 -0.4853,-0.037 -0.8213,-0.112 v 1.4 c 0.3173,0.168 0.6347,0.2427 1.0453,0.2427 1.064,0 1.9787,-0.5787 2.52,-2.016 l 4.3494,-11.8347 z m 2.9867,13.8507 h 1.568 v -5.096 c 0.8213,1.008 1.736,1.456 3.0053,1.456 2.52,0 4.1814,-2.0347 4.1814,-5.152 0,-3.2854 -1.6054,-5.3387 -4.2001,-5.3387 -1.3253,0 -2.3893,0.5973 -3.1173,1.7547 v -1.4747 h -1.4373 z m 4.2933,-12.6747 c 1.7173,0 2.8373,1.512 2.8373,3.8453 0,2.2214 -1.1386,3.7334 -2.8373,3.7334 -1.6427,0 -2.7253,-1.4933 -2.7253,-3.7894 0,-2.296 1.0826,-3.7893 2.7253,-3.7893 z m 9.8747,-1.176 h -1.6053 v -2.688 h -1.5494 v 2.688 h -1.3253 v 1.2693 h 1.3253 v 7.3921 c 0,0.9893 0.672,1.5493 1.8854,1.5493 0.3733,0 0.7466,-0.037 1.2693,-0.1307 v -1.3066 c -0.2053,0.056 -0.448,0.075 -0.7467,0.075 -0.672,0 -0.8586,-0.1866 -0.8586,-0.8773 v -6.7014 h 1.6053 z m 5.3387,-0.28 c -2.744,0 -4.4054,1.96 -4.4054,5.2453 0,3.2854 1.6427,5.2454 4.4241,5.2454 2.744,0 4.424,-1.96 4.424,-5.1707 0,-3.3787 -1.624,-5.32 -4.4427,-5.32 z m 0.019,1.4373 c 1.7546,0 2.8,1.4374 2.8,3.864 0,2.2961 -1.0827,3.7521 -2.8,3.7521 -1.7361,0 -2.8001,-1.4374 -2.8001,-3.8081 0,-2.352 1.064,-3.808 2.8001,-3.808 z m 9.576,9.0534 c 1.232,0 2.0906,-0.5227 2.968,-1.7547 v 0.504 c 0,2.24 -0.5227,3.584 -2.7254,3.584 -0.4853,0 -2.1093,-0.056 -2.3706,-1.6426 h -1.5867 c 0.168,1.848 1.6053,2.9493 3.9013,2.9493 3.7147,0 4.3681,-2.2773 4.3681,-5.6747 v -8.176 h -1.6241 l 0.1867,1.4187 c -0.784,-1.1574 -1.736,-1.6987 -2.9867,-1.6987 -2.4826,0 -4.1626,2.1653 -4.1626,5.3387 0,3.192 1.8106,5.152 4.032,5.152 z m 0.2986,-9.0534 c 1.68,0 2.6694,1.4187 2.6694,3.864 0,2.3334 -1.008,3.7521 -2.6507,3.7521 -1.6987,0 -2.7253,-1.4374 -2.7253,-3.8081 0,-2.352 1.0453,-3.808 2.7066,-3.808 z m 11.2,0.2054 v -1.5867 c -0.2613,-0.037 -0.392,-0.056 -0.5973,-0.056 -1.008,0 -1.7733,0.5973 -2.6693,2.0533 v -1.7733 h -1.4374 v 9.7814 h 1.568 v -5.0774 c 0,-2.744 1.2507,-3.304 3.136,-3.3413 z m 1.3627,1.5306 h 1.568 c 0.1307,-1.1946 0.84,-1.736 2.296,-1.736 1.4,0 2.184,0.5227 2.184,1.456 v 0.4107 c 0,0.6533 -0.392,0.9333 -1.624,1.0827 -2.856,0.3733 -4.8533,0.5973 -4.8533,3.2107 0,1.7733 1.232,2.8933 3.2107,2.8933 1.232,0 2.2213,-0.4293 3.3226,-1.4373 0.112,0.9893 0.5974,1.4373 1.6054,1.4373 0.3173,0 0.56,-0.037 1.064,-0.168 v -1.176 c -0.168,0.037 -0.2427,0.037 -0.336,0.037 -0.5414,0 -0.84,-0.28 -0.84,-0.7653 v -5.7494 c 0,-1.736 -1.2694,-2.6693 -3.6774,-2.6693 -1.7546,0 -3.8266,0.5227 -3.92,3.1733 z m 3.1174,5.9547 c -1.2134,0 -1.9227,-0.5786 -1.9227,-1.568 0,-2.1467 3.2667,-1.6053 4.8533,-2.3333 v 1.7547 c 0,0.9333 -1.0826,2.1466 -2.9306,2.1466 z m 7.1493,5.0027 h 1.568 v -5.096 c 0.8213,1.008 1.736,1.456 3.0053,1.456 2.52,0 4.1814,-2.0347 4.1814,-5.152 0,-3.2854 -1.6054,-5.3387 -4.2,-5.3387 -1.3254,0 -2.3894,0.5973 -3.1174,1.7547 v -1.4747 h -1.4373 z m 4.2933,-12.6747 c 1.7174,0 2.8374,1.512 2.8374,3.8453 0,2.2214 -1.1387,3.7334 -2.8374,3.7334 -1.6426,0 -2.7253,-1.4933 -2.7253,-3.7894 0,-2.296 1.0827,-3.7893 2.7253,-3.7893 z m 12.3574,1.8293 v 6.7761 h 1.5493 v -7.3921 c 0,-1.6426 -1.176,-2.6693 -3.08,-2.6693 -1.3813,0 -2.2213,0.4293 -3.136,1.624 v -5.1707 h -1.5493 v 13.6081 h 1.5493 v -5.3947 c 0,-1.9974 1.0454,-3.304 2.6507,-3.304 0.8027,0 2.016,0.392 2.016,1.9226 z m 5.4693,-3.0053 h -1.5493 v 9.7814 h 1.5493 z m 0,-3.8267 h -1.568 v 1.96 h 1.568 z m 10.1174,7.112 c -0.1867,-2.3333 -1.624,-3.5653 -3.864,-3.5653 -2.632,0 -4.3494,2.0907 -4.3494,5.3387 0,3.1547 1.68,5.152 4.3307,5.152 2.3333,0 3.808,-1.4 3.9947,-3.7893 h -1.568 c -0.2614,1.568 -1.064,2.352 -2.3894,2.352 -1.7173,0 -2.744,-1.4 -2.744,-3.7147 0,-2.4454 1.008,-3.9014 2.7067,-3.9014 1.3067,0 2.128,0.7654 2.3147,2.128 z m 7.616,3.5841 h -1.6427 c 0.075,2.2586 1.344,3.3413 3.9014,3.3413 2.464,0 4.032,-1.2133 4.032,-3.0987 0,-1.456 -0.8213,-2.2587 -2.7627,-2.7253 l -1.4933,-0.3547 c -1.2694,-0.2987 -1.8107,-0.7093 -1.8107,-1.4 0,-0.896 0.8027,-1.4747 2.072,-1.4747 1.2507,0 1.9227,0.5414 1.96,1.568 h 1.6427 c -0.019,-1.9226 -1.288,-3.0053 -3.5467,-3.0053 -2.2773,0 -3.752,1.176 -3.752,2.9867 0,1.5306 0.784,2.2586 3.0987,2.8186 l 1.456,0.3547 c 1.0827,0.2614 1.512,0.6534 1.512,1.3627 0,0.9147 -0.9147,1.5307 -2.2774,1.5307 -1.904,0 -2.2586,-0.952 -2.3893,-1.904 z m 9.7254,-6.8694 h -1.5494 v 9.7814 h 1.5494 z m 0,-3.8267 h -1.568 v 1.96 h 1.568 z m 5.936,14.0374 c 1.232,0 2.0906,-0.5227 2.968,-1.7547 v 0.504 c 0,2.24 -0.5227,3.584 -2.7254,3.584 -0.4853,0 -2.1093,-0.056 -2.3706,-1.6426 h -1.5867 c 0.168,1.848 1.6053,2.9493 3.9013,2.9493 3.7147,0 4.3681,-2.2773 4.3681,-5.6747 v -8.176 h -1.6241 l 0.1867,1.4187 c -0.784,-1.1574 -1.736,-1.6987 -2.9867,-1.6987 -2.4826,0 -4.1626,2.1653 -4.1626,5.3387 0,3.192 1.8106,5.152 4.032,5.152 z m 0.2986,-9.0534 c 1.68,0 2.6694,1.4187 2.6694,3.864 0,2.3334 -1.008,3.7521 -2.6507,3.7521 -1.6987,0 -2.7253,-1.4374 -2.7253,-3.8081 0,-2.352 1.0453,-3.808 2.7066,-3.808 z m 6.496,-1.1573 v 9.7814 h 1.568 v -5.3947 c 0,-1.9974 1.0454,-3.304 2.6507,-3.304 1.232,0 2.016,0.7466 2.016,1.9226 v 6.7761 h 1.5493 v -7.3921 c 0,-1.624 -1.2133,-2.6693 -3.0986,-2.6693 -1.456,0 -2.3894,0.56 -3.248,1.9227 v -1.6427 z m 9.8934,2.8933 h 1.568 c 0.1307,-1.1946 0.84,-1.736 2.296,-1.736 1.4,0 2.184,0.5227 2.184,1.456 v 0.4107 c 0,0.6533 -0.392,0.9333 -1.624,1.0827 -2.856,0.3733 -4.8533,0.5973 -4.8533,3.2107 0,1.7733 1.232,2.8933 3.2106,2.8933 1.232,0 2.2214,-0.4293 3.3227,-1.4373 0.112,0.9893 0.5973,1.4373 1.6053,1.4373 0.3174,0 0.56,-0.037 1.064,-0.168 v -1.176 c -0.168,0.037 -0.2426,0.037 -0.336,0.037 -0.5413,0 -0.84,-0.28 -0.84,-0.7653 v -5.7494 c 0,-1.736 -1.2693,-2.6693 -3.6773,-2.6693 -1.7547,0 -3.8267,0.5227 -3.92,3.1733 z m 3.1173,5.9547 c -1.2133,0 -1.9226,-0.5786 -1.9226,-1.568 0,-2.1467 3.2666,-1.6053 4.8533,-2.3333 v 1.7547 c 0,0.9333 -1.0827,2.1466 -2.9307,2.1466 z m 10.8827,-8.848 h -1.6053 v -2.688 h -1.5494 v 2.688 h -1.3253 v 1.2693 h 1.3253 v 7.3921 c 0,0.9893 0.672,1.5493 1.8854,1.5493 0.3733,0 0.7466,-0.037 1.2693,-0.1307 v -1.3066 c -0.2053,0.056 -0.448,0.075 -0.7467,0.075 -0.672,0 -0.8586,-0.1866 -0.8586,-0.8773 v -6.7014 h 1.6053 z m 9.2774,9.7814 v -9.7814 h -1.5494 v 5.544 c 0,1.9974 -1.0453,3.304 -2.6693,3.304 -1.232,0 -2.016,-0.7466 -2.016,-1.9226 v -6.9254 h -1.5493 v 7.5414 c 0,1.624 1.2133,2.6693 3.1173,2.6693 1.4373,0 2.352,-0.504 3.2667,-1.792 v 1.3627 z m 6.944,-8.4187 v -1.5867 c -0.2613,-0.037 -0.392,-0.056 -0.5973,-0.056 -1.008,0 -1.7734,0.5973 -2.6694,2.0533 v -1.7733 h -1.4373 v 9.7814 h 1.568 v -5.0774 c 0,-2.744 1.2507,-3.304 3.136,-3.3413 z m 9.7627,4.0506 c 0,-3.5466 -1.3253,-5.6933 -4.3493,-5.6933 -2.7254,0 -4.48,2.0907 -4.48,5.3013 0,3.2107 1.6986,5.1894 4.4426,5.1894 2.24,0 3.7894,-1.2693 4.1814,-3.3973 h -1.568 c -0.4294,1.288 -1.3067,1.96 -2.5574,1.96 -1.8106,0 -2.8373,-1.3627 -2.8746,-3.3601 z m -7.168,-1.2693 c 0.1307,-1.8107 1.232,-2.9867 2.8,-2.9867 1.6053,0 2.7067,1.3067 2.7067,2.9867 z"
         id="text11-2-8-02-9-7"
         transform="scale(0.98944431,1.0106683)"
         aria-label="Cryptographic signature" /></g></g></svg>
