<?xml version="1.0" encoding="UTF-8" standalone="no"?>
<svg
   viewBox="0 0 657.02161 189.17072"
   version="1.1"
   id="svg1"
   width="657.02161"
   height="189.17072"
   xml:space="preserve"
   xmlns="http://www.w3.org/2000/svg"
   xmlns:svg="http://www.w3.org/2000/svg"><defs
     id="defs1"><linearGradient
       id="swatch251"><stop
         style="stop-color:#195962;stop-opacity:1;"
         offset="0"
         id="stop251" /></linearGradient><marker
       style="overflow:visible"
       id="Square-4"
       refX="0"
       refY="0"
       orient="auto"
       markerWidth="1"
       markerHeight="1"
       viewBox="0 0 1 1"
       preserveAspectRatio="xMidYMid"><path
         transform="scale(0.5)"
         style="fill:context-stroke;fill-rule:evenodd;stroke:none"
         d="M -5,-5 V 5 H 5 V -5 Z"
         id="path18-3" /></marker><filter
       style="color-interpolation-filters:sRGB"
       id="filter90-2-0-5"
       x="-0.019165826"
       y="-0.028762213"
       width="1.0414438"
       height="1.0655139"><feFlood
         result="flood"
         in="SourceGraphic"
         flood-opacity="0.796078"
         flood-color="rgb(62,67,73)"
         id="feFlood89-3-6-2" /><feGaussianBlur
         result="blur"
         in="SourceGraphic"
         stdDeviation="2.132 0"
         id="feGaussianBlur89-7-8-5" /><feOffset
         result="offset"
         in="blur"
         dx="1.000000"
         dy="1.000000"
         id="feOffset89-5-9-4" /><feComposite
         result="comp1"
         operator="in"
         in="flood"
         in2="offset"
         id="feComposite89-9-2-7" /><feComposite
         result="fbSourceGraphic"
         operator="over"
         in="SourceGraphic"
         in2="comp1"
         id="feComposite90-2-6-4" /><feColorMatrix
         result="fbSourceGraphicAlpha"
         in="fbSourceGraphic"
         values="0 0 0 -1 0 0 0 0 -1 0 0 0 0 -1 0 0 0 0 1 0"
         id="feColorMatrix90-2-6-4" /><feFlood
         id="feFlood90-8-4-3"
         result="flood"
         in="fbSourceGraphic"
         flood-opacity="0.796078"
         flood-color="rgb(62,67,73)" /><feGaussianBlur
         id="feGaussianBlur90-9-9-0"
         result="blur"
         in="fbSourceGraphic"
         stdDeviation="3.000000" /><feOffset
         id="feOffset90-7-5-7"
         result="offset"
         in="blur"
         dx="1.000000"
         dy="1.000000" /><feComposite
         id="feComposite91-3-0-8"
         result="comp1"
         operator="in"
         in="flood"
         in2="offset" /><feComposite
         id="feComposite92-6-4-6"
         result="comp2"
         operator="over"
         in="fbSourceGraphic"
         in2="comp1" /></filter></defs><!--! Font Awesome Pro 6.4.2 by @fontawesome - https://fontawesome.com License - https://fontawesome.com/license (Commercial License) Copyright 2023 Fonticons, Inc. --><g
     id="layer18"
     style="display:inline"
     transform="translate(-2435.5118,2102.3859)"><g
       id="layer25"><path
         style="display:inline;fill:#ffffff;fill-opacity:1;stroke:none;stroke-width:1.31168;stroke-linecap:butt;stroke-linejoin:miter;stroke-dasharray:none;stroke-dashoffset:0;stroke-opacity:1;paint-order:fill markers stroke;filter:url(#filter90-2-0-5)"
         id="rect65-7-3"
         width="642.6438"
         height="250.32849"
         x="825.70776"
         y="875.02576"
         transform="matrix(0.67681622,0,0,0.57271382,1980.6417,-2579.5677)"
         d="m 860.41563,875.02576 h 573.22807 c 19.2282,0 34.7079,18.29346 34.7079,41.01672 v 168.29502 c 0,22.7233 -15.4797,41.0167 -34.7079,41.0167 H 860.41563 c -19.22816,0 -34.70787,-18.2934 -34.70787,-41.0167 V 916.04248 c 0,-22.72326 15.47971,-41.01672 34.70787,-41.01672 z"
         ry="41.016724"
         rx="34.707863" /><g
         id="g10-8-7-3-0-9"
         transform="matrix(0.55050909,0.33336718,-0.33336718,0.55050909,2745.1539,-2546.3344)"
         style="display:inline;fill:#c83737;stroke-width:1.7;stroke-dasharray:none"><circle
           style="fill:#ffffff;fill-opacity:1;stroke:none;stroke-width:14.841;stroke-linecap:square;stroke-dasharray:none;stroke-dashoffset:0;stroke-opacity:1;paint-order:fill markers stroke"
           id="path73-6-7-4-9"
           cx="228.22922"
           cy="841.32001"
           transform="rotate(0.01535728)"
           r="33.171581" /><path
           id="path3-6-9-0-8-3"
           style="font-variation-settings:'wght' 700;fill:none;stroke:#195962;stroke-width:6.40174;stroke-linecap:round;stroke-linejoin:round;paint-order:markers fill stroke"
           d="m 563.52509,693.28894 a 35.520878,35.520878 0 0 1 -35.52088,35.52088 35.520878,35.520878 0 0 1 -35.52088,-35.52088 35.520878,35.520878 0 0 1 35.52088,-35.52088 35.520878,35.520878 0 0 1 35.52088,35.52088 z"
           transform="rotate(22.152263)" /><g
           id="g9-2-1-6-0-6"
           transform="translate(-1.3219444,-1.6027733)"><path
             d="m 221.1513,845.27224 c 0.0245,1.19424 -0.23692,2.22055 -0.78414,3.07896 -0.54765,0.83668 -1.38159,1.48371 -2.5018,1.94111 -1.12021,0.45737 -2.51629,0.70319 -4.18825,0.73743 -1.23765,0.0254 -2.3034,-0.0398 -3.19722,-0.19519 -0.40967,-0.0614 -0.81981,-0.1454 -1.2304,-0.25248 -0.81861,-0.21326 -1.47042,-1.16054 -1.48776,-2.00679 l -0.0193,-0.94161 c -0.0173,-0.84625 0.59808,-1.25531 1.40189,-0.99093 0.54067,0.1779 1.10164,0.33456 1.68292,0.47012 1.11318,0.2596 2.09317,0.38071 2.94,0.36338 0.95541,-0.0196 1.62563,-0.17459 2.01069,-0.46476 0.40678,-0.29073 0.6055,-0.66408 0.59616,-1.12009 -0.006,-0.30395 -0.0986,-0.57361 -0.27724,-0.80889 -0.15687,-0.23564 -0.50985,-0.50005 -1.05893,-0.79293 -0.54906,-0.29285 -1.40389,-0.66636 -2.56449,-1.1205 -1.11717,-0.45504 -2.0387,-0.90321 -2.76459,-1.3445 -0.72633,-0.46305 -1.26988,-1.0167 -1.63063,-1.66098 -0.36121,-0.66602 -0.55204,-1.49842 -0.57249,-2.49726 -0.0338,-1.65022 0.58141,-2.901 1.84562,-3.75236 1.2642,-0.85137 2.96027,-1.29882 5.08819,-1.3424 1.1074,-0.0227 2.16274,0.0643 3.166,0.26099 0.55248,0.10835 1.1157,0.25922 1.68968,0.45273 0.80179,0.27028 1.17351,1.19658 0.86143,1.98335 l -0.26453,0.66566 c -0.31266,0.78654 -1.20031,1.16326 -2.0021,0.89235 -0.36088,-0.12188 -0.71322,-0.23163 -1.057,-0.32905 -0.78701,-0.24462 -1.58224,-0.35863 -2.38563,-0.34218 -0.71656,0.0147 -1.25739,0.12356 -1.62252,0.32648 -0.34343,0.20264 -0.51112,0.49924 -0.50312,0.89009 0.006,0.28225 0.098,0.54105 0.27657,0.77636 0.19986,0.21314 0.56303,0.44464 1.0895,0.69452 0.54818,0.24942 1.34781,0.58068 2.39896,0.99362 1.029,0.39161 1.91729,0.80789 2.66487,1.24877 0.74715,0.41919 1.32306,0.96129 1.72768,1.62641 0.4259,0.64296 0.64974,1.49642 0.67154,2.5604 z m 8.40639,-11.1515 0.30142,14.71885 c 0.0173,0.84626 -0.6546,1.54635 -1.5009,1.56367 l -1.78842,0.0366 c -0.84626,0.0173 -1.54635,-0.6546 -1.56367,-1.5009 l -0.30141,-14.71886 c -0.0173,-0.84627 0.6546,-1.54636 1.5009,-1.56367 l 1.78841,-0.0366 c 0.84627,-0.0173 1.54636,0.6546 1.56367,1.50092 z m -2.58432,-8.45298 c 0.71654,-0.0147 1.33892,0.1463 1.86718,0.48309 0.52779,0.31507 0.80102,0.92856 0.8197,1.8405 0.0182,0.89027 -0.22965,1.51444 -0.74357,1.87258 -0.51404,0.35807 -1.12931,0.54445 -1.84585,0.55913 -0.73826,0.0151 -1.37152,-0.14564 -1.89976,-0.48242 -0.50653,-0.33721 -0.7689,-0.95093 -0.78714,-1.84119 -0.0187,-0.91197 0.21837,-1.53591 0.71111,-1.87186 0.51401,-0.35808 1.14015,-0.54469 1.87841,-0.5598 z m 13.39221,6.37288 c 1.08569,-0.0222 2.06723,0.17489 2.94469,0.5914 0.87743,0.41649 1.62903,1.05274 2.25479,1.90885 l 0.13022,-0.003 c 0.053,-1.62151 0.92731,-2.07451 1.82469,-2.0929 l 1.0393,-0.0213 c 0.84625,-0.0173 1.54634,0.6546 1.56365,1.50091 l 0.14972,16.1761 c 0.006,0.63934 -0.23499,1.62306 -0.66503,2.2835 -0.43004,0.66044 -1.6198,1.93803 -2.93234,2.55141 -1.31208,0.63511 -2.94522,0.97267 -4.89944,1.0127 -1.2594,0.0258 -2.43346,-0.0261 -3.52226,-0.15591 -0.5644,-0.0688 -1.12339,-0.17137 -1.677,-0.30716 -0.82165,-0.20163 -1.4805,-1.1291 -1.49782,-1.97537 l -0.0166,-0.8113 c -0.0173,-0.84624 0.6054,-1.27193 1.41728,-1.03366 0.63265,0.18566 1.27493,0.33315 1.92677,0.44237 1.17744,0.21474 2.3741,0.30981 3.59007,0.28491 1.25939,-0.0258 1.98092,-0.20257 2.81336,-0.83044 0.83244,-0.62787 0.89293,-1.80789 0.88606,-2.76748 -0.007,-0.9596 -0.0109,-0.89572 0.005,-1.20015 l -0.093,0.14247 c -0.58885,0.94616 -1.30245,1.63415 -2.14085,2.06405 -0.8384,0.4299 -1.78955,0.65574 -2.85352,0.67753 -2.10622,0.0431 -3.77289,-0.72647 -5.00005,-2.30882 -1.2059,-1.60451 -1.8384,-3.85073 -1.89754,-6.73862 -0.0596,-2.90961 0.50192,-5.19113 1.68453,-6.84455 1.18262,-1.65342 2.83789,-2.50193 4.96582,-2.54551 z m 1.61152,3.90968 c -0.75999,0.0156 -1.3963,0.235 -1.90898,0.65818 -0.4914,0.40107 -0.85915,1.00596 -1.10329,1.81472 -0.22283,0.78655 -0.32202,1.77699 -0.29756,2.97124 0.0365,1.78052 0.34608,3.1101 0.92888,3.9888 0.58233,0.85699 1.47062,1.27326 2.66486,1.2488 0.62971,-0.0129 1.17099,-0.0999 1.62385,-0.2613 0.45245,-0.18299 0.81602,-0.46201 1.09073,-0.83695 0.29598,-0.39705 0.51374,-0.90114 0.65333,-1.5122 0.1396,-0.6111 0.20037,-1.3509 0.18258,-2.21946 l -0.012,-0.58626 c -0.0262,-1.2811 -0.17753,-2.30982 -0.4542,-3.08619 -0.27657,-0.77636 -0.68982,-1.33268 -1.23979,-1.66898 -0.55038,-0.358 -1.25984,-0.52813 -2.12841,-0.51033 z"
             style="font-size:13.2602px;font-family:'Noto Sans';-inkscape-font-specification:'Noto Sans, @wght=700';font-variation-settings:'wght' 700;display:inline;fill:#195962;stroke-width:10.8591;stroke-linecap:round;stroke-linejoin:round;paint-order:markers fill stroke"
             id="path1-2-8-1-9-4-0" /><path
             id="path4-4-9-2-29-5"
             style="font-variation-settings:'wght' 700;display:inline;fill:none;stroke:#195962;stroke-width:3.64767;stroke-linecap:round;stroke-linejoin:round;stroke-opacity:1;paint-order:markers fill stroke"
             d="m 208.35953,828.56065 c 4.20155,-6.40232 11.67933,-11.91499 20.19969,-11.73012 8.20624,0.17805 13.83263,3.91368 19.70116,9.24107" /><path
             id="path4-6-7-0-1-61-0"
             style="font-variation-settings:'wght' 700;display:inline;fill:none;stroke:#195962;stroke-width:3.64767;stroke-linecap:round;stroke-linejoin:round;stroke-opacity:1;paint-order:markers fill stroke"
             d="m 248.51397,859.76996 c -5.73327,5.42971 -12.71409,8.56595 -19.29605,9.02109 -8.96638,0.62002 -15.41863,-3.91867 -20.7683,-10.62518" /></g></g><path
         style="display:inline;fill:none;fill-opacity:1;stroke:#195962;stroke-width:1.4;stroke-linecap:butt;stroke-linejoin:miter;stroke-dasharray:2.8, 2.8;stroke-dashoffset:0;stroke-opacity:1;marker-start:url(#Square-4);paint-order:fill markers stroke"
         d="m 2615.6864,-2004.3631 110.2489,0.03"
         id="path252-3" /><path
         style="font-weight:500;font-size:18.6667px;font-family:Montserrat;-inkscape-font-specification:'Montserrat Medium';font-variation-settings:'wght' 500;fill:#3e4349;stroke-width:1.7;stroke-linecap:round;stroke-linejoin:round;paint-order:markers fill stroke"
         d="m 2766.6855,-1990.7842 v 1.9414 q -0.9297,-0.8658 -1.987,-1.2942 -1.0482,-0.4284 -2.2331,-0.4284 -2.3333,0 -3.5729,1.431 -1.2396,1.4219 -1.2396,4.1198 0,2.6888 1.2396,4.1198 1.2396,1.4219 3.5729,1.4219 1.1849,0 2.2331,-0.4284 1.0573,-0.4284 1.987,-1.2943 v 1.9232 q -0.9662,0.6562 -2.0508,0.9844 -1.0755,0.3281 -2.2786,0.3281 -3.0899,0 -4.8672,-1.8867 -1.7774,-1.8959 -1.7774,-5.168 0,-3.2813 1.7774,-5.168 1.7773,-1.8958 4.8672,-1.8958 1.2213,0 2.2968,0.3281 1.0847,0.319 2.0326,0.9661 z m 8.6862,3.9193 q -0.2826,-0.164 -0.6198,-0.237 -0.3281,-0.082 -0.7292,-0.082 -1.4218,0 -2.1875,0.9297 -0.7565,0.9206 -0.7565,2.6523 v 5.3777 h -1.6862 v -10.2084 h 1.6862 v 1.5859 q 0.5287,-0.9296 1.3763,-1.3763 0.8477,-0.4557 2.0599,-0.4557 0.1732,0 0.3828,0.027 0.2097,0.018 0.4649,0.064 z m 6.0065,9.5886 q -0.7109,1.8229 -1.3854,2.3789 -0.6745,0.556 -1.8047,0.556 h -1.3398 v -1.4037 h 0.9843 q 0.6928,0 1.0756,-0.3281 0.3828,-0.3281 0.8476,-1.5495 l 0.3008,-0.7656 -4.1289,-10.0443 h 1.7773 l 3.1901,7.9844 3.1902,-7.9844 h 1.7773 z m 8.4219,-2.4792 v 5.4141 h -1.6862 v -14.0912 h 1.6862 v 1.5495 q 0.5287,-0.9115 1.3307,-1.349 0.8112,-0.4466 1.9323,-0.4466 1.8594,0 3.017,1.4766 1.1666,1.4765 1.1666,3.8828 0,2.4062 -1.1666,3.8828 -1.1576,1.4766 -3.017,1.4766 -1.1211,0 -1.9323,-0.4375 -0.802,-0.4466 -1.3307,-1.3581 z m 5.7058,-3.5638 q 0,-1.8503 -0.7657,-2.8984 -0.7565,-1.0573 -2.0872,-1.0573 -1.3308,0 -2.0964,1.0573 -0.7565,1.0481 -0.7565,2.8984 0,1.8503 0.7565,2.9076 0.7656,1.0481 2.0964,1.0481 1.3307,0 2.0872,-1.0481 0.7657,-1.0573 0.7657,-2.9076 z m 6.1796,-8.0117 v 2.8984 h 3.4545 v 1.3034 h -3.4545 v 5.5417 q 0,1.2487 0.3373,1.6041 0.3463,0.3555 1.3945,0.3555 h 1.7227 v 1.4037 h -1.7227 q -1.9414,0 -2.6797,-0.7201 -0.7383,-0.7292 -0.7383,-2.6432 v -5.5417 h -1.2304 v -1.3034 h 1.2304 v -2.8984 z m 9.616,4.0742 q -1.349,0 -2.1329,1.0573 -0.7838,1.0482 -0.7838,2.8802 0,1.832 0.7747,2.8893 0.7839,1.0482 2.142,1.0482 1.3398,0 2.1237,-1.0573 0.7838,-1.0573 0.7838,-2.8802 0,-1.8138 -0.7838,-2.8711 -0.7839,-1.0664 -2.1237,-1.0664 z m 0,-1.4219 q 2.1875,0 3.4362,1.4219 1.2487,1.4219 1.2487,3.9375 0,2.5065 -1.2487,3.9375 -1.2487,1.4219 -3.4362,1.4219 -2.1967,0 -3.4454,-1.4219 -1.2396,-1.431 -1.2396,-3.9375 0,-2.5156 1.2396,-3.9375 1.2487,-1.4219 3.4454,-1.4219 z m 14.1823,5.2318 q 0,-1.8229 -0.7565,-2.8255 -0.7474,-1.0026 -2.1055,-1.0026 -1.349,0 -2.1055,1.0026 -0.7474,1.0026 -0.7474,2.8255 0,1.8138 0.7474,2.8164 0.7565,1.0026 2.1055,1.0026 1.3581,0 2.1055,-1.0026 0.7565,-1.0026 0.7565,-2.8164 z m 1.6771,3.9557 q 0,2.6068 -1.1576,3.8737 -1.1576,1.2761 -3.5456,1.2761 -0.8841,0 -1.668,-0.1367 -0.7838,-0.1276 -1.5221,-0.4011 v -1.6315 q 0.7383,0.401 1.4583,0.5925 0.7201,0.1914 1.4675,0.1914 1.6497,0 2.4701,-0.8659 0.8203,-0.8568 0.8203,-2.5977 v -0.8294 q -0.5196,0.9023 -1.3308,1.3489 -0.8112,0.4467 -1.9414,0.4467 -1.8776,0 -3.026,-1.431 -1.1485,-1.431 -1.1485,-3.7917 0,-2.3698 1.1485,-3.8008 1.1484,-1.431 3.026,-1.431 1.1302,0 1.9414,0.4466 0.8112,0.4466 1.3308,1.349 v -1.5495 h 1.6771 z m 9.3698,-7.3737 q -0.2826,-0.164 -0.6198,-0.237 -0.3282,-0.082 -0.7292,-0.082 -1.4219,0 -2.1875,0.9297 -0.7565,0.9206 -0.7565,2.6523 v 5.3777 h -1.6862 v -10.2084 h 1.6862 v 1.5859 q 0.5286,-0.9296 1.3763,-1.3763 0.8476,-0.4557 2.0599,-0.4557 0.1732,0 0.3828,0.027 0.2096,0.018 0.4648,0.064 z m 6.3984,3.5091 q -2.0325,0 -2.8164,0.4649 -0.7839,0.4648 -0.7839,1.5859 0,0.8933 0.5834,1.4219 0.5924,0.5195 1.6041,0.5195 1.3946,0 2.2331,-0.9843 0.8477,-0.9935 0.8477,-2.6342 v -0.3737 z m 3.3451,-0.6927 v 5.8243 h -1.6771 v -1.5495 q -0.5742,0.9297 -1.431,1.3763 -0.8568,0.4375 -2.0964,0.4375 -1.5677,0 -2.4974,-0.875 -0.9205,-0.8841 -0.9205,-2.3607 0,-1.7227 1.1484,-2.5977 1.1576,-0.875 3.4453,-0.875 h 2.3516 v -0.164 q 0,-1.1576 -0.7656,-1.7865 -0.7566,-0.638 -2.1329,-0.638 -0.875,0 -1.7044,0.2096 -0.8294,0.2097 -1.595,0.6289 v -1.5495 q 0.9205,-0.3554 1.7864,-0.5286 0.8659,-0.1823 1.6862,-0.1823 2.2149,0 3.3086,1.1485 1.0938,1.1484 1.0938,3.4817 z m 5.0768,4.293 v 5.4141 h -1.6862 v -14.0912 h 1.6862 v 1.5495 q 0.5287,-0.9115 1.3307,-1.349 0.8112,-0.4466 1.9323,-0.4466 1.8594,0 3.017,1.4766 1.1666,1.4765 1.1666,3.8828 0,2.4062 -1.1666,3.8828 -1.1576,1.4766 -3.017,1.4766 -1.1211,0 -1.9323,-0.4375 -0.802,-0.4466 -1.3307,-1.3581 z m 5.7057,-3.5638 q 0,-1.8503 -0.7656,-2.8984 -0.7565,-1.0573 -2.0872,-1.0573 -1.3308,0 -2.0964,1.0573 -0.7565,1.0481 -0.7565,2.8984 0,1.8503 0.7565,2.9076 0.7656,1.0481 2.0964,1.0481 1.3307,0 2.0872,-1.0481 0.7656,-1.0573 0.7656,-2.9076 z m 13.0066,-1.0664 v 6.1615 h -1.6771 v -6.1068 q 0,-1.4492 -0.5651,-2.1693 -0.5651,-0.7201 -1.6953,-0.7201 -1.3581,0 -2.142,0.8659 -0.7838,0.8659 -0.7838,2.3607 v 5.7696 h -1.6862 v -14.1824 h 1.6862 v 5.5599 q 0.6015,-0.9205 1.4127,-1.3763 0.8204,-0.4557 1.8868,-0.4557 1.7591,0 2.6614,1.0938 0.9024,1.0846 0.9024,3.1992 z m 3.345,-4.0469 h 1.6771 v 10.2084 h -1.6771 z m 0,-3.974 h 1.6771 v 2.1237 h -1.6771 z m 12.5326,4.3659 v 1.5677 q -0.7109,-0.3919 -1.431,-0.5833 -0.7109,-0.2005 -1.4401,-0.2005 -1.6315,0 -2.5338,1.0391 -0.9024,1.0299 -0.9024,2.8984 0,1.8685 0.9024,2.9076 0.9023,1.0299 2.5338,1.0299 0.7292,0 1.4401,-0.1914 0.7201,-0.2005 1.431,-0.5925 v 1.5495 q -0.7018,0.3282 -1.4583,0.4922 -0.7474,0.1641 -1.5951,0.1641 -2.306,0 -3.664,-1.4492 -1.3581,-1.4493 -1.3581,-3.9102 0,-2.4974 1.3672,-3.9284 1.3763,-1.431 3.7643,-1.431 0.7747,0 1.513,0.1641 0.7383,0.1549 1.431,0.4739 z m 15.3581,-0.091 v 1.5859 q -0.7109,-0.3646 -1.4765,-0.5468 -0.7657,-0.1823 -1.586,-0.1823 -1.2487,0 -1.8776,0.3828 -0.6198,0.3828 -0.6198,1.1484 0,0.5833 0.4466,0.9206 0.4466,0.3281 1.7956,0.6289 l 0.5742,0.1276 q 1.7865,0.3828 2.5339,1.0846 0.7565,0.6927 0.7565,1.9414 0,1.4219 -1.1302,2.2514 -1.1211,0.8294 -3.0899,0.8294 -0.8203,0 -1.7135,-0.1641 -0.8841,-0.1549 -1.8685,-0.4739 v -1.7318 q 0.9297,0.4831 1.832,0.7292 0.9024,0.2369 1.7865,0.2369 1.1849,0 1.8229,-0.401 0.638,-0.4102 0.638,-1.1485 0,-0.6835 -0.4648,-1.0481 -0.4557,-0.3646 -2.0143,-0.7019 l -0.5834,-0.1367 q -1.5586,-0.3281 -2.2513,-1.0026 -0.6927,-0.6836 -0.6927,-1.8685 0,-1.4401 1.0208,-2.2239 1.0209,-0.7839 2.8985,-0.7839 0.9297,0 1.75,0.1367 0.8203,0.1367 1.513,0.4102 z m 3.2175,-0.3008 h 1.6771 v 10.2084 h -1.6771 z m 0,-3.974 h 1.6771 v 2.1237 h -1.6771 z m 11.9036,8.9597 q 0,-1.8229 -0.7565,-2.8255 -0.7474,-1.0026 -2.1054,-1.0026 -1.349,0 -2.1055,1.0026 -0.7474,1.0026 -0.7474,2.8255 0,1.8138 0.7474,2.8164 0.7565,1.0026 2.1055,1.0026 1.358,0 2.1054,-1.0026 0.7565,-1.0026 0.7565,-2.8164 z m 1.6771,3.9557 q 0,2.6068 -1.1575,3.8737 -1.1576,1.2761 -3.5456,1.2761 -0.8841,0 -1.668,-0.1367 -0.7838,-0.1276 -1.5221,-0.4011 v -1.6315 q 0.7383,0.401 1.4583,0.5925 0.7201,0.1914 1.4675,0.1914 1.6497,0 2.47,-0.8659 0.8203,-0.8568 0.8203,-2.5977 v -0.8294 q -0.5195,0.9023 -1.3307,1.3489 -0.8112,0.4467 -1.9414,0.4467 -1.8776,0 -3.0261,-1.431 -1.1484,-1.431 -1.1484,-3.7917 0,-2.3698 1.1484,-3.8008 1.1485,-1.431 3.0261,-1.431 1.1302,0 1.9414,0.4466 0.8112,0.4466 1.3307,1.349 v -1.5495 h 1.6771 z m 11.9402,-4.8945 v 6.1615 h -1.6771 v -6.1068 q 0,-1.4492 -0.5651,-2.1693 -0.5651,-0.7201 -1.6954,-0.7201 -1.358,0 -2.1419,0.8659 -0.7838,0.8659 -0.7838,2.3607 v 5.7696 h -1.6862 v -10.2084 h 1.6862 v 1.5859 q 0.6015,-0.9205 1.4127,-1.3763 0.8203,-0.4557 1.8867,-0.4557 1.7592,0 2.6615,1.0938 0.9024,1.0846 0.9024,3.1992 z m 7.9843,1.0299 q -2.0325,0 -2.8164,0.4649 -0.7838,0.4648 -0.7838,1.5859 0,0.8933 0.5833,1.4219 0.5925,0.5195 1.6042,0.5195 1.3945,0 2.2331,-0.9843 0.8476,-0.9935 0.8476,-2.6342 v -0.3737 z m 3.3451,-0.6927 v 5.8243 h -1.6771 v -1.5495 q -0.5742,0.9297 -1.431,1.3763 -0.8568,0.4375 -2.0963,0.4375 -1.5677,0 -2.4974,-0.875 -0.9206,-0.8841 -0.9206,-2.3607 0,-1.7227 1.1484,-2.5977 1.1576,-0.875 3.4453,-0.875 h 2.3516 v -0.164 q 0,-1.1576 -0.7656,-1.7865 -0.7565,-0.638 -2.1328,-0.638 -0.875,0 -1.7045,0.2096 -0.8294,0.2097 -1.595,0.6289 v -1.5495 q 0.9206,-0.3554 1.7864,-0.5286 0.8659,-0.1823 1.6862,-0.1823 2.2149,0 3.3086,1.1485 1.0938,1.1484 1.0938,3.4817 z m 5.1133,-7.2825 v 2.8984 h 3.4544 v 1.3034 h -3.4544 v 5.5417 q 0,1.2487 0.3372,1.6041 0.3464,0.3555 1.3946,0.3555 h 1.7226 v 1.4037 h -1.7226 q -1.9415,0 -2.6797,-0.7201 -0.7383,-0.7292 -0.7383,-2.6432 v -5.5417 h -1.2305 v -1.3034 h 1.2305 v -2.8984 z m 5.487,9.0781 v -6.1797 h 1.6771 v 6.1159 q 0,1.4492 0.5651,2.1784 0.5651,0.72 1.6953,0.72 1.3581,0 2.1419,-0.8658 0.793,-0.8659 0.793,-2.3607 v -5.7878 h 1.6771 v 10.2084 h -1.6771 v -1.5678 q -0.6107,0.9297 -1.4219,1.3855 -0.8021,0.4466 -1.8685,0.4466 -1.7591,0 -2.6706,-1.0938 -0.9114,-1.0937 -0.9114,-3.1992 z m 4.22,-6.4258 z m 13.6993,1.8138 q -0.2826,-0.164 -0.6198,-0.237 -0.3281,-0.082 -0.7292,-0.082 -1.4219,0 -2.1875,0.9297 -0.7565,0.9206 -0.7565,2.6523 v 5.3777 h -1.6862 v -10.2084 h 1.6862 v 1.5859 q 0.5286,-0.9296 1.3763,-1.3763 0.8477,-0.4557 2.0599,-0.4557 0.1732,0 0.3828,0.027 0.2097,0.018 0.4649,0.064 z m 10.0807,3.1172 v 0.8203 h -7.7109 q 0.1093,1.7318 1.039,2.6433 0.9388,0.9023 2.6068,0.9023 0.9662,0 1.8685,-0.237 0.9115,-0.237 1.8047,-0.7109 v 1.5859 q -0.9024,0.3828 -1.8503,0.5834 -0.9479,0.2005 -1.9232,0.2005 -2.4427,0 -3.8737,-1.4219 -1.4218,-1.4219 -1.4218,-3.8464 0,-2.5065 1.3489,-3.9739 1.3581,-1.4766 3.655,-1.4766 2.0599,0 3.2539,1.3307 1.2031,1.3217 1.2031,3.6003 z m -1.6771,-0.4922 q -0.018,-1.3763 -0.7747,-2.1966 -0.7474,-0.8203 -1.987,-0.8203 -1.4036,0 -2.2513,0.793 -0.8385,0.7929 -0.9661,2.233 z"
         id="text11-2-8-02-9-7"
         transform="scale(0.98944431,1.0106683)"
         aria-label="Cryptographic signature" /></g></g></svg>
