<?xml version="1.0" encoding="UTF-8" standalone="no"?>
<svg
   viewBox="0 0 661.46704 354.82163"
   version="1.1"
   id="svg1"
   width="661.46704"
   height="354.82162"
   xml:space="preserve"
   xmlns="http://www.w3.org/2000/svg"
   xmlns:svg="http://www.w3.org/2000/svg"><defs
     id="defs1"><marker
       style="overflow:visible"
       id="Square"
       refX="0"
       refY="0"
       orient="auto"
       markerWidth="1"
       markerHeight="1"
       viewBox="0 0 1 1"
       preserveAspectRatio="xMidYMid"><path
         transform="scale(0.5)"
         style="fill:context-stroke;fill-rule:evenodd;stroke:none"
         d="M -5,-5 V 5 H 5 V -5 Z"
         id="path18" /></marker><linearGradient
       id="swatch251"><stop
         style="stop-color:#195962;stop-opacity:1;"
         offset="0"
         id="stop251" /></linearGradient><filter
       style="color-interpolation-filters:sRGB"
       id="filter90"
       x="-0.019165826"
       y="-0.028762213"
       width="1.0414438"
       height="1.0655139"><feFlood
         result="flood"
         in="SourceGraphic"
         flood-opacity="0.796078"
         flood-color="rgb(62,67,73)"
         id="feFlood89" /><feGaussianBlur
         result="blur"
         in="SourceGraphic"
         stdDeviation="2.132 0"
         id="feGaussianBlur89" /><feOffset
         result="offset"
         in="blur"
         dx="1.000000"
         dy="1.000000"
         id="feOffset89" /><feComposite
         result="comp1"
         operator="in"
         in="flood"
         in2="offset"
         id="feComposite89" /><feComposite
         result="fbSourceGraphic"
         operator="over"
         in="SourceGraphic"
         in2="comp1"
         id="feComposite90" /><feColorMatrix
         result="fbSourceGraphicAlpha"
         in="fbSourceGraphic"
         values="0 0 0 -1 0 0 0 0 -1 0 0 0 0 -1 0 0 0 0 1 0"
         id="feColorMatrix90" /><feFlood
         id="feFlood90"
         result="flood"
         in="fbSourceGraphic"
         flood-opacity="0.796078"
         flood-color="rgb(62,67,73)" /><feGaussianBlur
         id="feGaussianBlur90"
         result="blur"
         in="fbSourceGraphic"
         stdDeviation="3.000000" /><feOffset
         id="feOffset90"
         result="offset"
         in="blur"
         dx="1.000000"
         dy="1.000000" /><feComposite
         id="feComposite91"
         result="comp1"
         operator="in"
         in="flood"
         in2="offset" /><feComposite
         id="feComposite92"
         result="comp2"
         operator="over"
         in="fbSourceGraphic"
         in2="comp1" /></filter></defs><!--! Font Awesome Pro 6.4.2 by @fontawesome - https://fontawesome.com License - https://fontawesome.com/license (Commercial License) Copyright 2023 Fonticons, Inc. --><g
     id="layer5"
     transform="translate(-841.40178,750.75983)"><g
       id="layer7"
       transform="translate(11.236271,-4.7700578)"
       style="display:inline"><path
         id="rect65-3"
         transform="matrix(0.90039676,0,0,1.2175633,126.76717,-1775.9627)"
         d="m 851.7972,875.02576 h 590.4649 c 14.4536,0 26.0895,8.60482 26.0895,19.29332 v 211.74182 c 0,10.6885 -11.6359,19.2933 -26.0895,19.2933 H 851.7972 c -14.45355,0 -26.08944,-8.6048 -26.08944,-19.2933 V 894.31908 c 0,-10.6885 11.63589,-19.29332 26.08944,-19.29332 z"
         style="opacity:1;mix-blend-mode:normal;fill:#ffffff;fill-opacity:1;stroke:none;stroke-width:1.312;stroke-linecap:butt;stroke-linejoin:miter;stroke-dasharray:none;stroke-dashoffset:0;stroke-opacity:1;paint-order:fill markers stroke;filter:url(#filter90)" /><g
         id="g11-8-3"
         transform="matrix(0.86376245,0,0,0.86376245,139.09758,-874.08504)"
         style="display:inline;fill:#61a78d;fill-opacity:1"><rect
           style="font-variation-settings:'wght' 700;fill:#195962;stroke-width:2.471;stroke-linecap:round;stroke-linejoin:round;paint-order:markers fill stroke"
           id="rect1-9-8"
           width="329.94476"
           height="57.886284"
           x="914.89185"
           y="156.37508" /><g
           id="g4-7-0"
           transform="translate(-11.145477,39.927363)"><rect
             style="font-variation-settings:'wght' 700;fill:#e6e6e6;fill-opacity:1;stroke-width:2.47329;stroke-linecap:round;stroke-linejoin:round;paint-order:markers fill stroke"
             id="rect1-3-7-5"
             width="330.55685"
             height="57.886284"
             x="917.30688"
             y="126.45267" /><g
             id="text1-6-6"
             style="font-weight:600;font-size:24px;font-family:Montserrat;-inkscape-font-specification:'Montserrat, Semi-Bold';white-space:pre;inline-size:345.106;fill:#3e4349;stroke-width:3.5;stroke-linecap:round;stroke-linejoin:round;paint-order:markers fill stroke"
             transform="matrix(0.85813569,0,0,0.85813569,117.98976,13.088921)"
             aria-label="Fingerprint of an OpenPGP &#10;component key "><path
               d="m 956.50209,158.38867 v -16.8 h 12.264 v 2.616 h -9.144 v 5.112 h 8.112 v 2.64 h -8.112 v 6.432 z m 14.99998,0 v -12.816 h 3 v 12.816 z m 1.512,-14.928 q -0.84,0 -1.392,-0.528 -0.528,-0.528 -0.528,-1.272 0,-0.744 0.528,-1.272 0.552,-0.528 1.392,-0.528 0.84,0 1.368,0.504 0.552,0.48 0.552,1.224 0,0.792 -0.552,1.344 -0.528,0.528 -1.368,0.528 z m 5.42399,14.928 v -12.816 h 2.856 v 1.656 q 0.744,-0.888 1.872,-1.344 1.152,-0.456 2.544,-0.456 1.536,0 2.736,0.6 1.224,0.6 1.92,1.848 0.696,1.248 0.696,3.168 v 7.344 h -3 v -6.96 q 0,-1.704 -0.816,-2.544 -0.792,-0.84 -2.232,-0.84 -1.608,0 -2.592,0.984 -0.984,0.96 -0.984,2.88 v 6.48 z m 22.27194,4.824 q -1.79996,0 -3.47996,-0.48 -1.68,-0.456 -2.76,-1.344 l 1.344,-2.256 q 0.84,0.696 2.112,1.104 1.296,0.432 2.61596,0.432 2.112,0 3.096,-0.984 0.984,-0.96 0.984,-2.904 v -0.672 q -0.792,0.864 -1.896,1.296 -1.104,0.408 -2.4,0.408 -1.82396,0 -3.31196,-0.768 -1.464,-0.792 -2.328,-2.184 -0.84,-1.392 -0.84,-3.264 0,-1.848 0.84,-3.24 0.864,-1.392 2.328,-2.16 1.488,-0.768 3.31196,-0.768 1.344,0 2.496,0.456 1.152,0.432 1.944,1.392 v -1.704 h 2.856 v 10.872 q 0,3.48 -1.776,5.112 -1.776,1.656 -5.136,1.656 z m 0.072,-7.944 q 1.704,0 2.784,-1.008 1.104,-1.032 1.104,-2.664 0,-1.632 -1.104,-2.616 -1.08,-1.008 -2.784,-1.008 -1.72796,0 -2.83196,1.008 -1.08,0.984 -1.08,2.616 0,1.632 1.08,2.664 1.104,1.008 2.83196,1.008 z m 16.8,3.288 q -2.136,0 -3.744,-0.84 -1.584,-0.864 -2.472,-2.328 -0.864,-1.488 -0.864,-3.408 0,-1.92 0.84,-3.384 0.864,-1.488 2.352,-2.328 1.512,-0.84 3.432,-0.84 1.872,0 3.336,0.816 1.464,0.816 2.304,2.328 0.84,1.488 0.84,3.48 0,0.192 -0.024,0.432 0,0.24 -0.024,0.456 h -10.056 q 0.264,1.392 1.368,2.232 1.104,0.84 2.784,0.84 2.136,0 3.48,-1.392 l 1.608,1.848 q -1.776,2.088 -5.16,2.088 z m -4.104,-7.608 h 7.272 q -0.192,-1.392 -1.176,-2.256 -0.984,-0.864 -2.448,-0.864 -1.464,0 -2.448,0.864 -0.984,0.84 -1.2,2.256 z m 13.008,7.44 v -12.816 h 2.856 v 1.872 q 1.32,-2.016 4.56,-2.016 v 2.856 q -0.192,-0.024 -0.36,-0.048 -0.168,-0.024 -0.336,-0.024 -1.704,0 -2.712,1.008 -1.008,0.984 -1.008,2.952 v 6.216 z m 17.0641,0.168 q -1.224,0 -2.28,-0.432 -1.056,-0.432 -1.824,-1.296 v 6.216 h -3 v -17.472 h 2.856 v 1.68 q 0.768,-0.936 1.848,-1.368 1.104,-0.456 2.4,-0.456 1.872,0 3.336,0.816 1.464,0.792 2.304,2.28 0.864,1.464 0.864,3.456 0,1.992 -0.864,3.48 -0.84,1.464 -2.304,2.28 -1.464,0.816 -3.336,0.816 z m -0.336,-2.568 q 1.08,0 1.92,-0.48 0.864,-0.504 1.368,-1.392 0.504,-0.912 0.504,-2.136 0,-1.224 -0.504,-2.112 -0.504,-0.912 -1.368,-1.392 -0.84,-0.504 -1.92,-0.504 -1.08,0 -1.944,0.504 -0.864,0.48 -1.368,1.392 -0.504,0.888 -0.504,2.112 0,1.224 0.504,2.136 0.504,0.888 1.368,1.392 0.864,0.48 1.944,0.48 z m 9.696,2.4 v -12.816 h 2.856 v 1.872 q 1.32,-2.016 4.56,-2.016 v 2.856 q -0.192,-0.024 -0.36,-0.048 -0.168,-0.024 -0.336,-0.024 -1.704,0 -2.712,1.008 -1.008,0.984 -1.008,2.952 v 6.216 z m 9.96,0 v -12.816 h 3 v 12.816 z m 1.512,-14.928 q -0.84,0 -1.392,-0.528 -0.528,-0.528 -0.528,-1.272 0,-0.744 0.528,-1.272 0.552,-0.528 1.392,-0.528 0.84,0 1.368,0.504 0.552,0.48 0.552,1.224 0,0.792 -0.552,1.344 -0.528,0.528 -1.368,0.528 z m 5.424,14.928 v -12.816 h 2.856 v 1.656 q 0.744,-0.888 1.872,-1.344 1.152,-0.456 2.544,-0.456 1.536,0 2.736,0.6 1.224,0.6 1.92,1.848 0.696,1.248 0.696,3.168 v 7.344 h -3 v -6.96 q 0,-1.704 -0.816,-2.544 -0.792,-0.84 -2.232,-0.84 -1.608,0 -2.592,0.984 -0.984,0.96 -0.984,2.88 v 6.48 z m 21.264,0.168 q -2.112,0 -3.264,-1.08 -1.152,-1.104 -1.152,-3.24 v -6.264 h -2.112 v -2.4 h 2.112 v -2.832 h 3 v 2.832 h 3.432 v 2.4 h -3.432 v 6.192 q 0,0.936 0.456,1.44 0.456,0.48 1.32,0.48 0.984,0 1.68,-0.528 l 0.84,2.136 q -0.552,0.432 -1.32,0.648 -0.744,0.216 -1.56,0.216 z m 17.7359,0 q -1.968,0 -3.504,-0.84 -1.536,-0.864 -2.424,-2.328 -0.888,-1.488 -0.888,-3.408 0,-1.92 0.888,-3.384 0.888,-1.488 2.424,-2.328 1.536,-0.84 3.504,-0.84 1.992,0 3.528,0.84 1.56,0.84 2.424,2.328 0.888,1.464 0.888,3.384 0,1.92 -0.888,3.408 -0.864,1.464 -2.424,2.328 -1.536,0.84 -3.528,0.84 z m 0,-2.568 q 1.656,0 2.736,-1.08 1.08,-1.08 1.08,-2.928 0,-1.848 -1.08,-2.928 -1.08,-1.08 -2.736,-1.08 -1.08,0 -1.944,0.504 -0.84,0.48 -1.344,1.392 -0.504,0.888 -0.504,2.112 0,1.224 0.504,2.136 0.504,0.888 1.344,1.392 0.864,0.48 1.944,0.48 z m 10.1281,2.4 v -10.32 h -2.112 v -2.4 h 2.112 v -0.816 q 0,-2.016 1.176,-3.216 1.176,-1.224 3.408,-1.224 0.768,0 1.488,0.168 0.72,0.168 1.224,0.528 l -0.84,2.256 q -0.336,-0.24 -0.768,-0.384 -0.408,-0.144 -0.888,-0.144 -1.896,0 -1.896,2.064 v 0.768 h 3.528 v 2.4 h -3.432 v 10.32 z m 22.9679,0 v -1.536 q -1.152,1.704 -4.032,1.704 -2.208,0 -3.504,-1.08 -1.272,-1.08 -1.272,-2.76 0,-1.08 0.504,-1.944 0.528,-0.864 1.704,-1.368 1.176,-0.504 3.12,-0.504 h 3.312 v -0.192 q 0,-1.32 -0.792,-2.04 -0.792,-0.744 -2.4,-0.744 -1.08,0 -2.136,0.336 -1.032,0.336 -1.752,0.936 l -1.176,-2.184 q 1.032,-0.792 2.448,-1.176 1.44,-0.408 2.976,-0.408 2.784,0 4.296,1.344 1.536,1.32 1.536,4.104 v 7.512 z m -0.168,-4.008 v -1.488 h -3.096 q -1.536,0 -2.064,0.504 -0.528,0.504 -0.528,1.2 0,0.816 0.648,1.296 0.648,0.48 1.8,0.48 1.104,0 1.968,-0.504 0.888,-0.504 1.272,-1.488 z m 6.84,4.008 v -12.816 h 2.856 v 1.656 q 0.744,-0.888 1.872,-1.344 1.152,-0.456 2.544,-0.456 1.536,0 2.736,0.6 1.224,0.6 1.92,1.848 0.696,1.248 0.696,3.168 v 7.344 h -3 v -6.96 q 0,-1.704 -0.816,-2.544 -0.792,-0.84 -2.232,-0.84 -1.608,0 -2.592,0.984 -0.984,0.96 -0.984,2.88 v 6.48 z m 31.2,0.24 q -1.944,0 -3.6,-0.648 -1.656,-0.648 -2.88,-1.8 -1.224,-1.176 -1.896,-2.736 -0.672,-1.584 -0.672,-3.456 0,-1.872 0.672,-3.432 0.672,-1.584 1.896,-2.736 1.224,-1.176 2.88,-1.824 1.656,-0.648 3.6,-0.648 1.968,0 3.6,0.648 1.656,0.648 2.88,1.824 1.224,1.152 1.896,2.736 0.672,1.56 0.672,3.432 0,1.872 -0.672,3.456 -0.672,1.56 -1.896,2.736 -1.224,1.152 -2.88,1.8 -1.632,0.648 -3.6,0.648 z m 0,-2.736 q 1.704,0 3.024,-0.744 1.344,-0.768 2.112,-2.112 0.768,-1.344 0.768,-3.048 0,-1.704 -0.768,-3.048 -0.768,-1.344 -2.112,-2.088 -1.32,-0.768 -3.024,-0.768 -1.704,0 -3.048,0.768 -1.32,0.744 -2.088,2.088 -0.768,1.344 -0.768,3.048 0,1.704 0.768,3.048 0.768,1.344 2.088,2.112 1.344,0.744 3.048,0.744 z m 19.176,2.664 q -1.224,0 -2.28,-0.432 -1.056,-0.432 -1.824,-1.296 v 6.216 h -3 v -17.472 h 2.856 v 1.68 q 0.768,-0.936 1.848,-1.368 1.104,-0.456 2.4,-0.456 1.872,0 3.336,0.816 1.464,0.792 2.304,2.28 0.864,1.464 0.864,3.456 0,1.992 -0.864,3.48 -0.84,1.464 -2.304,2.28 -1.464,0.816 -3.336,0.816 z m -0.336,-2.568 q 1.08,0 1.92,-0.48 0.864,-0.504 1.368,-1.392 0.504,-0.912 0.504,-2.136 0,-1.224 -0.504,-2.112 -0.504,-0.912 -1.368,-1.392 -0.84,-0.504 -1.92,-0.504 -1.08,0 -1.944,0.504 -0.864,0.48 -1.368,1.392 -0.504,0.888 -0.504,2.112 0,1.224 0.504,2.136 0.504,0.888 1.368,1.392 0.864,0.48 1.944,0.48 z m 15.72,2.568 q -2.136,0 -3.744,-0.84 -1.584,-0.864 -2.472,-2.328 -0.864,-1.488 -0.864,-3.408 0,-1.92 0.84,-3.384 0.864,-1.488 2.352,-2.328 1.512,-0.84 3.432,-0.84 1.872,0 3.336,0.816 1.464,0.816 2.304,2.328 0.84,1.488 0.84,3.48 0,0.192 -0.024,0.432 0,0.24 -0.024,0.456 h -10.056 q 0.264,1.392 1.368,2.232 1.104,0.84 2.784,0.84 2.136,0 3.48,-1.392 l 1.608,1.848 q -1.776,2.088 -5.16,2.088 z m -4.104,-7.608 h 7.272 q -0.192,-1.392 -1.176,-2.256 -0.984,-0.864 -2.448,-0.864 -1.464,0 -2.448,0.864 -0.984,0.84 -1.2,2.256 z m 13.008,7.44 v -12.816 h 2.856 v 1.656 q 0.744,-0.888 1.872,-1.344 1.152,-0.456 2.544,-0.456 1.536,0 2.736,0.6 1.224,0.6 1.92,1.848 0.696,1.248 0.696,3.168 v 7.344 h -3 v -6.96 q 0,-1.704 -0.816,-2.544 -0.792,-0.84 -2.232,-0.84 -1.608,0 -2.592,0.984 -0.984,0.96 -0.984,2.88 v 6.48 z m 16.728,0 v -16.8 h 6.912 q 2.208,0 3.816,0.72 1.608,0.72 2.472,2.064 0.864,1.344 0.864,3.192 0,1.848 -0.864,3.192 -0.864,1.344 -2.472,2.064 -1.608,0.72 -3.816,0.72 h -3.792 v 4.848 z m 3.12,-7.488 h 3.648 q 2.064,0 3.096,-0.864 1.056,-0.888 1.056,-2.472 0,-1.584 -1.056,-2.448 -1.032,-0.888 -3.096,-0.888 h -3.648 z m 22.152,7.728 q -1.968,0 -3.624,-0.624 -1.632,-0.648 -2.856,-1.8 -1.224,-1.176 -1.896,-2.76 -0.672,-1.584 -0.672,-3.456 0,-1.872 0.672,-3.456 0.672,-1.584 1.896,-2.736 1.224,-1.176 2.88,-1.8 1.68,-0.648 3.648,-0.648 2.112,0 3.84,0.696 1.728,0.696 2.904,2.04 l -1.968,1.92 q -0.984,-0.984 -2.136,-1.44 -1.152,-0.48 -2.496,-0.48 -1.776,0 -3.168,0.768 -1.368,0.744 -2.16,2.088 -0.768,1.32 -0.768,3.048 0,1.704 0.768,3.048 0.792,1.344 2.16,2.112 1.368,0.744 3.144,0.744 0.912,0 1.776,-0.192 0.864,-0.216 1.68,-0.672 v -5.232 h 2.952 v 6.696 q -1.32,1.056 -3.072,1.608 -1.728,0.528 -3.504,0.528 z m 10.68,-0.24 v -16.8 h 6.912 q 2.208,0 3.816,0.72 1.608,0.72 2.472,2.064 0.864,1.344 0.864,3.192 0,1.848 -0.864,3.192 -0.864,1.344 -2.472,2.064 -1.608,0.72 -3.816,0.72 h -3.792 v 4.848 z m 3.12,-7.488 h 3.648 q 2.064,0 3.096,-0.864 1.056,-0.888 1.056,-2.472 0,-1.584 -1.056,-2.448 -1.032,-0.888 -3.096,-0.888 h -3.648 z"
               id="path1" /><path
               d="m 962.09409,188.55667 q -2.016,0 -3.6,-0.84 -1.56,-0.864 -2.448,-2.328 -0.888,-1.488 -0.888,-3.408 0,-1.92 0.888,-3.384 0.888,-1.488 2.448,-2.328 1.584,-0.84 3.6,-0.84 1.872,0 3.288,0.768 1.44,0.744 2.184,2.208 l -2.304,1.344 q -0.576,-0.912 -1.416,-1.344 -0.816,-0.432 -1.776,-0.432 -1.656,0 -2.784,1.08 -1.104,1.08 -1.104,2.928 0,1.872 1.104,2.952 1.128,1.056 2.784,1.056 0.96,0 1.776,-0.432 0.84,-0.432 1.416,-1.344 l 2.304,1.344 q -0.744,1.44 -2.184,2.232 -1.416,0.768 -3.288,0.768 z m 13.632,0 q -1.968,0 -3.504,-0.84 -1.536,-0.864 -2.424,-2.328 -0.888,-1.488 -0.888,-3.408 0,-1.92 0.888,-3.384 0.888,-1.488 2.424,-2.328 1.536,-0.84 3.504,-0.84 1.992,0 3.528,0.84 1.56,0.84 2.424,2.328 0.888,1.464 0.888,3.384 0,1.92 -0.888,3.408 -0.864,1.464 -2.424,2.328 -1.536,0.84 -3.528,0.84 z m 0,-2.568 q 1.656,0 2.736,-1.08 1.08,-1.08 1.08,-2.928 0,-1.848 -1.08,-2.928 -1.08,-1.08 -2.736,-1.08 -1.08,0 -1.944,0.504 -0.84,0.48 -1.344,1.392 -0.504,0.888 -0.504,2.112 0,1.224 0.504,2.136 0.504,0.888 1.344,1.392 0.864,0.48 1.944,0.48 z m 9.72001,2.4 v -12.816 h 2.856 v 1.608 q 0.72,-0.864 1.8,-1.296 1.08,-0.456 2.4,-0.456 1.392,0 2.52,0.528 1.128,0.528 1.8,1.632 0.768,-1.008 2.016,-1.584 1.248,-0.576 2.784,-0.576 2.328,0 3.792,1.368 1.464,1.368 1.464,4.248 v 7.344 h -3 v -6.96 q 0,-1.704 -0.768,-2.544 -0.744,-0.84 -2.112,-0.84 -1.488,0 -2.424,0.96 -0.912,0.96 -0.912,2.88 v 6.504 h -3 v -6.96 q 0,-1.704 -0.768,-2.544 -0.744,-0.84 -2.112,-0.84 -1.488,0 -2.424,0.96 -0.912,0.96 -0.912,2.88 v 6.504 z m 32.376,0.168 q -1.224,0 -2.28,-0.432 -1.056,-0.432 -1.824,-1.296 v 6.216 h -3 v -17.472 h 2.856 v 1.68 q 0.768,-0.936 1.848,-1.368 1.104,-0.456 2.4,-0.456 1.872,0 3.336,0.816 1.464,0.792 2.304,2.28 0.864,1.464 0.864,3.456 0,1.992 -0.864,3.48 -0.84,1.464 -2.304,2.28 -1.464,0.816 -3.336,0.816 z m -0.336,-2.568 q 1.08,0 1.92,-0.48 0.864,-0.504 1.368,-1.392 0.504,-0.912 0.504,-2.136 0,-1.224 -0.504,-2.112 -0.504,-0.912 -1.368,-1.392 -0.84,-0.504 -1.92,-0.504 -1.08,0 -1.944,0.504 -0.864,0.48 -1.368,1.392 -0.504,0.888 -0.504,2.112 0,1.224 0.504,2.136 0.504,0.888 1.368,1.392 0.864,0.48 1.944,0.48 z m 15.456,2.568 q -1.968,0 -3.504,-0.84 -1.536,-0.864 -2.424,-2.328 -0.888,-1.488 -0.888,-3.408 0,-1.92 0.888,-3.384 0.888,-1.488 2.424,-2.328 1.536,-0.84 3.504,-0.84 1.992,0 3.528,0.84 1.56,0.84 2.424,2.328 0.888,1.464 0.888,3.384 0,1.92 -0.888,3.408 -0.864,1.464 -2.424,2.328 -1.536,0.84 -3.528,0.84 z m 0,-2.568 q 1.656,0 2.736,-1.08 1.08,-1.08 1.08,-2.928 0,-1.848 -1.08,-2.928 -1.08,-1.08 -2.736,-1.08 -1.08,0 -1.944,0.504 -0.84,0.48 -1.344,1.392 -0.504,0.888 -0.504,2.112 0,1.224 0.504,2.136 0.504,0.888 1.344,1.392 0.864,0.48 1.944,0.48 z m 9.72,2.4 v -12.816 h 2.856 v 1.656 q 0.744,-0.888 1.872,-1.344 1.152,-0.456 2.544,-0.456 1.536,0 2.736,0.6 1.224,0.6 1.92,1.848 0.696,1.248 0.696,3.168 v 7.344 h -3 v -6.96 q 0,-1.704 -0.816,-2.544 -0.792,-0.84 -2.232,-0.84 -1.608,0 -2.592,0.984 -0.984,0.96 -0.984,2.88 v 6.48 z m 22.488,0.168 q -2.136,0 -3.744,-0.84 -1.584,-0.864 -2.472,-2.328 -0.864,-1.488 -0.864,-3.408 0,-1.92 0.84,-3.384 0.864,-1.488 2.352,-2.328 1.512,-0.84 3.432,-0.84 1.872,0 3.336,0.816 1.464,0.816 2.304,2.328 0.84,1.488 0.84,3.48 0,0.192 -0.024,0.432 0,0.24 -0.024,0.456 h -10.056 q 0.264,1.392 1.368,2.232 1.104,0.84 2.784,0.84 2.136,0 3.48,-1.392 l 1.608,1.848 q -1.776,2.088 -5.16,2.088 z m -4.104,-7.608 h 7.272 q -0.192,-1.392 -1.176,-2.256 -0.984,-0.864 -2.448,-0.864 -1.464,0 -2.448,0.864 -0.984,0.84 -1.2,2.256 z m 13.008,7.44 v -12.816 h 2.856 v 1.656 q 0.744,-0.888 1.872,-1.344 1.152,-0.456 2.544,-0.456 1.536,0 2.736,0.6 1.224,0.6 1.92,1.848 0.696,1.248 0.696,3.168 v 7.344 h -3 v -6.96 q 0,-1.704 -0.816,-2.544 -0.792,-0.84 -2.232,-0.84 -1.608,0 -2.592,0.984 -0.984,0.96 -0.984,2.88 v 6.48 z m 21.264,0.168 q -2.112,0 -3.264,-1.08 -1.152,-1.104 -1.152,-3.24 v -6.264 h -2.112 v -2.4 h 2.112 v -2.832 h 3 v 2.832 h 3.432 v 2.4 h -3.432 v 6.192 q 0,0.936 0.456,1.44 0.456,0.48 1.32,0.48 0.984,0 1.68,-0.528 l 0.84,2.136 q -0.552,0.432 -1.32,0.648 -0.744,0.216 -1.56,0.216 z m 11.9759,-0.168 v -17.808 h 3 v 10.752 l 6.216,-5.76 h 3.6 l -5.352,5.376 5.856,7.44 h -3.648 l -4.44,-5.496 -2.232,2.112 v 3.384 z m 20.7361,0.168 q -2.136,0 -3.744,-0.84 -1.584,-0.864 -2.472,-2.328 -0.864,-1.488 -0.864,-3.408 0,-1.92 0.84,-3.384 0.864,-1.488 2.352,-2.328 1.512,-0.84 3.432,-0.84 1.872,0 3.336,0.816 1.464,0.816 2.304,2.328 0.84,1.488 0.84,3.48 0,0.192 -0.024,0.432 0,0.24 -0.024,0.456 h -10.056 q 0.264,1.392 1.368,2.232 1.104,0.84 2.784,0.84 2.136,0 3.48,-1.392 l 1.608,1.848 q -1.776,2.088 -5.16,2.088 z m -4.104,-7.608 h 7.272 q -0.192,-1.392 -1.176,-2.256 -0.984,-0.864 -2.448,-0.864 -1.464,0 -2.448,0.864 -0.984,0.84 -1.2,2.256 z m 14.064,12.264 q -0.936,0 -1.872,-0.312 -0.936,-0.312 -1.56,-0.864 l 1.2,-2.208 q 0.936,0.888 2.208,0.888 0.792,0 1.296,-0.408 0.528,-0.408 0.96,-1.368 l 0.216,-0.528 -5.592,-12.84 h 3.12 l 4.032,9.504 4.056,-9.504 h 2.88 l -6,13.848 q -0.888,2.184 -2.112,2.976 -1.224,0.816 -2.832,0.816 z"
               id="path2" /></g></g></g><g
         id="g41-8"
         style="display:inline"
         transform="translate(174.24064,-969.11494)"><path
           id="rect11-2-2"
           d="m 884.2432,192.95468 h 359.0109 a 18.14255,18.14255 45 0 1 18.1425,18.14255 v 126.63435 a 18.14255,18.14255 135 0 1 -18.1425,18.14255 H 884.2432 A 18.14255,18.14255 45 0 1 866.10065,337.73158 V 211.09723 a 18.14255,18.14255 135 0 1 18.14255,-18.14255 z"
           style="font-variation-settings:'wght' 500;fill:none;fill-opacity:0.1;stroke:#195962;stroke-width:4.39384;stroke-linecap:round;stroke-linejoin:round;stroke-dasharray:none;stroke-opacity:1;paint-order:markers fill stroke"
           transform="matrix(0.94985532,0,0,0.73417064,31.221087,187.24009)" /><path
           style="font-weight:500;font-size:22.2565px;font-family:Montserrat;-inkscape-font-specification:'Montserrat Medium';font-variation-settings:'wght' 500;fill:#3e4349;stroke-width:3.65147;stroke-linecap:round;stroke-linejoin:round;paint-order:markers fill stroke"
           d="m 889.42596,357.47273 q -1.75826,0 -3.27171,-0.57867 -1.49118,-0.60092 -2.60401,-1.66924 -1.11282,-1.09057 -1.736,-2.53724 -0.62319,-1.44667 -0.62319,-3.18268 0,-1.736 0.62319,-3.18268 0.62318,-1.44667 1.736,-2.51498 1.11283,-1.09057 2.60401,-1.66924 1.51345,-0.60092 3.29397,-0.60092 1.80277,0 3.31621,0.62318 1.5357,0.60092 2.60401,1.80277 l -1.44667,1.40216 q -0.89026,-0.93477 -2.00308,-1.3799 -1.11283,-0.46739 -2.38145,-0.46739 -1.75826,0 -3.13817,0.77898 -1.3799,0.77898 -2.18113,2.13663 -0.80124,1.33539 -0.80124,3.07139 0,1.73601 0.80124,3.09366 0.80123,1.33539 2.18113,2.11436 1.37991,0.77898 3.13817,0.77898 1.26862,0 2.38145,-0.44513 1.11282,-0.46739 2.00308,-1.42441 l 1.44667,1.40215 q -1.06831,1.20186 -2.60401,1.82504 -1.51344,0.62318 -3.33847,0.62318 z m 13.15359,-0.0445 q -1.78052,0 -3.16042,-0.77898 -1.37991,-0.77898 -2.18114,-2.13662 -0.80123,-1.35765 -0.80123,-3.11591 0,-1.75827 0.80123,-3.11591 0.80123,-1.35765 2.18114,-2.11437 1.3799,-0.77898 3.16042,-0.77898 1.75826,0 3.13817,0.77898 1.40216,0.75672 2.18113,2.11437 0.80124,1.35764 0.80124,3.11591 0,1.75826 -0.80124,3.11591 -0.77897,1.35764 -2.18113,2.13662 -1.37991,0.77898 -3.13817,0.77898 z m 0,-1.86955 q 1.13508,0 2.02534,-0.5119 0.91252,-0.53415 1.42442,-1.46893 0.5119,-0.93477 0.5119,-2.18113 0,-1.24637 -0.5119,-2.18114 -0.5119,-0.93477 -1.42442,-1.44667 -0.89026,-0.5119 -2.02534,-0.5119 -1.13508,0 -2.0476,0.5119 -0.89026,0.5119 -1.42441,1.44667 -0.5119,0.93477 -0.5119,2.18114 0,1.24636 0.5119,2.18113 0.53415,0.93478 1.42441,1.46893 0.91252,0.5119 2.0476,0.5119 z m 9.08066,1.73601 v -11.79595 h 2.04759 v 1.75827 q 1.33539,-1.86955 4.07294,-1.86955 1.35765,0 2.42596,0.55641 1.06831,0.53416 1.66924,1.62473 0.66769,-1.00155 1.84729,-1.58021 1.20185,-0.60093 2.69304,-0.60093 2.15888,0 3.49427,1.26862 1.33539,1.24636 1.33539,3.85038 v 6.78823 h -2.13663 v -6.54341 q 0,-1.73601 -0.80123,-2.58176 -0.80124,-0.868 -2.24791,-0.868 -1.60247,0 -2.58175,1.00154 -0.95703,1.00154 -0.95703,2.9156 v 6.07603 h -2.13663 v -6.54341 q 0,-1.73601 -0.80123,-2.58176 -0.80123,-0.868 -2.24791,-0.868 -1.60246,0 -2.58175,1.00154 -0.95703,1.00154 -0.95703,2.9156 v 6.07603 z m 29.77918,0.13354 q -1.24637,0 -2.31468,-0.46739 -1.06831,-0.48964 -1.80278,-1.42442 v 6.07603 h -2.13662 v -16.11371 h 2.0476 v 1.84729 q 0.73446,-0.97928 1.82503,-1.46893 1.09057,-0.48964 2.38145,-0.48964 1.71375,0 3.04914,0.75672 1.35764,0.73447 2.13662,2.09211 0.77898,1.35765 0.77898,3.16043 0,1.80277 -0.77898,3.16042 -0.77898,1.35764 -2.13662,2.11437 -1.33539,0.75672 -3.04914,0.75672 z m -0.17805,-1.86955 q 1.13508,0 2.02534,-0.5119 0.91251,-0.53415 1.42441,-1.44667 0.53416,-0.93477 0.53416,-2.20339 0,-1.24637 -0.53416,-2.18114 -0.5119,-0.93477 -1.42441,-1.44667 -0.89026,-0.5119 -2.02534,-0.5119 -1.11283,0 -2.02535,0.5119 -0.89026,0.5119 -1.42441,1.44667 -0.5119,0.93477 -0.5119,2.18114 0,1.26862 0.5119,2.20339 0.53415,0.91252 1.42441,1.44667 0.91252,0.5119 2.02535,0.5119 z m 14.15511,1.86955 q -1.78052,0 -3.16042,-0.77898 -1.37991,-0.77898 -2.18114,-2.13662 -0.80123,-1.35765 -0.80123,-3.11591 0,-1.75827 0.80123,-3.11591 0.80123,-1.35765 2.18114,-2.11437 1.3799,-0.77898 3.16042,-0.77898 1.75826,0 3.13817,0.77898 1.40216,0.75672 2.18113,2.11437 0.80124,1.35764 0.80124,3.11591 0,1.75826 -0.80124,3.11591 -0.77897,1.35764 -2.18113,2.13662 -1.37991,0.77898 -3.13817,0.77898 z m 0,-1.86955 q 1.13508,0 2.02534,-0.5119 0.91252,-0.53415 1.42442,-1.46893 0.5119,-0.93477 0.5119,-2.18113 0,-1.24637 -0.5119,-2.18114 -0.5119,-0.93477 -1.42442,-1.44667 -0.89026,-0.5119 -2.02534,-0.5119 -1.13508,0 -2.0476,0.5119 -0.89026,0.5119 -1.42441,1.44667 -0.5119,0.93477 -0.5119,2.18114 0,1.24636 0.5119,2.18113 0.53415,0.93478 1.42441,1.46893 0.91252,0.5119 2.0476,0.5119 z m 9.08066,1.73601 v -11.79595 h 2.0476 v 1.78052 q 0.6677,-0.91251 1.75826,-1.40216 1.09057,-0.48964 2.49273,-0.48964 1.42442,0 2.53724,0.55641 1.11283,0.55642 1.73601,1.6915 0.62318,1.13508 0.62318,2.87109 v 6.78823 h -2.13662 v -6.54341 q 0,-1.73601 -0.84575,-2.58176 -0.82349,-0.868 -2.33693,-0.868 -1.6915,0 -2.71529,1.00154 -1.0238,1.00154 -1.0238,2.9156 v 6.07603 z m 20.40921,0.13354 q -1.89181,0 -3.33848,-0.77898 -1.42441,-0.77898 -2.22565,-2.13662 -0.77898,-1.35765 -0.77898,-3.11591 0,-1.75827 0.75672,-3.11591 0.77898,-1.35765 2.11437,-2.11437 1.35765,-0.77898 3.04914,-0.77898 1.71375,0 3.02689,0.75672 1.31313,0.75672 2.04759,2.13663 0.75673,1.35764 0.75673,3.18267 0,0.13354 -0.0223,0.3116 0,0.17805 -0.0223,0.33384 h -9.57029 q 0.20031,1.55796 1.35764,2.51499 1.15734,0.93477 2.91561,0.93477 2.13662,0 3.40524,-1.42442 l 1.17959,1.37991 q -0.80123,0.93477 -2.00308,1.42441 -1.17959,0.48965 -2.64852,0.48965 z m -4.20648,-6.85501 h 7.56721 q -0.1558,-1.49118 -1.20185,-2.42595 -1.0238,-0.95703 -2.58176,-0.95703 -1.5357,0 -2.58175,0.93477 -1.0238,0.93477 -1.20185,2.44821 z m 12.57491,6.72147 v -11.79595 h 2.04759 v 1.78052 q 0.6677,-0.91251 1.75827,-1.40216 1.09057,-0.48964 2.49273,-0.48964 1.42446,0 2.53726,0.55641 1.1128,0.55642 1.736,1.6915 0.6232,1.13508 0.6232,2.87109 v 6.78823 h -2.1367 v -6.54341 q 0,-1.73601 -0.8457,-2.58176 -0.8235,-0.868 -2.33694,-0.868 -1.69149,0 -2.71529,1.00154 -1.0238,1.00154 -1.0238,2.9156 v 6.07603 z m 19.20735,0.13354 q -1.7805,0 -2.7598,-0.95703 -0.9793,-0.95703 -0.9793,-2.73755 V 347.257 h -2.0031 v -1.75827 h 2.0031 v -2.58175 h 2.1366 v 2.58175 h 3.383 v 1.75827 h -3.383 v 6.38761 q 0,1.98083 1.8473,1.98083 1.0016,0 1.6693,-0.55641 l 0.6677,1.5357 q -0.4897,0.40061 -1.1796,0.62318 -0.6677,0.20031 -1.4022,0.20031 z m 11.4621,-0.13354 v -15.57955 h 2.2256 v 8.72455 l 8.4575,-8.72455 h 2.5372 l -6.6547,7.0108 7.0776,8.56875 h -2.604 l -5.9647,-6.94403 -2.8489,2.9156 v 4.02843 z m 20.4314,0.13354 q -1.8918,0 -3.3385,-0.77898 -1.4244,-0.77898 -2.2256,-2.13662 -0.779,-1.35765 -0.779,-3.11591 0,-1.75827 0.7567,-3.11591 0.779,-1.35765 2.1144,-2.11437 1.3577,-0.77898 3.0491,-0.77898 1.7138,0 3.0269,0.75672 1.3132,0.75672 2.0476,2.13663 0.7568,1.35764 0.7568,3.18267 0,0.13354 -0.022,0.3116 0,0.17805 -0.022,0.33384 h -9.5703 q 0.2004,1.55796 1.3577,2.51499 1.1573,0.93477 2.9156,0.93477 2.1366,0 3.4052,-1.42442 l 1.1796,1.37991 q -0.8012,0.93477 -2.0031,1.42441 -1.1795,0.48965 -2.6485,0.48965 z m -4.2065,-6.85501 h 7.5673 q -0.1558,-1.49118 -1.2019,-2.42595 -1.0238,-0.95703 -2.5818,-0.95703 -1.5356,0 -2.5817,0.93477 -1.0238,0.93477 -1.2019,2.44821 z m 13.0423,11.17277 q -0.8457,0 -1.6692,-0.28934 -0.8013,-0.26707 -1.3577,-0.80123 l 0.9126,-1.60247 q 0.8902,0.868 2.1143,0.868 0.7567,0 1.2686,-0.40061 0.5342,-0.40062 0.9793,-1.42442 l 0.3784,-0.80123 -5.208,-11.79595 h 2.2256 l 4.0952,9.4145 4.0952,-9.4145 h 2.0921 l -5.7199,12.97554 q -0.779,1.86955 -1.825,2.5595 -1.0238,0.71221 -2.3815,0.71221 z"
           id="text11-2-8-02"
           transform="scale(0.98944428,1.0106683)"
           aria-label="Component Key" /></g><path
         id="path2-3-2-1"
         style="display:inline;fill:none;stroke:#006961;stroke-width:12.5773;stroke-linecap:round;stroke-dasharray:none;stroke-opacity:1"
         d="m 156.30312,759.25868 c -9.78054,19.91382 -30.12868,33.02384 -53.81237,33.02384 -33.173715,0 -60.066326,-26.89261 -60.066326,-60.06633 0,-33.17372 26.892611,-60.06633 60.066326,-60.06633 23.31181,0 43.58824,15.15712 53.54415,34.5646 m -9.14624,1.20213 h 4.97796 c 10.89491,0.20296 25.86265,0 38.79397,0 l 11.43353,7.63836 14.59897,-7.63836 14.59896,7.3422 h 10.87817 l 11.54761,-7.3422 17.66083,7.3422 16.34856,-7.34219 22,25.45886 -22,25.45887 h -135.8606 -4.97796 M 89.058073,732.21619 c -4e-6,6.98969 -5.666271,12.65596 -12.655965,12.65596 -6.989695,0 -12.655963,-5.66627 -12.655967,-12.65596 -2e-6,-6.9897 5.666268,-12.65597 12.655967,-12.65597 6.989698,0 12.655967,5.66627 12.655965,12.65597 z"
         transform="matrix(0.30880813,0,0,-0.3083807,1278.5158,-329.75398)" /><path
         style="font-weight:500;font-size:20.8334px;font-family:Montserrat;-inkscape-font-specification:'Montserrat Medium';font-variation-settings:'wght' 500;fill:#3e4349;stroke-width:4.11649;stroke-linecap:round;stroke-linejoin:round;paint-order:markers fill stroke"
         d="m 1047.7564,-553.34893 v -1.72918 h 5.6041 v 1.72918 z m 14.2916,4.85418 v -15.45838 h 2 v 9.91669 l 6.0209,-5.50001 h 2.4167 l -4.6459,4.56251 5.1042,6.47919 h -2.4583 l -4.1459,-5.14585 -2.2917,2.12501 v 3.02084 z m 17.2709,0.125 q -1.7708,0 -3.125,-0.72917 -1.3333,-0.72917 -2.0833,-2.00001 -0.7292,-1.27083 -0.7292,-2.91667 0,-1.64584 0.7083,-2.91668 0.7292,-1.27084 1.9792,-1.97917 1.2709,-0.72917 2.8542,-0.72917 1.6042,0 2.8333,0.70834 1.2292,0.70833 1.9167,2 0.7083,1.27084 0.7083,2.97918 0,0.125 -0.021,0.29167 0,0.16666 -0.021,0.3125 h -8.9584 q 0.1875,1.45833 1.2709,2.35417 1.0833,0.875 2.7291,0.875 2,0 3.1875,-1.33333 l 1.1042,1.29167 q -0.75,0.875 -1.875,1.33333 -1.1042,0.45834 -2.4792,0.45834 z m -3.9375,-6.41669 h 7.0834 q -0.1459,-1.39584 -1.125,-2.27084 -0.9584,-0.89583 -2.4167,-0.89583 -1.4375,0 -2.4167,0.875 -0.9583,0.875 -1.125,2.29167 z m 12.2084,10.45837 q -0.7917,0 -1.5625,-0.27084 -0.75,-0.25 -1.2709,-0.75 l 0.8542,-1.5 q 0.8333,0.8125 1.9792,0.8125 0.7083,0 1.1875,-0.375 0.5,-0.375 0.9166,-1.33334 l 0.3542,-0.75 -4.875,-11.0417 h 2.0833 l 3.8334,8.81253 3.8333,-8.81253 h 1.9584 l -5.3542,12.14587 q -0.7292,1.75 -1.7084,2.39584 -0.9583,0.66667 -2.2291,0.66667 z m 21.5833,-4.04168 q -1.7083,0 -3.0208,-0.72917 -1.3125,-0.72917 -2.0625,-2.00001 -0.75,-1.27083 -0.75,-2.91667 0,-1.64584 0.75,-2.91668 0.75,-1.27084 2.0625,-1.97917 1.3125,-0.72917 3.0208,-0.72917 1.4792,0 2.6667,0.60417 1.1875,0.58333 1.8334,1.75 l -1.5209,0.97917 q -0.5416,-0.8125 -1.3333,-1.1875 -0.7708,-0.39583 -1.6667,-0.39583 -1.0833,0 -1.9375,0.47916 -0.8542,0.47917 -1.3542,1.35417 -0.5,0.85417 -0.5,2.04168 0,1.1875 0.5,2.0625 0.5,0.87501 1.3542,1.35418 0.8542,0.47916 1.9375,0.47916 0.8959,0 1.6667,-0.375 0.7917,-0.39583 1.3333,-1.20833 l 1.5209,0.95833 q -0.6459,1.14584 -1.8334,1.77084 -1.1875,0.60417 -2.6667,0.60417 z m 7.0834,-0.125 v -11.0417 h 1.9167 v 1.83334 q 1.1041,-1.93751 4.0208,-1.93751 v 1.93751 q -0.125,0 -0.25,0 -0.1042,-0.0208 -0.2083,-0.0208 -1.6042,0 -2.5417,0.95834 -0.9375,0.95834 -0.9375,2.77084 v 5.50002 z m 13.2084,0.125 q -1.7709,0 -3.125,-0.72917 -1.3334,-0.72917 -2.0834,-2.00001 -0.7291,-1.27083 -0.7291,-2.91667 0,-1.64584 0.7083,-2.91668 0.7292,-1.27084 1.9792,-1.97917 1.2708,-0.72917 2.8541,-0.72917 1.6042,0 2.8334,0.70834 1.2292,0.70833 1.9167,2 0.7083,1.27084 0.7083,2.97918 0,0.125 -0.021,0.29167 0,0.16666 -0.021,0.3125 h -8.9583 q 0.1875,1.45833 1.2708,2.35417 1.0833,0.875 2.7292,0.875 2,0 3.1875,-1.33333 l 1.1042,1.29167 q -0.75,0.875 -1.875,1.33333 -1.1042,0.45834 -2.4792,0.45834 z m -3.9375,-6.41669 h 7.0833 q -0.1458,-1.39584 -1.125,-2.27084 -0.9583,-0.89583 -2.4167,-0.89583 -1.4375,0 -2.4166,0.875 -0.9584,0.875 -1.125,2.29167 z m 18.3125,6.29169 v -1.43751 q -0.5,0.72917 -1.4166,1.14584 -0.9167,0.41667 -2.2084,0.41667 -1.875,0 -2.9792,-0.89584 -1.1041,-0.91667 -1.1041,-2.35417 0,-0.89584 0.4166,-1.62501 0.4375,-0.72917 1.3959,-1.16667 0.9791,-0.4375 2.625,-0.4375 h 3.1667 v -0.39583 q 0,-1.27084 -0.75,-1.95834 -0.7292,-0.70834 -2.2084,-0.70834 -0.9792,0 -1.9167,0.33334 -0.9375,0.3125 -1.5833,0.85417 l -0.8333,-1.50001 q 0.8541,-0.6875 2.0416,-1.04167 1.2084,-0.375 2.5209,-0.375 2.2708,0 3.5,1.125 1.2292,1.10417 1.2292,3.35418 v 6.66669 z m -0.1041,-3.37501 v -1.54167 h -3.0834 q -1.5,0 -2.0208,0.5 -0.5209,0.5 -0.5209,1.20834 0,0.83333 0.6459,1.3125 0.6458,0.47917 1.7916,0.47917 1.1251,0 1.9584,-0.5 0.8542,-0.50001 1.2292,-1.45834 z m 9.5,3.50001 q -1.6667,0 -2.5834,-0.89584 -0.9166,-0.89583 -0.9166,-2.56251 v -6.06251 h -1.875 v -1.64584 h 1.875 v -2.41668 h 2 v 2.41668 h 3.1667 v 1.64584 h -3.1667 v 5.97918 q 0,1.85417 1.7291,1.85417 0.9376,0 1.5626,-0.52083 l 0.625,1.4375 q -0.4584,0.375 -1.1042,0.58334 -0.625,0.1875 -1.3125,0.1875 z m 4.8333,-0.125 v -11.0417 h 2 v 11.0417 z m 1,-13.16671 q -0.5833,0 -0.9791,-0.375 -0.375,-0.375 -0.375,-0.91667 0,-0.54167 0.375,-0.91667 0.3958,-0.39584 0.9791,-0.39584 0.5834,0 0.9584,0.37501 0.3958,0.35416 0.3958,0.89583 0,0.5625 -0.3958,0.95834 -0.375,0.375 -0.9584,0.375 z m 9.5417,13.29171 q -1.6667,0 -2.9583,-0.72917 -1.2917,-0.72917 -2.0417,-2.00001 -0.75,-1.27083 -0.75,-2.91667 0,-1.64584 0.75,-2.91668 0.75,-1.27084 2.0417,-1.97917 1.2916,-0.72917 2.9583,-0.72917 1.6458,0 2.9375,0.72917 1.3125,0.70833 2.0417,1.97917 0.75,1.27084 0.75,2.91668 0,1.64584 -0.75,2.91667 -0.7292,1.27084 -2.0417,2.00001 -1.2917,0.72917 -2.9375,0.72917 z m 0,-1.75001 q 1.0625,0 1.8958,-0.47916 0.8542,-0.50001 1.3334,-1.37501 0.4792,-0.875 0.4792,-2.04167 0,-1.16667 -0.4792,-2.04168 -0.4792,-0.875 -1.3334,-1.35417 -0.8333,-0.47916 -1.8958,-0.47916 -1.0625,0 -1.9167,0.47916 -0.8333,0.47917 -1.3333,1.35417 -0.4792,0.87501 -0.4792,2.04168 0,1.16667 0.4792,2.04167 0.5,0.875 1.3333,1.37501 0.8542,0.47916 1.9167,0.47916 z m 8.5,1.62501 v -11.0417 h 1.9167 v 1.66667 q 0.625,-0.85417 1.6458,-1.31251 1.0209,-0.45833 2.3334,-0.45833 1.3333,0 2.375,0.52083 1.0417,0.52084 1.625,1.58334 0.5833,1.06251 0.5833,2.68751 v 6.35419 h -2 v -6.12502 q 0,-1.62501 -0.7916,-2.41668 -0.7709,-0.8125 -2.1875,-0.8125 -1.5834,0 -2.5417,0.93751 -0.9584,0.9375 -0.9584,2.72917 v 5.68752 z m 23.5834,0.125 q -1.6666,0 -2.5833,-0.89584 -0.9167,-0.89583 -0.9167,-2.56251 v -6.06251 h -1.875 v -1.64584 h 1.875 v -2.41668 h 2 v 2.41668 h 3.1667 v 1.64584 h -3.1667 v 5.97918 q 0,1.85417 1.7292,1.85417 0.9375,0 1.5625,-0.52083 l 0.625,1.4375 q -0.4583,0.375 -1.1042,0.58334 -0.625,0.1875 -1.3125,0.1875 z m 4.8334,-0.125 v -11.0417 h 2 v 11.0417 z m 1,-13.16671 q -0.5834,0 -0.9792,-0.375 -0.375,-0.375 -0.375,-0.91667 0,-0.54167 0.375,-0.91667 0.3958,-0.39584 0.9792,-0.39584 0.5833,0 0.9583,0.37501 0.3958,0.35416 0.3958,0.89583 0,0.5625 -0.3958,0.95834 -0.375,0.375 -0.9583,0.375 z m 4.8125,13.16671 v -11.0417 h 1.9166 v 1.64584 q 1.25,-1.75001 3.8126,-1.75001 1.2708,0 2.2708,0.52083 1,0.50001 1.5625,1.52084 0.625,-0.9375 1.7292,-1.47917 1.125,-0.5625 2.5208,-0.5625 2.0209,0 3.2709,1.1875 1.25,1.16667 1.25,3.60418 v 6.35419 h -2 v -6.12502 q 0,-1.62501 -0.75,-2.41668 -0.7501,-0.8125 -2.1042,-0.8125 -1.5,0 -2.4167,0.93751 -0.8958,0.9375 -0.8958,2.72917 v 5.68752 h -2 v -6.12502 q 0,-1.62501 -0.75,-2.41668 -0.75,-0.8125 -2.1042,-0.8125 -1.5,0 -2.4167,0.93751 -0.8958,0.9375 -0.8958,2.72917 v 5.68752 z m 26.9375,0.125 q -1.7708,0 -3.125,-0.72917 -1.3333,-0.72917 -2.0833,-2.00001 -0.7292,-1.27083 -0.7292,-2.91667 0,-1.64584 0.7084,-2.91668 0.7291,-1.27084 1.9791,-1.97917 1.2709,-0.72917 2.8542,-0.72917 1.6042,0 2.8333,0.70834 1.2292,0.70833 1.9167,2 0.7084,1.27084 0.7084,2.97918 0,0.125 -0.021,0.29167 0,0.16666 -0.021,0.3125 h -8.9584 q 0.1875,1.45833 1.2709,2.35417 1.0833,0.875 2.7291,0.875 2,0 3.1876,-1.33333 l 1.1041,1.29167 q -0.75,0.875 -1.875,1.33333 -1.1042,0.45834 -2.4792,0.45834 z m -3.9375,-6.41669 h 7.0834 q -0.1458,-1.39584 -1.125,-2.27084 -0.9584,-0.89583 -2.4167,-0.89583 -1.4375,0 -2.4167,0.875 -0.9583,0.875 -1.125,2.29167 z"
         id="text11-9-3"
         transform="scale(1.0006928,0.99930768)"
         aria-label="- key creation time" /><path
         style="display:inline;fill:none;fill-opacity:1;stroke:#195962;stroke-width:2.48502;stroke-linecap:square;stroke-dasharray:4.97003, 4.97003;stroke-dashoffset:0;stroke-opacity:1;paint-order:fill markers stroke"
         d="m 850.55372,198.75048 223.49328,0 a 12.362879,12.362879 45 0 1 12.3629,12.36288 v 49.53492"
         id="path71-3"
         transform="matrix(0.97724208,0,0,0.97588952,199.70912,-778.26433)" /><g
         id="g67"
         transform="translate(172.01582,-966.26504)"
         style="display:inline;stroke-width:1.7;stroke-dasharray:none"><rect
           style="fill:#baa600;fill-opacity:0.25;stroke:#baa600;stroke-width:1.4;stroke-linecap:butt;stroke-linejoin:miter;stroke-dasharray:2.8, 2.8;stroke-dashoffset:0;stroke-opacity:1;paint-order:fill markers stroke"
           id="rect66"
           width="378.45499"
           height="52.826336"
           x="855.52289"
           y="454.69138" /><g
           id="text11-3-4-3"
           style="font-size:21.3333px;line-height:17.9px;font-family:Sans;-inkscape-font-specification:'Sans, @wght=500';font-variation-settings:'wght' 500;white-space:pre;inline-size:393.624;fill:#3e4349;stroke-width:1.7786;stroke-linecap:round;stroke-linejoin:round;paint-order:markers fill stroke"
           transform="matrix(0.95580583,0,0,0.95580583,326.86618,86.500043)"
           aria-label="C0A5 8384 A438 E5A1 4F73 7124 26A4 D45D BAEE F4A3 9E6B 30B0 9D55 13F9 78AC CA94"><path
             style="font-size:16px;font-family:Monospace;-inkscape-font-specification:'Monospace, Normal'"
             d="m 568.71695,409.13891 q -1.68,0 -2.736,-0.752 -1.056,-0.752 -1.552,-2.064 -0.496,-1.328 -0.496,-3.056 0,-1.808 0.56,-3.12 0.576,-1.328 1.648,-2.032 1.088,-0.72 2.64,-0.72 0.832,0 1.552,0.176 0.736,0.176 1.344,0.496 l -0.544,1.168 q -0.496,-0.272 -1.136,-0.416 -0.624,-0.144 -1.216,-0.144 -1.632,0 -2.512,1.184 -0.864,1.184 -0.864,3.408 0,2.128 0.784,3.344 0.784,1.2 2.56,1.2 0.544,0 1.168,-0.112 0.64,-0.128 1.264,-0.384 v 1.36 q -0.64,0.24 -1.232,0.352 -0.576,0.112 -1.232,0.112 z m 8.54401,0 q -2,0 -2.912,-1.552 -0.912,-1.568 -0.912,-4.336 0,-1.856 0.384,-3.152 0.384,-1.312 1.216,-2 0.848,-0.704 2.224,-0.704 2.016,0 2.928,1.536 0.928,1.536 0.928,4.32 0,1.84 -0.384,3.168 -0.384,1.312 -1.232,2.016 -0.848,0.704 -2.24,0.704 z m -2.48,-5.888 q 0,0.704 0.048,1.328 0.064,0.608 0.176,1.104 l 3.792,-6.416 q -0.592,-0.608 -1.536,-0.608 -1.296,0 -1.888,1.136 -0.592,1.12 -0.592,3.456 z m 2.48,4.624 q 1.312,0 1.936,-1.12 0.624,-1.136 0.624,-3.504 0,-1.664 -0.32,-2.72 l -3.888,6.56 q 0.592,0.784 1.648,0.784 z m 5.13601,1.104 3.712,-11.472 h 1.52 l 3.728,11.472 h -1.472 l -1.088,-3.504 h -3.856 l -1.088,3.504 z m 4,-8.192 -1.056,3.408 h 3.056 l -1.056,-3.408 q -0.08,-0.272 -0.224,-0.768 -0.144,-0.496 -0.256,-0.992 -0.096,0.496 -0.24,0.992 -0.144,0.496 -0.224,0.768 z m 9.392,8.352 q -0.752,0 -1.52,-0.16 -0.768,-0.16 -1.312,-0.464 v -1.36 q 0.544,0.352 1.248,0.544 0.704,0.176 1.456,0.176 1.344,0 2.096,-0.56 0.752,-0.576 0.752,-1.76 0,-1.2 -0.752,-1.808 -0.736,-0.608 -1.984,-0.608 -0.448,0 -0.96,0.08 -0.512,0.064 -0.912,0.16 l -0.704,-0.448 0.432,-5.376 h 5.696 v 1.28 h -4.464 l -0.304,3.296 q 0.336,-0.08 0.816,-0.112 0.496,-0.048 0.864,-0.048 1.04,0 1.888,0.384 0.848,0.384 1.344,1.168 0.512,0.768 0.512,1.936 0,1.68 -1.104,2.688 -1.088,0.992 -3.088,0.992 z m 19.80801,0 q -1.648,0 -2.64,-0.8 -0.992,-0.816 -0.992,-2.224 0,-0.816 0.32,-1.392 0.32,-0.592 0.848,-1.008 0.528,-0.432 1.168,-0.72 -0.784,-0.464 -1.376,-1.152 -0.592,-0.704 -0.592,-1.728 0,-0.896 0.464,-1.504 0.464,-0.608 1.232,-0.912 0.768,-0.304 1.664,-0.304 0.896,0 1.648,0.304 0.752,0.304 1.2,0.912 0.464,0.608 0.464,1.504 0,1.056 -0.624,1.728 -0.608,0.656 -1.536,1.088 0.704,0.352 1.28,0.8 0.576,0.432 0.912,1.008 0.336,0.576 0.336,1.36 0,0.88 -0.464,1.568 -0.464,0.688 -1.312,1.088 -0.832,0.384 -2,0.384 z m 0.096,-6.784 q 0.8,-0.352 1.36,-0.832 0.56,-0.496 0.56,-1.328 0,-0.784 -0.528,-1.184 -0.528,-0.416 -1.424,-0.416 -0.88,0 -1.408,0.4 -0.528,0.4 -0.528,1.2 0,0.592 0.288,0.992 0.288,0.4 0.736,0.672 0.448,0.272 0.944,0.496 z m -0.048,5.616 q 1.136,0 1.728,-0.544 0.608,-0.56 0.608,-1.408 0,-0.848 -0.624,-1.36 -0.624,-0.528 -1.888,-1.12 -0.976,0.432 -1.536,1.04 -0.56,0.608 -0.56,1.52 0,0.816 0.544,1.344 0.544,0.528 1.728,0.528 z m 9.00801,1.168 q -0.688,0 -1.488,-0.144 -0.8,-0.128 -1.504,-0.48 v -1.36 q 0.704,0.352 1.52,0.544 0.816,0.176 1.568,0.176 1.392,0 2.032,-0.592 0.64,-0.592 0.64,-1.552 0,-1.088 -0.768,-1.552 -0.752,-0.464 -2.128,-0.464 h -1.184 v -1.28 h 1.184 q 1.232,0 1.888,-0.576 0.656,-0.576 0.656,-1.504 0,-0.8 -0.512,-1.248 -0.496,-0.448 -1.472,-0.448 -0.816,0 -1.504,0.288 -0.672,0.272 -1.152,0.592 l -0.72,-0.976 q 0.608,-0.48 1.488,-0.816 0.88,-0.352 1.984,-0.352 1.664,0 2.496,0.8 0.848,0.8 0.848,2.032 0,1.152 -0.656,1.856 -0.656,0.704 -1.728,0.88 v 0.048 q 2.736,0.368 2.736,2.8 0,0.96 -0.448,1.712 -0.448,0.752 -1.376,1.184 -0.928,0.432 -2.4,0.432 z m 10.14401,0 q -1.648,0 -2.64,-0.8 -0.992,-0.816 -0.992,-2.224 0,-0.816 0.32,-1.392 0.32,-0.592 0.848,-1.008 0.528,-0.432 1.168,-0.72 -0.784,-0.464 -1.376,-1.152 -0.592,-0.704 -0.592,-1.728 0,-0.896 0.464,-1.504 0.464,-0.608 1.232,-0.912 0.768,-0.304 1.664,-0.304 0.896,0 1.648,0.304 0.752,0.304 1.2,0.912 0.464,0.608 0.464,1.504 0,1.056 -0.624,1.728 -0.608,0.656 -1.536,1.088 0.704,0.352 1.28,0.8 0.576,0.432 0.912,1.008 0.336,0.576 0.336,1.36 0,0.88 -0.464,1.568 -0.464,0.688 -1.312,1.088 -0.832,0.384 -2,0.384 z m 0.096,-6.784 q 0.8,-0.352 1.36,-0.832 0.56,-0.496 0.56,-1.328 0,-0.784 -0.528,-1.184 -0.528,-0.416 -1.424,-0.416 -0.88,0 -1.408,0.4 -0.528,0.4 -0.528,1.2 0,0.592 0.288,0.992 0.288,0.4 0.736,0.672 0.448,0.272 0.944,0.496 z m -0.048,5.616 q 1.136,0 1.728,-0.544 0.608,-0.56 0.608,-1.408 0,-0.848 -0.624,-1.36 -0.624,-0.528 -1.888,-1.12 -0.976,0.432 -1.536,1.04 -0.56,0.608 -0.56,1.52 0,0.816 0.544,1.344 0.544,0.528 1.728,0.528 z m 10.592,1.008 v -2.56 h -4.96 v -1.184 l 4.704,-7.744 h 1.632 v 7.696 h 1.664 v 1.232 h -1.664 v 2.56 z m -3.568,-3.792 h 3.568 v -2.848 q 0,-0.592 0.016,-1.232 0.016,-0.64 0.032,-1.216 0.032,-0.576 0.048,-0.928 h -0.064 q -0.112,0.304 -0.336,0.72 -0.208,0.416 -0.368,0.688 z m 17.32801,3.792 3.712,-11.472 h 1.52 l 3.728,11.472 h -1.472 l -1.088,-3.504 h -3.856 l -1.088,3.504 z m 4,-8.192 -1.056,3.408 h 3.056 l -1.056,-3.408 q -0.08,-0.272 -0.224,-0.768 -0.144,-0.496 -0.256,-0.992 -0.096,0.496 -0.24,0.992 -0.144,0.496 -0.224,0.768 z m 11.04001,8.192 v -2.56 h -4.96 v -1.184 l 4.704,-7.744 h 1.632 v 7.696 h 1.664 v 1.232 h -1.664 v 2.56 z m -3.568,-3.792 h 3.568 v -2.848 q 0,-0.592 0.016,-1.232 0.016,-0.64 0.032,-1.216 0.032,-0.576 0.048,-0.928 h -0.064 q -0.112,0.304 -0.336,0.72 -0.208,0.416 -0.368,0.688 z m 11.58401,3.952 q -0.688,0 -1.488,-0.144 -0.8,-0.128 -1.504,-0.48 v -1.36 q 0.704,0.352 1.52,0.544 0.816,0.176 1.568,0.176 1.392,0 2.032,-0.592 0.64,-0.592 0.64,-1.552 0,-1.088 -0.768,-1.552 -0.752,-0.464 -2.128,-0.464 h -1.184 v -1.28 h 1.184 q 1.232,0 1.888,-0.576 0.656,-0.576 0.656,-1.504 0,-0.8 -0.512,-1.248 -0.496,-0.448 -1.472,-0.448 -0.816,0 -1.504,0.288 -0.672,0.272 -1.152,0.592 l -0.72,-0.976 q 0.608,-0.48 1.488,-0.816 0.88,-0.352 1.984,-0.352 1.664,0 2.496,0.8 0.848,0.8 0.848,2.032 0,1.152 -0.656,1.856 -0.656,0.704 -1.728,0.88 v 0.048 q 2.736,0.368 2.736,2.8 0,0.96 -0.448,1.712 -0.448,0.752 -1.376,1.184 -0.928,0.432 -2.4,0.432 z m 10.144,0 q -1.648,0 -2.64,-0.8 -0.992,-0.816 -0.992,-2.224 0,-0.816 0.32,-1.392 0.32,-0.592 0.848,-1.008 0.528,-0.432 1.168,-0.72 -0.784,-0.464 -1.376,-1.152 -0.592,-0.704 -0.592,-1.728 0,-0.896 0.464,-1.504 0.464,-0.608 1.232,-0.912 0.768,-0.304 1.664,-0.304 0.896,0 1.648,0.304 0.752,0.304 1.2,0.912 0.464,0.608 0.464,1.504 0,1.056 -0.624,1.728 -0.608,0.656 -1.536,1.088 0.704,0.352 1.28,0.8 0.576,0.432 0.912,1.008 0.336,0.576 0.336,1.36 0,0.88 -0.464,1.568 -0.464,0.688 -1.312,1.088 -0.832,0.384 -2,0.384 z m 0.096,-6.784 q 0.8,-0.352 1.36,-0.832 0.56,-0.496 0.56,-1.328 0,-0.784 -0.528,-1.184 -0.528,-0.416 -1.424,-0.416 -0.88,0 -1.408,0.4 -0.528,0.4 -0.528,1.2 0,0.592 0.288,0.992 0.288,0.4 0.736,0.672 0.448,0.272 0.944,0.496 z m -0.048,5.616 q 1.136,0 1.728,-0.544 0.608,-0.56 0.608,-1.408 0,-0.848 -0.624,-1.36 -0.624,-0.528 -1.888,-1.12 -0.976,0.432 -1.536,1.04 -0.56,0.608 -0.56,1.52 0,0.816 0.544,1.344 0.544,0.528 1.728,0.528 z m 15.95201,1.008 v -11.424 h 6.72 v 1.28 h -5.28 v 3.536 h 4.976 v 1.28 h -4.976 v 4.048 h 5.28 v 1.28 z m 12.19201,0.16 q -0.752,0 -1.52,-0.16 -0.768,-0.16 -1.312,-0.464 v -1.36 q 0.544,0.352 1.248,0.544 0.704,0.176 1.456,0.176 1.344,0 2.096,-0.56 0.752,-0.576 0.752,-1.76 0,-1.2 -0.752,-1.808 -0.736,-0.608 -1.984,-0.608 -0.448,0 -0.96,0.08 -0.512,0.064 -0.912,0.16 l -0.704,-0.448 0.432,-5.376 h 5.696 v 1.28 h -4.464 l -0.304,3.296 q 0.336,-0.08 0.816,-0.112 0.496,-0.048 0.864,-0.048 1.04,0 1.888,0.384 0.848,0.384 1.344,1.168 0.512,0.768 0.512,1.936 0,1.68 -1.104,2.688 -1.088,0.992 -3.088,0.992 z m 5.80801,-0.16 3.712,-11.472 h 1.52 l 3.728,11.472 h -1.472 l -1.088,-3.504 h -3.856 l -1.088,3.504 z m 4,-8.192 -1.056,3.408 h 3.056 l -1.056,-3.408 q -0.08,-0.272 -0.224,-0.768 -0.144,-0.496 -0.256,-0.992 -0.096,0.496 -0.24,0.992 -0.144,0.496 -0.224,0.768 z m 7.408,8.192 v -0.96 l 2.4,-0.16 v -6.016 q 0,-0.672 0.016,-1.472 0.032,-0.816 0.048,-1.344 -0.256,0.144 -0.464,0.24 -0.208,0.096 -0.624,0.304 l -1.328,0.688 -0.624,-1.088 3.184,-1.616 h 1.168 v 10.304 l 2.416,0.16 v 0.96 z m 22.83202,0 v -2.56 h -4.96 v -1.184 l 4.704,-7.744 h 1.632 v 7.696 h 1.664 v 1.232 h -1.664 v 2.56 z m -3.568,-3.792 h 3.568 v -2.848 q 0,-0.592 0.016,-1.232 0.016,-0.64 0.032,-1.216 0.032,-0.576 0.048,-0.928 h -0.064 q -0.112,0.304 -0.336,0.72 -0.208,0.416 -0.368,0.688 z m 8.928,3.792 v -11.424 h 6.72 v 1.28 h -5.28 v 4.032 h 4.976 v 1.28 h -4.976 v 4.832 z m 10.86401,0 4.4,-10.144 h -6.224 v -1.28 h 7.68 v 1.136 l -4.336,10.288 z m 10.992,0.16 q -0.688,0 -1.488,-0.144 -0.8,-0.128 -1.504,-0.48 v -1.36 q 0.704,0.352 1.52,0.544 0.816,0.176 1.568,0.176 1.392,0 2.032,-0.592 0.64,-0.592 0.64,-1.552 0,-1.088 -0.768,-1.552 -0.752,-0.464 -2.128,-0.464 h -1.184 v -1.28 h 1.184 q 1.232,0 1.888,-0.576 0.656,-0.576 0.656,-1.504 0,-0.8 -0.512,-1.248 -0.496,-0.448 -1.472,-0.448 -0.816,0 -1.504,0.288 -0.672,0.272 -1.152,0.592 l -0.72,-0.976 q 0.608,-0.48 1.488,-0.816 0.88,-0.352 1.984,-0.352 1.664,0 2.496,0.8 0.848,0.8 0.848,2.032 0,1.152 -0.656,1.856 -0.656,0.704 -1.728,0.88 v 0.048 q 2.736,0.368 2.736,2.8 0,0.96 -0.448,1.712 -0.448,0.752 -1.376,1.184 -0.928,0.432 -2.4,0.432 z m 17.80802,-0.16 4.4,-10.144 h -6.224 v -1.28 h 7.68 v 1.136 l -4.336,10.288 z m 8.944,0 v -0.96 l 2.4,-0.16 v -6.016 q 0,-0.672 0.016,-1.472 0.032,-0.816 0.048,-1.344 -0.256,0.144 -0.464,0.24 -0.208,0.096 -0.624,0.304 l -1.328,0.688 -0.624,-1.088 3.184,-1.616 h 1.168 v 10.304 l 2.416,0.16 v 0.96 z m 8.59201,0 v -1.216 l 3.04,-2.992 q 1.184,-1.184 1.84,-2.144 0.672,-0.96 0.672,-2.032 0,-1.024 -0.56,-1.472 -0.56,-0.464 -1.424,-0.464 -0.752,0 -1.424,0.304 -0.656,0.304 -1.232,0.768 l -0.8,-0.992 q 0.656,-0.56 1.52,-0.944 0.864,-0.4 1.984,-0.4 1.536,0 2.448,0.816 0.928,0.816 0.928,2.336 0,1.296 -0.688,2.416 -0.688,1.104 -1.92,2.288 l -2.448,2.384 v 0.064 h 5.664 v 1.28 z m 14.24,0 v -2.56 h -4.96 v -1.184 l 4.704,-7.744 h 1.632 v 7.696 h 1.664 v 1.232 h -1.664 v 2.56 z m -3.568,-3.792 h 3.568 v -2.848 q 0,-0.592 0.016,-1.232 0.016,-0.64 0.032,-1.216 0.032,-0.576 0.048,-0.928 h -0.064 q -0.112,0.304 -0.336,0.72 -0.208,0.416 -0.368,0.688 z m 18.12802,3.792 v -1.216 l 3.04,-2.992 q 1.184,-1.184 1.84,-2.144 0.672,-0.96 0.672,-2.032 0,-1.024 -0.56,-1.472 -0.56,-0.464 -1.424,-0.464 -0.752,0 -1.424,0.304 -0.656,0.304 -1.232,0.768 l -0.8,-0.992 q 0.656,-0.56 1.52,-0.944 0.864,-0.4 1.984,-0.4 1.536,0 2.448,0.816 0.928,0.816 0.928,2.336 0,1.296 -0.688,2.416 -0.688,1.104 -1.92,2.288 l -2.448,2.384 v 0.064 h 5.664 v 1.28 z m 13.408,0.16 q -1.824,0 -2.896,-1.264 -1.072,-1.264 -1.072,-3.824 0,-1.232 0.208,-2.416 0.224,-1.184 0.8,-2.144 0.576,-0.96 1.616,-1.52 1.04,-0.576 2.688,-0.576 0.32,0 0.736,0.032 0.432,0.032 0.688,0.112 v 1.264 q -0.272,-0.096 -0.64,-0.144 -0.368,-0.048 -0.736,-0.048 -1.152,0 -1.904,0.368 -0.752,0.352 -1.184,0.976 -0.432,0.624 -0.624,1.456 -0.192,0.816 -0.224,1.744 h 0.096 q 0.32,-0.608 0.976,-1.008 0.672,-0.4 1.696,-0.4 1.6,0 2.544,0.928 0.944,0.928 0.944,2.624 0,1.792 -1.008,2.816 -0.992,1.024 -2.704,1.024 z m -0.016,-1.2 q 1.04,0 1.696,-0.608 0.656,-0.624 0.656,-2.032 0,-1.184 -0.592,-1.808 -0.576,-0.624 -1.712,-0.624 -0.768,0 -1.36,0.32 -0.576,0.32 -0.896,0.816 -0.32,0.496 -0.32,1.024 0,0.688 0.272,1.36 0.288,0.672 0.848,1.12 0.576,0.432 1.408,0.432 z m 5.00801,1.04 3.712,-11.472 h 1.52 l 3.728,11.472 h -1.472 l -1.088,-3.504 h -3.856 l -1.088,3.504 z m 4,-8.192 -1.056,3.408 h 3.056 l -1.056,-3.408 q -0.08,-0.272 -0.224,-0.768 -0.144,-0.496 -0.256,-0.992 -0.096,0.496 -0.24,0.992 -0.144,0.496 -0.224,0.768 z m 11.04,8.192 v -2.56 h -4.96 v -1.184 l 4.704,-7.744 h 1.632 v 7.696 h 1.664 v 1.232 h -1.664 v 2.56 z m -3.568,-3.792 h 3.568 v -2.848 q 0,-0.592 0.016,-1.232 0.016,-0.64 0.032,-1.216 0.032,-0.576 0.048,-0.928 h -0.064 q -0.112,0.304 -0.336,0.72 -0.208,0.416 -0.368,0.688 z m 18.12802,3.792 v -11.424 h 2.768 q 1.52,0 2.64,0.64 1.12,0.64 1.728,1.888 0.624,1.232 0.624,3.072 0,2.896 -1.408,4.368 -1.392,1.456 -3.904,1.456 z m 2.304,-1.248 q 2.048,0 3.008,-1.152 0.976,-1.152 0.976,-3.376 0,-2.272 -0.992,-3.328 -0.976,-1.072 -2.688,-1.072 h -1.168 v 8.928 z m 11.936,1.248 v -2.56 h -4.96 v -1.184 l 4.704,-7.744 h 1.632 v 7.696 h 1.664 v 1.232 h -1.664 v 2.56 z m -3.568,-3.792 h 3.568 v -2.848 q 0,-0.592 0.016,-1.232 0.016,-0.64 0.032,-1.216 0.032,-0.576 0.048,-0.928 h -0.064 q -0.112,0.304 -0.336,0.72 -0.208,0.416 -0.368,0.688 z m 11.52001,3.952 q -0.752,0 -1.52,-0.16 -0.768,-0.16 -1.312,-0.464 v -1.36 q 0.544,0.352 1.248,0.544 0.704,0.176 1.456,0.176 1.344,0 2.096,-0.56 0.752,-0.576 0.752,-1.76 0,-1.2 -0.752,-1.808 -0.736,-0.608 -1.984,-0.608 -0.448,0 -0.96,0.08 -0.512,0.064 -0.912,0.16 l -0.704,-0.448 0.432,-5.376 h 5.696 v 1.28 h -4.464 l -0.304,3.296 q 0.336,-0.08 0.816,-0.112 0.496,-0.048 0.864,-0.048 1.04,0 1.888,0.384 0.848,0.384 1.344,1.168 0.512,0.768 0.512,1.936 0,1.68 -1.104,2.688 -1.088,0.992 -3.088,0.992 z m 6.60801,-0.16 v -11.424 h 2.768 q 1.52,0 2.64,0.64 1.12,0.64 1.728,1.888 0.624,1.232 0.624,3.072 0,2.896 -1.408,4.368 -1.392,1.456 -3.904,1.456 z m 2.304,-1.248 q 2.048,0 3.008,-1.152 0.976,-1.152 0.976,-3.376 0,-2.272 -0.992,-3.328 -0.976,-1.072 -2.688,-1.072 h -1.168 v 8.928 z"
             id="path3" /><path
             style="font-size:16px;font-family:Monospace;-inkscape-font-specification:'Monospace, Normal'"
             d="m 564.39695,428.39824 v -11.424 h 3.072 q 1.76,0 2.784,0.64 1.024,0.624 1.024,2.16 0,1.12 -0.544,1.76 -0.544,0.64 -1.504,0.8 v 0.08 q 0.656,0.112 1.184,0.4 0.544,0.288 0.864,0.832 0.32,0.544 0.32,1.44 0,1.552 -0.976,2.432 -0.976,0.88 -2.672,0.88 z m 3.2,-6.592 q 1.2,0 1.712,-0.448 0.512,-0.464 0.512,-1.392 0,-0.944 -0.56,-1.344 -0.544,-0.4 -1.904,-0.4 h -1.6 v 3.584 z m 0.096,5.344 q 1.376,0 1.904,-0.576 0.528,-0.576 0.528,-1.488 0,-0.928 -0.56,-1.472 -0.544,-0.56 -1.968,-0.56 h -1.84 v 4.096 z m 5.10401,1.248 3.712,-11.472 h 1.52 l 3.728,11.472 h -1.472 l -1.088,-3.504 h -3.856 l -1.088,3.504 z m 4,-8.192 -1.056,3.408 h 3.056 l -1.056,-3.408 q -0.08,-0.272 -0.224,-0.768 -0.144,-0.496 -0.256,-0.992 -0.096,0.496 -0.24,0.992 -0.144,0.496 -0.224,0.768 z m 6.80001,8.192 v -11.424 h 6.72 v 1.28 h -5.28 v 3.536 h 4.976 v 1.28 h -4.976 v 4.048 h 5.28 v 1.28 z m 9.6,0 v -11.424 h 6.72 v 1.28 h -5.28 v 3.536 h 4.976 v 1.28 h -4.976 v 4.048 h 5.28 v 1.28 z m 19.20001,0 v -11.424 h 6.72 v 1.28 h -5.28 v 4.032 h 4.976 v 1.28 h -4.976 v 4.832 z m 13.84001,0 v -2.56 h -4.96 v -1.184 l 4.704,-7.744 h 1.632 v 7.696 h 1.664 v 1.232 h -1.664 v 2.56 z m -3.568,-3.792 h 3.568 v -2.848 q 0,-0.592 0.016,-1.232 0.016,-0.64 0.032,-1.216 0.032,-0.576 0.048,-0.928 h -0.064 q -0.112,0.304 -0.336,0.72 -0.208,0.416 -0.368,0.688 z m 7.72801,3.792 3.712,-11.472 h 1.52 l 3.728,11.472 h -1.472 l -1.088,-3.504 h -3.856 l -1.088,3.504 z m 4,-8.192 -1.056,3.408 h 3.056 l -1.056,-3.408 q -0.08,-0.272 -0.224,-0.768 -0.144,-0.496 -0.256,-0.992 -0.096,0.496 -0.24,0.992 -0.144,0.496 -0.224,0.768 z m 9.456,8.352 q -0.688,0 -1.488,-0.144 -0.8,-0.128 -1.504,-0.48 v -1.36 q 0.704,0.352 1.52,0.544 0.816,0.176 1.568,0.176 1.392,0 2.032,-0.592 0.64,-0.592 0.64,-1.552 0,-1.088 -0.768,-1.552 -0.752,-0.464 -2.128,-0.464 h -1.184 v -1.28 h 1.184 q 1.232,0 1.888,-0.576 0.656,-0.576 0.656,-1.504 0,-0.8 -0.512,-1.248 -0.496,-0.448 -1.472,-0.448 -0.816,0 -1.504,0.288 -0.672,0.272 -1.152,0.592 l -0.72,-0.976 q 0.608,-0.48 1.488,-0.816 0.88,-0.352 1.984,-0.352 1.664,0 2.496,0.8 0.848,0.8 0.848,2.032 0,1.152 -0.656,1.856 -0.656,0.704 -1.728,0.88 v 0.048 q 2.736,0.368 2.736,2.8 0,0.96 -0.448,1.712 -0.448,0.752 -1.376,1.184 -0.928,0.432 -2.4,0.432 z m 18.49601,0 q -0.368,0 -0.752,-0.048 -0.384,-0.032 -0.656,-0.096 v -1.264 q 0.56,0.192 1.344,0.192 1.088,0 1.808,-0.352 0.72,-0.368 1.136,-0.992 0.432,-0.64 0.624,-1.456 0.208,-0.816 0.24,-1.744 h -0.096 q -0.32,0.592 -1.008,1.008 -0.672,0.4 -1.664,0.4 -1.6,0 -2.544,-0.928 -0.944,-0.944 -0.944,-2.688 0,-1.744 1.008,-2.752 1.008,-1.024 2.736,-1.024 1.184,0 2.064,0.56 0.88,0.544 1.376,1.712 0.496,1.168 0.496,3.056 0,0.864 -0.128,1.776 -0.128,0.896 -0.464,1.728 -0.32,0.832 -0.912,1.488 -0.576,0.656 -1.488,1.04 -0.896,0.384 -2.176,0.384 z m 1.12,-5.472 q 0.752,0 1.344,-0.288 0.592,-0.304 0.928,-0.832 0.352,-0.528 0.352,-1.2 0,-0.416 -0.16,-0.88 -0.144,-0.48 -0.448,-0.896 -0.304,-0.432 -0.784,-0.704 -0.48,-0.272 -1.136,-0.272 -1.072,0 -1.712,0.64 -0.64,0.64 -0.64,1.952 0,1.296 0.592,1.888 0.608,0.592 1.664,0.592 z m 6.52801,5.312 v -11.424 h 6.72 v 1.28 h -5.28 v 3.536 h 4.976 v 1.28 h -4.976 v 4.048 h 5.28 v 1.28 z m 13.00801,0.16 q -1.824,0 -2.896,-1.264 -1.072,-1.264 -1.072,-3.824 0,-1.232 0.208,-2.416 0.224,-1.184 0.8,-2.144 0.576,-0.96 1.616,-1.52 1.04,-0.576 2.688,-0.576 0.32,0 0.736,0.032 0.432,0.032 0.688,0.112 v 1.264 q -0.272,-0.096 -0.64,-0.144 -0.368,-0.048 -0.736,-0.048 -1.152,0 -1.904,0.368 -0.752,0.352 -1.184,0.976 -0.432,0.624 -0.624,1.456 -0.192,0.816 -0.224,1.744 h 0.096 q 0.32,-0.608 0.976,-1.008 0.672,-0.4 1.696,-0.4 1.6,0 2.544,0.928 0.944,0.928 0.944,2.624 0,1.792 -1.008,2.816 -0.992,1.024 -2.704,1.024 z m -0.016,-1.2 q 1.04,0 1.696,-0.608 0.656,-0.624 0.656,-2.032 0,-1.184 -0.592,-1.808 -0.576,-0.624 -1.712,-0.624 -0.768,0 -1.36,0.32 -0.576,0.32 -0.896,0.816 -0.32,0.496 -0.32,1.024 0,0.688 0.272,1.36 0.288,0.672 0.848,1.12 0.576,0.432 1.408,0.432 z m 6.208,1.04 v -11.424 h 3.072 q 1.76,0 2.784,0.64 1.024,0.624 1.024,2.16 0,1.12 -0.544,1.76 -0.544,0.64 -1.504,0.8 v 0.08 q 0.656,0.112 1.184,0.4 0.544,0.288 0.864,0.832 0.32,0.544 0.32,1.44 0,1.552 -0.976,2.432 -0.976,0.88 -2.672,0.88 z m 3.2,-6.592 q 1.2,0 1.712,-0.448 0.512,-0.464 0.512,-1.392 0,-0.944 -0.56,-1.344 -0.544,-0.4 -1.904,-0.4 h -1.6 v 3.584 z m 0.096,5.344 q 1.376,0 1.904,-0.576 0.528,-0.576 0.528,-1.488 0,-0.928 -0.56,-1.472 -0.544,-0.56 -1.968,-0.56 h -1.84 v 4.096 z m 18.56001,1.408 q -0.688,0 -1.488,-0.144 -0.8,-0.128 -1.504,-0.48 v -1.36 q 0.704,0.352 1.52,0.544 0.816,0.176 1.568,0.176 1.392,0 2.032,-0.592 0.64,-0.592 0.64,-1.552 0,-1.088 -0.768,-1.552 -0.752,-0.464 -2.128,-0.464 h -1.184 v -1.28 h 1.184 q 1.232,0 1.888,-0.576 0.656,-0.576 0.656,-1.504 0,-0.8 -0.512,-1.248 -0.496,-0.448 -1.472,-0.448 -0.816,0 -1.504,0.288 -0.672,0.272 -1.152,0.592 l -0.72,-0.976 q 0.608,-0.48 1.488,-0.816 0.88,-0.352 1.984,-0.352 1.664,0 2.496,0.8 0.848,0.8 0.848,2.032 0,1.152 -0.656,1.856 -0.656,0.704 -1.728,0.88 v 0.048 q 2.736,0.368 2.736,2.8 0,0.96 -0.448,1.712 -0.448,0.752 -1.376,1.184 -0.928,0.432 -2.4,0.432 z m 10.20801,0 q -2,0 -2.912,-1.552 -0.912,-1.568 -0.912,-4.336 0,-1.856 0.384,-3.152 0.384,-1.312 1.216,-2 0.848,-0.704 2.224,-0.704 2.016,0 2.928,1.536 0.928,1.536 0.928,4.32 0,1.84 -0.384,3.168 -0.384,1.312 -1.232,2.016 -0.848,0.704 -2.24,0.704 z m -2.48,-5.888 q 0,0.704 0.048,1.328 0.064,0.608 0.176,1.104 l 3.792,-6.416 q -0.592,-0.608 -1.536,-0.608 -1.296,0 -1.888,1.136 -0.592,1.12 -0.592,3.456 z m 2.48,4.624 q 1.312,0 1.936,-1.12 0.624,-1.136 0.624,-3.504 0,-1.664 -0.32,-2.72 l -3.888,6.56 q 0.592,0.784 1.648,0.784 z m 6.33601,1.104 v -11.424 h 3.072 q 1.76,0 2.784,0.64 1.024,0.624 1.024,2.16 0,1.12 -0.544,1.76 -0.544,0.64 -1.504,0.8 v 0.08 q 0.656,0.112 1.184,0.4 0.544,0.288 0.864,0.832 0.32,0.544 0.32,1.44 0,1.552 -0.976,2.432 -0.976,0.88 -2.672,0.88 z m 3.2,-6.592 q 1.2,0 1.712,-0.448 0.512,-0.464 0.512,-1.392 0,-0.944 -0.56,-1.344 -0.544,-0.4 -1.904,-0.4 h -1.6 v 3.584 z m 0.096,5.344 q 1.376,0 1.904,-0.576 0.528,-0.576 0.528,-1.488 0,-0.928 -0.56,-1.472 -0.544,-0.56 -1.968,-0.56 h -1.84 v 4.096 z m 9.568,1.408 q -2,0 -2.912,-1.552 -0.912,-1.568 -0.912,-4.336 0,-1.856 0.384,-3.152 0.384,-1.312 1.216,-2 0.848,-0.704 2.224,-0.704 2.016,0 2.928,1.536 0.928,1.536 0.928,4.32 0,1.84 -0.384,3.168 -0.384,1.312 -1.232,2.016 -0.848,0.704 -2.24,0.704 z m -2.48,-5.888 q 0,0.704 0.048,1.328 0.064,0.608 0.176,1.104 l 3.792,-6.416 q -0.592,-0.608 -1.536,-0.608 -1.296,0 -1.888,1.136 -0.592,1.12 -0.592,3.456 z m 2.48,4.624 q 1.312,0 1.936,-1.12 0.624,-1.136 0.624,-3.504 0,-1.664 -0.32,-2.72 l -3.888,6.56 q 0.592,0.784 1.648,0.784 z m 17.88802,1.264 q -0.368,0 -0.752,-0.048 -0.384,-0.032 -0.656,-0.096 v -1.264 q 0.56,0.192 1.344,0.192 1.088,0 1.808,-0.352 0.72,-0.368 1.136,-0.992 0.432,-0.64 0.624,-1.456 0.208,-0.816 0.24,-1.744 h -0.096 q -0.32,0.592 -1.008,1.008 -0.672,0.4 -1.664,0.4 -1.6,0 -2.544,-0.928 -0.944,-0.944 -0.944,-2.688 0,-1.744 1.008,-2.752 1.008,-1.024 2.736,-1.024 1.184,0 2.064,0.56 0.88,0.544 1.376,1.712 0.496,1.168 0.496,3.056 0,0.864 -0.128,1.776 -0.128,0.896 -0.464,1.728 -0.32,0.832 -0.912,1.488 -0.576,0.656 -1.488,1.04 -0.896,0.384 -2.176,0.384 z m 1.12,-5.472 q 0.752,0 1.344,-0.288 0.592,-0.304 0.928,-0.832 0.352,-0.528 0.352,-1.2 0,-0.416 -0.16,-0.88 -0.144,-0.48 -0.448,-0.896 -0.304,-0.432 -0.784,-0.704 -0.48,-0.272 -1.136,-0.272 -1.072,0 -1.712,0.64 -0.64,0.64 -0.64,1.952 0,1.296 0.592,1.888 0.608,0.592 1.664,0.592 z m 6.128,5.312 v -11.424 h 2.768 q 1.52,0 2.64,0.64 1.12,0.64 1.728,1.888 0.624,1.232 0.624,3.072 0,2.896 -1.408,4.368 -1.392,1.456 -3.904,1.456 z m 2.304,-1.248 q 2.048,0 3.008,-1.152 0.976,-1.152 0.976,-3.376 0,-2.272 -0.992,-3.328 -0.976,-1.072 -2.688,-1.072 h -1.168 v 8.928 z m 10.28801,1.408 q -0.752,0 -1.52,-0.16 -0.768,-0.16 -1.312,-0.464 v -1.36 q 0.544,0.352 1.248,0.544 0.704,0.176 1.456,0.176 1.344,0 2.096,-0.56 0.752,-0.576 0.752,-1.76 0,-1.2 -0.752,-1.808 -0.736,-0.608 -1.984,-0.608 -0.448,0 -0.96,0.08 -0.512,0.064 -0.912,0.16 l -0.704,-0.448 0.432,-5.376 h 5.696 v 1.28 h -4.464 l -0.304,3.296 q 0.336,-0.08 0.816,-0.112 0.496,-0.048 0.864,-0.048 1.04,0 1.888,0.384 0.848,0.384 1.344,1.168 0.512,0.768 0.512,1.936 0,1.68 -1.104,2.688 -1.088,0.992 -3.088,0.992 z m 9.6,0 q -0.752,0 -1.52,-0.16 -0.768,-0.16 -1.312,-0.464 v -1.36 q 0.544,0.352 1.248,0.544 0.704,0.176 1.456,0.176 1.344,0 2.096,-0.56 0.752,-0.576 0.752,-1.76 0,-1.2 -0.752,-1.808 -0.736,-0.608 -1.984,-0.608 -0.448,0 -0.96,0.08 -0.512,0.064 -0.912,0.16 l -0.704,-0.448 0.432,-5.376 h 5.696 v 1.28 h -4.464 l -0.304,3.296 q 0.336,-0.08 0.816,-0.112 0.496,-0.048 0.864,-0.048 1.04,0 1.888,0.384 0.848,0.384 1.344,1.168 0.512,0.768 0.512,1.936 0,1.68 -1.104,2.688 -1.088,0.992 -3.088,0.992 z m 17.21602,-0.16 v -0.96 l 2.4,-0.16 v -6.016 q 0,-0.672 0.016,-1.472 0.032,-0.816 0.048,-1.344 -0.256,0.144 -0.464,0.24 -0.208,0.096 -0.624,0.304 l -1.328,0.688 -0.624,-1.088 3.184,-1.616 h 1.168 v 10.304 l 2.416,0.16 v 0.96 z m 11.648,0.16 q -0.688,0 -1.488,-0.144 -0.8,-0.128 -1.504,-0.48 v -1.36 q 0.704,0.352 1.52,0.544 0.816,0.176 1.568,0.176 1.392,0 2.032,-0.592 0.64,-0.592 0.64,-1.552 0,-1.088 -0.768,-1.552 -0.752,-0.464 -2.128,-0.464 h -1.184 v -1.28 h 1.184 q 1.232,0 1.888,-0.576 0.656,-0.576 0.656,-1.504 0,-0.8 -0.512,-1.248 -0.496,-0.448 -1.472,-0.448 -0.816,0 -1.504,0.288 -0.672,0.272 -1.152,0.592 l -0.72,-0.976 q 0.608,-0.48 1.488,-0.816 0.88,-0.352 1.984,-0.352 1.664,0 2.496,0.8 0.848,0.8 0.848,2.032 0,1.152 -0.656,1.856 -0.656,0.704 -1.728,0.88 v 0.048 q 2.736,0.368 2.736,2.8 0,0.96 -0.448,1.712 -0.448,0.752 -1.376,1.184 -0.928,0.432 -2.4,0.432 z m 6.94401,-0.16 v -11.424 h 6.72 v 1.28 h -5.28 v 4.032 h 4.976 v 1.28 h -4.976 v 4.832 z m 11.552,0.16 q -0.368,0 -0.752,-0.048 -0.384,-0.032 -0.656,-0.096 v -1.264 q 0.56,0.192 1.344,0.192 1.088,0 1.808,-0.352 0.72,-0.368 1.136,-0.992 0.432,-0.64 0.624,-1.456 0.208,-0.816 0.24,-1.744 h -0.096 q -0.32,0.592 -1.008,1.008 -0.672,0.4 -1.664,0.4 -1.6,0 -2.544,-0.928 -0.944,-0.944 -0.944,-2.688 0,-1.744 1.008,-2.752 1.008,-1.024 2.736,-1.024 1.184,0 2.064,0.56 0.88,0.544 1.376,1.712 0.496,1.168 0.496,3.056 0,0.864 -0.128,1.776 -0.128,0.896 -0.464,1.728 -0.32,0.832 -0.912,1.488 -0.576,0.656 -1.488,1.04 -0.896,0.384 -2.176,0.384 z m 1.12,-5.472 q 0.752,0 1.344,-0.288 0.592,-0.304 0.928,-0.832 0.352,-0.528 0.352,-1.2 0,-0.416 -0.16,-0.88 -0.144,-0.48 -0.448,-0.896 -0.304,-0.432 -0.784,-0.704 -0.48,-0.272 -1.136,-0.272 -1.072,0 -1.712,0.64 -0.64,0.64 -0.64,1.952 0,1.296 0.592,1.888 0.608,0.592 1.664,0.592 z m 17.39202,5.312 4.4,-10.144 h -6.224 v -1.28 h 7.68 v 1.136 l -4.336,10.288 z m 11.536,0.16 q -1.648,0 -2.64,-0.8 -0.992,-0.816 -0.992,-2.224 0,-0.816 0.32,-1.392 0.32,-0.592 0.848,-1.008 0.528,-0.432 1.168,-0.72 -0.784,-0.464 -1.376,-1.152 -0.592,-0.704 -0.592,-1.728 0,-0.896 0.464,-1.504 0.464,-0.608 1.232,-0.912 0.768,-0.304 1.664,-0.304 0.896,0 1.648,0.304 0.752,0.304 1.2,0.912 0.464,0.608 0.464,1.504 0,1.056 -0.624,1.728 -0.608,0.656 -1.536,1.088 0.704,0.352 1.28,0.8 0.576,0.432 0.912,1.008 0.336,0.576 0.336,1.36 0,0.88 -0.464,1.568 -0.464,0.688 -1.312,1.088 -0.832,0.384 -2,0.384 z m 0.096,-6.784 q 0.8,-0.352 1.36,-0.832 0.56,-0.496 0.56,-1.328 0,-0.784 -0.528,-1.184 -0.528,-0.416 -1.424,-0.416 -0.88,0 -1.408,0.4 -0.528,0.4 -0.528,1.2 0,0.592 0.288,0.992 0.288,0.4 0.736,0.672 0.448,0.272 0.944,0.496 z m -0.048,5.616 q 1.136,0 1.728,-0.544 0.608,-0.56 0.608,-1.408 0,-0.848 -0.624,-1.36 -0.624,-0.528 -1.888,-1.12 -0.976,0.432 -1.536,1.04 -0.56,0.608 -0.56,1.52 0,0.816 0.544,1.344 0.544,0.528 1.728,0.528 z m 5.15201,1.008 3.712,-11.472 h 1.52 l 3.728,11.472 h -1.472 l -1.088,-3.504 h -3.856 l -1.088,3.504 z m 4,-8.192 -1.056,3.408 h 3.056 l -1.056,-3.408 q -0.08,-0.272 -0.224,-0.768 -0.144,-0.496 -0.256,-0.992 -0.096,0.496 -0.24,0.992 -0.144,0.496 -0.224,0.768 z m 11.12,8.352 q -1.68,0 -2.736,-0.752 -1.056,-0.752 -1.552,-2.064 -0.496,-1.328 -0.496,-3.056 0,-1.808 0.56,-3.12 0.576,-1.328 1.648,-2.032 1.088,-0.72 2.64,-0.72 0.832,0 1.552,0.176 0.736,0.176 1.344,0.496 l -0.544,1.168 q -0.496,-0.272 -1.136,-0.416 -0.624,-0.144 -1.216,-0.144 -1.632,0 -2.512,1.184 -0.864,1.184 -0.864,3.408 0,2.128 0.784,3.344 0.784,1.2 2.56,1.2 0.544,0 1.168,-0.112 0.64,-0.128 1.264,-0.384 v 1.36 q -0.64,0.24 -1.232,0.352 -0.576,0.112 -1.232,0.112 z m 19.20002,0 q -1.68,0 -2.736,-0.752 -1.056,-0.752 -1.552,-2.064 -0.496,-1.328 -0.496,-3.056 0,-1.808 0.56,-3.12 0.576,-1.328 1.648,-2.032 1.088,-0.72 2.64,-0.72 0.832,0 1.552,0.176 0.736,0.176 1.344,0.496 l -0.544,1.168 q -0.496,-0.272 -1.136,-0.416 -0.624,-0.144 -1.216,-0.144 -1.632,0 -2.512,1.184 -0.864,1.184 -0.864,3.408 0,2.128 0.784,3.344 0.784,1.2 2.56,1.2 0.544,0 1.168,-0.112 0.64,-0.128 1.264,-0.384 v 1.36 q -0.64,0.24 -1.232,0.352 -0.576,0.112 -1.232,0.112 z m 4.08,-0.16 3.712,-11.472 h 1.52 l 3.728,11.472 h -1.472 l -1.088,-3.504 h -3.856 l -1.088,3.504 z m 4,-8.192 -1.056,3.408 h 3.056 l -1.056,-3.408 q -0.08,-0.272 -0.224,-0.768 -0.144,-0.496 -0.256,-0.992 -0.096,0.496 -0.24,0.992 -0.144,0.496 -0.224,0.768 z m 8.75201,8.352 q -0.368,0 -0.752,-0.048 -0.384,-0.032 -0.656,-0.096 v -1.264 q 0.56,0.192 1.344,0.192 1.088,0 1.808,-0.352 0.72,-0.368 1.136,-0.992 0.432,-0.64 0.624,-1.456 0.208,-0.816 0.24,-1.744 h -0.096 q -0.32,0.592 -1.008,1.008 -0.672,0.4 -1.664,0.4 -1.6,0 -2.544,-0.928 -0.944,-0.944 -0.944,-2.688 0,-1.744 1.008,-2.752 1.008,-1.024 2.736,-1.024 1.184,0 2.064,0.56 0.88,0.544 1.376,1.712 0.496,1.168 0.496,3.056 0,0.864 -0.128,1.776 -0.128,0.896 -0.464,1.728 -0.32,0.832 -0.912,1.488 -0.576,0.656 -1.488,1.04 -0.896,0.384 -2.176,0.384 z m 1.12,-5.472 q 0.752,0 1.344,-0.288 0.592,-0.304 0.928,-0.832 0.352,-0.528 0.352,-1.2 0,-0.416 -0.16,-0.88 -0.144,-0.48 -0.448,-0.896 -0.304,-0.432 -0.784,-0.704 -0.48,-0.272 -1.136,-0.272 -1.072,0 -1.712,0.64 -0.64,0.64 -0.64,1.952 0,1.296 0.592,1.888 0.608,0.592 1.664,0.592 z m 10.76801,5.312 v -2.56 h -4.96 v -1.184 l 4.704,-7.744 h 1.632 v 7.696 h 1.664 v 1.232 h -1.664 v 2.56 z m -3.568,-3.792 h 3.568 v -2.848 q 0,-0.592 0.016,-1.232 0.016,-0.64 0.032,-1.216 0.032,-0.576 0.048,-0.928 h -0.064 q -0.112,0.304 -0.336,0.72 -0.208,0.416 -0.368,0.688 z"
             id="path4" /></g><path
           style="font-weight:500;font-size:18.6667px;font-family:Montserrat;-inkscape-font-specification:'Montserrat Medium';font-variation-settings:'wght' 500;fill:#3e4349;stroke-linecap:round;stroke-linejoin:round;paint-order:markers fill stroke"
           d="m 742.51432,476.66418 v -13.06669 h 9.22135 v 1.62401 h -7.35468 v 4.55467 h 6.55202 v 1.60534 h -6.55202 v 5.28267 z m 11.59203,0 v -9.89335 h 1.792 v 9.89335 z m 0.896,-11.79735 q -0.52267,0 -0.87733,-0.336 -0.336,-0.336 -0.336,-0.82134 0,-0.48533 0.336,-0.82133 0.35466,-0.35467 0.87733,-0.35467 0.52267,0 0.85867,0.336 0.35467,0.31734 0.35467,0.80267 0,0.504 -0.35467,0.85867 -0.336,0.336 -0.85867,0.336 z m 4.312,11.79735 v -9.89335 h 1.71733 v 1.49334 q 0.56,-0.76534 1.47467,-1.176 0.91467,-0.41067 2.09067,-0.41067 1.19467,0 2.12801,0.46667 0.93333,0.46666 1.456,1.41867 0.52267,0.952 0.52267,2.408 v 5.69334 h -1.79201 v -5.48801 q 0,-1.456 -0.70933,-2.16533 -0.69067,-0.728 -1.96,-0.728 -1.41867,0 -2.27734,0.84 -0.85867,0.84 -0.85867,2.44534 v 5.096 z m 17.04269,3.73334 q -1.36267,0 -2.65067,-0.37333 -1.26934,-0.37333 -2.07201,-1.10133 l 0.85867,-1.38134 q 0.69067,0.59733 1.69867,0.93333 1.008,0.35467 2.10934,0.35467 1.75467,0 2.576,-0.82133 0.82134,-0.82134 0.82134,-2.50134 v -0.784 q -0.63467,0.76533 -1.568,1.15733 -0.91467,0.37334 -1.99734,0.37334 -1.41867,0 -2.55734,-0.59734 -1.13867,-0.616 -1.81067,-1.69867 -0.65333,-1.08267 -0.65333,-2.50133 0,-1.43734 0.65333,-2.50134 0.672,-1.08267 1.81067,-1.68001 1.13867,-0.59733 2.55734,-0.59733 1.10133,0 2.05334,0.41067 0.952,0.392 1.60533,1.19467 v -1.51201 h 1.69867 v 8.54935 q 0,2.61334 -1.30667,3.84534 -1.30667,1.232 -3.82667,1.232 z m -0.0187,-5.71201 q 0.98934,0 1.75467,-0.41066 0.76534,-0.41067 1.19467,-1.13867 0.448,-0.728 0.448,-1.68 0,-0.95201 -0.448,-1.68001 -0.42933,-0.728 -1.19467,-1.12 -0.76533,-0.41067 -1.75467,-0.41067 -1.008,0 -1.77333,0.41067 -0.76534,0.392 -1.21334,1.12 -0.42933,0.728 -0.42933,1.68001 0,0.952 0.42933,1.68 0.448,0.728 1.21334,1.13867 0.76533,0.41066 1.77333,0.41066 z m 12.97337,2.09067 q -1.58667,0 -2.8,-0.65333 -1.19467,-0.65333 -1.86667,-1.792 -0.65334,-1.13867 -0.65334,-2.61334 0,-1.47467 0.63467,-2.61334 0.65333,-1.13867 1.77334,-1.77334 1.13866,-0.65333 2.55733,-0.65333 1.43734,0 2.53867,0.63467 1.10134,0.63467 1.71734,1.792 0.63467,1.13867 0.63467,2.66934 0,0.112 -0.0187,0.26133 0,0.14934 -0.0187,0.28 h -8.02669 q 0.168,1.30667 1.13867,2.10934 0.97067,0.784 2.44534,0.784 1.792,0 2.85601,-1.19467 l 0.98933,1.15734 q -0.672,0.784 -1.68,1.19467 -0.98934,0.41066 -2.22134,0.41066 z m -3.52801,-5.74934 h 6.34668 q -0.13066,-1.25067 -1.008,-2.03467 -0.85867,-0.80267 -2.16534,-0.80267 -1.288,0 -2.16533,0.784 -0.85867,0.78401 -1.00801,2.05334 z m 10.54668,5.63734 v -9.89335 h 1.71734 v 1.64267 q 0.98933,-1.736 3.60267,-1.736 v 1.736 q -0.112,0 -0.224,0 -0.0933,-0.0187 -0.18667,-0.0187 -1.43733,0 -2.27733,0.85866 -0.84001,0.85867 -0.84001,2.48268 v 4.928 z m 12.76802,0.112 q -1.04533,0 -1.94134,-0.392 -0.896,-0.41066 -1.512,-1.19466 v 5.096 h -1.792 v -13.51469 h 1.71734 v 1.54934 q 0.616,-0.82134 1.53066,-1.232 0.91467,-0.41067 1.99734,-0.41067 1.43734,0 2.55734,0.63467 1.13867,0.616 1.792,1.75467 0.65334,1.13867 0.65334,2.65067 0,1.512 -0.65334,2.65067 -0.65333,1.13867 -1.792,1.77334 -1.12,0.63466 -2.55734,0.63466 z m -0.14933,-1.568 q 0.952,0 1.69867,-0.42933 0.76533,-0.448 1.19467,-1.21334 0.448,-0.784 0.448,-1.848 0,-1.04534 -0.448,-1.82934 -0.42934,-0.784 -1.19467,-1.21333 -0.74667,-0.42934 -1.69867,-0.42934 -0.93334,0 -1.69867,0.42934 -0.74667,0.42933 -1.19467,1.21333 -0.42933,0.784 -0.42933,1.82934 0,1.064 0.42933,1.848 0.448,0.76534 1.19467,1.21334 0.76533,0.42933 1.69867,0.42933 z m 7.63466,1.456 v -9.89335 h 1.71734 v 1.64267 q 0.98933,-1.736 3.60267,-1.736 v 1.736 q -0.112,0 -0.224,0 -0.0933,-0.0187 -0.18666,-0.0187 -1.43734,0 -2.27734,0.85866 -0.84,0.85867 -0.84,2.48268 v 4.928 z m 7.52268,0 v -9.89335 h 1.792 v 9.89335 z m 0.896,-11.79735 q -0.52267,0 -0.87734,-0.336 -0.336,-0.336 -0.336,-0.82134 0,-0.48533 0.336,-0.82133 0.35467,-0.35467 0.87734,-0.35467 0.52267,0 0.85867,0.336 0.35467,0.31734 0.35467,0.80267 0,0.504 -0.35467,0.85867 -0.336,0.336 -0.85867,0.336 z m 4.312,11.79735 v -9.89335 h 1.71733 v 1.49334 q 0.56001,-0.76534 1.47467,-1.176 0.91467,-0.41067 2.09067,-0.41067 1.19467,0 2.12801,0.46667 0.93333,0.46666 1.456,1.41867 0.52267,0.952 0.52267,2.408 v 5.69334 h -1.792 v -5.48801 q 0,-1.456 -0.70934,-2.16533 -0.69067,-0.728 -1.96,-0.728 -1.41867,0 -2.27734,0.84 -0.85867,0.84 -0.85867,2.44534 v 5.096 z m 16.10936,0.112 q -1.49334,0 -2.31467,-0.80266 -0.82134,-0.80267 -0.82134,-2.29601 v -5.43201 h -1.68 v -1.47467 h 1.68 v -2.16533 h 1.79201 v 2.16533 h 2.83733 v 1.47467 h -2.83733 v 5.35735 q 0,1.66133 1.54933,1.66133 0.84,0 1.4,-0.46667 l 0.56001,1.28801 q -0.41067,0.336 -0.98934,0.52266 -0.56,0.168 -1.176,0.168 z"
           id="text11-2-8-02-9"
           transform="scale(0.98944431,1.0106683)"
           aria-label="Fingerprint" /><path
           style="opacity:1;fill:none;fill-opacity:1;stroke:#baa600;stroke-width:1.4;stroke-linecap:butt;stroke-linejoin:miter;stroke-dasharray:2.8, 2.8;stroke-dashoffset:0;stroke-opacity:1;marker-start:url(#Square);paint-order:fill markers stroke"
           d="m 853.59098,505.62944 -78.85694,0.0298 -0.27607,-16.40163"
           id="path252" /></g></g></g></svg>
