<?xml version="1.0" encoding="UTF-8" standalone="no"?>
<svg
   viewBox="0 0 658.42688 323.06079"
   version="1.1"
   id="svg1"
   width="658.42688"
   height="323.06079"
   xml:space="preserve"
   xmlns="http://www.w3.org/2000/svg"
   xmlns:svg="http://www.w3.org/2000/svg"><defs
     id="defs1"><linearGradient
       id="swatch251"><stop
         style="stop-color:#195962;stop-opacity:1;"
         offset="0"
         id="stop251" /></linearGradient><filter
       style="color-interpolation-filters:sRGB"
       id="filter90-2-0-5-0"
       x="-0.019782829"
       y="-0.027737869"
       width="1.042778"
       height="1.0631807"><feFlood
         result="flood"
         in="SourceGraphic"
         flood-opacity="0.796078"
         flood-color="rgb(62,67,73)"
         id="feFlood89-3-6-2-4" /><feGaussianBlur
         result="blur"
         in="SourceGraphic"
         stdDeviation="2.132 0"
         id="feGaussianBlur89-7-8-5-0" /><feOffset
         result="offset"
         in="blur"
         dx="1.000000"
         dy="1.000000"
         id="feOffset89-5-9-4-8" /><feComposite
         result="comp1"
         operator="in"
         in="flood"
         in2="offset"
         id="feComposite89-9-2-7-5" /><feComposite
         result="fbSourceGraphic"
         operator="over"
         in="SourceGraphic"
         in2="comp1"
         id="feComposite90-2-6-4-1" /><feColorMatrix
         result="fbSourceGraphicAlpha"
         in="fbSourceGraphic"
         values="0 0 0 -1 0 0 0 0 -1 0 0 0 0 -1 0 0 0 0 1 0"
         id="feColorMatrix90-2-6-4-6" /><feFlood
         id="feFlood90-8-4-3-6"
         result="flood"
         in="fbSourceGraphic"
         flood-opacity="0.796078"
         flood-color="rgb(62,67,73)" /><feGaussianBlur
         id="feGaussianBlur90-9-9-0-2"
         result="blur"
         in="fbSourceGraphic"
         stdDeviation="3.000000" /><feOffset
         id="feOffset90-7-5-7-1"
         result="offset"
         in="blur"
         dx="1.000000"
         dy="1.000000" /><feComposite
         id="feComposite91-3-0-8-9"
         result="comp1"
         operator="in"
         in="flood"
         in2="offset" /><feComposite
         id="feComposite92-6-4-6-6"
         result="comp2"
         operator="over"
         in="fbSourceGraphic"
         in2="comp1" /></filter></defs><!--! Font Awesome Pro 6.4.2 by @fontawesome - https://fontawesome.com License - https://fontawesome.com/license (Commercial License) Copyright 2023 Fonticons, Inc. --><g
     id="layer18"
     style="display:inline"
     transform="translate(-2438.4,1395.0202)"><g
       id="layer32"
       style="display:inline"><rect
         style="display:inline;fill:#ffffff;fill-opacity:1;stroke:none;stroke-width:0.478;stroke-linecap:round;stroke-dasharray:none;stroke-opacity:1;paint-order:fill markers stroke;filter:url(#filter90-2-0-5-0)"
         id="rect99"
         width="622.60052"
         height="259.57294"
         x="2459.1152"
         y="-1351.6664"
         rx="30.798866"
         ry="24.603634"
         transform="matrix(0.88680169,0,0,0.93912168,310.30933,-83.327534)" /><g
         id="g11-8-3-1-1-3"
         transform="matrix(0.81520336,0,0,0.81520336,1774.5633,-1506.5959)"
         style="display:inline;fill:#61a78d;fill-opacity:1"><rect
           style="font-variation-settings:'wght' 700;fill:#195962;stroke-width:2.61827;stroke-linecap:round;stroke-linejoin:round;paint-order:markers fill stroke"
           id="rect1-9-8-2-5-1"
           width="357.45355"
           height="59.990269"
           x="920.04065"
           y="155.65892" /><g
           id="g4-7-0-4-5-9"
           transform="matrix(1.018001,0,0,1,-27.722608,39.927363)"><rect
             style="font-variation-settings:'wght' 700;fill:#e6e6e6;fill-opacity:1;stroke-width:2.55521;stroke-linecap:round;stroke-linejoin:round;paint-order:markers fill stroke"
             id="rect1-3-7-5-7-4-4"
             width="352.81458"
             height="57.886284"
             x="920.89868"
             y="126.45267" /></g><path
           d="m 955.36477,148.34852 c 0,6.20867 3.83148,10.68339 9.81642,10.68339 6.12477,0 9.81642,-4.69845 9.81642,-10.54356 0,-6.48834 -3.94335,-10.82322 -9.84439,-10.82322 -5.929,0 -9.78845,4.47472 -9.78845,10.68339 z m 9.81642,-7.10362 c 3.43994,0 5.62137,2.7967 5.62137,7.21549 0,4.16708 -2.26533,6.99175 -5.62137,6.99175 -3.38401,0 -5.62137,-2.82467 -5.62137,-7.10362 0,-4.27895 2.23736,-7.10362 5.62137,-7.10362 z m 20.86337,1.78989 c -1.90176,0 -3.24417,0.81104 -4.19505,2.48906 v -2.23736 h -3.91538 v 21.19899 h 3.91538 v -7.8867 c 0.95088,1.67802 2.29329,2.4611 4.19505,2.4611 3.63571,0 6.32054,-3.41197 6.32054,-7.99856 0,-4.44675 -2.40516,-8.02653 -6.32054,-8.02653 z m -0.89494,3.27214 c 1.98565,0 3.3001,1.92972 3.3001,4.81032 0,2.74077 -1.37038,4.67049 -3.3001,4.67049 -1.95769,0 -3.30011,-1.90175 -3.30011,-4.72642 0,-2.82467 1.34242,-4.75439 3.30011,-4.75439 z m 16.44458,-3.27214 c -4.33487,0 -6.99173,3.1323 -6.99173,8.19433 0,4.83829 2.6289,7.80279 6.90783,7.80279 3.384,0 6.1248,-1.92972 6.9918,-4.89422 h -3.8595 c -0.4754,1.20258 -1.5661,1.90175 -2.9924,1.90175 -2.62895,0 -3.04845,-1.92972 -3.13235,-3.97131 h 10.12405 c 0.028,-0.3356 0.028,-0.47544 0.028,-0.67121 0,-6.68411 -4.0552,-8.36213 -7.0757,-8.36213 z m 2.9925,6.43241 h -6.01292 c 0.2517,-2.29329 1.23055,-3.43994 2.96452,-3.43994 1.8178,0 2.8806,1.23055 3.0484,3.43994 z m 7.0197,-6.18071 v 15.10218 h 3.9154 v -9.06131 c 0,-1.78988 1.2585,-2.9645 3.1603,-2.9645 1.678,0 2.517,0.92291 2.517,2.7128 v 9.31301 h 3.9154 v -10.12405 c 0,-3.32807 -1.8459,-5.22983 -5.0621,-5.22983 -2.0415,0 -3.4119,0.75511 -4.5306,2.43313 v -2.18143 z m 21.7584,7.83076 h 5.2298 c 3.7476,0 6.1527,-2.65686 6.1527,-6.79598 0,-4.08318 -2.3212,-6.32054 -6.5722,-6.32054 h -9.0054 v 20.38794 h 4.1951 z m 0,-3.49587 v -6.12478 h 3.9153 c 2.2374,0 3.2722,0.97885 3.2722,3.07637 0,2.06956 -1.0348,3.04841 -3.2722,3.04841 z m 28.3865,-3.16027 h 3.9433 c -0.5034,-4.19505 -3.9154,-6.85192 -8.8376,-6.85192 -5.873,0 -9.8723,4.33489 -9.8723,10.6834 0,6.1807 4.0272,10.68339 9.5367,10.68339 2.7408,0 4.5866,-0.97885 6.1528,-3.27214 l 0.5034,2.68483 h 2.517 v -11.019 h -8.1663 v 3.49588 h 4.6425 c -0.3636,3.85944 -4.1391,4.53065 -5.1739,4.53065 -3.384,0 -5.8172,-2.9645 -5.8172,-7.15955 0,-4.39082 2.1535,-7.04768 5.7053,-7.04768 2.9086,0 4.279,1.53818 4.8663,3.27214 z m 12.0537,6.65614 h 5.2298 c 3.7476,0 6.1528,-2.65686 6.1528,-6.79598 0,-4.08318 -2.3213,-6.32054 -6.5723,-6.32054 h -9.0053 v 20.38794 h 4.195 z m 0,-3.49587 v -6.12478 h 3.9154 c 2.2374,0 3.2721,0.97885 3.2721,3.07637 0,2.06956 -1.0347,3.04841 -3.2721,3.04841 z m 24.9466,6.37647 h -3.8315 c 0.1119,3.30011 2.545,5.03406 7.1316,5.03406 5.2857,0 6.6002,-3.02043 6.6002,-5.11796 0,-1.95769 -0.9789,-3.2162 -2.9645,-3.80351 l -4.9502,-1.42632 c -1.0907,-0.3356 -1.3704,-0.55934 -1.3704,-1.17461 0,-0.83901 0.895,-1.39835 2.2654,-1.39835 1.8738,0 2.7967,0.67121 2.8246,2.04159 h 3.7756 c -0.056,-3.18824 -2.517,-5.11796 -6.5723,-5.11796 -3.8314,0 -6.2086,1.92972 -6.2086,5.03406 0,2.9645 2.4331,3.43994 3.3001,3.71961 l 4.6705,1.45428 c 0.9788,0.30764 1.3144,0.61528 1.3144,1.23055 0,0.92291 -1.0907,1.48225 -2.9086,1.48225 -2.4611,0 -2.8526,-0.92291 -3.0763,-1.95769 z m 16.7522,-10.71136 h -3.9154 v 15.10218 h 3.9154 z m 0,-5.28576 h -3.9154 v 3.49587 h 3.9154 z m 13.5361,5.28576 v 2.32126 c -1.1747,-1.78988 -2.4611,-2.57296 -4.1951,-2.57296 -3.5798,0 -6.2646,3.49587 -6.2646,8.16636 0,4.69846 2.4611,7.83076 6.1807,7.83076 1.7619,0 2.8247,-0.53137 4.279,-2.18142 v 2.04159 c 0,1.81785 -1.3704,3.07637 -3.3281,3.07637 -1.4823,0 -2.4611,-0.61528 -2.7688,-1.76192 h -4.0552 c 0.056,2.62889 2.6849,4.27895 6.6841,4.27895 4.5587,0 7.1876,-2.04159 7.1876,-5.5934 v -15.60559 z m -3.3561,3.02044 c 1.9577,0 3.412,2.04159 3.412,4.83829 0,2.74077 -1.4263,4.61455 -3.4679,4.61455 -1.8458,0 -3.1323,-1.87378 -3.1323,-4.61455 0,-2.85263 1.2865,-4.83829 3.1882,-4.83829 z m 10.7114,-3.02044 v 15.10218 h 3.9153 v -9.06131 c 0,-1.78988 1.2586,-2.9645 3.1603,-2.9645 1.678,0 2.517,0.92291 2.517,2.7128 v 9.31301 h 3.9154 v -10.12405 c 0,-3.32807 -1.8458,-5.22983 -5.062,-5.22983 -2.0416,0 -3.412,0.75511 -4.5307,2.43313 v -2.18143 z m 21.0312,15.74542 c 1.678,0 3.2162,-0.72714 4.5866,-2.15346 0,0.78308 0.084,1.06275 0.4474,1.51022 h 4.251 v -0.47544 c -0.6992,-0.64324 -0.8949,-1.06274 -0.8949,-1.84582 v -8.3901 c 0,-3.07637 -2.0976,-4.64252 -6.1807,-4.64252 -4.0832,0 -6.2087,1.73395 -6.4604,5.22983 h 3.7755 c 0.1958,-1.56615 0.839,-2.06956 2.7688,-2.06956 1.5102,0 2.2653,0.50341 2.2653,1.51022 0,1.48225 -1.8458,1.56615 -3.1323,1.76192 l -1.5662,0.27967 c -2.9924,0.50341 -4.4467,2.04159 -4.4467,4.75439 0,2.7128 1.8458,4.53065 4.5866,4.53065 z m 4.5586,-6.71208 c 0,2.26533 -1.1187,3.55181 -3.1043,3.55181 -1.3145,0 -2.1255,-0.69917 -2.1255,-1.81785 0,-1.17462 0.6152,-1.73396 2.2373,-2.06956 l 1.3424,-0.2517 c 1.0348,-0.19577 1.2026,-0.25171 1.6501,-0.47544 z m 14.1793,-8.7257 h -2.1815 v -4.05522 h -3.9154 v 4.05522 h -1.9297 v 2.60093 h 1.9297 v 9.28504 c 0,2.3772 1.2586,3.55181 3.8315,3.55181 0.867,0 1.5662,-0.0839 2.2654,-0.30763 v -2.74077 c -0.3916,0.0559 -0.6153,0.0839 -0.895,0.0839 -1.0348,0 -1.2865,-0.30764 -1.2865,-1.65005 v -8.2223 h 2.1815 z m 16.1649,14.79454 v -15.10218 h -3.9154 v 9.45285 c 0,1.78989 -1.2585,2.9645 -3.1603,2.9645 -1.678,0 -2.517,-0.89494 -2.517,-2.7128 v -9.70455 h -3.9154 v 10.51559 c 0,3.32808 1.8458,5.22983 5.062,5.22983 2.0416,0 3.412,-0.75511 4.5307,-2.43313 v 1.78989 z m 3.6357,-15.10218 v 15.10218 h 3.9154 v -8.02653 c 0,-2.29329 1.1466,-3.43994 3.4399,-3.43994 0.4195,0 0.6992,0.028 1.2306,0.11187 v -3.97131 c -0.2238,-0.028 -0.3636,-0.028 -0.4755,-0.028 -1.7899,0 -3.356,1.17461 -4.195,3.2162 v -2.9645 z m 17.2556,-0.2517 c -4.3348,0 -6.9917,3.1323 -6.9917,8.19433 0,4.83829 2.6289,7.80279 6.9078,7.80279 3.384,0 6.1248,-1.92972 6.9918,-4.89422 h -3.8595 c -0.4754,1.20258 -1.5661,1.90175 -2.9924,1.90175 -2.6289,0 -3.0484,-1.92972 -3.1323,-3.97131 h 10.124 c 0.028,-0.3356 0.028,-0.47544 0.028,-0.67121 0,-6.68411 -4.0552,-8.36213 -7.0757,-8.36213 z m 2.9925,6.43241 h -6.0129 c 0.2517,-2.29329 1.2305,-3.43994 2.9645,-3.43994 1.8179,0 2.8806,1.23055 3.0484,3.43994 z m 22.905,-6.43241 c -1.9018,0 -3.2442,0.81104 -4.1951,2.48906 v -2.23736 h -3.9153 v 21.19899 h 3.9153 v -7.8867 c 0.9509,1.67802 2.2933,2.4611 4.1951,2.4611 3.6357,0 6.3205,-3.41197 6.3205,-7.99856 0,-4.44675 -2.4051,-8.02653 -6.3205,-8.02653 z m -0.895,3.27214 c 1.9857,0 3.3001,1.92972 3.3001,4.81032 0,2.74077 -1.3703,4.67049 -3.3001,4.67049 -1.9577,0 -3.3001,-1.90175 -3.3001,-4.72642 0,-2.82467 1.3424,-4.75439 3.3001,-4.75439 z m 14.0395,12.72498 c 1.678,0 3.2162,-0.72714 4.5866,-2.15346 0,0.78308 0.084,1.06275 0.4474,1.51022 h 4.251 v -0.47544 c -0.6991,-0.64324 -0.8949,-1.06274 -0.8949,-1.84582 v -8.3901 c 0,-3.07637 -2.0975,-4.64252 -6.1807,-4.64252 -4.0832,0 -6.2087,1.73395 -6.4604,5.22983 h 3.7755 c 0.1958,-1.56615 0.8391,-2.06956 2.7688,-2.06956 1.5102,0 2.2653,0.50341 2.2653,1.51022 0,1.48225 -1.8458,1.56615 -3.1323,1.76192 l -1.5661,0.27967 c -2.9925,0.50341 -4.4468,2.04159 -4.4468,4.75439 0,2.7128 1.8458,4.53065 4.5866,4.53065 z m 4.5586,-6.71208 c 0,2.26533 -1.1187,3.55181 -3.1043,3.55181 -1.3145,0 -2.1255,-0.69917 -2.1255,-1.81785 0,-1.17462 0.6153,-1.73396 2.2373,-2.06956 l 1.3425,-0.2517 c 1.0347,-0.19577 1.2025,-0.25171 1.65,-0.47544 z m 13.7877,-6.12477 c 1.5942,0 2.3493,0.75511 2.7967,2.74077 h 3.7476 c -0.2797,-3.69165 -2.7408,-5.90104 -6.5163,-5.90104 -4.5027,0 -7.1316,2.9645 -7.1316,8.11043 0,4.97812 2.6009,7.88669 7.0757,7.88669 3.6636,0 6.2086,-2.26532 6.5722,-5.87307 h -3.7476 c -0.5034,1.95769 -1.2864,2.7128 -2.7967,2.7128 -1.9856,0 -3.1882,-1.78989 -3.1882,-4.72642 0,-2.09753 0.4754,-4.95016 3.1882,-4.95016 z m 13.1166,2.9645 v -11.15883 h -3.9154 v 20.38794 h 3.9154 v -4.95016 l 1.5661,-1.70598 3.6078,6.65614 h 4.5865 l -5.5095,-9.39691 5.146,-5.70527 h -4.4468 z m 18.1505,-6.12477 c -4.3349,0 -6.9917,3.1323 -6.9917,8.19433 0,4.83829 2.6289,7.80279 6.9078,7.80279 3.384,0 6.1248,-1.92972 6.9918,-4.89422 h -3.8595 c -0.4754,1.20258 -1.5661,1.90175 -2.9924,1.90175 -2.6289,0 -3.0484,-1.92972 -3.1323,-3.97131 h 10.124 c 0.028,-0.3356 0.028,-0.47544 0.028,-0.67121 0,-6.68411 -4.0552,-8.36213 -7.0757,-8.36213 z m 2.9925,6.43241 h -6.0129 c 0.2517,-2.29329 1.2305,-3.43994 2.9645,-3.43994 1.8179,0 2.8806,1.23055 3.0484,3.43994 z m 13.8157,-5.87307 h -2.1814 v -4.05522 h -3.9154 v 4.05522 h -1.9297 v 2.60093 h 1.9297 v 9.28504 c 0,2.3772 1.2585,3.55181 3.8315,3.55181 0.8669,0 1.5661,-0.0839 2.2653,-0.30763 v -2.74077 c -0.3916,0.0559 -0.6153,0.0839 -0.895,0.0839 -1.0347,0 -1.2864,-0.30764 -1.2864,-1.65005 v -8.2223 h 2.1814 z"
           id="text1-6-6-8-06-5"
           style="font-weight:600;font-size:27.967px;font-family:Montserrat;-inkscape-font-specification:'Montserrat, Semi-Bold';white-space:pre;inline-size:438.074;fill:#3e4349;stroke-width:3.5;stroke-linecap:round;stroke-linejoin:round;paint-order:markers fill stroke"
           transform="matrix(0.85813569,0,0,0.85813569,101.95642,67.179281)"
           aria-label="OpenPGP signature packet&#10;" /></g><g
         id="g5-7-9"
         transform="matrix(0.75811721,0,0,0.62777915,2261.2825,-1727.103)"
         style="display:inline;fill:#61a78d;fill-opacity:1;stroke-width:1.7;stroke-dasharray:none"><path
           id="rect2-5-2-7"
           style="display:inline;fill:#ede8c0;fill-opacity:0.6;stroke:none;stroke-width:1.475;stroke-linecap:square;stroke-miterlimit:0;stroke-dasharray:2.95, 2.95;stroke-dashoffset:0;stroke-opacity:1;paint-order:fill markers stroke"
           d="m 829.6162,807.10742 h 176.8247 a 13.134939,13.134939 45 0 1 13.1349,13.13494 v 81.2156 a 13.134939,13.134939 135 0 1 -13.1349,13.13494 H 829.6162 a 30.342731,30.342731 23.407104 0 1 -22.12405,-9.57719 l -32.4645,-34.58836 a 13.994242,13.994242 90 0 1 0,-19.15438 l 32.4645,-34.58836 a 30.342731,30.342731 156.5929 0 1 22.12405,-9.57719 z"
           transform="matrix(1.0913493,0,0,1.1390201,-312.00721,-105.97179)" /><path
           id="rect2-5-2-5-5"
           style="display:inline;fill:none;fill-opacity:0.6;stroke:#c7b730;stroke-width:1.94683;stroke-linecap:round;stroke-miterlimit:0;stroke-dasharray:none;stroke-dashoffset:0;stroke-opacity:1;paint-order:fill markers stroke"
           d="m 769.77761,813.33976 h 16.59134 c 7.91687,0 14.33476,6.69825 14.33476,14.96096 v 92.5062 c 0,8.26272 -6.41789,14.96097 -14.33476,14.96097 h -192.9775 c -9.14644,0 -17.88556,-3.94829 -24.14507,-10.90862 l -35.4301,-39.39683 c -5.51568,-6.13323 -5.51568,-15.684 0,-21.81723 l 35.4301,-39.39683 c 3.02037,-3.35852 6.61807,-6.01576 10.56026,-7.86652" /><path
           d="m 879.95556,568.90092 h -3.21332 v 0.96 h 3.21332 z m 5.57332,2.08 h -1.17333 c 0.0533,1.61333 0.96,2.38666 2.78666,2.38666 1.76,0 2.88,-0.86667 2.88,-2.21333 0,-1.04 -0.58667,-1.61333 -1.97333,-1.94666 l -1.06667,-0.25333 c -0.90666,-0.21334 -1.29333,-0.50667 -1.29333,-1 0,-0.64 0.57334,-1.05333 1.48,-1.05333 0.89333,0 1.37333,0.38666 1.4,1.12 h 1.17333 c -0.0133,-1.37333 -0.92,-2.14667 -2.53333,-2.14667 -1.62666,0 -2.67999,0.84 -2.67999,2.13333 0,1.09333 0.56,1.61333 2.21332,2.01333 l 1.04,0.25333 c 0.77333,0.18667 1.08,0.46667 1.08,0.97333 0,0.65334 -0.65333,1.09333 -1.62666,1.09333 -1.36,0 -1.61333,-0.67999 -1.70667,-1.35999 z m 6.94665,-4.90666 h -1.10666 v 6.98665 h 1.10666 z m 0,-2.73332 h -1.11999 v 1.39999 h 1.11999 z m 4.24,10.02664 c 0.87999,0 1.49332,-0.37333 2.11999,-1.25333 v 0.36 c 0,1.59999 -0.37333,2.55999 -1.94666,2.55999 -0.34667,0 -1.50666,-0.04 -1.69333,-1.17333 h -1.13333 c 0.12,1.32 1.14666,2.10666 2.78666,2.10666 2.65332,0 3.11999,-1.62666 3.11999,-4.05332 v -5.83999 h -1.16 l 0.13334,1.01333 c -0.56,-0.82666 -1.24,-1.21333 -2.13333,-1.21333 -1.77333,0 -2.97333,1.54667 -2.97333,3.81333 0,2.27999 1.29333,3.67999 2.88,3.67999 z m 0.21333,-6.46665 c 1.19999,0 1.90666,1.01333 1.90666,2.75999 0,1.66666 -0.72,2.67999 -1.89333,2.67999 -1.21333,0 -1.94666,-1.02666 -1.94666,-2.71999 0,-1.67999 0.74666,-2.71999 1.93333,-2.71999 z m 4.63997,-0.82667 v 6.98665 h 1.12 v -3.85332 c 0,-1.42666 0.74667,-2.35999 1.89333,-2.35999 0.88,0 1.44,0.53333 1.44,1.37333 v 4.83998 h 1.10666 v -5.27998 c 0,-1.16 -0.86666,-1.90667 -2.21333,-1.90667 -1.03999,0 -1.70666,0.4 -2.31999,1.37333 v -1.17333 z m 7.06666,2.06667 h 1.12 c 0.0933,-0.85334 0.6,-1.24 1.64,-1.24 0.99999,0 1.55999,0.37333 1.55999,1.04 v 0.29333 c 0,0.46666 -0.28,0.66666 -1.15999,0.77333 -2.04,0.26667 -3.46666,0.42667 -3.46666,2.29333 0,1.26666 0.88,2.06666 2.29333,2.06666 0.87999,0 1.58666,-0.30667 2.37332,-1.02667 0.08,0.70667 0.42667,1.02667 1.14667,1.02667 0.22666,0 0.4,-0.0267 0.75999,-0.12 v -0.84 c -0.11999,0.0267 -0.17333,0.0267 -0.23999,0.0267 -0.38667,0 -0.6,-0.2 -0.6,-0.54667 v -4.10665 c 0,-1.24 -0.90667,-1.90667 -2.62666,-1.90667 -1.25333,0 -2.73333,0.37334 -2.8,2.26667 z m 2.22667,4.25332 c -0.86667,0 -1.37333,-0.41333 -1.37333,-1.12 0,-1.53333 2.33332,-1.14666 3.46665,-1.66666 v 1.25333 c 0,0.66666 -0.77333,1.53333 -2.09332,1.53333 z m 7.7733,-6.31999 h -1.14667 v -1.91999 h -1.10666 v 1.91999 h -0.94666 v 0.90667 h 0.94666 v 5.27999 c 0,0.70666 0.48,1.10666 1.34666,1.10666 0.26667,0 0.53334,-0.0267 0.90667,-0.0933 v -0.93334 c -0.14667,0.04 -0.32,0.0533 -0.53333,0.0533 -0.48,0 -0.61334,-0.13333 -0.61334,-0.62667 v -4.78665 h 1.14667 z m 6.62666,6.98665 v -6.98665 h -1.10667 v 3.95999 c 0,1.42667 -0.74666,2.36 -1.90666,2.36 -0.88,0 -1.43999,-0.53333 -1.43999,-1.37333 v -4.94666 h -1.10667 v 5.38666 c 0,1.15999 0.86667,1.90666 2.22666,1.90666 1.02667,0 1.68,-0.36 2.33333,-1.28 v 0.97333 z m 4.96,-6.01332 v -1.13333 c -0.18667,-0.0267 -0.28,-0.04 -0.42667,-0.04 -0.72,0 -1.26666,0.42667 -1.90666,1.46667 v -1.26667 h -1.02667 v 6.98665 h 1.12 v -3.62665 c 0,-1.96 0.89333,-2.36 2.24,-2.38667 z m 6.97332,2.89333 c 0,-2.53333 -0.94667,-4.06666 -3.10666,-4.06666 -1.94666,0 -3.19999,1.49333 -3.19999,3.78666 0,2.29333 1.21333,3.70666 3.17332,3.70666 1.6,0 2.70666,-0.90667 2.98666,-2.42666 h -1.12 c -0.30666,0.92 -0.93333,1.39999 -1.82666,1.39999 -1.29333,0 -2.02666,-0.97333 -2.05333,-2.39999 z m -5.11999,-0.90666 c 0.0933,-1.29333 0.88,-2.13333 2,-2.13333 1.14666,0 1.93332,0.93333 1.93332,2.13333 z m 12.31999,-2.96 h -1.14667 v -1.91999 h -1.10666 v 1.91999 h -0.94666 v 0.90667 h 0.94666 v 5.27999 c 0,0.70666 0.48,1.10666 1.34666,1.10666 0.26667,0 0.53334,-0.0267 0.90667,-0.0933 v -0.93334 c -0.14667,0.04 -0.32,0.0533 -0.53333,0.0533 -0.48,0 -0.61334,-0.13333 -0.61334,-0.62667 v -4.78665 h 1.14667 z m 5.30666,0 -1.93333,5.43999 -1.78666,-5.43999 h -1.18667 l 2.36,7.01332 -0.42667,1.10666 c -0.18667,0.49334 -0.42666,0.68 -0.89333,0.68 -0.16,0 -0.34667,-0.0267 -0.58667,-0.08 v 1 c 0.22667,0.12 0.45334,0.17333 0.74667,0.17333 0.76,0 1.41333,-0.41333 1.79999,-1.43999 l 3.10666,-8.45332 z m 2.13334,9.89331 h 1.11999 v -3.63999 c 0.58667,0.72 1.24,1.04 2.14666,1.04 1.8,0 2.98666,-1.45333 2.98666,-3.67999 0,-2.34666 -1.14666,-3.81333 -2.99999,-3.81333 -0.94666,0 -1.70666,0.42667 -2.22666,1.25333 v -1.05333 h -1.02666 z m 3.06666,-9.05331 c 1.22666,0 2.02666,1.08 2.02666,2.74666 0,1.58666 -0.81333,2.66666 -2.02666,2.66666 -1.17333,0 -1.94667,-1.06666 -1.94667,-2.70666 0,-1.63999 0.77334,-2.70666 1.94667,-2.70666 z m 10.2933,3.02666 c 0,-2.53333 -0.94667,-4.06666 -3.10666,-4.06666 -1.94666,0 -3.19999,1.49333 -3.19999,3.78666 0,2.29333 1.21333,3.70666 3.17332,3.70666 1.6,0 2.70666,-0.90667 2.98666,-2.42666 h -1.12 c -0.30666,0.92 -0.93333,1.39999 -1.82666,1.39999 -1.29333,0 -2.02666,-0.97333 -2.05333,-2.39999 z m -5.11999,-0.90666 c 0.0933,-1.29333 0.88,-2.13333 1.99999,-2.13333 1.14667,0 1.93333,0.93333 1.93333,2.13333 z"
           id="text11-9-0-0-9-2-2-6"
           style="font-weight:500;font-size:13.3333px;font-family:Montserrat;-inkscape-font-specification:'Montserrat, Medium';white-space:pre;inline-size:202.099;fill:#3e4349;stroke-width:3.21325;stroke-linecap:round;stroke-linejoin:round;paint-order:markers fill stroke"
           transform="matrix(1.1850569,0,0,1.5506213,-446.49347,-28.103668)"
           aria-label="- signature type" /><path
           d="m 879.95556,568.90092 h -3.21332 v 0.96 h 3.21332 z m 4.65333,-0.75999 h 1.11999 c 0.0933,-0.85334 0.6,-1.24 1.64,-1.24 1,0 1.56,0.37333 1.56,1.04 v 0.29333 c 0,0.46666 -0.28,0.66666 -1.16,0.77333 -2.04,0.26667 -3.46666,0.42667 -3.46666,2.29333 0,1.26666 0.88,2.06666 2.29333,2.06666 0.88,0 1.58666,-0.30667 2.37333,-1.02667 0.08,0.70667 0.42666,1.02667 1.14666,1.02667 0.22667,0 0.4,-0.0267 0.76,-0.12 v -0.84 c -0.12,0.0267 -0.17334,0.0267 -0.24,0.0267 -0.38667,0 -0.6,-0.2 -0.6,-0.54667 v -4.10665 c 0,-1.24 -0.90666,-1.90667 -2.62666,-1.90667 -1.25333,0 -2.73333,0.37334 -2.79999,2.26667 z m 2.22666,4.25332 c -0.86667,0 -1.37333,-0.41333 -1.37333,-1.12 0,-1.53333 2.33333,-1.14666 3.46666,-1.66666 v 1.25333 c 0,0.66666 -0.77334,1.53333 -2.09333,1.53333 z m 10.95996,-9.05331 h -1.10666 v 3.61332 c -0.46667,-0.70666 -1.21333,-1.08 -2.14666,-1.08 -1.81333,0 -3,1.45333 -3,3.68 0,2.35999 1.16,3.81332 3.04,3.81332 0.95999,0 1.62666,-0.36 2.22666,-1.22666 v 0.91999 h 0.98666 z m -3.06666,3.57332 c 1.2,0 1.96,1.06667 1.96,2.73333 0,1.61333 -0.77333,2.67999 -1.94666,2.67999 -1.22667,0 -2.04,-1.08 -2.04,-2.70666 0,-1.62666 0.81333,-2.70666 2.02666,-2.70666 z m 10.51998,-3.57332 h -1.10667 v 3.61332 c -0.46666,-0.70666 -1.21333,-1.08 -2.14666,-1.08 -1.81333,0 -2.99999,1.45333 -2.99999,3.68 0,2.35999 1.15999,3.81332 3.03999,3.81332 0.96,0 1.62666,-0.36 2.22666,-1.22666 v 0.91999 h 0.98667 z m -3.06666,3.57332 c 1.19999,0 1.95999,1.06667 1.95999,2.73333 0,1.61333 -0.77333,2.67999 -1.94666,2.67999 -1.22666,0 -2.04,-1.08 -2.04,-2.70666 0,-1.62666 0.81334,-2.70666 2.02667,-2.70666 z m 5.86665,-0.84 h -1.10666 v 6.98665 h 1.10666 z m 0,-2.73332 h -1.12 v 1.39999 h 1.12 z m 4.42666,2.73332 h -1.14667 v -1.91999 h -1.10666 v 1.91999 h -0.94666 v 0.90667 h 0.94666 v 5.27999 c 0,0.70666 0.48,1.10666 1.34666,1.10666 0.26667,0 0.53334,-0.0267 0.90667,-0.0933 v -0.93334 c -0.14667,0.04 -0.32,0.0533 -0.53333,0.0533 -0.48,0 -0.61334,-0.13333 -0.61334,-0.62667 v -4.78665 h 1.14667 z m 2.26666,0 h -1.10666 v 6.98665 h 1.10666 z m 0,-2.73332 h -1.11999 v 1.39999 h 1.11999 z m 4.50666,2.53332 c -1.95999,0 -3.14666,1.4 -3.14666,3.74666 0,2.34666 1.17333,3.74666 3.16,3.74666 1.95999,0 3.15999,-1.4 3.15999,-3.69333 0,-2.41332 -1.16,-3.79999 -3.17333,-3.79999 z m 0.0133,1.02667 c 1.25333,0 1.99999,1.02666 1.99999,2.75999 0,1.64 -0.77333,2.67999 -1.99999,2.67999 -1.24,0 -2,-1.02666 -2,-2.71999 0,-1.67999 0.76,-2.71999 2,-2.71999 z m 4.35999,-0.82667 v 6.98665 h 1.12 v -3.85332 c 0,-1.42666 0.74666,-2.35999 1.89333,-2.35999 0.87999,0 1.43999,0.53333 1.43999,1.37333 v 4.83998 h 1.10667 v -5.27998 c 0,-1.16 -0.86667,-1.90667 -2.21333,-1.90667 -1.04,0 -1.70666,0.4 -2.32,1.37333 v -1.17333 z m 7.06666,2.06667 h 1.12 c 0.0933,-0.85334 0.59999,-1.24 1.63999,-1.24 1,0 1.56,0.37333 1.56,1.04 v 0.29333 c 0,0.46666 -0.28,0.66666 -1.16,0.77333 -2.03999,0.26667 -3.46666,0.42667 -3.46666,2.29333 0,1.26666 0.88,2.06666 2.29333,2.06666 0.88,0 1.58666,-0.30667 2.37333,-1.02667 0.08,0.70667 0.42666,1.02667 1.14666,1.02667 0.22667,0 0.4,-0.0267 0.76,-0.12 v -0.84 c -0.12,0.0267 -0.17333,0.0267 -0.24,0.0267 -0.38667,0 -0.6,-0.2 -0.6,-0.54667 v -4.10665 c 0,-1.24 -0.90666,-1.90667 -2.62666,-1.90667 -1.25333,0 -2.73332,0.37334 -2.79999,2.26667 z m 2.22666,4.25332 c -0.86666,0 -1.37333,-0.41333 -1.37333,-1.12 0,-1.53333 2.33333,-1.14666 3.46666,-1.66666 v 1.25333 c 0,0.66666 -0.77333,1.53333 -2.09333,1.53333 z m 6.22664,-9.05331 h -1.12 v 9.71997 h 1.12 z m 5.06666,2.73332 v 6.98665 h 1.12 v -4.38665 c 0,-1.01333 0.73333,-1.82666 1.63999,-1.82666 0.82667,0 1.29333,0.50666 1.29333,1.39999 v 4.81332 h 1.12 v -4.38665 c 0,-1.01333 0.73333,-1.82666 1.64,-1.82666 0.81333,0 1.29333,0.51999 1.29333,1.39999 v 4.81332 h 1.11999 v -5.23998 c 0,-1.25333 -0.71999,-1.94667 -2.02666,-1.94667 -0.93333,0 -1.49333,0.28 -2.14666,1.06667 -0.41333,-0.74667 -0.97333,-1.06667 -1.87999,-1.06667 -0.93334,0 -1.54667,0.34667 -2.14667,1.18667 v -0.98667 z m 16.7333,3.86666 c 0,-2.53333 -0.94667,-4.06666 -3.10666,-4.06666 -1.94666,0 -3.19999,1.49333 -3.19999,3.78666 0,2.29333 1.21333,3.70666 3.17332,3.70666 1.6,0 2.70666,-0.90667 2.98666,-2.42666 h -1.12 c -0.30666,0.92 -0.93333,1.39999 -1.82666,1.39999 -1.29333,0 -2.02666,-0.97333 -2.05333,-2.39999 z m -5.11999,-0.90666 c 0.0933,-1.29333 0.88,-2.13333 1.99999,-2.13333 1.14667,0 1.93333,0.93333 1.93333,2.13333 z m 8.98665,-2.96 h -1.14666 v -1.91999 h -1.10666 v 1.91999 h -0.94667 v 0.90667 h 0.94667 v 5.27999 c 0,0.70666 0.48,1.10666 1.34666,1.10666 0.26667,0 0.53333,-0.0267 0.90666,-0.0933 v -0.93334 c -0.14666,0.04 -0.32,0.0533 -0.53333,0.0533 -0.48,0 -0.61333,-0.13333 -0.61333,-0.62667 v -4.78665 h 1.14666 z m 0.97335,2.06667 h 1.12 c 0.0933,-0.85334 0.59999,-1.24 1.63999,-1.24 1,0 1.56,0.37333 1.56,1.04 v 0.29333 c 0,0.46666 -0.28,0.66666 -1.16,0.77333 -2.03999,0.26667 -3.46666,0.42667 -3.46666,2.29333 0,1.26666 0.88,2.06666 2.29333,2.06666 0.88,0 1.58666,-0.30667 2.37333,-1.02667 0.08,0.70667 0.42666,1.02667 1.14666,1.02667 0.22667,0 0.4,-0.0267 0.76,-0.12 v -0.84 c -0.12,0.0267 -0.17333,0.0267 -0.24,0.0267 -0.38667,0 -0.6,-0.2 -0.6,-0.54667 v -4.10665 c 0,-1.24 -0.90666,-1.90667 -2.62666,-1.90667 -1.25333,0 -2.73332,0.37334 -2.79999,2.26667 z m 2.22666,4.25332 c -0.86666,0 -1.37333,-0.41333 -1.37333,-1.12 0,-1.53333 2.33333,-1.14666 3.46666,-1.66666 v 1.25333 c 0,0.66666 -0.77333,1.53333 -2.09333,1.53333 z m 10.95997,-9.05331 h -1.10667 v 3.61332 c -0.46666,-0.70666 -1.21333,-1.08 -2.14666,-1.08 -1.81333,0 -2.99999,1.45333 -2.99999,3.68 0,2.35999 1.15999,3.81332 3.03999,3.81332 0.96,0 1.62666,-0.36 2.22666,-1.22666 v 0.91999 h 0.98667 z m -3.06666,3.57332 c 1.19999,0 1.95999,1.06667 1.95999,2.73333 0,1.61333 -0.77333,2.67999 -1.94666,2.67999 -1.22666,0 -2.04,-1.08 -2.04,-2.70666 0,-1.62666 0.81334,-2.70666 2.02667,-2.70666 z m 4.57331,1.22667 h 1.12 c 0.0933,-0.85334 0.6,-1.24 1.63999,-1.24 1,0 1.56,0.37333 1.56,1.04 v 0.29333 c 0,0.46666 -0.28,0.66666 -1.16,0.77333 -2.03999,0.26667 -3.46665,0.42667 -3.46665,2.29333 0,1.26666 0.87999,2.06666 2.29332,2.06666 0.88,0 1.58667,-0.30667 2.37333,-1.02667 0.08,0.70667 0.42667,1.02667 1.14666,1.02667 0.22667,0 0.4,-0.0267 0.76,-0.12 v -0.84 c -0.12,0.0267 -0.17333,0.0267 -0.24,0.0267 -0.38666,0 -0.6,-0.2 -0.6,-0.54667 v -4.10665 c 0,-1.24 -0.90666,-1.90667 -2.62666,-1.90667 -1.25333,0 -2.73332,0.37334 -2.79999,2.26667 z m 2.22666,4.25332 c -0.86666,0 -1.37333,-0.41333 -1.37333,-1.12 0,-1.53333 2.33333,-1.14666 3.46666,-1.66666 v 1.25333 c 0,0.66666 -0.77333,1.53333 -2.09333,1.53333 z m 7.77331,-6.31999 h -1.14666 v -1.91999 h -1.10667 v 1.91999 h -0.94666 v 0.90667 h 0.94666 v 5.27999 c 0,0.70666 0.48,1.10666 1.34667,1.10666 0.26666,0 0.53333,-0.0267 0.90666,-0.0933 v -0.93334 c -0.14667,0.04 -0.32,0.0533 -0.53333,0.0533 -0.48,0 -0.61333,-0.13333 -0.61333,-0.62667 v -4.78665 h 1.14666 z m 0.97334,2.06667 h 1.12 c 0.0933,-0.85334 0.6,-1.24 1.64,-1.24 0.99999,0 1.55999,0.37333 1.55999,1.04 v 0.29333 c 0,0.46666 -0.28,0.66666 -1.15999,0.77333 -2.04,0.26667 -3.46666,0.42667 -3.46666,2.29333 0,1.26666 0.88,2.06666 2.29333,2.06666 0.87999,0 1.58666,-0.30667 2.37332,-1.02667 0.08,0.70667 0.42667,1.02667 1.14667,1.02667 0.22666,0 0.4,-0.0267 0.75999,-0.12 v -0.84 c -0.11999,0.0267 -0.17333,0.0267 -0.23999,0.0267 -0.38667,0 -0.6,-0.2 -0.6,-0.54667 v -4.10665 c 0,-1.24 -0.90667,-1.90667 -2.62666,-1.90667 -1.25333,0 -2.73333,0.37334 -2.8,2.26667 z m 2.22667,4.25332 c -0.86667,0 -1.37333,-0.41333 -1.37333,-1.12 0,-1.53333 2.33332,-1.14666 3.46665,-1.66666 v 1.25333 c 0,0.66666 -0.77333,1.53333 -2.09332,1.53333 z"
           id="text11-9-0-0-9-2-8-5-4"
           style="font-weight:500;font-size:13.3333px;font-family:Montserrat;-inkscape-font-specification:'Montserrat, Medium';white-space:pre;inline-size:202.099;fill:#3e4349;stroke-width:3.21325;stroke-linecap:round;stroke-linejoin:round;paint-order:markers fill stroke"
           transform="matrix(1.1850569,0,0,1.5506213,-445.46666,5.8811787)"
           aria-label="- additional metadata" /></g><g
         id="g10-8-7-3-0-2"
         transform="matrix(0.36466383,0.22082643,-0.22082643,0.36466383,2968.2623,-1568.247)"
         style="display:inline;fill:#c83737;stroke-width:1.7;stroke-dasharray:none"><circle
           style="fill:#ffffff;fill-opacity:1;stroke:none;stroke-width:14.841;stroke-linecap:square;stroke-dasharray:none;stroke-dashoffset:0;stroke-opacity:1;paint-order:fill markers stroke"
           id="path73-6-7-4-7"
           cx="228.22922"
           cy="841.32001"
           transform="rotate(0.01535728)"
           r="33.171581" /><path
           id="path3-6-9-0-8-0"
           style="font-variation-settings:'wght' 700;fill:none;stroke:#195962;stroke-width:6.40174;stroke-linecap:round;stroke-linejoin:round;paint-order:markers fill stroke"
           d="m 563.52509,693.28894 a 35.520878,35.520878 0 0 1 -35.52088,35.52088 35.520878,35.520878 0 0 1 -35.52088,-35.52088 35.520878,35.520878 0 0 1 35.52088,-35.52088 35.520878,35.520878 0 0 1 35.52088,35.52088 z"
           transform="rotate(22.152263)" /><g
           id="g9-2-1-6-0-3"
           transform="translate(-1.3219444,-1.6027733)"><path
             d="m 221.1513,845.27224 c 0.0245,1.19424 -0.23692,2.22055 -0.78414,3.07896 -0.54765,0.83668 -1.38159,1.48371 -2.5018,1.94111 -1.12021,0.45737 -2.51629,0.70319 -4.18825,0.73743 -1.23765,0.0254 -2.3034,-0.0398 -3.19722,-0.19519 -0.40967,-0.0614 -0.81981,-0.1454 -1.2304,-0.25248 -0.81861,-0.21326 -1.47042,-1.16054 -1.48776,-2.00679 l -0.0193,-0.94161 c -0.0173,-0.84625 0.59808,-1.25531 1.40189,-0.99093 0.54067,0.1779 1.10164,0.33456 1.68292,0.47012 1.11318,0.2596 2.09317,0.38071 2.94,0.36338 0.95541,-0.0196 1.62563,-0.17459 2.01069,-0.46476 0.40678,-0.29073 0.6055,-0.66408 0.59616,-1.12009 -0.006,-0.30395 -0.0986,-0.57361 -0.27724,-0.80889 -0.15687,-0.23564 -0.50985,-0.50005 -1.05893,-0.79293 -0.54906,-0.29285 -1.40389,-0.66636 -2.56449,-1.1205 -1.11717,-0.45504 -2.0387,-0.90321 -2.76459,-1.3445 -0.72633,-0.46305 -1.26988,-1.0167 -1.63063,-1.66098 -0.36121,-0.66602 -0.55204,-1.49842 -0.57249,-2.49726 -0.0338,-1.65022 0.58141,-2.901 1.84562,-3.75236 1.2642,-0.85137 2.96027,-1.29882 5.08819,-1.3424 1.1074,-0.0227 2.16274,0.0643 3.166,0.26099 0.55248,0.10835 1.1157,0.25922 1.68968,0.45273 0.80179,0.27028 1.17351,1.19658 0.86143,1.98335 l -0.26453,0.66566 c -0.31266,0.78654 -1.20031,1.16326 -2.0021,0.89235 -0.36088,-0.12188 -0.71322,-0.23163 -1.057,-0.32905 -0.78701,-0.24462 -1.58224,-0.35863 -2.38563,-0.34218 -0.71656,0.0147 -1.25739,0.12356 -1.62252,0.32648 -0.34343,0.20264 -0.51112,0.49924 -0.50312,0.89009 0.006,0.28225 0.098,0.54105 0.27657,0.77636 0.19986,0.21314 0.56303,0.44464 1.0895,0.69452 0.54818,0.24942 1.34781,0.58068 2.39896,0.99362 1.029,0.39161 1.91729,0.80789 2.66487,1.24877 0.74715,0.41919 1.32306,0.96129 1.72768,1.62641 0.4259,0.64296 0.64974,1.49642 0.67154,2.5604 z m 8.40639,-11.1515 0.30142,14.71885 c 0.0173,0.84626 -0.6546,1.54635 -1.5009,1.56367 l -1.78842,0.0366 c -0.84626,0.0173 -1.54635,-0.6546 -1.56367,-1.5009 l -0.30141,-14.71886 c -0.0173,-0.84627 0.6546,-1.54636 1.5009,-1.56367 l 1.78841,-0.0366 c 0.84627,-0.0173 1.54636,0.6546 1.56367,1.50092 z m -2.58432,-8.45298 c 0.71654,-0.0147 1.33892,0.1463 1.86718,0.48309 0.52779,0.31507 0.80102,0.92856 0.8197,1.8405 0.0182,0.89027 -0.22965,1.51444 -0.74357,1.87258 -0.51404,0.35807 -1.12931,0.54445 -1.84585,0.55913 -0.73826,0.0151 -1.37152,-0.14564 -1.89976,-0.48242 -0.50653,-0.33721 -0.7689,-0.95093 -0.78714,-1.84119 -0.0187,-0.91197 0.21837,-1.53591 0.71111,-1.87186 0.51401,-0.35808 1.14015,-0.54469 1.87841,-0.5598 z m 13.39221,6.37288 c 1.08569,-0.0222 2.06723,0.17489 2.94469,0.5914 0.87743,0.41649 1.62903,1.05274 2.25479,1.90885 l 0.13022,-0.003 c 0.053,-1.62151 0.92731,-2.07451 1.82469,-2.0929 l 1.0393,-0.0213 c 0.84625,-0.0173 1.54634,0.6546 1.56365,1.50091 l 0.14972,16.1761 c 0.006,0.63934 -0.23499,1.62306 -0.66503,2.2835 -0.43004,0.66044 -1.6198,1.93803 -2.93234,2.55141 -1.31208,0.63511 -2.94522,0.97267 -4.89944,1.0127 -1.2594,0.0258 -2.43346,-0.0261 -3.52226,-0.15591 -0.5644,-0.0688 -1.12339,-0.17137 -1.677,-0.30716 -0.82165,-0.20163 -1.4805,-1.1291 -1.49782,-1.97537 l -0.0166,-0.8113 c -0.0173,-0.84624 0.6054,-1.27193 1.41728,-1.03366 0.63265,0.18566 1.27493,0.33315 1.92677,0.44237 1.17744,0.21474 2.3741,0.30981 3.59007,0.28491 1.25939,-0.0258 1.98092,-0.20257 2.81336,-0.83044 0.83244,-0.62787 0.89293,-1.80789 0.88606,-2.76748 -0.007,-0.9596 -0.0109,-0.89572 0.005,-1.20015 l -0.093,0.14247 c -0.58885,0.94616 -1.30245,1.63415 -2.14085,2.06405 -0.8384,0.4299 -1.78955,0.65574 -2.85352,0.67753 -2.10622,0.0431 -3.77289,-0.72647 -5.00005,-2.30882 -1.2059,-1.60451 -1.8384,-3.85073 -1.89754,-6.73862 -0.0596,-2.90961 0.50192,-5.19113 1.68453,-6.84455 1.18262,-1.65342 2.83789,-2.50193 4.96582,-2.54551 z m 1.61152,3.90968 c -0.75999,0.0156 -1.3963,0.235 -1.90898,0.65818 -0.4914,0.40107 -0.85915,1.00596 -1.10329,1.81472 -0.22283,0.78655 -0.32202,1.77699 -0.29756,2.97124 0.0365,1.78052 0.34608,3.1101 0.92888,3.9888 0.58233,0.85699 1.47062,1.27326 2.66486,1.2488 0.62971,-0.0129 1.17099,-0.0999 1.62385,-0.2613 0.45245,-0.18299 0.81602,-0.46201 1.09073,-0.83695 0.29598,-0.39705 0.51374,-0.90114 0.65333,-1.5122 0.1396,-0.6111 0.20037,-1.3509 0.18258,-2.21946 l -0.012,-0.58626 c -0.0262,-1.2811 -0.17753,-2.30982 -0.4542,-3.08619 -0.27657,-0.77636 -0.68982,-1.33268 -1.23979,-1.66898 -0.55038,-0.358 -1.25984,-0.52813 -2.12841,-0.51033 z"
             style="font-size:13.2602px;font-family:'Noto Sans';-inkscape-font-specification:'Noto Sans, @wght=700';font-variation-settings:'wght' 700;display:inline;fill:#195962;stroke-width:10.8591;stroke-linecap:round;stroke-linejoin:round;paint-order:markers fill stroke"
             id="path1-2-8-1-9-4-4" /><path
             id="path4-4-9-2-29-6"
             style="font-variation-settings:'wght' 700;display:inline;fill:none;stroke:#195962;stroke-width:3.64767;stroke-linecap:round;stroke-linejoin:round;stroke-opacity:1;paint-order:markers fill stroke"
             d="m 208.35953,828.56065 c 4.20155,-6.40232 11.67933,-11.91499 20.19969,-11.73012 8.20624,0.17805 13.83263,3.91368 19.70116,9.24107" /><path
             id="path4-6-7-0-1-61-3"
             style="font-variation-settings:'wght' 700;display:inline;fill:none;stroke:#195962;stroke-width:3.64767;stroke-linecap:round;stroke-linejoin:round;stroke-opacity:1;paint-order:markers fill stroke"
             d="m 248.51397,859.76996 c -5.73327,5.42971 -12.71409,8.56595 -19.29605,9.02109 -8.96638,0.62002 -15.41863,-3.91867 -20.7683,-10.62518" /></g></g><rect
         style="display:inline;fill:none;fill-opacity:1;stroke:#195962;stroke-width:1.28313;stroke-linecap:butt;stroke-linejoin:miter;stroke-dasharray:2.56625, 2.56625;stroke-dashoffset:0;stroke-opacity:1;paint-order:fill markers stroke"
         id="rect66-2-9-0-2"
         width="226.51097"
         height="151.81158"
         x="2657.8003"
         y="-1278.835"
         ry="0" /><path
         d="m 884.32889,566.30093 c 0,-2.65333 -2.30667,-3.11999 -3.81333,-3.11999 -2.33333,0 -3.67999,1.09333 -3.67999,2.98666 0,1.50666 0.76,2.23999 2.73333,2.61332 l 1.35999,0.26667 c 1.33333,0.25333 1.82667,0.62666 1.82667,1.41333 0,0.81333 -0.74667,1.30666 -1.96,1.30666 -1.36,0 -2.11999,-0.57333 -2.18666,-1.61333 h -1.94666 c 0.12,2.08 1.54666,3.21333 4.02665,3.21333 2.50667,0 3.98666,-1.17333 3.98666,-3.14666 0,-1.53333 -0.77333,-2.33333 -2.57333,-2.67999 l -1.51999,-0.29334 c -1.42666,-0.27999 -1.84,-0.55999 -1.84,-1.26666 0,-0.73333 0.65333,-1.2 1.68,-1.2 1.26666,0 1.97333,0.53334 2.03999,1.52 z m 3.67998,-0.44 h -1.86666 v 7.19998 h 1.86666 z m 0,-2.51999 h -1.86666 v 1.66666 h 1.86666 z m 6.45333,2.51999 v 1.10667 c -0.56,-0.85334 -1.17333,-1.22667 -2,-1.22667 -1.70666,0 -2.98665,1.66666 -2.98665,3.89333 0,2.23999 1.17333,3.73332 2.94665,3.73332 0.84,0 1.34667,-0.25333 2.04,-1.04 v 0.97333 c 0,0.86667 -0.65333,1.46667 -1.58666,1.46667 -0.70667,0 -1.17333,-0.29334 -1.32,-0.84 h -1.93333 c 0.0267,1.25333 1.28,2.03999 3.18666,2.03999 2.17333,0 3.42666,-0.97333 3.42666,-2.66666 v -7.43998 z m -1.6,1.44 c 0.93333,0 1.62667,0.97333 1.62667,2.30666 0,1.30666 -0.68,2.19999 -1.65333,2.19999 -0.88,0 -1.49333,-0.89333 -1.49333,-2.19999 0,-1.36 0.61333,-2.30666 1.51999,-2.30666 z m 5.10665,-1.44 v 7.19998 h 1.86666 v -4.31999 c 0,-0.85333 0.6,-1.41333 1.50667,-1.41333 0.79999,0 1.19999,0.44 1.19999,1.29333 v 4.43999 h 1.86666 v -4.82665 c 0,-1.58666 -0.87999,-2.49333 -2.41332,-2.49333 -0.97333,0 -1.62667,0.36 -2.16,1.16 v -1.04 z m 10.02665,7.50665 c 0.8,0 1.53333,-0.34667 2.18667,-1.02667 0,0.37334 0.04,0.50667 0.21333,0.72 h 2.02666 v -0.22666 c -0.33333,-0.30667 -0.42667,-0.50667 -0.42667,-0.88 v -3.99999 c 0,-1.46666 -0.99999,-2.21333 -2.94666,-2.21333 -1.94666,0 -2.95999,0.82667 -3.07999,2.49333 h 1.8 c 0.0933,-0.74667 0.4,-0.98667 1.31999,-0.98667 0.72,0 1.08,0.24 1.08,0.72 0,0.70667 -0.88,0.74667 -1.49333,0.84 l -0.74666,0.13333 c -1.42667,0.24 -2.12,0.97333 -2.12,2.26666 0,1.29333 0.88,2.16 2.18666,2.16 z m 2.17333,-3.19999 c 0,1.07999 -0.53333,1.69333 -1.47999,1.69333 -0.62667,0 -1.01334,-0.33334 -1.01334,-0.86667 0,-0.56 0.29334,-0.82666 1.06667,-0.98666 l 0.64,-0.12 c 0.49333,-0.0933 0.57333,-0.12 0.78666,-0.22667 z m 6.75999,-4.15999 h -1.04 v -1.93333 h -1.86666 v 1.93333 h -0.92 v 1.23999 h 0.92 v 4.42666 c 0,1.13333 0.59999,1.69333 1.82666,1.69333 0.41333,0 0.74666,-0.04 1.08,-0.14667 v -1.30666 c -0.18667,0.0267 -0.29334,0.04 -0.42667,0.04 -0.49333,0 -0.61333,-0.14667 -0.61333,-0.78667 v -3.91999 h 1.04 z m 7.70663,7.05331 v -7.19998 h -1.86666 v 4.50666 c 0,0.85333 -0.6,1.41333 -1.50666,1.41333 -0.8,0 -1.2,-0.42667 -1.2,-1.29333 v -4.62666 h -1.86666 v 5.01332 c 0,1.58666 0.88,2.49333 2.41333,2.49333 0.97333,0 1.62666,-0.36 2.15999,-1.16 v 0.85333 z m 1.73334,-7.19998 v 7.19998 h 1.86667 v -3.82665 c 0,-1.09333 0.54666,-1.64 1.63999,-1.64 0.2,0 0.33333,0.0133 0.58667,0.0533 v -1.89333 c -0.10667,-0.0133 -0.17334,-0.0133 -0.22667,-0.0133 -0.85333,0 -1.6,0.56 -1.99999,1.53333 v -1.41333 z m 8.22665,-0.12 c -2.06666,0 -3.33332,1.49333 -3.33332,3.90666 0,2.30666 1.25333,3.71999 3.29332,3.71999 1.61333,0 2.92,-0.92 3.33333,-2.33333 h -1.84 c -0.22666,0.57333 -0.74666,0.90667 -1.42666,0.90667 -1.25333,0 -1.45333,-0.92 -1.49333,-1.89333 h 4.82665 c 0.0133,-0.16 0.0133,-0.22667 0.0133,-0.32 0,-3.18666 -1.93333,-3.98666 -3.37333,-3.98666 z m 1.42667,3.06666 h -2.86666 c 0.12,-1.09333 0.58666,-1.64 1.41333,-1.64 0.86666,0 1.37333,0.58667 1.45333,1.64 z m 7.05331,-2.94666 v 7.19998 h 1.86666 v -4.31999 c 0,-0.87999 0.48,-1.41333 1.28,-1.41333 0.62666,0 1.01333,0.36 1.01333,0.93334 v 4.79998 h 1.86666 v -4.31999 c 0,-0.87999 0.48,-1.41333 1.28,-1.41333 0.62666,0 1.01333,0.36 1.01333,0.93334 v 4.79998 h 1.86666 v -5.09332 c 0,-1.39999 -0.85333,-2.22666 -2.29333,-2.22666 -0.90666,0 -1.54666,0.32 -2.10666,1.06667 -0.34666,-0.68 -1.06666,-1.06667 -1.95999,-1.06667 -0.82667,0 -1.36,0.28 -1.97333,1.01333 v -0.89333 z m 14.91995,-0.12 c -2.06666,0 -3.33332,1.49333 -3.33332,3.90666 0,2.30666 1.25333,3.71999 3.29332,3.71999 1.61333,0 2.92,-0.92 3.33333,-2.33333 h -1.84 c -0.22666,0.57333 -0.74666,0.90667 -1.42666,0.90667 -1.25333,0 -1.45333,-0.92 -1.49333,-1.89333 h 4.82665 c 0.0133,-0.16 0.0133,-0.22667 0.0133,-0.32 0,-3.18666 -1.93333,-3.98666 -3.37333,-3.98666 z m 1.42667,3.06666 h -2.86666 c 0.12,-1.09333 0.58666,-1.64 1.41333,-1.64 0.86666,0 1.37333,0.58667 1.45333,1.64 z m 6.58665,-2.79999 h -1.04 v -1.93333 h -1.86666 v 1.93333 h -0.92 v 1.23999 h 0.92 v 4.42666 c 0,1.13333 0.6,1.69333 1.82666,1.69333 0.41333,0 0.74666,-0.04 1.08,-0.14667 v -1.30666 c -0.18667,0.0267 -0.29334,0.04 -0.42667,0.04 -0.49333,0 -0.61333,-0.14667 -0.61333,-0.78667 v -3.91999 h 1.04 z m 3.11998,7.35998 c 0.8,0 1.53333,-0.34667 2.18666,-1.02667 0,0.37334 0.04,0.50667 0.21333,0.72 h 2.02666 v -0.22666 c -0.33333,-0.30667 -0.42666,-0.50667 -0.42666,-0.88 v -3.99999 c 0,-1.46666 -1,-2.21333 -2.94666,-2.21333 -1.94666,0 -2.95999,0.82667 -3.07999,2.49333 h 1.79999 c 0.0933,-0.74667 0.4,-0.98667 1.32,-0.98667 0.72,0 1.08,0.24 1.08,0.72 0,0.70667 -0.88,0.74667 -1.49333,0.84 l -0.74667,0.13333 c -1.42666,0.24 -2.11999,0.97333 -2.11999,2.26666 0,1.29333 0.88,2.16 2.18666,2.16 z m 2.17333,-3.19999 c 0,1.07999 -0.53333,1.69333 -1.48,1.69333 -0.62666,0 -1.01333,-0.33334 -1.01333,-0.86667 0,-0.56 0.29333,-0.82666 1.06666,-0.98666 l 0.64,-0.12 c 0.49333,-0.0933 0.57333,-0.12 0.78667,-0.22667 z m 6.21331,3.19999 c 0.89333,0 1.52,-0.33333 1.98666,-1.04 v 0.73333 h 1.86667 v -9.71997 h -1.86667 v 3.45332 c -0.46666,-0.72 -1.09333,-1.05333 -1.98666,-1.05333 -1.71999,0 -3.02666,1.65333 -3.02666,3.82666 0,2.10666 1.21333,3.79999 3.02666,3.79999 z m 0.41334,-6.06665 c 0.94666,0 1.57332,0.92 1.57332,2.29333 0,1.30666 -0.63999,2.21332 -1.57332,2.21332 -0.93334,0 -1.57333,-0.91999 -1.57333,-2.23999 0,-1.33333 0.63999,-2.26666 1.57333,-2.26666 z m 7.02665,6.06665 c 0.8,0 1.53333,-0.34667 2.18666,-1.02667 0,0.37334 0.04,0.50667 0.21333,0.72 h 2.02666 v -0.22666 c -0.33333,-0.30667 -0.42666,-0.50667 -0.42666,-0.88 v -3.99999 c 0,-1.46666 -1,-2.21333 -2.94666,-2.21333 -1.94666,0 -2.95999,0.82667 -3.07999,2.49333 h 1.79999 c 0.0933,-0.74667 0.4,-0.98667 1.32,-0.98667 0.72,0 1.08,0.24 1.08,0.72 0,0.70667 -0.88,0.74667 -1.49333,0.84 l -0.74667,0.13333 c -1.42666,0.24 -2.11999,0.97333 -2.11999,2.26666 0,1.29333 0.88,2.16 2.18666,2.16 z m 2.17333,-3.19999 c 0,1.07999 -0.53334,1.69333 -1.48,1.69333 -0.62666,0 -1.01333,-0.33334 -1.01333,-0.86667 0,-0.56 0.29333,-0.82666 1.06666,-0.98666 l 0.64,-0.12 c 0.49333,-0.0933 0.57333,-0.12 0.78667,-0.22667 z m 6.75999,-4.15999 h -1.04 v -1.93333 h -1.86666 v 1.93333 h -0.92 v 1.23999 h 0.92 v 4.42666 c 0,1.13333 0.59999,1.69333 1.82666,1.69333 0.41333,0 0.74666,-0.04 1.08,-0.14667 v -1.30666 c -0.18667,0.0267 -0.29334,0.04 -0.42667,0.04 -0.49333,0 -0.61333,-0.14667 -0.61333,-0.78667 v -3.91999 h 1.04 z m 3.11998,7.35998 c 0.8,0 1.53333,-0.34667 2.18666,-1.02667 0,0.37334 0.04,0.50667 0.21333,0.72 h 2.02671 v -0.22666 c -0.3334,-0.30667 -0.4267,-0.50667 -0.4267,-0.88 v -3.99999 c 0,-1.46666 -1,-2.21333 -2.94667,-2.21333 -1.94666,0 -2.95999,0.82667 -3.07999,2.49333 h 1.79999 c 0.0933,-0.74667 0.4,-0.98667 1.32,-0.98667 0.72,0 1.08,0.24 1.08,0.72 0,0.70667 -0.88,0.74667 -1.49333,0.84 l -0.74667,0.13333 c -1.42666,0.24 -2.11999,0.97333 -2.11999,2.26666 0,1.29333 0.87999,2.16 2.18666,2.16 z m 2.17333,-3.19999 c 0,1.07999 -0.53334,1.69333 -1.48,1.69333 -0.62667,0 -1.01333,-0.33334 -1.01333,-0.86667 0,-0.56 0.29333,-0.82666 1.06666,-0.98666 l 0.64,-0.12 c 0.49333,-0.0933 0.57333,-0.12 0.78667,-0.22667 z"
         id="text11-9-0-0-9-2-5-9-1-5-6"
         style="font-weight:bold;font-size:13.3333px;font-family:Montserrat;-inkscape-font-specification:'Montserrat, Bold';white-space:pre;inline-size:202.099;fill:#3e4349;stroke-width:3.21325;stroke-linecap:round;stroke-linejoin:round;paint-order:markers fill stroke"
         transform="matrix(1.0006928,0,0,0.99930768,1826.1146,-1784.4127)"
         aria-label="Signature metadata" /><path
         style="font-weight:500;font-size:13.0667px;font-family:Montserrat;-inkscape-font-specification:'Montserrat Medium';fill:#3e4349;stroke-width:2.8271;stroke-linecap:round;stroke-linejoin:round;paint-order:markers fill stroke"
         d="m 2707.1573,-1252.3845 c -2.156,0 -2.6918,-1.2282 -2.6918,-2.1952 v -0.065 h -1.1498 c 0.039,2.7048 2.1168,3.332 3.7632,3.332 2.9792,0 3.724,-1.7509 3.724,-2.9139 0,-1.176 -0.7317,-2.0384 -2.0253,-2.3912 l -2.3912,-0.6402 c -1.1499,-0.3136 -1.5681,-0.6795 -1.5681,-1.4112 0,-0.967 0.8494,-1.6072 2.1299,-1.6072 1.5158,0 2.3651,0.6925 2.3782,1.9338 h 1.1498 c -0.013,-1.8685 -1.2936,-2.9531 -3.4888,-2.9531 -2.0907,0 -3.3843,1.0715 -3.3843,2.7963 0,1.163 0.6142,1.8947 1.8686,2.2214 l 2.3651,0.6272 c 1.2021,0.3136 1.7509,0.797 1.7509,1.5418 0,0.6795 -0.3659,1.7248 -2.4304,1.7248 z m 6.2067,-6.076 h -1.0846 v 6.847 h 1.0846 z m 0,-2.6786 h -1.0976 v 1.372 h 1.0976 z m 4.1552,9.8261 c 0.8624,0 1.4635,-0.3659 2.0776,-1.2283 v 0.3528 c 0,1.568 -0.3659,2.5088 -1.9078,2.5088 -0.3397,0 -1.4765,-0.039 -1.6594,-1.1498 h -1.1107 c 0.1176,1.2936 1.1237,2.0645 2.7309,2.0645 2.6003,0 3.0577,-1.5941 3.0577,-3.9723 v -5.7232 h -1.1368 l 0.1306,0.9931 c -0.5488,-0.8101 -1.2152,-1.1891 -2.0907,-1.1891 -1.7378,0 -2.9138,1.5158 -2.9138,3.7371 0,2.2344 1.2674,3.6064 2.8224,3.6064 z m 0.209,-6.3373 c 1.1761,0 1.8686,0.993 1.8686,2.7048 0,1.6333 -0.7056,2.6264 -1.8555,2.6264 -1.1891,0 -1.9077,-1.0062 -1.9077,-2.6656 0,-1.6464 0.7317,-2.6656 1.8946,-2.6656 z m 4.5472,-0.8102 v 6.847 h 1.0977 v -3.7763 c 0,-1.3981 0.7317,-2.3128 1.8554,-2.3128 0.8624,0 1.4112,0.5227 1.4112,1.3459 v 4.7432 h 1.0846 v -5.1744 c 0,-1.1368 -0.8494,-1.8686 -2.1691,-1.8686 -1.0192,0 -1.6725,0.392 -2.2736,1.3459 v -1.1499 z m 6.9254,2.0254 h 1.0976 c 0.091,-0.8363 0.588,-1.2152 1.6072,-1.2152 0.98,0 1.5288,0.3658 1.5288,1.0192 v 0.2874 c 0,0.4574 -0.2744,0.6534 -1.1368,0.7579 -1.9992,0.2613 -3.3973,0.4181 -3.3973,2.2475 0,1.2413 0.8624,2.0253 2.2474,2.0253 0.8624,0 1.555,-0.3005 2.3259,-1.0061 0.078,0.6925 0.4182,1.0061 1.1238,1.0061 0.2221,0 0.392,-0.026 0.7448,-0.1176 v -0.8232 c -0.1176,0.026 -0.1699,0.026 -0.2352,0.026 -0.379,0 -0.588,-0.196 -0.588,-0.5357 v -4.0245 c 0,-1.2152 -0.8886,-1.8686 -2.5742,-1.8686 -1.2283,0 -2.6787,0.3659 -2.744,2.2214 z m 2.1821,4.1682 c -0.8493,0 -1.3458,-0.405 -1.3458,-1.0976 0,-1.5026 2.2867,-1.1237 3.3973,-1.6333 v 1.2283 c 0,0.6533 -0.7578,1.5026 -2.0515,1.5026 z m 7.6179,-6.1936 h -1.1237 v -1.8816 h -1.0845 v 1.8816 h -0.9278 v 0.8886 h 0.9278 v 5.1744 c 0,0.6925 0.4704,1.0845 1.3197,1.0845 0.2613,0 0.5227,-0.026 0.8885,-0.091 v -0.9146 c -0.1437,0.039 -0.3136,0.052 -0.5226,0.052 -0.4704,0 -0.6011,-0.1306 -0.6011,-0.6141 v -4.6909 h 1.1237 z m 6.4942,6.847 v -6.847 h -1.0846 v 3.8808 c 0,1.3982 -0.7317,2.3128 -1.8685,2.3128 -0.8624,0 -1.4112,-0.5226 -1.4112,-1.3458 v -4.8478 h -1.0845 v 5.279 c 0,1.1368 0.8493,1.8685 2.1821,1.8685 1.0061,0 1.6464,-0.3528 2.2867,-1.2544 v 0.9539 z m 4.8608,-5.8931 v -1.1107 c -0.1829,-0.026 -0.2744,-0.039 -0.4181,-0.039 -0.7056,0 -1.2414,0.4182 -1.8686,1.4374 v -1.2414 h -1.0061 v 6.847 h 1.0976 v -3.5542 c 0,-1.9208 0.8755,-2.3128 2.1952,-2.3389 z m 6.8339,2.8355 c 0,-2.4827 -0.9277,-3.9854 -3.0445,-3.9854 -1.9078,0 -3.136,1.4635 -3.136,3.711 0,2.2474 1.189,3.6325 3.1098,3.6325 1.568,0 2.6526,-0.8885 2.927,-2.3781 h -1.0976 c -0.3006,0.9016 -0.9147,1.372 -1.7902,1.372 -1.2674,0 -1.9861,-0.9539 -2.0122,-2.352 z m -5.0176,-0.8886 c 0.092,-1.2674 0.8624,-2.0906 1.96,-2.0906 1.1237,0 1.8947,0.9146 1.8947,2.0906 z m 12.152,-3.0968 c -1.9208,0 -3.0837,1.372 -3.0837,3.6718 0,2.2997 1.1499,3.6717 3.0968,3.6717 1.9208,0 3.0968,-1.372 3.0968,-3.6195 0,-2.365 -1.1368,-3.724 -3.1099,-3.724 z m 0.013,1.0062 c 1.2283,0 1.96,1.0061 1.96,2.7048 0,1.6072 -0.7579,2.6264 -1.96,2.6264 -1.2152,0 -1.96,-1.0062 -1.96,-2.6656 0,-1.6464 0.7448,-2.6656 1.96,-2.6656 z m 7.2128,6.0368 2.6264,-6.847 h -1.2282 l -1.9339,5.5534 -1.8294,-5.5534 h -1.2282 l 2.4043,6.847 z m 9.3296,-3.0576 c 0,-2.4827 -0.9277,-3.9854 -3.0445,-3.9854 -1.9077,0 -3.136,1.4635 -3.136,3.711 0,2.2474 1.1891,3.6325 3.1099,3.6325 1.568,0 2.6525,-0.8885 2.9269,-2.3781 h -1.0976 c -0.3005,0.9016 -0.9147,1.372 -1.7901,1.372 -1.2675,0 -1.9862,-0.9539 -2.0123,-2.352 z m -5.0176,-0.8886 c 0.091,-1.2674 0.8624,-2.0906 1.96,-2.0906 1.1238,0 1.8947,0.9146 1.8947,2.0906 z m 9.4865,-1.9469 v -1.1107 c -0.183,-0.026 -0.2744,-0.039 -0.4182,-0.039 -0.7056,0 -1.2413,0.4182 -1.8685,1.4374 v -1.2414 h -1.0061 v 6.847 h 1.0976 v -3.5542 c 0,-1.9208 0.8754,-2.3128 2.1952,-2.3389 z m 2.6656,4.5341 h -1.3589 v 1.359 h 1.3589 z m 0,-5.488 h -1.3589 v 1.359 h 1.3589 z"
         id="text11-2-8-96-5-4-9-7"
         aria-label="Signature over:" /><path
         d="m 879.19557,563.34094 h -2 v 9.71997 h 2 z m 1.93332,2.51999 v 7.19998 h 1.86666 v -4.31999 c 0,-0.85333 0.6,-1.41333 1.50666,-1.41333 0.8,0 1.2,0.44 1.2,1.29333 v 4.43999 h 1.86666 v -4.82665 c 0,-1.58666 -0.88,-2.49333 -2.41333,-2.49333 -0.97333,0 -1.62666,0.36 -2.15999,1.16 v -1.04 z m 12.03998,-0.12 c -0.90667,0 -1.54666,0.38667 -2,1.18667 v -1.06667 h -1.86666 v 10.10664 h 1.86666 v -3.75999 c 0.45334,0.8 1.09333,1.17333 2,1.17333 1.73333,0 3.01332,-1.62666 3.01332,-3.81332 0,-2.12 -1.14666,-3.82666 -3.01332,-3.82666 z m -0.42667,1.56 c 0.94667,0 1.57333,0.92 1.57333,2.29333 0,1.30666 -0.65333,2.22666 -1.57333,2.22666 -0.93333,0 -1.57333,-0.90667 -1.57333,-2.25333 0,-1.34666 0.64,-2.26666 1.57333,-2.26666 z m 11.27998,5.75998 v -7.19998 h -1.86667 v 4.50666 c 0,0.85333 -0.59999,1.41333 -1.50666,1.41333 -0.8,0 -1.2,-0.42667 -1.2,-1.29333 v -4.62666 h -1.86666 v 5.01332 c 0,1.58666 0.88,2.49333 2.41333,2.49333 0.97333,0 1.62666,-0.36 2.15999,-1.16 v 0.85333 z m 4.97333,-7.05331 h -1.04 v -1.93333 h -1.86666 v 1.93333 h -0.92 v 1.23999 h 0.92 v 4.42666 c 0,1.13333 0.6,1.69333 1.82666,1.69333 0.41333,0 0.74667,-0.04 1.08,-0.14667 v -1.30666 c -0.18667,0.0267 -0.29333,0.04 -0.42667,0.04 -0.49333,0 -0.61333,-0.14667 -0.61333,-0.78667 v -3.91999 h 1.04 z m 7.66664,7.35998 c 0.89333,0 1.51999,-0.33333 1.98666,-1.04 v 0.73333 h 1.86666 v -9.71997 h -1.86666 v 3.45332 c -0.46667,-0.72 -1.09333,-1.05333 -1.98666,-1.05333 -1.72,0 -3.02666,1.65333 -3.02666,3.82666 0,2.10666 1.21333,3.79999 3.02666,3.79999 z m 0.41333,-6.06665 c 0.94667,0 1.57333,0.92 1.57333,2.29333 0,1.30666 -0.64,2.21332 -1.57333,2.21332 -0.93333,0 -1.57333,-0.91999 -1.57333,-2.23999 0,-1.33333 0.64,-2.26666 1.57333,-2.26666 z m 7.02665,6.06665 c 0.8,0 1.53333,-0.34667 2.18666,-1.02667 0,0.37334 0.04,0.50667 0.21333,0.72 h 2.02667 v -0.22666 c -0.33334,-0.30667 -0.42667,-0.50667 -0.42667,-0.88 v -3.99999 c 0,-1.46666 -1,-2.21333 -2.94666,-2.21333 -1.94666,0 -2.95999,0.82667 -3.07999,2.49333 h 1.79999 c 0.0933,-0.74667 0.4,-0.98667 1.32,-0.98667 0.72,0 1.08,0.24 1.08,0.72 0,0.70667 -0.88,0.74667 -1.49333,0.84 l -0.74667,0.13333 c -1.42666,0.24 -2.11999,0.97333 -2.11999,2.26666 0,1.29333 0.88,2.16 2.18666,2.16 z m 2.17333,-3.19999 c 0,1.07999 -0.53333,1.69333 -1.48,1.69333 -0.62666,0 -1.01333,-0.33334 -1.01333,-0.86667 0,-0.56 0.29333,-0.82666 1.06667,-0.98666 l 0.63999,-0.12 c 0.49334,-0.0933 0.57334,-0.12 0.78667,-0.22667 z m 6.75998,-4.15999 h -1.03999 v -1.93333 h -1.86667 v 1.93333 h -0.91999 v 1.23999 h 0.91999 v 4.42666 c 0,1.13333 0.6,1.69333 1.82667,1.69333 0.41333,0 0.74666,-0.04 1.07999,-0.14667 v -1.30666 c -0.18666,0.0267 -0.29333,0.04 -0.42666,0.04 -0.49333,0 -0.61333,-0.14667 -0.61333,-0.78667 v -3.91999 h 1.03999 z m 3.11999,7.35998 c 0.79999,0 1.53333,-0.34667 2.18666,-1.02667 0,0.37334 0.04,0.50667 0.21333,0.72 h 2.02666 v -0.22666 c -0.33333,-0.30667 -0.42666,-0.50667 -0.42666,-0.88 v -3.99999 c 0,-1.46666 -1,-2.21333 -2.94666,-2.21333 -1.94667,0 -2.96,0.82667 -3.08,2.49333 h 1.8 c 0.0933,-0.74667 0.4,-0.98667 1.32,-0.98667 0.71999,0 1.07999,0.24 1.07999,0.72 0,0.70667 -0.87999,0.74667 -1.49333,0.84 l -0.74666,0.13333 c -1.42666,0.24 -2.12,0.97333 -2.12,2.26666 0,1.29333 0.88,2.16 2.18667,2.16 z m 2.17332,-3.19999 c 0,1.07999 -0.53333,1.69333 -1.47999,1.69333 -0.62667,0 -1.01333,-0.33334 -1.01333,-0.86667 0,-0.56 0.29333,-0.82666 1.06666,-0.98666 l 0.64,-0.12 c 0.49333,-0.0933 0.57333,-0.12 0.78666,-0.22667 z"
         id="text11-9-0-0-9-2-81-4-7"
         style="font-weight:bold;font-size:13.3333px;font-family:Montserrat;-inkscape-font-specification:'Montserrat, Bold';white-space:pre;inline-size:202.099;fill:#3e4349;stroke-width:3.21325;stroke-linecap:round;stroke-linejoin:round;paint-order:markers fill stroke"
         transform="matrix(1.0006928,0,0,0.99930768,1825.3807,-1804.6308)"
         aria-label="Input data" /><path
         style="font-style:italic;font-weight:500;font-size:16.4356px;font-family:Montserrat;-inkscape-font-specification:'Montserrat Medium Italic';font-variation-settings:'wght' 500;white-space:pre;inline-size:215.51;fill:#3e4349;stroke-width:2.69647;stroke-linecap:round;stroke-linejoin:round;paint-order:markers fill stroke"
         d="m 842.28167,417.82714 c -4.55267,0 -5.09504,3.43504 -5.09504,4.09247 0,1.03544 0.72317,1.90652 1.82435,2.2188 l 2.81049,0.78891 c 1.31485,0.37802 1.85722,0.85465 1.85722,1.64356 0,1.33128 -1.38059,2.48178 -3.73088,2.48178 -1.85722,0 -2.71187,-0.6903 -2.71187,-2.18594 0,-0.21366 0.0164,-0.36158 0.0657,-0.67386 h -1.4299 c -0.11505,0.42733 -0.14792,0.6903 -0.14792,1.03544 0,1.97228 1.47921,3.15564 3.96098,3.15564 4.73345,0 5.57167,-3.41861 5.57167,-4.27326 0,-0.82178 -0.5095,-1.9887 -2.00514,-2.39959 l -2.82693,-0.80535 c -1.26554,-0.36158 -1.65999,-0.69029 -1.65999,-1.41346 0,-1.4299 1.41346,-2.33386 3.22138,-2.33386 1.44633,0 2.49821,0.44377 2.49821,1.79148 0,0.14793 -0.0164,0.26297 -0.0658,0.59169 h 1.44634 c 0.0986,-0.4602 0.13148,-0.67386 0.13148,-0.9204 0,-1.10118 -0.7396,-2.79405 -3.71444,-2.79405 z m 7.10019,3.56653 h -1.38059 l -1.82435,8.61225 h 1.38059 z m 0.72317,-3.3693 h -1.38059 l -0.36159,1.69286 h 1.38059 z m 4.73345,3.12276 c -3.99385,0 -4.8485,4.88138 -4.8485,6.09761 0,1.79148 1.16693,3.04059 2.84336,3.04059 1.03544,0 2.00514,-0.44377 2.82692,-1.31485 -0.44376,2.13663 -1.06831,3.43504 -3.17207,3.43504 -1.11762,0 -1.77504,-0.44376 -1.77504,-1.18337 v -0.23009 h -1.38059 c -0.0329,0.29584 -0.0329,0.31227 -0.0329,0.5095 0,1.26554 1.15049,2.08732 2.9091,2.08732 2.94197,0 4.17464,-1.52851 4.91424,-4.97999 l 1.52851,-7.21522 h -1.2491 l -0.27941,1.28197 c -0.14792,-0.32871 -0.70673,-1.52851 -2.28455,-1.52851 z m -0.0986,1.26554 c 1.05188,0 1.74217,0.78891 1.74217,2.02158 0,2.31742 -1.23267,4.66771 -3.25425,4.66771 -1.10118,0 -1.79148,-0.82178 -1.79148,-2.12019 0,-0.92039 0.50951,-4.5691 3.30356,-4.5691 z m 5.88395,-1.019 -1.82436,8.61225 h 1.38059 l 1.00258,-4.74989 c 0.37801,-1.80791 1.54494,-2.92553 3.02415,-2.92553 0.82178,0 1.42989,0.57524 1.42989,1.33128 0,0.0986 -0.0329,0.34515 -0.0986,0.60812 l -1.21623,5.73602 h 1.38059 l 1.31484,-6.17979 c 0.0493,-0.21366 0.0657,-0.41089 0.0657,-0.62455 0,-1.2491 -0.87109,-2.05445 -2.23525,-2.05445 -1.2491,0 -2.33385,0.44376 -3.1885,1.31485 l 0.21366,-1.06831 z m 12.14592,1.019 c 0.98614,0 1.74217,0.39446 1.74217,1.00257 0,0.0658 -0.0164,0.2301 -0.0329,0.36159 l -0.0493,0.29584 c -0.2301,1.05188 -1.39703,0.95326 -2.79406,1.08475 -3.10632,0.2794 -3.91167,1.87366 -3.91167,3.12276 0,1.31485 0.88752,2.10376 2.36673,2.10376 1.98871,0 2.87623,-0.90396 3.30355,-1.26554 0,0.2794 0.0658,1.26554 1.24911,1.26554 0.37802,0 0.49307,-0.0822 0.87109,-0.14792 l 0.21366,-1.06832 c -0.14792,0.0329 -0.21366,0.0329 -0.27941,0.0329 -0.42732,0 -0.62455,-0.14792 -0.62455,-0.47664 0,-0.0657 0,-0.11505 0.0164,-0.16435 l 1.05187,-4.94712 c 0.0986,-0.44376 0.0986,-0.44376 0.0986,-0.60812 0,-1.11762 -1.13406,-1.85722 -2.8598,-1.85722 -2.28455,0 -3.68157,0.9697 -3.99385,2.79405 h 1.38059 c 0.0986,-0.31227 0.42733,-1.52851 2.25168,-1.52851 z m 1.29841,3.35287 -0.32871,1.54494 c -0.21366,1.01901 -1.65999,1.8901 -3.10633,1.8901 -0.93683,0 -1.46277,-0.39446 -1.46277,-1.08475 0,-2.1202 3.17207,-1.75861 4.89781,-2.35029 z m 7.41247,-4.37187 h -1.46277 l 0.5095,-2.36673 h -1.38059 l -0.5095,2.36673 h -1.16693 l -0.2301,1.10118 h 1.16693 l -1.29841,6.08117 c -0.0329,0.16436 -0.0493,0.34515 -0.0493,0.50951 0,0.80534 0.55881,1.29841 1.46277,1.29841 0.32871,0 0.83821,-0.0493 1.06831,-0.11505 l 0.26297,-1.1998 c -0.5095,0.11505 -0.59168,0.13149 -0.78891,0.13149 -0.36158,0 -0.59168,-0.1808 -0.59168,-0.44377 0,-0.0493 0.0164,-0.13148 0.0329,-0.23009 l 1.28198,-6.03187 h 1.46277 z m 6.36056,8.61225 1.82435,-8.61225 h -1.38059 l -1.03544,4.88137 c -0.37802,1.77504 -1.54494,2.92554 -2.94197,2.92554 -0.88752,0 -1.46277,-0.49307 -1.46277,-1.26555 0,-0.13148 0.0164,-0.2794 0.0493,-0.44376 l 1.29841,-6.0976 h -1.38059 l -1.41346,6.63998 c -0.0329,0.16435 -0.0493,0.34515 -0.0493,0.55881 0,1.11762 0.85465,1.79148 2.26811,1.79148 1.28198,0 2.21881,-0.39446 3.17207,-1.31485 l -0.19722,0.93683 z m 3.79663,-8.61225 -1.82435,8.61225 h 1.38059 l 0.95327,-4.47048 c 0.5095,-2.36673 1.85722,-2.94198 3.40216,-2.94198 l 0.29585,-1.39702 c -0.21367,-0.0329 -0.34515,-0.0493 -0.52594,-0.0493 -0.95327,0 -1.69287,0.42733 -2.71188,1.59426 l 0.27941,-1.34772 z m 3.45146,5.76889 c 0,1.75861 1.2491,3.22138 3.25425,3.22138 1.97227,0 3.66514,-1.21624 4.17464,-2.99128 h -1.38059 c -0.59168,1.13406 -1.46277,1.72574 -2.56395,1.72574 -1.29842,0 -2.03802,-0.80535 -2.03802,-2.20237 0,-0.34515 0.0164,-0.50951 0.0822,-0.75604 h 6.34414 c 0.13149,-0.7396 0.27941,-1.51208 0.27941,-2.20237 0,-1.57782 -1.36416,-2.81049 -3.1392,-2.81049 -4.25682,0 -5.01286,4.81563 -5.01286,6.01543 z m 1.82435,-2.18593 c 0.42733,-1.51208 1.64356,-2.56396 2.97484,-2.56396 1.16693,0 1.90653,0.78891 1.90653,2.02158 0,0.16436 -0.0164,0.27941 -0.0493,0.54238 z"
         id="text11-2-8-96-6-2-9"
         transform="matrix(0.99242225,0,0,0.99242225,1829.3358,-1711.8868)"
         aria-label="Signature" /></g></g></svg>
