<?xml version="1.0" encoding="UTF-8" standalone="no"?>
<svg
   viewBox="0 0 658.42688 323.06079"
   version="1.1"
   id="svg1"
   width="658.42688"
   height="323.06079"
   xml:space="preserve"
   xmlns="http://www.w3.org/2000/svg"
   xmlns:svg="http://www.w3.org/2000/svg"><defs
     id="defs1"><linearGradient
       id="swatch251"><stop
         style="stop-color:#195962;stop-opacity:1;"
         offset="0"
         id="stop251" /></linearGradient><filter
       style="color-interpolation-filters:sRGB"
       id="filter90-2-0-5-0"
       x="-0.019782829"
       y="-0.027737869"
       width="1.042778"
       height="1.0631807"><feFlood
         result="flood"
         in="SourceGraphic"
         flood-opacity="0.796078"
         flood-color="rgb(62,67,73)"
         id="feFlood89-3-6-2-4" /><feGaussianBlur
         result="blur"
         in="SourceGraphic"
         stdDeviation="2.132 0"
         id="feGaussianBlur89-7-8-5-0" /><feOffset
         result="offset"
         in="blur"
         dx="1.000000"
         dy="1.000000"
         id="feOffset89-5-9-4-8" /><feComposite
         result="comp1"
         operator="in"
         in="flood"
         in2="offset"
         id="feComposite89-9-2-7-5" /><feComposite
         result="fbSourceGraphic"
         operator="over"
         in="SourceGraphic"
         in2="comp1"
         id="feComposite90-2-6-4-1" /><feColorMatrix
         result="fbSourceGraphicAlpha"
         in="fbSourceGraphic"
         values="0 0 0 -1 0 0 0 0 -1 0 0 0 0 -1 0 0 0 0 1 0"
         id="feColorMatrix90-2-6-4-6" /><feFlood
         id="feFlood90-8-4-3-6"
         result="flood"
         in="fbSourceGraphic"
         flood-opacity="0.796078"
         flood-color="rgb(62,67,73)" /><feGaussianBlur
         id="feGaussianBlur90-9-9-0-2"
         result="blur"
         in="fbSourceGraphic"
         stdDeviation="3.000000" /><feOffset
         id="feOffset90-7-5-7-1"
         result="offset"
         in="blur"
         dx="1.000000"
         dy="1.000000" /><feComposite
         id="feComposite91-3-0-8-9"
         result="comp1"
         operator="in"
         in="flood"
         in2="offset" /><feComposite
         id="feComposite92-6-4-6-6"
         result="comp2"
         operator="over"
         in="fbSourceGraphic"
         in2="comp1" /></filter></defs><!--! Font Awesome Pro 6.4.2 by @fontawesome - https://fontawesome.com License - https://fontawesome.com/license (Commercial License) Copyright 2023 Fonticons, Inc. --><g
     id="layer18"
     style="display:inline"
     transform="translate(-2438.4,1395.0202)"><g
       id="layer32"
       style="display:inline"><rect
         style="display:inline;fill:#ffffff;fill-opacity:1;stroke:none;stroke-width:0.478;stroke-linecap:round;stroke-dasharray:none;stroke-opacity:1;paint-order:fill markers stroke;filter:url(#filter90-2-0-5-0)"
         id="rect99"
         width="622.60052"
         height="259.57294"
         x="2459.1152"
         y="-1351.6664"
         rx="30.798866"
         ry="24.603634"
         transform="matrix(0.88680169,0,0,0.93912168,310.30933,-83.327534)" /><g
         id="g11-8-3-1-1-3"
         transform="matrix(0.81520336,0,0,0.81520336,1774.5633,-1506.5959)"
         style="display:inline;fill:#61a78d;fill-opacity:1"><rect
           style="font-variation-settings:'wght' 700;fill:#195962;stroke-width:2.61827;stroke-linecap:round;stroke-linejoin:round;paint-order:markers fill stroke"
           id="rect1-9-8-2-5-1"
           width="357.45355"
           height="59.990269"
           x="920.04065"
           y="155.65892" /><g
           id="g4-7-0-4-5-9"
           transform="matrix(1.018001,0,0,1,-27.722608,39.927363)"><rect
             style="font-variation-settings:'wght' 700;fill:#e6e6e6;fill-opacity:1;stroke-width:2.55521;stroke-linecap:round;stroke-linejoin:round;paint-order:markers fill stroke"
             id="rect1-3-7-5-7-4-4"
             width="352.81458"
             height="57.886284"
             x="920.89868"
             y="126.45267" /></g><path
           d="m 966.12661,141.44187 q -2.40342,0 -3.72803,1.77525 -1.32461,1.77525 -1.32461,4.99801 0,3.2091 1.32461,4.98435 1.32461,1.77525 3.72803,1.77525 2.41707,0 3.74167,-1.77525 1.32461,-1.77525 1.32461,-4.98435 0,-3.22276 -1.32461,-4.99801 -1.3246,-1.77525 -3.74167,-1.77525 z m 0,-3.80996 q 4.91607,0 7.70185,2.81309 2.78577,2.81309 2.78577,7.77013 0,4.94339 -2.78577,7.75647 -2.78578,2.81309 -7.70185,2.81309 -4.90242,0 -7.70185,-2.81309 -2.78578,-2.81308 -2.78578,-7.75647 0,-4.95704 2.78578,-7.77013 2.79943,-2.81309 7.70185,-2.81309 z m 19.13172,18.54453 v 8.02959 h -4.88876 v -21.11181 h 4.88876 v 2.23954 q 1.01052,-1.33826 2.23954,-1.96643 1.22902,-0.64182 2.82675,-0.64182 2.82674,0 4.64295,2.2532 1.81622,2.23955 1.81622,5.77639 0,3.53684 -1.81622,5.79004 -1.81621,2.23955 -4.64295,2.23955 -1.59773,0 -2.82675,-0.62817 -1.22902,-0.64182 -2.23954,-1.98008 z m 3.25007,-9.90043 q -1.57041,0 -2.41707,1.16074 -0.833,1.14709 -0.833,3.31835 0,2.17127 0.833,3.33201 0.84666,1.14708 2.41707,1.14708 1.57041,0 2.38976,-1.14708 0.833,-1.14709 0.833,-3.33201 0,-2.18492 -0.833,-3.332 -0.81935,-1.14709 -2.38976,-1.14709 z m 27.1477,4.42447 v 1.39289 h -11.4299 q 0.1775,1.72062 1.2427,2.58093 1.0651,0.86032 2.9769,0.86032 1.5431,0 3.1545,-0.45064 1.625,-0.4643 3.332,-1.39289 v 3.76899 q -1.7343,0.65548 -3.4686,0.98321 -1.7342,0.3414 -3.4685,0.3414 -4.1514,0 -6.4592,-2.10299 -2.29417,-2.11664 -2.29417,-5.9266 0,-3.74168 2.25317,-5.88563 2.2669,-2.14396 6.2271,-2.14396 3.6051,0 5.7627,2.17127 2.1713,2.17127 2.1713,5.8037 z m -5.0254,-1.62504 q 0,-1.39288 -0.8193,-2.23954 -0.8057,-0.86032 -2.1167,-0.86032 -1.4202,0 -2.3078,0.80569 -0.8876,0.79204 -1.1061,2.29417 z m 24.1025,0 v 9.31323 h -4.9161 v -1.51579 -5.61252 q 0,-1.98008 -0.096,-2.73115 -0.082,-0.75106 -0.3004,-1.10611 -0.2868,-0.47796 -0.7784,-0.73742 -0.4916,-0.27311 -1.1198,-0.27311 -1.5294,0 -2.4034,1.18805 -0.874,1.1744 -0.874,3.26373 v 7.52432 h -4.8887 v -15.29445 h 4.8887 v 2.23954 q 1.1061,-1.33826 2.3488,-1.96643 1.2427,-0.64182 2.7448,-0.64182 2.6492,0 4.0148,1.62504 1.3793,1.62503 1.3793,4.72489 z m 4.7522,-11.07482 h 8.726 q 3.8919,0 5.9676,1.73428 2.0893,1.72063 2.0893,4.91608 0,3.2091 -2.0893,4.94338 -2.0757,1.72063 -5.9676,1.72063 h -3.4686 v 7.07368 h -5.2574 z m 5.2574,3.80996 v 5.69445 h 2.9087 q 1.5294,0 2.3625,-0.73741 0.833,-0.75107 0.833,-2.11664 0,-1.36558 -0.833,-2.10299 -0.8331,-0.73741 -2.3625,-0.73741 z m 33.5659,15.0623 q -1.9664,0.95591 -4.0831,1.43386 -2.1166,0.47795 -4.3698,0.47795 -5.0936,0 -8.0706,-2.8404 -2.9769,-2.85405 -2.9769,-7.72916 0,-4.92973 3.0315,-7.75647 3.0316,-2.82675 8.3027,-2.82675 2.0347,0 3.8919,0.38237 1.8709,0.38236 3.5232,1.13342 v 4.21963 q -1.707,-0.96955 -3.4003,-1.44751 -1.6796,-0.47795 -3.3729,-0.47795 -3.1409,0 -4.8478,1.7616 -1.6934,1.74793 -1.6934,5.01166 0,3.23642 1.6387,4.99801 1.6387,1.76159 4.6567,1.76159 0.8193,0 1.5157,-0.0956 0.7101,-0.10924 1.27,-0.32774 v -3.96017 h -3.2091 v -3.52318 h 8.1935 z m 4.6293,-18.87226 h 8.726 q 3.8919,0 5.9676,1.73428 2.0893,1.72063 2.0893,4.91608 0,3.2091 -2.0893,4.94338 -2.0757,1.72063 -5.9676,1.72063 h -3.4685 v 7.07368 h -5.2575 z m 5.2575,3.80996 v 5.69445 h 2.9086 q 1.5295,0 2.3625,-0.73741 0.833,-0.75107 0.833,-2.11664 0,-1.36558 -0.833,-2.10299 -0.833,-0.73741 -2.3625,-0.73741 z m 36.7066,1.76159 v 3.71437 q -1.5704,-0.65548 -3.0315,-0.98322 -1.4612,-0.32774 -2.7585,-0.32774 -1.3929,0 -2.0757,0.35505 -0.6691,0.3414 -0.6691,1.06515 0,0.5872 0.5052,0.90128 0.519,0.31409 1.8436,0.4643 l 0.8603,0.1229 q 3.7553,0.47795 5.0526,1.57041 1.2973,1.09247 1.2973,3.4276 0,2.44438 -1.8025,3.6734 -1.8026,1.22902 -5.3804,1.22902 -1.5158,0 -3.1408,-0.2458 -1.6114,-0.23215 -3.3184,-0.7101 v -3.71437 q 1.4612,0.7101 2.9906,1.06515 1.5431,0.35505 3.1272,0.35505 1.4338,0 2.1576,-0.39602 0.7238,-0.39602 0.7238,-1.17439 0,-0.65548 -0.5053,-0.96956 -0.4916,-0.32774 -1.9801,-0.50527 l -0.8603,-0.10924 q -3.2637,-0.40968 -4.5747,-1.51579 -1.3109,-1.10612 -1.3109,-3.35932 0,-2.43073 1.666,-3.60512 1.666,-1.1744 5.1072,-1.1744 1.3519,0 2.8404,0.20484 1.4885,0.20484 3.2364,0.64182 z m 4.6976,-0.47795 h 4.8888 v 15.29445 h -4.8888 z m 0,-5.95391 h 4.8888 v 3.98748 h -4.8888 z m 19.9921,18.65377 q -1.0106,1.33826 -2.2259,1.96643 -1.2154,0.62816 -2.8131,0.62816 -2.7994,0 -4.6293,-2.19858 -1.8299,-2.21223 -1.8299,-5.62617 0,-3.4276 1.8299,-5.61252 1.8299,-2.19857 4.6293,-2.19857 1.5977,0 2.8131,0.62816 1.2153,0.62817 2.2259,1.98009 v -2.26686 h 4.916 v 13.75135 q 0,3.68706 -2.3351,5.62617 -2.3215,1.95278 -6.7459,1.95278 -1.4339,0 -2.7722,-0.21849 -1.3382,-0.2185 -2.6902,-0.66914 v -3.80995 q 1.2837,0.73741 2.5127,1.09246 1.229,0.3687 2.4717,0.3687 2.4034,0 3.5232,-1.05149 1.1198,-1.05149 1.1198,-3.29104 z m -3.2228,-9.51807 q -1.5158,0 -2.3624,1.11977 -0.8467,1.11978 -0.8467,3.16814 0,2.10299 0.8193,3.19545 0.8194,1.0788 2.3898,1.0788 1.5294,0 2.3761,-1.11977 0.8467,-1.11977 0.8467,-3.15448 0,-2.04836 -0.8467,-3.16814 -0.8467,-1.11977 -2.3761,-1.11977 z m 28.2128,2.79943 v 9.31323 h -4.9161 v -1.51579 -5.61252 q 0,-1.98008 -0.096,-2.73115 -0.082,-0.75106 -0.3004,-1.10611 -0.2868,-0.47796 -0.7784,-0.73742 -0.4916,-0.27311 -1.1197,-0.27311 -1.5295,0 -2.4034,1.18805 -0.874,1.1744 -0.874,3.26373 v 7.52432 h -4.8888 v -15.29445 h 4.8888 v 2.23954 q 1.1061,-1.33826 2.3488,-1.96643 1.2426,-0.64182 2.7448,-0.64182 2.6492,0 4.0148,1.62504 1.3792,1.62503 1.3792,4.72489 z m 11.3889,2.43073 q -1.5294,0 -2.3078,0.51892 -0.7647,0.51892 -0.7647,1.52944 0,0.92859 0.6145,1.46117 0.6281,0.51892 1.7343,0.51892 1.3792,0 2.3214,-0.98322 0.9423,-0.99687 0.9423,-2.48535 v -0.55988 z m 7.4697,-1.84353 v 8.72603 h -4.9297 v -2.26685 q -0.9832,1.39288 -2.2123,2.0347 -1.229,0.62817 -2.9906,0.62817 -2.3761,0 -3.8645,-1.37923 -1.4749,-1.39289 -1.4749,-3.60512 0,-2.69019 1.8436,-3.94652 1.8571,-1.25633 5.8173,-1.25633 h 2.8814 v -0.38236 q 0,-1.16074 -0.915,-1.69331 -0.9149,-0.54624 -2.854,-0.54624 -1.5704,0 -2.9223,0.31409 -1.352,0.31408 -2.5127,0.94224 v -3.72802 q 1.5704,-0.38236 3.1545,-0.57354 1.584,-0.20484 3.1681,-0.20484 4.1377,0 5.9676,1.6387 1.8435,1.62503 1.8435,5.29843 z m 9.8868,-10.91095 v 4.34253 h 5.039 v 3.49587 h -5.039 v 6.48649 q 0,1.06515 0.4233,1.44751 0.4233,0.36871 1.6797,0.36871 h 2.5126 v 3.49587 h -4.1923 q -2.895,0 -4.1104,-1.20171 -1.2017,-1.21536 -1.2017,-4.11038 v -6.48649 h -2.4307 v -3.49587 h 2.4307 v -4.34253 z m 7.8657,13.68307 v -9.34054 h 4.9161 v 1.52944 q 0,1.24268 -0.014,3.12717 -0.014,1.87084 -0.014,2.49901 0,1.84353 0.096,2.66287 0.095,0.80569 0.3277,1.1744 0.3004,0.47795 0.7784,0.73741 0.4916,0.25946 1.1197,0.25946 1.5295,0 2.4035,-1.1744 0.8739,-1.17439 0.8739,-3.26372 v -7.55164 h 4.8888 v 15.29445 h -4.8888 v -2.21223 q -1.1061,1.33826 -2.3488,1.98008 -1.229,0.62817 -2.7175,0.62817 -2.6492,0 -4.0421,-1.62504 -1.3792,-1.62503 -1.3792,-4.72489 z m 31.4356,-5.17553 q -0.6418,-0.30043 -1.2837,-0.43699 -0.6281,-0.15021 -1.27,-0.15021 -1.8844,0 -2.9086,1.21536 -1.0106,1.20171 -1.0106,3.45491 v 7.04637 h -4.8887 v -15.29445 h 4.8887 v 2.51266 q 0.9423,-1.50213 2.1577,-2.18492 1.229,-0.69645 2.9359,-0.69645 0.2458,0 0.5326,0.0273 0.2868,0.0137 0.833,0.0819 z m 17.6978,3.44125 v 1.39289 h -11.4299 q 0.1776,1.72062 1.2427,2.58093 1.0652,0.86032 2.977,0.86032 1.5431,0 3.1545,-0.45064 1.625,-0.4643 3.332,-1.39289 v 3.76899 q -1.7343,0.65548 -3.4686,0.98321 -1.7343,0.3414 -3.4686,0.3414 -4.1513,0 -6.4591,-2.10299 -2.2942,-2.11664 -2.2942,-5.9266 0,-3.74168 2.2532,-5.88563 2.2669,-2.14396 6.227,-2.14396 3.6051,0 5.7628,2.17127 2.1712,2.17127 2.1712,5.8037 z m -5.0253,-1.62504 q 0,-1.39288 -0.8193,-2.23954 -0.8057,-0.86032 -2.1167,-0.86032 -1.4202,0 -2.3078,0.80569 -0.8876,0.79204 -1.1061,2.29417 z m 23.3513,7.101 v 8.02959 h -4.8887 v -21.11181 h 4.8887 v 2.23954 q 1.0106,-1.33826 2.2396,-1.96643 1.229,-0.64182 2.8267,-0.64182 2.8268,0 4.643,2.2532 1.8162,2.23955 1.8162,5.77639 0,3.53684 -1.8162,5.79004 -1.8162,2.23955 -4.643,2.23955 -1.5977,0 -2.8267,-0.62817 -1.229,-0.64182 -2.2396,-1.98008 z m 3.2501,-9.90043 q -1.5704,0 -2.4171,1.16074 -0.833,1.14709 -0.833,3.31835 0,2.17127 0.833,3.33201 0.8467,1.14708 2.4171,1.14708 1.5704,0 2.3898,-1.14708 0.833,-1.14709 0.833,-3.33201 0,-2.18492 -0.833,-3.332 -0.8194,-1.14709 -2.3898,-1.14709 z m 18.7357,5.23016 q -1.5294,0 -2.3078,0.51892 -0.7647,0.51892 -0.7647,1.52944 0,0.92859 0.6145,1.46117 0.6282,0.51892 1.7343,0.51892 1.3792,0 2.3215,-0.98322 0.9422,-0.99687 0.9422,-2.48535 v -0.55988 z m 7.4697,-1.84353 v 8.72603 h -4.9297 v -2.26685 q -0.9832,1.39288 -2.2122,2.0347 -1.2291,0.62817 -2.9906,0.62817 -2.3761,0 -3.8646,-1.37923 -1.4748,-1.39289 -1.4748,-3.60512 0,-2.69019 1.8435,-3.94652 1.8572,-1.25633 5.8173,-1.25633 h 2.8814 v -0.38236 q 0,-1.16074 -0.9149,-1.69331 -0.915,-0.54624 -2.8541,-0.54624 -1.5704,0 -2.9223,0.31409 -1.3519,0.31408 -2.5127,0.94224 v -3.72802 q 1.5704,-0.38236 3.1545,-0.57354 1.5841,-0.20484 3.1681,-0.20484 4.1377,0 5.9676,1.6387 1.8435,1.62503 1.8435,5.29843 z m 16.9059,-6.09047 v 3.98748 q -0.9969,-0.68278 -2.0074,-1.01052 -0.9969,-0.32774 -2.0757,-0.32774 -2.0484,0 -3.1954,1.20171 -1.1335,1.18805 -1.1335,3.332 0,2.14396 1.1335,3.34566 1.147,1.18805 3.1954,1.18805 1.1471,0 2.1713,-0.34139 1.0378,-0.34139 1.9118,-1.01053 v 4.00114 q -1.1471,0.42333 -2.3352,0.62817 -1.1743,0.21849 -2.3624,0.21849 -4.1377,0 -6.4728,-2.11664 -2.3352,-2.1303 -2.3352,-5.91295 0,-3.78264 2.3352,-5.89929 2.3351,-2.1303 6.4728,-2.1303 1.2017,0 2.3624,0.2185 1.1744,0.20483 2.3352,0.62816 z m 4.2196,-6.43186 h 4.8888 v 11.56643 l 5.6261,-5.61252 h 5.6808 l -7.4697,7.01906 8.0569,8.27539 h -5.9266 l -5.9675,-6.37724 v 6.37724 h -4.8888 z m 33.1152,13.56017 v 1.39289 h -11.4299 q 0.1776,1.72062 1.2427,2.58093 1.0652,0.86032 2.977,0.86032 1.5431,0 3.1544,-0.45064 1.6251,-0.4643 3.3321,-1.39289 v 3.76899 q -1.7343,0.65548 -3.4686,0.98321 -1.7343,0.3414 -3.4686,0.3414 -4.1513,0 -6.4592,-2.10299 -2.2941,-2.11664 -2.2941,-5.9266 0,-3.74168 2.2532,-5.88563 2.2668,-2.14396 6.227,-2.14396 3.6051,0 5.7627,2.17127 2.1713,2.17127 2.1713,5.8037 z m -5.0253,-1.62504 q 0,-1.39288 -0.8194,-2.23954 -0.8056,-0.86032 -2.1166,-0.86032 -1.4202,0 -2.3078,0.80569 -0.8877,0.79204 -1.1061,2.29417 z m 14.0654,-10.32375 v 4.34253 h 5.039 v 3.49587 h -5.039 v 6.48649 q 0,1.06515 0.4234,1.44751 0.4233,0.36871 1.6796,0.36871 h 2.5127 v 3.49587 h -4.1923 q -2.8951,0 -4.1104,-1.20171 -1.2017,-1.21536 -1.2017,-4.11038 v -6.48649 h -2.4308 v -3.49587 h 2.4308 v -4.34253 z"
           id="text1-6-6-8-06-5"
           style="font-weight:600;font-size:27.967px;font-family:Montserrat;-inkscape-font-specification:'Montserrat, Semi-Bold';white-space:pre;inline-size:438.074;fill:#3e4349;stroke-width:3.5;stroke-linecap:round;stroke-linejoin:round;paint-order:markers fill stroke"
           transform="matrix(0.85813569,0,0,0.85813569,101.95642,67.179281)"
           aria-label="OpenPGP signature packet&#10;" /></g><g
         id="g5-7-9"
         transform="matrix(0.75811721,0,0,0.62777915,2261.2825,-1727.103)"
         style="display:inline;fill:#61a78d;fill-opacity:1;stroke-width:1.7;stroke-dasharray:none"><path
           id="rect2-5-2-7"
           style="display:inline;fill:#ede8c0;fill-opacity:0.6;stroke:none;stroke-width:1.475;stroke-linecap:square;stroke-miterlimit:0;stroke-dasharray:2.95, 2.95;stroke-dashoffset:0;stroke-opacity:1;paint-order:fill markers stroke"
           d="m 829.6162,807.10742 h 176.8247 a 13.134939,13.134939 45 0 1 13.1349,13.13494 v 81.2156 a 13.134939,13.134939 135 0 1 -13.1349,13.13494 H 829.6162 a 30.342731,30.342731 23.407104 0 1 -22.12405,-9.57719 l -32.4645,-34.58836 a 13.994242,13.994242 90 0 1 0,-19.15438 l 32.4645,-34.58836 a 30.342731,30.342731 156.5929 0 1 22.12405,-9.57719 z"
           transform="matrix(1.0913493,0,0,1.1390201,-312.00721,-105.97179)" /><path
           id="rect2-5-2-5-5"
           style="display:inline;fill:none;fill-opacity:0.6;stroke:#c7b730;stroke-width:1.94683;stroke-linecap:round;stroke-miterlimit:0;stroke-dasharray:none;stroke-dashoffset:0;stroke-opacity:1;paint-order:fill markers stroke"
           d="m 769.77761,813.33976 h 16.59134 c 7.91687,0 14.33476,6.69825 14.33476,14.96096 v 92.5062 c 0,8.26272 -6.41789,14.96097 -14.33476,14.96097 h -192.9775 c -9.14644,0 -17.88556,-3.94829 -24.14507,-10.90862 l -35.4301,-39.39683 c -5.51568,-6.13323 -5.51568,-15.684 0,-21.81723 l 35.4301,-39.39683 c 3.02037,-3.35852 6.61807,-6.01576 10.56026,-7.86652" /><path
           d="m 876.77995,568.87473 h 3.5091 v 1.0677 h -3.5091 z m 14.30335,-2.89062 v 1.13281 q -0.50782,-0.26042 -1.05469,-0.39063 -0.54687,-0.1302 -1.13281,-0.1302 -0.89192,0 -1.34114,0.27343 -0.44271,0.27344 -0.44271,0.82031 0,0.41667 0.31901,0.65755 0.31901,0.23438 1.28255,0.44922 l 0.41016,0.0911 q 1.27603,0.27343 1.80989,0.77473 0.54036,0.49479 0.54036,1.38672 0,1.01562 -0.80729,1.60807 -0.80078,0.59244 -2.20703,0.59244 -0.58593,0 -1.22395,-0.11718 -0.63151,-0.11068 -1.33463,-0.33854 v -1.23698 q 0.66406,0.34505 1.30859,0.52083 0.64453,0.16927 1.27604,0.16927 0.84635,0 1.30208,-0.28645 0.45572,-0.29297 0.45572,-0.82031 0,-0.48828 -0.33203,-0.7487 -0.32552,-0.26042 -1.43879,-0.5013 l -0.41667,-0.0977 q -1.11328,-0.23437 -1.60807,-0.71614 -0.49479,-0.48828 -0.49479,-1.33463 0,-1.02865 0.72917,-1.58854 0.72916,-0.5599 2.0703,-0.5599 0.66406,0 1.25,0.0977 0.58594,0.0977 1.08073,0.29297 z m 2.29817,-0.21485 h 1.19791 v 7.29165 h -1.19791 z m 0,-2.83853 h 1.19791 v 1.51692 h -1.19791 z m 8.50258,6.39972 q 0,-1.30208 -0.54036,-2.01822 -0.53386,-0.71614 -1.50391,-0.71614 -0.96353,0 -1.5039,0.71614 -0.53385,0.71614 -0.53385,2.01822 0,1.29557 0.53385,2.01172 0.54037,0.71614 1.5039,0.71614 0.97005,0 1.50391,-0.71614 0.54036,-0.71615 0.54036,-2.01172 z m 1.19791,2.82552 q 0,1.86197 -0.82682,2.76692 -0.82682,0.91145 -2.53254,0.91145 -0.63151,0 -1.19141,-0.0977 -0.55989,-0.0911 -1.08723,-0.28646 v -1.16536 q 0.52734,0.28646 1.04166,0.42317 0.51432,0.13672 1.04818,0.13672 1.17838,0 1.76431,-0.61849 0.58594,-0.61197 0.58594,-1.85546 v -0.59245 q -0.37109,0.64453 -0.95052,0.96354 -0.57942,0.31901 -1.38671,0.31901 -1.34115,0 -2.16146,-1.02213 -0.82031,-1.02213 -0.82031,-2.70833 0,-1.6927 0.82031,-2.71483 0.82031,-1.02214 2.16146,-1.02214 0.80729,0 1.38671,0.31901 0.57943,0.31901 0.95052,0.96354 v -1.10677 h 1.19791 z m 8.52863,-3.49609 v 4.40103 h -1.19792 v -4.36197 q 0,-1.03515 -0.40364,-1.54947 -0.40365,-0.51432 -1.21093,-0.51432 -0.97005,0 -1.52995,0.61849 -0.55989,0.61848 -0.55989,1.68619 v 4.12108 h -1.20443 v -7.29165 h 1.20443 v 1.13281 q 0.42968,-0.65755 1.00911,-0.98307 0.58593,-0.32552 1.34765,-0.32552 1.25651,0 1.90104,0.78125 0.64453,0.77474 0.64453,2.28515 z m 5.70311,0.73568 q -1.45182,0 -2.01172,0.33203 -0.55989,0.33203 -0.55989,1.13281 0,0.63802 0.41667,1.01562 0.42317,0.37109 1.14583,0.37109 0.99609,0 1.59504,-0.70312 0.60547,-0.70963 0.60547,-1.88151 v -0.26692 z m 2.38931,-0.49479 v 4.16014 h -1.19791 v -1.10676 q -0.41015,0.66406 -1.02213,0.98307 -0.61198,0.31249 -1.49739,0.31249 -1.11979,0 -1.78385,-0.62499 -0.65755,-0.63151 -0.65755,-1.6862 0,-1.23046 0.82031,-1.85546 0.82682,-0.625 2.46093,-0.625 h 1.67968 v -0.11719 q 0,-0.82682 -0.54687,-1.27604 -0.54037,-0.45572 -1.52344,-0.45572 -0.62499,0 -1.21744,0.14974 -0.59245,0.14973 -1.13932,0.44921 v -1.10676 q 0.65755,-0.25391 1.27604,-0.37761 0.61849,-0.13021 1.20442,-0.13021 1.58203,0 2.36328,0.82031 0.78124,0.82031 0.78124,2.48698 z m 3.65234,-5.20181 v 2.0703 h 2.46744 v 0.93099 h -2.46744 v 3.95833 q 0,0.89192 0.24088,1.14583 0.2474,0.2539 0.99609,0.2539 h 1.23047 v 1.0026 h -1.23047 q -1.38671,0 -1.91405,-0.51432 -0.52735,-0.52083 -0.52735,-1.88801 v -3.95833 h -0.8789 v -0.93099 h 0.8789 v -2.0703 z m 3.91926,6.48436 v -4.41406 h 1.19791 v 4.36848 q 0,1.03516 0.40365,1.55599 0.40364,0.51432 1.21093,0.51432 0.97005,0 1.52995,-0.61849 0.5664,-0.61849 0.5664,-1.68619 v -4.13411 h 1.19791 v 7.29165 h -1.19791 v -1.11979 q -0.4362,0.66407 -1.01562,0.98959 -0.57292,0.319 -1.33463,0.319 -1.25651,0 -1.90755,-0.78124 -0.65104,-0.78125 -0.65104,-2.28515 z m 3.01431,-4.58984 z m 9.78514,1.29557 q -0.20183,-0.11718 -0.44271,-0.16927 -0.23437,-0.0586 -0.52083,-0.0586 -1.01562,0 -1.5625,0.66406 -0.54036,0.65755 -0.54036,1.89453 v 3.84113 h -1.20443 v -7.29165 h 1.20443 v 1.13281 q 0.3776,-0.66406 0.98307,-0.98307 0.60547,-0.32552 1.47135,-0.32552 0.1237,0 0.27344,0.0195 0.14974,0.013 0.33203,0.0456 z m 7.2005,2.22656 v 0.58594 h -5.5078 q 0.0781,1.23697 0.74219,1.88801 0.67057,0.64453 1.86197,0.64453 0.6901,0 1.33463,-0.16927 0.65104,-0.16927 1.28906,-0.50781 v 1.13281 q -0.64453,0.27344 -1.32161,0.41667 -0.67708,0.14322 -1.37369,0.14322 -1.74479,0 -2.76692,-1.01562 -1.01562,-1.01562 -1.01562,-2.74739 0,-1.79036 0.96353,-2.83853 0.97005,-1.05469 2.61067,-1.05469 1.47136,0 2.32422,0.95052 0.85937,0.94401 0.85937,2.57161 z m -1.19791,-0.35156 q -0.013,-0.98307 -0.55339,-1.56901 -0.53385,-0.58593 -1.41926,-0.58593 -1.00261,0 -1.60807,0.5664 -0.59896,0.56641 -0.69011,1.59505 z m 8.58722,-5.06509 v 2.0703 h 2.46744 v 0.93099 h -2.46744 v 3.95833 q 0,0.89192 0.24088,1.14583 0.2474,0.2539 0.99609,0.2539 h 1.23047 v 1.0026 h -1.23047 q -1.38671,0 -1.91406,-0.51432 -0.52734,-0.52083 -0.52734,-1.88801 v -3.95833 h -0.8789 v -0.93099 h 0.8789 v -2.0703 z m 7.0768,10.03903 q -0.50781,1.30208 -0.98958,1.69922 -0.48177,0.39713 -1.28906,0.39713 H 958.505 v -1.0026 h 0.70313 q 0.49479,0 0.76822,-0.23437 0.27344,-0.23438 0.60547,-1.10677 l 0.21484,-0.54687 -2.94921,-7.17447 h 1.26953 l 2.27864,5.70312 2.27864,-5.70312 h 1.26953 z m 6.01561,-1.77082 v 3.86717 h -1.20443 v -10.06508 h 1.20443 v 1.10677 q 0.3776,-0.65104 0.95052,-0.96354 0.57942,-0.31901 1.3802,-0.31901 1.32812,0 2.15494,1.05469 0.83333,1.05468 0.83333,2.77343 0,1.71875 -0.83333,2.77343 -0.82682,1.05468 -2.15494,1.05468 -0.80078,0 -1.3802,-0.31249 -0.57292,-0.31901 -0.95052,-0.97005 z m 4.07551,-2.54557 q 0,-1.32161 -0.54688,-2.07031 -0.54036,-0.7552 -1.49088,-0.7552 -0.95052,0 -1.49739,0.7552 -0.54036,0.7487 -0.54036,2.07031 0,1.32161 0.54036,2.07682 0.54687,0.74869 1.49739,0.74869 0.95052,0 1.49088,-0.74869 0.54688,-0.75521 0.54688,-2.07682 z m 9.46612,-0.30599 v 0.58594 h -5.50779 q 0.0781,1.23697 0.74218,1.88801 0.67057,0.64453 1.86198,0.64453 0.6901,0 1.33463,-0.16927 0.65104,-0.16927 1.28906,-0.50781 v 1.13281 q -0.64453,0.27344 -1.32161,0.41667 -0.67709,0.14322 -1.3737,0.14322 -1.74479,0 -2.76692,-1.01562 -1.01562,-1.01562 -1.01562,-2.74739 0,-1.79036 0.96354,-2.83853 0.97005,-1.05469 2.61067,-1.05469 1.47135,0 2.32421,0.95052 0.85937,0.94401 0.85937,2.57161 z M 980.1,568.76405 q -0.013,-0.98307 -0.55338,-1.56901 -0.53386,-0.58593 -1.41927,-0.58593 -1.0026,0 -1.60807,0.5664 -0.59896,0.56641 -0.6901,1.59505 z"
           id="text11-9-0-0-9-2-2-6"
           style="font-weight:500;font-size:13.3333px;font-family:Montserrat;-inkscape-font-specification:'Montserrat, Medium';white-space:pre;inline-size:202.099;fill:#3e4349;stroke-width:3.21325;stroke-linecap:round;stroke-linejoin:round;paint-order:markers fill stroke"
           transform="matrix(1.1850569,0,0,1.5506213,-446.49347,-28.103668)"
           aria-label="- signature type" /><path
           d="m 876.77995,568.87473 h 3.5091 v 1.0677 h -3.5091 z m 12.96871,0.52083 q -1.45182,0 -2.01171,0.33203 -0.55989,0.33203 -0.55989,1.13281 0,0.63802 0.41666,1.01562 0.42318,0.37109 1.14583,0.37109 0.99609,0 1.59505,-0.70312 0.60547,-0.70963 0.60547,-1.88151 v -0.26692 z m 2.38932,-0.49479 v 4.16014 h -1.19791 v -1.10676 q -0.41016,0.66406 -1.02214,0.98307 -0.61197,0.31249 -1.49739,0.31249 -1.11979,0 -1.78385,-0.62499 -0.65755,-0.63151 -0.65755,-1.6862 0,-1.23046 0.82031,-1.85546 0.82682,-0.625 2.46093,-0.625 h 1.67969 v -0.11719 q 0,-0.82682 -0.54688,-1.27604 -0.54036,-0.45572 -1.52343,-0.45572 -0.625,0 -1.21745,0.14974 -0.59244,0.14973 -1.13932,0.44921 v -1.10676 q 0.65756,-0.25391 1.27604,-0.37761 0.61849,-0.13021 1.20443,-0.13021 1.58202,0 2.36327,0.82031 0.78125,0.82031 0.78125,2.48698 z m 7.26561,-2.02474 v -3.9453 h 1.19791 v 10.13018 h -1.19791 v -1.09374 q -0.37761,0.65104 -0.95703,0.97005 -0.57292,0.31249 -1.38021,0.31249 -1.32161,0 -2.15494,-1.05468 -0.82682,-1.05468 -0.82682,-2.77343 0,-1.71875 0.82682,-2.77343 0.83333,-1.05469 2.15494,-1.05469 0.80729,0 1.38021,0.31901 0.57942,0.3125 0.95703,0.96354 z m -4.08202,2.54557 q 0,1.32161 0.54036,2.07682 0.54687,0.74869 1.49739,0.74869 0.95052,0 1.49739,-0.74869 0.54688,-0.75521 0.54688,-2.07682 0,-1.32161 -0.54688,-2.07031 -0.54687,-0.7552 -1.49739,-0.7552 -0.95052,0 -1.49739,0.7552 -0.54036,0.7487 -0.54036,2.07031 z m 12.54554,-2.54557 v -3.9453 h 1.19791 v 10.13018 h -1.19791 v -1.09374 q -0.37761,0.65104 -0.95703,0.97005 -0.57292,0.31249 -1.38021,0.31249 -1.32161,0 -2.15494,-1.05468 -0.82682,-1.05468 -0.82682,-2.77343 0,-1.71875 0.82682,-2.77343 0.83333,-1.05469 2.15494,-1.05469 0.80729,0 1.38021,0.31901 0.57942,0.3125 0.95703,0.96354 z m -4.08202,2.54557 q 0,1.32161 0.54036,2.07682 0.54687,0.74869 1.49739,0.74869 0.95052,0 1.49739,-0.74869 0.54688,-0.75521 0.54688,-2.07682 0,-1.32161 -0.54688,-2.07031 -0.54687,-0.7552 -1.49739,-0.7552 -0.95052,0 -1.49739,0.7552 -0.54036,0.7487 -0.54036,2.07031 z m 7.74737,-3.65234 h 1.19792 v 7.29165 h -1.19792 z m 0,-2.83853 h 1.19792 v 1.51692 h -1.19792 z m 4.88931,0.76823 v 2.0703 h 2.46745 v 0.93099 h -2.46745 v 3.95833 q 0,0.89192 0.24089,1.14583 0.24739,0.2539 0.99609,0.2539 h 1.23047 v 1.0026 h -1.23047 q -1.38672,0 -1.91406,-0.51432 -0.52734,-0.52083 -0.52734,-1.88801 v -3.95833 h -0.8789 v -0.93099 h 0.8789 v -2.0703 z m 4.04296,2.0703 h 1.19792 v 7.29165 h -1.19792 z m 0,-2.83853 h 1.19792 v 1.51692 h -1.19792 z m 6.52993,3.67838 q -0.96353,0 -1.52343,0.7552 -0.55989,0.7487 -0.55989,2.05729 0,1.30859 0.55338,2.0638 0.55989,0.74869 1.52994,0.74869 0.95703,0 1.51693,-0.7552 0.55989,-0.75521 0.55989,-2.05729 0,-1.29557 -0.55989,-2.05078 -0.5599,-0.76171 -1.51693,-0.76171 z m 0,-1.01563 q 1.5625,0 2.45443,1.01563 0.89192,1.01562 0.89192,2.81249 0,1.79036 -0.89192,2.81249 -0.89193,1.01562 -2.45443,1.01562 -1.569,0 -2.46093,-1.01562 -0.88541,-1.02213 -0.88541,-2.81249 0,-1.79687 0.88541,-2.81249 0.89193,-1.01563 2.46093,-1.01563 z m 11.39321,3.0664 v 4.40103 h -1.19792 v -4.36197 q 0,-1.03515 -0.40364,-1.54947 -0.40365,-0.51432 -1.21094,-0.51432 -0.97005,0 -1.52994,0.61849 -0.5599,0.61848 -0.5599,1.68619 v 4.12108 h -1.20442 v -7.29165 h 1.20442 v 1.13281 q 0.42969,-0.65755 1.00912,-0.98307 0.58593,-0.32552 1.34765,-0.32552 1.25651,0 1.90104,0.78125 0.64453,0.77474 0.64453,2.28515 z m 5.7031,0.73568 q -1.45182,0 -2.01171,0.33203 -0.5599,0.33203 -0.5599,1.13281 0,0.63802 0.41667,1.01562 0.42318,0.37109 1.14583,0.37109 0.99609,0 1.59505,-0.70312 0.60547,-0.70963 0.60547,-1.88151 v -0.26692 z m 2.38932,-0.49479 v 4.16014 h -1.19791 v -1.10676 q -0.41016,0.66406 -1.02214,0.98307 -0.61197,0.31249 -1.49739,0.31249 -1.11979,0 -1.78385,-0.62499 -0.65755,-0.63151 -0.65755,-1.6862 0,-1.23046 0.82031,-1.85546 0.82682,-0.625 2.46093,-0.625 h 1.67969 v -0.11719 q 0,-0.82682 -0.54688,-1.27604 -0.54036,-0.45572 -1.52343,-0.45572 -0.625,0 -1.21745,0.14974 -0.59244,0.14973 -1.13932,0.44921 v -1.10676 q 0.65755,-0.25391 1.27604,-0.37761 0.61849,-0.13021 1.20443,-0.13021 1.58202,0 2.36327,0.82031 0.78125,0.82031 0.78125,2.48698 z m 2.46744,-5.97004 h 1.19791 v 10.13018 h -1.19791 z m 13.61976,4.23827 q 0.44921,-0.80729 1.07421,-1.1914 0.625,-0.38412 1.47135,-0.38412 1.13932,0 1.75781,0.80078 0.61849,0.79427 0.61849,2.26562 v 4.40103 h -1.20442 v -4.36197 q 0,-1.04817 -0.3711,-1.55598 -0.37109,-0.50781 -1.13281,-0.50781 -0.93098,0 -1.47135,0.61849 -0.54036,0.61848 -0.54036,1.68619 v 4.12108 h -1.20442 v -4.36197 q 0,-1.05468 -0.3711,-1.55598 -0.37109,-0.50781 -1.14583,-0.50781 -0.91796,0 -1.45833,0.625 -0.54036,0.61848 -0.54036,1.67968 v 4.12108 h -1.20442 v -7.29165 h 1.20442 v 1.13281 q 0.41015,-0.67057 0.98307,-0.98958 0.57292,-0.31901 1.36067,-0.31901 0.79427,0 1.34766,0.40365 0.55989,0.40364 0.82682,1.17187 z m 13.54814,1.94661 v 0.58594 h -5.5078 q 0.0781,1.23697 0.74219,1.88801 0.67057,0.64453 1.86197,0.64453 0.69011,0 1.33464,-0.16927 0.65104,-0.16927 1.28906,-0.50781 v 1.13281 q -0.64453,0.27344 -1.32162,0.41667 -0.67708,0.14322 -1.37369,0.14322 -1.74479,0 -2.76692,-1.01562 -1.01562,-1.01562 -1.01562,-2.74739 0,-1.79036 0.96354,-2.83853 0.97005,-1.05469 2.61067,-1.05469 1.47135,0 2.32421,0.95052 0.85937,0.94401 0.85937,2.57161 z m -1.19791,-0.35156 q -0.013,-0.98307 -0.55339,-1.56901 -0.53385,-0.58593 -1.41926,-0.58593 -1.0026,0 -1.60807,0.5664 -0.59896,0.56641 -0.6901,1.59505 z m 4.34894,-5.06509 v 2.0703 h 2.46745 v 0.93099 h -2.46745 v 3.95833 q 0,0.89192 0.24089,1.14583 0.24739,0.2539 0.99609,0.2539 h 1.23047 v 1.0026 h -1.23047 q -1.38672,0 -1.91406,-0.51432 -0.52734,-0.52083 -0.52734,-1.88801 v -3.95833 h -0.8789 v -0.93099 h 0.8789 v -2.0703 z m 7.35676,5.6966 q -1.45182,0 -2.01172,0.33203 -0.55989,0.33203 -0.55989,1.13281 0,0.63802 0.41666,1.01562 0.42318,0.37109 1.14583,0.37109 0.9961,0 1.59505,-0.70312 0.60547,-0.70963 0.60547,-1.88151 v -0.26692 z m 2.38931,-0.49479 v 4.16014 h -1.19791 v -1.10676 q -0.41016,0.66406 -1.02213,0.98307 -0.61198,0.31249 -1.49739,0.31249 -1.11979,0 -1.78385,-0.62499 -0.65755,-0.63151 -0.65755,-1.6862 0,-1.23046 0.82031,-1.85546 0.82682,-0.625 2.46093,-0.625 h 1.67968 v -0.11719 q 0,-0.82682 -0.54687,-1.27604 -0.54037,-0.45572 -1.52344,-0.45572 -0.625,0 -1.21744,0.14974 -0.59245,0.14973 -1.13932,0.44921 v -1.10676 q 0.65755,-0.25391 1.27604,-0.37761 0.61848,-0.13021 1.20442,-0.13021 1.58203,0 2.36328,0.82031 0.78124,0.82031 0.78124,2.48698 z m 7.26561,-2.02474 v -3.9453 h 1.19792 v 10.13018 h -1.19792 v -1.09374 q -0.3776,0.65104 -0.95703,0.97005 -0.57291,0.31249 -1.3802,0.31249 -1.32161,0 -2.15494,-1.05468 -0.82682,-1.05468 -0.82682,-2.77343 0,-1.71875 0.82682,-2.77343 0.83333,-1.05469 2.15494,-1.05469 0.80729,0 1.3802,0.31901 0.57943,0.3125 0.95703,0.96354 z m -4.08202,2.54557 q 0,1.32161 0.54037,2.07682 0.54687,0.74869 1.49739,0.74869 0.95052,0 1.49739,-0.74869 0.54687,-0.75521 0.54687,-2.07682 0,-1.32161 -0.54687,-2.07031 -0.54687,-0.7552 -1.49739,-0.7552 -0.95052,0 -1.49739,0.7552 -0.54037,0.7487 -0.54037,2.07031 z m 11.06118,-0.026 q -1.4518,0 -2.0117,0.33203 -0.5599,0.33203 -0.5599,1.13281 0,0.63802 0.4166,1.01562 0.4232,0.37109 1.1459,0.37109 0.9961,0 1.595,-0.70312 0.6055,-0.70963 0.6055,-1.88151 v -0.26692 z m 2.3893,-0.49479 v 4.16014 h -1.1979 v -1.10676 q -0.4102,0.66406 -1.0221,0.98307 -0.612,0.31249 -1.4974,0.31249 -1.1198,0 -1.7839,-0.62499 -0.65753,-0.63151 -0.65753,-1.6862 0,-1.23046 0.82033,-1.85546 0.8268,-0.625 2.4609,-0.625 h 1.6797 v -0.11719 q 0,-0.82682 -0.5469,-1.27604 -0.5403,-0.45572 -1.5234,-0.45572 -0.625,0 -1.2175,0.14974 -0.5924,0.14973 -1.1393,0.44921 v -1.10676 q 0.6576,-0.25391 1.2761,-0.37761 0.6184,-0.13021 1.2044,-0.13021 1.582,0 2.3633,0.82031 0.7812,0.82031 0.7812,2.48698 z m 3.6523,-5.20181 v 2.0703 h 2.4675 v 0.93099 h -2.4675 v 3.95833 q 0,0.89192 0.2409,1.14583 0.2474,0.2539 0.9961,0.2539 h 1.2305 v 1.0026 h -1.2305 q -1.3867,0 -1.914,-0.51432 -0.5274,-0.52083 -0.5274,-1.88801 v -3.95833 h -0.8789 v -0.93099 h 0.8789 v -2.0703 z m 7.3568,5.6966 q -1.4518,0 -2.0117,0.33203 -0.5599,0.33203 -0.5599,1.13281 0,0.63802 0.4167,1.01562 0.4231,0.37109 1.1458,0.37109 0.9961,0 1.595,-0.70312 0.6055,-0.70963 0.6055,-1.88151 v -0.26692 z m 2.3893,-0.49479 v 4.16014 h -1.1979 v -1.10676 q -0.4101,0.66406 -1.0221,0.98307 -0.612,0.31249 -1.4974,0.31249 -1.1198,0 -1.7839,-0.62499 -0.6575,-0.63151 -0.6575,-1.6862 0,-1.23046 0.8203,-1.85546 0.8268,-0.625 2.4609,-0.625 h 1.6797 v -0.11719 q 0,-0.82682 -0.5469,-1.27604 -0.5403,-0.45572 -1.5234,-0.45572 -0.625,0 -1.2174,0.14974 -0.5925,0.14973 -1.1394,0.44921 v -1.10676 q 0.6576,-0.25391 1.2761,-0.37761 0.6185,-0.13021 1.2044,-0.13021 1.582,0 2.3633,0.82031 0.7812,0.82031 0.7812,2.48698 z"
           id="text11-9-0-0-9-2-8-5-4"
           style="font-weight:500;font-size:13.3333px;font-family:Montserrat;-inkscape-font-specification:'Montserrat, Medium';white-space:pre;inline-size:202.099;fill:#3e4349;stroke-width:3.21325;stroke-linecap:round;stroke-linejoin:round;paint-order:markers fill stroke"
           transform="matrix(1.1850569,0,0,1.5506213,-445.46666,5.8811787)"
           aria-label="- additional metadata" /></g><g
         id="g10-8-7-3-0-2"
         transform="matrix(0.36466383,0.22082643,-0.22082643,0.36466383,2968.2623,-1568.247)"
         style="display:inline;fill:#c83737;stroke-width:1.7;stroke-dasharray:none"><circle
           style="fill:#ffffff;fill-opacity:1;stroke:none;stroke-width:14.841;stroke-linecap:square;stroke-dasharray:none;stroke-dashoffset:0;stroke-opacity:1;paint-order:fill markers stroke"
           id="path73-6-7-4-7"
           cx="228.22922"
           cy="841.32001"
           transform="rotate(0.01535728)"
           r="33.171581" /><path
           id="path3-6-9-0-8-0"
           style="font-variation-settings:'wght' 700;fill:none;stroke:#195962;stroke-width:6.40174;stroke-linecap:round;stroke-linejoin:round;paint-order:markers fill stroke"
           d="m 563.52509,693.28894 a 35.520878,35.520878 0 0 1 -35.52088,35.52088 35.520878,35.520878 0 0 1 -35.52088,-35.52088 35.520878,35.520878 0 0 1 35.52088,-35.52088 35.520878,35.520878 0 0 1 35.52088,35.52088 z"
           transform="rotate(22.152263)" /><g
           id="g9-2-1-6-0-3"
           transform="translate(-1.3219444,-1.6027733)"><path
             d="m 221.1513,845.27224 c 0.0245,1.19424 -0.23692,2.22055 -0.78414,3.07896 -0.54765,0.83668 -1.38159,1.48371 -2.5018,1.94111 -1.12021,0.45737 -2.51629,0.70319 -4.18825,0.73743 -1.23765,0.0254 -2.3034,-0.0398 -3.19722,-0.19519 -0.40967,-0.0614 -0.81981,-0.1454 -1.2304,-0.25248 -0.81861,-0.21326 -1.47042,-1.16054 -1.48776,-2.00679 l -0.0193,-0.94161 c -0.0173,-0.84625 0.59808,-1.25531 1.40189,-0.99093 0.54067,0.1779 1.10164,0.33456 1.68292,0.47012 1.11318,0.2596 2.09317,0.38071 2.94,0.36338 0.95541,-0.0196 1.62563,-0.17459 2.01069,-0.46476 0.40678,-0.29073 0.6055,-0.66408 0.59616,-1.12009 -0.006,-0.30395 -0.0986,-0.57361 -0.27724,-0.80889 -0.15687,-0.23564 -0.50985,-0.50005 -1.05893,-0.79293 -0.54906,-0.29285 -1.40389,-0.66636 -2.56449,-1.1205 -1.11717,-0.45504 -2.0387,-0.90321 -2.76459,-1.3445 -0.72633,-0.46305 -1.26988,-1.0167 -1.63063,-1.66098 -0.36121,-0.66602 -0.55204,-1.49842 -0.57249,-2.49726 -0.0338,-1.65022 0.58141,-2.901 1.84562,-3.75236 1.2642,-0.85137 2.96027,-1.29882 5.08819,-1.3424 1.1074,-0.0227 2.16274,0.0643 3.166,0.26099 0.55248,0.10835 1.1157,0.25922 1.68968,0.45273 0.80179,0.27028 1.17351,1.19658 0.86143,1.98335 l -0.26453,0.66566 c -0.31266,0.78654 -1.20031,1.16326 -2.0021,0.89235 -0.36088,-0.12188 -0.71322,-0.23163 -1.057,-0.32905 -0.78701,-0.24462 -1.58224,-0.35863 -2.38563,-0.34218 -0.71656,0.0147 -1.25739,0.12356 -1.62252,0.32648 -0.34343,0.20264 -0.51112,0.49924 -0.50312,0.89009 0.006,0.28225 0.098,0.54105 0.27657,0.77636 0.19986,0.21314 0.56303,0.44464 1.0895,0.69452 0.54818,0.24942 1.34781,0.58068 2.39896,0.99362 1.029,0.39161 1.91729,0.80789 2.66487,1.24877 0.74715,0.41919 1.32306,0.96129 1.72768,1.62641 0.4259,0.64296 0.64974,1.49642 0.67154,2.5604 z m 8.40639,-11.1515 0.30142,14.71885 c 0.0173,0.84626 -0.6546,1.54635 -1.5009,1.56367 l -1.78842,0.0366 c -0.84626,0.0173 -1.54635,-0.6546 -1.56367,-1.5009 l -0.30141,-14.71886 c -0.0173,-0.84627 0.6546,-1.54636 1.5009,-1.56367 l 1.78841,-0.0366 c 0.84627,-0.0173 1.54636,0.6546 1.56367,1.50092 z m -2.58432,-8.45298 c 0.71654,-0.0147 1.33892,0.1463 1.86718,0.48309 0.52779,0.31507 0.80102,0.92856 0.8197,1.8405 0.0182,0.89027 -0.22965,1.51444 -0.74357,1.87258 -0.51404,0.35807 -1.12931,0.54445 -1.84585,0.55913 -0.73826,0.0151 -1.37152,-0.14564 -1.89976,-0.48242 -0.50653,-0.33721 -0.7689,-0.95093 -0.78714,-1.84119 -0.0187,-0.91197 0.21837,-1.53591 0.71111,-1.87186 0.51401,-0.35808 1.14015,-0.54469 1.87841,-0.5598 z m 13.39221,6.37288 c 1.08569,-0.0222 2.06723,0.17489 2.94469,0.5914 0.87743,0.41649 1.62903,1.05274 2.25479,1.90885 l 0.13022,-0.003 c 0.053,-1.62151 0.92731,-2.07451 1.82469,-2.0929 l 1.0393,-0.0213 c 0.84625,-0.0173 1.54634,0.6546 1.56365,1.50091 l 0.14972,16.1761 c 0.006,0.63934 -0.23499,1.62306 -0.66503,2.2835 -0.43004,0.66044 -1.6198,1.93803 -2.93234,2.55141 -1.31208,0.63511 -2.94522,0.97267 -4.89944,1.0127 -1.2594,0.0258 -2.43346,-0.0261 -3.52226,-0.15591 -0.5644,-0.0688 -1.12339,-0.17137 -1.677,-0.30716 -0.82165,-0.20163 -1.4805,-1.1291 -1.49782,-1.97537 l -0.0166,-0.8113 c -0.0173,-0.84624 0.6054,-1.27193 1.41728,-1.03366 0.63265,0.18566 1.27493,0.33315 1.92677,0.44237 1.17744,0.21474 2.3741,0.30981 3.59007,0.28491 1.25939,-0.0258 1.98092,-0.20257 2.81336,-0.83044 0.83244,-0.62787 0.89293,-1.80789 0.88606,-2.76748 -0.007,-0.9596 -0.0109,-0.89572 0.005,-1.20015 l -0.093,0.14247 c -0.58885,0.94616 -1.30245,1.63415 -2.14085,2.06405 -0.8384,0.4299 -1.78955,0.65574 -2.85352,0.67753 -2.10622,0.0431 -3.77289,-0.72647 -5.00005,-2.30882 -1.2059,-1.60451 -1.8384,-3.85073 -1.89754,-6.73862 -0.0596,-2.90961 0.50192,-5.19113 1.68453,-6.84455 1.18262,-1.65342 2.83789,-2.50193 4.96582,-2.54551 z m 1.61152,3.90968 c -0.75999,0.0156 -1.3963,0.235 -1.90898,0.65818 -0.4914,0.40107 -0.85915,1.00596 -1.10329,1.81472 -0.22283,0.78655 -0.32202,1.77699 -0.29756,2.97124 0.0365,1.78052 0.34608,3.1101 0.92888,3.9888 0.58233,0.85699 1.47062,1.27326 2.66486,1.2488 0.62971,-0.0129 1.17099,-0.0999 1.62385,-0.2613 0.45245,-0.18299 0.81602,-0.46201 1.09073,-0.83695 0.29598,-0.39705 0.51374,-0.90114 0.65333,-1.5122 0.1396,-0.6111 0.20037,-1.3509 0.18258,-2.21946 l -0.012,-0.58626 c -0.0262,-1.2811 -0.17753,-2.30982 -0.4542,-3.08619 -0.27657,-0.77636 -0.68982,-1.33268 -1.23979,-1.66898 -0.55038,-0.358 -1.25984,-0.52813 -2.12841,-0.51033 z"
             style="font-size:13.2602px;font-family:'Noto Sans';-inkscape-font-specification:'Noto Sans, @wght=700';font-variation-settings:'wght' 700;display:inline;fill:#195962;stroke-width:10.8591;stroke-linecap:round;stroke-linejoin:round;paint-order:markers fill stroke"
             id="path1-2-8-1-9-4-4" /><path
             id="path4-4-9-2-29-6"
             style="font-variation-settings:'wght' 700;display:inline;fill:none;stroke:#195962;stroke-width:3.64767;stroke-linecap:round;stroke-linejoin:round;stroke-opacity:1;paint-order:markers fill stroke"
             d="m 208.35953,828.56065 c 4.20155,-6.40232 11.67933,-11.91499 20.19969,-11.73012 8.20624,0.17805 13.83263,3.91368 19.70116,9.24107" /><path
             id="path4-6-7-0-1-61-3"
             style="font-variation-settings:'wght' 700;display:inline;fill:none;stroke:#195962;stroke-width:3.64767;stroke-linecap:round;stroke-linejoin:round;stroke-opacity:1;paint-order:markers fill stroke"
             d="m 248.51397,859.76996 c -5.73327,5.42971 -12.71409,8.56595 -19.29605,9.02109 -8.96638,0.62002 -15.41863,-3.91867 -20.7683,-10.62518" /></g></g><rect
         style="display:inline;fill:none;fill-opacity:1;stroke:#195962;stroke-width:1.28313;stroke-linecap:butt;stroke-linejoin:miter;stroke-dasharray:2.56625, 2.56625;stroke-dashoffset:0;stroke-opacity:1;paint-order:fill markers stroke"
         id="rect66-2-9-0-2"
         width="226.51097"
         height="151.81158"
         x="2657.8003"
         y="-1278.835"
         ry="0" /><path
         d="m 884.11717,563.64687 v 2.05729 q -0.80078,-0.35807 -1.5625,-0.54036 -0.76172,-0.18229 -1.4388,-0.18229 -0.89843,0 -1.32812,0.24739 -0.42969,0.2474 -0.42969,0.76823 0,0.39062 0.28646,0.61198 0.29297,0.21484 1.05469,0.37109 l 1.0677,0.21484 q 1.62109,0.32552 2.30468,0.98958 0.6836,0.66406 0.6836,1.88802 0,1.60807 -0.95703,2.39583 -0.95052,0.78124 -2.91015,0.78124 -0.92448,0 -1.85547,-0.17578 -0.93098,-0.17578 -1.86197,-0.52083 v -2.11588 q 0.93099,0.49479 1.79687,0.7487 0.87239,0.24739 1.67968,0.24739 0.82031,0 1.25651,-0.27343 0.4362,-0.27344 0.4362,-0.78125 0,-0.45573 -0.29948,-0.70313 -0.29297,-0.24739 -1.17838,-0.4427 l -0.97005,-0.21485 q -1.45833,-0.31249 -2.13541,-0.99609 -0.67057,-0.68359 -0.67057,-1.84244 0,-1.45182 0.93749,-2.23307 0.9375,-0.78125 2.69531,-0.78125 0.80078,0 1.64713,0.1237 0.84635,0.11719 1.7513,0.35807 z m 2.73437,2.12239 h 2.33072 v 7.29165 h -2.33072 z m 0,-2.83853 h 2.33072 v 1.90104 h -2.33072 z m 9.53122,8.89321 q -0.48177,0.63802 -1.06119,0.93749 -0.57943,0.29948 -1.34115,0.29948 -1.33463,0 -2.20702,-1.04817 -0.8724,-1.05469 -0.8724,-2.68229 0,-1.63411 0.8724,-2.67577 0.87239,-1.04818 2.20702,-1.04818 0.76172,0 1.34115,0.29948 0.57942,0.29948 1.06119,0.94401 v -1.08073 h 2.34375 v 6.55598 q 0,1.75781 -1.11328,2.68228 -1.10677,0.93099 -3.21614,0.93099 -0.68359,0 -1.32161,-0.10417 -0.63802,-0.10416 -1.28255,-0.31901 v -1.8164 q 0.61198,0.35156 1.19791,0.52083 0.58594,0.17579 1.17839,0.17579 1.14583,0 1.67968,-0.50131 0.53385,-0.5013 0.53385,-1.569 z m -1.53645,-4.53775 q -0.72266,0 -1.1263,0.53385 -0.40365,0.53385 -0.40365,1.51041 0,1.00261 0.39063,1.52344 0.39062,0.51432 1.13932,0.51432 0.72916,0 1.13281,-0.53385 0.40364,-0.53386 0.40364,-1.50391 0,-0.97656 -0.40364,-1.51041 -0.40365,-0.53385 -1.13281,-0.53385 z m 13.45048,1.33463 v 4.44009 h -2.34374 v -0.72265 -2.67578 q 0,-0.944 -0.0456,-1.30208 -0.0391,-0.35807 -0.14323,-0.52734 -0.13672,-0.22786 -0.37109,-0.35156 -0.23438,-0.13021 -0.53386,-0.13021 -0.72916,0 -1.14583,0.56641 -0.41666,0.55989 -0.41666,1.55598 v 3.58723 h -2.33073 v -7.29165 h 2.33073 v 1.06771 q 0.52734,-0.63802 1.11979,-0.9375 0.59244,-0.30599 1.30859,-0.30599 1.26301,0 1.91405,0.77474 0.65755,0.77474 0.65755,2.2526 z m 5.42968,1.15885 q -0.72917,0 -1.10026,0.2474 -0.36458,0.24739 -0.36458,0.72916 0,0.44271 0.29297,0.69661 0.29948,0.2474 0.82682,0.2474 0.65755,0 1.10677,-0.46875 0.44921,-0.47526 0.44921,-1.18489 v -0.26693 z m 3.56119,-0.8789 v 4.16014 h -2.35026 v -1.08072 q -0.46875,0.66406 -1.05468,0.97005 -0.58594,0.29947 -1.42578,0.29947 -1.13281,0 -1.84244,-0.65755 -0.70313,-0.66406 -0.70313,-1.71874 0,-1.28255 0.87891,-1.88151 0.88541,-0.59895 2.77343,-0.59895 h 1.37369 v -0.1823 q 0,-0.55338 -0.43619,-0.80728 -0.4362,-0.26042 -1.36068,-0.26042 -0.74869,0 -1.39322,0.14974 -0.64453,0.14974 -1.19792,0.44922 v -1.77734 q 0.7487,-0.18229 1.50391,-0.27344 0.7552,-0.0977 1.51041,-0.0977 1.97265,0 2.84504,0.78125 0.87891,0.77474 0.87891,2.52604 z m 4.71353,-5.20181 v 2.0703 h 2.40233 v 1.66667 h -2.40233 v 3.09244 q 0,0.50781 0.20182,0.6901 0.20182,0.17578 0.80078,0.17578 h 1.19791 v 1.66666 h -1.99869 q -1.38021,0 -1.95963,-0.57291 -0.57292,-0.57943 -0.57292,-1.95963 v -3.09244 h -1.15885 v -1.66667 h 1.15885 v -2.0703 z m 3.74998,6.52342 v -4.45312 h 2.34375 v 0.72917 q 0,0.59245 -0.007,1.49088 -0.007,0.89193 -0.007,1.1914 0,0.87891 0.0456,1.26953 0.0456,0.38412 0.15625,0.5599 0.14323,0.22786 0.37109,0.35156 0.23438,0.1237 0.53386,0.1237 0.72916,0 1.14583,-0.5599 0.41666,-0.55989 0.41666,-1.55598 v -3.60026 h 2.33073 v 7.29165 h -2.33073 v -1.05468 q -0.52734,0.63802 -1.11979,0.94401 -0.58593,0.29947 -1.29557,0.29947 -1.26301,0 -1.92707,-0.77473 -0.65756,-0.77474 -0.65756,-2.2526 z m 14.98695,-2.46744 q -0.30599,-0.14323 -0.61198,-0.20834 -0.29948,-0.0716 -0.60547,-0.0716 -0.89843,0 -1.38671,0.57943 -0.48177,0.57291 -0.48177,1.64713 v 3.35936 h -2.33073 v -7.29165 h 2.33073 v 1.19792 q 0.44922,-0.71615 1.02864,-1.04167 0.58594,-0.33203 1.39974,-0.33203 0.11718,0 0.2539,0.013 0.13672,0.007 0.39714,0.0391 z m 8.43748,1.64062 v 0.66406 h -5.44921 q 0.0846,0.82031 0.59245,1.23046 0.50781,0.41016 1.41927,0.41016 0.73567,0 1.5039,-0.21484 0.77474,-0.22136 1.58854,-0.66406 v 1.79687 q -0.82682,0.3125 -1.65364,0.46874 -0.82682,0.16276 -1.65364,0.16276 -1.97917,0 -3.07942,-1.0026 -1.09375,-1.00911 -1.09375,-2.82551 0,-1.78385 1.07421,-2.80598 1.08073,-1.02214 2.96875,-1.02214 1.71874,0 2.74739,1.03516 1.03515,1.03515 1.03515,2.76692 z m -2.39583,-0.77474 q 0,-0.66406 -0.39062,-1.06771 -0.38412,-0.41015 -1.00911,-0.41015 -0.67709,0 -1.10026,0.38411 -0.42318,0.37761 -0.52734,1.09375 z m 15.55986,-1.64062 q 0.44271,-0.67708 1.04817,-1.02864 0.61198,-0.35808 1.34114,-0.35808 1.25651,0 1.91406,0.77474 0.65755,0.77474 0.65755,2.2526 v 4.44009 h -2.34374 v -3.80207 q 0.007,-0.0846 0.007,-0.17578 0.007,-0.0912 0.007,-0.26042 0,-0.77474 -0.22786,-1.11979 -0.22787,-0.35156 -0.73568,-0.35156 -0.66406,0 -1.02864,0.54688 -0.35807,0.54687 -0.3711,1.58202 v 3.58072 h -2.34374 v -3.80207 q 0,-1.21094 -0.20833,-1.55599 -0.20834,-0.35156 -0.74219,-0.35156 -0.67057,0 -1.03515,0.55339 -0.36458,0.54687 -0.36458,1.569 v 3.58723 h -2.34375 v -7.29165 h 2.34375 v 1.06771 q 0.42968,-0.61849 0.98307,-0.93099 0.55989,-0.3125 1.23046,-0.3125 0.75521,0 1.33463,0.36459 0.57943,0.36458 0.87891,1.02213 z m 14.41403,2.41536 v 0.66406 h -5.44921 q 0.0846,0.82031 0.59245,1.23046 0.50781,0.41016 1.41926,0.41016 0.73568,0 1.50391,-0.21484 0.77473,-0.22136 1.58853,-0.66406 v 1.79687 q -0.82682,0.3125 -1.65364,0.46874 -0.82682,0.16276 -1.65364,0.16276 -1.97916,0 -3.07942,-1.0026 -1.09374,-1.00911 -1.09374,-2.82551 0,-1.78385 1.07421,-2.80598 1.08073,-1.02214 2.96874,-1.02214 1.71875,0 2.74739,1.03516 1.03516,1.03515 1.03516,2.76692 z m -2.39583,-0.77474 q 0,-0.66406 -0.39063,-1.06771 -0.38411,-0.41015 -1.00911,-0.41015 -0.67708,0 -1.10025,0.38411 -0.42318,0.37761 -0.52735,1.09375 z m 6.7057,-4.92186 v 2.0703 h 2.40234 v 1.66667 h -2.40234 v 3.09244 q 0,0.50781 0.20183,0.6901 0.20182,0.17578 0.80078,0.17578 h 1.19791 v 1.66666 h -1.99869 q -1.38021,0 -1.95963,-0.57291 -0.57292,-0.57943 -0.57292,-1.95963 v -3.09244 h -1.15885 v -1.66667 h 1.15885 v -2.0703 z m 7.09635,6.08071 q -0.72917,0 -1.10026,0.2474 -0.36458,0.24739 -0.36458,0.72916 0,0.44271 0.29296,0.69661 0.29948,0.2474 0.82682,0.2474 0.65755,0 1.10677,-0.46875 0.44922,-0.47526 0.44922,-1.18489 v -0.26693 z m 3.56118,-0.8789 v 4.16014 h -2.35025 v -1.08072 q -0.46875,0.66406 -1.05468,0.97005 -0.58594,0.29947 -1.42578,0.29947 -1.13281,0 -1.84245,-0.65755 -0.70312,-0.66406 -0.70312,-1.71874 0,-1.28255 0.87891,-1.88151 0.88541,-0.59895 2.77343,-0.59895 h 1.37369 v -0.1823 q 0,-0.55338 -0.4362,-0.80728 -0.43619,-0.26042 -1.36067,-0.26042 -0.7487,0 -1.39323,0.14974 -0.64453,0.14974 -1.19791,0.44922 v -1.77734 q 0.7487,-0.18229 1.5039,-0.27344 0.75521,-0.0977 1.51042,-0.0977 1.97265,0 2.84504,0.78125 0.8789,0.77474 0.8789,2.52604 z m 7.12889,-2.0638 v -3.90624 h 2.34375 v 10.13018 h -2.34375 v -1.05468 q -0.48177,0.64453 -1.0612,0.94401 -0.57942,0.29947 -1.34114,0.29947 -1.34765,0 -2.21354,-1.0677 -0.86588,-1.07422 -0.86588,-2.76041 0,-1.68619 0.86588,-2.7539 0.86589,-1.07422 2.21354,-1.07422 0.75521,0 1.33463,0.30599 0.58594,0.29948 1.06771,0.9375 z m -1.53646,4.72004 q 0.7487,0 1.13932,-0.54687 0.39714,-0.54688 0.39714,-1.58854 0,-1.04166 -0.39714,-1.58854 -0.39062,-0.54687 -1.13932,-0.54687 -0.74218,0 -1.13932,0.54687 -0.39062,0.54688 -0.39062,1.58854 0,1.04166 0.39062,1.58854 0.39714,0.54687 1.13932,0.54687 z m 9.38801,-1.77734 q -0.7292,0 -1.1003,0.2474 -0.3645,0.24739 -0.3645,0.72916 0,0.44271 0.2929,0.69661 0.2995,0.2474 0.8268,0.2474 0.6576,0 1.1068,-0.46875 0.4492,-0.47526 0.4492,-1.18489 v -0.26693 z m 3.5612,-0.8789 v 4.16014 h -2.3503 v -1.08072 q -0.4687,0.66406 -1.0547,0.97005 -0.5859,0.29947 -1.4257,0.29947 -1.1328,0 -1.8425,-0.65755 -0.7031,-0.66406 -0.7031,-1.71874 0,-1.28255 0.8789,-1.88151 0.8854,-0.59895 2.7734,-0.59895 h 1.3737 v -0.1823 q 0,-0.55338 -0.4362,-0.80728 -0.4362,-0.26042 -1.3606,-0.26042 -0.7487,0 -1.3933,0.14974 -0.6445,0.14974 -1.1979,0.44922 v -1.77734 q 0.7487,-0.18229 1.5039,-0.27344 0.7552,-0.0977 1.5104,-0.0977 1.9727,0 2.8451,0.78125 0.8789,0.77474 0.8789,2.52604 z m 4.7135,-5.20181 v 2.0703 h 2.4023 v 1.66667 h -2.4023 v 3.09244 q 0,0.50781 0.2018,0.6901 0.2019,0.17578 0.8008,0.17578 h 1.1979 v 1.66666 h -1.9987 q -1.3802,0 -1.9596,-0.57291 -0.5729,-0.57943 -0.5729,-1.95963 v -3.09244 h -1.1589 v -1.66667 h 1.1589 v -2.0703 z m 7.0963,6.08071 q -0.7291,0 -1.1002,0.2474 -0.3646,0.24739 -0.3646,0.72916 0,0.44271 0.293,0.69661 0.2995,0.2474 0.8268,0.2474 0.6575,0 1.1068,-0.46875 0.4492,-0.47526 0.4492,-1.18489 v -0.26693 z m 3.5612,-0.8789 v 4.16014 h -2.3502 v -1.08072 q -0.4688,0.66406 -1.0547,0.97005 -0.5859,0.29947 -1.4258,0.29947 -1.1328,0 -1.8424,-0.65755 -0.7031,-0.66406 -0.7031,-1.71874 0,-1.28255 0.8789,-1.88151 0.8854,-0.59895 2.7734,-0.59895 h 1.3737 v -0.1823 q 0,-0.55338 -0.4362,-0.80728 -0.4362,-0.26042 -1.3607,-0.26042 -0.7487,0 -1.3932,0.14974 -0.6445,0.14974 -1.1979,0.44922 v -1.77734 q 0.7487,-0.18229 1.5039,-0.27344 0.7552,-0.0977 1.5104,-0.0977 1.9726,0 2.845,0.78125 0.8789,0.77474 0.8789,2.52604 z"
         id="text11-9-0-0-9-2-5-9-1-5-6"
         style="font-weight:bold;font-size:13.3333px;font-family:Montserrat;-inkscape-font-specification:'Montserrat, Bold';white-space:pre;inline-size:202.099;fill:#3e4349;stroke-width:3.21325;stroke-linecap:round;stroke-linejoin:round;paint-order:markers fill stroke"
         transform="matrix(1.0006928,0,0,0.99930768,1826.1146,-1784.4127)"
         aria-label="Signature metadata" /><path
         style="font-weight:500;font-size:13.0667px;font-family:Montserrat;-inkscape-font-specification:'Montserrat Medium';fill:#3e4349;stroke-width:2.8271;stroke-linecap:round;stroke-linejoin:round;paint-order:markers fill stroke"
         d="m 2709.6812,-1260.8266 v 1.2569 q -0.7337,-0.3509 -1.3845,-0.5231 -0.6508,-0.1723 -1.2569,-0.1723 -1.0527,0 -1.627,0.4083 -0.5678,0.4084 -0.5678,1.1612 0,0.6317 0.3764,0.9571 0.3828,0.319 1.442,0.5168 l 0.7783,0.1595 q 1.442,0.2743 2.1247,0.9698 0.689,0.689 0.689,1.8502 0,1.3845 -0.9315,2.0991 -0.9251,0.7146 -2.718,0.7146 -0.6763,0 -1.4419,-0.1531 -0.7592,-0.1531 -1.5759,-0.453 v -1.3271 q 0.7848,0.4402 1.5376,0.6635 0.7529,0.2233 1.4802,0.2233 1.1038,0 1.7036,-0.4338 0.5997,-0.4339 0.5997,-1.2378 0,-0.7018 -0.4339,-1.0974 -0.4274,-0.3955 -1.41,-0.5933 l -0.7848,-0.1532 q -1.4419,-0.2871 -2.0863,-0.8996 -0.6444,-0.6125 -0.6444,-1.7035 0,-1.2633 0.8869,-1.9906 0.8932,-0.7274 2.4563,-0.7274 0.67,0 1.3654,0.1213 0.6955,0.1212 1.4228,0.3636 z m 2.533,2.0672 h 1.1739 v 7.1459 h -1.1739 z m 0,-2.7818 h 1.1739 v 1.4866 h -1.1739 z m 8.3325,6.2718 q 0,-1.276 -0.5295,-1.9779 -0.5232,-0.7018 -1.4739,-0.7018 -0.9442,0 -1.4738,0.7018 -0.5232,0.7019 -0.5232,1.9779 0,1.2697 0.5232,1.9715 0.5296,0.7018 1.4738,0.7018 0.9507,0 1.4739,-0.7018 0.5295,-0.7018 0.5295,-1.9715 z m 1.174,2.769 q 0,1.8248 -0.8103,2.7116 -0.8103,0.8933 -2.4819,0.8933 -0.6189,0 -1.1676,-0.096 -0.5487,-0.089 -1.0655,-0.2807 v -1.142 q 0.5168,0.2807 1.0208,0.4147 0.5041,0.134 1.0273,0.134 1.1548,0 1.729,-0.6062 0.5742,-0.5997 0.5742,-1.8183 v -0.5806 q -0.3636,0.6316 -0.9315,0.9442 -0.5678,0.3127 -1.359,0.3127 -1.3143,0 -2.1182,-1.0017 -0.8039,-1.0017 -0.8039,-2.6542 0,-1.6589 0.8039,-2.6605 0.8039,-1.0017 2.1182,-1.0017 0.7912,0 1.359,0.3126 0.5679,0.3126 0.9315,0.9443 v -1.0847 h 1.174 z m 8.3581,-3.4262 v 4.3131 h -1.174 v -4.2748 q 0,-1.0144 -0.3956,-1.5185 -0.3955,-0.504 -1.1867,-0.504 -0.9506,0 -1.4993,0.6061 -0.5487,0.6061 -0.5487,1.6525 v 4.0387 h -1.1804 v -7.1459 h 1.1804 v 1.1102 q 0.4211,-0.6444 0.9889,-0.9634 0.5742,-0.319 1.3207,-0.319 1.2314,0 1.863,0.7656 0.6317,0.7592 0.6317,2.2394 z m 5.5891,0.721 q -1.4228,0 -1.9715,0.3254 -0.5487,0.3254 -0.5487,1.1102 0,0.6252 0.4083,0.9953 0.4147,0.3636 1.1229,0.3636 0.9762,0 1.5632,-0.689 0.5933,-0.6955 0.5933,-1.8439 v -0.2616 z m 2.3415,-0.4849 v 4.077 h -1.174 v -1.0847 q -0.4019,0.6508 -1.0017,0.9635 -0.5997,0.3062 -1.4674,0.3062 -1.0974,0 -1.7482,-0.6125 -0.6444,-0.6189 -0.6444,-1.6525 0,-1.2058 0.8039,-1.8183 0.8103,-0.6125 2.4117,-0.6125 h 1.6461 v -0.1149 q 0,-0.8103 -0.5359,-1.2505 -0.5296,-0.4466 -1.493,-0.4466 -0.6125,0 -1.1931,0.1467 -0.5806,0.1468 -1.1165,0.4403 v -1.0847 q 0.6444,-0.2488 1.2505,-0.37 0.6061,-0.1276 1.1804,-0.1276 1.5503,0 2.316,0.8039 0.7656,0.8039 0.7656,2.4372 z m 3.5793,-5.0978 v 2.0289 h 2.4181 v 0.9124 h -2.4181 v 3.8792 q 0,0.8741 0.2361,1.1229 0.2424,0.2488 0.9761,0.2488 h 1.2059 v 0.9826 h -1.2059 q -1.3589,0 -1.8757,-0.5041 -0.5168,-0.5104 -0.5168,-1.8502 v -3.8792 h -0.8614 v -0.9124 h 0.8614 v -2.0289 z m 3.8409,6.3547 v -4.3258 h 1.174 v 4.2812 q 0,1.0144 0.3955,1.5248 0.3956,0.5041 1.1868,0.5041 0.9506,0 1.4993,-0.6062 0.5551,-0.6061 0.5551,-1.6524 v -4.0515 h 1.174 v 7.1459 h -1.174 v -1.0974 q -0.4275,0.6508 -0.9953,0.9698 -0.5615,0.3126 -1.308,0.3126 -1.2314,0 -1.8694,-0.7656 -0.638,-0.7657 -0.638,-2.2395 z m 2.954,-4.498 z m 9.5895,1.2696 q -0.1978,-0.1148 -0.4338,-0.1659 -0.2297,-0.057 -0.5104,-0.057 -0.9954,0 -1.5313,0.6508 -0.5296,0.6444 -0.5296,1.8566 v 3.7644 h -1.1803 v -7.1459 h 1.1803 v 1.1102 q 0.3701,-0.6508 0.9635,-0.9634 0.5933,-0.319 1.4419,-0.319 0.1212,0 0.268,0.019 0.1467,0.013 0.3253,0.045 z m 7.0566,2.1821 v 0.5742 h -5.3977 q 0.077,1.2122 0.7273,1.8502 0.6572,0.6317 1.8248,0.6317 0.6763,0 1.3079,-0.1659 0.638,-0.1659 1.2633,-0.4977 v 1.1102 q -0.6316,0.268 -1.2952,0.4083 -0.6635,0.1404 -1.3462,0.1404 -1.7099,0 -2.7116,-0.9953 -0.9953,-0.9953 -0.9953,-2.6925 0,-1.7545 0.9443,-2.7817 0.9506,-1.0336 2.5584,-1.0336 1.442,0 2.2778,0.9315 0.8422,0.9251 0.8422,2.5202 z m -1.174,-0.3446 q -0.013,-0.9634 -0.5423,-1.5376 -0.5232,-0.5742 -1.3909,-0.5742 -0.9826,0 -1.5759,0.5551 -0.587,0.555 -0.6763,1.5631 z m 10.0233,-2.1118 q -0.9442,0 -1.4929,0.7401 -0.5487,0.7337 -0.5487,2.0161 0,1.2825 0.5423,2.0226 0.5487,0.7337 1.4993,0.7337 0.9379,0 1.4866,-0.7401 0.5487,-0.7401 0.5487,-2.0162 0,-1.2696 -0.5487,-2.0097 -0.5487,-0.7465 -1.4866,-0.7465 z m 0,-0.9953 q 1.5313,0 2.4054,0.9953 0.8741,0.9953 0.8741,2.7562 0,1.7546 -0.8741,2.7563 -0.8741,0.9953 -2.4054,0.9953 -1.5376,0 -2.4117,-0.9953 -0.8677,-1.0017 -0.8677,-2.7563 0,-1.7609 0.8677,-2.7562 0.8741,-0.9953 2.4117,-0.9953 z m 4.3832,0.1722 h 1.2442 l 2.2331,5.9974 2.233,-5.9974 h 1.2442 l -2.6797,7.1459 h -1.5951 z m 14.6873,3.2795 v 0.5742 h -5.3977 q 0.077,1.2122 0.7274,1.8502 0.6572,0.6317 1.8247,0.6317 0.6763,0 1.308,-0.1659 0.638,-0.1659 1.2633,-0.4977 v 1.1102 q -0.6317,0.268 -1.2952,0.4083 -0.6636,0.1404 -1.3463,0.1404 -1.7099,0 -2.7115,-0.9953 -0.9954,-0.9953 -0.9954,-2.6925 0,-1.7545 0.9443,-2.7817 0.9507,-1.0336 2.5585,-1.0336 1.4419,0 2.2777,0.9315 0.8422,0.9251 0.8422,2.5202 z m -1.1739,-0.3446 q -0.013,-0.9634 -0.5424,-1.5376 -0.5231,-0.5742 -1.3909,-0.5742 -0.9825,0 -1.5759,0.5551 -0.587,0.555 -0.6763,1.5631 z m 7.2415,-1.8375 q -0.1978,-0.1148 -0.4338,-0.1659 -0.2297,-0.057 -0.5105,-0.057 -0.9953,0 -1.5312,0.6508 -0.5296,0.6444 -0.5296,1.8566 v 3.7644 h -1.1803 v -7.1459 h 1.1803 v 1.1102 q 0.3701,-0.6508 0.9634,-0.9634 0.5934,-0.319 1.442,-0.319 0.1212,0 0.2679,0.019 0.1468,0.013 0.3254,0.045 z m 1.3016,4.4279 h 1.3462 v 1.6206 h -1.3462 z m 0,-5.1361 h 1.3462 v 1.6206 h -1.3462 z"
         id="text11-2-8-96-5-4-9-7"
         aria-label="Signature over:" /><path
         d="m 877.35286,563.34089 h 2.50651 v 9.72002 h -2.50651 z m 12.18747,5.27993 v 4.44009 h -2.34374 v -0.72265 -2.67578 q 0,-0.944 -0.0456,-1.30208 -0.0391,-0.35807 -0.14322,-0.52734 -0.13672,-0.22786 -0.3711,-0.35156 -0.23437,-0.13021 -0.53385,-0.13021 -0.72917,0 -1.14583,0.56641 -0.41667,0.55989 -0.41667,1.55598 v 3.58723 h -2.33072 v -7.29165 h 2.33072 v 1.06771 q 0.52735,-0.63802 1.11979,-0.9375 0.59245,-0.30599 1.30859,-0.30599 1.26302,0 1.91406,0.77474 0.65755,0.77474 0.65755,2.2526 z m 4.49218,3.38541 v 3.82811 h -2.33073 v -10.06508 h 2.33073 v 1.06771 q 0.48177,-0.63802 1.0677,-0.9375 0.58594,-0.30599 1.34766,-0.30599 1.34765,0 2.21353,1.07422 0.86588,1.06771 0.86588,2.7539 0,1.68619 -0.86588,2.76041 -0.86588,1.0677 -2.21353,1.0677 -0.76172,0 -1.34766,-0.29947 -0.58593,-0.30599 -1.0677,-0.94401 z m 1.54947,-4.72004 q -0.74869,0 -1.15234,0.55338 -0.39713,0.54688 -0.39713,1.58203 0,1.03515 0.39713,1.58854 0.40365,0.54687 1.15234,0.54687 0.7487,0 1.13932,-0.54687 0.39714,-0.54688 0.39714,-1.58854 0,-1.04166 -0.39714,-1.58854 -0.39062,-0.54687 -1.13932,-0.54687 z m 5.58593,2.93619 v -4.45312 h 2.34374 v 0.72917 q 0,0.59245 -0.007,1.49088 -0.007,0.89193 -0.007,1.1914 0,0.87891 0.0456,1.26953 0.0456,0.38412 0.15625,0.5599 0.14323,0.22786 0.37109,0.35156 0.23438,0.1237 0.53386,0.1237 0.72916,0 1.14583,-0.5599 0.41666,-0.55989 0.41666,-1.55598 v -3.60026 h 2.33073 v 7.29165 h -2.33073 v -1.05468 q -0.52734,0.63802 -1.11979,0.94401 -0.58593,0.29947 -1.29557,0.29947 -1.26301,0 -1.92707,-0.77473 -0.65755,-0.77474 -0.65755,-2.2526 z m 12.11585,-6.52342 v 2.0703 h 2.40234 v 1.66667 h -2.40234 v 3.09244 q 0,0.50781 0.20182,0.6901 0.20182,0.17578 0.80078,0.17578 h 1.19791 v 1.66666 h -1.99869 q -1.3802,0 -1.95963,-0.57291 -0.57291,-0.57943 -0.57291,-1.95963 v -3.09244 h -1.15885 v -1.66667 h 1.15885 v -2.0703 z m 13.43096,3.13801 v -3.90624 h 2.34374 v 10.13018 h -2.34374 v -1.05468 q -0.48177,0.64453 -1.0612,0.94401 -0.57942,0.29947 -1.34114,0.29947 -1.34765,0 -2.21354,-1.0677 -0.86588,-1.07422 -0.86588,-2.76041 0,-1.68619 0.86588,-2.7539 0.86589,-1.07422 2.21354,-1.07422 0.75521,0 1.33463,0.30599 0.58594,0.29948 1.06771,0.9375 z m -1.53646,4.72004 q 0.7487,0 1.13932,-0.54687 0.39714,-0.54688 0.39714,-1.58854 0,-1.04166 -0.39714,-1.58854 -0.39062,-0.54687 -1.13932,-0.54687 -0.74218,0 -1.13932,0.54687 -0.39062,0.54688 -0.39062,1.58854 0,1.04166 0.39062,1.58854 0.39714,0.54687 1.13932,0.54687 z m 9.388,-1.77734 q -0.72917,0 -1.10026,0.2474 -0.36458,0.24739 -0.36458,0.72916 0,0.44271 0.29297,0.69661 0.29948,0.2474 0.82682,0.2474 0.65755,0 1.10677,-0.46875 0.44921,-0.47526 0.44921,-1.18489 v -0.26693 z m 3.56119,-0.8789 v 4.16014 h -2.35026 v -1.08072 q -0.46875,0.66406 -1.05468,0.97005 -0.58594,0.29947 -1.42578,0.29947 -1.13281,0 -1.84244,-0.65755 -0.70313,-0.66406 -0.70313,-1.71874 0,-1.28255 0.87891,-1.88151 0.88541,-0.59895 2.77343,-0.59895 h 1.37369 v -0.1823 q 0,-0.55338 -0.43619,-0.80728 -0.4362,-0.26042 -1.36068,-0.26042 -0.74869,0 -1.39322,0.14974 -0.64453,0.14974 -1.19792,0.44922 v -1.77734 q 0.7487,-0.18229 1.50391,-0.27344 0.7552,-0.0977 1.51041,-0.0977 1.97265,0 2.84504,0.78125 0.87891,0.77474 0.87891,2.52604 z m 4.71353,-5.20181 v 2.0703 h 2.40233 v 1.66667 h -2.40233 v 3.09244 q 0,0.50781 0.20182,0.6901 0.20182,0.17578 0.80078,0.17578 h 1.19791 v 1.66666 h -1.99869 q -1.38021,0 -1.95963,-0.57291 -0.57292,-0.57943 -0.57292,-1.95963 v -3.09244 h -1.15885 v -1.66667 h 1.15885 v -2.0703 z m 7.09633,6.08071 q -0.72916,0 -1.10026,0.2474 -0.36458,0.24739 -0.36458,0.72916 0,0.44271 0.29297,0.69661 0.29948,0.2474 0.82682,0.2474 0.65755,0 1.10677,-0.46875 0.44922,-0.47526 0.44922,-1.18489 v -0.26693 z m 3.56119,-0.8789 v 4.16014 h -2.35025 v -1.08072 q -0.46875,0.66406 -1.05469,0.97005 -0.58594,0.29947 -1.42578,0.29947 -1.13281,0 -1.84244,-0.65755 -0.70312,-0.66406 -0.70312,-1.71874 0,-1.28255 0.8789,-1.88151 0.88541,-0.59895 2.77343,-0.59895 h 1.3737 v -0.1823 q 0,-0.55338 -0.4362,-0.80728 -0.4362,-0.26042 -1.36068,-0.26042 -0.74869,0 -1.39322,0.14974 -0.64453,0.14974 -1.19791,0.44922 v -1.77734 q 0.74869,-0.18229 1.5039,-0.27344 0.7552,-0.0977 1.51041,-0.0977 1.97265,0 2.84505,0.78125 0.8789,0.77474 0.8789,2.52604 z"
         id="text11-9-0-0-9-2-81-4-7"
         style="font-weight:bold;font-size:13.3333px;font-family:Montserrat;-inkscape-font-specification:'Montserrat, Bold';white-space:pre;inline-size:202.099;fill:#3e4349;stroke-width:3.21325;stroke-linecap:round;stroke-linejoin:round;paint-order:markers fill stroke"
         transform="matrix(1.0006928,0,0,0.99930768,1825.3807,-1804.6308)"
         aria-label="Input data" /><path
         style="font-style:italic;font-weight:500;font-size:16.4356px;font-family:Montserrat;-inkscape-font-specification:'Montserrat Medium Italic';font-variation-settings:'wght' 500;white-space:pre;inline-size:215.51;fill:#3e4349;stroke-width:2.69647;stroke-linecap:round;stroke-linejoin:round;paint-order:markers fill stroke"
         d="m 844.30369,418.41754 -0.31298,1.58096 q -0.81054,-0.43336 -1.61306,-0.65004 -0.7945,-0.2247 -1.54084,-0.2247 -1.45256,0 -2.31126,0.63399 -0.85869,0.63399 -0.85869,1.68529 0,0.57781 0.31298,0.89079 0.32101,0.30496 1.63714,0.65807 l 0.97105,0.24076 q 1.64516,0.42533 2.28718,1.0834 0.64202,0.65004 0.64202,1.82974 0,1.8137 -1.42849,2.95327 -1.42046,1.13958 -3.74777,1.13958 -0.95499,0 -1.91802,-0.1926 -0.96302,-0.18458 -1.93407,-0.56979 l 0.32903,-1.66924 q 0.8908,0.55374 1.7816,0.83462 0.89882,0.28088 1.78962,0.28088 1.51676,0 2.43163,-0.67412 0.91487,-0.67411 0.91487,-1.75752 0,-0.72226 -0.36916,-1.09142 -0.36113,-0.37719 -1.56491,-0.68214 l -0.97105,-0.24878 q -1.66121,-0.43337 -2.27113,-0.99513 -0.60189,-0.56979 -0.60189,-1.58899 0,-1.78962 1.37231,-2.92919 1.38033,-1.14761 3.58726,-1.14761 0.8587,0 1.70134,0.15248 0.84265,0.15248 1.68529,0.45744 z m 3.53109,-0.89882 h 1.47664 l -0.36114,1.86987 h -1.47663 z m -0.67412,3.49898 h 1.47664 l -1.75752,8.98822 h -1.47663 z m 12.02977,0 -1.53281,7.87272 q -0.44139,2.28718 -1.69332,3.41071 -1.2439,1.12352 -3.35453,1.12352 -0.77844,0 -1.44453,-0.12037 -0.66609,-0.11236 -1.24391,-0.35311 l 0.27286,-1.43651 q 0.54571,0.35311 1.15563,0.52163 0.60991,0.16853 1.30008,0.16853 1.40441,0 2.30323,-0.77041 0.90685,-0.7624 1.19575,-2.19891 l 0.12841,-0.67411 q -0.61794,0.70621 -1.43651,1.07537 -0.81857,0.36916 -1.76555,0.36916 -1.36428,0 -2.15075,-0.89882 -0.77844,-0.90685 -0.77844,-2.48781 0,-1.24391 0.47348,-2.43164 0.47349,-1.19575 1.33219,-2.11865 0.56978,-0.60991 1.32415,-0.93895 0.7624,-0.32903 1.58899,-0.32903 0.90685,0 1.58097,0.42534 0.67411,0.41731 1.00314,1.18773 l 0.25681,-1.39639 z m -2.22298,3.29836 q 0,-1.09143 -0.51361,-1.68529 -0.51361,-0.59387 -1.46059,-0.59387 -0.58583,0 -1.1155,0.23273 -0.52966,0.23273 -0.90684,0.65004 -0.60992,0.69017 -0.955,1.62912 -0.33706,0.93092 -0.33706,1.92604 0,1.10748 0.51361,1.70135 0.52164,0.59386 1.49269,0.59386 1.40441,0 2.34335,-1.26798 0.93895,-1.27601 0.93895,-3.186 z m 12.01372,0.26483 -1.0513,5.42503 h -1.48466 l 1.0513,-5.36886 q 0.0722,-0.37718 0.11235,-0.66609 0.0401,-0.2889 0.0401,-0.45743 0,-0.67412 -0.42534,-1.0513 -0.42533,-0.37719 -1.18773,-0.37719 -1.18772,0 -2.04642,0.7945 -0.8587,0.78647 -1.12353,2.14272 l -0.9871,4.98365 h -1.47663 l 1.74146,-8.98822 h 1.47664 l -0.29693,1.41244 q 0.61794,-0.77845 1.48466,-1.20378 0.86672,-0.42534 1.82172,-0.42534 1.18773,0 1.83777,0.64202 0.65806,0.64201 0.65806,1.80567 0,0.2889 -0.0401,0.61794 -0.0321,0.32903 -0.10433,0.71424 z m 10.08767,0.29693 -1.00315,5.1281 h -1.47663 l 0.27285,-1.36428 q -0.65004,0.80252 -1.48466,1.20378 -0.82659,0.39323 -1.84579,0.39323 -1.14761,0 -1.88592,-0.69819 -0.7303,-0.70622 -0.7303,-1.80567 0,-1.57294 1.25193,-2.48781 1.25996,-0.91487 3.46689,-0.91487 h 2.05445 l 0.0803,-0.39324 q 0.016,-0.0642 0.0241,-0.13643 0.008,-0.0802 0.008,-0.24075 0,-0.71424 -0.58584,-1.10748 -0.57781,-0.40126 -1.62911,-0.40126 -0.72227,0 -1.48466,0.18458 -0.75437,0.18458 -1.55689,0.55374 l 0.2568,-1.36428 q 0.83462,-0.31299 1.62912,-0.46546 0.80252,-0.16051 1.54886,-0.16051 1.58899,0 2.41559,0.69017 0.83462,0.69016 0.83462,2.0063 0,0.26483 -0.0401,0.62596 -0.0401,0.35311 -0.12038,0.75437 z m -1.59701,0.60992 h -1.47664 q -1.81369,0 -2.68844,0.48953 -0.86672,0.48151 -0.86672,1.50071 0,0.70622 0.44139,1.10748 0.44941,0.40126 1.23588,0.40126 1.20378,0 2.1026,-0.8587 0.89882,-0.86672 1.18773,-2.31125 z m 9.79074,-4.47004 -0.22471,1.1476 h -2.94524 l -0.955,4.87932 q -0.0481,0.27286 -0.0722,0.45744 -0.0241,0.18458 -0.0241,0.28891 0,0.51361 0.30496,0.74634 0.31298,0.23273 0.99513,0.23273 h 1.49268 l -0.24878,1.23588 h -1.41243 q -1.31614,0 -1.96618,-0.51361 -0.64201,-0.51361 -0.64201,-1.55689 0,-0.18458 0.0241,-0.40126 0.0241,-0.22471 0.0722,-0.48954 l 0.955,-4.87932 h -1.25193 l 0.23273,-1.1476 h 1.22785 l 0.49757,-2.55201 h 1.47663 l -0.48953,2.55201 z m 0.59386,5.42503 1.0513,-5.42503 h 1.48466 l -1.0513,5.36886 q -0.0802,0.39323 -0.12038,0.67411 -0.0321,0.28089 -0.0321,0.46547 0,0.68214 0.41731,1.05932 0.41731,0.36916 1.17971,0.36916 1.18772,0 2.05445,-0.80252 0.86672,-0.80252 1.13155,-2.15878 l 0.9871,-4.97562 h 1.47663 l -1.74146,8.98822 h -1.47664 l 0.29693,-1.41243 q -0.62596,0.78647 -1.49268,1.21983 -0.8587,0.42533 -1.82975,0.42533 -1.1797,0 -1.83777,-0.64201 -0.65807,-0.65005 -0.65807,-1.80567 0,-0.24076 0.0401,-0.60189 0.0401,-0.36114 0.12038,-0.74635 z m 16.64426,-4.06075 q -0.22471,-0.12037 -0.51362,-0.18457 -0.2889,-0.0642 -0.61794,-0.0642 -1.1797,0 -2.06247,0.89883 -0.88277,0.89079 -1.17168,2.3915 l -0.90685,4.58239 h -1.47663 l 1.75752,-8.98822 h 1.47663 l -0.28088,1.39639 q 0.58584,-0.77845 1.39638,-1.19576 0.81857,-0.41731 1.74147,-0.41731 0.24076,0 0.47349,0.0321 0.23273,0.0241 0.46546,0.0883 z m 7.33502,2.32731 q 0.0241,-0.1284 0.0321,-0.26483 0.0161,-0.13643 0.0161,-0.27286 0,-0.97907 -0.57781,-1.54886 -0.56979,-0.56979 -1.55689,-0.56979 -1.09945,0 -1.9421,0.69819 -0.84264,0.69017 -1.276,1.96618 z m 1.28403,1.15563 h -6.86957 q -0.0482,0.30496 -0.0642,0.48151 -0.016,0.17656 -0.016,0.30496 0,1.1155 0.68214,1.72542 0.69017,0.60991 1.9421,0.60991 0.96302,0 1.82172,-0.21668 0.8587,-0.21668 1.59701,-0.63399 l -0.28088,1.46059 q -0.79449,0.321 -1.64516,0.48151 -0.84265,0.1605 -1.71739,0.1605 -1.86987,0 -2.88105,-0.8908 -1.00315,-0.89882 -1.00315,-2.54398 0,-1.40441 0.49756,-2.60819 0.50559,-1.21181 1.47664,-2.15878 0.62596,-0.59386 1.48466,-0.91487 0.86672,-0.32101 1.83777,-0.32101 1.52479,0 2.42361,0.91487 0.90685,0.91488 0.90685,2.45571 0,0.36916 -0.0482,0.7945 -0.0482,0.41731 -0.14446,0.89882 z"
         id="text11-2-8-96-6-2-9"
         transform="matrix(0.99242225,0,0,0.99242225,1829.3358,-1711.8868)"
         aria-label="Signature" /></g></g></svg>
