<?xml version="1.0" encoding="UTF-8" standalone="no"?>
<svg
   viewBox="0 0 658.42688 323.06079"
   version="1.1"
   id="svg1"
   width="658.42688"
   height="323.06079"
   xml:space="preserve"
   xmlns="http://www.w3.org/2000/svg"
   xmlns:svg="http://www.w3.org/2000/svg"><defs
     id="defs1"><linearGradient
       id="swatch251"><stop
         style="stop-color:#195962;stop-opacity:1;"
         offset="0"
         id="stop251" /></linearGradient><filter
       style="color-interpolation-filters:sRGB"
       id="filter90-2-0-5-0"
       x="-0.019782829"
       y="-0.027737869"
       width="1.042778"
       height="1.0631807"><feFlood
         result="flood"
         in="SourceGraphic"
         flood-opacity="0.796078"
         flood-color="rgb(62,67,73)"
         id="feFlood89-3-6-2-4" /><feGaussianBlur
         result="blur"
         in="SourceGraphic"
         stdDeviation="2.132 0"
         id="feGaussianBlur89-7-8-5-0" /><feOffset
         result="offset"
         in="blur"
         dx="1.000000"
         dy="1.000000"
         id="feOffset89-5-9-4-8" /><feComposite
         result="comp1"
         operator="in"
         in="flood"
         in2="offset"
         id="feComposite89-9-2-7-5" /><feComposite
         result="fbSourceGraphic"
         operator="over"
         in="SourceGraphic"
         in2="comp1"
         id="feComposite90-2-6-4-1" /><feColorMatrix
         result="fbSourceGraphicAlpha"
         in="fbSourceGraphic"
         values="0 0 0 -1 0 0 0 0 -1 0 0 0 0 -1 0 0 0 0 1 0"
         id="feColorMatrix90-2-6-4-6" /><feFlood
         id="feFlood90-8-4-3-6"
         result="flood"
         in="fbSourceGraphic"
         flood-opacity="0.796078"
         flood-color="rgb(62,67,73)" /><feGaussianBlur
         id="feGaussianBlur90-9-9-0-2"
         result="blur"
         in="fbSourceGraphic"
         stdDeviation="3.000000" /><feOffset
         id="feOffset90-7-5-7-1"
         result="offset"
         in="blur"
         dx="1.000000"
         dy="1.000000" /><feComposite
         id="feComposite91-3-0-8-9"
         result="comp1"
         operator="in"
         in="flood"
         in2="offset" /><feComposite
         id="feComposite92-6-4-6-6"
         result="comp2"
         operator="over"
         in="fbSourceGraphic"
         in2="comp1" /></filter></defs><!--! Font Awesome Pro 6.4.2 by @fontawesome - https://fontawesome.com License - https://fontawesome.com/license (Commercial License) Copyright 2023 Fonticons, Inc. --><g
     id="layer18"
     style="display:inline"
     transform="translate(-2438.4,1395.0202)"><g
       id="layer32"
       style="display:inline"><rect
         style="display:inline;fill:#ffffff;fill-opacity:1;stroke:none;stroke-width:0.478;stroke-linecap:round;stroke-dasharray:none;stroke-opacity:1;paint-order:fill markers stroke;filter:url(#filter90-2-0-5-0)"
         id="rect99"
         width="622.60052"
         height="259.57294"
         x="2459.1152"
         y="-1351.6664"
         rx="30.798866"
         ry="24.603634"
         transform="matrix(0.88680169,0,0,0.93912168,310.30933,-83.327534)" /><g
         id="g11-8-3-1-1-3"
         transform="matrix(0.81520336,0,0,0.81520336,1774.5633,-1506.5959)"
         style="display:inline;fill:#61a78d;fill-opacity:1"><rect
           style="font-variation-settings:'wght' 700;fill:#195962;stroke-width:2.61827;stroke-linecap:round;stroke-linejoin:round;paint-order:markers fill stroke"
           id="rect1-9-8-2-5-1"
           width="357.45355"
           height="59.990269"
           x="920.04065"
           y="155.65892" /><g
           id="g4-7-0-4-5-9"
           transform="matrix(1.018001,0,0,1,-27.722608,39.927363)"><rect
             style="font-variation-settings:'wght' 700;fill:#e6e6e6;fill-opacity:1;stroke-width:2.55521;stroke-linecap:round;stroke-linejoin:round;paint-order:markers fill stroke"
             id="rect1-3-7-5-7-4-4"
             width="352.81458"
             height="57.886284"
             x="920.89868"
             y="126.45267" /></g><path
           d="m 966.0202,158.66834 q -2.99247,0 -5.39763,-1.28648 -2.40516,-1.31445 -3.77555,-3.60774 -1.37038,-2.32126 -1.37038,-5.1739 0,-2.85263 1.37038,-5.14593 1.37039,-2.32126 3.77555,-3.60774 2.40516,-1.31445 5.39763,-1.31445 2.99247,0 5.39763,1.31445 2.40516,1.28648 3.77555,3.57978 1.37038,2.29329 1.37038,5.17389 0,2.8806 -1.37038,5.1739 -1.37039,2.29329 -3.77555,3.60774 -2.40516,1.28648 -5.39763,1.28648 z m 0,-3.18824 q 1.95769,0 3.52384,-0.86697 1.56615,-0.89495 2.4611,-2.4611 0.89494,-1.59412 0.89494,-3.55181 0,-1.95769 -0.89494,-3.52384 -0.89495,-1.59412 -2.4611,-2.4611 -1.56615,-0.89494 -3.52384,-0.89494 -1.95769,0 -3.52384,0.89494 -1.56615,0.86698 -2.4611,2.4611 -0.89494,1.56615 -0.89494,3.52384 0,1.95769 0.89494,3.55181 0.89495,1.56615 2.4611,2.4611 1.56615,0.86697 3.52384,0.86697 z m 22.34566,-12.19361 q 2.18143,0 3.88741,0.95088 1.73396,0.95088 2.7128,2.68483 0.97885,1.73396 0.97885,3.99928 0,2.26533 -0.97885,4.02725 -0.97884,1.73395 -2.7128,2.68483 -1.70598,0.95088 -3.88741,0.95088 -3.02044,0 -4.78236,-2.01362 v 7.24345 h -3.49587 v -20.35998 h 3.32807 v 1.95769 q 0.86698,-1.06274 2.12549,-1.59411 1.28649,-0.53138 2.82467,-0.53138 z m -0.39154,12.30548 q 1.92973,0 3.16027,-1.28648 1.25852,-1.28648 1.25852,-3.38401 0,-2.09752 -1.25852,-3.384 -1.23054,-1.28649 -3.16027,-1.28649 -1.25851,0 -2.26532,0.58731 -1.00682,0.55934 -1.59412,1.62209 -0.58731,1.06274 -0.58731,2.46109 0,1.39835 0.58731,2.4611 0.5873,1.06275 1.59412,1.65005 1.00681,0.55934 2.26532,0.55934 z m 25.33808,-4.58659 q 0,0.36358 -0.056,1.03478 h -11.7182 q 0.3077,1.65006 1.5942,2.6289 1.3144,0.95088 3.2441,0.95088 2.4611,0 4.0552,-1.62209 l 1.8738,2.15346 q -1.0068,1.20258 -2.545,1.81786 -1.5381,0.61527 -3.4679,0.61527 -2.4611,0 -4.3349,-0.97884 -1.8737,-0.97885 -2.90852,-2.7128 -1.00681,-1.76192 -1.00681,-3.97132 0,-2.18142 0.97884,-3.91538 1.00679,-1.76192 2.76869,-2.74076 1.762,-0.97885 3.9714,-0.97885 2.1814,0 3.8874,0.97885 1.7339,0.95088 2.6848,2.7128 0.9788,1.73395 0.9788,4.02724 z m -7.551,-4.92219 q -1.6781,0 -2.8527,1.00681 -1.1466,0.97885 -1.3983,2.6289 h 8.474 q -0.2238,-1.62208 -1.3704,-2.6289 -1.1467,-1.00681 -2.8526,-1.00681 z m 19.3811,-2.7967 q 2.8246,0 4.5306,1.65006 1.706,1.65005 1.706,4.89422 v 8.5579 h -3.4959 v -8.11043 q 0,-1.95769 -0.9229,-2.93653 -0.9229,-1.00681 -2.6289,-1.00681 -1.9297,0 -3.0484,1.17461 -1.1186,1.14665 -1.1186,3.32807 v 7.55109 h -3.4959 v -14.93438 h 3.328 v 1.92973 q 0.867,-1.03478 2.1815,-1.56615 1.3144,-0.53138 2.9645,-0.53138 z m 19.0735,-4.47472 q 2.545,0 4.4187,0.83901 1.9018,0.83901 2.9086,2.40516 1.0068,1.56616 1.0068,3.71962 0,2.12549 -1.0068,3.71961 -1.0068,1.56615 -2.9086,2.40516 -1.8737,0.83901 -4.4187,0.83901 h -4.4188 v 5.64933 h -3.6357 v -19.5769 z m -0.1678,10.8512 q 2.3771,0 3.6077,-1.00681 1.2305,-1.00682 1.2305,-2.8806 0,-1.87379 -1.2305,-2.88061 -1.2306,-1.00681 -3.6077,-1.00681 h -4.251 v 7.77483 z m 25.7855,-1.28648 h 3.44 v 7.80279 q -1.5103,1.20258 -3.5239,1.84582 -2.0136,0.64324 -4.1391,0.64324 -2.9925,0 -5.3976,-1.28648 -2.4052,-1.31445 -3.7756,-3.60774 -1.3704,-2.2933 -1.3704,-5.1739 0,-2.8806 1.3704,-5.17389 1.3704,-2.2933 3.7756,-3.57978 2.4331,-1.31445 5.4535,-1.31445 2.4611,0 4.4748,0.81105 2.0136,0.81104 3.384,2.37719 l -2.2933,2.23736 q -2.2374,-2.23736 -5.3977,-2.23736 -2.0695,0 -3.6916,0.86698 -1.5941,0.86697 -2.517,2.43313 -0.895,1.56615 -0.895,3.57977 0,1.95769 0.895,3.52384 0.9229,1.56616 2.517,2.4611 1.6221,0.89494 3.6637,0.89494 2.2933,0 4.0272,-1.00681 z m 16.2768,-9.56472 q 2.545,0 4.4188,0.83901 1.9017,0.83901 2.9086,2.40516 1.0068,1.56616 1.0068,3.71962 0,2.12549 -1.0068,3.71961 -1.0069,1.56615 -2.9086,2.40516 -1.8738,0.83901 -4.4188,0.83901 h -4.4188 v 5.64933 h -3.6357 v -19.5769 z m -0.1678,10.8512 q 2.3772,0 3.6077,-1.00681 1.2306,-1.00682 1.2306,-2.8806 0,-1.87379 -1.2306,-2.88061 -1.2305,-1.00681 -3.6077,-1.00681 h -4.251 v 7.77483 z m 24.4152,8.92147 q -1.8179,0 -3.5518,-0.47544 -1.734,-0.47544 -2.7688,-1.20258 l 1.3424,-2.65686 q 1.0068,0.6712 2.4052,1.09071 1.4263,0.39154 2.7967,0.39154 3.1323,0 3.1323,-1.65006 0,-0.78307 -0.811,-1.09071 -0.7831,-0.30764 -2.545,-0.58731 -1.8459,-0.27967 -3.0205,-0.64324 -1.1466,-0.36357 -2.0136,-1.25851 -0.839,-0.92291 -0.839,-2.545 0,-2.12549 1.7619,-3.38401 1.7899,-1.28648 4.8103,-1.28648 1.5382,0 3.0764,0.36357 1.5382,0.33561 2.517,0.92291 l -1.3424,2.65687 q -1.9017,-1.11868 -4.2789,-1.11868 -1.5382,0 -2.3493,0.47544 -0.783,0.44747 -0.783,1.20258 0,0.83901 0.839,1.20258 0.867,0.3356 2.6568,0.64324 1.7899,0.27967 2.9366,0.64324 1.1466,0.36357 1.9577,1.23055 0.839,0.86698 0.839,2.4611 0,2.09752 -1.8179,3.35604 -1.8178,1.25851 -4.9501,1.25851 z m 13.2843,-0.19577 h -3.4959 v -14.93438 h 3.4959 z m -1.734,-17.39547 q -0.9509,0 -1.5941,-0.58731 -0.6432,-0.61527 -0.6432,-1.51022 0,-0.89494 0.6432,-1.48225 0.6432,-0.61527 1.5941,-0.61527 0.9509,0 1.5941,0.58731 0.6433,0.55934 0.6433,1.42631 0,0.92291 -0.6433,1.56615 -0.6152,0.61528 -1.5941,0.61528 z m 17.815,2.46109 h 3.328 v 12.66905 q 0,7.8867 -8.0545,7.8867 -2.1534,0 -4.0831,-0.55934 -1.9298,-0.53137 -3.1883,-1.56615 l 1.5662,-2.6289 q 0.9788,0.81104 2.4611,1.28648 1.5102,0.50341 3.0484,0.50341 2.4611,0 3.6077,-1.11868 1.1467,-1.11868 1.1467,-3.41198 v -0.78307 q -0.895,0.97884 -2.1815,1.48225 -1.2864,0.5034 -2.8246,0.5034 -2.1255,0 -3.8595,-0.89494 -1.706,-0.92291 -2.7128,-2.57296 -0.9788,-1.65006 -0.9788,-3.77555 0,-2.12549 0.9788,-3.74758 1.0068,-1.65005 2.7128,-2.54499 1.734,-0.89495 3.8595,-0.89495 1.6221,0 2.9365,0.53138 1.3424,0.53137 2.2374,1.62208 z m -4.6426,11.29867 q 1.9857,0 3.2442,-1.17461 1.2865,-1.20258 1.2865,-3.10434 0,-1.87379 -1.2865,-3.0484 -1.2585,-1.17462 -3.2442,-1.17462 -2.0136,0 -3.3001,1.17462 -1.2585,1.17461 -1.2585,3.0484 0,1.90176 1.2585,3.10434 1.2865,1.17461 3.3001,1.17461 z m 21.0312,-11.46647 q 2.8247,0 4.5307,1.65006 1.706,1.65005 1.706,4.89422 v 8.5579 h -3.4959 v -8.11043 q 0,-1.95769 -0.9229,-2.93653 -0.9229,-1.00681 -2.6289,-1.00681 -1.9297,0 -3.0484,1.17461 -1.1187,1.14665 -1.1187,3.32807 v 7.55109 h -3.4959 v -14.93438 h 3.3281 v 1.92973 q 0.867,-1.03478 2.1814,-1.56615 1.3145,-0.53138 2.9645,-0.53138 z m 16.3887,0 q 3.3001,0 5.034,1.59412 1.762,1.56615 1.762,4.75439 v 8.75367 h -3.3001 v -1.81785 q -0.6433,0.97884 -1.8459,1.51021 -1.1746,0.50341 -2.8526,0.50341 -1.678,0 -2.9365,-0.55934 -1.2585,-0.58731 -1.9577,-1.59412 -0.6712,-1.03478 -0.6712,-2.32126 0,-2.01362 1.4822,-3.2162 1.5102,-1.23055 4.7264,-1.23055 h 3.8595 v -0.22374 q 0,-1.56615 -0.9509,-2.40516 -0.9229,-0.83901 -2.7687,-0.83901 -1.2585,0 -2.4891,0.39154 -1.2026,0.39154 -2.0416,1.09071 l -1.3704,-2.545 q 1.1747,-0.89494 2.8247,-1.37038 1.6501,-0.47544 3.4959,-0.47544 z m -0.4755,12.75295 q 1.3145,0 2.3213,-0.5873 1.0348,-0.61528 1.4543,-1.73396 v -1.73395 h -3.6078 q -3.0204,0 -3.0204,1.98566 0,0.95087 0.7551,1.51021 0.7551,0.55934 2.0975,0.55934 z m 20.7236,1.53819 q -0.6153,0.5034 -1.5102,0.75511 -0.867,0.2517 -1.8458,0.2517 -2.4611,0 -3.8035,-1.28648 -1.3425,-1.28648 -1.3425,-3.74758 v -7.18752 h -2.4611 v -2.7967 h 2.4611 v -3.41197 h 3.4959 v 3.41197 h 3.9993 v 2.7967 h -3.9993 v 7.10362 q 0,1.09071 0.5314,1.67802 0.5314,0.55934 1.5382,0.55934 1.1746,0 1.9577,-0.61527 z m 13.8437,-14.12334 h 3.4958 v 14.93438 h -3.328 v -1.90175 q -0.839,1.00681 -2.0976,1.56615 -1.2585,0.53137 -2.7128,0.53137 -2.9924,0 -4.7264,-1.65005 -1.706,-1.67802 -1.706,-4.95016 v -8.52994 h 3.4959 v 8.0545 q 0,2.01362 0.895,3.02044 0.9229,0.97884 2.6009,0.97884 1.8738,0 2.9645,-1.14665 1.1187,-1.17461 1.1187,-3.35604 z m 11.4105,2.18143 q 1.5102,-2.34923 5.3137,-2.34923 v 3.32808 q -0.4474,-0.0839 -0.811,-0.0839 -2.0416,0 -3.1882,1.20259 -1.1467,1.17461 -1.1467,3.41197 v 7.24345 h -3.4959 v -14.93438 h 3.3281 z m 22.1778,5.36966 q 0,0.36358 -0.056,1.03478 h -11.7182 q 0.3077,1.65006 1.5941,2.6289 1.3145,0.95088 3.2442,0.95088 2.4611,0 4.0552,-1.62209 l 1.8738,2.15346 q -1.0068,1.20258 -2.545,1.81786 -1.5382,0.61527 -3.4679,0.61527 -2.4611,0 -4.3349,-0.97884 -1.8738,-0.97885 -2.9085,-2.7128 -1.0069,-1.76192 -1.0069,-3.97132 0,-2.18142 0.9789,-3.91538 1.0068,-1.76192 2.7687,-2.74076 1.7619,-0.97885 3.9713,-0.97885 2.1815,0 3.8875,0.97885 1.7339,0.95088 2.6848,2.7128 0.9788,1.73395 0.9788,4.02724 z m -7.5511,-4.92219 q -1.678,0 -2.8526,1.00681 -1.1466,0.97885 -1.3983,2.6289 h 8.474 q -0.2238,-1.62208 -1.3704,-2.6289 -1.1467,-1.00681 -2.8527,-1.00681 z m 26.9042,-2.7967 q 2.1815,0 3.8875,0.95088 1.7339,0.95088 2.7128,2.68483 0.9788,1.73396 0.9788,3.99928 0,2.26533 -0.9788,4.02725 -0.9789,1.73395 -2.7128,2.68483 -1.706,0.95088 -3.8875,0.95088 -3.0204,0 -4.7823,-2.01362 v 7.24345 h -3.4959 v -20.35998 h 3.3281 v 1.95769 q 0.867,-1.06274 2.1255,-1.59411 1.2865,-0.53138 2.8246,-0.53138 z m -0.3915,12.30548 q 1.9297,0 3.1603,-1.28648 1.2585,-1.28648 1.2585,-3.38401 0,-2.09752 -1.2585,-3.384 -1.2306,-1.28649 -3.1603,-1.28649 -1.2585,0 -2.2653,0.58731 -1.0068,0.55934 -1.5941,1.62209 -0.5873,1.06274 -0.5873,2.46109 0,1.39835 0.5873,2.4611 0.5873,1.06275 1.5941,1.65005 1.0068,0.55934 2.2653,0.55934 z m 16.8082,-12.30548 q 3.3001,0 5.0341,1.59412 1.7619,1.56615 1.7619,4.75439 v 8.75367 h -3.3001 v -1.81785 q -0.6433,0.97884 -1.8458,1.51021 -1.1747,0.50341 -2.8527,0.50341 -1.678,0 -2.9365,-0.55934 -1.2585,-0.58731 -1.9577,-1.59412 -0.6712,-1.03478 -0.6712,-2.32126 0,-2.01362 1.4822,-3.2162 1.5103,-1.23055 4.7265,-1.23055 h 3.8594 v -0.22374 q 0,-1.56615 -0.9509,-2.40516 -0.9229,-0.83901 -2.7687,-0.83901 -1.2585,0 -2.4891,0.39154 -1.2025,0.39154 -2.0416,1.09071 l -1.3703,-2.545 q 1.1746,-0.89494 2.8246,-1.37038 1.6501,-0.47544 3.4959,-0.47544 z m -0.4754,12.75295 q 1.3144,0 2.3212,-0.5873 1.0348,-0.61528 1.4543,-1.73396 v -1.73395 h -3.6077 q -3.0205,0 -3.0205,1.98566 0,0.95087 0.7551,1.51021 0.7552,0.55934 2.0976,0.55934 z m 18.626,2.545 q -2.3213,0 -4.1671,-0.97884 -1.8458,-0.97885 -2.8806,-2.7128 -1.0348,-1.76192 -1.0348,-3.97132 0,-2.20939 1.0348,-3.94334 1.0348,-1.73396 2.8526,-2.7128 1.8459,-0.97885 4.1951,-0.97885 2.2094,0 3.8594,0.89495 1.6781,0.89494 2.5171,2.57296 l -2.6849,1.56615 q -0.6432,-1.03478 -1.6221,-1.53818 -0.9508,-0.53138 -2.0975,-0.53138 -1.9577,0 -3.2442,1.28649 -1.2864,1.25851 -1.2864,3.384 0,2.1255 1.2585,3.41198 1.2865,1.25851 3.2721,1.25851 1.1467,0 2.0975,-0.5034 0.9789,-0.53138 1.6221,-1.56616 l 2.6849,1.56616 q -0.867,1.67802 -2.545,2.60093 -1.6501,0.89494 -3.8315,0.89494 z m 24.7787,-0.19577 h -4.2509 l -5.1739,-6.40444 -2.601,2.4611 v 3.94334 h -3.4958 v -20.75151 h 3.4958 v 12.52921 l 7.2435,-6.71208 h 4.195 l -6.2366,6.26461 z m 15.6895,-7.38329 q 0,0.36358 -0.056,1.03478 h -11.7182 q 0.3077,1.65006 1.5942,2.6289 1.3144,0.95088 3.2441,0.95088 2.4611,0 4.0552,-1.62209 l 1.8738,2.15346 q -1.0068,1.20258 -2.545,1.81786 -1.5382,0.61527 -3.4679,0.61527 -2.4611,0 -4.3349,-0.97884 -1.8738,-0.97885 -2.9085,-2.7128 -1.0068,-1.76192 -1.0068,-3.97132 0,-2.18142 0.9788,-3.91538 1.0068,-1.76192 2.7687,-2.74076 1.762,-0.97885 3.9713,-0.97885 2.1815,0 3.8875,0.97885 1.7339,0.95088 2.6848,2.7128 0.9788,1.73395 0.9788,4.02724 z m -7.5511,-4.92219 q -1.678,0 -2.8526,1.00681 -1.1466,0.97885 -1.3983,2.6289 h 8.474 q -0.2238,-1.62208 -1.3704,-2.6289 -1.1467,-1.00681 -2.8527,-1.00681 z m 19.8846,11.49444 q -0.6153,0.5034 -1.5102,0.75511 -0.867,0.2517 -1.8459,0.2517 -2.461,0 -3.8035,-1.28648 -1.3424,-1.28648 -1.3424,-3.74758 v -7.18752 h -2.4611 v -2.7967 h 2.4611 v -3.41197 h 3.4959 v 3.41197 h 3.9993 v 2.7967 h -3.9993 v 7.10362 q 0,1.09071 0.5314,1.67802 0.5313,0.55934 1.5382,0.55934 1.1746,0 1.9576,-0.61527 z"
           id="text1-6-6-8-06-5"
           style="font-weight:600;font-size:27.967px;font-family:Montserrat;-inkscape-font-specification:'Montserrat, Semi-Bold';white-space:pre;inline-size:438.074;fill:#3e4349;stroke-width:3.5;stroke-linecap:round;stroke-linejoin:round;paint-order:markers fill stroke"
           transform="matrix(0.85813569,0,0,0.85813569,101.95642,67.179281)"
           aria-label="OpenPGP signature packet&#10;" /></g><g
         id="g5-7-9"
         transform="matrix(0.75811721,0,0,0.62777915,2261.2825,-1727.103)"
         style="display:inline;fill:#61a78d;fill-opacity:1;stroke-width:1.7;stroke-dasharray:none"><path
           id="rect2-5-2-7"
           style="display:inline;fill:#ede8c0;fill-opacity:0.6;stroke:none;stroke-width:1.475;stroke-linecap:square;stroke-miterlimit:0;stroke-dasharray:2.95, 2.95;stroke-dashoffset:0;stroke-opacity:1;paint-order:fill markers stroke"
           d="m 829.6162,807.10742 h 176.8247 a 13.134939,13.134939 45 0 1 13.1349,13.13494 v 81.2156 a 13.134939,13.134939 135 0 1 -13.1349,13.13494 H 829.6162 a 30.342731,30.342731 23.407104 0 1 -22.12405,-9.57719 l -32.4645,-34.58836 a 13.994242,13.994242 90 0 1 0,-19.15438 l 32.4645,-34.58836 a 30.342731,30.342731 156.5929 0 1 22.12405,-9.57719 z"
           transform="matrix(1.0913493,0,0,1.1390201,-312.00721,-105.97179)" /><path
           id="rect2-5-2-5-5"
           style="display:inline;fill:none;fill-opacity:0.6;stroke:#c7b730;stroke-width:1.94683;stroke-linecap:round;stroke-miterlimit:0;stroke-dasharray:none;stroke-dashoffset:0;stroke-opacity:1;paint-order:fill markers stroke"
           d="m 769.77761,813.33976 h 16.59134 c 7.91687,0 14.33476,6.69825 14.33476,14.96096 v 92.5062 c 0,8.26272 -6.41789,14.96097 -14.33476,14.96097 h -192.9775 c -9.14644,0 -17.88556,-3.94829 -24.14507,-10.90862 l -35.4301,-39.39683 c -5.51568,-6.13323 -5.51568,-15.684 0,-21.81723 l 35.4301,-39.39683 c 3.02037,-3.35852 6.61807,-6.01576 10.56026,-7.86652" /><path
           d="m 880.47556,569.95425 h -3.58666 v -1.10666 h 3.58666 z m 7.58663,3.18666 q -0.86666,0 -1.66666,-0.22666 -0.8,-0.24 -1.25333,-0.6 l 0.53333,-1.01333 q 0.46666,0.33333 1.13333,0.53333 0.66666,0.2 1.34666,0.2 1.68,0 1.68,-0.96 0,-0.32 -0.22667,-0.50666 -0.22666,-0.18667 -0.57333,-0.26667 -0.33333,-0.0933 -0.96,-0.2 -0.85333,-0.13333 -1.39999,-0.30667 -0.53334,-0.17333 -0.92,-0.58666 -0.38667,-0.41333 -0.38667,-1.16 0,-0.96 0.8,-1.53333 0.8,-0.58666 2.14666,-0.58666 0.70667,0 1.41333,0.17333 0.70667,0.17333 1.16,0.46667 l -0.54667,1.01333 q -0.86666,-0.56 -2.03999,-0.56 -0.81333,0 -1.24,0.26666 -0.42666,0.26667 -0.42666,0.70667 0,0.34667 0.24,0.54666 0.24,0.2 0.58666,0.29334 0.36,0.0933 1,0.21333 0.85333,0.14667 1.37333,0.32 0.53333,0.16 0.90666,0.56 0.37334,0.4 0.37334,1.11999 0,0.96 -0.82667,1.53333 -0.81333,0.56 -2.22666,0.56 z m 5.93331,-0.08 h -1.28 v -7.06665 h 1.28 z m -0.64,-8.42664 q -0.37333,0 -0.62666,-0.24 -0.24,-0.24 -0.24,-0.58667 0,-0.34666 0.24,-0.58666 0.25333,-0.25333 0.62666,-0.25333 0.37334,0 0.61333,0.23999 0.25334,0.22667 0.25334,0.57334 0,0.36 -0.25334,0.61333 -0.23999,0.24 -0.61333,0.24 z m 8.62664,1.35999 h 1.21333 v 6.10666 q 0,1.85332 -0.92,2.73332 -0.92,0.89333 -2.74666,0.89333 -1,0 -1.90666,-0.28 -0.90666,-0.26666 -1.46666,-0.77333 l 0.61333,-0.98666 q 0.49333,0.42666 1.21333,0.66666 0.73333,0.25334 1.50666,0.25334 1.24,0 1.82666,-0.58667 0.6,-0.58666 0.6,-1.78666 v -0.56 q -0.45333,0.54667 -1.11999,0.82666 -0.65334,0.26667 -1.42667,0.26667 -1.01333,0 -1.83999,-0.42667 -0.81333,-0.43999 -1.28,-1.21333 -0.46666,-0.78666 -0.46666,-1.78666 0,-0.99999 0.46666,-1.77333 0.46667,-0.78666 1.28,-1.21333 0.82666,-0.42666 1.83999,-0.42666 0.8,0 1.48,0.29333 0.69333,0.29333 1.13333,0.86666 z m -2.46666,5.65332 q 0.69333,0 1.24,-0.29333 0.55999,-0.29333 0.86666,-0.81333 0.32,-0.53333 0.32,-1.2 0,-1.02666 -0.68,-1.65333 -0.68,-0.64 -1.74666,-0.64 -1.08,0 -1.76,0.64 -0.67999,0.62667 -0.67999,1.65333 0,0.66667 0.30666,1.2 0.32,0.52 0.86667,0.81333 0.55999,0.29333 1.26666,0.29333 z m 9.89331,-5.71998 q 1.34667,0 2.13333,0.78666 0.8,0.77333 0.8,2.28 v 4.06665 h -1.28 v -3.91999 q 0,-1.02666 -0.49333,-1.54666 -0.49333,-0.52 -1.41333,-0.52 -1.04,0 -1.64,0.61333 -0.59999,0.6 -0.59999,1.73333 v 3.63999 h -1.28 v -7.06665 h 1.22666 v 1.06667 q 0.38667,-0.54667 1.04,-0.84 0.66666,-0.29333 1.50666,-0.29333 z m 7.87998,0 q 1.46666,0 2.23999,0.72 0.78667,0.71999 0.78667,2.14666 v 4.26665 h -1.21333 v -0.93333 q -0.32,0.49333 -0.92,0.76 -0.58666,0.25333 -1.39999,0.25333 -1.18667,0 -1.90667,-0.57333 -0.70666,-0.57333 -0.70666,-1.50666 0,-0.93333 0.68,-1.49333 0.67999,-0.57333 2.15999,-0.57333 h 2.02666 v -0.25334 q 0,-0.82666 -0.48,-1.26666 -0.47999,-0.44 -1.41333,-0.44 -0.62666,0 -1.22666,0.21333 -0.6,0.2 -1.01333,0.54667 l -0.53333,-0.96 q 0.54666,-0.44 1.30666,-0.66666 0.76,-0.24 1.61333,-0.24 z m -0.29333,6.22665 q 0.73333,0 1.26666,-0.32 0.53333,-0.33333 0.77333,-0.93333 v -0.98667 h -1.97333 q -1.62666,0 -1.62666,1.09333 0,0.53334 0.41333,0.84 0.41334,0.30667 1.14667,0.30667 z m 9.66664,0.49333 q -0.28,0.24 -0.69334,0.37333 -0.41333,0.12 -0.85333,0.12 -1.06666,0 -1.65333,-0.57333 -0.58666,-0.57333 -0.58666,-1.63999 v -3.88 h -1.2 v -1.05333 h 1.2 v -1.54666 h 1.28 v 1.54666 h 2.02666 v 1.05333 h -2.02666 v 3.82666 q 0,0.57333 0.27999,0.88 0.29334,0.30667 0.82667,0.30667 0.58666,0 1,-0.33334 z m 6.8533,-6.65332 h 1.28 v 7.06665 h -1.21333 v -1.06666 q -0.38667,0.54666 -1.02666,0.85333 -0.62667,0.29333 -1.37333,0.29333 -1.41333,0 -2.22667,-0.77333 -0.81333,-0.78666 -0.81333,-2.30666 v -4.06666 h 1.28 v 3.91999 q 0,1.02667 0.49333,1.56 0.49333,0.52 1.41333,0.52 1.01333,0 1.6,-0.61333 0.58666,-0.61333 0.58666,-1.73333 z m 4.94666,1.18667 q 0.33333,-0.61333 0.98666,-0.93333 0.65333,-0.32 1.58667,-0.32 v 1.23999 q -0.10667,-0.0133 -0.29334,-0.0133 -1.03999,0 -1.63999,0.62667 -0.58667,0.61333 -0.58667,1.75999 v 3.51999 h -1.27999 v -7.06665 h 1.22666 z m 10.46665,2.38666 q 0,0.14666 -0.0267,0.38666 h -5.73332 q 0.12,0.93334 0.81333,1.50667 0.70667,0.56 1.74666,0.56 1.26667,0 2.04,-0.85334 l 0.70666,0.82667 q -0.48,0.56 -1.19999,0.85333 -0.70667,0.29333 -1.58667,0.29333 -1.11999,0 -1.98666,-0.45333 -0.86666,-0.46666 -1.34666,-1.29333 -0.46667,-0.82666 -0.46667,-1.86666 0,-1.02667 0.45334,-1.85333 0.46666,-0.82666 1.26666,-1.28 0.81333,-0.46666 1.82666,-0.46666 1.01333,0 1.8,0.46666 0.79999,0.45334 1.23999,1.28 0.45334,0.82666 0.45334,1.89333 z m -3.49333,-2.55999 q -0.92,0 -1.54666,0.55999 -0.61333,0.56 -0.72,1.46667 h 4.53332 q -0.10666,-0.89333 -0.73333,-1.45333 -0.61333,-0.57333 -1.53333,-0.57333 z m 12.82662,5.63998 q -0.28,0.24 -0.69333,0.37333 -0.41334,0.12 -0.85333,0.12 -1.06667,0 -1.65333,-0.57333 -0.58667,-0.57333 -0.58667,-1.63999 v -3.88 h -1.2 v -1.05333 h 1.2 v -1.54666 h 1.28 v 1.54666 h 2.02666 v 1.05333 h -2.02666 v 3.82666 q 0,0.57333 0.28,0.88 0.29333,0.30667 0.82666,0.30667 0.58667,0 1,-0.33334 z m 6.41331,-6.65332 h 1.25333 l -3.42666,7.77332 q -0.45333,1.08 -1.06666,1.51999 -0.6,0.44 -1.45333,0.44 -0.52,0 -1.01333,-0.17333 -0.48,-0.16 -0.8,-0.48 l 0.54667,-0.96 q 0.54666,0.52 1.26666,0.52 0.46667,0 0.77333,-0.25333 0.32,-0.24 0.57333,-0.84 l 0.22667,-0.49333 -3.11999,-7.05332 h 1.33333 l 2.46666,5.65332 z m 6.19998,-0.0667 q 1.02666,0 1.84,0.45333 0.81333,0.45333 1.26666,1.26666 0.46666,0.81333 0.46666,1.88 0,1.06666 -0.46666,1.89333 -0.45333,0.81333 -1.26666,1.26666 -0.81334,0.45333 -1.84,0.45333 -0.76,0 -1.4,-0.29333 -0.62666,-0.29333 -1.06666,-0.85333 v 3.65332 h -1.28 v -9.65331 h 1.22667 v 1.12 q 0.42666,-0.58666 1.07999,-0.88 0.65334,-0.30666 1.44,-0.30666 z m -0.10667,6.09332 q 0.68,0 1.21333,-0.30667 0.54667,-0.32 0.85334,-0.88 0.31999,-0.57333 0.31999,-1.30666 0,-0.73333 -0.31999,-1.29333 -0.30667,-0.57333 -0.85334,-0.88 -0.53333,-0.30667 -1.21333,-0.30667 -0.66666,0 -1.21333,0.32 -0.53333,0.30667 -0.85333,0.86667 -0.30666,0.56 -0.30666,1.29333 0,0.73333 0.30666,1.30666 0.30667,0.56 0.85333,0.88 0.54667,0.30667 1.21333,0.30667 z m 11.83996,-2.45333 q 0,0.14666 -0.0267,0.38666 h -5.73332 q 0.12,0.93334 0.81333,1.50667 0.70666,0.56 1.74666,0.56 1.26667,0 2.04,-0.85334 l 0.70666,0.82667 q -0.48,0.56 -1.2,0.85333 -0.70666,0.29333 -1.58666,0.29333 -1.12,0 -1.98666,-0.45333 -0.86666,-0.46666 -1.34666,-1.29333 -0.46667,-0.82666 -0.46667,-1.86666 0,-1.02667 0.45333,-1.85333 0.46667,-0.82666 1.26667,-1.28 0.81333,-0.46666 1.82666,-0.46666 1.01333,0 1.79999,0.46666 0.8,0.45334 1.24,1.28 0.45333,0.82666 0.45333,1.89333 z m -3.49332,-2.55999 q -0.92,0 -1.54666,0.55999 -0.61334,0.56 -0.72,1.46667 h 4.53332 q -0.10667,-0.89333 -0.73333,-1.45333 -0.61333,-0.57333 -1.53333,-0.57333 z"
           id="text11-9-0-0-9-2-2-6"
           style="font-weight:500;font-size:13.3333px;font-family:Montserrat;-inkscape-font-specification:'Montserrat, Medium';white-space:pre;inline-size:202.099;fill:#3e4349;stroke-width:3.21325;stroke-linecap:round;stroke-linejoin:round;paint-order:markers fill stroke"
           transform="matrix(1.1850569,0,0,1.5506213,-446.49347,-28.103668)"
           aria-label="- signature type" /><path
           d="m 880.47556,569.95425 h -3.58666 v -1.10666 h 3.58666 z m 8.1333,-4.02665 q 1.46666,0 2.23999,0.72 0.78666,0.71999 0.78666,2.14666 v 4.26665 h -1.21333 v -0.93333 q -0.32,0.49333 -0.91999,0.76 -0.58667,0.25333 -1.4,0.25333 -1.18666,0 -1.90666,-0.57333 -0.70667,-0.57333 -0.70667,-1.50666 0,-0.93333 0.68,-1.49333 0.68,-0.57333 2.16,-0.57333 h 2.02666 v -0.25334 q 0,-0.82666 -0.48,-1.26666 -0.48,-0.44 -1.41333,-0.44 -0.62667,0 -1.22666,0.21333 -0.6,0.2 -1.01334,0.54667 l -0.53333,-0.96 q 0.54667,-0.44 1.30667,-0.66666 0.75999,-0.24 1.61333,-0.24 z m -0.29334,6.22665 q 0.73333,0 1.26667,-0.32 0.53333,-0.33333 0.77333,-0.93333 v -0.98667 h -1.97333 q -1.62666,0 -1.62666,1.09333 0,0.53334 0.41333,0.84 0.41333,0.30667 1.14666,0.30667 z m 11.07997,-8.98665 h 1.28 v 9.89331 h -1.22667 v -1.11999 q -0.42666,0.58666 -1.08,0.89333 -0.65333,0.30666 -1.43999,0.30666 -1.02667,0 -1.84,-0.45333 -0.81333,-0.45333 -1.27999,-1.26666 -0.45334,-0.82667 -0.45334,-1.89333 0,-1.06667 0.45334,-1.88 0.46666,-0.81333 1.27999,-1.26666 0.81333,-0.45333 1.84,-0.45333 0.76,0 1.39999,0.29333 0.64,0.28 1.06667,0.84 z m -2.36,8.85332 q 0.66667,0 1.21334,-0.30667 0.54666,-0.32 0.85333,-0.88 0.30666,-0.57333 0.30666,-1.30666 0,-0.73333 -0.30666,-1.29333 -0.30667,-0.57333 -0.85333,-0.88 -0.54667,-0.30667 -1.21334,-0.30667 -0.67999,0 -1.22666,0.30667 -0.53333,0.30667 -0.85333,0.88 -0.30667,0.56 -0.30667,1.29333 0,0.73333 0.30667,1.30666 0.32,0.56 0.85333,0.88 0.54667,0.30667 1.22666,0.30667 z m 11.4533,-8.85332 h 1.28 v 9.89331 h -1.22667 v -1.11999 q -0.42666,0.58666 -1.08,0.89333 -0.65333,0.30666 -1.43999,0.30666 -1.02667,0 -1.84,-0.45333 -0.81333,-0.45333 -1.27999,-1.26666 -0.45334,-0.82667 -0.45334,-1.89333 0,-1.06667 0.45334,-1.88 0.46666,-0.81333 1.27999,-1.26666 0.81333,-0.45333 1.84,-0.45333 0.76,0 1.39999,0.29333 0.64,0.28 1.06667,0.84 z m -2.36,8.85332 q 0.66667,0 1.21333,-0.30667 0.54667,-0.32 0.85334,-0.88 0.30666,-0.57333 0.30666,-1.30666 0,-0.73333 -0.30666,-1.29333 -0.30667,-0.57333 -0.85334,-0.88 -0.54666,-0.30667 -1.21333,-0.30667 -0.67999,0 -1.22666,0.30667 -0.53333,0.30667 -0.85333,0.88 -0.30667,0.56 -0.30667,1.29333 0,0.73333 0.30667,1.30666 0.32,0.56 0.85333,0.88 0.54667,0.30667 1.22666,0.30667 z m 7.34664,1.03999 h -1.27999 v -7.06665 h 1.27999 z m -0.64,-8.42664 q -0.37333,0 -0.62666,-0.24 -0.24,-0.24 -0.24,-0.58667 0,-0.34666 0.24,-0.58666 0.25333,-0.25333 0.62666,-0.25333 0.37334,0 0.61334,0.23999 0.25333,0.22667 0.25333,0.57334 0,0.36 -0.25333,0.61333 -0.24,0.24 -0.61334,0.24 z m 7.05331,8.01331 q -0.28,0.24 -0.69333,0.37333 -0.41333,0.12 -0.85333,0.12 -1.06667,0 -1.65333,-0.57333 -0.58667,-0.57333 -0.58667,-1.63999 v -3.88 h -1.19999 v -1.05333 h 1.19999 v -1.54666 h 1.28 v 1.54666 h 2.02666 v 1.05333 h -2.02666 v 3.82666 q 0,0.57333 0.28,0.88 0.29333,0.30667 0.82666,0.30667 0.58667,0 1,-0.33334 z m 2.82666,0.41333 h -1.28 v -7.06665 h 1.28 z m -0.64,-8.42664 q -0.37333,0 -0.62667,-0.24 -0.24,-0.24 -0.24,-0.58667 0,-0.34666 0.24,-0.58666 0.25334,-0.25333 0.62667,-0.25333 0.37333,0 0.61333,0.23999 0.25333,0.22667 0.25333,0.57334 0,0.36 -0.25333,0.61333 -0.24,0.24 -0.61333,0.24 z m 6.10664,8.50664 q -1.05333,0 -1.89333,-0.46666 -0.84,-0.46667 -1.32,-1.28 -0.46666,-0.82666 -0.46666,-1.86666 0,-1.04 0.46666,-1.85333 0.48,-0.82666 1.32,-1.28 0.84,-0.46666 1.89333,-0.46666 1.05333,0 1.87999,0.46666 0.84,0.45334 1.30667,1.28 0.47999,0.81333 0.47999,1.85333 0,1.04 -0.47999,1.86666 -0.46667,0.81333 -1.30667,1.28 -0.82666,0.46666 -1.87999,0.46666 z m 0,-1.11999 q 0.67999,0 1.21333,-0.30667 0.54666,-0.32 0.85333,-0.88 0.30666,-0.57333 0.30666,-1.30666 0,-0.73333 -0.30666,-1.29333 -0.30667,-0.57333 -0.85333,-0.88 -0.53334,-0.30667 -1.21333,-0.30667 -0.68,0 -1.22667,0.30667 -0.53333,0.30667 -0.85333,0.88 -0.30666,0.56 -0.30666,1.29333 0,0.73333 0.30666,1.30666 0.32,0.56 0.85333,0.88 0.54667,0.30667 1.22667,0.30667 z m 9.21331,-6.09332 q 1.34666,0 2.13333,0.78666 0.8,0.77333 0.8,2.28 v 4.06665 h -1.28 v -3.91999 q 0,-1.02666 -0.49333,-1.54666 -0.49334,-0.52 -1.41333,-0.52 -1.04,0 -1.64,0.61333 -0.6,0.6 -0.6,1.73333 v 3.63999 h -1.27999 v -7.06665 h 1.22666 v 1.06667 q 0.38666,-0.54667 1.04,-0.84 0.66666,-0.29333 1.50666,-0.29333 z m 7.87998,0 q 1.46666,0 2.23999,0.72 0.78667,0.71999 0.78667,2.14666 v 4.26665 h -1.21333 v -0.93333 q -0.32,0.49333 -0.92,0.76 -0.58667,0.25333 -1.4,0.25333 -1.18666,0 -1.90666,-0.57333 -0.70666,-0.57333 -0.70666,-1.50666 0,-0.93333 0.67999,-1.49333 0.68,-0.57333 2.16,-0.57333 h 2.02666 v -0.25334 q 0,-0.82666 -0.48,-1.26666 -0.48,-0.44 -1.41333,-0.44 -0.62666,0 -1.22666,0.21333 -0.6,0.2 -1.01333,0.54667 l -0.53334,-0.96 q 0.54667,-0.44 1.30667,-0.66666 0.76,-0.24 1.61333,-0.24 z m -0.29334,6.22665 q 0.73334,0 1.26667,-0.32 0.53333,-0.33333 0.77333,-0.93333 v -0.98667 h -1.97333 q -1.62666,0 -1.62666,1.09333 0,0.53334 0.41333,0.84 0.41333,0.30667 1.14666,0.30667 z m 6.97331,0.90666 h -1.27999 v -9.89331 h 1.27999 z m 14.86662,-7.13331 q 1.33333,0 2.10666,0.77333 0.78666,0.77333 0.78666,2.29333 v 4.06665 h -1.27999 v -3.91999 q 0,-1.02666 -0.48,-1.54666 -0.46667,-0.52 -1.34667,-0.52 -0.97333,0 -1.54666,0.61333 -0.57333,0.6 -0.57333,1.73333 v 3.63999 h -1.28 v -3.91999 q 0,-1.02666 -0.48,-1.54666 -0.46666,-0.52 -1.34666,-0.52 -0.97333,0 -1.54666,0.61333 -0.57333,0.6 -0.57333,1.73333 v 3.63999 h -1.28 v -7.06665 h 1.22666 v 1.05333 q 0.38667,-0.54666 1.01333,-0.82666 0.62667,-0.29333 1.42667,-0.29333 0.82666,0 1.46666,0.33333 0.64,0.33333 0.98666,0.97333 0.4,-0.61333 1.10667,-0.96 0.71999,-0.34666 1.61333,-0.34666 z m 11.63995,3.63999 q 0,0.14666 -0.0267,0.38666 h -5.73332 q 0.12,0.93334 0.81333,1.50667 0.70666,0.56 1.74666,0.56 1.26667,0 2.04,-0.85334 l 0.70666,0.82667 q -0.48,0.56 -1.2,0.85333 -0.70666,0.29333 -1.58666,0.29333 -1.12,0 -1.98666,-0.45333 -0.86666,-0.46666 -1.34666,-1.29333 -0.46667,-0.82666 -0.46667,-1.86666 0,-1.02667 0.45333,-1.85333 0.46667,-0.82666 1.26667,-1.28 0.81333,-0.46666 1.82666,-0.46666 1.01333,0 1.79999,0.46666 0.8,0.45334 1.24,1.28 0.45333,0.82666 0.45333,1.89333 z m -3.49332,-2.55999 q -0.92,0 -1.54666,0.55999 -0.61334,0.56 -0.72,1.46667 h 4.53332 q -0.10667,-0.89333 -0.73333,-1.45333 -0.61333,-0.57333 -1.53333,-0.57333 z m 9.23997,5.63998 q -0.28,0.24 -0.69333,0.37333 -0.41333,0.12 -0.85333,0.12 -1.06667,0 -1.65333,-0.57333 -0.58667,-0.57333 -0.58667,-1.63999 v -3.88 h -1.19999 v -1.05333 h 1.19999 v -1.54666 h 1.28 v 1.54666 h 2.02666 v 1.05333 h -2.02666 v 3.82666 q 0,0.57333 0.28,0.88 0.29333,0.30667 0.82666,0.30667 0.58667,0 1,-0.33334 z m 4.11998,-6.71998 q 1.46667,0 2.24,0.72 0.78666,0.71999 0.78666,2.14666 v 4.26665 h -1.21333 v -0.93333 q -0.32,0.49333 -0.91999,0.76 -0.58667,0.25333 -1.4,0.25333 -1.18666,0 -1.90666,-0.57333 -0.70667,-0.57333 -0.70667,-1.50666 0,-0.93333 0.68,-1.49333 0.68,-0.57333 2.16,-0.57333 h 2.02666 v -0.25334 q 0,-0.82666 -0.48,-1.26666 -0.48,-0.44 -1.41333,-0.44 -0.62667,0 -1.22667,0.21333 -0.59999,0.2 -1.01333,0.54667 l -0.53333,-0.96 q 0.54667,-0.44 1.30667,-0.66666 0.75999,-0.24 1.61332,-0.24 z m -0.29333,6.22665 q 0.73333,0 1.26667,-0.32 0.53333,-0.33333 0.77333,-0.93333 v -0.98667 h -1.97333 q -1.62666,0 -1.62666,1.09333 0,0.53334 0.41333,0.84 0.41333,0.30667 1.14666,0.30667 z m 11.07997,-8.98665 h 1.27996 v 9.89331 h -1.22663 v -1.11999 q -0.42667,0.58666 -1.08,0.89333 -0.65333,0.30666 -1.44,0.30666 -1.02666,0 -1.83999,-0.45333 -0.81333,-0.45333 -1.28,-1.26666 -0.45333,-0.82667 -0.45333,-1.89333 0,-1.06667 0.45333,-1.88 0.46667,-0.81333 1.28,-1.26666 0.81333,-0.45333 1.83999,-0.45333 0.76,0 1.4,0.29333 0.64,0.28 1.06667,0.84 z m -2.36,8.85332 q 0.66667,0 1.21333,-0.30667 0.54667,-0.32 0.85333,-0.88 0.30667,-0.57333 0.30667,-1.30666 0,-0.73333 -0.30667,-1.29333 -0.30666,-0.57333 -0.85333,-0.88 -0.54666,-0.30667 -1.21333,-0.30667 -0.68,0 -1.22666,0.30667 -0.53333,0.30667 -0.85333,0.88 -0.30667,0.56 -0.30667,1.29333 0,0.73333 0.30667,1.30666 0.32,0.56 0.85333,0.88 0.54666,0.30667 1.22666,0.30667 z m 8.63996,-6.09332 q 1.4667,0 2.24,0.72 0.7867,0.71999 0.7867,2.14666 v 4.26665 h -1.2134 v -0.93333 q -0.32,0.49333 -0.92,0.76 -0.5866,0.25333 -1.4,0.25333 -1.1866,0 -1.9066,-0.57333 -0.7067,-0.57333 -0.7067,-1.50666 0,-0.93333 0.68,-1.49333 0.68,-0.57333 2.16,-0.57333 h 2.0267 v -0.25334 q 0,-0.82666 -0.48,-1.26666 -0.48,-0.44 -1.4134,-0.44 -0.6266,0 -1.2266,0.21333 -0.6,0.2 -1.0134,0.54667 l -0.5333,-0.96 q 0.5467,-0.44 1.3067,-0.66666 0.76,-0.24 1.6133,-0.24 z m -0.2933,6.22665 q 0.7333,0 1.2666,-0.32 0.5334,-0.33333 0.7734,-0.93333 v -0.98667 h -1.9734 q -1.6266,0 -1.6266,1.09333 0,0.53334 0.4133,0.84 0.4133,0.30667 1.1467,0.30667 z m 9.6666,0.49333 q -0.28,0.24 -0.6933,0.37333 -0.4134,0.12 -0.8534,0.12 -1.0666,0 -1.6533,-0.57333 -0.5866,-0.57333 -0.5866,-1.63999 v -3.88 h -1.2 v -1.05333 h 1.2 v -1.54666 h 1.2799 v 1.54666 h 2.0267 v 1.05333 h -2.0267 v 3.82666 q 0,0.57333 0.28,0.88 0.2934,0.30667 0.8267,0.30667 0.5867,0 1,-0.33334 z m 4.12,-6.71998 q 1.4667,0 2.24,0.72 0.7867,0.71999 0.7867,2.14666 v 4.26665 h -1.2134 v -0.93333 q -0.32,0.49333 -0.92,0.76 -0.5866,0.25333 -1.4,0.25333 -1.1866,0 -1.9066,-0.57333 -0.7067,-0.57333 -0.7067,-1.50666 0,-0.93333 0.68,-1.49333 0.68,-0.57333 2.16,-0.57333 h 2.0267 v -0.25334 q 0,-0.82666 -0.48,-1.26666 -0.48,-0.44 -1.4134,-0.44 -0.6266,0 -1.2266,0.21333 -0.6,0.2 -1.0134,0.54667 l -0.5333,-0.96 q 0.5467,-0.44 1.3067,-0.66666 0.76,-0.24 1.6133,-0.24 z m -0.2933,6.22665 q 0.7333,0 1.2666,-0.32 0.5334,-0.33333 0.7734,-0.93333 v -0.98667 h -1.9734 q -1.6266,0 -1.6266,1.09333 0,0.53334 0.4133,0.84 0.4133,0.30667 1.1467,0.30667 z"
           id="text11-9-0-0-9-2-8-5-4"
           style="font-weight:500;font-size:13.3333px;font-family:Montserrat;-inkscape-font-specification:'Montserrat, Medium';white-space:pre;inline-size:202.099;fill:#3e4349;stroke-width:3.21325;stroke-linecap:round;stroke-linejoin:round;paint-order:markers fill stroke"
           transform="matrix(1.1850569,0,0,1.5506213,-445.46666,5.8811787)"
           aria-label="- additional metadata" /></g><g
         id="g10-8-7-3-0-2"
         transform="matrix(0.36466383,0.22082643,-0.22082643,0.36466383,2968.2623,-1568.247)"
         style="display:inline;fill:#c83737;stroke-width:1.7;stroke-dasharray:none"><circle
           style="fill:#ffffff;fill-opacity:1;stroke:none;stroke-width:14.841;stroke-linecap:square;stroke-dasharray:none;stroke-dashoffset:0;stroke-opacity:1;paint-order:fill markers stroke"
           id="path73-6-7-4-7"
           cx="228.22922"
           cy="841.32001"
           transform="rotate(0.01535728)"
           r="33.171581" /><path
           id="path3-6-9-0-8-0"
           style="font-variation-settings:'wght' 700;fill:none;stroke:#195962;stroke-width:6.40174;stroke-linecap:round;stroke-linejoin:round;paint-order:markers fill stroke"
           d="m 563.52509,693.28894 a 35.520878,35.520878 0 0 1 -35.52088,35.52088 35.520878,35.520878 0 0 1 -35.52088,-35.52088 35.520878,35.520878 0 0 1 35.52088,-35.52088 35.520878,35.520878 0 0 1 35.52088,35.52088 z"
           transform="rotate(22.152263)" /><g
           id="g9-2-1-6-0-3"
           transform="translate(-1.3219444,-1.6027733)"><path
             d="m 221.1513,845.27224 c 0.0245,1.19424 -0.23692,2.22055 -0.78414,3.07896 -0.54765,0.83668 -1.38159,1.48371 -2.5018,1.94111 -1.12021,0.45737 -2.51629,0.70319 -4.18825,0.73743 -1.23765,0.0254 -2.3034,-0.0398 -3.19722,-0.19519 -0.40967,-0.0614 -0.81981,-0.1454 -1.2304,-0.25248 -0.81861,-0.21326 -1.47042,-1.16054 -1.48776,-2.00679 l -0.0193,-0.94161 c -0.0173,-0.84625 0.59808,-1.25531 1.40189,-0.99093 0.54067,0.1779 1.10164,0.33456 1.68292,0.47012 1.11318,0.2596 2.09317,0.38071 2.94,0.36338 0.95541,-0.0196 1.62563,-0.17459 2.01069,-0.46476 0.40678,-0.29073 0.6055,-0.66408 0.59616,-1.12009 -0.006,-0.30395 -0.0986,-0.57361 -0.27724,-0.80889 -0.15687,-0.23564 -0.50985,-0.50005 -1.05893,-0.79293 -0.54906,-0.29285 -1.40389,-0.66636 -2.56449,-1.1205 -1.11717,-0.45504 -2.0387,-0.90321 -2.76459,-1.3445 -0.72633,-0.46305 -1.26988,-1.0167 -1.63063,-1.66098 -0.36121,-0.66602 -0.55204,-1.49842 -0.57249,-2.49726 -0.0338,-1.65022 0.58141,-2.901 1.84562,-3.75236 1.2642,-0.85137 2.96027,-1.29882 5.08819,-1.3424 1.1074,-0.0227 2.16274,0.0643 3.166,0.26099 0.55248,0.10835 1.1157,0.25922 1.68968,0.45273 0.80179,0.27028 1.17351,1.19658 0.86143,1.98335 l -0.26453,0.66566 c -0.31266,0.78654 -1.20031,1.16326 -2.0021,0.89235 -0.36088,-0.12188 -0.71322,-0.23163 -1.057,-0.32905 -0.78701,-0.24462 -1.58224,-0.35863 -2.38563,-0.34218 -0.71656,0.0147 -1.25739,0.12356 -1.62252,0.32648 -0.34343,0.20264 -0.51112,0.49924 -0.50312,0.89009 0.006,0.28225 0.098,0.54105 0.27657,0.77636 0.19986,0.21314 0.56303,0.44464 1.0895,0.69452 0.54818,0.24942 1.34781,0.58068 2.39896,0.99362 1.029,0.39161 1.91729,0.80789 2.66487,1.24877 0.74715,0.41919 1.32306,0.96129 1.72768,1.62641 0.4259,0.64296 0.64974,1.49642 0.67154,2.5604 z m 8.40639,-11.1515 0.30142,14.71885 c 0.0173,0.84626 -0.6546,1.54635 -1.5009,1.56367 l -1.78842,0.0366 c -0.84626,0.0173 -1.54635,-0.6546 -1.56367,-1.5009 l -0.30141,-14.71886 c -0.0173,-0.84627 0.6546,-1.54636 1.5009,-1.56367 l 1.78841,-0.0366 c 0.84627,-0.0173 1.54636,0.6546 1.56367,1.50092 z m -2.58432,-8.45298 c 0.71654,-0.0147 1.33892,0.1463 1.86718,0.48309 0.52779,0.31507 0.80102,0.92856 0.8197,1.8405 0.0182,0.89027 -0.22965,1.51444 -0.74357,1.87258 -0.51404,0.35807 -1.12931,0.54445 -1.84585,0.55913 -0.73826,0.0151 -1.37152,-0.14564 -1.89976,-0.48242 -0.50653,-0.33721 -0.7689,-0.95093 -0.78714,-1.84119 -0.0187,-0.91197 0.21837,-1.53591 0.71111,-1.87186 0.51401,-0.35808 1.14015,-0.54469 1.87841,-0.5598 z m 13.39221,6.37288 c 1.08569,-0.0222 2.06723,0.17489 2.94469,0.5914 0.87743,0.41649 1.62903,1.05274 2.25479,1.90885 l 0.13022,-0.003 c 0.053,-1.62151 0.92731,-2.07451 1.82469,-2.0929 l 1.0393,-0.0213 c 0.84625,-0.0173 1.54634,0.6546 1.56365,1.50091 l 0.14972,16.1761 c 0.006,0.63934 -0.23499,1.62306 -0.66503,2.2835 -0.43004,0.66044 -1.6198,1.93803 -2.93234,2.55141 -1.31208,0.63511 -2.94522,0.97267 -4.89944,1.0127 -1.2594,0.0258 -2.43346,-0.0261 -3.52226,-0.15591 -0.5644,-0.0688 -1.12339,-0.17137 -1.677,-0.30716 -0.82165,-0.20163 -1.4805,-1.1291 -1.49782,-1.97537 l -0.0166,-0.8113 c -0.0173,-0.84624 0.6054,-1.27193 1.41728,-1.03366 0.63265,0.18566 1.27493,0.33315 1.92677,0.44237 1.17744,0.21474 2.3741,0.30981 3.59007,0.28491 1.25939,-0.0258 1.98092,-0.20257 2.81336,-0.83044 0.83244,-0.62787 0.89293,-1.80789 0.88606,-2.76748 -0.007,-0.9596 -0.0109,-0.89572 0.005,-1.20015 l -0.093,0.14247 c -0.58885,0.94616 -1.30245,1.63415 -2.14085,2.06405 -0.8384,0.4299 -1.78955,0.65574 -2.85352,0.67753 -2.10622,0.0431 -3.77289,-0.72647 -5.00005,-2.30882 -1.2059,-1.60451 -1.8384,-3.85073 -1.89754,-6.73862 -0.0596,-2.90961 0.50192,-5.19113 1.68453,-6.84455 1.18262,-1.65342 2.83789,-2.50193 4.96582,-2.54551 z m 1.61152,3.90968 c -0.75999,0.0156 -1.3963,0.235 -1.90898,0.65818 -0.4914,0.40107 -0.85915,1.00596 -1.10329,1.81472 -0.22283,0.78655 -0.32202,1.77699 -0.29756,2.97124 0.0365,1.78052 0.34608,3.1101 0.92888,3.9888 0.58233,0.85699 1.47062,1.27326 2.66486,1.2488 0.62971,-0.0129 1.17099,-0.0999 1.62385,-0.2613 0.45245,-0.18299 0.81602,-0.46201 1.09073,-0.83695 0.29598,-0.39705 0.51374,-0.90114 0.65333,-1.5122 0.1396,-0.6111 0.20037,-1.3509 0.18258,-2.21946 l -0.012,-0.58626 c -0.0262,-1.2811 -0.17753,-2.30982 -0.4542,-3.08619 -0.27657,-0.77636 -0.68982,-1.33268 -1.23979,-1.66898 -0.55038,-0.358 -1.25984,-0.52813 -2.12841,-0.51033 z"
             style="font-size:13.2602px;font-family:'Noto Sans';-inkscape-font-specification:'Noto Sans, @wght=700';font-variation-settings:'wght' 700;display:inline;fill:#195962;stroke-width:10.8591;stroke-linecap:round;stroke-linejoin:round;paint-order:markers fill stroke"
             id="path1-2-8-1-9-4-4" /><path
             id="path4-4-9-2-29-6"
             style="font-variation-settings:'wght' 700;display:inline;fill:none;stroke:#195962;stroke-width:3.64767;stroke-linecap:round;stroke-linejoin:round;stroke-opacity:1;paint-order:markers fill stroke"
             d="m 208.35953,828.56065 c 4.20155,-6.40232 11.67933,-11.91499 20.19969,-11.73012 8.20624,0.17805 13.83263,3.91368 19.70116,9.24107" /><path
             id="path4-6-7-0-1-61-3"
             style="font-variation-settings:'wght' 700;display:inline;fill:none;stroke:#195962;stroke-width:3.64767;stroke-linecap:round;stroke-linejoin:round;stroke-opacity:1;paint-order:markers fill stroke"
             d="m 248.51397,859.76996 c -5.73327,5.42971 -12.71409,8.56595 -19.29605,9.02109 -8.96638,0.62002 -15.41863,-3.91867 -20.7683,-10.62518" /></g></g><rect
         style="display:inline;fill:none;fill-opacity:1;stroke:#195962;stroke-width:1.28313;stroke-linecap:butt;stroke-linejoin:miter;stroke-dasharray:2.56625, 2.56625;stroke-dashoffset:0;stroke-opacity:1;paint-order:fill markers stroke"
         id="rect66-2-9-0-2"
         width="226.51097"
         height="151.81158"
         x="2657.8003"
         y="-1278.835"
         ry="0" /><path
         d="m 880.30223,573.22091 q -1.10666,0 -2.14666,-0.29333 -1.02667,-0.30667 -1.65333,-0.78666 l 0.73333,-1.62667 q 0.6,0.44 1.42666,0.70667 0.82667,0.26666 1.65333,0.26666 0.92,0 1.36,-0.26666 0.44,-0.28 0.44,-0.73333 0,-0.33334 -0.26667,-0.54667 -0.25333,-0.22667 -0.66666,-0.36 -0.4,-0.13333 -1.09333,-0.29333 -1.06667,-0.25333 -1.74667,-0.50667 -0.67999,-0.25333 -1.17333,-0.81333 -0.48,-0.56 -0.48,-1.49333 0,-0.81333 0.44,-1.46666 0.44,-0.66666 1.32,-1.05333 0.89333,-0.38667 2.17333,-0.38667 0.89333,0 1.74666,0.21334 0.85333,0.21333 1.49333,0.61333 l -0.66666,1.63999 q -1.29334,-0.73333 -2.58667,-0.73333 -0.90666,0 -1.34666,0.29334 -0.42666,0.29333 -0.42666,0.77333 0,0.48 0.49333,0.71999 0.50666,0.22667 1.53333,0.45334 1.06666,0.25333 1.74666,0.50666 0.68,0.25334 1.16,0.8 0.49333,0.54667 0.49333,1.48 0,0.79999 -0.45333,1.46666 -0.44,0.65333 -1.33333,1.04 -0.89333,0.38666 -2.17333,0.38666 z m 7.37332,-0.16 h -2.07999 v -7.17331 h 2.07999 z m -1.04,-8.17331 q -0.57333,0 -0.93333,-0.33333 -0.36,-0.33333 -0.36,-0.82667 0,-0.49333 0.36,-0.82666 0.36,-0.33333 0.93333,-0.33333 0.57333,0 0.93333,0.32 0.36,0.31999 0.36,0.79999 0,0.52 -0.36,0.86667 -0.36,0.33333 -0.93333,0.33333 z m 8.39999,1 h 1.97333 v 5.97332 q 0,1.97332 -1.02667,2.93332 -1.02666,0.96 -2.99999,0.96 -1.04,0 -1.97333,-0.25333 -0.93333,-0.25334 -1.54666,-0.73333 l 0.82667,-1.49333 q 0.45333,0.37333 1.14666,0.58666 0.69333,0.22667 1.38666,0.22667 1.08,0 1.58666,-0.49333 0.52,-0.48 0.52,-1.46667 v -0.30666 q -0.81333,0.89333 -2.26666,0.89333 -0.98666,0 -1.81333,-0.42667 -0.81333,-0.44 -1.29333,-1.22666 -0.47999,-0.78667 -0.47999,-1.81333 0,-1.02666 0.47999,-1.81333 0.48,-0.78666 1.29333,-1.21333 0.82667,-0.44 1.81333,-0.44 1.56,0 2.37333,1.02667 z m -1.95999,5.11998 q 0.82666,0 1.34666,-0.47999 0.53333,-0.49334 0.53333,-1.28 0,-0.78667 -0.53333,-1.26666 -0.52,-0.49334 -1.34666,-0.49334 -0.82667,0 -1.36,0.49334 -0.53333,0.47999 -0.53333,1.26666 0,0.78666 0.53333,1.28 0.53333,0.47999 1.36,0.47999 z m 10.22664,-5.22665 q 1.33333,0 2.14667,0.8 0.82666,0.8 0.82666,2.37333 v 4.10665 h -2.07999 v -3.78665 q 0,-0.85334 -0.37334,-1.26667 -0.37333,-0.42666 -1.07999,-0.42666 -0.78667,0 -1.25333,0.49333 -0.46667,0.48 -0.46667,1.44 v 3.54665 h -2.07999 v -7.17331 h 1.98666 v 0.84 q 0.41333,-0.45334 1.02666,-0.69334 0.61333,-0.25333 1.34666,-0.25333 z m 7.74665,0 q 1.66666,0 2.56,0.8 0.89333,0.78666 0.89333,2.38666 v 4.09332 h -1.94667 v -0.89333 q -0.58666,1 -2.18666,1 -0.82666,0 -1.43999,-0.28 -0.6,-0.28 -0.92,-0.77333 -0.32,-0.49333 -0.32,-1.12 0,-1 0.74667,-1.57333 0.75999,-0.57333 2.33332,-0.57333 h 1.65333 q 0,-0.68 -0.41333,-1.04 -0.41333,-0.37333 -1.24,-0.37333 -0.57333,0 -1.13333,0.18667 -0.54666,0.17333 -0.93333,0.48 l -0.74666,-1.45333 q 0.58666,-0.41334 1.39999,-0.64 0.82667,-0.22667 1.69333,-0.22667 z m -0.16,5.98665 q 0.53333,0 0.94667,-0.24 0.41333,-0.25333 0.58666,-0.73333 v -0.73333 h -1.42666 q -1.28,0 -1.28,0.84 0,0.4 0.30667,0.64 0.32,0.22666 0.86666,0.22666 z m 10.11999,0.94667 q -0.30667,0.22666 -0.76,0.34666 -0.44,0.10667 -0.93333,0.10667 -1.28,0 -1.98667,-0.65333 -0.69333,-0.65333 -0.69333,-1.92 v -2.94666 h -1.10666 v -1.59999 h 1.10666 v -1.74666 h 2.08 v 1.74666 h 1.78666 v 1.59999 h -1.78666 v 2.92 q 0,0.45333 0.22666,0.70666 0.24,0.24 0.66667,0.24 0.49333,0 0.84,-0.26667 z m 6.31997,-6.82665 h 2.08 v 7.17331 h -1.97333 v -0.85333 q -0.41333,0.46667 -0.98666,0.72 -0.57334,0.24 -1.24,0.24 -1.41333,0 -2.24,-0.81333 -0.82666,-0.81333 -0.82666,-2.41333 v -4.05332 h 2.08 v 3.74666 q 0,1.73332 1.45332,1.73332 0.74667,0 1.2,-0.47999 0.45333,-0.49334 0.45333,-1.45333 z m 5.99999,0.94666 q 0.37334,-0.52 1,-0.78666 0.64,-0.26667 1.46666,-0.26667 v 1.92 q -0.34666,-0.0267 -0.46666,-0.0267 -0.89333,0 -1.4,0.50667 -0.50666,0.49333 -0.50666,1.49332 v 3.38666 h -2.08 v -7.17331 h 1.98666 z m 10.66663,2.66666 q 0,0.04 -0.04,0.56 h -5.42666 q 0.14667,0.66667 0.69334,1.05333 0.54666,0.38667 1.35999,0.38667 0.56,0 0.98667,-0.16 0.43999,-0.17334 0.81333,-0.53333 l 1.10666,1.19999 q -1.01333,1.16 -2.95999,1.16 -1.21333,0 -2.14666,-0.46667 -0.93333,-0.47999 -1.44,-1.31999 -0.50666,-0.84 -0.50666,-1.90666 0,-1.05334 0.49333,-1.89333 0.50666,-0.85333 1.37333,-1.32 0.88,-0.48 1.95999,-0.48 1.05333,0 1.90666,0.45333 0.85334,0.45334 1.33333,1.30667 0.49334,0.83999 0.49334,1.95999 z m -3.71999,-2.14666 q -0.70667,0 -1.18667,0.4 -0.48,0.4 -0.58666,1.09333 h 3.53332 q -0.10666,-0.68 -0.58666,-1.08 -0.48,-0.41333 -1.17333,-0.41333 z m 18.06664,-1.57333 q 1.34666,0 2.13333,0.8 0.79999,0.78666 0.79999,2.37333 v 4.10665 h -2.07999 v -3.78665 q 0,-0.85334 -0.36,-1.26667 -0.34667,-0.42666 -1,-0.42666 -0.73333,0 -1.15999,0.48 -0.42667,0.46666 -0.42667,1.39999 v 3.59999 h -2.07999 v -3.78665 q 0,-1.69333 -1.36,-1.69333 -0.72,0 -1.14667,0.48 -0.42666,0.46666 -0.42666,1.39999 v 3.59999 h -2.08 v -7.17331 h 1.98667 v 0.82666 q 0.4,-0.45333 0.97333,-0.69333 0.58666,-0.24 1.27999,-0.24 0.76,0 1.37333,0.30667 0.61334,0.29333 0.98667,0.86666 0.44,-0.56 1.10666,-0.86666 0.68,-0.30667 1.48,-0.30667 z m 11.87996,3.71999 q 0,0.04 -0.04,0.56 h -5.42665 q 0.14666,0.66667 0.69333,1.05333 0.54666,0.38667 1.35999,0.38667 0.56,0 0.98667,-0.16 0.44,-0.17334 0.81333,-0.53333 l 1.10666,1.19999 q -1.01333,1.16 -2.95999,1.16 -1.21333,0 -2.14666,-0.46667 -0.93333,-0.47999 -1.44,-1.31999 -0.50666,-0.84 -0.50666,-1.90666 0,-1.05334 0.49333,-1.89333 0.50667,-0.85333 1.37333,-1.32 0.88,-0.48 1.95999,-0.48 1.05334,0 1.90667,0.45333 0.85333,0.45334 1.33333,1.30667 0.49333,0.83999 0.49333,1.95999 z m -3.71999,-2.14666 q -0.70667,0 -1.18667,0.4 -0.47999,0.4 -0.58666,1.09333 h 3.53332 q -0.10666,-0.68 -0.58666,-1.08 -0.48,-0.41333 -1.17333,-0.41333 z m 9.73332,5.35999 q -0.30667,0.22666 -0.76,0.34666 -0.44,0.10667 -0.93333,0.10667 -1.28,0 -1.98666,-0.65333 -0.69334,-0.65333 -0.69334,-1.92 v -2.94666 h -1.10666 v -1.59999 h 1.10666 v -1.74666 h 2.08 v 1.74666 h 1.78666 v 1.59999 h -1.78666 v 2.92 q 0,0.45333 0.22667,0.70666 0.24,0.24 0.66666,0.24 0.49333,0 0.84,-0.26667 z m 4.06665,-6.93332 q 1.66666,0 2.55999,0.8 0.89333,0.78666 0.89333,2.38666 v 4.09332 h -1.94666 v -0.89333 q -0.58666,1 -2.18666,1 -0.82666,0 -1.44,-0.28 -0.59999,-0.28 -0.91999,-0.77333 -0.32,-0.49333 -0.32,-1.12 0,-1 0.74666,-1.57333 0.76,-0.57333 2.33333,-0.57333 h 1.65333 q 0,-0.68 -0.41333,-1.04 -0.41334,-0.37333 -1.24,-0.37333 -0.57333,0 -1.13333,0.18667 -0.54667,0.17333 -0.93333,0.48 l -0.74667,-1.45333 q 0.58667,-0.41334 1.4,-0.64 0.82666,-0.22667 1.69333,-0.22667 z m -0.16,5.98665 q 0.53333,0 0.94666,-0.24 0.41334,-0.25333 0.58667,-0.73333 v -0.73333 h -1.42666 q -1.28,0 -1.28,0.84 0,0.4 0.30666,0.64 0.32,0.22666 0.86667,0.22666 z m 10.7733,-8.59998 h 2.08 v 9.89331 h -1.98667 v -0.82666 q -0.77333,0.93333 -2.23999,0.93333 -1.01333,0 -1.83999,-0.45333 -0.81334,-0.45333 -1.28,-1.29333 -0.46667,-0.84 -0.46667,-1.94666 0,-1.10667 0.46667,-1.94667 0.46666,-0.83999 1.28,-1.29333 0.82666,-0.45333 1.83999,-0.45333 1.37333,0 2.14666,0.86667 z m -1.78666,8.29332 q 0.78666,0 1.30666,-0.53333 0.52,-0.54667 0.52,-1.45333 0,-0.90667 -0.52,-1.44 -0.52,-0.54667 -1.30666,-0.54667 -0.8,0 -1.32,0.54667 -0.52,0.53333 -0.52,1.44 0,0.90666 0.52,1.45333 0.52,0.53333 1.32,0.53333 z m 8.67997,-5.67999 q 1.66667,0 2.55998,0.8 0.8933,0.78666 0.8933,2.38666 v 4.09332 h -1.94661 v -0.89333 q -0.58667,1 -2.18667,1 -0.82666,0 -1.43999,-0.28 -0.6,-0.28 -0.92,-0.77333 -0.32,-0.49333 -0.32,-1.12 0,-1 0.74667,-1.57333 0.75999,-0.57333 2.33332,-0.57333 h 1.65333 q 0,-0.68 -0.41333,-1.04 -0.41333,-0.37333 -1.24,-0.37333 -0.57333,0 -1.13333,0.18667 -0.54666,0.17333 -0.93333,0.48 l -0.74666,-1.45333 q 0.58666,-0.41334 1.39999,-0.64 0.82667,-0.22667 1.69333,-0.22667 z m -0.16,5.98665 q 0.53334,0 0.94667,-0.24 0.41333,-0.25333 0.58666,-0.73333 v -0.73333 h -1.42666 q -1.28,0 -1.28,0.84 0,0.4 0.30667,0.64 0.32,0.22666 0.86666,0.22666 z m 10.11998,0.94667 q -0.3067,0.22666 -0.76,0.34666 -0.44,0.10667 -0.9333,0.10667 -1.28,0 -1.9867,-0.65333 -0.6933,-0.65333 -0.6933,-1.92 v -2.94666 h -1.1067 v -1.59999 h 1.1067 v -1.74666 h 2.08 v 1.74666 h 1.7866 v 1.59999 h -1.7866 v 2.92 q 0,0.45333 0.2266,0.70666 0.24,0.24 0.6667,0.24 0.4933,0 0.84,-0.26667 z m 4.0667,-6.93332 q 1.6666,0 2.56,0.8 0.8933,0.78666 0.8933,2.38666 v 4.09332 h -1.9467 v -0.89333 q -0.5866,1 -2.1866,1 -0.8267,0 -1.44,-0.28 -0.6,-0.28 -0.92,-0.77333 -0.32,-0.49333 -0.32,-1.12 0,-1 0.7466,-1.57333 0.76,-0.57333 2.3334,-0.57333 h 1.6533 q 0,-0.68 -0.4133,-1.04 -0.4134,-0.37333 -1.24,-0.37333 -0.5734,0 -1.1334,0.18667 -0.5466,0.17333 -0.9333,0.48 l -0.7467,-1.45333 q 0.5867,-0.41334 1.4,-0.64 0.8267,-0.22667 1.6934,-0.22667 z m -0.16,5.98665 q 0.5333,0 0.9466,-0.24 0.4134,-0.25333 0.5867,-0.73333 v -0.73333 h -1.4267 q -1.28,0 -1.28,0.84 0,0.4 0.3067,0.64 0.32,0.22666 0.8667,0.22666 z"
         id="text11-9-0-0-9-2-5-9-1-5-6"
         style="font-weight:bold;font-size:13.3333px;font-family:Montserrat;-inkscape-font-specification:'Montserrat, Bold';white-space:pre;inline-size:202.099;fill:#3e4349;stroke-width:3.21325;stroke-linecap:round;stroke-linejoin:round;paint-order:markers fill stroke"
         transform="matrix(1.0006928,0,0,0.99930768,1826.1146,-1784.4127)"
         aria-label="Signature metadata" /><path
         style="font-weight:500;font-size:13.0667px;font-family:Montserrat;-inkscape-font-specification:'Montserrat Medium';fill:#3e4349;stroke-width:2.8271;stroke-linecap:round;stroke-linejoin:round;paint-order:markers fill stroke"
         d="m 2706.7261,-1251.509 q -1.0323,0 -1.9992,-0.3136 -0.9539,-0.3267 -1.5027,-0.8363 l 0.4835,-1.0192 q 0.5226,0.4704 1.3328,0.771 0.8232,0.2874 1.6856,0.2874 1.1368,0 1.6987,-0.3789 0.5618,-0.392 0.5618,-1.0323 0,-0.4704 -0.3136,-0.7578 -0.3005,-0.3006 -0.7578,-0.4574 -0.4443,-0.1568 -1.2675,-0.3528 -1.0323,-0.2482 -1.6726,-0.4965 -0.6272,-0.2483 -1.0845,-0.7579 -0.4443,-0.5226 -0.4443,-1.3981 0,-0.7317 0.379,-1.3197 0.392,-0.588 1.176,-0.9408 0.784,-0.3528 1.9469,-0.3528 0.8102,0 1.5942,0.209 0.784,0.2091 1.3458,0.6011 l -0.4312,1.0453 q -0.5749,-0.3658 -1.2282,-0.5488 -0.6534,-0.196 -1.2806,-0.196 -1.1106,0 -1.6725,0.4051 -0.5488,0.4051 -0.5488,1.0453 0,0.4704 0.3136,0.771 0.3136,0.2874 0.7709,0.4573 0.4704,0.1568 1.2675,0.3397 1.0323,0.2483 1.6595,0.4966 0.6272,0.2482 1.0714,0.7578 0.4574,0.5096 0.4574,1.372 0,0.7187 -0.392,1.3198 -0.392,0.588 -1.1891,0.9408 -0.7971,0.3397 -1.96,0.3397 z m 6.5203,-0.1045 h -1.2544 v -6.9254 h 1.2544 z m -0.6272,-8.2582 q -0.3659,0 -0.6142,-0.2352 -0.2352,-0.2352 -0.2352,-0.5749 0,-0.3397 0.2352,-0.5749 0.2483,-0.2483 0.6142,-0.2483 0.3658,0 0.601,0.2352 0.2483,0.2221 0.2483,0.5619 0,0.3528 -0.2483,0.601 -0.2352,0.2352 -0.601,0.2352 z m 8.4541,1.3328 h 1.1891 v 5.9846 q 0,1.8162 -0.9016,2.6786 -0.9016,0.8755 -2.6918,0.8755 -0.98,0 -1.8685,-0.2744 -0.8885,-0.2613 -1.4373,-0.7579 l 0.601,-0.9669 q 0.4835,0.4181 1.1891,0.6533 0.7187,0.2483 1.4765,0.2483 1.2152,0 1.7902,-0.5749 0.588,-0.575 0.588,-1.751 v -0.5488 q -0.4443,0.5358 -1.0976,0.8102 -0.6403,0.2613 -1.3982,0.2613 -0.993,0 -1.8032,-0.4181 -0.797,-0.4312 -1.2544,-1.1891 -0.4573,-0.7709 -0.4573,-1.7509 0,-0.98 0.4573,-1.7379 0.4574,-0.7709 1.2544,-1.1891 0.8102,-0.4181 1.8032,-0.4181 0.784,0 1.4504,0.2875 0.6795,0.2874 1.1107,0.8493 z m -2.4173,5.5403 q 0.6794,0 1.2152,-0.2875 0.5488,-0.2874 0.8493,-0.797 0.3136,-0.5227 0.3136,-1.176 0,-1.0062 -0.6664,-1.6203 -0.6664,-0.6272 -1.7117,-0.6272 -1.0584,0 -1.7248,0.6272 -0.6664,0.6141 -0.6664,1.6203 0,0.6533 0.3005,1.176 0.3136,0.5096 0.8493,0.797 0.5488,0.2875 1.2414,0.2875 z m 9.6955,-5.6056 q 1.3197,0 2.0907,0.7709 0.784,0.7579 0.784,2.2344 v 3.9854 h -1.2545 v -3.8416 q 0,-1.0062 -0.4834,-1.5158 -0.4835,-0.5096 -1.3851,-0.5096 -1.0192,0 -1.6072,0.6011 -0.588,0.588 -0.588,1.6987 v 3.5672 h -1.2544 v -6.9254 h 1.2021 v 1.0454 q 0.379,-0.5358 1.0192,-0.8232 0.6534,-0.2875 1.4766,-0.2875 z m 7.7224,0 q 1.4373,0 2.1952,0.7056 0.7709,0.7056 0.7709,2.1037 v 4.1814 h -1.189 v -0.9147 q -0.3136,0.4835 -0.9016,0.7448 -0.575,0.2483 -1.372,0.2483 -1.163,0 -1.8686,-0.5619 -0.6925,-0.5619 -0.6925,-1.4765 0,-0.9147 0.6664,-1.4635 0.6664,-0.5619 2.1168,-0.5619 h 1.9861 v -0.2482 q 0,-0.8102 -0.4704,-1.2414 -0.4704,-0.4312 -1.385,-0.4312 -0.6142,0 -1.2022,0.2091 -0.588,0.196 -0.993,0.5357 l -0.5227,-0.9408 q 0.5357,-0.4312 1.2805,-0.6533 0.7448,-0.2352 1.5811,-0.2352 z m -0.2875,6.1021 q 0.7187,0 1.2414,-0.3136 0.5226,-0.3266 0.7578,-0.9146 v -0.967 h -1.9338 q -1.5942,0 -1.5942,1.0715 0,0.5227 0.4051,0.8232 0.4051,0.3005 1.1237,0.3005 z m 9.4734,0.4835 q -0.2744,0.2352 -0.6795,0.3659 -0.4051,0.1176 -0.8363,0.1176 -1.0453,0 -1.6202,-0.5619 -0.575,-0.5619 -0.575,-1.6072 v -3.8024 h -1.176 v -1.0323 h 1.176 v -1.5157 h 1.2544 v 1.5157 h 1.9862 v 1.0323 h -1.9862 v 3.7501 q 0,0.5619 0.2744,0.8624 0.2875,0.3006 0.8102,0.3006 0.5749,0 0.98,-0.3267 z m 6.7163,-6.5203 h 1.2544 v 6.9254 h -1.1891 v -1.0454 q -0.3789,0.5358 -1.0061,0.8363 -0.6142,0.2875 -1.3459,0.2875 -1.3851,0 -2.1822,-0.7579 -0.797,-0.7709 -0.797,-2.2605 v -3.9854 h 1.2544 v 3.8416 q 0,1.0062 0.4834,1.5288 0.4835,0.5096 1.3851,0.5096 0.9931,0 1.568,-0.601 0.575,-0.6011 0.575,-1.6987 z m 4.8477,1.163 q 0.3267,-0.6011 0.9669,-0.9147 0.6403,-0.3136 1.555,-0.3136 v 1.2152 q -0.1046,-0.013 -0.2875,-0.013 -1.0192,0 -1.6072,0.6142 -0.5749,0.601 -0.5749,1.7248 v 3.4496 h -1.2544 v -6.9254 h 1.2021 z m 10.2574,2.3389 q 0,0.1437 -0.026,0.3789 h -5.6186 q 0.1176,0.9147 0.797,1.4766 0.6926,0.5488 1.7118,0.5488 1.2413,0 1.9992,-0.8363 l 0.6925,0.8101 q -0.4704,0.5488 -1.176,0.8363 -0.6925,0.2875 -1.5549,0.2875 -1.0976,0 -1.947,-0.4443 -0.8493,-0.4573 -1.3197,-1.2675 -0.4573,-0.8101 -0.4573,-1.8293 0,-1.0061 0.4442,-1.8163 0.4574,-0.8101 1.2414,-1.2544 0.797,-0.4573 1.7901,-0.4573 0.9931,0 1.764,0.4573 0.784,0.4443 1.2152,1.2544 0.4443,0.8102 0.4443,1.8555 z m -3.4235,-2.5088 q -0.9016,0 -1.5157,0.5488 -0.6011,0.5488 -0.7056,1.4373 h 4.4426 q -0.1045,-0.8754 -0.7186,-1.4242 -0.6011,-0.5619 -1.5027,-0.5619 z m 11.6424,6.0107 q -1.0323,0 -1.8555,-0.4574 -0.8232,-0.4573 -1.2936,-1.2544 -0.4573,-0.8101 -0.4573,-1.8293 0,-1.0192 0.4573,-1.8163 0.4704,-0.8101 1.2936,-1.2544 0.8232,-0.4573 1.8555,-0.4573 1.0323,0 1.8424,0.4573 0.8232,0.4443 1.2805,1.2544 0.4705,0.7971 0.4705,1.8163 0,1.0192 -0.4705,1.8293 -0.4573,0.7971 -1.2805,1.2544 -0.8101,0.4574 -1.8424,0.4574 z m 0,-1.0976 q 0.6664,0 1.1891,-0.3006 0.5357,-0.3136 0.8362,-0.8624 0.3006,-0.5618 0.3006,-1.2805 0,-0.7187 -0.3006,-1.2675 -0.3005,-0.5618 -0.8362,-0.8624 -0.5227,-0.3005 -1.1891,-0.3005 -0.6664,0 -1.2021,0.3005 -0.5227,0.3006 -0.8363,0.8624 -0.3005,0.5488 -0.3005,1.2675 0,0.7187 0.3005,1.2805 0.3136,0.5488 0.8363,0.8624 0.5357,0.3006 1.2021,0.3006 z m 7.6048,-0.3528 2.4304,-5.5534 h 1.2283 l -3.0315,6.9254 h -1.2805 l -3.0315,-6.9254 h 1.3067 z m 10.8977,-2.0515 q 0,0.1437 -0.026,0.3789 h -5.6186 q 0.1176,0.9147 0.797,1.4766 0.6926,0.5488 1.7118,0.5488 1.2413,0 1.9992,-0.8363 l 0.6925,0.8101 q -0.4704,0.5488 -1.176,0.8363 -0.6925,0.2875 -1.5549,0.2875 -1.0976,0 -1.947,-0.4443 -0.8493,-0.4573 -1.3197,-1.2675 -0.4573,-0.8101 -0.4573,-1.8293 0,-1.0061 0.4442,-1.8163 0.4574,-0.8101 1.2414,-1.2544 0.797,-0.4573 1.7901,-0.4573 0.9931,0 1.764,0.4573 0.784,0.4443 1.2152,1.2544 0.4443,0.8102 0.4443,1.8555 z m -3.4235,-2.5088 q -0.9016,0 -1.5157,0.5488 -0.6011,0.5488 -0.7056,1.4373 h 4.4426 q -0.1045,-0.8754 -0.7186,-1.4242 -0.6011,-0.5619 -1.5027,-0.5619 z m 6.3635,0.1699 q 0.3266,-0.6011 0.9669,-0.9147 0.6403,-0.3136 1.555,-0.3136 v 1.2152 q -0.1046,-0.013 -0.2875,-0.013 -1.0192,0 -1.6072,0.6142 -0.575,0.601 -0.575,1.7248 v 3.4496 h -1.2544 v -6.9254 h 1.2022 z m 4.4557,0.5618 q -0.3659,0 -0.6272,-0.2482 -0.2613,-0.2614 -0.2613,-0.6534 0,-0.3789 0.2613,-0.6272 0.2613,-0.2613 0.6272,-0.2613 0.3659,0 0.6141,0.2483 0.2483,0.2482 0.2483,0.6402 0,0.392 -0.2613,0.6534 -0.2483,0.2482 -0.6011,0.2482 z m 0,5.279 q -0.3659,0 -0.6272,-0.2483 -0.2613,-0.2613 -0.2613,-0.6533 0,-0.379 0.2613,-0.6272 0.2613,-0.2614 0.6272,-0.2614 0.3659,0 0.6141,0.2483 0.2483,0.2483 0.2483,0.6403 0,0.392 -0.2613,0.6533 -0.2483,0.2483 -0.6011,0.2483 z"
         id="text11-2-8-96-5-4-9-7"
         aria-label="Signature over:" /><path
         d="m 879.39556,573.06091 h -2.15999 v -9.33331 h 2.15999 z m 6.42664,-7.27998 q 1.33333,0 2.14666,0.8 0.82667,0.8 0.82667,2.37333 v 4.10665 h -2.08 v -3.78665 q 0,-0.85334 -0.37333,-1.26667 -0.37333,-0.42666 -1.08,-0.42666 -0.78666,0 -1.25333,0.49333 -0.46666,0.48 -0.46666,1.44 v 3.54665 h -2.08 v -7.17331 h 1.98667 v 0.84 q 0.41333,-0.45334 1.02666,-0.69334 0.61333,-0.25333 1.34666,-0.25333 z m 9.09331,0 q 1,0 1.81333,0.46667 0.82667,0.45333 1.29333,1.29333 0.46667,0.82666 0.46667,1.93333 0,1.10666 -0.46667,1.94666 -0.46666,0.82666 -1.29333,1.29333 -0.81333,0.45333 -1.81333,0.45333 -1.37333,0 -2.15999,-0.86666 v 3.34665 h -2.08 v -9.75997 h 1.98667 v 0.82666 q 0.77333,-0.93333 2.25332,-0.93333 z m -0.36,5.67999 q 0.8,0 1.30667,-0.53333 0.52,-0.54667 0.52,-1.45333 0,-0.90667 -0.52,-1.44 -0.50667,-0.54667 -1.30667,-0.54667 -0.79999,0 -1.31999,0.54667 -0.50667,0.53333 -0.50667,1.44 0,0.90666 0.50667,1.45333 0.52,0.53333 1.31999,0.53333 z m 10.46665,-5.57332 h 2.08 v 7.17331 h -1.97333 v -0.85333 q -0.41333,0.46667 -0.98667,0.72 -0.57333,0.24 -1.23999,0.24 -1.41333,0 -2.24,-0.81333 -0.82666,-0.81333 -0.82666,-2.41333 v -4.05332 h 2.07999 v 3.74666 q 0,1.73332 1.45333,1.73332 0.74667,0 1.2,-0.47999 0.45333,-0.49334 0.45333,-1.45333 z m 8.63998,6.82665 q -0.30666,0.22666 -0.75999,0.34666 -0.44,0.10667 -0.93334,0.10667 -1.27999,0 -1.98666,-0.65333 -0.69333,-0.65333 -0.69333,-1.92 v -2.94666 h -1.10666 v -1.59999 h 1.10666 v -1.74666 h 2.08 v 1.74666 h 1.78666 v 1.59999 h -1.78666 v 2.92 q 0,0.45333 0.22666,0.70666 0.24,0.24 0.66667,0.24 0.49333,0 0.83999,-0.26667 z m 10.17332,-9.54665 h 2.07999 v 9.89331 h -1.98666 v -0.82666 q -0.77333,0.93333 -2.23999,0.93333 -1.01333,0 -1.84,-0.45333 -0.81333,-0.45333 -1.27999,-1.29333 -0.46667,-0.84 -0.46667,-1.94666 0,-1.10667 0.46667,-1.94667 0.46666,-0.83999 1.27999,-1.29333 0.82667,-0.45333 1.84,-0.45333 1.37333,0 2.14666,0.86667 z m -1.78666,8.29332 q 0.78666,0 1.30666,-0.53333 0.52,-0.54667 0.52,-1.45333 0,-0.90667 -0.52,-1.44 -0.52,-0.54667 -1.30666,-0.54667 -0.8,0 -1.32,0.54667 -0.52,0.53333 -0.52,1.44 0,0.90666 0.52,1.45333 0.52,0.53333 1.32,0.53333 z m 8.67997,-5.67999 q 1.66666,0 2.55999,0.8 0.89333,0.78666 0.89333,2.38666 v 4.09332 h -1.94666 v -0.89333 q -0.58667,1 -2.18666,1 -0.82667,0 -1.44,-0.28 -0.6,-0.28 -0.92,-0.77333 -0.32,-0.49333 -0.32,-1.12 0,-1 0.74667,-1.57333 0.76,-0.57333 2.33333,-0.57333 h 1.65333 q 0,-0.68 -0.41334,-1.04 -0.41333,-0.37333 -1.23999,-0.37333 -0.57334,0 -1.13333,0.18667 -0.54667,0.17333 -0.93333,0.48 l -0.74667,-1.45333 q 0.58667,-0.41334 1.4,-0.64 0.82666,-0.22667 1.69333,-0.22667 z m -0.16,5.98665 q 0.53333,0 0.94666,-0.24 0.41333,-0.25333 0.58667,-0.73333 v -0.73333 h -1.42667 q -1.27999,0 -1.27999,0.84 0,0.4 0.30666,0.64 0.32,0.22666 0.86667,0.22666 z m 10.11998,0.94667 q -0.30667,0.22666 -0.76,0.34666 -0.44,0.10667 -0.93333,0.10667 -1.28,0 -1.98666,-0.65333 -0.69333,-0.65333 -0.69333,-1.92 v -2.94666 h -1.10667 v -1.59999 h 1.10667 v -1.74666 h 2.07999 v 1.74666 h 1.78666 v 1.59999 h -1.78666 v 2.92 q 0,0.45333 0.22667,0.70666 0.24,0.24 0.66666,0.24 0.49333,0 0.84,-0.26667 z m 4.06665,-6.93332 q 1.66666,0 2.55999,0.8 0.89333,0.78666 0.89333,2.38666 v 4.09332 h -1.94666 v -0.89333 q -0.58666,1 -2.18666,1 -0.82666,0 -1.43999,-0.28 -0.6,-0.28 -0.92,-0.77333 -0.32,-0.49333 -0.32,-1.12 0,-1 0.74666,-1.57333 0.76,-0.57333 2.33333,-0.57333 h 1.65333 q 0,-0.68 -0.41333,-1.04 -0.41333,-0.37333 -1.24,-0.37333 -0.57333,0 -1.13333,0.18667 -0.54666,0.17333 -0.93333,0.48 l -0.74667,-1.45333 q 0.58667,-0.41334 1.4,-0.64 0.82667,-0.22667 1.69333,-0.22667 z m -0.16,5.98665 q 0.53333,0 0.94666,-0.24 0.41334,-0.25333 0.58667,-0.73333 v -0.73333 h -1.42666 q -1.28,0 -1.28,0.84 0,0.4 0.30667,0.64 0.32,0.22666 0.86666,0.22666 z"
         id="text11-9-0-0-9-2-81-4-7"
         style="font-weight:bold;font-size:13.3333px;font-family:Montserrat;-inkscape-font-specification:'Montserrat, Bold';white-space:pre;inline-size:202.099;fill:#3e4349;stroke-width:3.21325;stroke-linecap:round;stroke-linejoin:round;paint-order:markers fill stroke"
         transform="matrix(1.0006928,0,0,0.99930768,1825.3807,-1804.6308)"
         aria-label="Input data" /><path
         style="font-style:italic;font-weight:500;font-size:16.4356px;font-family:Montserrat;-inkscape-font-specification:'Montserrat Medium Italic';font-variation-settings:'wght' 500;white-space:pre;inline-size:215.51;fill:#3e4349;stroke-width:2.69647;stroke-linecap:round;stroke-linejoin:round;paint-order:markers fill stroke"
         d="m 838.79732,430.13741 q -1.28198,0 -2.48178,-0.39446 -1.18336,-0.39445 -1.82435,-1.00257 l 0.72317,-1.31485 q 0.65742,0.60812 1.65999,0.9697 1.00258,0.34515 2.07089,0.34515 1.41346,0 2.25168,-0.5095 0.85465,-0.52594 0.85465,-1.44634 0,-0.49307 -0.32871,-0.82178 -0.32872,-0.32871 -0.80535,-0.52594 -0.47663,-0.19722 -1.34772,-0.46019 -1.10118,-0.32872 -1.77504,-0.62456 -0.67386,-0.29584 -1.16693,-0.87108 -0.47663,-0.59168 -0.47663,-1.54495 0,-1.08475 0.60811,-1.89009 0.60812,-0.80535 1.69287,-1.23267 1.08475,-0.44376 2.48178,-0.44376 1.06831,0 2.02158,0.26297 0.9697,0.24653 1.67643,0.70673 l -0.65743,1.34772 q -0.64099,-0.4602 -1.44633,-0.6903 -0.78891,-0.2301 -1.67643,-0.2301 -1.41346,0 -2.25168,0.55881 -0.83821,0.54238 -0.83821,1.46277 0,0.5095 0.32871,0.85465 0.34515,0.34515 0.83821,0.54238 0.50951,0.19722 1.38059,0.46019 1.08475,0.32872 1.74218,0.62456 0.67386,0.2794 1.13405,0.83821 0.47664,0.55881 0.47664,1.44633 0,1.10119 -0.62456,1.90653 -0.60811,0.80535 -1.7093,1.24911 -1.10118,0.42733 -2.53108,0.42733 z m 8.02058,-0.13149 h -1.57782 l 1.72574,-8.71087 h 1.57781 z m 1.39702,-10.3873 q -0.42732,0 -0.70673,-0.2794 -0.2794,-0.27941 -0.2794,-0.67386 0,-0.4602 0.31227,-0.77248 0.32872,-0.32871 0.82178,-0.32871 0.42733,0 0.70673,0.27941 0.29584,0.26297 0.29584,0.64098 0,0.50951 -0.32871,0.82178 -0.31227,0.31228 -0.82178,0.31228 z m 10.17363,1.67643 h 1.49564 l -1.49564,7.52751 q -0.4602,2.33385 -1.74218,3.40217 -1.26554,1.06831 -3.46791,1.06831 -1.23267,0 -2.25167,-0.32871 -1.01901,-0.31228 -1.72574,-0.90396 l 0.87108,-1.21623 q 0.52594,0.47663 1.36416,0.75603 0.85465,0.29584 1.85722,0.29584 1.51208,0 2.33386,-0.69029 0.83821,-0.6903 1.13405,-2.13663 l 0.13149,-0.62455 q -1.24911,1.1998 -3.15564,1.1998 -1.15049,0 -2.03801,-0.42733 -0.87109,-0.42732 -1.36416,-1.23267 -0.47663,-0.80534 -0.47663,-1.89009 0,-1.36416 0.62455,-2.48178 0.64099,-1.11762 1.77505,-1.75861 1.13406,-0.64099 2.56395,-0.64099 1.11762,0 1.97228,0.42733 0.87108,0.41089 1.28197,1.24911 z m -4.339,6.9687 q 0.98614,0 1.75861,-0.42733 0.78891,-0.44376 1.21623,-1.21623 0.44376,-0.78891 0.44376,-1.77505 0,-1.05188 -0.69029,-1.64356 -0.67386,-0.60812 -1.90653,-0.60812 -0.98614,0 -1.77504,0.44377 -0.77248,0.42732 -1.21624,1.21623 -0.42732,0.77247 -0.42732,1.74217 0,1.06832 0.69029,1.67644 0.6903,0.59168 1.90653,0.59168 z m 13.29641,-7.05088 q 1.49564,0 2.31742,0.75604 0.83821,0.75604 0.83821,2.13663 0,0.47663 -0.0986,1.01901 l -0.9697,4.88137 h -1.57782 l 0.9697,-4.88137 q 0.0822,-0.44376 0.0822,-0.72317 0,-0.85465 -0.5095,-1.31485 -0.50951,-0.46019 -1.51208,-0.46019 -1.28197,0 -2.12019,0.70673 -0.82178,0.69029 -1.10119,2.07088 l -0.92039,4.60197 h -1.57782 l 1.72574,-8.71087 h 1.51208 l -0.21367,1.11762 q 1.18337,-1.1998 3.15564,-1.1998 z m 13.36214,0.0822 h 1.57781 l -1.72573,8.71087 h -1.51208 l 0.21366,-1.06831 q -0.59168,0.55881 -1.38059,0.87108 -0.77247,0.29584 -1.69286,0.29584 -1.11762,0 -1.98871,-0.44376 -0.87109,-0.46019 -1.36416,-1.31485 -0.49306,-0.85465 -0.49306,-2.00514 0,-1.4792 0.64098,-2.64613 0.64099,-1.16693 1.75861,-1.82435 1.13406,-0.65743 2.53109,-0.65743 1.11762,0 1.90653,0.39446 0.80534,0.39445 1.23267,1.16693 z m -4.17465,7.42889 q 0.9697,0 1.74218,-0.46019 0.78891,-0.47664 1.21623,-1.31485 0.44376,-0.83822 0.44376,-1.90653 0,-1.16693 -0.67386,-1.80792 -0.67386,-0.64099 -1.92296,-0.64099 -0.9697,0 -1.74218,0.47664 -0.77247,0.46019 -1.21623,1.29841 -0.44376,0.83822 -0.44376,1.90653 0,1.15049 0.67386,1.80792 0.69029,0.64098 1.92296,0.64098 z m 10.30511,-6.13048 -0.93683,4.63484 q -0.0493,0.24654 -0.0493,0.4602 0,0.52594 0.2794,0.80535 0.29584,0.2794 0.87109,0.2794 0.6903,0 1.24911,-0.41089 l 0.32871,1.1998 q -0.78891,0.54237 -2.02158,0.54237 -1.03544,0 -1.67643,-0.57524 -0.62456,-0.59168 -0.62456,-1.61069 0,-0.34515 0.0658,-0.65742 l 0.93683,-4.66772 h -1.47921 l 0.24654,-1.29841 h 1.49564 l 0.37801,-1.90653 h 1.57782 l -0.37802,1.90653 h 2.49822 l -0.26297,1.29841 z m 11.80076,-1.29841 h 1.57782 l -1.72574,8.71087 h -1.51208 l 0.21367,-1.11762 q -0.59169,0.60812 -1.39703,0.92039 -0.78891,0.29584 -1.72574,0.29584 -1.44633,0 -2.28455,-0.77247 -0.83821,-0.77247 -0.83821,-2.15306 0,-0.4602 0.0986,-1.00257 l 0.9697,-4.88138 h 1.57782 l -0.9697,4.89781 q -0.0822,0.44376 -0.0822,0.7396 0,0.85465 0.49307,1.31485 0.5095,0.44376 1.49564,0.44376 1.2491,0 2.07088,-0.70673 0.83822,-0.70673 1.11763,-2.07088 z m 5.85107,1.29841 q 0.57525,-0.72316 1.41346,-1.05187 0.83822,-0.32872 2.03802,-0.32872 l -0.29584,1.52852 q -0.14792,-0.0164 -0.41089,-0.0164 -2.71188,0 -3.28712,2.92554 l -0.87109,4.35543 h -1.57782 l 1.72574,-8.71087 h 1.51208 z m 5.07861,3.55009 v 0.0986 q 0,1.21623 0.6903,1.85722 0.6903,0.62455 2.07089,0.62455 0.80534,0 1.51207,-0.26297 0.70673,-0.2794 1.18336,-0.7396 l 0.67386,1.13406 q -0.64098,0.59168 -1.56138,0.92039 -0.92039,0.32871 -1.9394,0.32871 -1.28198,0 -2.21881,-0.46019 -0.93682,-0.4602 -1.44633,-1.31485 -0.5095,-0.85465 -0.5095,-2.00514 0,-1.46277 0.62455,-2.6297 0.64099,-1.16693 1.75861,-1.82435 1.13406,-0.65743 2.53108,-0.65743 1.77505,0 2.82693,1.01901 1.06831,1.00257 1.06831,2.74475 0,0.52594 -0.11505,1.16692 z m 3.30356,-3.61583 q -1.16693,0 -2.00514,0.65743 -0.83822,0.65742 -1.13406,1.80791 h 5.62098 q 0.0657,-1.16693 -0.62456,-1.80791 -0.67386,-0.65743 -1.85722,-0.65743 z"
         id="text11-2-8-96-6-2-9"
         transform="matrix(0.99242225,0,0,0.99242225,1829.3358,-1711.8868)"
         aria-label="Signature" /></g></g></svg>
