<?xml version="1.0" encoding="UTF-8" standalone="no"?>
<svg
   viewBox="0 0 659.70258 331.13059"
   version="1.1"
   id="svg1"
   width="659.70258"
   height="331.13058"
   xml:space="preserve"
   xmlns="http://www.w3.org/2000/svg"
   xmlns:svg="http://www.w3.org/2000/svg"><defs
     id="defs1"><linearGradient
       id="swatch251"><stop
         style="stop-color:#195962;stop-opacity:1;"
         offset="0"
         id="stop251" /></linearGradient><filter
       style="color-interpolation-filters:sRGB"
       id="filter90-4-61-8"
       x="-0.019571773"
       y="-0.023358992"
       width="1.0423216"
       height="1.0532066"><feFlood
         result="flood"
         in="SourceGraphic"
         flood-opacity="0.796078"
         flood-color="rgb(62,67,73)"
         id="feFlood89-4-0-2" /><feGaussianBlur
         result="blur"
         in="SourceGraphic"
         stdDeviation="2.132 0"
         id="feGaussianBlur89-4-4-6" /><feOffset
         result="offset"
         in="blur"
         dx="1.000000"
         dy="1.000000"
         id="feOffset89-4-2-0" /><feComposite
         result="comp1"
         operator="in"
         in="flood"
         in2="offset"
         id="feComposite89-7-2-6" /><feComposite
         result="fbSourceGraphic"
         operator="over"
         in="SourceGraphic"
         in2="comp1"
         id="feComposite90-6-20-6" /><feColorMatrix
         result="fbSourceGraphicAlpha"
         in="fbSourceGraphic"
         values="0 0 0 -1 0 0 0 0 -1 0 0 0 0 -1 0 0 0 0 1 0"
         id="feColorMatrix90-3-5-4" /><feFlood
         id="feFlood90-1-5-6"
         result="flood"
         in="fbSourceGraphic"
         flood-opacity="0.796078"
         flood-color="rgb(62,67,73)" /><feGaussianBlur
         id="feGaussianBlur90-7-2-2"
         result="blur"
         in="fbSourceGraphic"
         stdDeviation="3.000000" /><feOffset
         id="feOffset90-5-9-8"
         result="offset"
         in="blur"
         dx="1.000000"
         dy="1.000000" /><feComposite
         id="feComposite91-9-02-9"
         result="comp1"
         operator="in"
         in="flood"
         in2="offset" /><feComposite
         id="feComposite92-62-83-6"
         result="comp2"
         operator="over"
         in="fbSourceGraphic"
         in2="comp1" /></filter><marker
       style="overflow:visible"
       id="Square-1"
       refX="0"
       refY="0"
       orient="auto"
       markerWidth="1"
       markerHeight="1"
       viewBox="0 0 1 1"
       preserveAspectRatio="xMidYMid"><path
         transform="scale(0.5)"
         style="fill:context-stroke;fill-rule:evenodd;stroke:none"
         d="M -5,-5 V 5 H 5 V -5 Z"
         id="path18-6" /></marker></defs><!--! Font Awesome Pro 6.4.2 by @fontawesome - https://fontawesome.com License - https://fontawesome.com/license (Commercial License) Copyright 2023 Fonticons, Inc. --><g
     id="layer19"
     style="display:inline"
     transform="translate(-2359.6089,440.79508)"><g
       id="layer20"
       transform="translate(22.493125,-25.8473)"
       style="display:inline"><rect
         style="opacity:1;fill:#ffffff;fill-opacity:1;fill-rule:nonzero;stroke-width:0.986;stroke-dasharray:1.97201, 1.97201;stroke-dashoffset:0;paint-order:fill markers stroke;filter:url(#filter90-4-61-8)"
         id="rect81"
         width="629.31445"
         height="308.23248"
         x="2378.7219"
         y="-367.28116"
         ry="28.196222"
         rx="26.536793"
         transform="matrix(0.92535609,0,0,0.87089619,184.14854,-53.633558)" /><g
         id="g11-8-3-1-1-7"
         transform="matrix(0.86376245,0,0,0.86376245,1642.2321,-531.68174)"
         style="display:inline;fill:#61a78d;fill-opacity:1"><rect
           style="font-variation-settings:'wght' 700;fill:#195962;stroke-width:2.44985;stroke-linecap:round;stroke-linejoin:round;paint-order:markers fill stroke"
           id="rect1-9-8-2-5-4"
           width="312.94656"
           height="59.990269"
           x="920.04065"
           y="155.65892" /><g
           id="g4-7-0-4-5-0"
           transform="translate(-11.145477,39.927363)"><rect
             style="font-variation-settings:'wght' 700;fill:#e6e6e6;fill-opacity:1;stroke-width:2.40363;stroke-linecap:round;stroke-linejoin:round;paint-order:markers fill stroke"
             id="rect1-3-7-5-7-4-6"
             width="312.19806"
             height="57.886284"
             x="920.89868"
             y="126.45267" /><g
             id="text1-6-6-3-4"
             style="font-weight:600;font-size:24px;font-family:Montserrat;-inkscape-font-specification:'Montserrat, Semi-Bold';white-space:pre;inline-size:349.039;fill:#3e4349;stroke-width:3.5;stroke-linecap:round;stroke-linejoin:round;paint-order:markers fill stroke"
             transform="matrix(0.85813569,0,0,0.85813569,124.25758,13.145897)"
             aria-label="Converting a passphrase into a symmetric key"><path
               d="m 967.08609,146.82067 h 3.432 c -0.312,-3.936 -3.216,-6.216 -7.296,-6.216 -4.944,0 -8.016,3.528 -8.016,9.192 0,5.616 3.048,9.144 7.92,9.144 4.344,0 7.248,-2.52 7.464,-6.528 h -3.504 c -0.216,2.232 -1.632,3.504 -3.864,3.504 -2.784,0 -4.416,-2.256 -4.416,-6.072 0,-3.864 1.704,-6.168 4.536,-6.168 3,0 3.552,2.256 3.744,3.144 z m 11.80802,-1.608 c -3.96,0 -6.384,2.616 -6.384,6.864 0,4.272 2.424,6.864 6.408,6.864 3.936,0 6.408,-2.616 6.408,-6.768 0,-4.392 -2.376,-6.96 -6.432,-6.96 z m 0.024,2.712 c 1.848,0 3.048,1.656 3.048,4.2 0,2.424 -1.248,4.104 -3.048,4.104 -1.824,0 -3.048,-1.68 -3.048,-4.152 0,-2.472 1.224,-4.152 3.048,-4.152 z m 8.92801,-2.496 v 12.96 h 3.36 v -7.776 c 0,-1.536 1.08,-2.544 2.712,-2.544 1.44,0 2.16,0.792 2.16,2.328 v 7.992 h 3.36 v -8.688 c 0,-2.856 -1.584,-4.488 -4.344,-4.488 -1.752,0 -2.928,0.648 -3.888,2.088 v -1.872 z m 21.45598,12.96 4.464,-12.96 h -3.552 l -2.616,9.48 -2.808,-9.48 h -3.552 l 4.536,12.96 z m 11.664,-13.176 c -3.72,0 -6,2.688 -6,7.032 0,4.152 2.256,6.696 5.928,6.696 2.904,0 5.256,-1.656 6,-4.2 h -3.312 c -0.408,1.032 -1.344,1.632 -2.568,1.632 -2.256,0 -2.616,-1.656 -2.688,-3.408 h 8.688 c 0.024,-0.288 0.024,-0.408 0.024,-0.576 0,-5.736 -3.48,-7.176 -6.072,-7.176 z m 2.568,5.52 h -5.16 c 0.216,-1.968 1.056,-2.952 2.544,-2.952 1.56,0 2.472,1.056 2.616,2.952 z m 6.024,-5.304 v 12.96 h 3.36 v -6.888 c 0,-1.968 0.984,-2.952 2.952,-2.952 0.36,0 0.6,0.024 1.056,0.096 v -3.408 c -0.192,-0.024 -0.312,-0.024 -0.408,-0.024 -1.536,0 -2.88,1.008 -3.6,2.76 v -2.544 z m 15.24,0.264 h -1.872 v -3.48 h -3.36 v 3.48 h -1.656 v 2.232 h 1.656 v 7.968 c 0,2.04 1.08,3.048 3.288,3.048 0.744,0 1.344,-0.072 1.944,-0.264 v -2.352 c -0.336,0.048 -0.528,0.072 -0.768,0.072 -0.888,0 -1.104,-0.264 -1.104,-1.416 v -7.056 h 1.872 z m 5.76,-0.264 h -3.36 v 12.96 h 3.36 z m 0,-4.536 h -3.36 v 3 h 3.36 z m 3.24,4.536 v 12.96 h 3.36 v -7.776 c 0,-1.536 1.08,-2.544 2.712,-2.544 1.44,0 2.16,0.792 2.16,2.328 v 7.992 h 3.36 v -8.688 c 0,-2.856 -1.584,-4.488 -4.344,-4.488 -1.752,0 -2.928,0.648 -3.888,2.088 v -1.872 z m 23.0881,0 v 1.992 c -1.008,-1.536 -2.112,-2.208 -3.6,-2.208 -3.072,0 -5.376,3 -5.376,7.008 0,4.032 2.112,6.72 5.304,6.72 1.512,0 2.424,-0.456 3.672,-1.872 v 1.752 c 0,1.56 -1.176,2.64 -2.856,2.64 -1.272,0 -2.112,-0.528 -2.376,-1.512 h -3.48 c 0.048,2.256 2.304,3.672 5.736,3.672 3.912,0 6.168,-1.752 6.168,-4.8 v -13.392 z m -2.88,2.592 c 1.68,0 2.928,1.752 2.928,4.152 0,2.352 -1.224,3.96 -2.976,3.96 -1.584,0 -2.688,-1.608 -2.688,-3.96 0,-2.448 1.104,-4.152 2.736,-4.152 z m 19.2,10.92 c 1.44,0 2.76,-0.624 3.936,-1.848 0,0.672 0.072,0.912 0.384,1.296 h 3.648 v -0.408 c -0.6,-0.552 -0.768,-0.912 -0.768,-1.584 v -7.2 c 0,-2.64 -1.8,-3.984 -5.304,-3.984 -3.504,0 -5.328,1.488 -5.544,4.488 h 3.24 c 0.168,-1.344 0.72,-1.776 2.376,-1.776 1.296,0 1.944,0.432 1.944,1.296 0,1.272 -1.584,1.344 -2.688,1.512 l -1.344,0.24 c -2.568,0.432 -3.816,1.752 -3.816,4.08 0,2.328 1.584,3.888 3.936,3.888 z m 3.912,-5.76 c 0,1.944 -0.96,3.048 -2.664,3.048 -1.128,0 -1.824,-0.6 -1.824,-1.56 0,-1.008 0.528,-1.488 1.92,-1.776 l 1.152,-0.216 c 0.888,-0.168 1.032,-0.216 1.416,-0.408 z m 19.9679,-7.968 c -1.632,0 -2.784,0.696 -3.6,2.136 v -1.92 h -3.36 v 18.192 h 3.36 v -6.768 c 0.816,1.44 1.968,2.112 3.6,2.112 3.12,0 5.424,-2.928 5.424,-6.864 0,-3.816 -2.064,-6.888 -5.424,-6.888 z m -0.768,2.808 c 1.704,0 2.832,1.656 2.832,4.128 0,2.352 -1.176,4.008 -2.832,4.008 -1.68,0 -2.832,-1.632 -2.832,-4.056 0,-2.424 1.152,-4.08 2.832,-4.08 z m 12.0481,10.92 c 1.44,0 2.76,-0.624 3.936,-1.848 0,0.672 0.072,0.912 0.384,1.296 h 3.648 v -0.408 c -0.6,-0.552 -0.768,-0.912 -0.768,-1.584 v -7.2 c 0,-2.64 -1.8,-3.984 -5.304,-3.984 -3.504,0 -5.328,1.488 -5.544,4.488 h 3.24 c 0.168,-1.344 0.72,-1.776 2.376,-1.776 1.296,0 1.944,0.432 1.944,1.296 0,1.272 -1.584,1.344 -2.688,1.512 l -1.344,0.24 c -2.568,0.432 -3.816,1.752 -3.816,4.08 0,2.328 1.584,3.888 3.936,3.888 z m 3.912,-5.76 c 0,1.944 -0.96,3.048 -2.664,3.048 -1.128,0 -1.824,-0.6 -1.824,-1.56 0,-1.008 0.528,-1.488 1.92,-1.776 l 1.152,-0.216 c 0.888,-0.168 1.032,-0.216 1.416,-0.408 z m 8.784,1.44 h -3.288 c 0.096,2.832 2.184,4.32 6.12,4.32 4.536,0 5.664,-2.592 5.664,-4.392 0,-1.68 -0.84,-2.76 -2.544,-3.264 l -4.248,-1.224 c -0.936,-0.288 -1.176,-0.48 -1.176,-1.008 0,-0.72 0.768,-1.2 1.944,-1.2 1.608,0 2.4,0.576 2.424,1.752 h 3.24 c -0.048,-2.736 -2.16,-4.392 -5.64,-4.392 -3.288,0 -5.328,1.656 -5.328,4.32 0,2.544 2.088,2.952 2.832,3.192 l 4.008,1.248 c 0.84,0.264 1.128,0.528 1.128,1.056 0,0.792 -0.936,1.272 -2.496,1.272 -2.112,0 -2.448,-0.792 -2.64,-1.68 z m 13.3439,0 h -3.288 c 0.096,2.832 2.184,4.32 6.12,4.32 4.536,0 5.664,-2.592 5.664,-4.392 0,-1.68 -0.84,-2.76 -2.544,-3.264 l -4.248,-1.224 c -0.936,-0.288 -1.176,-0.48 -1.176,-1.008 0,-0.72 0.768,-1.2 1.944,-1.2 1.608,0 2.4,0.576 2.424,1.752 h 3.24 c -0.048,-2.736 -2.16,-4.392 -5.64,-4.392 -3.288,0 -5.328,1.656 -5.328,4.32 0,2.544 2.088,2.952 2.832,3.192 l 4.008,1.248 c 0.84,0.264 1.128,0.528 1.128,1.056 0,0.792 -0.936,1.272 -2.496,1.272 -2.112,0 -2.448,-0.792 -2.64,-1.68 z m 17.856,-9.408 c -1.632,0 -2.784,0.696 -3.6,2.136 v -1.92 h -3.36 v 18.192 h 3.36 v -6.768 c 0.816,1.44 1.968,2.112 3.6,2.112 3.12,0 5.424,-2.928 5.424,-6.864 0,-3.816 -2.064,-6.888 -5.424,-6.888 z m -0.768,2.808 c 1.704,0 2.832,1.656 2.832,4.128 0,2.352 -1.176,4.008 -2.832,4.008 -1.68,0 -2.832,-1.632 -2.832,-4.056 0,-2.424 1.152,-4.08 2.832,-4.08 z m 16.728,2.448 v 7.92 h 3.36 v -8.688 c 0,-3.6 -2.376,-4.488 -4.224,-4.488 -1.656,0 -2.856,0.672 -3.792,2.088 v -6.408 h -3.36 v 17.496 h 3.36 v -7.776 c 0,-1.488 1.08,-2.544 2.592,-2.544 1.56,0 2.064,1.008 2.064,2.4 z m 6.4801,-5.04 v 12.96 h 3.36 v -6.888 c 0,-1.968 0.984,-2.952 2.952,-2.952 0.36,0 0.6,0.024 1.056,0.096 v -3.408 c -0.192,-0.024 -0.312,-0.024 -0.408,-0.024 -1.536,0 -2.88,1.008 -3.6,2.76 v -2.544 z m 12.744,13.512 c 1.44,0 2.76,-0.624 3.936,-1.848 0,0.672 0.072,0.912 0.384,1.296 h 3.648 v -0.408 c -0.6,-0.552 -0.768,-0.912 -0.768,-1.584 v -7.2 c 0,-2.64 -1.8,-3.984 -5.304,-3.984 -3.504,0 -5.328,1.488 -5.544,4.488 h 3.24 c 0.168,-1.344 0.72,-1.776 2.376,-1.776 1.296,0 1.944,0.432 1.944,1.296 0,1.272 -1.584,1.344 -2.688,1.512 l -1.344,0.24 c -2.568,0.432 -3.816,1.752 -3.816,4.08 0,2.328 1.584,3.888 3.936,3.888 z m 3.912,-5.76 c 0,1.944 -0.96,3.048 -2.664,3.048 -1.128,0 -1.824,-0.6 -1.824,-1.56 0,-1.008 0.528,-1.488 1.92,-1.776 l 1.152,-0.216 c 0.888,-0.168 1.032,-0.216 1.416,-0.408 z m 8.784,1.44 h -3.288 c 0.096,2.832 2.184,4.32 6.12,4.32 4.536,0 5.664,-2.592 5.664,-4.392 0,-1.68 -0.84,-2.76 -2.544,-3.264 l -4.248,-1.224 c -0.936,-0.288 -1.176,-0.48 -1.176,-1.008 0,-0.72 0.768,-1.2 1.944,-1.2 1.608,0 2.4,0.576 2.424,1.752 h 3.24 c -0.048,-2.736 -2.16,-4.392 -5.64,-4.392 -3.288,0 -5.328,1.656 -5.328,4.32 0,2.544 2.088,2.952 2.832,3.192 l 4.008,1.248 c 0.84,0.264 1.128,0.528 1.128,1.056 0,0.792 -0.936,1.272 -2.496,1.272 -2.112,0 -2.448,-0.792 -2.64,-1.68 z m 16.2959,-9.408 c -3.72,0 -6,2.688 -6,7.032 0,4.152 2.256,6.696 5.928,6.696 2.904,0 5.256,-1.656 6,-4.2 h -3.312 c -0.408,1.032 -1.344,1.632 -2.568,1.632 -2.256,0 -2.616,-1.656 -2.688,-3.408 h 8.688 c 0.024,-0.288 0.024,-0.408 0.024,-0.576 0,-5.736 -3.48,-7.176 -6.072,-7.176 z m 2.568,5.52 h -5.16 c 0.216,-1.968 1.056,-2.952 2.544,-2.952 1.56,0 2.472,1.056 2.616,2.952 z"
               id="path1" /><path
               d="m 1255.1822,145.42867 h -3.36 v 12.96 h 3.36 z m 0,-4.536 h -3.36 v 3 h 3.36 z m 3.24,4.536 v 12.96 h 3.36 v -7.776 c 0,-1.536 1.08,-2.544 2.712,-2.544 1.44,0 2.16,0.792 2.16,2.328 v 7.992 h 3.36 v -8.688 c 0,-2.856 -1.584,-4.488 -4.344,-4.488 -1.752,0 -2.928,0.648 -3.888,2.088 v -1.872 z m 20.544,0.264 h -1.872 v -3.48 h -3.36 v 3.48 h -1.656 v 2.232 h 1.656 v 7.968 c 0,2.04 1.08,3.048 3.288,3.048 0.744,0 1.344,-0.072 1.944,-0.264 v -2.352 c -0.336,0.048 -0.528,0.072 -0.768,0.072 -0.888,0 -1.104,-0.264 -1.104,-1.416 v -7.056 h 1.872 z m 8.064,-0.48 c -3.96,0 -6.384,2.616 -6.384,6.864 0,4.272 2.424,6.864 6.408,6.864 3.936,0 6.408,-2.616 6.408,-6.768 0,-4.392 -2.376,-6.96 -6.432,-6.96 z m 0.024,2.712 c 1.848,0 3.048,1.656 3.048,4.2 0,2.424 -1.248,4.104 -3.048,4.104 -1.824,0 -3.048,-1.68 -3.048,-4.152 0,-2.472 1.224,-4.152 3.048,-4.152 z m -327.91211,41.016 c 1.44,0 2.76,-0.624 3.936,-1.848 0,0.672 0.072,0.912 0.384,1.296 h 3.648 v -0.408 c -0.6,-0.552 -0.768,-0.912 -0.768,-1.584 v -7.2 c 0,-2.64 -1.8,-3.984 -5.304,-3.984 -3.504,0 -5.328,1.488 -5.544,4.488 h 3.24 c 0.168,-1.344 0.72,-1.776 2.376,-1.776 1.296,0 1.944,0.432 1.944,1.296 0,1.272 -1.584,1.344 -2.688,1.512 l -1.344,0.24 c -2.568,0.432 -3.816,1.752 -3.816,4.08 0,2.328 1.584,3.888 3.936,3.888 z m 3.912,-5.76 c 0,1.944 -0.96,3.048 -2.664,3.048 -1.128,0 -1.824,-0.6 -1.824,-1.56 0,-1.008 0.528,-1.488 1.92,-1.776 l 1.152,-0.216 c 0.888,-0.168 1.032,-0.216 1.416,-0.408 z m 15.456,1.44 h -3.288 c 0.096,2.832 2.184,4.32 6.12,4.32 4.536,0 5.664,-2.592 5.664,-4.392 0,-1.68 -0.84,-2.76 -2.544,-3.264 l -4.248,-1.224 c -0.936,-0.288 -1.176,-0.48 -1.176,-1.008 0,-0.72 0.768,-1.2 1.944,-1.2 1.608,0 2.4,0.576 2.424,1.752 h 3.24 c -0.048,-2.736 -2.16,-4.392 -5.64,-4.392 -3.288,0 -5.328,1.656 -5.328,4.32 0,2.544 2.088,2.952 2.832,3.192 l 4.008,1.248 c 0.84,0.264 1.128,0.528 1.128,1.056 0,0.792 -0.936,1.272 -2.496,1.272 -2.112,0 -2.448,-0.792 -2.64,-1.68 z m 14.39999,4.392 c 0,1.224 -0.912,2.16 -2.088,2.16 -0.264,0 -0.456,-0.024 -0.888,-0.144 v 2.52 c 0.504,0.072 0.792,0.096 1.2,0.096 3.672,0 4.008,-1.992 4.32,-2.88 l 5.32802,-15.336 h -3.45602 l -2.688,9.432 -2.856,-9.432 h -3.696 l 4.824,13.488 z m 9.67202,-13.584 v 12.96 h 3.36 v -7.776 c 0,-1.584 0.864,-2.544 2.304,-2.544 1.128,0 1.824,0.648 1.824,1.68 v 8.64 h 3.36 v -7.776 c 0,-1.584 0.864,-2.544 2.304,-2.544 1.128,0 1.824,0.648 1.824,1.68 v 8.64 h 3.36 v -9.168 c 0,-2.52 -1.536,-4.008 -4.128,-4.008 -1.632,0 -2.784,0.576 -3.792,1.92 -0.624,-1.224 -1.92,-1.92 -3.528,-1.92 -1.488,0 -2.448,0.504 -3.552,1.824 v -1.608 z m 21.456,0 v 12.96 h 3.36 v -7.776 c 0,-1.584 0.864,-2.544 2.304,-2.544 1.128,0 1.824,0.648 1.824,1.68 v 8.64 h 3.36 v -7.776 c 0,-1.584 0.864,-2.544 2.304,-2.544 1.128,0 1.824,0.648 1.824,1.68 v 8.64 h 3.36 v -9.168 c 0,-2.52 -1.536,-4.008 -4.128,-4.008 -1.632,0 -2.784,0.576 -3.792,1.92 -0.624,-1.224 -1.92,-1.92 -3.528,-1.92 -1.488,0 -2.448,0.504 -3.552,1.824 v -1.608 z m 26.8559,-0.216 c -3.72,0 -6,2.688 -6,7.032 0,4.152 2.256,6.696 5.928,6.696 2.904,0 5.256,-1.656 6,-4.2 h -3.312 c -0.408,1.032 -1.344,1.632 -2.568,1.632 -2.256,0 -2.616,-1.656 -2.688,-3.408 h 8.688 c 0.024,-0.288 0.024,-0.408 0.024,-0.576 0,-5.736 -3.48,-7.176 -6.072,-7.176 z m 2.568,5.52 h -5.16 c 0.216,-1.968 1.056,-2.952 2.544,-2.952 1.56,0 2.472,1.056 2.616,2.952 z m 11.856,-5.04 h -1.872 v -3.48 h -3.36 v 3.48 h -1.656 v 2.232 h 1.656 v 7.968 c 0,2.04 1.08,3.048 3.288,3.048 0.744,0 1.344,-0.072 1.944,-0.264 v -2.352 c -0.336,0.048 -0.528,0.072 -0.768,0.072 -0.888,0 -1.104,-0.264 -1.104,-1.416 v -7.056 h 1.872 z m 2.28,-0.264 v 12.96 h 3.36 v -6.888 c 0,-1.968 0.984,-2.952 2.952,-2.952 0.36,0 0.6,0.024 1.056,0.096 v -3.408 c -0.192,-0.024 -0.312,-0.024 -0.408,-0.024 -1.536,0 -2.88,1.008 -3.6,2.76 v -2.544 z m 12.888,0 h -3.36 v 12.96 h 3.36 z m 0,-4.536 h -3.36 v 3 h 3.36 z m 8.736,7.032 c 1.368,0 2.016,0.648 2.4,2.352 h 3.216 c -0.24,-3.168 -2.352,-5.064 -5.592,-5.064 -3.864,0 -6.12,2.544 -6.12,6.96 0,4.272 2.232,6.768 6.072,6.768 3.144,0 5.328,-1.944 5.64,-5.04 h -3.216 c -0.432,1.68 -1.104,2.328 -2.4,2.328 -1.704,0 -2.736,-1.536 -2.736,-4.056 0,-1.8 0.408,-4.248 2.736,-4.248 z m 17.9281,2.544 v -9.576 h -3.36 v 17.496 h 3.36 v -4.248 l 1.344,-1.464 3.096,5.712 h 3.936 l -4.728,-8.064 4.416,-4.896 h -3.816 z m 15.5759,-5.256 c -3.72,0 -6,2.688 -6,7.032 0,4.152 2.256,6.696 5.928,6.696 2.904,0 5.256,-1.656 6,-4.2 h -3.312 c -0.408,1.032 -1.344,1.632 -2.568,1.632 -2.256,0 -2.616,-1.656 -2.688,-3.408 h 8.688 c 0.024,-0.288 0.024,-0.408 0.024,-0.576 0,-5.736 -3.48,-7.176 -6.072,-7.176 z m 2.568,5.52 h -5.16 c 0.216,-1.968 1.056,-2.952 2.544,-2.952 1.56,0 2.472,1.056 2.616,2.952 z m 9.528,8.28 c 0,1.224 -0.912,2.16 -2.088,2.16 -0.264,0 -0.456,-0.024 -0.888,-0.144 v 2.52 c 0.504,0.072 0.792,0.096 1.2,0.096 3.672,0 4.008,-1.992 4.32,-2.88 l 5.328,-15.336 h -3.456 l -2.688,9.432 -2.856,-9.432 h -3.696 l 4.824,13.488 z"
               id="path2" /></g></g></g><g
         id="g81"
         transform="translate(-12.364378,-33.578166)"><path
           id="rect58"
           style="opacity:1;fill:#61a78d;fill-opacity:0.33;fill-rule:nonzero;stroke:#61a78d;stroke-width:1.22217;stroke-linecap:square;stroke-miterlimit:0;stroke-dasharray:2.44435, 2.44435;stroke-dashoffset:0;stroke-opacity:1;paint-order:fill markers stroke"
           d="m 2660.9776,-261.25397 h 162.2875 a 5.1440615,5.1440615 135 0 0 5.1441,-5.14406 v -22.84921 a 1.7701703,1.7701703 161.01068 0 1 3.1655,-1.0893 l 61.7073,79.04246 a 6.5891582,6.5891582 90.000002 0 1 0,8.10952 l -61.7073,79.04245 a 1.7701705,1.7701705 18.989325 0 1 -3.1655,-1.0893 v -27.38117 a 5.1440615,5.1440615 45 0 0 -5.1441,-5.14406 h -162.2875 a 5.1440615,5.1440615 45 0 1 -5.1441,-5.14406 v -93.20921 a 5.1440615,5.1440615 135 0 1 5.1441,-5.14406 z"
           transform="matrix(0.8652824,0,0,0.75219829,370.84993,-55.494362)" /><path
           style="font-size:19.4943px;font-family:Montserrat;-inkscape-font-specification:Montserrat;font-variation-settings:'wght' 500;white-space:pre;inline-size:316.601;fill:#3e4349;stroke-width:3.5;stroke-linecap:round;stroke-linejoin:round;paint-order:markers fill stroke"
           d="m 866.56745,147.0239 c -1.94943,2.55375 -3.17757,6.10172 -3.17757,9.16232 0,3.0801 1.22814,6.62806 3.17757,9.18182 h 1.07219 c -1.7155,-2.78769 -2.67072,-6.06273 -2.67072,-9.18182 0,-3.09959 0.95522,-6.39413 2.67072,-9.16232 z m 4.26926,11.17023 h -1.7155 c 0.078,2.35881 1.40359,3.48948 4.07431,3.48948 2.57325,0 4.21077,-1.26713 4.21077,-3.23605 0,-1.52056 -0.85775,-2.35881 -2.88516,-2.84617 l -1.55954,-0.37039 c -1.32562,-0.31191 -1.89095,-0.74078 -1.89095,-1.46207 0,-0.93573 0.83825,-1.54005 2.16387,-1.54005 1.30611,0 2.00791,0.56533 2.0469,1.63752 h 1.7155 c -0.0195,-2.00791 -1.34511,-3.13858 -3.70392,-3.13858 -2.37831,0 -3.91836,1.22814 -3.91836,3.11908 0,1.59854 0.81877,2.35882 3.23606,2.94364 l 1.52055,0.3704 c 1.13067,0.27292 1.57904,0.6823 1.57904,1.42308 0,0.95522 -0.95522,1.59853 -2.3783,1.59853 -1.98842,0 -2.35881,-0.99421 -2.49527,-1.98842 z m 12.3009,-7.1739 h -1.67651 v -2.80718 h -1.61802 v 2.80718 h -1.3841 v 1.32561 h 1.3841 v 7.71975 c 0,1.03319 0.70179,1.61802 1.96892,1.61802 0.38989,0 0.77977,-0.039 1.32561,-0.13646 v -1.3646 c -0.21444,0.0585 -0.46786,0.078 -0.77977,0.078 -0.70179,0 -0.89674,-0.19494 -0.89674,-0.91623 v -6.99846 h 1.67651 z m 6.47212,1.42309 v -1.65702 c -0.27292,-0.039 -0.40938,-0.0585 -0.62381,-0.0585 -1.0527,0 -1.85196,0.62381 -2.78769,2.14437 v -1.85196 h -1.50106 v 10.21501 h 1.63752 v -5.30245 c 0,-2.86566 1.30612,-3.45049 3.27504,-3.48947 z m 3.31405,-1.42309 h -1.61803 v 10.21501 h 1.61803 z m 0,-3.99633 h -1.63752 v 2.0469 h 1.63752 z m 2.57325,3.99633 v 10.21501 h 1.63752 v -5.63385 c 0,-2.08589 1.09168,-3.45049 2.76819,-3.45049 1.28662,0 2.10538,0.77977 2.10538,2.00791 v 7.07643 h 1.61803 v -7.71974 c 0,-1.696 -1.26713,-2.78768 -3.23605,-2.78768 -1.52056,0 -2.49527,0.58483 -3.39201,2.00791 v -1.7155 z m 14.09439,10.66338 c 1.28662,0 2.18336,-0.54584 3.09959,-1.83246 v 0.52635 c 0,2.33931 -0.54584,3.7429 -2.84616,3.7429 -0.50686,0 -2.20286,-0.0585 -2.47578,-1.7155 h -1.65702 c 0.17545,1.92994 1.67651,3.0801 4.07431,3.0801 3.87937,0 4.56167,-2.3783 4.56167,-5.92627 v -8.5385 h -1.696 l 0.19494,1.48157 c -0.81876,-1.20865 -1.81297,-1.77398 -3.11909,-1.77398 -2.59274,0 -4.34723,2.26134 -4.34723,5.57537 0,3.33352 1.89095,5.38042 4.21077,5.38042 z m 0.31191,-9.45473 c 1.75449,0 2.78768,1.48156 2.78768,4.03532 0,2.43679 -1.05269,3.91835 -2.76819,3.91835 -1.77398,0 -2.84616,-1.50106 -2.84616,-3.97683 0,-2.45629 1.09168,-3.97684 2.82667,-3.97684 z m 11.20921,2.92414 h -4.69813 v 1.40359 h 4.69813 z m 5.96526,-4.13279 h -1.67651 v -2.80718 h -1.61803 v 2.80718 h -1.3841 v 1.32561 h 1.3841 v 7.71975 c 0,1.03319 0.70179,1.61802 1.96892,1.61802 0.38989,0 0.77978,-0.039 1.32562,-0.13646 v -1.3646 c -0.21444,0.0585 -0.46787,0.078 -0.77978,0.078 -0.70179,0 -0.89673,-0.19494 -0.89673,-0.91623 v -6.99846 h 1.67651 z m 5.57538,-0.29241 c -2.86566,0 -4.60065,2.0469 -4.60065,5.4779 0,3.43099 1.71549,5.47789 4.62015,5.47789 2.86566,0 4.62014,-2.0469 4.62014,-5.39992 0,-3.52847 -1.696,-5.55587 -4.63964,-5.55587 z m 0.0195,1.50106 c 1.83246,0 2.92414,1.50106 2.92414,4.03532 0,2.3978 -1.13067,3.91835 -2.92414,3.91835 -1.81297,0 -2.92415,-1.50106 -2.92415,-3.97683 0,-2.45629 1.11118,-3.97684 2.92415,-3.97684 z m 10.79985,2.92414 h -4.69813 v 1.40359 h 4.69813 z m 3.68443,-8.12912 h -1.61803 v 14.21134 h 1.61803 v -3.97683 l 1.57903,-1.55955 3.45049,5.53638 h 2.00792 l -4.17178,-6.68654 3.54796,-3.52847 h -2.08589 l -4.32773,4.32774 z m 17.03801,9.64968 c 0,-3.70392 -1.3841,-5.94576 -4.54217,-5.94576 -2.84617,0 -4.67864,2.18336 -4.67864,5.53638 0,3.35302 1.77399,5.41941 4.63965,5.41941 2.33931,0 3.95734,-1.32561 4.36672,-3.54796 h -1.63752 c -0.44837,1.34511 -1.3646,2.0469 -2.67072,2.0469 -1.89095,0 -2.96313,-1.42308 -3.00212,-3.50897 z m -7.48581,-1.32561 c 0.13646,-1.89095 1.28662,-3.11909 2.92414,-3.11909 1.67651,0 2.82668,1.3646 2.82668,3.11909 z m 15.4395,-4.32774 -2.82667,7.95368 -2.61224,-7.95368 h -1.73499 l 3.45049,10.254 -0.62382,1.61803 c -0.27292,0.72129 -0.62382,0.99421 -1.30612,0.99421 -0.23393,0 -0.50685,-0.039 -0.85775,-0.11697 v 1.46208 c 0.33141,0.17545 0.66281,0.25342 1.09169,0.25342 1.11117,0 2.06639,-0.60432 2.63173,-2.10538 l 4.54217,-12.35939 z m 3.76242,14.34781 c 1.94943,-2.55376 3.17757,-6.10172 3.17757,-9.16232 0,-3.0801 -1.22814,-6.62807 -3.17757,-9.18182 h -1.07219 c 1.7155,2.78768 2.67072,6.06273 2.67072,9.18182 0,3.09959 -0.95522,6.39413 -2.67072,9.16232 z"
           id="text11-2-0-1-6"
           transform="matrix(0.82075467,0,0,0.82075467,1976.4147,-327.55157)"
           aria-label="(string-to-key) " /><path
           style="font-weight:500;font-size:19.4943px;font-family:Montserrat;-inkscape-font-specification:'Montserrat Medium';font-variation-settings:'wght' 500;white-space:pre;inline-size:316.601;fill:#3e4349;stroke-width:3.5;stroke-linecap:round;stroke-linejoin:round;paint-order:markers fill stroke"
           d="m 868.63385,160.08508 c -3.21656,0 -4.01583,-1.83246 -4.01583,-3.27504 v -0.0975 h -1.7155 c 0.0585,4.03532 3.15808,4.97104 5.61436,4.97104 4.4447,0 5.55588,-2.61223 5.55588,-4.34723 0,-1.75448 -1.09168,-3.04111 -3.02162,-3.56745 l -3.56746,-0.95522 c -1.71549,-0.46787 -2.33931,-1.01371 -2.33931,-2.10539 0,-1.44258 1.26713,-2.3978 3.17757,-2.3978 2.26134,0 3.52847,1.0332 3.54796,2.88516 h 1.7155 c -0.0195,-2.78769 -1.92994,-4.40571 -5.20498,-4.40571 -3.11909,0 -5.04902,1.59853 -5.04902,4.17178 0,1.73499 0.91623,2.82667 2.78768,3.31403 l 3.52847,0.93573 c 1.79348,0.46786 2.61224,1.18915 2.61224,2.30032 0,1.01371 -0.54584,2.57325 -3.62594,2.57325 z m 7.31036,-7.8757 h 1.7155 c 0.078,-1.28662 0.40938,-3.29453 2.78768,-3.29453 1.55954,0 2.7292,1.11117 2.7292,2.59274 0,1.09168 -0.64331,2.02741 -1.87145,2.7292 l -1.79348,1.0137 c -2.88515,1.63753 -3.72341,2.94364 -3.87936,5.98475 h 9.20131 v -1.696 h -7.27138 c 0.17545,-1.13067 0.76028,-1.91044 2.49527,-2.84617 l 1.94943,-1.05269 c 1.92994,-1.05269 2.92415,-2.47578 2.92415,-4.17178 0,-2.3978 -1.81297,-4.05481 -4.42521,-4.05481 -1.89094,0 -4.4447,0.62381 -4.56166,4.79559 z m 13.23662,4.05482 2.31982,-2.31982 5.01004,7.29086 h 2.14437 l -5.84829,-8.42153 5.78981,-5.78981 h -2.33932 l -7.07643,7.1934 v -7.1934 h -1.81297 v 14.21134 h 1.81297 z m 15.80988,-5.24397 v 10.21501 h 1.63752 v -6.41362 c 0,-1.48157 1.07218,-2.67072 2.3978,-2.67072 1.20864,0 1.89094,0.74078 1.89094,2.0469 v 7.03744 h 1.63753 v -6.41362 c 0,-1.48157 1.07218,-2.67072 2.39779,-2.67072 1.18916,0 1.89095,0.76028 1.89095,2.0469 v 7.03744 h 1.63752 v -7.66126 c 0,-1.83246 -1.05269,-2.84616 -2.96313,-2.84616 -1.3646,0 -2.18336,0.40938 -3.13858,1.55954 -0.60433,-1.09168 -1.42309,-1.55954 -2.7487,-1.55954 -1.3646,0 -2.26134,0.50685 -3.13858,1.73499 v -1.44258 z m 24.46535,5.65335 c 0,-3.70392 -1.3841,-5.94576 -4.54217,-5.94576 -2.84617,0 -4.67864,2.18336 -4.67864,5.53638 0,3.35302 1.77399,5.41941 4.63965,5.41941 2.33931,0 3.95734,-1.32561 4.36672,-3.54796 h -1.63752 c -0.44837,1.34511 -1.3646,2.0469 -2.67072,2.0469 -1.89095,0 -2.96313,-1.42308 -3.00212,-3.50897 z m -7.48581,-1.32561 c 0.13646,-1.89095 1.28662,-3.11909 2.92414,-3.11909 1.67651,0 2.82668,1.3646 2.82668,3.11909 z m 17.23298,-0.89674 c -0.19494,-2.43679 -1.696,-3.72341 -4.03532,-3.72341 -2.7487,0 -4.54217,2.18336 -4.54217,5.57537 0,3.29453 1.75448,5.38042 4.52268,5.38042 2.43678,0 3.97683,-1.46207 4.17178,-3.95734 h -1.63753 c -0.27292,1.63752 -1.11117,2.45628 -2.49527,2.45628 -1.79347,0 -2.86566,-1.46207 -2.86566,-3.87936 0,-2.55376 1.05269,-4.07431 2.82668,-4.07431 1.3646,0 2.22235,0.79926 2.41729,2.22235 z m 8.36306,-0.29242 v 7.07643 h 1.61803 v -7.71974 c 0,-1.7155 -1.22814,-2.78768 -3.21656,-2.78768 -1.44258,0 -2.31982,0.44837 -3.27505,1.696 v -5.39992 h -1.61802 v 14.21134 h 1.61802 v -5.63385 c 0,-2.08589 1.09169,-3.45049 2.7682,-3.45049 0.83825,0 2.10538,0.40938 2.10538,2.00791 z m 3.82087,-0.11696 h 1.63752 c 0.13647,-1.24764 0.87725,-1.81297 2.3978,-1.81297 1.46208,0 2.28084,0.54584 2.28084,1.52055 v 0.42888 c 0,0.6823 -0.40938,0.97471 -1.69601,1.13067 -2.98263,0.38988 -5.06852,0.62381 -5.06852,3.35302 0,1.85196 1.28663,3.02161 3.35302,3.02161 1.28663,0 2.31983,-0.44837 3.46999,-1.50106 0.11697,1.0332 0.62382,1.50106 1.67651,1.50106 0.3314,0 0.58483,-0.039 1.11118,-0.17545 v -1.22814 c -0.17545,0.039 -0.25343,0.039 -0.3509,0.039 -0.56534,0 -0.87725,-0.29241 -0.87725,-0.79926 v -6.00425 c 0,-1.81297 -1.32561,-2.78768 -3.84037,-2.78768 -1.83247,0 -3.99633,0.54584 -4.09381,3.31403 z m 3.25555,6.21868 c -1.26713,0 -2.00791,-0.60432 -2.00791,-1.63752 0,-2.24185 3.4115,-1.67651 5.06852,-2.43679 v 1.83247 c 0,0.97471 -1.13067,2.24184 -3.06061,2.24184 z m 7.4663,-9.2403 v 10.21501 h 1.63752 v -5.63385 c 0,-2.08589 1.09168,-3.45049 2.76819,-3.45049 1.28663,0 2.10539,0.77977 2.10539,2.00791 v 7.07643 h 1.61803 v -7.71974 c 0,-1.696 -1.26713,-2.78768 -3.23606,-2.78768 -1.52055,0 -2.49527,0.58483 -3.39201,2.00791 v -1.7155 z m 12.22294,0 h -1.61803 v 10.21501 h 1.61803 z m 0,-3.99633 h -1.63752 v 2.0469 h 1.63752 z m 3.7819,11.17023 h -1.7155 c 0.078,2.35881 1.40359,3.48948 4.07431,3.48948 2.57325,0 4.21077,-1.26713 4.21077,-3.23605 0,-1.52056 -0.85775,-2.35881 -2.88516,-2.84617 l -1.55954,-0.37039 c -1.32562,-0.31191 -1.89095,-0.74078 -1.89095,-1.46207 0,-0.93573 0.83825,-1.54005 2.16387,-1.54005 1.30611,0 2.00791,0.56533 2.0469,1.63752 h 1.7155 c -0.0195,-2.00791 -1.34511,-3.13858 -3.70392,-3.13858 -2.37831,0 -3.91836,1.22814 -3.91836,3.11908 0,1.59854 0.81877,2.35882 3.23606,2.94364 l 1.52055,0.3704 c 1.13067,0.27292 1.57904,0.6823 1.57904,1.42308 0,0.95522 -0.95522,1.59853 -2.3783,1.59853 -1.98842,0 -2.35881,-0.99421 -2.49527,-1.98842 z m 8.40205,-7.1739 v 10.21501 h 1.63752 v -6.41362 c 0,-1.48157 1.07218,-2.67072 2.3978,-2.67072 1.20864,0 1.89094,0.74078 1.89094,2.0469 v 7.03744 h 1.63752 v -6.41362 c 0,-1.48157 1.07219,-2.67072 2.3978,-2.67072 1.18916,0 1.89095,0.76028 1.89095,2.0469 v 7.03744 h 1.63757 v -7.66126 c 0,-1.83246 -1.05274,-2.84616 -2.96318,-2.84616 -1.3646,0 -2.18336,0.40938 -3.13858,1.55954 -0.60433,-1.09168 -1.42309,-1.55954 -2.7487,-1.55954 -1.3646,0 -2.26134,0.50685 -3.13858,1.73499 v -1.44258 z"
           id="text11-2-0-1-6-3"
           transform="matrix(0.82075467,0,0,0.82075467,1977.4227,-352.90197)"
           aria-label="S2K mechanism" /></g><g
         id="g58"
         transform="translate(19.317884,-39.444866)"><g
           id="g57"><rect
             style="display:inline;fill:#baa600;fill-opacity:0.25;stroke:#baa600;stroke-width:1.222;stroke-linecap:butt;stroke-linejoin:miter;stroke-dasharray:2.44401, 2.44401;stroke-dashoffset:0;stroke-opacity:1;paint-order:fill markers stroke"
             id="rect66-1"
             width="240.85733"
             height="35.979061"
             x="2381.3313"
             y="-222.48239" /><path
             style="font-weight:500;font-size:19.4943px;font-family:Montserrat;-inkscape-font-specification:'Montserrat Medium';font-variation-settings:'wght' 500;white-space:pre;inline-size:316.601;fill:#3e4349;stroke-width:3.5;stroke-linecap:round;stroke-linejoin:round;paint-order:markers fill stroke"
             d="m 871.12912,154.45123 c -0.19494,-2.43679 -1.69601,-3.72341 -4.03532,-3.72341 -2.7487,0 -4.54217,2.18336 -4.54217,5.57537 0,3.29453 1.75448,5.38042 4.52267,5.38042 2.43679,0 3.97684,-1.46207 4.17178,-3.95734 h -1.63752 c -0.27292,1.63752 -1.11117,2.45628 -2.49527,2.45628 -1.79347,0 -2.86566,-1.46207 -2.86566,-3.87936 0,-2.55376 1.05269,-4.07431 2.82667,-4.07431 1.3646,0 2.22235,0.79926 2.4173,2.22235 z m 5.88729,-3.72341 c -2.86567,0 -4.60066,2.0469 -4.60066,5.4779 0,3.43099 1.7155,5.47789 4.62015,5.47789 2.86566,0 4.62015,-2.0469 4.62015,-5.39992 0,-3.52847 -1.696,-5.55587 -4.63964,-5.55587 z m 0.0195,1.50106 c 1.83247,0 2.92415,1.50106 2.92415,4.03532 0,2.3978 -1.13067,3.91835 -2.92415,3.91835 -1.81297,0 -2.92414,-1.50106 -2.92414,-3.97683 0,-2.45629 1.11117,-3.97684 2.92414,-3.97684 z m 11.28721,0.21444 v -1.65702 c -0.27292,-0.039 -0.40938,-0.0585 -0.62382,-0.0585 -1.05269,0 -1.85196,0.62381 -2.78768,2.14437 v -1.85196 h -1.50107 v 10.21501 h 1.63753 v -5.30245 c 0,-2.86566 1.30611,-3.45049 3.27504,-3.48947 z m 6.47212,0 v -1.65702 c -0.27292,-0.039 -0.40938,-0.0585 -0.62382,-0.0585 -1.05269,0 -1.85196,0.62381 -2.78768,2.14437 v -1.85196 h -1.50106 v 10.21501 h 1.63752 v -5.30245 c 0,-2.86566 1.30612,-3.45049 3.27504,-3.48947 z m 10.19553,4.23026 c 0,-3.70392 -1.38409,-5.94576 -4.54217,-5.94576 -2.84617,0 -4.67863,2.18336 -4.67863,5.53638 0,3.35302 1.77398,5.41941 4.63964,5.41941 2.33932,0 3.95735,-1.32561 4.36673,-3.54796 h -1.63752 c -0.44837,1.34511 -1.36461,2.0469 -2.67072,2.0469 -1.89095,0 -2.96314,-1.42308 -3.00213,-3.50897 z m -7.48581,-1.32561 c 0.13646,-1.89095 1.28663,-3.11909 2.92415,-3.11909 1.67651,0 2.82667,1.3646 2.82667,3.11909 z m 17.23299,-0.89674 c -0.19495,-2.43679 -1.69601,-3.72341 -4.03532,-3.72341 -2.7487,0 -4.54218,2.18336 -4.54218,5.57537 0,3.29453 1.75449,5.38042 4.52268,5.38042 2.43679,0 3.97684,-1.46207 4.17178,-3.95734 h -1.63752 c -0.27292,1.63752 -1.11117,2.45628 -2.49527,2.45628 -1.79348,0 -2.86566,-1.46207 -2.86566,-3.87936 0,-2.55376 1.05269,-4.07431 2.82667,-4.07431 1.3646,0 2.22235,0.79926 2.4173,2.22235 z m 5.77032,-3.431 h -1.67651 v -2.80718 h -1.61803 v 2.80718 h -1.38409 v 1.32561 h 1.38409 v 7.71975 c 0,1.03319 0.7018,1.61802 1.96892,1.61802 0.38989,0 0.77978,-0.039 1.32562,-0.13646 v -1.3646 c -0.21444,0.0585 -0.46787,0.078 -0.77977,0.078 -0.7018,0 -0.89674,-0.19494 -0.89674,-0.91623 v -6.99846 h 1.67651 z m 12.92473,3.13858 v 7.07643 h 1.61803 v -7.71974 c 0,-1.7155 -1.22814,-2.78768 -3.21656,-2.78768 -1.44258,0 -2.31982,0.44837 -3.27504,1.696 v -5.39992 h -1.61803 v 14.21134 h 1.61803 v -5.63385 c 0,-2.08589 1.09168,-3.45049 2.76819,-3.45049 0.83825,0 2.10538,0.40938 2.10538,2.00791 z m 7.97316,-3.43099 c -2.86566,0 -4.60066,2.0469 -4.60066,5.4779 0,3.43099 1.7155,5.47789 4.62015,5.47789 2.86567,0 4.62015,-2.0469 4.62015,-5.39992 0,-3.52847 -1.696,-5.55587 -4.63964,-5.55587 z m 0.0195,1.50106 c 1.83247,0 2.92415,1.50106 2.92415,4.03532 0,2.3978 -1.13067,3.91835 -2.92415,3.91835 -1.81297,0 -2.92414,-1.50106 -2.92414,-3.97683 0,-2.45629 1.11117,-3.97684 2.92414,-3.97684 z m 11.28721,0.21444 v -1.65702 c -0.27292,-0.039 -0.40938,-0.0585 -0.62382,-0.0585 -1.05269,0 -1.85195,0.62381 -2.78768,2.14437 v -1.85196 h -1.50106 v 10.21501 h 1.63752 v -5.30245 c 0,-2.86566 1.30612,-3.45049 3.27504,-3.48947 z m 2.76821,5.75081 h -1.7155 c 0.078,2.35881 1.40359,3.48948 4.07431,3.48948 2.57325,0 4.21077,-1.26713 4.21077,-3.23605 0,-1.52056 -0.85775,-2.35881 -2.88516,-2.84617 l -1.55954,-0.37039 c -1.32562,-0.31191 -1.89095,-0.74078 -1.89095,-1.46207 0,-0.93573 0.83825,-1.54005 2.16387,-1.54005 1.30611,0 2.00791,0.56533 2.0469,1.63752 h 1.7155 c -0.0195,-2.00791 -1.34511,-3.13858 -3.70392,-3.13858 -2.37831,0 -3.91836,1.22814 -3.91836,3.11908 0,1.59854 0.81877,2.35882 3.23606,2.94364 l 1.52055,0.3704 c 1.13067,0.27292 1.57904,0.6823 1.57904,1.42308 0,0.95522 -0.95522,1.59853 -2.3783,1.59853 -1.98842,0 -2.35881,-0.99421 -2.49527,-1.98842 z m 17.03801,-1.52055 c 0,-3.70392 -1.38409,-5.94576 -4.54217,-5.94576 -2.84617,0 -4.67863,2.18336 -4.67863,5.53638 0,3.35302 1.77398,5.41941 4.63964,5.41941 2.33932,0 3.95735,-1.32561 4.36673,-3.54796 h -1.63753 c -0.44836,1.34511 -1.3646,2.0469 -2.67071,2.0469 -1.89095,0 -2.96314,-1.42308 -3.00213,-3.50897 z m -7.48581,-1.32561 c 0.13646,-1.89095 1.28663,-3.11909 2.92415,-3.11909 1.67651,0 2.82667,1.3646 2.82667,3.11909 z m 14.1139,-8.32407 v 14.21134 h 1.46207 v -1.30611 c 0.77977,1.18915 1.81297,1.75448 3.23606,1.75448 2.69021,0 4.4447,-2.20285 4.4447,-5.59486 0,-3.31403 -1.67651,-5.36093 -4.36673,-5.36093 -1.40359,0 -2.3978,0.52634 -3.15807,1.67651 v -5.38043 z m 4.46419,5.22447 c 1.81297,0 2.98263,1.57904 2.98263,4.01583 0,2.31982 -1.20864,3.89886 -2.98263,3.89886 -1.71549,0 -2.84616,-1.55955 -2.84616,-3.95734 0,-2.3978 1.13067,-3.95735 2.84616,-3.95735 z m 6.29666,1.79348 h 1.63752 c 0.13646,-1.24764 0.87724,-1.81297 2.3978,-1.81297 1.46207,0 2.28083,0.54584 2.28083,1.52055 v 0.42888 c 0,0.6823 -0.40938,0.97471 -1.696,1.13067 -2.98263,0.38988 -5.06852,0.62381 -5.06852,3.35302 0,1.85196 1.28662,3.02161 3.35302,3.02161 1.28662,0 2.31982,-0.44837 3.46998,-1.50106 0.11697,1.0332 0.62382,1.50106 1.67651,1.50106 0.33141,0 0.58483,-0.039 1.11118,-0.17545 v -1.22814 c -0.17545,0.039 -0.25343,0.039 -0.3509,0.039 -0.56533,0 -0.87724,-0.29241 -0.87724,-0.79926 v -6.00425 c 0,-1.81297 -1.32561,-2.78768 -3.84038,-2.78768 -1.83246,0 -3.99633,0.54584 -4.0938,3.31403 z m 3.25555,6.21868 c -1.26713,0 -2.00792,-0.60432 -2.00792,-1.63752 0,-2.24185 3.41151,-1.67651 5.06852,-2.43679 v 1.83247 c 0,0.97471 -1.13067,2.24184 -3.0606,2.24184 z m 11.36514,-9.2403 h -1.6765 v -2.80718 h -1.618 v 2.80718 h -1.38411 v 1.32561 h 1.38411 v 7.71975 c 0,1.03319 0.7018,1.61802 1.9689,1.61802 0.3899,0 0.7798,-0.039 1.3256,-0.13646 v -1.3646 c -0.2144,0.0585 -0.4678,0.078 -0.7797,0.078 -0.7018,0 -0.8968,-0.19494 -0.8968,-0.91623 v -6.99846 h 1.6765 z m 5.4584,0 h -1.6765 v -2.80718 h -1.618 v 2.80718 h -1.3841 v 1.32561 h 1.3841 v 7.71975 c 0,1.03319 0.7018,1.61802 1.9689,1.61802 0.3899,0 0.7798,-0.039 1.3256,-0.13646 v -1.3646 c -0.2144,0.0585 -0.4678,0.078 -0.7797,0.078 -0.7018,0 -0.8968,-0.19494 -0.8968,-0.91623 v -6.99846 h 1.6765 z m 10.1956,5.65335 c 0,-3.70392 -1.3841,-5.94576 -4.5422,-5.94576 -2.8462,0 -4.6786,2.18336 -4.6786,5.53638 0,3.35302 1.774,5.41941 4.6396,5.41941 2.3393,0 3.9574,-1.32561 4.3667,-3.54796 h -1.6375 c -0.4483,1.34511 -1.3646,2.0469 -2.6707,2.0469 -1.8909,0 -2.9631,-1.42308 -3.0021,-3.50897 z m -7.4858,-1.32561 c 0.1364,-1.89095 1.2866,-3.11909 2.9241,-3.11909 1.6765,0 2.8267,1.3646 2.8267,3.11909 z m 14.1528,-2.90465 v -1.65702 c -0.2729,-0.039 -0.4093,-0.0585 -0.6238,-0.0585 -1.0527,0 -1.8519,0.62381 -2.7877,2.14437 v -1.85196 h -1.501 v 10.21501 h 1.6375 v -5.30245 c 0,-2.86566 1.3061,-3.45049 3.275,-3.48947 z m 7.7588,-1.42309 -2.8267,7.95368 -2.6122,-7.95368 h -1.735 l 3.4505,10.254 -0.6238,1.61803 c -0.273,0.72129 -0.6239,0.99421 -1.3062,0.99421 -0.2339,0 -0.5068,-0.039 -0.8577,-0.11697 v 1.46208 c 0.3314,0.17545 0.6628,0.25342 1.0917,0.25342 1.1111,0 2.0664,-0.60432 2.6317,-2.10538 l 4.5422,-12.35939 z m 9.2013,7.1739 h -1.7155 c 0.078,2.35881 1.4036,3.48948 4.0743,3.48948 2.5733,0 4.2108,-1.26713 4.2108,-3.23605 0,-1.52056 -0.8578,-2.35881 -2.8852,-2.84617 l -1.5595,-0.37039 c -1.3256,-0.31191 -1.891,-0.74078 -1.891,-1.46207 0,-0.93573 0.8383,-1.54005 2.1639,-1.54005 1.3061,0 2.0079,0.56533 2.0469,1.63752 h 1.7155 c -0.02,-2.00791 -1.3451,-3.13858 -3.7039,-3.13858 -2.3783,0 -3.9184,1.22814 -3.9184,3.11908 0,1.59854 0.8188,2.35882 3.2361,2.94364 l 1.5205,0.3704 c 1.1307,0.27292 1.5791,0.6823 1.5791,1.42308 0,0.95522 -0.9552,1.59853 -2.3783,1.59853 -1.9884,0 -2.3588,-0.99421 -2.4953,-1.98842 z m 12.3009,-7.1739 h -1.6765 v -2.80718 h -1.618 v 2.80718 h -1.3841 v 1.32561 h 1.3841 v 7.71975 c 0,1.03319 0.7018,1.61802 1.9689,1.61802 0.3899,0 0.7798,-0.039 1.3256,-0.13646 v -1.3646 c -0.2144,0.0585 -0.4679,0.078 -0.7798,0.078 -0.7018,0 -0.8967,-0.19494 -0.8967,-0.91623 v -6.99846 h 1.6765 z m 1.4231,3.02162 h 1.6375 c 0.1365,-1.24764 0.8773,-1.81297 2.3978,-1.81297 1.4621,0 2.2809,0.54584 2.2809,1.52055 v 0.42888 c 0,0.6823 -0.4094,0.97471 -1.696,1.13067 -2.9827,0.38988 -5.0686,0.62381 -5.0686,3.35302 0,1.85196 1.2867,3.02161 3.3531,3.02161 1.2866,0 2.3198,-0.44837 3.4699,-1.50106 0.117,1.0332 0.6239,1.50106 1.6766,1.50106 0.3314,0 0.5848,-0.039 1.1111,-0.17545 v -1.22814 c -0.1754,0.039 -0.2534,0.039 -0.3509,0.039 -0.5653,0 -0.8772,-0.29241 -0.8772,-0.79926 v -6.00425 c 0,-1.81297 -1.3256,-2.78768 -3.8404,-2.78768 -1.8325,0 -3.9963,0.54584 -4.0938,3.31403 z m 3.2556,6.21868 c -1.2672,0 -2.008,-0.60432 -2.008,-1.63752 0,-2.24185 3.4115,-1.67651 5.0686,-2.43679 v 1.83247 c 0,0.97471 -1.1307,2.24184 -3.0606,2.24184 z m 7.4663,5.22447 h 1.6375 v -5.32194 c 0.8577,1.05269 1.8129,1.52055 3.1386,1.52055 2.6317,0 4.3667,-2.12488 4.3667,-5.38042 0,-3.431 -1.6765,-5.57537 -4.3862,-5.57537 -1.3841,0 -2.4953,0.62381 -3.2556,1.83246 v -1.54005 h -1.501 z m 4.4836,-13.23663 c 1.7935,0 2.9632,1.57904 2.9632,4.01583 0,2.31982 -1.1892,3.89886 -2.9632,3.89886 -1.7155,0 -2.8461,-1.55955 -2.8461,-3.95734 0,-2.3978 1.1306,-3.95735 2.8461,-3.95735 z m 8.0512,-5.22447 h -1.6375 v 14.21134 h 1.6375 z m 11.1702,9.64968 c 0,-3.70392 -1.3841,-5.94576 -4.5421,-5.94576 -2.8462,0 -4.6787,2.18336 -4.6787,5.53638 0,3.35302 1.774,5.41941 4.6397,5.41941 2.3393,0 3.9573,-1.32561 4.3667,-3.54796 h -1.6375 c -0.4484,1.34511 -1.3646,2.0469 -2.6707,2.0469 -1.891,0 -2.9632,-1.42308 -3.0022,-3.50897 z m -7.4858,-1.32561 c 0.1365,-1.89095 1.2867,-3.11909 2.9242,-3.11909 1.6765,0 2.8266,1.3646 2.8266,3.11909 z"
             id="text11-2-0-1"
             transform="matrix(0.82075467,0,0,0.82075467,1680.0686,-332.08239)"
             aria-label="correct horse battery staple" /></g><path
           style="font-weight:500;font-size:18.6667px;font-family:Montserrat;-inkscape-font-specification:'Montserrat Medium';font-variation-settings:'wght' 500;fill:#3e4349;stroke-width:1.7;stroke-linecap:round;stroke-linejoin:round;paint-order:markers fill stroke"
           d="m 2479.4778,-131.9908 c 0,-2.55734 -1.512,-3.99467 -4.2,-3.99467 h -5.6187 v 13.60802 h 1.736 v -5.76801 h 4.2747 c 2.24,0 3.808,-1.512 3.808,-3.84534 z m -8.0827,2.31467 v -4.77867 h 3.6214 c 1.6613,0 2.6506,0.896 2.6506,2.38933 0,1.49334 -0.9893,2.38934 -2.6506,2.38934 z m 10.0054,0.41067 h 1.568 c 0.1306,-1.19467 0.84,-1.736 2.296,-1.736 1.4,0 2.184,0.52266 2.184,1.456 v 0.41067 c 0,0.65333 -0.392,0.93333 -1.624,1.08266 -2.856,0.37334 -4.8534,0.59734 -4.8534,3.21068 0,1.77333 1.232,2.89334 3.2107,2.89334 1.232,0 2.2213,-0.42934 3.3227,-1.43734 0.112,0.98933 0.5973,1.43734 1.6053,1.43734 0.3173,0 0.56,-0.0373 1.064,-0.16801 v -1.176 c -0.168,0.0373 -0.2427,0.0373 -0.336,0.0373 -0.5413,0 -0.84,-0.28 -0.84,-0.76534 v -5.74934 c 0,-1.73601 -1.2693,-2.66934 -3.6773,-2.66934 -1.7547,0 -3.8267,0.52267 -3.92,3.17334 z m 3.1173,5.95468 c -1.2133,0 -1.9227,-0.57867 -1.9227,-1.56801 0,-2.14667 3.2667,-1.60533 4.8534,-2.33333 v 1.75467 c 0,0.93333 -1.0827,2.14667 -2.9307,2.14667 z m 8.3067,-1.97867 h -1.6427 c 0.075,2.25867 1.344,3.34134 3.9013,3.34134 2.464,0 4.032,-1.21334 4.032,-3.09868 0,-1.456 -0.8213,-2.25867 -2.7626,-2.72534 l -1.4934,-0.35466 c -1.2693,-0.29867 -1.8106,-0.70934 -1.8106,-1.40001 0,-0.896 0.8026,-1.47466 2.072,-1.47466 1.2506,0 1.9226,0.54133 1.96,1.568 h 1.6426 c -0.019,-1.92267 -1.288,-3.00534 -3.5466,-3.00534 -2.2774,0 -3.752,1.176 -3.752,2.98667 0,1.53067 0.784,2.25867 3.0986,2.81867 l 1.456,0.35467 c 1.0827,0.26133 1.512,0.65334 1.512,1.36267 0,0.91467 -0.9146,1.53067 -2.2773,1.53067 -1.904,0 -2.2587,-0.952 -2.3893,-1.904 z m 9.2027,0 h -1.6427 c 0.075,2.25867 1.344,3.34134 3.9013,3.34134 2.464,0 4.032,-1.21334 4.032,-3.09868 0,-1.456 -0.8213,-2.25867 -2.7626,-2.72534 l -1.4934,-0.35466 c -1.2693,-0.29867 -1.8106,-0.70934 -1.8106,-1.40001 0,-0.896 0.8026,-1.47466 2.072,-1.47466 1.2506,0 1.9226,0.54133 1.96,1.568 h 1.6426 c -0.019,-1.92267 -1.288,-3.00534 -3.5466,-3.00534 -2.2774,0 -3.752,1.176 -3.752,2.98667 0,1.53067 0.784,2.25867 3.0986,2.81867 l 1.456,0.35467 c 1.0827,0.26133 1.512,0.65334 1.512,1.36267 0,0.91467 -0.9146,1.53067 -2.2773,1.53067 -1.904,0 -2.2587,-0.952 -2.3893,-1.904 z m 8.0453,6.98134 h 1.568 v -5.09601 c 0.8213,1.008 1.736,1.45601 3.0053,1.45601 2.52,0 4.1814,-2.03468 4.1814,-5.15201 0,-3.28534 -1.6054,-5.33868 -4.2,-5.33868 -1.3254,0 -2.3894,0.59733 -3.1174,1.75467 v -1.47467 h -1.4373 z m 4.2933,-12.67469 c 1.7174,0 2.8374,1.512 2.8374,3.84534 0,2.22134 -1.1387,3.73334 -2.8374,3.73334 -1.6426,0 -2.7253,-1.49333 -2.7253,-3.78934 0,-2.296 1.0827,-3.78934 2.7253,-3.78934 z m 12.3574,1.82934 v 6.77601 h 1.5493 v -7.39201 c 0,-1.64267 -1.176,-2.66934 -3.08,-2.66934 -1.3813,0 -2.2213,0.42933 -3.136,1.624 v -5.17067 h -1.5493 v 13.60802 h 1.5493 v -5.39468 c 0,-1.99733 1.0454,-3.304 2.6507,-3.304 0.8027,0 2.016,0.392 2.016,1.92267 z m 8.4933,-1.64267 v -1.58667 c -0.2613,-0.0373 -0.392,-0.056 -0.5973,-0.056 -1.008,0 -1.7733,0.59733 -2.6693,2.05334 v -1.77334 h -1.4374 v 9.78135 h 1.568 v -5.07734 c 0,-2.74401 1.2507,-3.30401 3.136,-3.34134 z m 1.3627,1.53067 h 1.568 c 0.1307,-1.19467 0.84,-1.736 2.296,-1.736 1.4,0 2.184,0.52266 2.184,1.456 v 0.41067 c 0,0.65333 -0.392,0.93333 -1.624,1.08266 -2.856,0.37334 -4.8533,0.59734 -4.8533,3.21068 0,1.77333 1.232,2.89334 3.2107,2.89334 1.232,0 2.2213,-0.42934 3.3226,-1.43734 0.112,0.98933 0.5974,1.43734 1.6054,1.43734 0.3173,0 0.56,-0.0373 1.064,-0.16801 v -1.176 c -0.168,0.0373 -0.2427,0.0373 -0.336,0.0373 -0.5414,0 -0.84,-0.28 -0.84,-0.76534 v -5.74934 c 0,-1.73601 -1.2694,-2.66934 -3.6774,-2.66934 -1.7546,0 -3.8266,0.52267 -3.92,3.17334 z m 3.1174,5.95468 c -1.2134,0 -1.9227,-0.57867 -1.9227,-1.56801 0,-2.14667 3.2667,-1.60533 4.8533,-2.33333 v 1.75467 c 0,0.93333 -1.0826,2.14667 -2.9306,2.14667 z m 8.3066,-1.97867 h -1.6426 c 0.075,2.25867 1.344,3.34134 3.9013,3.34134 2.464,0 4.032,-1.21334 4.032,-3.09868 0,-1.456 -0.8213,-2.25867 -2.7627,-2.72534 l -1.4933,-0.35466 c -1.2693,-0.29867 -1.8107,-0.70934 -1.8107,-1.40001 0,-0.896 0.8027,-1.47466 2.072,-1.47466 1.2507,0 1.9227,0.54133 1.96,1.568 h 1.6427 c -0.019,-1.92267 -1.288,-3.00534 -3.5467,-3.00534 -2.2773,0 -3.752,1.176 -3.752,2.98667 0,1.53067 0.784,2.25867 3.0987,2.81867 l 1.456,0.35467 c 1.0827,0.26133 1.512,0.65334 1.512,1.36267 0,0.91467 -0.9147,1.53067 -2.2773,1.53067 -1.904,0 -2.2587,-0.952 -2.3894,-1.904 z m 16.3147,-1.45601 c 0,-3.54667 -1.3253,-5.69334 -4.3493,-5.69334 -2.7254,0 -4.48,2.09067 -4.48,5.30134 0,3.21067 1.6986,5.18935 4.4426,5.18935 2.2401,0 3.7894,-1.26934 4.1814,-3.39734 h -1.568 c -0.4293,1.288 -1.3067,1.96 -2.5574,1.96 -1.8106,0 -2.8373,-1.36267 -2.8746,-3.36001 z m -7.168,-1.26933 c 0.1307,-1.81067 1.232,-2.98667 2.8,-2.98667 1.6054,0 2.7067,1.30666 2.7067,2.98667 z"
           id="text11-2-8-02-9-9"
           transform="scale(0.98944431,1.0106683)"
           aria-label="Passphrase" /><path
           style="display:inline;fill:none;fill-opacity:1;stroke:#baa600;stroke-width:1.4;stroke-linecap:butt;stroke-linejoin:miter;stroke-dasharray:2.8, 2.8;stroke-dashoffset:0;stroke-opacity:1;marker-start:url(#Square-1);paint-order:fill markers stroke"
           d="m 2412.1498,-185.83489 -0.03,56.857 28.4016,0.276"
           id="path252-4" /></g><path
         id="path1-19"
         style="color:#000000;fill:#baa600;fill-opacity:1;stroke:#baa600;stroke-width:1.579;stroke-linecap:round;stroke-dasharray:none;stroke-opacity:1"
         d="m 51.039502,477.193 c -7.204445,0 -13.087357,5.88404 -13.087358,13.08848 v 52.2623 c 1e-6,7.20445 5.882913,13.08736 13.087358,13.08736 h 35.760795 c 7.204443,0 13.087357,-5.88291 13.087357,-13.08736 v -10.4133 h 89.613036 c 2.70413,0 4.93846,-2.23546 4.93846,-4.93959 V 505.8856 c 0,-2.70412 -2.23433,-4.93958 -4.93846,-4.93959 h -23.09553 c -22.1765,0 -44.34846,0.0361 -66.517506,0 v -10.66453 c 0,-7.20444 -5.882914,-13.08848 -13.087357,-13.08848 z m 0,4.00033 h 35.760795 c 5.042684,0 9.087026,4.04547 9.087026,9.08815 v 10.66453 c -0.05354,-1.1e-4 -0.107136,1.2e-4 -0.16069,0 h -0.0023 -2.886799 c -1.10426,2.2e-4 -1.999382,0.89535 -1.999598,1.99961 -3.97e-4,1.10469 0.894904,2.0005 1.999598,2.00072 h 2.88454 c 0.722102,0.002 1.443852,-0.001 2.165948,0 22.842678,0.0422 45.682308,0 68.517098,0 h 23.09554 c 0.54237,0 0.93813,0.39689 0.93813,0.93926 v 21.30529 c 0,0.54237 -0.39576,0.93926 -0.93813,0.93926 h -93.778586 -2.88454 c -1.104256,2.2e-4 -1.999377,0.89534 -1.999598,1.9996 -4.03e-4,1.1047 0.8949,2.00051 1.999598,2.00073 h 2.88454 0.165215 v 10.4133 c 0,5.04269 -4.044342,9.08703 -9.087026,9.08703 H 51.039502 c -5.042687,0 -9.088159,-4.04434 -9.08816,-9.08703 v -52.2623 c 1e-6,-5.04268 4.045473,-9.08815 9.08816,-9.08815 z m 7.201725,22.3894 -3.793241,0.0588 c -3.771996,0.0586 -6.839599,3.17466 -6.839601,6.9471 v 11.85728 c 2e-6,3.76993 3.132358,6.85399 6.901841,6.79546 l 3.793241,-0.0588 c 3.771997,-0.0586 6.839601,-3.17352 6.839601,-6.94598 v -11.8584 c 0,-3.76994 -3.132355,-6.85399 -6.901841,-6.79546 z m 0.06224,3.99919 c 1.586041,-0.0246 2.839272,1.21004 2.839271,2.79627 v 11.8584 c 10e-7,1.63266 -1.269056,2.92143 -2.901511,2.94678 l -3.793241,0.0589 c -1.58604,0.0246 -2.839271,-1.21005 -2.839272,-2.79627 v -11.85728 c 10e-7,-1.63264 1.269058,-2.92256 2.901512,-2.9479 z m 55.819583,12.338 c -0.9398,-6.5e-4 -1.70182,0.76137 -1.70117,1.70117 4.3e-4,0.93904 0.76213,1.69987 1.70117,1.69922 h 66.95703 l 0.0117,0.0117 0.30664,-0.0117 0.0605,-0.002 c 2.20129,-0.10155 2.14301,-3.3753 -0.0605,-3.39844 z m -5.8e-4,1.70046 h 67.27526 l -0.36681,0.0131 m 2.05861,-12.78027 c 0,1.08537 -0.87987,1.96525 -1.96524,1.96525 -1.08537,0 -1.96524,-0.87988 -1.96524,-1.96525 -1e-5,-1.08538 0.87986,-1.96526 1.96524,-1.96526 1.08538,0 1.96525,0.87988 1.96524,1.96526 z m -5.63244,-0.20402 c 1e-5,1.08538 -0.87986,1.96526 -1.96524,1.96526 -1.08538,0 -1.96526,-0.87988 -1.96525,-1.96526 0,-1.08538 0.87987,-1.96525 1.96525,-1.96525 1.08537,0 1.96524,0.87988 1.96524,1.96525 z m -9.4709,0.31604 c 0,1.08537 -0.87987,1.96525 -1.96524,1.96525 -1.08538,0 -1.96525,-0.87987 -1.96525,-1.96525 0,-1.08537 0.87988,-1.96524 1.96525,-1.96524 1.08537,0 1.96524,0.87987 1.96524,1.96524 z m -14.46839,-0.11202 c 0,1.08538 -0.87988,1.96526 -1.96526,1.96525 -1.08538,0 -1.96525,-0.87987 -1.96525,-1.96525 -1e-5,-1.08538 0.87987,-1.96526 1.96525,-1.96526 1.08539,-10e-6 1.96527,0.87987 1.96526,1.96526 z m -5.47797,0.0873 c 0,1.08538 -0.87987,1.96525 -1.96525,1.96525 -1.08538,0 -1.96525,-0.87987 -1.96525,-1.96525 0,-1.08538 0.87987,-1.96525 1.96525,-1.96525 1.08538,0 1.96525,0.87987 1.96525,1.96525 z"
         transform="matrix(0,0.7343272,-0.7343272,0,3291.4737,-331.03784)" /></g></g></svg>
