<?xml version="1.0" encoding="UTF-8" standalone="no"?>
<svg
   viewBox="0 0 659.70258 331.13059"
   version="1.1"
   id="svg1"
   width="659.70258"
   height="331.13058"
   xml:space="preserve"
   xmlns="http://www.w3.org/2000/svg"
   xmlns:svg="http://www.w3.org/2000/svg"><defs
     id="defs1"><linearGradient
       id="swatch251"><stop
         style="stop-color:#195962;stop-opacity:1;"
         offset="0"
         id="stop251" /></linearGradient><filter
       style="color-interpolation-filters:sRGB"
       id="filter90-4-61-8"
       x="-0.019571773"
       y="-0.023358992"
       width="1.0423216"
       height="1.0532066"><feFlood
         result="flood"
         in="SourceGraphic"
         flood-opacity="0.796078"
         flood-color="rgb(62,67,73)"
         id="feFlood89-4-0-2" /><feGaussianBlur
         result="blur"
         in="SourceGraphic"
         stdDeviation="2.132 0"
         id="feGaussianBlur89-4-4-6" /><feOffset
         result="offset"
         in="blur"
         dx="1.000000"
         dy="1.000000"
         id="feOffset89-4-2-0" /><feComposite
         result="comp1"
         operator="in"
         in="flood"
         in2="offset"
         id="feComposite89-7-2-6" /><feComposite
         result="fbSourceGraphic"
         operator="over"
         in="SourceGraphic"
         in2="comp1"
         id="feComposite90-6-20-6" /><feColorMatrix
         result="fbSourceGraphicAlpha"
         in="fbSourceGraphic"
         values="0 0 0 -1 0 0 0 0 -1 0 0 0 0 -1 0 0 0 0 1 0"
         id="feColorMatrix90-3-5-4" /><feFlood
         id="feFlood90-1-5-6"
         result="flood"
         in="fbSourceGraphic"
         flood-opacity="0.796078"
         flood-color="rgb(62,67,73)" /><feGaussianBlur
         id="feGaussianBlur90-7-2-2"
         result="blur"
         in="fbSourceGraphic"
         stdDeviation="3.000000" /><feOffset
         id="feOffset90-5-9-8"
         result="offset"
         in="blur"
         dx="1.000000"
         dy="1.000000" /><feComposite
         id="feComposite91-9-02-9"
         result="comp1"
         operator="in"
         in="flood"
         in2="offset" /><feComposite
         id="feComposite92-62-83-6"
         result="comp2"
         operator="over"
         in="fbSourceGraphic"
         in2="comp1" /></filter><marker
       style="overflow:visible"
       id="Square-1"
       refX="0"
       refY="0"
       orient="auto"
       markerWidth="1"
       markerHeight="1"
       viewBox="0 0 1 1"
       preserveAspectRatio="xMidYMid"><path
         transform="scale(0.5)"
         style="fill:context-stroke;fill-rule:evenodd;stroke:none"
         d="M -5,-5 V 5 H 5 V -5 Z"
         id="path18-6" /></marker></defs><!--! Font Awesome Pro 6.4.2 by @fontawesome - https://fontawesome.com License - https://fontawesome.com/license (Commercial License) Copyright 2023 Fonticons, Inc. --><g
     id="layer19"
     style="display:inline"
     transform="translate(-2359.6089,440.79508)"><g
       id="layer20"
       transform="translate(22.493125,-25.8473)"
       style="display:inline"><rect
         style="opacity:1;fill:#ffffff;fill-opacity:1;fill-rule:nonzero;stroke-width:0.986;stroke-dasharray:1.97201, 1.97201;stroke-dashoffset:0;paint-order:fill markers stroke;filter:url(#filter90-4-61-8)"
         id="rect81"
         width="629.31445"
         height="308.23248"
         x="2378.7219"
         y="-367.28116"
         ry="28.196222"
         rx="26.536793"
         transform="matrix(0.92535609,0,0,0.87089619,184.14854,-53.633558)" /><g
         id="g11-8-3-1-1-7"
         transform="matrix(0.86376245,0,0,0.86376245,1642.2321,-531.68174)"
         style="display:inline;fill:#61a78d;fill-opacity:1"><rect
           style="font-variation-settings:'wght' 700;fill:#195962;stroke-width:2.44985;stroke-linecap:round;stroke-linejoin:round;paint-order:markers fill stroke"
           id="rect1-9-8-2-5-4"
           width="312.94656"
           height="59.990269"
           x="920.04065"
           y="155.65892" /><g
           id="g4-7-0-4-5-0"
           transform="translate(-11.145477,39.927363)"><rect
             style="font-variation-settings:'wght' 700;fill:#e6e6e6;fill-opacity:1;stroke-width:2.40363;stroke-linecap:round;stroke-linejoin:round;paint-order:markers fill stroke"
             id="rect1-3-7-5-7-4-6"
             width="312.19806"
             height="57.886284"
             x="920.89868"
             y="126.45267" /><g
             id="text1-6-6-3-4"
             style="font-weight:600;font-size:24px;font-family:Montserrat;-inkscape-font-specification:'Montserrat, Semi-Bold';white-space:pre;inline-size:349.039;fill:#3e4349;stroke-width:3.5;stroke-linecap:round;stroke-linejoin:round;paint-order:markers fill stroke"
             transform="matrix(0.85813569,0,0,0.85813569,124.25758,13.145897)"
             aria-label="Converting a passphrase into a symmetric key"><path
               d="m 964.27809,158.62867 q -2.544,0 -4.608,-1.104 -2.04,-1.128 -3.216,-3.096 -1.152,-1.968 -1.152,-4.44 0,-2.472 1.176,-4.44 1.176,-1.968 3.216,-3.072 2.064,-1.128 4.608,-1.128 2.064,0 3.768,0.72 1.704,0.72 2.88,2.088 l -2.016,1.896 q -1.824,-1.968 -4.488,-1.968 -1.728,0 -3.096,0.768 -1.368,0.744 -2.136,2.088 -0.768,1.344 -0.768,3.048 0,1.704 0.768,3.048 0.768,1.344 2.136,2.112 1.368,0.744 3.096,0.744 2.664,0 4.488,-1.992 l 2.016,1.92 q -1.176,1.368 -2.904,2.088 -1.704,0.72 -3.768,0.72 z m 14.66398,-0.072 q -1.944,0 -3.504,-0.84 -1.56,-0.84 -2.448,-2.328 -0.864,-1.512 -0.864,-3.408 0,-1.896 0.864,-3.384 0.888,-1.488 2.448,-2.328 1.56,-0.84 3.504,-0.84 1.968,0 3.528,0.84 1.56,0.84 2.424,2.328 0.888,1.488 0.888,3.384 0,1.896 -0.888,3.408 -0.864,1.488 -2.424,2.328 -1.56,0.84 -3.528,0.84 z m 0,-2.568 q 1.656,0 2.736,-1.104 1.08,-1.104 1.08,-2.904 0,-1.8 -1.08,-2.904 -1.08,-1.104 -2.736,-1.104 -1.656,0 -2.736,1.104 -1.056,1.104 -1.056,2.904 0,1.8 1.056,2.904 1.08,1.104 2.736,1.104 z m 16.99201,-10.56 q 2.424,0 3.888,1.416 1.46402,1.416 1.46402,4.2 v 7.344 h -3.00002 v -6.96 q 0,-1.68 -0.792,-2.52 -0.792,-0.864 -2.256,-0.864 -1.656,0 -2.616,1.008 -0.96,0.984 -0.96,2.856 v 6.48 h -3 v -12.816 h 2.856 v 1.656 q 0.744,-0.888 1.872,-1.344 1.128,-0.456 2.544,-0.456 z m 13.94402,9.648 4.104,-9.504 h 2.88 l -5.496,12.816 h -3.096 l -5.496,-12.816 h 3.12 z m 20.544,-3.024 q 0,0.312 -0.048,0.888 h -10.056 q 0.264,1.416 1.368,2.256 1.128,0.816 2.784,0.816 2.112,0 3.48,-1.392 l 1.608,1.848 q -0.864,1.032 -2.184,1.56 -1.32,0.528 -2.976,0.528 -2.112,0 -3.72,-0.84 -1.608,-0.84 -2.496,-2.328 -0.864,-1.512 -0.864,-3.408 0,-1.872 0.84,-3.36 0.864,-1.512 2.376,-2.352 1.512,-0.84 3.408,-0.84 1.872,0 3.336,0.84 1.488,0.816 2.304,2.328 0.84,1.488 0.84,3.456 z m -6.48,-4.224 q -1.44,0 -2.448,0.864 -0.984,0.84 -1.2,2.256 h 7.272 q -0.192,-1.392 -1.176,-2.256 -0.984,-0.864 -2.448,-0.864 z m 12.2159,-0.384 q 1.296,-2.016 4.56,-2.016 v 2.856 q -0.384,-0.072 -0.696,-0.072 -1.752,0 -2.736,1.032 -0.984,1.008 -0.984,2.928 v 6.216 h -3 v -12.816 h 2.856 z m 15.288,10.248 q -0.528,0.432 -1.296,0.648 -0.744,0.216 -1.584,0.216 -2.112,0 -3.264,-1.104 -1.152,-1.104 -1.152,-3.216 v -6.168 h -2.112 v -2.4 h 2.112 v -2.928 h 3 v 2.928 h 3.432 v 2.4 h -3.432 v 6.096 q 0,0.936 0.456,1.44 0.456,0.48 1.32,0.48 1.008,0 1.68,-0.528 z m 5.472,0.696 h -3 v -12.816 h 3 z m -1.488,-14.928 q -0.816,0 -1.368,-0.504 -0.552,-0.528 -0.552,-1.296 0,-0.768 0.552,-1.272 0.552,-0.528 1.368,-0.528 0.816,0 1.368,0.504 0.552,0.48 0.552,1.224 0,0.792 -0.552,1.344 -0.528,0.528 -1.368,0.528 z m 12.696,1.968 q 2.424,0 3.888,1.416 1.464,1.416 1.464,4.2 v 7.344 h -3 v -6.96 q 0,-1.68 -0.792,-2.52 -0.792,-0.864 -2.256,-0.864 -1.656,0 -2.616,1.008 -0.96,0.984 -0.96,2.856 v 6.48 h -3 v -12.816 h 2.856 v 1.656 q 0.744,-0.888 1.872,-1.344 1.128,-0.456 2.544,-0.456 z m 19.056,0.144 h 2.856 v 10.872 q 0,6.768 -6.912,6.768 -1.848,0 -3.504,-0.48 -1.656,-0.456 -2.736,-1.344 l 1.344,-2.256 q 0.84,0.696 2.112,1.104 1.296,0.432 2.616,0.432 2.112,0 3.096,-0.96 0.984,-0.96 0.984,-2.928 v -0.672 q -0.768,0.84 -1.872,1.272 -1.104,0.432 -2.424,0.432 -1.824,0 -3.312,-0.768 -1.464,-0.792 -2.328,-2.208 -0.84,-1.416 -0.84,-3.24 0,-1.824 0.84,-3.216 0.864,-1.416 2.328,-2.184 1.488,-0.768 3.312,-0.768 1.392,0 2.52,0.456 1.152,0.456 1.92,1.392 z m -3.984,9.696 q 1.704,0 2.784,-1.008 1.104,-1.032 1.104,-2.664 0,-1.608 -1.104,-2.616 -1.08,-1.008 -2.784,-1.008 -1.728,0 -2.832,1.008 -1.08,1.008 -1.08,2.616 0,1.632 1.08,2.664 1.104,1.008 2.832,1.008 z m 22.296,-9.84 q 2.832,0 4.32,1.368 1.512,1.344 1.512,4.08 v 7.512 h -2.832 v -1.56 q -0.552,0.84 -1.584,1.296 -1.008,0.432 -2.448,0.432 -1.44,0 -2.52,-0.48 -1.08,-0.504 -1.68,-1.368 -0.576,-0.888 -0.576,-1.992 0,-1.728 1.272,-2.76 1.296,-1.056 4.056,-1.056 h 3.312 v -0.192 q 0,-1.344 -0.816,-2.064 -0.792,-0.72 -2.376,-0.72 -1.08,0 -2.136,0.336 -1.032,0.336 -1.752,0.936 l -1.176,-2.184 q 1.008,-0.768 2.424,-1.176 1.416,-0.408 3,-0.408 z m -0.408,10.944 q 1.128,0 1.992,-0.504 0.888,-0.528 1.248,-1.488 v -1.488 h -3.096 q -2.592,0 -2.592,1.704 0,0.816 0.648,1.296 0.648,0.48 1.8,0.48 z m 23.808,-10.944 q 1.872,0 3.336,0.816 1.488,0.816 2.328,2.304 0.84,1.488 0.84,3.432 0,1.944 -0.84,3.456 -0.84,1.488 -2.328,2.304 -1.464,0.816 -3.336,0.816 -2.592,0 -4.104,-1.728 v 6.216 h -3 v -17.472 h 2.856 v 1.68 q 0.744,-0.912 1.824,-1.368 1.104,-0.456 2.424,-0.456 z m -0.336,10.56 q 1.656,0 2.712,-1.104 1.08,-1.104 1.08,-2.904 0,-1.8 -1.08,-2.904 -1.056,-1.104 -2.712,-1.104 -1.08,0 -1.944,0.504 -0.864,0.48 -1.368,1.392 -0.504,0.912 -0.504,2.112 0,1.2 0.504,2.112 0.504,0.912 1.368,1.416 0.864,0.48 1.944,0.48 z m 14.424,-10.56 q 2.832,0 4.32,1.368 1.512,1.344 1.512,4.08 v 7.512 h -2.832 v -1.56 q -0.552,0.84 -1.584,1.296 -1.008,0.432 -2.448,0.432 -1.44,0 -2.52,-0.48 -1.08,-0.504 -1.68,-1.368 -0.576,-0.888 -0.576,-1.992 0,-1.728 1.272,-2.76 1.296,-1.056 4.056,-1.056 h 3.312 v -0.192 q 0,-1.344 -0.816,-2.064 -0.792,-0.72 -2.376,-0.72 -1.08,0 -2.136,0.336 -1.032,0.336 -1.752,0.936 l -1.176,-2.184 q 1.008,-0.768 2.424,-1.176 1.416,-0.408 3,-0.408 z m -0.408,10.944 q 1.128,0 1.992,-0.504 0.888,-0.528 1.248,-1.488 v -1.488 h -3.096 q -2.592,0 -2.592,1.704 0,0.816 0.648,1.296 0.648,0.48 1.8,0.48 z m 14.04,2.184 q -1.56,0 -3.048,-0.408 -1.488,-0.408 -2.376,-1.032 l 1.152,-2.28 q 0.864,0.576 2.064,0.936 1.224,0.336 2.4,0.336 2.688,0 2.688,-1.416 0,-0.672 -0.696,-0.936 -0.672,-0.264 -2.184,-0.504 -1.584,-0.24 -2.592,-0.552 -0.984,-0.312 -1.728,-1.08 -0.72,-0.792 -0.72,-2.184 0,-1.824 1.512,-2.904 1.536,-1.104 4.128,-1.104 1.32,0 2.64,0.312 1.32,0.288 2.16,0.792 l -1.152,2.28 q -1.632,-0.96 -3.672,-0.96 -1.32,0 -2.016,0.408 -0.672,0.384 -0.672,1.032 0,0.72 0.72,1.032 0.744,0.288 2.28,0.552 1.536,0.24 2.52,0.552 0.984,0.312 1.68,1.056 0.72,0.744 0.72,2.112 0,1.8 -1.56,2.88 -1.56,1.08 -4.248,1.08 z m 12.36,0 q -1.56,0 -3.048,-0.408 -1.488,-0.408 -2.376,-1.032 l 1.152,-2.28 q 0.864,0.576 2.064,0.936 1.224,0.336 2.4,0.336 2.688,0 2.688,-1.416 0,-0.672 -0.696,-0.936 -0.672,-0.264 -2.184,-0.504 -1.584,-0.24 -2.592,-0.552 -0.984,-0.312 -1.728,-1.08 -0.72,-0.792 -0.72,-2.184 0,-1.824 1.512,-2.904 1.536,-1.104 4.128,-1.104 1.32,0 2.64,0.312 1.32,0.288 2.16,0.792 l -1.152,2.28 q -1.632,-0.96 -3.672,-0.96 -1.32,0 -2.016,0.408 -0.672,0.384 -0.672,1.032 0,0.72 0.72,1.032 0.744,0.288 2.28,0.552 1.536,0.24 2.52,0.552 0.984,0.312 1.68,1.056 0.72,0.744 0.72,2.112 0,1.8 -1.56,2.88 -1.56,1.08 -4.248,1.08 z m 15.504,-13.128 q 1.872,0 3.336,0.816 1.488,0.816 2.328,2.304 0.84,1.488 0.84,3.432 0,1.944 -0.84,3.456 -0.84,1.488 -2.328,2.304 -1.464,0.816 -3.336,0.816 -2.592,0 -4.104,-1.728 v 6.216 h -3 v -17.472 h 2.856 v 1.68 q 0.744,-0.912 1.824,-1.368 1.104,-0.456 2.424,-0.456 z m -0.336,10.56 q 1.656,0 2.712,-1.104 1.08,-1.104 1.08,-2.904 0,-1.8 -1.08,-2.904 -1.056,-1.104 -2.712,-1.104 -1.08,0 -1.944,0.504 -0.864,0.48 -1.368,1.392 -0.504,0.912 -0.504,2.112 0,1.2 0.504,2.112 0.504,0.912 1.368,1.416 0.864,0.48 1.944,0.48 z m 16.968,-10.56 q 2.424,0 3.888,1.416 1.464,1.416 1.464,4.2 v 7.344 h -3 v -6.96 q 0,-1.68 -0.792,-2.52 -0.792,-0.864 -2.256,-0.864 -1.656,0 -2.616,1.008 -0.96,0.984 -0.96,2.856 v 6.48 h -3 v -17.808 h 3 v 6.48 q 0.744,-0.792 1.824,-1.2 1.104,-0.432 2.448,-0.432 z m 12.024,2.016 q 1.296,-2.016 4.56,-2.016 v 2.856 q -0.384,-0.072 -0.696,-0.072 -1.752,0 -2.736,1.032 -0.984,1.008 -0.984,2.928 v 6.216 h -3 v -12.816 h 2.856 z m 11.088,-2.016 q 2.832,0 4.32,1.368 1.512,1.344 1.512,4.08 v 7.512 h -2.832 v -1.56 q -0.552,0.84 -1.584,1.296 -1.008,0.432 -2.448,0.432 -1.44,0 -2.52,-0.48 -1.08,-0.504 -1.68,-1.368 -0.576,-0.888 -0.576,-1.992 0,-1.728 1.272,-2.76 1.296,-1.056 4.056,-1.056 h 3.312 v -0.192 q 0,-1.344 -0.816,-2.064 -0.792,-0.72 -2.376,-0.72 -1.08,0 -2.136,0.336 -1.032,0.336 -1.752,0.936 l -1.176,-2.184 q 1.008,-0.768 2.424,-1.176 1.416,-0.408 3,-0.408 z m -0.408,10.944 q 1.128,0 1.992,-0.504 0.888,-0.528 1.248,-1.488 v -1.488 h -3.096 q -2.592,0 -2.592,1.704 0,0.816 0.648,1.296 0.648,0.48 1.8,0.48 z m 14.04,2.184 q -1.56,0 -3.048,-0.408 -1.488,-0.408 -2.376,-1.032 l 1.152,-2.28 q 0.864,0.576 2.064,0.936 1.224,0.336 2.4,0.336 2.688,0 2.688,-1.416 0,-0.672 -0.696,-0.936 -0.672,-0.264 -2.184,-0.504 -1.584,-0.24 -2.592,-0.552 -0.984,-0.312 -1.728,-1.08 -0.72,-0.792 -0.72,-2.184 0,-1.824 1.512,-2.904 1.536,-1.104 4.128,-1.104 1.32,0 2.64,0.312 1.32,0.288 2.16,0.792 l -1.152,2.28 q -1.632,-0.96 -3.672,-0.96 -1.32,0 -2.016,0.408 -0.672,0.384 -0.672,1.032 0,0.72 0.72,1.032 0.744,0.288 2.28,0.552 1.536,0.24 2.52,0.552 0.984,0.312 1.68,1.056 0.72,0.744 0.72,2.112 0,1.8 -1.56,2.88 -1.56,1.08 -4.248,1.08 z m 20.448,-6.504 q 0,0.312 -0.048,0.888 h -10.056 q 0.264,1.416 1.368,2.256 1.128,0.816 2.784,0.816 2.112,0 3.48,-1.392 l 1.608,1.848 q -0.864,1.032 -2.184,1.56 -1.32,0.528 -2.976,0.528 -2.112,0 -3.72,-0.84 -1.608,-0.84 -2.496,-2.328 -0.864,-1.512 -0.864,-3.408 0,-1.872 0.84,-3.36 0.864,-1.512 2.376,-2.352 1.512,-0.84 3.408,-0.84 1.872,0 3.336,0.84 1.488,0.816 2.304,2.328 0.84,1.488 0.84,3.456 z m -6.48,-4.224 q -1.44,0 -2.448,0.864 -0.984,0.84 -1.2,2.256 h 7.272 q -0.192,-1.392 -1.176,-2.256 -0.984,-0.864 -2.448,-0.864 z"
               id="path1" /><path
               d="m 959.21409,188.38867 h -3 v -12.816 h 3 z m -1.488,-14.928 q -0.816,0 -1.368,-0.504 -0.552,-0.528 -0.552,-1.296 0,-0.768 0.552,-1.272 0.552,-0.528 1.368,-0.528 0.816,0 1.368,0.504 0.552,0.48 0.552,1.224 0,0.792 -0.552,1.344 -0.528,0.528 -1.368,0.528 z m 12.69599,1.968 q 2.424,0 3.888,1.416 1.464,1.416 1.464,4.2 v 7.344 h -3 v -6.96 q 0,-1.68 -0.792,-2.52 -0.792,-0.864 -2.256,-0.864 -1.656,0 -2.616,1.008 -0.96,0.984 -0.96,2.856 v 6.48 h -3 v -12.816 h 2.856 v 1.656 q 0.744,-0.888 1.872,-1.344 1.128,-0.456 2.544,-0.456 z m 16.87199,12.264 q -0.528,0.432 -1.296,0.648 -0.744,0.216 -1.584,0.216 -2.112,0 -3.264,-1.104 -1.152,-1.104 -1.152,-3.216 v -6.168 h -2.112 v -2.4 h 2.112 v -2.928 h 3 v 2.928 h 3.432 v 2.4 h -3.432 v 6.096 q 0,0.936 0.456,1.44 0.456,0.48 1.32,0.48 1.008,0 1.68,-0.528 z m 7.8,0.864 q -1.944,0 -3.504,-0.84 -1.56,-0.84 -2.448,-2.328 -0.864,-1.512 -0.864,-3.408 0,-1.896 0.864,-3.384 0.888,-1.488 2.448,-2.328 1.56,-0.84 3.504,-0.84 1.968,0 3.528,0.84 1.56003,0.84 2.42403,2.328 0.888,1.488 0.888,3.384 0,1.896 -0.888,3.408 -0.864,1.488 -2.42403,2.328 -1.56,0.84 -3.528,0.84 z m 0,-2.568 q 1.656,0 2.736,-1.104 1.08,-1.104 1.08,-2.904 0,-1.8 -1.08,-2.904 -1.08,-1.104 -2.736,-1.104 -1.656,0 -2.736,1.104 -1.056,1.104 -1.056,2.904 0,1.8 1.056,2.904 1.08,1.104 2.736,1.104 z m 21.24003,-10.56 q 2.832,0 4.32,1.368 1.512,1.344 1.512,4.08 v 7.512 h -2.832 v -1.56 q -0.552,0.84 -1.584,1.296 -1.008,0.432 -2.448,0.432 -1.44,0 -2.52,-0.48 -1.08,-0.504 -1.68,-1.368 -0.576,-0.888 -0.576,-1.992 0,-1.728 1.272,-2.76 1.296,-1.056 4.056,-1.056 h 3.312 v -0.192 q 0,-1.344 -0.816,-2.064 -0.792,-0.72 -2.376,-0.72 -1.08,0 -2.136,0.336 -1.032,0.336 -1.752,0.936 l -1.176,-2.184 q 1.008,-0.768 2.424,-1.176 1.416,-0.408 3,-0.408 z m -0.408,10.944 q 1.128,0 1.992,-0.504 0.888,-0.528 1.248,-1.488 v -1.488 h -3.096 q -2.592,0 -2.592,1.704 0,0.816 0.648,1.296 0.648,0.48 1.8,0.48 z m 20.6639,2.184 q -1.56,0 -3.048,-0.408 -1.488,-0.408 -2.376,-1.032 l 1.152,-2.28 q 0.864,0.576 2.064,0.936 1.224,0.336 2.4,0.336 2.688,0 2.688,-1.416 0,-0.672 -0.696,-0.936 -0.672,-0.264 -2.184,-0.504 -1.584,-0.24 -2.592,-0.552 -0.984,-0.312 -1.728,-1.08 -0.72,-0.792 -0.72,-2.184 0,-1.824 1.512,-2.904 1.536,-1.104 4.128,-1.104 1.32,0 2.64,0.312 1.32,0.288 2.16,0.792 l -1.152,2.28 q -1.632,-0.96 -3.672,-0.96 -1.32,0 -2.016,0.408 -0.672,0.384 -0.672,1.032 0,0.72 0.72,1.032 0.744,0.288 2.28,0.552 1.536,0.24 2.52,0.552 0.984,0.312 1.68,1.056 0.72,0.744 0.72,2.112 0,1.8 -1.56,2.88 -1.56,1.08 -4.248,1.08 z m 17.28,-12.984 h 2.88 l -6,13.848 q -0.84,2.088 -2.04,2.928 -1.2,0.864 -2.904,0.864 -0.96,0 -1.896,-0.312 -0.936,-0.312 -1.536,-0.864 l 1.2,-2.208 q 0.432,0.408 1.008,0.648 0.6,0.24 1.2,0.24 0.792,0 1.296,-0.408 0.528,-0.408 0.96,-1.368 l 0.216,-0.504 -5.592,-12.864 h 3.12 l 4.032,9.48 z m 20.928,-0.144 q 2.424,0 3.84,1.416 1.416,1.392 1.416,4.2 v 7.344 h -3 v -6.96 q 0,-1.68 -0.744,-2.52 -0.744,-0.864 -2.136,-0.864 -1.512,0 -2.424,1.008 -0.912,0.984 -0.912,2.832 v 6.504 h -3 v -6.96 q 0,-1.68 -0.744,-2.52 -0.744,-0.864 -2.136,-0.864 -1.536,0 -2.448,0.984 -0.888,0.984 -0.888,2.856 v 6.504 h -3 v -12.816 h 2.856 v 1.632 q 0.72,-0.864 1.8,-1.32 1.08,-0.456 2.4,-0.456 1.44,0 2.544,0.552 1.128,0.528 1.776,1.584 0.792,-1.008 2.04,-1.56 1.248,-0.576 2.76,-0.576 z m 25.272,0 q 2.424,0 3.84,1.416 1.416,1.392 1.416,4.2 v 7.344 h -3 v -6.96 q 0,-1.68 -0.744,-2.52 -0.744,-0.864 -2.136,-0.864 -1.512,0 -2.424,1.008 -0.912,0.984 -0.912,2.832 v 6.504 h -3 v -6.96 q 0,-1.68 -0.744,-2.52 -0.744,-0.864 -2.136,-0.864 -1.536,0 -2.448,0.984 -0.888,0.984 -0.888,2.856 v 6.504 h -3 v -12.816 h 2.856 v 1.632 q 0.72,-0.864 1.8,-1.32 1.08,-0.456 2.4,-0.456 1.44,0 2.544,0.552 1.128,0.528 1.776,1.584 0.792,-1.008 2.04,-1.56 1.248,-0.576 2.76,-0.576 z m 21.168,6.624 q 0,0.312 -0.048,0.888 h -10.056 q 0.264,1.416 1.368,2.256 1.128,0.816 2.784,0.816 2.112,0 3.48,-1.392 l 1.608,1.848 q -0.864,1.032 -2.184,1.56 -1.32,0.528 -2.976,0.528 -2.112,0 -3.72,-0.84 -1.608,-0.84 -2.496,-2.328 -0.864,-1.512 -0.864,-3.408 0,-1.872 0.84,-3.36 0.864,-1.512 2.376,-2.352 1.512,-0.84 3.408,-0.84 1.872,0 3.336,0.84 1.488,0.816 2.304,2.328 0.84,1.488 0.84,3.456 z m -6.48,-4.224 q -1.44,0 -2.448,0.864 -0.984,0.84 -1.2,2.256 h 7.272 q -0.192,-1.392 -1.176,-2.256 -0.984,-0.864 -2.448,-0.864 z m 17.064,9.864 q -0.528,0.432 -1.296,0.648 -0.744,0.216 -1.584,0.216 -2.112,0 -3.264,-1.104 -1.152,-1.104 -1.152,-3.216 v -6.168 h -2.112 v -2.4 h 2.112 v -2.928 h 3 v 2.928 h 3.432 v 2.4 h -3.432 v 6.096 q 0,0.936 0.456,1.44 0.456,0.48 1.32,0.48 1.008,0 1.68,-0.528 z m 5.328,-10.248 q 1.296,-2.016 4.56,-2.016 v 2.856 q -0.384,-0.072 -0.696,-0.072 -1.752,0 -2.736,1.032 -0.984,1.008 -0.984,2.928 v 6.216 h -3 v -12.816 h 2.856 z m 10.104,10.944 h -3 v -12.816 h 3 z m -1.488,-14.928 q -0.816,0 -1.368,-0.504 -0.552,-0.528 -0.552,-1.296 0,-0.768 0.552,-1.272 0.552,-0.528 1.368,-0.528 0.816,0 1.368,0.504 0.552,0.48 0.552,1.224 0,0.792 -0.552,1.344 -0.528,0.528 -1.368,0.528 z m 11.304,15.096 q -1.992,0 -3.576,-0.84 -1.584,-0.84 -2.472,-2.328 -0.888,-1.512 -0.888,-3.408 0,-1.896 0.888,-3.384 0.888,-1.488 2.448,-2.328 1.584,-0.84 3.6,-0.84 1.896,0 3.312,0.768 1.44,0.768 2.16,2.208 l -2.304,1.344 q -0.552,-0.888 -1.392,-1.32 -0.816,-0.456 -1.8,-0.456 -1.68,0 -2.784,1.104 -1.104,1.08 -1.104,2.904 0,1.824 1.08,2.928 1.104,1.08 2.808,1.08 0.984,0 1.8,-0.432 0.84,-0.456 1.392,-1.344 l 2.304,1.344 q -0.744,1.44 -2.184,2.232 -1.416,0.768 -3.288,0.768 z m 28.0079,-0.168 h -3.648 l -4.44,-5.496 -2.232,2.112 v 3.384 h -3 v -17.808 h 3 v 10.752 l 6.216,-5.76 h 3.6 l -5.352,5.376 z m 13.464,-6.336 q 0,0.312 -0.048,0.888 h -10.056 q 0.264,1.416 1.368,2.256 1.128,0.816 2.784,0.816 2.112,0 3.48,-1.392 l 1.608,1.848 q -0.864,1.032 -2.184,1.56 -1.32,0.528 -2.976,0.528 -2.112,0 -3.72,-0.84 -1.608,-0.84 -2.496,-2.328 -0.864,-1.512 -0.864,-3.408 0,-1.872 0.84,-3.36 0.864,-1.512 2.376,-2.352 1.512,-0.84 3.408,-0.84 1.872,0 3.336,0.84 1.488,0.816 2.304,2.328 0.84,1.488 0.84,3.456 z m -6.48,-4.224 q -1.44,0 -2.448,0.864 -0.984,0.84 -1.2,2.256 h 7.272 q -0.192,-1.392 -1.176,-2.256 -0.984,-0.864 -2.448,-0.864 z m 18.24,-2.256 h 2.88 l -6,13.848 q -0.84,2.088 -2.04,2.928 -1.2,0.864 -2.904,0.864 -0.96,0 -1.896,-0.312 -0.936,-0.312 -1.536,-0.864 l 1.2,-2.208 q 0.432,0.408 1.008,0.648 0.6,0.24 1.2,0.24 0.792,0 1.296,-0.408 0.528,-0.408 0.96,-1.368 l 0.216,-0.504 -5.592,-12.864 h 3.12 l 4.032,9.48 z"
               id="path2" /></g></g></g><g
         id="g81"
         transform="translate(-12.364378,-33.578166)"><path
           id="rect58"
           style="opacity:1;fill:#61a78d;fill-opacity:0.33;fill-rule:nonzero;stroke:#61a78d;stroke-width:1.22217;stroke-linecap:square;stroke-miterlimit:0;stroke-dasharray:2.44435, 2.44435;stroke-dashoffset:0;stroke-opacity:1;paint-order:fill markers stroke"
           d="m 2660.9776,-261.25397 h 162.2875 a 5.1440615,5.1440615 135 0 0 5.1441,-5.14406 v -22.84921 a 1.7701703,1.7701703 161.01068 0 1 3.1655,-1.0893 l 61.7073,79.04246 a 6.5891582,6.5891582 90.000002 0 1 0,8.10952 l -61.7073,79.04245 a 1.7701705,1.7701705 18.989325 0 1 -3.1655,-1.0893 v -27.38117 a 5.1440615,5.1440615 45 0 0 -5.1441,-5.14406 h -162.2875 a 5.1440615,5.1440615 45 0 1 -5.1441,-5.14406 v -93.20921 a 5.1440615,5.1440615 135 0 1 5.1441,-5.14406 z"
           transform="matrix(0.8652824,0,0,0.75219829,370.84993,-55.494362)" /><path
           style="font-size:19.4943px;font-family:Montserrat;-inkscape-font-specification:Montserrat;font-variation-settings:'wght' 500;white-space:pre;inline-size:316.601;fill:#3e4349;stroke-width:3.5;stroke-linecap:round;stroke-linejoin:round;paint-order:markers fill stroke"
           d="m 866.25554,165.01714 q -1.09168,-1.79348 -1.67651,-4.1133 -0.58483,-2.33931 -0.58483,-5.01003 0,-2.67072 0.58483,-5.01004 0.58483,-2.35881 1.67651,-4.1133 h 1.32562 q -1.15017,1.96893 -1.69601,4.23027 -0.52634,2.26134 -0.52634,4.89307 0,2.63173 0.52634,4.89307 0.54584,2.26133 1.69601,4.23026 z m 6.80352,-3.68442 q -1.24763,0 -2.3978,-0.3509 -1.13067,-0.37039 -1.77398,-0.91623 l 0.62382,-1.09168 q 0.64331,0.50685 1.61803,0.83825 0.97471,0.31191 2.0274,0.31191 1.40359,0 2.0664,-0.42888 0.6823,-0.44836 0.6823,-1.24763 0,-0.56533 -0.37039,-0.87724 -0.37039,-0.33141 -0.93573,-0.48736 -0.56533,-0.17545 -1.50106,-0.3314 -1.24763,-0.23394 -2.00791,-0.46787 -0.76028,-0.25342 -1.30612,-0.83825 -0.52635,-0.58483 -0.52635,-1.61803 0,-1.28662 1.07219,-2.10538 1.07219,-0.81876 2.98263,-0.81876 0.99421,0 1.98842,0.27292 0.99421,0.25342 1.63752,0.6823 l -0.60432,1.11117 q -1.26713,-0.87724 -3.02162,-0.87724 -1.32561,0 -2.00791,0.46786 -0.66281,0.46786 -0.66281,1.22814 0,0.58483 0.37039,0.93573 0.38989,0.3509 0.95522,0.52634 0.56534,0.15596 1.55955,0.33141 1.22814,0.23393 1.96892,0.46786 0.74078,0.23393 1.26713,0.79927 0.52635,0.56533 0.52635,1.55954 0,1.34511 -1.13067,2.14437 -1.11118,0.77978 -3.0996,0.77978 z m 12.18395,-0.72129 q -0.38989,0.35089 -0.97472,0.54584 -0.56533,0.17545 -1.18915,0.17545 -1.44258,0 -2.22235,-0.77978 -0.77977,-0.77977 -0.77977,-2.20285 v -6.19919 h -1.83247 v -1.16966 h 1.83247 v -2.24184 h 1.38409 v 2.24184 h 3.11909 v 1.16966 h -3.11909 v 6.12121 q 0,0.91623 0.44837,1.40359 0.46787,0.46786 1.32561,0.46786 0.42888,0 0.81877,-0.13646 0.40938,-0.13646 0.70179,-0.38988 z m 3.84038,-7.62227 q 0.48735,-1.0332 1.44258,-1.55955 0.97471,-0.52634 2.39779,-0.52634 v 1.3451 l -0.3314,-0.0195 q -1.61803,0 -2.53426,0.99421 -0.91623,0.99421 -0.91623,2.78768 v 5.22447 h -1.3841 v -10.254 h 1.32562 z m 7.71973,8.24608 h -1.38409 v -10.254 h 1.38409 z m -0.6823,-12.49584 q -0.42887,0 -0.72128,-0.29242 -0.29242,-0.29241 -0.29242,-0.70179 0,-0.38989 0.29242,-0.6823 0.29241,-0.29242 0.72128,-0.29242 0.42888,0 0.72129,0.29242 0.29242,0.27292 0.29242,0.6628 0,0.42888 -0.29242,0.72129 -0.29241,0.29242 -0.72129,0.29242 z m 9.76663,2.16387 q 1.92994,0 3.06061,1.13066 1.15016,1.11118 1.15016,3.25555 v 5.94576 h -1.38409 v -5.8093 q 0,-1.59853 -0.79927,-2.43678 -0.79927,-0.83826 -2.28083,-0.83826 -1.65702,0 -2.63173,0.99421 -0.95523,0.97471 -0.95523,2.70971 v 5.38042 h -1.38409 v -10.254 h 1.32561 v 1.89095 q 0.56534,-0.93573 1.55955,-1.44258 1.0137,-0.52634 2.33931,-0.52634 z m 16.14128,0.078 h 1.32561 v 9.00637 q 0,2.61224 -1.28662,3.85987 -1.26713,1.26713 -3.84038,1.26713 -1.42308,0 -2.70971,-0.42887 -1.26713,-0.40938 -2.06639,-1.15017 l 0.70179,-1.05269 q 0.74079,0.66281 1.79348,1.0332 1.07219,0.37039 2.24184,0.37039 1.94943,0 2.86567,-0.91623 0.91623,-0.89674 0.91623,-2.80718 v -1.30612 q -0.64331,0.97472 -1.69601,1.48157 -1.03319,0.50685 -2.30032,0.50685 -1.44258,0 -2.63173,-0.62382 -1.16966,-0.64331 -1.85196,-1.77398 -0.66281,-1.15016 -0.66281,-2.59274 0,-1.44258 0.66281,-2.57325 0.6823,-1.13067 1.85196,-1.75449 1.16965,-0.62381 2.63173,-0.62381 1.30611,0 2.35881,0.52634 1.05269,0.52635 1.696,1.52056 z m -3.91835,8.63598 q 1.11117,0 2.00791,-0.46787 0.89674,-0.48735 1.38409,-1.3451 0.50686,-0.85775 0.50686,-1.94943 0,-1.09168 -0.50686,-1.92994 -0.48735,-0.85775 -1.38409,-1.32561 -0.87724,-0.48736 -2.00791,-0.48736 -1.11118,0 -2.00792,0.46787 -0.87724,0.46786 -1.38409,1.32561 -0.48736,0.85775 -0.48736,1.94943 0,1.09168 0.48736,1.94943 0.50685,0.85775 1.38409,1.3451 0.89674,0.46787 2.00792,0.46787 z m 13.47058,-3.06061 h -5.10751 v -1.20864 h 5.10751 z m 8.69445,4.05482 q -0.38988,0.35089 -0.97471,0.54584 -0.56534,0.17545 -1.18915,0.17545 -1.44258,0 -2.22235,-0.77978 -0.77978,-0.77977 -0.77978,-2.20285 v -6.19919 h -1.83246 v -1.16966 h 1.83246 v -2.24184 h 1.3841 v 2.24184 h 3.11909 v 1.16966 h -3.11909 v 6.12121 q 0,0.91623 0.44837,1.40359 0.46786,0.46786 1.32561,0.46786 0.42888,0 0.81876,-0.13646 0.40938,-0.13646 0.7018,-0.38988 z m 6.33568,0.72129 q -1.48157,0 -2.67072,-0.66281 -1.18916,-0.6823 -1.87146,-1.87145 -0.6823,-1.18916 -0.6823,-2.69022 0,-1.50106 0.6823,-2.69021 0.6823,-1.18915 1.87146,-1.85196 1.18915,-0.6628 2.67072,-0.6628 1.48156,0 2.67072,0.6628 1.18915,0.66281 1.85195,1.85196 0.6823,1.18915 0.6823,2.69021 0,1.50106 -0.6823,2.69022 -0.6628,1.18915 -1.85195,1.87145 -1.18916,0.66281 -2.67072,0.66281 z m 0,-1.22814 q 1.09168,0 1.94943,-0.48736 0.87724,-0.50685 1.3646,-1.42309 0.48735,-0.91623 0.48735,-2.08589 0,-1.16965 -0.48735,-2.08589 -0.48736,-0.91623 -1.3646,-1.40359 -0.85775,-0.50685 -1.94943,-0.50685 -1.09168,0 -1.96893,0.50685 -0.85775,0.48736 -1.3646,1.40359 -0.48736,0.91624 -0.48736,2.08589 0,1.16966 0.48736,2.08589 0.50685,0.91624 1.3646,1.42309 0.87725,0.48736 1.96893,0.48736 z m 12.57384,-3.54797 h -5.1075 v -1.20864 h 5.1075 z m 12.72977,4.67863 h -1.696 l -4.13279,-5.14649 -2.4173,2.22235 v 2.92414 h -1.38409 v -14.46477 h 1.38409 v 9.80564 l 6.12122,-5.59487 h 1.71549 l -4.38621,4.19128 z m 10.6049,-4.69812 h -8.57749 q 0.11697,1.59853 1.22814,2.59274 1.11118,0.97472 2.80718,0.97472 0.95522,0 1.75449,-0.33141 0.79926,-0.3509 1.38409,-1.0137 l 0.77978,0.89674 q -0.6823,0.81876 -1.7155,1.24763 -1.01371,0.42888 -2.24185,0.42888 -1.57904,0 -2.80718,-0.66281 -1.20864,-0.6823 -1.89094,-1.87145 -0.6823,-1.18916 -0.6823,-2.69022 0,-1.50106 0.64331,-2.69021 0.6628,-1.18915 1.79347,-1.85196 1.15017,-0.6628 2.57325,-0.6628 1.42308,0 2.55375,0.6628 1.13067,0.66281 1.77399,1.85196 0.64331,1.16966 0.64331,2.69021 z m -4.95155,-4.4447 q -1.48157,0 -2.49527,0.95522 -0.99421,0.93572 -1.13067,2.45628 h 7.27138 q -0.13646,-1.52056 -1.15017,-2.45628 -0.99421,-0.95522 -2.49527,-0.95522 z m 14.85466,-1.11118 h 1.3646 l -5.127,11.48215 q -0.62382,1.44257 -1.44258,2.0469 -0.81876,0.60432 -1.96893,0.60432 -0.74078,0 -1.38409,-0.23393 -0.64331,-0.23393 -1.11118,-0.7018 l 0.64331,-1.03319 q 0.77978,0.77977 1.87146,0.77977 0.70179,0 1.18915,-0.38989 0.50685,-0.38988 0.93573,-1.32561 l 0.44837,-0.99421 -4.58117,-10.23451 h 1.44258 l 3.85987,8.71395 z m 2.16386,14.0359 q 1.15016,-1.96893 1.696,-4.21077 0.54584,-2.26134 0.54584,-4.91256 0,-2.65123 -0.54584,-4.89307 -0.54584,-2.26134 -1.696,-4.23027 h 1.32561 q 1.09168,1.75449 1.67651,4.1133 0.60432,2.33932 0.60432,5.01004 0,2.67072 -0.58483,5.01003 -0.58483,2.33932 -1.696,4.1133 z"
           id="text11-2-0-1-6"
           transform="matrix(0.82075467,0,0,0.82075467,1976.4147,-327.55157)"
           aria-label="(string-to-key) " /><path
           style="font-weight:500;font-size:19.4943px;font-family:Montserrat;-inkscape-font-specification:'Montserrat Medium';font-variation-settings:'wght' 500;white-space:pre;inline-size:316.601;fill:#3e4349;stroke-width:3.5;stroke-linecap:round;stroke-linejoin:round;paint-order:markers fill stroke"
           d="m 867.99054,161.3912 q -1.54005,0 -2.98263,-0.46786 -1.42309,-0.48736 -2.24185,-1.24764 l 0.72129,-1.52055 q 0.77977,0.70179 1.98842,1.15016 1.22814,0.42887 2.51477,0.42887 1.696,0 2.53425,-0.56533 0.83826,-0.58483 0.83826,-1.54005 0,-0.7018 -0.46786,-1.13067 -0.44837,-0.44837 -1.13067,-0.6823 -0.66281,-0.23393 -1.89095,-0.52635 -1.54005,-0.37039 -2.49527,-0.74078 -0.93573,-0.37039 -1.61803,-1.13067 -0.6628,-0.77977 -0.6628,-2.08589 0,-1.09168 0.56533,-1.96892 0.58483,-0.87725 1.75449,-1.40359 1.16966,-0.52635 2.90465,-0.52635 1.20865,0 2.3783,0.31191 1.16966,0.31191 2.00792,0.89674 l -0.64332,1.55954 q -0.85774,-0.54584 -1.83246,-0.81876 -0.97471,-0.29241 -1.91044,-0.29241 -1.65702,0 -2.49527,0.60432 -0.81876,0.60432 -0.81876,1.55954 0,0.7018 0.46786,1.15017 0.46786,0.42887 1.15016,0.6823 0.7018,0.23393 1.89095,0.50685 1.54005,0.37039 2.47578,0.74078 0.93572,0.37039 1.59853,1.13067 0.6823,0.76028 0.6823,2.0469 0,1.07219 -0.58483,1.96893 -0.58483,0.87724 -1.77398,1.40359 -1.18915,0.50685 -2.92414,0.50685 z m 9.61069,-1.85196 h 6.99846 v 1.696 h -9.80564 v -1.32561 l 5.55588,-5.36093 q 1.0137,-0.97472 1.3646,-1.67651 0.3509,-0.72129 0.3509,-1.44258 0,-1.07219 -0.76028,-1.65701 -0.74078,-0.60433 -2.14437,-0.60433 -2.26134,0 -3.48948,1.48157 l -1.32562,-1.15016 q 0.79927,-0.97472 2.08589,-1.52056 1.30612,-0.54584 2.90465,-0.54584 2.14438,0 3.41151,1.0332 1.26713,1.0137 1.26713,2.76819 0,1.09168 -0.46787,2.06639 -0.46786,0.97472 -1.77398,2.22235 z m 21.65816,1.696 h -2.28083 l -5.22448,-6.06272 -2.49527,2.53426 v 3.52846 h -1.94943 v -13.64601 h 1.94943 v 7.62228 l 7.40784,-7.62228 h 2.22235 l -5.8288,6.14071 z m 19.96214,-10.42945 q 1.94943,0 3.0801,1.13067 1.15017,1.13067 1.15017,3.35302 v 5.94576 h -1.87146 v -5.73132 q 0,-1.50106 -0.70179,-2.26134 -0.6823,-0.76028 -1.96893,-0.76028 -1.42308,0 -2.26133,0.89674 -0.83826,0.87725 -0.83826,2.53426 v 5.32194 h -1.87145 v -5.73132 q 0,-1.50106 -0.7018,-2.26134 -0.6823,-0.76028 -1.96892,-0.76028 -1.42308,0 -2.26134,0.89674 -0.83825,0.87725 -0.83825,2.53426 v 5.32194 h -1.87146 v -10.33197 h 1.79348 v 1.54005 q 0.56533,-0.79927 1.48156,-1.20865 0.91624,-0.42888 2.0859,-0.42888 1.20864,0 2.14437,0.48736 0.93572,0.48736 1.44258,1.42309 0.58483,-0.89674 1.61802,-1.40359 1.0527,-0.50686 2.35881,-0.50686 z m 17.01851,5.32195 q 0,0.21444 -0.039,0.56533 h -8.38254 q 0.17544,1.3646 1.18915,2.20286 1.0332,0.81876 2.55375,0.81876 1.85196,0 2.98263,-1.24764 l 1.0332,1.20865 q -0.7018,0.81876 -1.75449,1.24764 -1.0332,0.42887 -2.31982,0.42887 -1.63752,0 -2.90465,-0.66281 -1.26713,-0.6823 -1.96893,-1.89094 -0.6823,-1.20865 -0.6823,-2.7292 0,-1.50107 0.66281,-2.70971 0.6823,-1.20865 1.85196,-1.87146 1.18915,-0.6823 2.67072,-0.6823 1.48156,0 2.63173,0.6823 1.16966,0.66281 1.81297,1.87146 0.6628,1.20864 0.6628,2.76819 z m -5.1075,-3.74291 q -1.34511,0 -2.26134,0.81876 -0.89674,0.81876 -1.05269,2.14438 h 6.62806 q -0.15596,-1.30612 -1.07219,-2.12488 -0.89674,-0.83826 -2.24184,-0.83826 z m 12.20342,8.96738 q -1.57904,0 -2.82668,-0.6823 -1.22814,-0.6823 -1.92993,-1.87145 -0.7018,-1.20865 -0.7018,-2.7292 0,-1.52056 0.7018,-2.70971 0.70179,-1.20865 1.92993,-1.87146 1.24764,-0.6823 2.82668,-0.6823 1.40359,0 2.49527,0.56534 1.11117,0.56533 1.7155,1.63752 l -1.42309,0.91623 q -0.48736,-0.74078 -1.20864,-1.11117 -0.72129,-0.37039 -1.59854,-0.37039 -1.0137,0 -1.83246,0.44836 -0.79927,0.44837 -1.26713,1.28663 -0.44837,0.81876 -0.44837,1.89095 0,1.09168 0.44837,1.92993 0.46786,0.81876 1.26713,1.26713 0.81876,0.44837 1.83246,0.44837 0.87725,0 1.59854,-0.37039 0.72128,-0.37039 1.20864,-1.11118 l 1.42309,0.89674 q -0.60433,1.07219 -1.7155,1.65702 -1.09168,0.56533 -2.49527,0.56533 z m 12.00847,-10.54642 q 1.96893,0 3.11909,1.15017 1.16966,1.13067 1.16966,3.33352 v 5.94576 h -1.87145 v -5.73132 q 0,-1.50106 -0.72129,-2.26134 -0.72129,-0.76028 -2.0664,-0.76028 -1.52055,0 -2.3978,0.89674 -0.87724,0.87725 -0.87724,2.53426 v 5.32194 h -1.87145 v -14.46477 h 1.87145 v 5.59487 q 0.58483,-0.74079 1.52056,-1.15017 0.95522,-0.40938 2.12487,-0.40938 z m 11.52113,0 q 2.14437,0 3.27504,1.0527 1.15017,1.05269 1.15017,3.13858 v 6.23817 h -1.77399 v -1.3646 q -0.46786,0.72129 -1.3451,1.11118 -0.85775,0.37039 -2.0469,0.37039 -1.735,0 -2.78769,-0.83825 -1.0332,-0.83826 -1.0332,-2.20286 0,-1.3646 0.99421,-2.18336 0.99421,-0.83826 3.15808,-0.83826 h 2.96313 v -0.37039 q 0,-1.20865 -0.70179,-1.85196 -0.7018,-0.64331 -2.0664,-0.64331 -0.91623,0 -1.79347,0.31191 -0.87725,0.29241 -1.48157,0.79927 l -0.77977,-1.40359 q 0.79926,-0.64332 1.91044,-0.97472 1.11117,-0.3509 2.35881,-0.3509 z m -0.42888,9.10384 q 1.07219,0 1.85196,-0.46786 0.77978,-0.48736 1.13067,-1.3646 v -1.44258 h -2.88515 q -2.37831,0 -2.37831,1.59853 0,0.77977 0.60432,1.22814 0.60433,0.44837 1.67651,0.44837 z m 13.84095,-9.10384 q 1.96893,0 3.11909,1.15017 1.16966,1.13067 1.16966,3.33352 v 5.94576 h -1.87146 v -5.73132 q 0,-1.50106 -0.72128,-2.26134 -0.72129,-0.76028 -2.0664,-0.76028 -1.52056,0 -2.3978,0.89674 -0.87724,0.87725 -0.87724,2.53426 v 5.32194 h -1.87146 v -10.33197 h 1.79348 v 1.55954 q 0.56533,-0.79927 1.52056,-1.22814 0.97471,-0.42888 2.20285,-0.42888 z m 9.63018,10.42945 h -1.87145 v -10.33197 h 1.87145 z m -0.93573,-12.32039 q -0.54584,0 -0.91623,-0.3509 -0.3509,-0.3509 -0.3509,-0.85775 0,-0.50685 0.3509,-0.85775 0.37039,-0.37039 0.91623,-0.37039 0.54584,0 0.89674,0.3509 0.37039,0.3314 0.37039,0.83825 0,0.52635 -0.37039,0.89674 -0.3509,0.3509 -0.89674,0.3509 z m 7.4663,12.43736 q -1.26713,0 -2.43679,-0.3314 -1.16966,-0.3509 -1.83246,-0.87725 l 0.77977,-1.48156 q 0.6823,0.48735 1.65701,0.77977 0.97472,0.29241 1.96893,0.29241 2.45628,0 2.45628,-1.40359 0,-0.46786 -0.3314,-0.74078 -0.33141,-0.27292 -0.83826,-0.38989 -0.48736,-0.13646 -1.40359,-0.29241 -1.24763,-0.19494 -2.0469,-0.44837 -0.77977,-0.25342 -1.34511,-0.85775 -0.56533,-0.60432 -0.56533,-1.696 0,-1.40359 1.16966,-2.24185 1.16966,-0.85775 3.13858,-0.85775 1.0332,0 2.0664,0.25343 1.03319,0.25343 1.69603,0.6823 l -0.7993,1.48157 q -1.26713,-0.81876 -2.98262,-0.81876 -1.18916,0 -1.81297,0.38988 -0.62382,0.38989 -0.62382,1.0332 0,0.50685 0.3509,0.79927 0.35089,0.29241 0.85774,0.42887 0.52635,0.13646 1.46208,0.31191 1.24763,0.21444 2.00791,0.46786 0.77977,0.23394 1.32558,0.81876 0.5459,0.58483 0.5459,1.63753 0,1.40358 -1.20867,2.24184 -1.18916,0.81876 -3.25555,0.81876 z m 19.72822,-10.54642 q 1.9494,0 3.0801,1.13067 1.1502,1.13067 1.1502,3.35302 v 5.94576 h -1.8715 v -5.73132 q 0,-1.50106 -0.7018,-2.26134 -0.6823,-0.76028 -1.9689,-0.76028 -1.4231,0 -2.2613,0.89674 -0.8383,0.87725 -0.8383,2.53426 v 5.32194 h -1.8714 v -5.73132 q 0,-1.50106 -0.7018,-2.26134 -0.6823,-0.76028 -1.969,-0.76028 -1.423,0 -2.2613,0.89674 -0.8383,0.87725 -0.8383,2.53426 v 5.32194 h -1.8714 v -10.33197 h 1.7935 v 1.54005 q 0.5653,-0.79927 1.4815,-1.20865 0.9163,-0.42888 2.0859,-0.42888 1.2087,0 2.1444,0.48736 0.9357,0.48736 1.4426,1.42309 0.5848,-0.89674 1.618,-1.40359 1.0527,-0.50686 2.3588,-0.50686 z"
           id="text11-2-0-1-6-3"
           transform="matrix(0.82075467,0,0,0.82075467,1977.4227,-352.90197)"
           aria-label="S2K mechanism" /></g><g
         id="g58"
         transform="translate(19.317884,-39.444866)"><g
           id="g57"><rect
             style="display:inline;fill:#baa600;fill-opacity:0.25;stroke:#baa600;stroke-width:1.222;stroke-linecap:butt;stroke-linejoin:miter;stroke-dasharray:2.44401, 2.44401;stroke-dashoffset:0;stroke-opacity:1;paint-order:fill markers stroke"
             id="rect66-1"
             width="240.85733"
             height="35.979061"
             x="2381.3313"
             y="-222.48239" /><path
             style="font-weight:500;font-size:19.4943px;font-family:Montserrat;-inkscape-font-specification:'Montserrat Medium';font-variation-settings:'wght' 500;white-space:pre;inline-size:316.601;fill:#3e4349;stroke-width:3.5;stroke-linecap:round;stroke-linejoin:round;paint-order:markers fill stroke"
             d="m 868.24396,161.35221 q -1.57904,0 -2.82667,-0.6823 -1.22814,-0.6823 -1.92994,-1.87145 -0.70179,-1.20865 -0.70179,-2.7292 0,-1.52056 0.70179,-2.70971 0.7018,-1.20865 1.92994,-1.87146 1.24763,-0.6823 2.82667,-0.6823 1.40359,0 2.49527,0.56534 1.11118,0.56533 1.7155,1.63752 l -1.42308,0.91623 q -0.48736,-0.74078 -1.20865,-1.11117 -0.72129,-0.37039 -1.59853,-0.37039 -1.01371,0 -1.83247,0.44836 -0.79926,0.44837 -1.26713,1.28663 -0.44837,0.81876 -0.44837,1.89095 0,1.09168 0.44837,1.92993 0.46787,0.81876 1.26713,1.26713 0.81876,0.44837 1.83247,0.44837 0.87724,0 1.59853,-0.37039 0.72129,-0.37039 1.20865,-1.11118 l 1.42308,0.89674 q -0.60432,1.07219 -1.7155,1.65702 -1.09168,0.56533 -2.49527,0.56533 z m 10.89731,0 q -1.54005,0 -2.76819,-0.6823 -1.22814,-0.6823 -1.92994,-1.87145 -0.6823,-1.20865 -0.6823,-2.7292 0,-1.52056 0.6823,-2.70971 0.7018,-1.20865 1.92994,-1.87146 1.22814,-0.6823 2.76819,-0.6823 1.54005,0 2.7487,0.6823 1.22814,0.66281 1.91044,1.87146 0.70179,1.18915 0.70179,2.70971 0,1.52055 -0.70179,2.7292 -0.6823,1.18915 -1.91044,1.87145 -1.20865,0.6823 -2.7487,0.6823 z m 0,-1.63752 q 0.99421,0 1.77398,-0.44837 0.79927,-0.46786 1.24764,-1.28662 0.44837,-0.83826 0.44837,-1.91044 0,-1.07219 -0.44837,-1.89095 -0.44837,-0.83826 -1.24764,-1.28663 -0.77977,-0.44836 -1.77398,-0.44836 -0.99421,0 -1.79347,0.44836 -0.77978,0.44837 -1.24764,1.28663 -0.44837,0.81876 -0.44837,1.89095 0,1.07218 0.44837,1.91044 0.46786,0.81876 1.24764,1.28662 0.79926,0.44837 1.79347,0.44837 z m 9.74716,-7.07643 q 0.48735,-0.89674 1.44257,-1.3646 0.95522,-0.46787 2.31983,-0.46787 v 1.81297 q -0.15596,-0.0195 -0.42888,-0.0195 -1.52055,0 -2.3978,0.91623 -0.85775,0.89674 -0.85775,2.57325 v 5.14649 h -1.87145 v -10.33197 h 1.79348 z m 7.8562,0 q 0.48735,-0.89674 1.44258,-1.3646 0.95522,-0.46787 2.31982,-0.46787 v 1.81297 q -0.15596,-0.0195 -0.42888,-0.0195 -1.52055,0 -2.3978,0.91623 -0.85775,0.89674 -0.85775,2.57325 v 5.14649 h -1.87145 v -10.33197 h 1.79348 z m 15.30303,3.48948 q 0,0.21444 -0.039,0.56533 h -8.38255 q 0.17545,1.3646 1.18915,2.20286 1.0332,0.81876 2.55375,0.81876 1.85196,0 2.98263,-1.24764 l 1.0332,1.20865 q -0.7018,0.81876 -1.75449,1.24764 -1.0332,0.42887 -2.31982,0.42887 -1.63752,0 -2.90465,-0.66281 -1.26713,-0.6823 -1.96893,-1.89094 -0.6823,-1.20865 -0.6823,-2.7292 0,-1.50107 0.66281,-2.70971 0.6823,-1.20865 1.85196,-1.87146 1.18915,-0.6823 2.67072,-0.6823 1.48156,0 2.63173,0.6823 1.16966,0.66281 1.81297,1.87146 0.6628,1.20864 0.6628,2.76819 z m -5.1075,-3.74291 q -1.34511,0 -2.26134,0.81876 -0.89674,0.81876 -1.05269,2.14438 h 6.62806 q -0.15596,-1.30612 -1.07219,-2.12488 -0.89674,-0.83826 -2.24184,-0.83826 z m 12.20342,8.96738 q -1.57904,0 -2.82667,-0.6823 -1.22814,-0.6823 -1.92994,-1.87145 -0.70179,-1.20865 -0.70179,-2.7292 0,-1.52056 0.70179,-2.70971 0.7018,-1.20865 1.92994,-1.87146 1.24763,-0.6823 2.82667,-0.6823 1.40359,0 2.49527,0.56534 1.11118,0.56533 1.7155,1.63752 l -1.42308,0.91623 q -0.48736,-0.74078 -1.20865,-1.11117 -0.72129,-0.37039 -1.59853,-0.37039 -1.01371,0 -1.83247,0.44836 -0.79926,0.44837 -1.26713,1.28663 -0.44837,0.81876 -0.44837,1.89095 0,1.09168 0.44837,1.92993 0.46787,0.81876 1.26713,1.26713 0.81876,0.44837 1.83247,0.44837 0.87724,0 1.59853,-0.37039 0.72129,-0.37039 1.20865,-1.11118 l 1.42308,0.89674 q -0.60432,1.07219 -1.7155,1.65702 -1.09168,0.56533 -2.49527,0.56533 z m 12.57381,-0.72129 q -0.40938,0.3509 -1.0137,0.54584 -0.60433,0.17545 -1.24764,0.17545 -1.55954,0 -2.41729,-0.83825 -0.85775,-0.83826 -0.85775,-2.3978 v -5.67284 h -1.75449 v -1.54005 h 1.75449 v -2.26134 h 1.87145 v 2.26134 h 2.96313 v 1.54005 h -2.96313 v 5.59486 q 0,0.83825 0.40938,1.28662 0.42888,0.44837 1.20865,0.44837 0.85775,0 1.46207,-0.48736 z m 13.02216,-9.82513 q 1.96893,0 3.11909,1.15017 1.16966,1.13067 1.16966,3.33352 v 5.94576 h -1.87145 v -5.73132 q 0,-1.50106 -0.72129,-2.26134 -0.72129,-0.76028 -2.0664,-0.76028 -1.52055,0 -2.3978,0.89674 -0.87724,0.87725 -0.87724,2.53426 v 5.32194 h -1.87145 v -14.46477 h 1.87145 v 5.59487 q 0.58483,-0.74079 1.52055,-1.15017 0.95523,-0.40938 2.12488,-0.40938 z m 12.18394,10.54642 q -1.54005,0 -2.76819,-0.6823 -1.22814,-0.6823 -1.92993,-1.87145 -0.68231,-1.20865 -0.68231,-2.7292 0,-1.52056 0.68231,-2.70971 0.70179,-1.20865 1.92993,-1.87146 1.22814,-0.6823 2.76819,-0.6823 1.54005,0 2.7487,0.6823 1.22814,0.66281 1.91044,1.87146 0.70179,1.18915 0.70179,2.70971 0,1.52055 -0.70179,2.7292 -0.6823,1.18915 -1.91044,1.87145 -1.20865,0.6823 -2.7487,0.6823 z m 0,-1.63752 q 0.99421,0 1.77398,-0.44837 0.79927,-0.46786 1.24764,-1.28662 0.44837,-0.83826 0.44837,-1.91044 0,-1.07219 -0.44837,-1.89095 -0.44837,-0.83826 -1.24764,-1.28663 -0.77977,-0.44836 -1.77398,-0.44836 -0.99421,0 -1.79347,0.44836 -0.77978,0.44837 -1.24764,1.28663 -0.44837,0.81876 -0.44837,1.89095 0,1.07218 0.44837,1.91044 0.46786,0.81876 1.24764,1.28662 0.79926,0.44837 1.79347,0.44837 z m 9.74715,-7.07643 q 0.48736,-0.89674 1.44258,-1.3646 0.95522,-0.46787 2.31982,-0.46787 v 1.81297 q -0.15595,-0.0195 -0.42887,-0.0195 -1.52056,0 -2.3978,0.91623 -0.85775,0.89674 -0.85775,2.57325 v 5.14649 h -1.87145 v -10.33197 h 1.79347 z m 9.14284,8.71395 q -1.26713,0 -2.43679,-0.3314 -1.16966,-0.3509 -1.83246,-0.87725 L 972.324,158.662 q 0.6823,0.48735 1.65701,0.77977 0.97472,0.29241 1.96893,0.29241 2.45628,0 2.45628,-1.40359 0,-0.46786 -0.3314,-0.74078 -0.33141,-0.27292 -0.83826,-0.38989 -0.48736,-0.13646 -1.40359,-0.29241 -1.24763,-0.19494 -2.0469,-0.44837 -0.77977,-0.25342 -1.34511,-0.85775 -0.56533,-0.60432 -0.56533,-1.696 0,-1.40359 1.16966,-2.24185 1.16966,-0.85775 3.13858,-0.85775 1.0332,0 2.0664,0.25343 1.03319,0.25343 1.696,0.6823 l -0.79927,1.48157 q -1.26713,-0.81876 -2.98262,-0.81876 -1.18916,0 -1.81297,0.38988 -0.62382,0.38989 -0.62382,1.0332 0,0.50685 0.35089,0.79927 0.3509,0.29241 0.85775,0.42887 0.52635,0.13646 1.46208,0.31191 1.24763,0.21444 2.00791,0.46786 0.77977,0.23394 1.32561,0.81876 0.54584,0.58483 0.54584,1.63753 0,1.40358 -1.20864,2.24184 -1.18916,0.81876 -3.25555,0.81876 z m 16.14127,-5.22447 q 0,0.21444 -0.039,0.56533 h -8.38255 q 0.17545,1.3646 1.18915,2.20286 1.0332,0.81876 2.55375,0.81876 1.85196,0 2.98263,-1.24764 l 1.0332,1.20865 q -0.70179,0.81876 -1.75449,1.24764 -1.0332,0.42887 -2.31982,0.42887 -1.63752,0 -2.90465,-0.66281 -1.26713,-0.6823 -1.96892,-1.89094 -0.6823,-1.20865 -0.6823,-2.7292 0,-1.50107 0.6628,-2.70971 0.6823,-1.20865 1.85196,-1.87146 1.18915,-0.6823 2.67072,-0.6823 1.48157,0 2.63173,0.6823 1.16966,0.66281 1.81297,1.87146 0.66281,1.20864 0.66281,2.76819 z m -5.10751,-3.74291 q -1.34511,0 -2.26134,0.81876 -0.89674,0.81876 -1.05269,2.14438 h 6.62806 q -0.15595,-1.30612 -1.07219,-2.12488 -0.89673,-0.83826 -2.24184,-0.83826 z m 18.42206,-1.57904 q 1.5011,0 2.6902,0.66281 1.1892,0.66281 1.852,1.85196 0.6823,1.18915 0.6823,2.7487 0,1.55954 -0.6823,2.76819 -0.6628,1.18915 -1.852,1.85195 -1.1891,0.66281 -2.6902,0.66281 -1.1501,0 -2.1053,-0.44837 -0.9553,-0.44837 -1.5791,-1.30612 v 1.63752 h -1.79346 v -14.46477 h 1.87146 v 5.69234 q 0.6238,-0.81876 1.5595,-1.22814 0.9358,-0.42888 2.0469,-0.42888 z m -0.1559,8.9089 q 0.9942,0 1.774,-0.44837 0.7992,-0.46786 1.2476,-1.28662 0.4679,-0.83826 0.4679,-1.91044 0,-1.07219 -0.4679,-1.89095 -0.4484,-0.83826 -1.2476,-1.28663 -0.7798,-0.44836 -1.774,-0.44836 -0.9747,0 -1.774,0.44836 -0.7993,0.44837 -1.2476,1.28663 -0.4484,0.81876 -0.4484,1.89095 0,1.07218 0.4484,1.91044 0.4483,0.81876 1.2476,1.28662 0.7993,0.44837 1.774,0.44837 z m 11.6381,-8.9089 q 2.1443,0 3.275,1.0527 1.1502,1.05269 1.1502,3.13858 v 6.23817 h -1.774 v -1.3646 q -0.4679,0.72129 -1.3451,1.11118 -0.8578,0.37039 -2.0469,0.37039 -1.735,0 -2.7877,-0.83825 -1.0332,-0.83826 -1.0332,-2.20286 0,-1.3646 0.9942,-2.18336 0.9942,-0.83826 3.1581,-0.83826 h 2.9631 v -0.37039 q 0,-1.20865 -0.7018,-1.85196 -0.7018,-0.64331 -2.0664,-0.64331 -0.9162,0 -1.7934,0.31191 -0.8773,0.29241 -1.4816,0.79927 l -0.7798,-1.40359 q 0.7993,-0.64332 1.9105,-0.97472 1.1111,-0.3509 2.3588,-0.3509 z m -0.4289,9.10384 q 1.0722,0 1.852,-0.46786 0.7797,-0.48736 1.1306,-1.3646 v -1.44258 h -2.8851 q -2.3783,0 -2.3783,1.59853 0,0.77977 0.6043,1.22814 0.6043,0.44837 1.6765,0.44837 z m 14.1334,0.72129 q -0.4094,0.3509 -1.0137,0.54584 -0.6044,0.17545 -1.2477,0.17545 -1.5595,0 -2.4173,-0.83825 -0.8577,-0.83826 -0.8577,-2.3978 v -5.67284 h -1.7545 v -1.54005 h 1.7545 v -2.26134 h 1.8714 v 2.26134 h 2.9632 v 1.54005 h -2.9632 v 5.59486 q 0,0.83825 0.4094,1.28662 0.4289,0.44837 1.2087,0.44837 0.8577,0 1.462,-0.48736 z m 7.8171,0 q -0.4093,0.3509 -1.0137,0.54584 -0.6043,0.17545 -1.2476,0.17545 -1.5595,0 -2.4173,-0.83825 -0.8577,-0.83826 -0.8577,-2.3978 v -5.67284 h -1.7545 v -1.54005 h 1.7545 v -2.26134 h 1.8714 v 2.26134 h 2.9632 v 1.54005 h -2.9632 v 5.59486 q 0,0.83825 0.4094,1.28662 0.4289,0.44837 1.2086,0.44837 0.8578,0 1.4621,-0.48736 z m 11.2483,-4.50318 q 0,0.21444 -0.039,0.56533 h -8.3826 q 0.1755,1.3646 1.1892,2.20286 1.0332,0.81876 2.5537,0.81876 1.852,0 2.9827,-1.24764 l 1.0332,1.20865 q -0.7018,0.81876 -1.7545,1.24764 -1.0332,0.42887 -2.3199,0.42887 -1.6375,0 -2.9046,-0.66281 -1.2671,-0.6823 -1.9689,-1.89094 -0.6823,-1.20865 -0.6823,-2.7292 0,-1.50107 0.6628,-2.70971 0.6823,-1.20865 1.8519,-1.87146 1.1892,-0.6823 2.6708,-0.6823 1.4815,0 2.6317,0.6823 1.1696,0.66281 1.813,1.87146 0.6628,1.20864 0.6628,2.76819 z m -5.1075,-3.74291 q -1.3452,0 -2.2614,0.81876 -0.8967,0.81876 -1.0527,2.14438 h 6.6281 q -0.156,-1.30612 -1.0722,-2.12488 -0.8967,-0.83826 -2.2418,-0.83826 z m 9.4937,0.25343 q 0.4873,-0.89674 1.4426,-1.3646 0.9552,-0.46787 2.3198,-0.46787 v 1.81297 q -0.156,-0.0195 -0.4289,-0.0195 -1.5206,0 -2.3978,0.91623 -0.8577,0.89674 -0.8577,2.57325 v 5.14649 h -1.8715 v -10.33197 h 1.7935 z m 13.8019,-1.73499 h 1.8325 l -5.01,11.36517 q -0.6628,1.57904 -1.5596,2.22235 -0.8772,0.64331 -2.1249,0.64331 -0.7602,0 -1.4815,-0.25342 -0.7018,-0.23393 -1.1697,-0.7018 l 0.7993,-1.40359 q 0.7992,0.76028 1.8519,0.76028 0.6823,0 1.1307,-0.37039 0.4679,-0.3509 0.8383,-1.22814 l 0.3314,-0.72129 -4.5617,-10.31248 h 1.9494 l 3.6065,8.26558 z m 11.7941,10.44894 q -1.2672,0 -2.4368,-0.3314 -1.1697,-0.3509 -1.8325,-0.87725 l 0.7798,-1.48156 q 0.6823,0.48735 1.657,0.77977 0.9747,0.29241 1.9689,0.29241 2.4563,0 2.4563,-1.40359 0,-0.46786 -0.3314,-0.74078 -0.3314,-0.27292 -0.8383,-0.38989 -0.4873,-0.13646 -1.4035,-0.29241 -1.2477,-0.19494 -2.0469,-0.44837 -0.7798,-0.25342 -1.3451,-0.85775 -0.5654,-0.60432 -0.5654,-1.696 0,-1.40359 1.1697,-2.24185 1.1696,-0.85775 3.1386,-0.85775 1.0332,0 2.0664,0.25343 1.0331,0.25343 1.696,0.6823 l -0.7993,1.48157 q -1.2671,-0.81876 -2.9826,-0.81876 -1.1892,0 -1.813,0.38988 -0.6238,0.38989 -0.6238,1.0332 0,0.50685 0.3509,0.79927 0.3509,0.29241 0.8577,0.42887 0.5264,0.13646 1.4621,0.31191 1.2476,0.21444 2.0079,0.46786 0.7798,0.23394 1.3256,0.81876 0.5459,0.58483 0.5459,1.63753 0,1.40358 -1.2087,2.24184 -1.1891,0.81876 -3.2555,0.81876 z m 12.6128,-0.72129 q -0.4094,0.3509 -1.0137,0.54584 -0.6044,0.17545 -1.2477,0.17545 -1.5595,0 -2.4173,-0.83825 -0.8577,-0.83826 -0.8577,-2.3978 v -5.67284 h -1.7545 v -1.54005 h 1.7545 v -2.26134 h 1.8714 v 2.26134 h 2.9632 v 1.54005 h -2.9632 v 5.59486 q 0,0.83825 0.4094,1.28662 0.4289,0.44837 1.2087,0.44837 0.8577,0 1.462,-0.48736 z m 6.0237,-9.82513 q 2.1444,0 3.275,1.0527 1.1502,1.05269 1.1502,3.13858 v 6.23817 h -1.774 v -1.3646 q -0.4678,0.72129 -1.3451,1.11118 -0.8577,0.37039 -2.0469,0.37039 -1.735,0 -2.7877,-0.83825 -1.0332,-0.83826 -1.0332,-2.20286 0,-1.3646 0.9942,-2.18336 0.9942,-0.83826 3.1581,-0.83826 h 2.9631 v -0.37039 q 0,-1.20865 -0.7017,-1.85196 -0.7018,-0.64331 -2.0664,-0.64331 -0.9163,0 -1.7935,0.31191 -0.8773,0.29241 -1.4816,0.79927 l -0.7798,-1.40359 q 0.7993,-0.64332 1.9105,-0.97472 1.1112,-0.3509 2.3588,-0.3509 z m -0.4289,9.10384 q 1.0722,0 1.852,-0.46786 0.7798,-0.48736 1.1306,-1.3646 v -1.44258 h -2.8851 q -2.3783,0 -2.3783,1.59853 0,0.77977 0.6043,1.22814 0.6043,0.44837 1.6765,0.44837 z m 13.802,-9.10384 q 1.501,0 2.6902,0.66281 1.1891,0.66281 1.8519,1.85196 0.6823,1.18915 0.6823,2.7487 0,1.55954 -0.6823,2.76819 -0.6628,1.18915 -1.8519,1.85195 -1.1892,0.66281 -2.6902,0.66281 -1.1112,0 -2.0469,-0.42887 -0.9163,-0.42888 -1.5596,-1.24764 v 5.34144 h -1.8714 v -14.11387 h 1.7934 v 1.63752 q 0.6239,-0.85775 1.5791,-1.28663 0.9552,-0.44837 2.1054,-0.44837 z m -0.156,8.9089 q 0.9942,0 1.774,-0.44837 0.7993,-0.46786 1.2476,-1.28662 0.4679,-0.83826 0.4679,-1.91044 0,-1.07219 -0.4679,-1.89095 -0.4483,-0.83826 -1.2476,-1.28663 -0.7798,-0.44836 -1.774,-0.44836 -0.9747,0 -1.774,0.46786 -0.7797,0.44837 -1.2476,1.26713 -0.4484,0.81876 -0.4484,1.89095 0,1.07218 0.4484,1.91044 0.4484,0.81876 1.2476,1.28662 0.7993,0.44837 1.774,0.44837 z m 9.8446,1.52055 h -1.8714 v -14.46477 h 1.8714 z m 12.9053,-5.1075 q 0,0.21444 -0.039,0.56533 h -8.3826 q 0.1755,1.3646 1.1892,2.20286 1.0332,0.81876 2.5537,0.81876 1.852,0 2.9826,-1.24764 l 1.0332,1.20865 q -0.7017,0.81876 -1.7544,1.24764 -1.0332,0.42887 -2.3199,0.42887 -1.6375,0 -2.9046,-0.66281 -1.2671,-0.6823 -1.9689,-1.89094 -0.6823,-1.20865 -0.6823,-2.7292 0,-1.50107 0.6628,-2.70971 0.6823,-1.20865 1.8519,-1.87146 1.1892,-0.6823 2.6707,-0.6823 1.4816,0 2.6318,0.6823 1.1696,0.66281 1.8129,1.87146 0.6629,1.20864 0.6629,2.76819 z m -5.1076,-3.74291 q -1.3451,0 -2.2613,0.81876 -0.8967,0.81876 -1.0527,2.14438 h 6.6281 q -0.156,-1.30612 -1.0722,-2.12488 -0.8967,-0.83826 -2.2419,-0.83826 z"
             id="text11-2-0-1"
             transform="matrix(0.82075467,0,0,0.82075467,1680.0686,-332.08239)"
             aria-label="correct horse battery staple" /></g><path
           style="font-weight:500;font-size:18.6667px;font-family:Montserrat;-inkscape-font-specification:'Montserrat Medium';font-variation-settings:'wght' 500;fill:#3e4349;stroke-width:1.7;stroke-linecap:round;stroke-linejoin:round;paint-order:markers fill stroke"
           d="m 2475.2218,-135.44414 q 2.5387,0 3.9947,1.21334 1.456,1.21333 1.456,3.34134 0,2.128 -1.456,3.34133 -1.456,1.21334 -3.9947,1.21334 h -3.2294 v 3.95734 h -1.8666 v -13.06669 z m -0.056,7.48535 q 1.7733,0 2.7067,-0.74667 0.9333,-0.76534 0.9333,-2.184 0,-1.41867 -0.9333,-2.16534 -0.9334,-0.76534 -2.7067,-0.76534 h -3.1734 v 5.86135 z m 11.4987,-4.40534 q 2.0533,0 3.136,1.008 1.1013,1.008 1.1013,3.00534 v 5.97334 h -1.6986 v -1.30667 q -0.448,0.69067 -1.288,1.064 -0.8214,0.35467 -1.96,0.35467 -1.6614,0 -2.6694,-0.80267 -0.9893,-0.80267 -0.9893,-2.10933 0,-1.30667 0.952,-2.09067 0.952,-0.80267 3.024,-0.80267 h 2.8373 v -0.35467 q 0,-1.15734 -0.672,-1.77334 -0.672,-0.616 -1.9786,-0.616 -0.8774,0 -1.7174,0.29867 -0.84,0.28 -1.4187,0.76533 l -0.7466,-1.344 q 0.7653,-0.616 1.8293,-0.93333 1.064,-0.336 2.2587,-0.336 z m -0.4107,8.71735 q 1.0267,0 1.7734,-0.44801 0.7466,-0.46666 1.0826,-1.30666 v -1.38134 h -2.7626 q -2.2774,0 -2.2774,1.53067 0,0.74667 0.5787,1.176 0.5786,0.42934 1.6053,0.42934 z m 10.808,1.38133 q -1.2133,0 -2.3333,-0.31733 -1.12,-0.336 -1.7547,-0.84 l 0.7467,-1.41867 q 0.6533,0.46666 1.5867,0.74666 0.9333,0.28001 1.8853,0.28001 2.352,0 2.352,-1.34401 0,-0.448 -0.3173,-0.70933 -0.3174,-0.26134 -0.8027,-0.37334 -0.4667,-0.13066 -1.344,-0.28 -1.1947,-0.18666 -1.96,-0.42933 -0.7467,-0.24267 -1.288,-0.82134 -0.5413,-0.57866 -0.5413,-1.624 0,-1.344 1.12,-2.14667 1.12,-0.82133 3.0053,-0.82133 0.9893,0 1.9787,0.24266 0.9893,0.24267 1.624,0.65334 l -0.7654,1.41867 q -1.2133,-0.784 -2.856,-0.784 -1.1386,0 -1.736,0.37333 -0.5973,0.37333 -0.5973,0.98933 0,0.48534 0.336,0.76534 0.336,0.28 0.8213,0.41067 0.504,0.13066 1.4,0.29866 1.1947,0.20534 1.9227,0.448 0.7467,0.22401 1.2693,0.78401 0.5227,0.56 0.5227,1.568 0,1.344 -1.1573,2.14667 -1.1387,0.784 -3.1174,0.784 z m 9.352,0 q -1.2133,0 -2.3333,-0.31733 -1.12,-0.336 -1.7547,-0.84 l 0.7467,-1.41867 q 0.6533,0.46666 1.5867,0.74666 0.9333,0.28001 1.8853,0.28001 2.352,0 2.352,-1.34401 0,-0.448 -0.3173,-0.70933 -0.3174,-0.26134 -0.8027,-0.37334 -0.4667,-0.13066 -1.344,-0.28 -1.1947,-0.18666 -1.96,-0.42933 -0.7467,-0.24267 -1.288,-0.82134 -0.5413,-0.57866 -0.5413,-1.624 0,-1.344 1.12,-2.14667 1.12,-0.82133 3.0053,-0.82133 0.9893,0 1.9787,0.24266 0.9893,0.24267 1.624,0.65334 l -0.7654,1.41867 q -1.2133,-0.784 -2.856,-0.784 -1.1386,0 -1.736,0.37333 -0.5973,0.37333 -0.5973,0.98933 0,0.48534 0.336,0.76534 0.336,0.28 0.8213,0.41067 0.504,0.13066 1.4,0.29866 1.1947,0.20534 1.9227,0.448 0.7467,0.22401 1.2693,0.78401 0.5227,0.56 0.5227,1.568 0,1.344 -1.1573,2.14667 -1.1387,0.784 -3.1174,0.784 z m 11.76,-10.09868 q 1.4374,0 2.5761,0.63466 1.1386,0.63467 1.7733,1.77334 0.6533,1.13867 0.6533,2.63201 0,1.49333 -0.6533,2.65067 -0.6347,1.13867 -1.7733,1.77333 -1.1387,0.63467 -2.5761,0.63467 -1.064,0 -1.96,-0.41067 -0.8773,-0.41066 -1.4933,-1.19467 v 5.11468 h -1.792 v -13.51469 h 1.7173 v 1.568 q 0.5974,-0.82133 1.512,-1.232 0.9147,-0.42933 2.016,-0.42933 z m -0.1493,8.53068 q 0.952,0 1.6987,-0.42934 0.7653,-0.448 1.1947,-1.232 0.448,-0.80267 0.448,-1.82933 0,-1.02667 -0.448,-1.81067 -0.4294,-0.80267 -1.1947,-1.23201 -0.7467,-0.42933 -1.6987,-0.42933 -0.9333,0 -1.6987,0.448 -0.7466,0.42933 -1.1946,1.21334 -0.4294,0.784 -0.4294,1.81067 0,1.02666 0.4294,1.82933 0.4293,0.784 1.1946,1.232 0.7654,0.42934 1.6987,0.42934 z m 12.9174,-8.53068 q 1.8853,0 2.9866,1.10133 1.12,1.08267 1.12,3.19201 v 5.69334 h -1.792 v -5.48801 q 0,-1.43733 -0.6906,-2.16534 -0.6907,-0.728 -1.9787,-0.728 -1.456,0 -2.296,0.85867 -0.84,0.84 -0.84,2.42667 v 5.09601 h -1.792 v -13.85069 h 1.792 v 5.35734 q 0.56,-0.70933 1.456,-1.10133 0.9147,-0.392 2.0347,-0.392 z m 9.1466,1.75467 q 0.4667,-0.85867 1.3814,-1.30667 0.9146,-0.448 2.2213,-0.448 v 1.736 q -0.1493,-0.0187 -0.4107,-0.0187 -1.456,0 -2.296,0.87734 -0.8213,0.85867 -0.8213,2.464 v 4.92801 h -1.792 v -9.89335 h 1.7173 z m 8.6801,-1.75467 q 2.0533,0 3.136,1.008 1.1013,1.008 1.1013,3.00534 v 5.97334 h -1.6987 v -1.30667 q -0.448,0.69067 -1.288,1.064 -0.8213,0.35467 -1.96,0.35467 -1.6613,0 -2.6693,-0.80267 -0.9894,-0.80267 -0.9894,-2.10933 0,-1.30667 0.952,-2.09067 0.952,-0.80267 3.0241,-0.80267 h 2.8373 v -0.35467 q 0,-1.15734 -0.672,-1.77334 -0.672,-0.616 -1.9787,-0.616 -0.8773,0 -1.7173,0.29867 -0.84,0.28 -1.4187,0.76533 l -0.7467,-1.344 q 0.7654,-0.616 1.8294,-0.93333 1.064,-0.336 2.2587,-0.336 z m -0.4107,8.71735 q 1.0267,0 1.7733,-0.44801 0.7467,-0.46666 1.0827,-1.30666 v -1.38134 h -2.7627 q -2.2773,0 -2.2773,1.53067 0,0.74667 0.5786,1.176 0.5787,0.42934 1.6054,0.42934 z m 10.808,1.38133 q -1.2133,0 -2.3333,-0.31733 -1.12,-0.336 -1.7547,-0.84 l 0.7467,-1.41867 q 0.6533,0.46666 1.5866,0.74666 0.9334,0.28001 1.8854,0.28001 2.352,0 2.352,-1.34401 0,-0.448 -0.3174,-0.70933 -0.3173,-0.26134 -0.8026,-0.37334 -0.4667,-0.13066 -1.344,-0.28 -1.1947,-0.18666 -1.96,-0.42933 -0.7467,-0.24267 -1.288,-0.82134 -0.5414,-0.57866 -0.5414,-1.624 0,-1.344 1.12,-2.14667 1.12,-0.82133 3.0054,-0.82133 0.9893,0 1.9786,0.24266 0.9894,0.24267 1.624,0.65334 l -0.7653,1.41867 q -1.2133,-0.784 -2.856,-0.784 -1.1387,0 -1.736,0.37333 -0.5973,0.37333 -0.5973,0.98933 0,0.48534 0.336,0.76534 0.336,0.28 0.8213,0.41067 0.504,0.13066 1.4,0.29866 1.1947,0.20534 1.9227,0.448 0.7466,0.22401 1.2693,0.78401 0.5227,0.56 0.5227,1.568 0,1.344 -1.1574,2.14667 -1.1386,0.784 -3.1173,0.784 z m 15.456,-5.00267 q 0,0.20533 -0.037,0.54133 h -8.0267 q 0.168,1.30667 1.1387,2.10934 0.9893,0.784 2.4453,0.784 1.7733,0 2.856,-1.19467 l 0.9893,1.15733 q -0.672,0.78401 -1.68,1.19467 -0.9893,0.41067 -2.2213,0.41067 -1.568,0 -2.7813,-0.63467 -1.2134,-0.65333 -1.8854,-1.81067 -0.6533,-1.15733 -0.6533,-2.61333 0,-1.43734 0.6347,-2.59468 0.6533,-1.15733 1.7733,-1.792 1.1387,-0.65333 2.5573,-0.65333 1.4187,0 2.52,0.65333 1.12,0.63467 1.736,1.792 0.6347,1.15734 0.6347,2.65068 z m -4.8907,-3.58401 q -1.288,0 -2.1653,0.784 -0.8587,0.784 -1.008,2.05334 h 6.3467 q -0.1494,-1.25067 -1.0267,-2.03467 -0.8587,-0.80267 -2.1467,-0.80267 z"
           id="text11-2-8-02-9-9"
           transform="scale(0.98944431,1.0106683)"
           aria-label="Passphrase" /><path
           style="display:inline;fill:none;fill-opacity:1;stroke:#baa600;stroke-width:1.4;stroke-linecap:butt;stroke-linejoin:miter;stroke-dasharray:2.8, 2.8;stroke-dashoffset:0;stroke-opacity:1;marker-start:url(#Square-1);paint-order:fill markers stroke"
           d="m 2412.1498,-185.83489 -0.03,56.857 28.4016,0.276"
           id="path252-4" /></g><path
         id="path1-19"
         style="color:#000000;fill:#baa600;fill-opacity:1;stroke:#baa600;stroke-width:1.579;stroke-linecap:round;stroke-dasharray:none;stroke-opacity:1"
         d="m 51.039502,477.193 c -7.204445,0 -13.087357,5.88404 -13.087358,13.08848 v 52.2623 c 1e-6,7.20445 5.882913,13.08736 13.087358,13.08736 h 35.760795 c 7.204443,0 13.087357,-5.88291 13.087357,-13.08736 v -10.4133 h 89.613036 c 2.70413,0 4.93846,-2.23546 4.93846,-4.93959 V 505.8856 c 0,-2.70412 -2.23433,-4.93958 -4.93846,-4.93959 h -23.09553 c -22.1765,0 -44.34846,0.0361 -66.517506,0 v -10.66453 c 0,-7.20444 -5.882914,-13.08848 -13.087357,-13.08848 z m 0,4.00033 h 35.760795 c 5.042684,0 9.087026,4.04547 9.087026,9.08815 v 10.66453 c -0.05354,-1.1e-4 -0.107136,1.2e-4 -0.16069,0 h -0.0023 -2.886799 c -1.10426,2.2e-4 -1.999382,0.89535 -1.999598,1.99961 -3.97e-4,1.10469 0.894904,2.0005 1.999598,2.00072 h 2.88454 c 0.722102,0.002 1.443852,-0.001 2.165948,0 22.842678,0.0422 45.682308,0 68.517098,0 h 23.09554 c 0.54237,0 0.93813,0.39689 0.93813,0.93926 v 21.30529 c 0,0.54237 -0.39576,0.93926 -0.93813,0.93926 h -93.778586 -2.88454 c -1.104256,2.2e-4 -1.999377,0.89534 -1.999598,1.9996 -4.03e-4,1.1047 0.8949,2.00051 1.999598,2.00073 h 2.88454 0.165215 v 10.4133 c 0,5.04269 -4.044342,9.08703 -9.087026,9.08703 H 51.039502 c -5.042687,0 -9.088159,-4.04434 -9.08816,-9.08703 v -52.2623 c 1e-6,-5.04268 4.045473,-9.08815 9.08816,-9.08815 z m 7.201725,22.3894 -3.793241,0.0588 c -3.771996,0.0586 -6.839599,3.17466 -6.839601,6.9471 v 11.85728 c 2e-6,3.76993 3.132358,6.85399 6.901841,6.79546 l 3.793241,-0.0588 c 3.771997,-0.0586 6.839601,-3.17352 6.839601,-6.94598 v -11.8584 c 0,-3.76994 -3.132355,-6.85399 -6.901841,-6.79546 z m 0.06224,3.99919 c 1.586041,-0.0246 2.839272,1.21004 2.839271,2.79627 v 11.8584 c 10e-7,1.63266 -1.269056,2.92143 -2.901511,2.94678 l -3.793241,0.0589 c -1.58604,0.0246 -2.839271,-1.21005 -2.839272,-2.79627 v -11.85728 c 10e-7,-1.63264 1.269058,-2.92256 2.901512,-2.9479 z m 55.819583,12.338 c -0.9398,-6.5e-4 -1.70182,0.76137 -1.70117,1.70117 4.3e-4,0.93904 0.76213,1.69987 1.70117,1.69922 h 66.95703 l 0.0117,0.0117 0.30664,-0.0117 0.0605,-0.002 c 2.20129,-0.10155 2.14301,-3.3753 -0.0605,-3.39844 z m -5.8e-4,1.70046 h 67.27526 l -0.36681,0.0131 m 2.05861,-12.78027 c 0,1.08537 -0.87987,1.96525 -1.96524,1.96525 -1.08537,0 -1.96524,-0.87988 -1.96524,-1.96525 -1e-5,-1.08538 0.87986,-1.96526 1.96524,-1.96526 1.08538,0 1.96525,0.87988 1.96524,1.96526 z m -5.63244,-0.20402 c 1e-5,1.08538 -0.87986,1.96526 -1.96524,1.96526 -1.08538,0 -1.96526,-0.87988 -1.96525,-1.96526 0,-1.08538 0.87987,-1.96525 1.96525,-1.96525 1.08537,0 1.96524,0.87988 1.96524,1.96525 z m -9.4709,0.31604 c 0,1.08537 -0.87987,1.96525 -1.96524,1.96525 -1.08538,0 -1.96525,-0.87987 -1.96525,-1.96525 0,-1.08537 0.87988,-1.96524 1.96525,-1.96524 1.08537,0 1.96524,0.87987 1.96524,1.96524 z m -14.46839,-0.11202 c 0,1.08538 -0.87988,1.96526 -1.96526,1.96525 -1.08538,0 -1.96525,-0.87987 -1.96525,-1.96525 -1e-5,-1.08538 0.87987,-1.96526 1.96525,-1.96526 1.08539,-10e-6 1.96527,0.87987 1.96526,1.96526 z m -5.47797,0.0873 c 0,1.08538 -0.87987,1.96525 -1.96525,1.96525 -1.08538,0 -1.96525,-0.87987 -1.96525,-1.96525 0,-1.08538 0.87987,-1.96525 1.96525,-1.96525 1.08538,0 1.96525,0.87987 1.96525,1.96525 z"
         transform="matrix(0,0.7343272,-0.7343272,0,3291.4737,-331.03784)" /></g></g></svg>
