<?xml version="1.0" encoding="UTF-8" standalone="no"?>
<svg
   viewBox="0 0 659.70258 331.13059"
   version="1.1"
   id="svg1"
   width="659.70258"
   height="331.13058"
   xml:space="preserve"
   xmlns="http://www.w3.org/2000/svg"
   xmlns:svg="http://www.w3.org/2000/svg"><defs
     id="defs1"><linearGradient
       id="swatch251"><stop
         style="stop-color:#195962;stop-opacity:1;"
         offset="0"
         id="stop251" /></linearGradient><filter
       style="color-interpolation-filters:sRGB"
       id="filter90-4-61-8"
       x="-0.019571773"
       y="-0.023358992"
       width="1.0423216"
       height="1.0532066"><feFlood
         result="flood"
         in="SourceGraphic"
         flood-opacity="0.796078"
         flood-color="rgb(62,67,73)"
         id="feFlood89-4-0-2" /><feGaussianBlur
         result="blur"
         in="SourceGraphic"
         stdDeviation="2.132 0"
         id="feGaussianBlur89-4-4-6" /><feOffset
         result="offset"
         in="blur"
         dx="1.000000"
         dy="1.000000"
         id="feOffset89-4-2-0" /><feComposite
         result="comp1"
         operator="in"
         in="flood"
         in2="offset"
         id="feComposite89-7-2-6" /><feComposite
         result="fbSourceGraphic"
         operator="over"
         in="SourceGraphic"
         in2="comp1"
         id="feComposite90-6-20-6" /><feColorMatrix
         result="fbSourceGraphicAlpha"
         in="fbSourceGraphic"
         values="0 0 0 -1 0 0 0 0 -1 0 0 0 0 -1 0 0 0 0 1 0"
         id="feColorMatrix90-3-5-4" /><feFlood
         id="feFlood90-1-5-6"
         result="flood"
         in="fbSourceGraphic"
         flood-opacity="0.796078"
         flood-color="rgb(62,67,73)" /><feGaussianBlur
         id="feGaussianBlur90-7-2-2"
         result="blur"
         in="fbSourceGraphic"
         stdDeviation="3.000000" /><feOffset
         id="feOffset90-5-9-8"
         result="offset"
         in="blur"
         dx="1.000000"
         dy="1.000000" /><feComposite
         id="feComposite91-9-02-9"
         result="comp1"
         operator="in"
         in="flood"
         in2="offset" /><feComposite
         id="feComposite92-62-83-6"
         result="comp2"
         operator="over"
         in="fbSourceGraphic"
         in2="comp1" /></filter><marker
       style="overflow:visible"
       id="Square-1"
       refX="0"
       refY="0"
       orient="auto"
       markerWidth="1"
       markerHeight="1"
       viewBox="0 0 1 1"
       preserveAspectRatio="xMidYMid"><path
         transform="scale(0.5)"
         style="fill:context-stroke;fill-rule:evenodd;stroke:none"
         d="M -5,-5 V 5 H 5 V -5 Z"
         id="path18-6" /></marker></defs><!--! Font Awesome Pro 6.4.2 by @fontawesome - https://fontawesome.com License - https://fontawesome.com/license (Commercial License) Copyright 2023 Fonticons, Inc. --><g
     id="layer19"
     style="display:inline"
     transform="translate(-2359.6089,440.79508)"><g
       id="layer20"
       transform="translate(22.493125,-25.8473)"
       style="display:inline"><rect
         style="opacity:1;fill:#ffffff;fill-opacity:1;fill-rule:nonzero;stroke-width:0.986;stroke-dasharray:1.97201, 1.97201;stroke-dashoffset:0;paint-order:fill markers stroke;filter:url(#filter90-4-61-8)"
         id="rect81"
         width="629.31445"
         height="308.23248"
         x="2378.7219"
         y="-367.28116"
         ry="28.196222"
         rx="26.536793"
         transform="matrix(0.92535609,0,0,0.87089619,184.14854,-53.633558)" /><g
         id="g11-8-3-1-1-7"
         transform="matrix(0.86376245,0,0,0.86376245,1642.2321,-531.68174)"
         style="display:inline;fill:#61a78d;fill-opacity:1"><rect
           style="font-variation-settings:'wght' 700;fill:#195962;stroke-width:2.44985;stroke-linecap:round;stroke-linejoin:round;paint-order:markers fill stroke"
           id="rect1-9-8-2-5-4"
           width="312.94656"
           height="59.990269"
           x="920.04065"
           y="155.65892" /><g
           id="g4-7-0-4-5-0"
           transform="translate(-11.145477,39.927363)"><rect
             style="font-variation-settings:'wght' 700;fill:#e6e6e6;fill-opacity:1;stroke-width:2.40363;stroke-linecap:round;stroke-linejoin:round;paint-order:markers fill stroke"
             id="rect1-3-7-5-7-4-6"
             width="312.19806"
             height="57.886284"
             x="920.89868"
             y="126.45267" /><g
             id="text1-6-6-3-4"
             style="font-weight:600;font-size:24px;font-family:Montserrat;-inkscape-font-specification:'Montserrat, Semi-Bold';white-space:pre;inline-size:349.039;fill:#3e4349;stroke-width:3.5;stroke-linecap:round;stroke-linejoin:round;paint-order:markers fill stroke"
             transform="matrix(0.85813569,0,0,0.85813569,124.25758,13.145897)"
             aria-label="Converting a passphrase into a symmetric key"><path
               d="m 970.32422,157.42773 q -1.24219,0.64454 -2.58985,0.97266 -1.34765,0.32813 -2.8125,0.32813 -4.37109,0 -6.92578,-2.4375 -2.55468,-2.44922 -2.55468,-6.63282 0,-4.19531 2.55468,-6.63281 2.55469,-2.44922 6.92578,-2.44922 1.46485,0 2.8125,0.32813 1.34766,0.32812 2.58985,0.97265 v 3.6211 q -1.25391,-0.85547 -2.47266,-1.25391 -1.21875,-0.39844 -2.5664,-0.39844 -2.41407,0 -3.79688,1.54688 -1.38281,1.54687 -1.38281,4.26562 0,2.70703 1.38281,4.25391 1.38281,1.54687 3.79688,1.54687 1.34765,0 2.5664,-0.39843 1.21875,-0.39844 2.47266,-1.25391 z m 9.79687,-9.48046 q -1.39453,0 -2.13281,1.00781 -0.72656,0.99609 -0.72656,2.88281 0,1.88672 0.72656,2.89453 0.73828,0.9961 2.13281,0.9961 1.3711,0 2.09766,-0.9961 0.72656,-1.00781 0.72656,-2.89453 0,-1.88672 -0.72656,-2.88281 -0.72656,-1.00781 -2.09766,-1.00781 z m 0,-3 q 3.38672,0 5.28516,1.82812 1.91016,1.82813 1.91016,5.0625 0,3.23438 -1.91016,5.0625 -1.89844,1.82813 -5.28516,1.82813 -3.39843,0 -5.32031,-1.82813 -1.91016,-1.82812 -1.91016,-5.0625 0,-3.23437 1.91016,-5.0625 1.92188,-1.82812 5.32031,-1.82812 z m 23.43751,5.44921 v 7.99219 h -4.21876 v -1.30078 -4.81641 q 0,-1.69921 -0.082,-2.34375 -0.0703,-0.64453 -0.25781,-0.94921 -0.24609,-0.41016 -0.66797,-0.63282 -0.42187,-0.23437 -0.96094,-0.23437 -1.3125,0 -2.0625,1.01953 -0.75,1.00781 -0.75,2.80078 v 6.45703 h -4.19531 v -13.125 h 4.19531 v 1.92188 q 0.94922,-1.14844 2.01563,-1.6875 1.0664,-0.55078 2.35547,-0.55078 2.27341,0 3.44531,1.39453 1.1836,1.39453 1.1836,4.05468 z m 2.2383,-5.13281 h 4.1953 l 3.2695,9.07031 3.2578,-9.07031 h 4.2071 l -5.168,13.125 h -4.6055 z m 30.3984,6.52735 v 1.19531 h -9.8086 q 0.1524,1.47656 1.0664,2.21484 0.9141,0.73828 2.5547,0.73828 1.3242,0 2.707,-0.38672 1.3946,-0.39843 2.8594,-1.19531 v 3.23438 q -1.4883,0.5625 -2.9765,0.84375 -1.4883,0.29297 -2.9766,0.29297 -3.5625,0 -5.543,-1.80469 -1.9687,-1.81641 -1.9687,-5.08594 0,-3.21094 1.9336,-5.05078 1.9453,-1.83984 5.3437,-1.83984 3.0938,0 4.9453,1.86328 1.8633,1.86328 1.8633,4.98047 z m -4.3125,-1.39454 q 0,-1.19531 -0.7031,-1.92187 -0.6914,-0.73828 -1.8164,-0.73828 -1.2188,0 -1.9805,0.6914 -0.7617,0.67969 -0.9492,1.96875 z m 17.2383,-1.55859 q -0.5508,-0.25781 -1.1016,-0.375 -0.539,-0.12891 -1.0898,-0.12891 -1.6172,0 -2.4961,1.04297 -0.8672,1.03125 -0.8672,2.96485 v 6.04687 h -4.1953 v -13.125 h 4.1953 v 2.15625 q 0.8086,-1.28906 1.8516,-1.875 1.0547,-0.59765 2.5195,-0.59765 0.2109,0 0.457,0.0234 0.2461,0.0117 0.7149,0.0703 z m 6.668,-7.30078 v 3.72656 h 4.3242 v 3 h -4.3242 v 5.56641 q 0,0.91406 0.3632,1.24219 0.3633,0.3164 1.4415,0.3164 h 2.1562 v 3 h -3.5977 q -2.4843,0 -3.5273,-1.03125 -1.0312,-1.04297 -1.0312,-3.52734 v -5.56641 h -2.086 v -3 h 2.086 v -3.72656 z m 6.8906,3.72656 h 4.1953 v 13.125 h -4.1953 z m 0,-5.10937 h 4.1953 v 3.42187 h -4.1953 z m 21.4219,10.24218 v 7.99219 h -4.2188 v -1.30078 -4.81641 q 0,-1.69921 -0.082,-2.34375 -0.07,-0.64453 -0.2578,-0.94921 -0.2461,-0.41016 -0.668,-0.63282 -0.4219,-0.23437 -0.9609,-0.23437 -1.3125,0 -2.0625,1.01953 -0.75,1.00781 -0.75,2.80078 v 6.45703 h -4.1953 v -13.125 h 4.1953 v 1.92188 q 0.9492,-1.14844 2.0156,-1.6875 1.0664,-0.55078 2.3555,-0.55078 2.2734,0 3.4453,1.39453 1.1836,1.39453 1.1836,4.05468 z m 12.8203,5.76563 q -0.8672,1.14844 -1.9102,1.6875 -1.0429,0.53906 -2.414,0.53906 -2.4024,0 -3.9727,-1.88672 -1.5703,-1.89843 -1.5703,-4.82812 0,-2.94141 1.5703,-4.81641 1.5703,-1.88672 3.9727,-1.88672 1.3711,0 2.414,0.53907 1.043,0.53906 1.9102,1.69921 v -1.94531 h 4.2187 v 11.80078 q 0,3.16407 -2.0039,4.82813 -1.9922,1.67578 -5.789,1.67578 -1.2305,0 -2.3789,-0.1875 -1.1485,-0.1875 -2.3086,-0.57422 v -3.26953 q 1.1015,0.63281 2.1562,0.9375 1.0547,0.31641 2.1211,0.31641 2.0625,0 3.0234,-0.90235 0.961,-0.90234 0.961,-2.82422 z m -2.7656,-8.16797 q -1.3008,0 -2.0274,0.96094 -0.7266,0.96094 -0.7266,2.71875 0,1.80469 0.7032,2.74219 0.7031,0.92578 2.0508,0.92578 1.3125,0 2.039,-0.96094 0.7266,-0.96094 0.7266,-2.70703 0,-1.75781 -0.7266,-2.71875 -0.7265,-0.96094 -2.039,-0.96094 z m 25.2539,4.48828 q -1.3125,0 -1.9805,0.44531 -0.6563,0.44532 -0.6563,1.3125 0,0.79688 0.5274,1.25391 0.539,0.44531 1.4883,0.44531 1.1836,0 1.9922,-0.84375 0.8085,-0.85547 0.8085,-2.13281 v -0.48047 z m 6.4101,-1.58203 v 7.48828 h -4.2305 v -1.94531 q -0.8437,1.19531 -1.8984,1.74609 -1.0547,0.53907 -2.5664,0.53907 -2.0391,0 -3.3164,-1.1836 -1.2656,-1.19531 -1.2656,-3.09375 0,-2.30859 1.582,-3.38672 1.5938,-1.07812 4.9922,-1.07812 h 2.4726 v -0.32813 q 0,-0.99609 -0.7851,-1.45312 -0.7852,-0.46875 -2.4492,-0.46875 -1.3477,0 -2.5078,0.26953 -1.1602,0.26953 -2.1563,0.80859 v -3.19922 q 1.3477,-0.32812 2.707,-0.49218 1.3594,-0.17578 2.7188,-0.17578 3.5508,0 5.1211,1.40625 1.582,1.39453 1.582,4.54687 z m 16.4531,5.58984 v 6.89063 h -4.1953 v -18.11719 h 4.1953 v 1.92188 q 0.8672,-1.14844 1.9219,-1.6875 1.0547,-0.55078 2.4258,-0.55078 2.4258,0 3.9844,1.93359 1.5586,1.92187 1.5586,4.95703 0,3.03516 -1.5586,4.96875 -1.5586,1.92188 -3.9844,1.92188 -1.3711,0 -2.4258,-0.53907 -1.0547,-0.55078 -1.9219,-1.69922 z m 2.7891,-8.49609 q -1.3477,0 -2.0742,0.99609 -0.7149,0.98438 -0.7149,2.84766 0,1.86328 0.7149,2.85938 0.7265,0.98437 2.0742,0.98437 1.3477,0 2.0508,-0.98437 0.7148,-0.98438 0.7148,-2.85938 0,-1.875 -0.7148,-2.85937 -0.7031,-0.98438 -2.0508,-0.98438 z m 16.0781,4.48828 q -1.3125,0 -1.9804,0.44531 -0.6563,0.44532 -0.6563,1.3125 0,0.79688 0.5274,1.25391 0.539,0.44531 1.4882,0.44531 1.1836,0 1.9922,-0.84375 0.8086,-0.85547 0.8086,-2.13281 v -0.48047 z m 6.4102,-1.58203 v 7.48828 h -4.2305 v -1.94531 q -0.8437,1.19531 -1.8984,1.74609 -1.0547,0.53907 -2.5664,0.53907 -2.0391,0 -3.3164,-1.1836 -1.2657,-1.19531 -1.2657,-3.09375 0,-2.30859 1.5821,-3.38672 1.5937,-1.07812 4.9922,-1.07812 h 2.4726 v -0.32813 q 0,-0.99609 -0.7851,-1.45312 -0.7852,-0.46875 -2.4493,-0.46875 -1.3476,0 -2.5078,0.26953 -1.1601,0.26953 -2.1562,0.80859 v -3.19922 q 1.3476,-0.32812 2.707,-0.49218 1.3594,-0.17578 2.7188,-0.17578 3.5507,0 5.1211,1.40625 1.582,1.39453 1.582,4.54687 z m 14.1562,-5.22656 v 3.1875 q -1.3476,-0.5625 -2.6015,-0.84375 -1.2539,-0.28125 -2.3672,-0.28125 -1.1953,0 -1.7813,0.30469 -0.5742,0.29296 -0.5742,0.91406 0,0.5039 0.4336,0.77344 0.4453,0.26953 1.582,0.39843 l 0.7383,0.10547 q 3.2227,0.41016 4.336,1.34766 1.1132,0.9375 1.1132,2.9414 0,2.09766 -1.5468,3.15235 -1.5469,1.05469 -4.6172,1.05469 -1.3008,0 -2.6953,-0.21094 -1.3828,-0.19922 -2.8477,-0.60938 v -3.1875 q 1.2539,0.60938 2.5664,0.91407 1.3242,0.30468 2.6836,0.30468 1.2305,0 1.8516,-0.33984 0.6211,-0.33984 0.6211,-1.00781 0,-0.5625 -0.4336,-0.83203 -0.4219,-0.28125 -1.6992,-0.4336 l -0.7383,-0.0937 q -2.8008,-0.35156 -3.9258,-1.30078 -1.125,-0.94922 -1.125,-2.88281 0,-2.08594 1.4297,-3.09375 1.4297,-1.00781 4.3828,-1.00781 1.1601,0 2.4375,0.17578 1.2773,0.17578 2.7773,0.55078 z m 14.2852,0 v 3.1875 q -1.3477,-0.5625 -2.6016,-0.84375 -1.2539,-0.28125 -2.3672,-0.28125 -1.1953,0 -1.7812,0.30469 -0.5742,0.29296 -0.5742,0.91406 0,0.5039 0.4336,0.77344 0.4453,0.26953 1.582,0.39843 l 0.7383,0.10547 q 3.2226,0.41016 4.3359,1.34766 1.1133,0.9375 1.1133,2.9414 0,2.09766 -1.5469,3.15235 -1.5469,1.05469 -4.6172,1.05469 -1.3007,0 -2.6953,-0.21094 -1.3828,-0.19922 -2.8476,-0.60938 v -3.1875 q 1.2539,0.60938 2.5664,0.91407 1.3242,0.30468 2.6836,0.30468 1.2304,0 1.8515,-0.33984 0.6211,-0.33984 0.6211,-1.00781 0,-0.5625 -0.4336,-0.83203 -0.4218,-0.28125 -1.6992,-0.4336 l -0.7383,-0.0937 q -2.8008,-0.35156 -3.9258,-1.30078 -1.125,-0.94922 -1.125,-2.88281 0,-2.08594 1.4297,-3.09375 1.4297,-1.00781 4.3828,-1.00781 1.1602,0 2.4375,0.17578 1.2774,0.17578 2.7774,0.55078 z m 8.2266,10.8164 v 6.89063 h -4.1954 v -18.11719 h 4.1954 v 1.92188 q 0.8671,-1.14844 1.9218,-1.6875 1.0547,-0.55078 2.4258,-0.55078 2.4258,0 3.9844,1.93359 1.5586,1.92187 1.5586,4.95703 0,3.03516 -1.5586,4.96875 -1.5586,1.92188 -3.9844,1.92188 -1.3711,0 -2.4258,-0.53907 -1.0547,-0.55078 -1.9218,-1.69922 z m 2.789,-8.49609 q -1.3476,0 -2.0742,0.99609 -0.7148,0.98438 -0.7148,2.84766 0,1.86328 0.7148,2.85938 0.7266,0.98437 2.0742,0.98437 1.3477,0 2.0508,-0.98437 0.7148,-0.98438 0.7148,-2.85938 0,-1.875 -0.7148,-2.85937 -0.7031,-0.98438 -2.0508,-0.98438 z m 23.3906,2.40234 v 7.99219 h -4.2187 v -1.30078 -4.79297 q 0,-1.72265 -0.082,-2.36719 -0.07,-0.64453 -0.2579,-0.94921 -0.246,-0.41016 -0.6679,-0.63282 -0.4219,-0.23437 -0.961,-0.23437 -1.3125,0 -2.0625,1.01953 -0.75,1.00781 -0.75,2.80078 v 6.45703 h -4.1953 V 140.1543 h 4.1953 v 7.03125 q 0.9493,-1.14844 2.0157,-1.6875 1.0664,-0.55078 2.3554,-0.55078 2.2735,0 3.4453,1.39453 1.1836,1.39453 1.1836,4.05468 z m 13.6407,-1.55859 q -0.5508,-0.25781 -1.1016,-0.375 -0.5391,-0.12891 -1.0898,-0.12891 -1.6172,0 -2.4961,1.04297 -0.8672,1.03125 -0.8672,2.96485 v 6.04687 h -4.1953 v -13.125 h 4.1953 v 2.15625 q 0.8086,-1.28906 1.8515,-1.875 1.0547,-0.59765 2.5196,-0.59765 0.2109,0 0.457,0.0234 0.2461,0.0117 0.7148,0.0703 z m 7.9687,3.64453 q -1.3125,0 -1.9805,0.44531 -0.6562,0.44532 -0.6562,1.3125 0,0.79688 0.5273,1.25391 0.5391,0.44531 1.4883,0.44531 1.1836,0 1.9922,-0.84375 0.8086,-0.85547 0.8086,-2.13281 v -0.48047 z m 6.4102,-1.58203 v 7.48828 h -4.2305 v -1.94531 q -0.8437,1.19531 -1.8984,1.74609 -1.0547,0.53907 -2.5664,0.53907 -2.0391,0 -3.3164,-1.1836 -1.2657,-1.19531 -1.2657,-3.09375 0,-2.30859 1.5821,-3.38672 1.5937,-1.07812 4.9921,-1.07812 h 2.4727 v -0.32813 q 0,-0.99609 -0.7852,-1.45312 -0.7851,-0.46875 -2.4492,-0.46875 -1.3476,0 -2.5078,0.26953 -1.1601,0.26953 -2.1562,0.80859 v -3.19922 q 1.3476,-0.32812 2.707,-0.49218 1.3594,-0.17578 2.7187,-0.17578 3.5508,0 5.1211,1.40625 1.5821,1.39453 1.5821,4.54687 z m 14.1562,-5.22656 v 3.1875 q -1.3476,-0.5625 -2.6015,-0.84375 -1.2539,-0.28125 -2.3672,-0.28125 -1.1953,0 -1.7813,0.30469 -0.5742,0.29296 -0.5742,0.91406 0,0.5039 0.4336,0.77344 0.4453,0.26953 1.582,0.39843 l 0.7383,0.10547 q 3.2227,0.41016 4.3359,1.34766 1.1133,0.9375 1.1133,2.9414 0,2.09766 -1.5468,3.15235 -1.5469,1.05469 -4.6172,1.05469 -1.3008,0 -2.6953,-0.21094 -1.3829,-0.19922 -2.8477,-0.60938 v -3.1875 q 1.2539,0.60938 2.5664,0.91407 1.3242,0.30468 2.6836,0.30468 1.2305,0 1.8516,-0.33984 0.6211,-0.33984 0.6211,-1.00781 0,-0.5625 -0.4336,-0.83203 -0.4219,-0.28125 -1.6993,-0.4336 l -0.7382,-0.0937 q -2.8008,-0.35156 -3.9258,-1.30078 -1.125,-0.94922 -1.125,-2.88281 0,-2.08594 1.4297,-3.09375 1.4297,-1.00781 4.3828,-1.00781 1.1601,0 2.4375,0.17578 1.2773,0.17578 2.7773,0.55078 z m 17.1328,6.11719 v 1.19531 h -9.8086 q 0.1524,1.47656 1.0664,2.21484 0.9141,0.73828 2.5547,0.73828 1.3243,0 2.7071,-0.38672 1.3945,-0.39843 2.8593,-1.19531 v 3.23438 q -1.4882,0.5625 -2.9765,0.84375 -1.4883,0.29297 -2.9766,0.29297 -3.5625,0 -5.543,-1.80469 -1.9687,-1.81641 -1.9687,-5.08594 0,-3.21094 1.9336,-5.05078 1.9453,-1.83984 5.3437,-1.83984 3.0938,0 4.9454,1.86328 1.8632,1.86328 1.8632,4.98047 z m -4.3125,-1.39454 q 0,-1.19531 -0.7031,-1.92187 -0.6914,-0.73828 -1.8164,-0.73828 -1.2187,0 -1.9805,0.6914 -0.7617,0.67969 -0.9492,1.96875 z"
               id="path1" /><path
               d="m 956.26172,175.26367 h 4.19531 v 13.125 h -4.19531 z m 0,-5.10937 h 4.19531 v 3.42187 h -4.19531 z m 21.42187,10.24218 v 7.99219 h -4.21875 v -1.30078 -4.81641 q 0,-1.69921 -0.082,-2.34375 -0.0703,-0.64453 -0.25781,-0.94921 -0.24609,-0.41016 -0.66797,-0.63282 -0.42187,-0.23437 -0.96094,-0.23437 -1.3125,0 -2.0625,1.01953 -0.75,1.00781 -0.75,2.80078 v 6.45703 h -4.19531 v -13.125 h 4.19531 v 1.92188 q 0.94922,-1.14844 2.01563,-1.6875 1.0664,-0.55078 2.35547,-0.55078 2.27343,0 3.44531,1.39453 1.18359,1.39453 1.18359,4.05468 z m 8.47266,-8.85937 v 3.72656 h 4.32422 v 3 h -4.32422 v 5.56641 q 0,0.91406 0.36328,1.24219 0.36328,0.3164 1.44141,0.3164 h 2.15625 v 3 h -3.59766 q -2.48437,0 -3.52734,-1.03125 -1.03125,-1.04297 -1.03125,-3.52734 v -5.56641 H 979.875 v -3 h 2.08594 v -3.72656 z m 13.13672,6.41016 q -1.39453,0 -2.13281,1.00781 -0.72657,0.99609 -0.72657,2.88281 0,1.88672 0.72657,2.89453 0.73828,0.9961 2.13281,0.9961 1.37113,0 2.09763,-0.9961 0.7266,-1.00781 0.7266,-2.89453 0,-1.88672 -0.7266,-2.88281 -0.7265,-1.00781 -2.09763,-1.00781 z m 0,-3 q 3.38673,0 5.28513,1.82812 1.9102,1.82813 1.9102,5.0625 0,3.23438 -1.9102,5.0625 -1.8984,1.82813 -5.28513,1.82813 -3.39844,0 -5.32031,-1.82813 -1.91016,-1.82812 -1.91016,-5.0625 0,-3.23437 1.91016,-5.0625 1.92187,-1.82812 5.32031,-1.82812 z m 24.48043,7.53515 q -1.3125,0 -1.9804,0.44531 -0.6563,0.44532 -0.6563,1.3125 0,0.79688 0.5274,1.25391 0.539,0.44531 1.4882,0.44531 1.1836,0 1.9922,-0.84375 0.8086,-0.85547 0.8086,-2.13281 v -0.48047 z m 6.4102,-1.58203 v 7.48828 h -4.2305 v -1.94531 q -0.8437,1.19531 -1.8984,1.74609 -1.0547,0.53907 -2.5664,0.53907 -2.0391,0 -3.3164,-1.1836 -1.2657,-1.19531 -1.2657,-3.09375 0,-2.30859 1.5821,-3.38672 1.5937,-1.07812 4.9922,-1.07812 h 2.4726 v -0.32813 q 0,-0.99609 -0.7851,-1.45312 -0.7852,-0.46875 -2.4493,-0.46875 -1.3476,0 -2.5078,0.26953 -1.1601,0.26953 -2.1562,0.80859 v -3.19922 q 1.3476,-0.32812 2.707,-0.49218 1.3594,-0.17578 2.7188,-0.17578 3.5508,0 5.1211,1.40625 1.582,1.39453 1.582,4.54687 z m 22.5117,-5.22656 v 3.1875 q -1.3476,-0.5625 -2.6015,-0.84375 -1.254,-0.28125 -2.3672,-0.28125 -1.1953,0 -1.7813,0.30469 -0.5742,0.29296 -0.5742,0.91406 0,0.5039 0.4336,0.77344 0.4453,0.26953 1.582,0.39843 l 0.7383,0.10547 q 3.2227,0.41016 4.3359,1.34766 1.1133,0.9375 1.1133,2.9414 0,2.09766 -1.5469,3.15235 -1.5468,1.05469 -4.6171,1.05469 -1.3008,0 -2.6954,-0.21094 -1.3828,-0.19922 -2.8476,-0.60938 v -3.1875 q 1.2539,0.60938 2.5664,0.91407 1.3242,0.30468 2.6836,0.30468 1.2305,0 1.8516,-0.33984 0.621,-0.33984 0.621,-1.00781 0,-0.5625 -0.4335,-0.83203 -0.4219,-0.28125 -1.6993,-0.4336 l -0.7382,-0.0937 q -2.8008,-0.35156 -3.9258,-1.30078 -1.125,-0.94922 -1.125,-2.88281 0,-2.08594 1.4297,-3.09375 1.4296,-1.00781 4.3828,-1.00781 1.1601,0 2.4375,0.17578 1.2773,0.17578 2.7773,0.55078 z m 2.3086,-0.41016 h 4.1953 l 3.5274,8.90625 3,-8.90625 h 4.1953 l -5.5196,14.36719 q -0.832,2.19141 -1.9453,3.05859 -1.1015,0.87891 -2.9179,0.87891 h -2.4258 v -2.75391 h 1.3125 q 1.0664,0 1.5469,-0.33984 0.4921,-0.33984 0.7617,-1.21875 l 0.1172,-0.36328 z m 29.5313,2.17969 q 0.7968,-1.21875 1.8867,-1.85156 1.1015,-0.64453 2.414,-0.64453 2.2618,0 3.4454,1.39453 1.1835,1.39453 1.1835,4.05468 v 7.99219 h -4.2187 v -6.84375 q 0.012,-0.15234 0.012,-0.3164 0.012,-0.16407 0.012,-0.46875 0,-1.39454 -0.4101,-2.01563 -0.4102,-0.63281 -1.3242,-0.63281 -1.1954,0 -1.8516,0.98437 -0.6445,0.98438 -0.668,2.84766 v 6.44531 h -4.2187 v -6.84375 q 0,-2.17969 -0.375,-2.80078 -0.375,-0.63281 -1.336,-0.63281 -1.207,0 -1.8632,0.99609 -0.6563,0.98438 -0.6563,2.82422 v 6.45703 h -4.2187 v -13.125 h 4.2187 v 1.92188 q 0.7734,-1.11328 1.7695,-1.67578 1.0079,-0.5625 2.2149,-0.5625 1.3594,0 2.4023,0.65625 1.043,0.65625 1.5821,1.83984 z m 25.0078,0 q 0.7968,-1.21875 1.8867,-1.85156 1.1016,-0.64453 2.4141,-0.64453 2.2617,0 3.4453,1.39453 1.1836,1.39453 1.1836,4.05468 v 7.99219 h -4.2188 v -6.84375 q 0.012,-0.15234 0.012,-0.3164 0.012,-0.16407 0.012,-0.46875 0,-1.39454 -0.4101,-2.01563 -0.4102,-0.63281 -1.3242,-0.63281 -1.1953,0 -1.8516,0.98437 -0.6445,0.98438 -0.668,2.84766 v 6.44531 h -4.2187 v -6.84375 q 0,-2.17969 -0.375,-2.80078 -0.375,-0.63281 -1.3359,-0.63281 -1.2071,0 -1.8633,0.99609 -0.6563,0.98438 -0.6563,2.82422 v 6.45703 h -4.2187 v -13.125 h 4.2187 v 1.92188 q 0.7735,-1.11328 1.7696,-1.67578 1.0078,-0.5625 2.2148,-0.5625 1.3594,0 2.4023,0.65625 1.043,0.65625 1.5821,1.83984 z m 25.9453,4.34766 v 1.19531 h -9.8086 q 0.1523,1.47656 1.0664,2.21484 0.9141,0.73828 2.5547,0.73828 1.3242,0 2.707,-0.38672 1.3945,-0.39843 2.8594,-1.19531 v 3.23438 q -1.4883,0.5625 -2.9766,0.84375 -1.4883,0.29297 -2.9765,0.29297 -3.5625,0 -5.543,-1.80469 -1.9688,-1.81641 -1.9688,-5.08594 0,-3.21094 1.9336,-5.05078 1.9454,-1.83984 5.3438,-1.83984 3.0937,0 4.9453,1.86328 1.8633,1.86328 1.8633,4.98047 z m -4.3125,-1.39454 q 0,-1.19531 -0.7031,-1.92187 -0.6914,-0.73828 -1.8164,-0.73828 -1.2188,0 -1.9805,0.6914 -0.7617,0.67969 -0.9492,1.96875 z m 12.0703,-8.85937 v 3.72656 h 4.3242 v 3 h -4.3242 v 5.56641 q 0,0.91406 0.3633,1.24219 0.3633,0.3164 1.4414,0.3164 h 2.1562 v 3 h -3.5976 q -2.4844,0 -3.5274,-1.03125 -1.0312,-1.04297 -1.0312,-3.52734 v -5.56641 h -2.086 v -3 h 2.086 v -3.72656 z m 16.6406,7.30078 q -0.5508,-0.25781 -1.1015,-0.375 -0.5391,-0.12891 -1.0899,-0.12891 -1.6172,0 -2.4961,1.04297 -0.8672,1.03125 -0.8672,2.96485 v 6.04687 h -4.1953 v -13.125 h 4.1953 v 2.15625 q 0.8086,-1.28906 1.8516,-1.875 1.0547,-0.59765 2.5195,-0.59765 0.211,0 0.4571,0.0234 0.2461,0.0117 0.7148,0.0703 z m 2.086,-3.57422 h 4.1953 v 13.125 h -4.1953 z m 0,-5.10937 h 4.1953 v 3.42187 h -4.1953 z m 18.832,5.51953 v 3.42187 q -0.8555,-0.58593 -1.7227,-0.86718 -0.8554,-0.28125 -1.7812,-0.28125 -1.7578,0 -2.7422,1.03125 -0.9727,1.01953 -0.9727,2.85937 0,1.83984 0.9727,2.87109 0.9844,1.01954 2.7422,1.01954 0.9844,0 1.8633,-0.29297 0.8906,-0.29297 1.6406,-0.86719 v 3.43359 q -0.9844,0.36328 -2.0039,0.53907 -1.0078,0.1875 -2.0274,0.1875 -3.5507,0 -5.5546,-1.81641 -2.004,-1.82813 -2.004,-5.07422 0,-3.24609 2.004,-5.0625 2.0039,-1.82812 5.5546,-1.82812 1.0313,0 2.0274,0.1875 1.0078,0.17578 2.0039,0.53906 z m 11.9766,-5.51953 h 4.1953 v 9.92578 l 4.8281,-4.81641 h 4.875 l -6.4102,6.02344 6.9141,7.10156 h -5.0859 l -5.1211,-5.47265 v 5.47265 h -4.1953 z m 28.4179,11.63672 v 1.19531 h -9.8086 q 0.1524,1.47656 1.0664,2.21484 0.9141,0.73828 2.5547,0.73828 1.3242,0 2.7071,-0.38672 1.3945,-0.39843 2.8593,-1.19531 v 3.23438 q -1.4883,0.5625 -2.9765,0.84375 -1.4883,0.29297 -2.9766,0.29297 -3.5625,0 -5.543,-1.80469 -1.9687,-1.81641 -1.9687,-5.08594 0,-3.21094 1.9336,-5.05078 1.9453,-1.83984 5.3437,-1.83984 3.0938,0 4.9453,1.86328 1.8633,1.86328 1.8633,4.98047 z m -4.3125,-1.39454 q 0,-1.19531 -0.7031,-1.92187 -0.6914,-0.73828 -1.8164,-0.73828 -1.2188,0 -1.9805,0.6914 -0.7617,0.67969 -0.9492,1.96875 z m 5.7656,-5.13281 h 4.1954 l 3.5273,8.90625 3,-8.90625 h 4.1953 l -5.5195,14.36719 q -0.832,2.19141 -1.9453,3.05859 -1.1016,0.87891 -2.918,0.87891 h -2.4258 v -2.75391 h 1.3125 q 1.0664,0 1.5469,-0.33984 0.4922,-0.33984 0.7617,-1.21875 l 0.1172,-0.36328 z"
               id="path2" /></g></g></g><g
         id="g81"
         transform="translate(-12.364378,-33.578166)"><path
           id="rect58"
           style="opacity:1;fill:#61a78d;fill-opacity:0.33;fill-rule:nonzero;stroke:#61a78d;stroke-width:1.22217;stroke-linecap:square;stroke-miterlimit:0;stroke-dasharray:2.44435, 2.44435;stroke-dashoffset:0;stroke-opacity:1;paint-order:fill markers stroke"
           d="m 2660.9776,-261.25397 h 162.2875 a 5.1440615,5.1440615 135 0 0 5.1441,-5.14406 v -22.84921 a 1.7701703,1.7701703 161.01068 0 1 3.1655,-1.0893 l 61.7073,79.04246 a 6.5891582,6.5891582 90.000002 0 1 0,8.10952 l -61.7073,79.04245 a 1.7701705,1.7701705 18.989325 0 1 -3.1655,-1.0893 v -27.38117 a 5.1440615,5.1440615 45 0 0 -5.1441,-5.14406 h -162.2875 a 5.1440615,5.1440615 45 0 1 -5.1441,-5.14406 v -93.20921 a 5.1440615,5.1440615 135 0 1 5.1441,-5.14406 z"
           transform="matrix(0.8652824,0,0,0.75219829,370.84993,-55.494362)" /><path
           style="font-size:19.4943px;font-family:Montserrat;-inkscape-font-specification:Montserrat;font-variation-settings:'wght' 500;white-space:pre;inline-size:316.601;fill:#3e4349;stroke-width:3.5;stroke-linecap:round;stroke-linejoin:round;paint-order:markers fill stroke"
           d="m 868.01117,146.44318 q -1.2755,2.1893 -1.89422,4.33101 -0.61871,2.14171 -0.61871,4.34053 0,2.19882 0.61871,4.35956 0.62824,2.15123 1.89422,4.33101 h -1.52299 q -1.42781,-2.23689 -2.14171,-4.39764 -0.70438,-2.16074 -0.70438,-4.29293 0,-2.12267 0.70438,-4.2739 0.70439,-2.15122 2.14171,-4.39764 z m 10.19453,4.44524 v 1.65625 q -0.74246,-0.38075 -1.54203,-0.57112 -0.79957,-0.19038 -1.65625,-0.19038 -1.30406,0 -1.96085,0.39979 -0.64728,0.39979 -0.64728,1.19936 0,0.60919 0.46642,0.96138 0.46642,0.34268 1.87518,0.6568 l 0.59968,0.13326 q 1.86567,0.39978 2.6462,1.13272 0.79005,0.72342 0.79005,2.02749 0,1.48491 -1.18032,2.35112 -1.1708,0.8662 -3.22684,0.8662 -0.85668,0 -1.78951,-0.17134 -0.92331,-0.16182 -1.95133,-0.49497 v -1.80856 q 0.9709,0.5045 1.91325,0.7615 0.94236,0.24749 1.86567,0.24749 1.23743,0 1.90374,-0.41883 0.66631,-0.42834 0.66631,-1.19935 0,-0.7139 -0.48545,-1.09465 -0.47594,-0.38075 -2.10364,-0.73294 l -0.60919,-0.14278 q -1.6277,-0.34268 -2.35112,-1.04706 -0.72343,-0.7139 -0.72343,-1.95133 0,-1.50396 1.0661,-2.32257 1.06609,-0.81861 3.02695,-0.81861 0.9709,0 1.82759,0.14278 0.85668,0.14279 1.5801,0.42835 z m 5.09251,-3.34107 v 3.02695 h 3.60759 v 1.36117 h -3.60759 v 5.78737 q 0,1.30407 0.35219,1.6753 0.36171,0.37122 1.45636,0.37122 h 1.79904 v 1.46588 h -1.79904 q -2.02748,0 -2.7985,-0.75197 -0.77101,-0.7615 -0.77101,-2.76043 v -5.78737 h -1.28503 v -1.36117 h 1.28503 v -3.02695 z m 12.08875,4.66417 q -0.29508,-0.17134 -0.64727,-0.24749 -0.34268,-0.0857 -0.7615,-0.0857 -1.48492,0 -2.28449,0.97091 -0.79005,0.96139 -0.79005,2.76994 v 5.61603 h -1.76096 V 150.5743 h 1.76096 v 1.65625 q 0.55208,-0.9709 1.43732,-1.43732 0.88524,-0.47594 2.15123,-0.47594 0.18086,0 0.39979,0.0286 0.21893,0.019 0.48545,0.0666 z m 1.83711,-1.63722 h 1.75144 v 10.66094 h -1.75144 z m 0,-4.15015 h 1.75144 v 2.21785 h -1.75144 z m 14.27805,8.37645 v 6.43464 h -1.75144 v -6.37753 q 0,-1.51347 -0.59016,-2.26545 -0.59016,-0.75197 -1.77048,-0.75197 -1.41828,0 -2.23689,0.90427 -0.81861,0.90428 -0.81861,2.46535 v 6.02533 h -1.76096 V 150.5743 h 1.76096 v 1.65625 q 0.62823,-0.96139 1.4754,-1.43732 0.85668,-0.47594 1.97037,-0.47594 1.83711,0 2.77946,1.14225 0.94235,1.13272 0.94235,3.34106 z m 10.50865,0.98043 q 0,-1.90374 -0.79005,-2.9508 -0.78054,-1.04706 -2.19883,-1.04706 -1.40876,0 -2.19882,1.04706 -0.78053,1.04706 -0.78053,2.9508 0,1.89422 0.78053,2.94128 0.79006,1.04705 2.19882,1.04705 1.41829,0 2.19883,-1.04705 0.79005,-1.04706 0.79005,-2.94128 z m 1.75144,4.13112 q 0,2.72234 -1.20888,4.04544 -1.20887,1.33262 -3.70277,1.33262 -0.92332,0 -1.74192,-0.14278 -0.81861,-0.13326 -1.58963,-0.41882 v -1.70385 q 0.77102,0.41882 1.523,0.61872 0.75197,0.19989 1.53251,0.19989 1.72288,0 2.57956,-0.90428 0.85669,-0.89476 0.85669,-2.71283 v -0.8662 q -0.54257,0.94235 -1.38973,1.40877 -0.84717,0.46641 -2.02749,0.46641 -1.96085,0 -3.16021,-1.49443 -1.19935,-1.49444 -1.19935,-3.95978 0,-2.47486 1.19935,-3.9693 1.19936,-1.49444 3.16021,-1.49444 1.18032,0 2.02749,0.46642 0.84716,0.46642 1.38973,1.40877 v -1.61818 h 1.75144 z m 2.72234,-4.79743 h 5.13058 v 1.56107 h -5.13058 z m 9.65197,-7.56737 v 3.02695 h 3.60759 v 1.36117 h -3.60759 v 5.78737 q 0,1.30407 0.35219,1.6753 0.36171,0.37122 1.45637,0.37122 h 1.79903 v 1.46588 h -1.79903 q -2.02749,0 -2.7985,-0.75197 -0.77102,-0.7615 -0.77102,-2.76043 v -5.78737 h -1.28502 v -1.36117 h 1.28502 v -3.02695 z m 10.04223,4.25486 q -1.40877,0 -2.22737,1.10417 -0.81861,1.09465 -0.81861,3.00791 0,1.91326 0.80909,3.01743 0.8186,1.09465 2.23689,1.09465 1.39925,0 2.21786,-1.10417 0.81861,-1.10417 0.81861,-3.00791 0,-1.89422 -0.81861,-2.99839 -0.81861,-1.11369 -2.21786,-1.11369 z m 0,-1.48492 q 2.28449,0 3.58855,1.48492 1.30406,1.48492 1.30406,4.11208 0,2.61764 -1.30406,4.11208 -1.30406,1.48492 -3.58855,1.48492 -2.29401,0 -3.59807,-1.48492 -1.29454,-1.49444 -1.29454,-4.11208 0,-2.62716 1.29454,-4.11208 1.30406,-1.48492 3.59807,-1.48492 z m 7.27229,4.79743 h 5.13058 v 1.56107 h -5.13058 z m 7.85292,-8.69057 h 1.76096 v 8.74768 l 5.22577,-4.59753 h 2.2369 l -5.65411,4.9878 5.89207,5.67314 h -2.28449 l -5.41614,-5.20673 v 5.20673 h -1.76096 z m 19.77987,9.04276 v 0.85668 H 973.031 q 0.11423,1.80856 1.08514,2.76043 0.98042,0.94235 2.72234,0.94235 1.00899,0 1.95134,-0.24749 0.95187,-0.24748 1.8847,-0.74246 v 1.65626 q -0.94235,0.39978 -1.9323,0.6092 -0.98994,0.20941 -2.00844,0.20941 -2.55101,0 -4.04545,-1.48492 -1.48492,-1.48492 -1.48492,-4.01689 0,-2.61765 1.40877,-4.15016 1.41829,-1.54203 3.817,-1.54203 2.15123,0 3.39818,1.38973 1.25647,1.38022 1.25647,3.75989 z m -1.75145,-0.51401 q -0.019,-1.43732 -0.80909,-2.29401 -0.78053,-0.85668 -2.07507,-0.85668 -1.46588,0 -2.35112,0.82813 -0.87572,0.82813 -1.00898,2.33208 z m 9.06181,7.27229 q -0.74246,1.90374 -1.44684,2.48438 -0.70438,0.58064 -1.8847,0.58064 h -1.39925 v -1.46588 h 1.02802 q 0.72342,0 1.1232,-0.34267 0.39979,-0.34267 0.88524,-1.61818 l 0.31412,-0.79957 -4.31197,-10.48961 h 1.85615 l 3.33154,8.33838 3.33155,-8.33838 h 1.85614 z m 6.82491,-15.78201 h 1.52299 q 1.42781,2.24642 2.13219,4.39764 0.71391,2.15123 0.71391,4.2739 0,2.13219 -0.71391,4.29293 -0.70438,2.16075 -2.13219,4.39764 h -1.52299 q 1.26599,-2.17978 1.88471,-4.33101 0.62823,-2.16074 0.62823,-4.35956 0,-2.19882 -0.62823,-4.34053 -0.61872,-2.14171 -1.88471,-4.33101 z"
           id="text11-2-0-1-6"
           transform="matrix(0.82075467,0,0,0.82075467,1976.4147,-327.55157)"
           aria-label="(string-to-key) " /><path
           style="font-weight:500;font-size:19.4943px;font-family:Montserrat;-inkscape-font-specification:'Montserrat Medium';font-variation-settings:'wght' 500;white-space:pre;inline-size:316.601;fill:#3e4349;stroke-width:3.5;stroke-linecap:round;stroke-linejoin:round;paint-order:markers fill stroke"
           d="m 872.39929,147.49024 v 1.87518 q -1.09465,-0.52352 -2.06555,-0.78053 -0.97091,-0.257 -1.87519,-0.257 -1.57058,0 -2.42727,0.60919 -0.84716,0.6092 -0.84716,1.73241 0,0.94235 0.5616,1.4278 0.57112,0.47594 2.15123,0.77102 l 1.16128,0.23796 q 2.15123,0.40931 3.16973,1.44685 1.02802,1.02802 1.02802,2.76042 0,2.06556 -1.38973,3.13165 -1.38022,1.0661 -4.05497,1.0661 -1.00898,0 -2.15123,-0.22845 -1.13272,-0.22845 -2.35112,-0.67583 v -1.97989 q 1.1708,0.65679 2.29401,0.98995 1.12321,0.33315 2.20834,0.33315 1.64674,0 2.54149,-0.64727 0.89476,-0.64727 0.89476,-1.84663 0,-1.04706 -0.64727,-1.63722 -0.63775,-0.59016 -2.10363,-0.88524 l -1.1708,-0.22844 q -2.15123,-0.42835 -3.11262,-1.34214 -0.96139,-0.9138 -0.96139,-2.54149 0,-1.88471 1.3231,-2.96984 1.33262,-1.08513 3.6647,-1.08513 0.99946,0 2.037,0.18085 1.03754,0.18086 2.12267,0.54257 z m 5.68267,12.12683 h 6.71068 v 1.61817 h -9.02373 v -1.61817 q 1.09466,-1.13273 2.97936,-3.03647 1.89422,-1.91326 2.37967,-2.46534 0.92332,-1.03754 1.28503,-1.75145 0.37123,-0.72342 0.37123,-1.41828 0,-1.13273 -0.79957,-1.84663 -0.79006,-0.7139 -2.06556,-0.7139 -0.90428,0 -1.91326,0.31411 -0.99946,0.31412 -2.14171,0.95187 v -1.94181 q 1.16128,-0.46642 2.17027,-0.70438 1.00898,-0.23797 1.84662,-0.23797 2.20834,0 3.52192,1.10417 1.31358,1.10417 1.31358,2.9508 0,0.87572 -0.33315,1.66577 -0.32364,0.78053 -1.18984,1.84663 -0.23797,0.27604 -1.51347,1.59914 -1.27551,1.31358 -3.59807,3.68374 z m 10.57528,-12.59325 h 1.92277 v 6.0063 l 6.37753,-6.0063 h 2.47487 l -7.05336,6.62502 7.55785,7.5864 h -2.53198 l -6.82491,-6.84394 v 6.84394 h -1.92277 z m 27.20445,5.597 q 0.65679,-1.18032 1.57058,-1.74192 0.9138,-0.56161 2.15123,-0.56161 1.66577,0 2.57005,1.1708 0.90428,1.16129 0.90428,3.31251 v 6.43464 h -1.76096 v -6.37753 q 0,-1.53251 -0.54257,-2.27496 -0.54257,-0.74246 -1.65625,-0.74246 -1.36118,0 -2.15123,0.90427 -0.79005,0.90428 -0.79005,2.46535 v 6.02533 h -1.76096 v -6.37753 q 0,-1.54202 -0.54257,-2.27496 -0.54256,-0.74246 -1.67529,-0.74246 -1.34214,0 -2.13219,0.91379 -0.79005,0.90428 -0.79005,2.45583 v 6.02533 h -1.76096 V 150.5743 h 1.76096 v 1.65625 q 0.59968,-0.98042 1.43732,-1.44684 0.83765,-0.46642 1.98941,-0.46642 1.16128,0 1.97037,0.59016 0.81861,0.59016 1.20888,1.71337 z m 19.80841,2.84609 v 0.85668 h -8.05282 q 0.11423,1.80856 1.08513,2.76043 0.98043,0.94235 2.72235,0.94235 1.00898,0 1.95134,-0.24749 0.95187,-0.24748 1.8847,-0.74246 v 1.65626 q -0.94235,0.39978 -1.9323,0.6092 -0.98994,0.20941 -2.00844,0.20941 -2.55102,0 -4.04545,-1.48492 -1.48492,-1.48492 -1.48492,-4.01689 0,-2.61765 1.40877,-4.15016 1.41828,-1.54203 3.817,-1.54203 2.15122,0 3.39817,1.38973 1.25647,1.38022 1.25647,3.75989 z m -1.75144,-0.51401 q -0.019,-1.43732 -0.80909,-2.29401 -0.78053,-0.85668 -2.07508,-0.85668 -1.46588,0 -2.35111,0.82813 -0.87572,0.82813 -1.00899,2.33208 z m 12.29816,-3.9693 v 1.63722 q -0.74245,-0.4093 -1.49443,-0.6092 -0.74246,-0.20941 -1.50396,-0.20941 -1.70384,0 -2.6462,1.08513 -0.94235,1.07562 -0.94235,3.02695 0,1.95133 0.94235,3.03647 0.94236,1.07561 2.6462,1.07561 0.7615,0 1.50396,-0.19989 0.75198,-0.20941 1.49443,-0.61872 v 1.61818 q -0.73294,0.34267 -1.52299,0.51401 -0.78053,0.17134 -1.66577,0.17134 -2.40823,0 -3.82652,-1.51348 -1.41829,-1.51347 -1.41829,-4.08352 0,-2.60812 1.42781,-4.10256 1.43732,-1.49444 3.93122,-1.49444 0.80909,0 1.58011,0.17134 0.77101,0.16182 1.49443,0.49497 z m 11.9079,3.817 v 6.43464 h -1.75144 v -6.37753 q 0,-1.51347 -0.59016,-2.26545 -0.59016,-0.75197 -1.77048,-0.75197 -1.41829,0 -2.2369,0.90427 -0.8186,0.90428 -0.8186,2.46535 v 6.02533 h -1.76096 v -14.81109 h 1.76096 v 5.8064 q 0.62823,-0.96139 1.47539,-1.43732 0.85669,-0.47594 1.97038,-0.47594 1.8371,0 2.77946,1.14225 0.94235,1.13272 0.94235,3.34106 z m 8.33838,1.07562 q -2.12267,0 -2.94127,0.48545 -0.81861,0.48545 -0.81861,1.65625 0,0.93284 0.60919,1.48492 0.61872,0.54257 1.6753,0.54257 1.45636,0 2.33208,-1.02802 0.88524,-1.03754 0.88524,-2.75091 v -0.39026 z m 3.49337,-0.72343 v 6.08245 h -1.75144 v -1.61817 q -0.59968,0.9709 -1.49444,1.43732 -0.89476,0.4569 -2.1893,0.4569 -1.63722,0 -2.60813,-0.9138 -0.96138,-0.92331 -0.96138,-2.46534 0,-1.79904 1.19935,-2.71283 1.20888,-0.9138 3.59807,-0.9138 h 2.45583 v -0.17133 q 0,-1.20888 -0.79957,-1.86567 -0.79006,-0.66631 -2.22738,-0.66631 -0.9138,0 -1.78,0.21893 -0.8662,0.21893 -1.66577,0.65679 v -1.61818 q 0.96139,-0.37123 1.86566,-0.55208 0.90428,-0.19038 1.76096,-0.19038 2.31305,0 3.45529,1.19936 1.14225,1.19936 1.14225,3.63614 z m 12.46949,-0.35219 v 6.43464 h -1.75144 v -6.37753 q 0,-1.51347 -0.59016,-2.26545 -0.59016,-0.75197 -1.77047,-0.75197 -1.41829,0 -2.2369,0.90427 -0.81861,0.90428 -0.81861,2.46535 v 6.02533 h -1.76096 V 150.5743 h 1.76096 v 1.65625 q 0.62824,-0.96139 1.4754,-1.43732 0.85668,-0.47594 1.97037,-0.47594 1.83711,0 2.77946,1.14225 0.94235,1.13272 0.94235,3.34106 z m 3.49336,-4.2263 h 1.75144 v 10.66094 h -1.75144 z m 0,-4.15015 h 1.75144 v 2.21785 h -1.75144 z m 12.2125,4.46427 v 1.65625 q -0.74246,-0.38075 -1.54203,-0.57112 -0.79957,-0.19038 -1.65625,-0.19038 -1.30406,0 -1.96085,0.39979 -0.64728,0.39979 -0.64728,1.19936 0,0.60919 0.46642,0.96138 0.46642,0.34268 1.87518,0.6568 l 0.59968,0.13326 q 1.86567,0.39978 2.6462,1.13272 0.79005,0.72342 0.79005,2.02749 0,1.48491 -1.18031,2.35112 -1.17081,0.8662 -3.22684,0.8662 -0.85669,0 -1.78952,-0.17134 -0.92331,-0.16182 -1.95133,-0.49497 v -1.80856 q 0.9709,0.5045 1.91325,0.7615 0.94236,0.24749 1.86567,0.24749 1.23743,0 1.90374,-0.41883 0.66631,-0.42834 0.66631,-1.19935 0,-0.7139 -0.48545,-1.09465 -0.47594,-0.38075 -2.10364,-0.73294 l -0.60919,-0.14278 q -1.6277,-0.34268 -2.35112,-1.04706 -0.72342,-0.7139 -0.72342,-1.95133 0,-1.50396 1.06609,-2.32257 1.06609,-0.81861 3.02695,-0.81861 0.9709,0 1.82759,0.14278 0.85668,0.14279 1.5801,0.42835 z m 11.66038,1.7324 q 0.6568,-1.18032 1.5706,-1.74192 0.9138,-0.56161 2.1512,-0.56161 1.6658,0 2.5701,1.1708 0.9043,1.16129 0.9043,3.31251 v 6.43464 h -1.761 v -6.37753 q 0,-1.53251 -0.5426,-2.27496 -0.5425,-0.74246 -1.6562,-0.74246 -1.3612,0 -2.1512,0.90427 -0.7901,0.90428 -0.7901,2.46535 v 6.02533 h -1.7609 v -6.37753 q 0,-1.54202 -0.5426,-2.27496 -0.5426,-0.74246 -1.6753,-0.74246 -1.3421,0 -2.1322,0.91379 -0.79,0.90428 -0.79,2.45583 v 6.02533 h -1.761 V 150.5743 h 1.761 v 1.65625 q 0.5996,-0.98042 1.4373,-1.44684 0.8376,-0.46642 1.9894,-0.46642 1.1613,0 1.9704,0.59016 0.8186,0.59016 1.2088,1.71337 z"
           id="text11-2-0-1-6-3"
           transform="matrix(0.82075467,0,0,0.82075467,1977.4227,-352.90197)"
           aria-label="S2K mechanism" /></g><g
         id="g58"
         transform="translate(19.317884,-39.444866)"><g
           id="g57"><rect
             style="display:inline;fill:#baa600;fill-opacity:0.25;stroke:#baa600;stroke-width:1.222;stroke-linecap:butt;stroke-linejoin:miter;stroke-dasharray:2.44401, 2.44401;stroke-dashoffset:0;stroke-opacity:1;paint-order:fill markers stroke"
             id="rect66-1"
             width="240.85733"
             height="35.979061"
             x="2381.3313"
             y="-222.48239" /><path
             style="font-weight:500;font-size:19.4943px;font-family:Montserrat;-inkscape-font-specification:'Montserrat Medium';font-variation-settings:'wght' 500;white-space:pre;inline-size:316.601;fill:#3e4349;stroke-width:3.5;stroke-linecap:round;stroke-linejoin:round;paint-order:markers fill stroke"
             d="m 871.47598,150.9836 v 1.63722 q -0.74246,-0.4093 -1.49444,-0.6092 -0.74246,-0.20941 -1.50395,-0.20941 -1.70385,0 -2.6462,1.08513 -0.94235,1.07562 -0.94235,3.02695 0,1.95133 0.94235,3.03647 0.94235,1.07561 2.6462,1.07561 0.76149,0 1.50395,-0.19989 0.75198,-0.20941 1.49444,-0.61872 v 1.61818 q -0.73294,0.34267 -1.52299,0.51401 -0.78054,0.17134 -1.66578,0.17134 -2.40823,0 -3.82651,-1.51348 -1.41829,-1.51347 -1.41829,-4.08352 0,-2.60812 1.42781,-4.10256 1.43732,-1.49444 3.93122,-1.49444 0.80909,0 1.5801,0.17134 0.77102,0.16182 1.49444,0.49497 z m 7.1771,0.81861 q -1.40877,0 -2.22738,1.10417 -0.8186,1.09465 -0.8186,3.00791 0,1.91326 0.80909,3.01743 0.8186,1.09465 2.23689,1.09465 1.39925,0 2.21786,-1.10417 0.81861,-1.10417 0.81861,-3.00791 0,-1.89422 -0.81861,-2.99839 -0.81861,-1.11369 -2.21786,-1.11369 z m 0,-1.48492 q 2.28449,0 3.58855,1.48492 1.30406,1.48492 1.30406,4.11208 0,2.61764 -1.30406,4.11208 -1.30406,1.48492 -3.58855,1.48492 -2.29401,0 -3.59807,-1.48492 -1.29454,-1.49444 -1.29454,-4.11208 0,-2.62716 1.29454,-4.11208 1.30406,-1.48492 3.59807,-1.48492 z m 13.97345,1.89423 q -0.29508,-0.17134 -0.64727,-0.24749 -0.34267,-0.0857 -0.76149,-0.0857 -1.48492,0 -2.28449,0.97091 -0.79005,0.96139 -0.79005,2.76994 v 5.61603 h -1.76096 V 150.5743 h 1.76096 v 1.65625 q 0.55208,-0.9709 1.43732,-1.43732 0.88524,-0.47594 2.15123,-0.47594 0.18085,0 0.39978,0.0286 0.21893,0.019 0.48546,0.0666 z m 7.67208,0 q -0.29508,-0.17134 -0.64727,-0.24749 -0.34268,-0.0857 -0.7615,-0.0857 -1.48492,0 -2.28449,0.97091 -0.79005,0.96139 -0.79005,2.76994 v 5.61603 h -1.76096 V 150.5743 h 1.76096 v 1.65625 q 0.55208,-0.9709 1.43732,-1.43732 0.88524,-0.47594 2.15123,-0.47594 0.18086,0 0.39979,0.0286 0.21893,0.019 0.48545,0.0666 z m 10.52768,3.25539 v 0.85668 h -8.05282 q 0.11422,1.80856 1.08513,2.76043 0.98043,0.94235 2.72235,0.94235 1.00898,0 1.95133,-0.24749 0.95187,-0.24748 1.88471,-0.74246 v 1.65626 q -0.94235,0.39978 -1.9323,0.6092 -0.98994,0.20941 -2.00845,0.20941 -2.55101,0 -4.04544,-1.48492 -1.48492,-1.48492 -1.48492,-4.01689 0,-2.61765 1.40877,-4.15016 1.41828,-1.54203 3.817,-1.54203 2.15122,0 3.39817,1.38973 1.25647,1.38022 1.25647,3.75989 z m -1.75144,-0.51401 q -0.019,-1.43732 -0.80909,-2.29401 -0.78053,-0.85668 -2.07508,-0.85668 -1.46588,0 -2.35112,0.82813 -0.87572,0.82813 -1.00898,2.33208 z m 12.29816,-3.9693 v 1.63722 q -0.74246,-0.4093 -1.49443,-0.6092 -0.74246,-0.20941 -1.50396,-0.20941 -1.70385,0 -2.6462,1.08513 -0.94235,1.07562 -0.94235,3.02695 0,1.95133 0.94235,3.03647 0.94235,1.07561 2.6462,1.07561 0.7615,0 1.50396,-0.19989 0.75197,-0.20941 1.49443,-0.61872 v 1.61818 q -0.73294,0.34267 -1.52299,0.51401 -0.78053,0.17134 -1.66577,0.17134 -2.40823,0 -3.82652,-1.51348 -1.41829,-1.51347 -1.41829,-4.08352 0,-2.60812 1.42781,-4.10256 1.43732,-1.49444 3.93122,-1.49444 0.80909,0 1.58011,0.17134 0.77101,0.16182 1.49443,0.49497 z m 4.77839,-3.43625 v 3.02695 h 3.60759 v 1.36117 h -3.60759 v 5.78737 q 0,1.30407 0.35219,1.6753 0.36171,0.37122 1.45636,0.37122 h 1.79904 v 1.46588 h -1.79904 q -2.02748,0 -2.7985,-0.75197 -0.77101,-0.7615 -0.77101,-2.76043 v -5.78737 h -1.28503 v -1.36117 h 1.28503 v -3.02695 z m 20.9697,7.25325 v 6.43464 h -1.75144 v -6.37753 q 0,-1.51347 -0.59016,-2.26545 -0.59016,-0.75197 -1.77048,-0.75197 -1.41828,0 -2.23689,0.90427 -0.81861,0.90428 -0.81861,2.46535 v 6.02533 h -1.76096 v -14.81109 h 1.76096 v 5.8064 q 0.62823,-0.96139 1.4754,-1.43732 0.85668,-0.47594 1.97037,-0.47594 1.83711,0 2.77946,1.14225 0.94235,1.13272 0.94235,3.34106 z m 7.62448,-2.99839 q -1.40877,0 -2.22738,1.10417 -0.81861,1.09465 -0.81861,3.00791 0,1.91326 0.80909,3.01743 0.81861,1.09465 2.2369,1.09465 1.39925,0 2.21785,-1.10417 0.81861,-1.10417 0.81861,-3.00791 0,-1.89422 -0.81861,-2.99839 -0.8186,-1.11369 -2.21785,-1.11369 z m 0,-1.48492 q 2.28449,0 3.58855,1.48492 1.30406,1.48492 1.30406,4.11208 0,2.61764 -1.30406,4.11208 -1.30406,1.48492 -3.58855,1.48492 -2.29401,0 -3.59807,-1.48492 -1.29455,-1.49444 -1.29455,-4.11208 0,-2.62716 1.29455,-4.11208 1.30406,-1.48492 3.59807,-1.48492 z m 13.97345,1.89423 q -0.29508,-0.17134 -0.64727,-0.24749 -0.34267,-0.0857 -0.7615,-0.0857 -1.48491,0 -2.28448,0.97091 -0.79006,0.96139 -0.79006,2.76994 v 5.61603 h -1.76096 V 150.5743 h 1.76096 v 1.65625 q 0.55209,-0.9709 1.43733,-1.43732 0.88524,-0.47594 2.15122,-0.47594 0.18086,0 0.39979,0.0286 0.21893,0.019 0.48545,0.0666 z m 8.63346,-1.3231 v 1.65625 q -0.74245,-0.38075 -1.54203,-0.57112 -0.79957,-0.19038 -1.65625,-0.19038 -1.30406,0 -1.96085,0.39979 -0.64727,0.39979 -0.64727,1.19936 0,0.60919 0.46641,0.96138 0.46642,0.34268 1.87519,0.6568 l 0.59968,0.13326 q 1.86566,0.39978 2.64619,1.13272 0.79006,0.72342 0.79006,2.02749 0,1.48491 -1.18032,2.35112 -1.1708,0.8662 -3.22684,0.8662 -0.85669,0 -1.78952,-0.17134 -0.92331,-0.16182 -1.95133,-0.49497 v -1.80856 q 0.97091,0.5045 1.91326,0.7615 0.94235,0.24749 1.86566,0.24749 1.23743,0 1.90374,-0.41883 0.66631,-0.42834 0.66631,-1.19935 0,-0.7139 -0.48545,-1.09465 -0.47594,-0.38075 -2.10363,-0.73294 l -0.6092,-0.14278 q -1.6277,-0.34268 -2.35112,-1.04706 -0.72342,-0.7139 -0.72342,-1.95133 0,-1.50396 1.06609,-2.32257 1.0661,-0.81861 3.02695,-0.81861 0.97091,0 1.82759,0.14278 0.85668,0.14279 1.5801,0.42835 z m 12.47902,4.57849 v 0.85668 h -8.05282 q 0.11423,1.80856 1.08513,2.76043 0.98043,0.94235 2.72235,0.94235 1.00899,0 1.95134,-0.24749 0.95187,-0.24748 1.8847,-0.74246 v 1.65626 q -0.94235,0.39978 -1.9323,0.6092 -0.98994,0.20941 -2.00844,0.20941 -2.55101,0 -4.04545,-1.48492 -1.48492,-1.48492 -1.48492,-4.01689 0,-2.61765 1.40877,-4.15016 1.41829,-1.54203 3.817,-1.54203 2.15123,0 3.39818,1.38973 1.25646,1.38022 1.25646,3.75989 z m -1.75144,-0.51401 q -0.019,-1.43732 -0.80909,-2.29401 -0.78053,-0.85668 -2.07507,-0.85668 -1.46588,0 -2.35112,0.82813 -0.87572,0.82813 -1.00899,2.33208 z m 18.47583,0.96139 q 0,-1.9323 -0.7996,-3.02695 -0.79,-1.10417 -2.1798,-1.10417 -1.3897,0 -2.1893,1.10417 -0.79,1.09465 -0.79,3.02695 0,1.9323 0.79,3.03647 0.7996,1.09465 2.1893,1.09465 1.3898,0 2.1798,-1.09465 0.7996,-1.10417 0.7996,-3.03647 z m -5.9587,-3.72181 q 0.5521,-0.95187 1.3897,-1.40877 0.8472,-0.46642 2.018,-0.46642 1.9418,0 3.1507,1.54203 1.2184,1.54203 1.2184,4.05497 0,2.51294 -1.2184,4.05497 -1.2089,1.54203 -3.1507,1.54203 -1.1708,0 -2.018,-0.4569 -0.8376,-0.46642 -1.3897,-1.41829 v 1.59914 h -1.76099 v -14.81109 h 1.76099 z m 15.525,3.68374 q -2.1227,0 -2.9413,0.48545 -0.8186,0.48545 -0.8186,1.65625 0,0.93284 0.6092,1.48492 0.6187,0.54257 1.6753,0.54257 1.4563,0 2.332,-1.02802 0.8853,-1.03754 0.8853,-2.75091 v -0.39026 z m 3.4933,-0.72343 v 6.08245 h -1.7514 v -1.61817 q -0.5997,0.9709 -1.4945,1.43732 -0.8947,0.4569 -2.1893,0.4569 -1.6372,0 -2.6081,-0.9138 -0.9614,-0.92331 -0.9614,-2.46534 0,-1.79904 1.1994,-2.71283 1.2089,-0.9138 3.5981,-0.9138 h 2.4558 v -0.17133 q 0,-1.20888 -0.7996,-1.86567 -0.79,-0.66631 -2.2274,-0.66631 -0.9138,0 -1.78,0.21893 -0.8662,0.21893 -1.6657,0.65679 v -1.61818 q 0.9614,-0.37123 1.8656,-0.55208 0.9043,-0.19038 1.761,-0.19038 2.313,0 3.4553,1.19936 1.1422,1.19936 1.1422,3.63614 z m 5.34,-7.60544 v 3.02695 h 3.6076 v 1.36117 h -3.6076 v 5.78737 q 0,1.30407 0.3522,1.6753 0.3617,0.37122 1.4564,0.37122 h 1.799 v 1.46588 h -1.799 q -2.0275,0 -2.7985,-0.75197 -0.771,-0.7615 -0.771,-2.76043 v -5.78737 h -1.2851 v -1.36117 h 1.2851 v -3.02695 z m 7.6435,0 v 3.02695 h 3.6076 v 1.36117 h -3.6076 v 5.78737 q 0,1.30407 0.3522,1.6753 0.3617,0.37122 1.4564,0.37122 h 1.799 v 1.46588 h -1.799 q -2.0275,0 -2.7985,-0.75197 -0.771,-0.7615 -0.771,-2.76043 v -5.78737 h -1.285 v -1.36117 h 1.285 v -3.02695 z m 15.0301,7.91956 v 0.85668 h -8.0528 q 0.1142,1.80856 1.0851,2.76043 0.9804,0.94235 2.7223,0.94235 1.009,0 1.9514,-0.24749 0.9518,-0.24748 1.8847,-0.74246 v 1.65626 q -0.9424,0.39978 -1.9323,0.6092 -0.99,0.20941 -2.0085,0.20941 -2.551,0 -4.0454,-1.48492 -1.4849,-1.48492 -1.4849,-4.01689 0,-2.61765 1.4087,-4.15016 1.4183,-1.54203 3.817,-1.54203 2.1513,0 3.3982,1.38973 1.2565,1.38022 1.2565,3.75989 z m -1.7515,-0.51401 q -0.019,-1.43732 -0.8091,-2.29401 -0.7805,-0.85668 -2.075,-0.85668 -1.4659,0 -2.3512,0.82813 -0.8757,0.82813 -1.0089,2.33208 z m 10.8038,-2.74138 q -0.2951,-0.17134 -0.6473,-0.24749 -0.3427,-0.0857 -0.7615,-0.0857 -1.4849,0 -2.2845,0.97091 -0.7901,0.96139 -0.7901,2.76994 v 5.61603 h -1.7609 V 150.5743 h 1.7609 v 1.65625 q 0.5521,-0.9709 1.4374,-1.43732 0.8852,-0.47594 2.1512,-0.47594 0.1809,0 0.3998,0.0286 0.2189,0.019 0.4854,0.0666 z m 6.2728,10.01367 q -0.7425,1.90374 -1.4469,2.48438 -0.7044,0.58064 -1.8847,0.58064 h -1.3992 v -1.46588 h 1.028 q 0.7234,0 1.1232,-0.34267 0.3998,-0.34267 0.8852,-1.61818 l 0.3142,-0.79957 -4.312,-10.48961 h 1.8561 l 3.3316,8.33838 3.3315,-8.33838 h 1.8562 z m 20.094,-11.33677 v 1.65625 q -0.7425,-0.38075 -1.5421,-0.57112 -0.7995,-0.19038 -1.6562,-0.19038 -1.3041,0 -1.9609,0.39979 -0.6472,0.39979 -0.6472,1.19936 0,0.60919 0.4664,0.96138 0.4664,0.34268 1.8752,0.6568 l 0.5996,0.13326 q 1.8657,0.39978 2.6462,1.13272 0.7901,0.72342 0.7901,2.02749 0,1.48491 -1.1803,2.35112 -1.1708,0.8662 -3.2269,0.8662 -0.8567,0 -1.7895,-0.17134 -0.9233,-0.16182 -1.9513,-0.49497 v -1.80856 q 0.9709,0.5045 1.9132,0.7615 0.9424,0.24749 1.8657,0.24749 1.2374,0 1.9037,-0.41883 0.6664,-0.42834 0.6664,-1.19935 0,-0.7139 -0.4855,-1.09465 -0.4759,-0.38075 -2.1036,-0.73294 l -0.6092,-0.14278 q -1.6277,-0.34268 -2.3511,-1.04706 -0.7235,-0.7139 -0.7235,-1.95133 0,-1.50396 1.0661,-2.32257 1.0661,-0.81861 3.027,-0.81861 0.9709,0 1.8276,0.14278 0.8566,0.14279 1.5801,0.42835 z m 5.0925,-3.34107 v 3.02695 h 3.6076 v 1.36117 h -3.6076 v 5.78737 q 0,1.30407 0.3522,1.6753 0.3617,0.37122 1.4563,0.37122 h 1.7991 v 1.46588 h -1.7991 q -2.0275,0 -2.7985,-0.75197 -0.771,-0.7615 -0.771,-2.76043 v -5.78737 h -1.285 v -1.36117 h 1.285 v -3.02695 z m 10.7561,8.32887 q -2.1227,0 -2.9413,0.48545 -0.8186,0.48545 -0.8186,1.65625 0,0.93284 0.6092,1.48492 0.6187,0.54257 1.6753,0.54257 1.4564,0 2.3321,-1.02802 0.8852,-1.03754 0.8852,-2.75091 v -0.39026 z m 3.4934,-0.72343 v 6.08245 h -1.7515 v -1.61817 q -0.5997,0.9709 -1.4944,1.43732 -0.8948,0.4569 -2.1893,0.4569 -1.6372,0 -2.6081,-0.9138 -0.9614,-0.92331 -0.9614,-2.46534 0,-1.79904 1.1993,-2.71283 1.2089,-0.9138 3.5981,-0.9138 h 2.4558 v -0.17133 q 0,-1.20888 -0.7995,-1.86567 -0.7901,-0.66631 -2.2274,-0.66631 -0.9138,0 -1.78,0.21893 -0.8662,0.21893 -1.6658,0.65679 v -1.61818 q 0.9614,-0.37123 1.8657,-0.55208 0.9043,-0.19038 1.7609,-0.19038 2.3131,0 3.4553,1.19936 1.1423,1.19936 1.1423,3.63614 z m 5.3019,4.48331 v 5.65411 h -1.761 V 150.5743 h 1.761 v 1.61818 q 0.5521,-0.95187 1.3897,-1.40877 0.8472,-0.46642 2.018,-0.46642 1.9418,0 3.1507,1.54203 1.2184,1.54203 1.2184,4.05497 0,2.51294 -1.2184,4.05497 -1.2089,1.54203 -3.1507,1.54203 -1.1708,0 -2.018,-0.4569 -0.8376,-0.46642 -1.3897,-1.41829 z m 5.9587,-3.72181 q 0,-1.9323 -0.7996,-3.02695 -0.79,-1.10417 -2.1798,-1.10417 -1.3897,0 -2.1893,1.10417 -0.79,1.09465 -0.79,3.02695 0,1.9323 0.79,3.03647 0.7996,1.09465 2.1893,1.09465 1.3898,0 2.1798,-1.09465 0.7996,-1.10417 0.7996,-3.03647 z m 4.7213,-9.49014 h 1.7514 v 14.81109 h -1.7514 z m 14.535,9.04276 v 0.85668 h -8.0528 q 0.1142,1.80856 1.0851,2.76043 0.9804,0.94235 2.7224,0.94235 1.0089,0 1.9513,-0.24749 0.9519,-0.24748 1.8847,-0.74246 v 1.65626 q -0.9423,0.39978 -1.9323,0.6092 -0.9899,0.20941 -2.0084,0.20941 -2.5511,0 -4.0455,-1.48492 -1.4849,-1.48492 -1.4849,-4.01689 0,-2.61765 1.4088,-4.15016 1.4182,-1.54203 3.817,-1.54203 2.1512,0 3.3981,1.38973 1.2565,1.38022 1.2565,3.75989 z m -1.7514,-0.51401 q -0.019,-1.43732 -0.8091,-2.29401 -0.7806,-0.85668 -2.0751,-0.85668 -1.4659,0 -2.3511,0.82813 -0.8757,0.82813 -1.009,2.33208 z"
             id="text11-2-0-1"
             transform="matrix(0.82075467,0,0,0.82075467,1680.0686,-332.08239)"
             aria-label="correct horse battery staple" /></g><path
           style="font-weight:500;font-size:18.6667px;font-family:Montserrat;-inkscape-font-specification:'Montserrat Medium';font-variation-settings:'wght' 500;fill:#3e4349;stroke-width:1.7;stroke-linecap:round;stroke-linejoin:round;paint-order:markers fill stroke"
           d="m 2471.839,-134.47252 v 5.11329 h 2.3151 q 1.2851,0 1.9869,-0.66537 0.7019,-0.66536 0.7019,-1.89584 0,-1.22135 -0.7019,-1.88672 -0.7018,-0.66536 -1.9869,-0.66536 z m -1.8412,-1.51303 h 4.1563 q 2.2877,0 3.4544,1.03907 1.1758,1.02995 1.1758,3.02604 0,2.01433 -1.1758,3.04428 -1.1667,1.02995 -3.4544,1.02995 h -2.3151 v 5.46876 h -1.8412 z m 14.9844,8.47658 q -2.0325,0 -2.8164,0.46485 -0.7839,0.46484 -0.7839,1.58594 0,0.89323 0.5834,1.42187 0.5924,0.51954 1.6041,0.51954 1.3946,0 2.2331,-0.98438 0.8477,-0.99349 0.8477,-2.63412 v -0.3737 z m 3.3451,-0.69271 v 5.82423 h -1.6771 v -1.54948 q -0.5742,0.92969 -1.431,1.3763 -0.8568,0.4375 -2.0964,0.4375 -1.5677,0 -2.4974,-0.875 -0.9205,-0.88411 -0.9205,-2.36068 0,-1.72266 1.1484,-2.59766 1.1575,-0.875 3.4453,-0.875 h 2.3516 v -0.16406 q 0,-1.15756 -0.7656,-1.78647 -0.7566,-0.63802 -2.1329,-0.63802 -0.875,0 -1.7044,0.20964 -0.8294,0.20963 -1.595,0.62891 v -1.54949 q 0.9205,-0.35547 1.7864,-0.52864 0.8659,-0.18229 1.6862,-0.18229 2.2149,0 3.3086,1.14843 1.0938,1.14844 1.0938,3.48178 z m 9.9622,-4.08334 v 1.58594 q -0.7109,-0.36458 -1.4765,-0.54687 -0.7657,-0.1823 -1.586,-0.1823 -1.2487,0 -1.8776,0.38282 -0.6198,0.38281 -0.6198,1.14844 0,0.58333 0.4466,0.92057 0.4466,0.32813 1.7956,0.62891 l 0.5742,0.1276 q 1.7865,0.38282 2.5339,1.08464 0.7565,0.69271 0.7565,1.94141 0,1.42188 -1.1302,2.25131 -1.1211,0.82942 -3.0899,0.82942 -0.8203,0 -1.7135,-0.16406 -0.8841,-0.15495 -1.8685,-0.47396 v -1.73177 q 0.9297,0.48307 1.832,0.72917 0.9024,0.23698 1.7865,0.23698 1.1849,0 1.8229,-0.40105 0.638,-0.41015 0.638,-1.14844 0,-0.68359 -0.4648,-1.04817 -0.4557,-0.36459 -2.0143,-0.70183 l -0.5834,-0.13672 q -1.5586,-0.32812 -2.2513,-1.0026 -0.6927,-0.6836 -0.6927,-1.8685 0,-1.4401 1.0209,-2.22396 1.0208,-0.78385 2.8984,-0.78385 0.9297,0 1.75,0.13671 0.8203,0.13672 1.513,0.41016 z m 9.7253,0 v 1.58594 q -0.7109,-0.36458 -1.4766,-0.54687 -0.7656,-0.1823 -1.5859,-0.1823 -1.2487,0 -1.8776,0.38282 -0.6198,0.38281 -0.6198,1.14844 0,0.58333 0.4466,0.92057 0.4466,0.32813 1.7956,0.62891 l 0.5742,0.1276 q 1.7865,0.38282 2.5339,1.08464 0.7565,0.69271 0.7565,1.94141 0,1.42188 -1.1302,2.25131 -1.1211,0.82942 -3.0899,0.82942 -0.8203,0 -1.7135,-0.16406 -0.8841,-0.15495 -1.8685,-0.47396 v -1.73177 q 0.9297,0.48307 1.832,0.72917 0.9024,0.23698 1.7865,0.23698 1.1849,0 1.8229,-0.40105 0.638,-0.41015 0.638,-1.14844 0,-0.68359 -0.4648,-1.04817 -0.4558,-0.36459 -2.0144,-0.70183 l -0.5833,-0.13672 q -1.5586,-0.32812 -2.2513,-1.0026 -0.6927,-0.6836 -0.6927,-1.8685 0,-1.4401 1.0208,-2.22396 1.0209,-0.78385 2.8985,-0.78385 0.9297,0 1.75,0.13671 0.8203,0.13672 1.513,0.41016 z m 4.8399,8.37632 v 5.41407 h -1.6862 v -14.09117 h 1.6862 v 1.54948 q 0.5286,-0.91146 1.3307,-1.34896 0.8112,-0.44661 1.9323,-0.44661 1.8594,0 3.0169,1.47656 1.1667,1.47657 1.1667,3.88282 0,2.40625 -1.1667,3.88282 -1.1575,1.47656 -3.0169,1.47656 -1.1211,0 -1.9323,-0.4375 -0.8021,-0.44661 -1.3307,-1.35807 z m 5.7057,-3.56381 q 0,-1.85026 -0.7656,-2.89844 -0.7565,-1.0573 -2.0873,-1.0573 -1.3307,0 -2.0963,1.0573 -0.7565,1.04818 -0.7565,2.89844 0,1.85026 0.7565,2.90756 0.7656,1.04818 2.0963,1.04818 1.3308,0 2.0873,-1.04818 0.7656,-1.0573 0.7656,-2.90756 z m 13.0065,-1.06641 v 6.16147 h -1.6771 v -6.10678 q 0,-1.44922 -0.5651,-2.16928 -0.5651,-0.72005 -1.6953,-0.72005 -1.3581,0 -2.1419,0.86589 -0.7839,0.86588 -0.7839,2.36068 v 5.76954 h -1.6862 v -14.18232 h 1.6862 v 5.55991 q 0.6016,-0.92058 1.4128,-1.37631 0.8203,-0.45572 1.8867,-0.45572 1.7591,0 2.6615,1.09375 0.9023,1.08463 0.9023,3.19922 z m 9.2605,-2.47917 q -0.2826,-0.16406 -0.6198,-0.23698 -0.3282,-0.082 -0.7292,-0.082 -1.4219,0 -2.1875,0.92969 -0.7565,0.92057 -0.7565,2.65235 v 5.37761 h -1.6862 v -10.20835 h 1.6862 v 1.58594 q 0.5286,-0.92969 1.3763,-1.37631 0.8476,-0.45572 2.0599,-0.45572 0.1732,0 0.3828,0.0273 0.2096,0.0182 0.4648,0.0638 z m 6.3984,3.50912 q -2.0325,0 -2.8164,0.46485 -0.7839,0.46484 -0.7839,1.58594 0,0.89323 0.5834,1.42187 0.5924,0.51954 1.6041,0.51954 1.3946,0 2.2331,-0.98438 0.8477,-0.99349 0.8477,-2.63412 v -0.3737 z m 3.3451,-0.69271 v 5.82423 h -1.6771 v -1.54948 q -0.5742,0.92969 -1.431,1.3763 -0.8568,0.4375 -2.0964,0.4375 -1.5677,0 -2.4974,-0.875 -0.9205,-0.88411 -0.9205,-2.36068 0,-1.72266 1.1484,-2.59766 1.1576,-0.875 3.4453,-0.875 h 2.3516 v -0.16406 q 0,-1.15756 -0.7656,-1.78647 -0.7566,-0.63802 -2.1329,-0.63802 -0.875,0 -1.7044,0.20964 -0.8294,0.20963 -1.595,0.62891 v -1.54949 q 0.9205,-0.35547 1.7864,-0.52864 0.8659,-0.18229 1.6862,-0.18229 2.2149,0 3.3086,1.14843 1.0938,1.14844 1.0938,3.48178 z m 9.9622,-4.08334 v 1.58594 q -0.7109,-0.36458 -1.4765,-0.54687 -0.7657,-0.1823 -1.586,-0.1823 -1.2487,0 -1.8776,0.38282 -0.6198,0.38281 -0.6198,1.14844 0,0.58333 0.4466,0.92057 0.4466,0.32813 1.7956,0.62891 l 0.5742,0.1276 q 1.7865,0.38282 2.5339,1.08464 0.7565,0.69271 0.7565,1.94141 0,1.42188 -1.1302,2.25131 -1.1211,0.82942 -3.0899,0.82942 -0.8203,0 -1.7135,-0.16406 -0.8841,-0.15495 -1.8685,-0.47396 v -1.73177 q 0.9297,0.48307 1.832,0.72917 0.9024,0.23698 1.7865,0.23698 1.1849,0 1.8229,-0.40105 0.638,-0.41015 0.638,-1.14844 0,-0.68359 -0.4648,-1.04817 -0.4557,-0.36459 -2.0143,-0.70183 l -0.5834,-0.13672 q -1.5586,-0.32812 -2.2513,-1.0026 -0.6927,-0.6836 -0.6927,-1.8685 0,-1.4401 1.0209,-2.22396 1.0208,-0.78385 2.8984,-0.78385 0.9297,0 1.75,0.13671 0.8203,0.13672 1.513,0.41016 z m 11.9493,4.38412 v 0.82032 h -7.711 q 0.1094,1.73177 1.0391,2.64323 0.9388,0.90235 2.6068,0.90235 0.9661,0 1.8684,-0.23698 0.9115,-0.23698 1.8047,-0.71094 v 1.58594 q -0.9023,0.38281 -1.8502,0.58333 -0.9479,0.20052 -1.9232,0.20052 -2.4427,0 -3.8737,-1.42187 -1.4219,-1.42188 -1.4219,-3.84636 0,-2.50652 1.349,-3.97397 1.358,-1.47656 3.6549,-1.47656 2.0599,0 3.2539,1.33073 1.2032,1.32161 1.2032,3.60026 z m -1.6771,-0.49218 q -0.018,-1.37631 -0.7748,-2.19662 -0.7474,-0.82032 -1.9869,-0.82032 -1.4037,0 -2.2513,0.79297 -0.8386,0.79297 -0.9662,2.23308 z"
           id="text11-2-8-02-9-9"
           transform="scale(0.98944431,1.0106683)"
           aria-label="Passphrase" /><path
           style="display:inline;fill:none;fill-opacity:1;stroke:#baa600;stroke-width:1.4;stroke-linecap:butt;stroke-linejoin:miter;stroke-dasharray:2.8, 2.8;stroke-dashoffset:0;stroke-opacity:1;marker-start:url(#Square-1);paint-order:fill markers stroke"
           d="m 2412.1498,-185.83489 -0.03,56.857 28.4016,0.276"
           id="path252-4" /></g><path
         id="path1-19"
         style="color:#000000;fill:#baa600;fill-opacity:1;stroke:#baa600;stroke-width:1.579;stroke-linecap:round;stroke-dasharray:none;stroke-opacity:1"
         d="m 51.039502,477.193 c -7.204445,0 -13.087357,5.88404 -13.087358,13.08848 v 52.2623 c 1e-6,7.20445 5.882913,13.08736 13.087358,13.08736 h 35.760795 c 7.204443,0 13.087357,-5.88291 13.087357,-13.08736 v -10.4133 h 89.613036 c 2.70413,0 4.93846,-2.23546 4.93846,-4.93959 V 505.8856 c 0,-2.70412 -2.23433,-4.93958 -4.93846,-4.93959 h -23.09553 c -22.1765,0 -44.34846,0.0361 -66.517506,0 v -10.66453 c 0,-7.20444 -5.882914,-13.08848 -13.087357,-13.08848 z m 0,4.00033 h 35.760795 c 5.042684,0 9.087026,4.04547 9.087026,9.08815 v 10.66453 c -0.05354,-1.1e-4 -0.107136,1.2e-4 -0.16069,0 h -0.0023 -2.886799 c -1.10426,2.2e-4 -1.999382,0.89535 -1.999598,1.99961 -3.97e-4,1.10469 0.894904,2.0005 1.999598,2.00072 h 2.88454 c 0.722102,0.002 1.443852,-0.001 2.165948,0 22.842678,0.0422 45.682308,0 68.517098,0 h 23.09554 c 0.54237,0 0.93813,0.39689 0.93813,0.93926 v 21.30529 c 0,0.54237 -0.39576,0.93926 -0.93813,0.93926 h -93.778586 -2.88454 c -1.104256,2.2e-4 -1.999377,0.89534 -1.999598,1.9996 -4.03e-4,1.1047 0.8949,2.00051 1.999598,2.00073 h 2.88454 0.165215 v 10.4133 c 0,5.04269 -4.044342,9.08703 -9.087026,9.08703 H 51.039502 c -5.042687,0 -9.088159,-4.04434 -9.08816,-9.08703 v -52.2623 c 1e-6,-5.04268 4.045473,-9.08815 9.08816,-9.08815 z m 7.201725,22.3894 -3.793241,0.0588 c -3.771996,0.0586 -6.839599,3.17466 -6.839601,6.9471 v 11.85728 c 2e-6,3.76993 3.132358,6.85399 6.901841,6.79546 l 3.793241,-0.0588 c 3.771997,-0.0586 6.839601,-3.17352 6.839601,-6.94598 v -11.8584 c 0,-3.76994 -3.132355,-6.85399 -6.901841,-6.79546 z m 0.06224,3.99919 c 1.586041,-0.0246 2.839272,1.21004 2.839271,2.79627 v 11.8584 c 10e-7,1.63266 -1.269056,2.92143 -2.901511,2.94678 l -3.793241,0.0589 c -1.58604,0.0246 -2.839271,-1.21005 -2.839272,-2.79627 v -11.85728 c 10e-7,-1.63264 1.269058,-2.92256 2.901512,-2.9479 z m 55.819583,12.338 c -0.9398,-6.5e-4 -1.70182,0.76137 -1.70117,1.70117 4.3e-4,0.93904 0.76213,1.69987 1.70117,1.69922 h 66.95703 l 0.0117,0.0117 0.30664,-0.0117 0.0605,-0.002 c 2.20129,-0.10155 2.14301,-3.3753 -0.0605,-3.39844 z m -5.8e-4,1.70046 h 67.27526 l -0.36681,0.0131 m 2.05861,-12.78027 c 0,1.08537 -0.87987,1.96525 -1.96524,1.96525 -1.08537,0 -1.96524,-0.87988 -1.96524,-1.96525 -1e-5,-1.08538 0.87986,-1.96526 1.96524,-1.96526 1.08538,0 1.96525,0.87988 1.96524,1.96526 z m -5.63244,-0.20402 c 1e-5,1.08538 -0.87986,1.96526 -1.96524,1.96526 -1.08538,0 -1.96526,-0.87988 -1.96525,-1.96526 0,-1.08538 0.87987,-1.96525 1.96525,-1.96525 1.08537,0 1.96524,0.87988 1.96524,1.96525 z m -9.4709,0.31604 c 0,1.08537 -0.87987,1.96525 -1.96524,1.96525 -1.08538,0 -1.96525,-0.87987 -1.96525,-1.96525 0,-1.08537 0.87988,-1.96524 1.96525,-1.96524 1.08537,0 1.96524,0.87987 1.96524,1.96524 z m -14.46839,-0.11202 c 0,1.08538 -0.87988,1.96526 -1.96526,1.96525 -1.08538,0 -1.96525,-0.87987 -1.96525,-1.96525 -1e-5,-1.08538 0.87987,-1.96526 1.96525,-1.96526 1.08539,-10e-6 1.96527,0.87987 1.96526,1.96526 z m -5.47797,0.0873 c 0,1.08538 -0.87987,1.96525 -1.96525,1.96525 -1.08538,0 -1.96525,-0.87987 -1.96525,-1.96525 0,-1.08538 0.87987,-1.96525 1.96525,-1.96525 1.08538,0 1.96525,0.87987 1.96525,1.96525 z"
         transform="matrix(0,0.7343272,-0.7343272,0,3291.4737,-331.03784)" /></g></g></svg>
