<?xml version="1.0" encoding="UTF-8" standalone="no"?>
<svg
   viewBox="0 0 661.34149 269.23938"
   version="1.1"
   id="svg1"
   width="661.34149"
   height="269.23938"
   xml:space="preserve"
   xmlns="http://www.w3.org/2000/svg"
   xmlns:svg="http://www.w3.org/2000/svg"><defs
     id="defs1"><linearGradient
       id="swatch251"><stop
         style="stop-color:#195962;stop-opacity:1;"
         offset="0"
         id="stop251" /></linearGradient><filter
       style="color-interpolation-filters:sRGB"
       id="filter90-2-0"
       x="-0.019165826"
       y="-0.028762213"
       width="1.0414438"
       height="1.0655139"><feFlood
         result="flood"
         in="SourceGraphic"
         flood-opacity="0.796078"
         flood-color="rgb(62,67,73)"
         id="feFlood89-3-6" /><feGaussianBlur
         result="blur"
         in="SourceGraphic"
         stdDeviation="2.132 0"
         id="feGaussianBlur89-7-8" /><feOffset
         result="offset"
         in="blur"
         dx="1.000000"
         dy="1.000000"
         id="feOffset89-5-9" /><feComposite
         result="comp1"
         operator="in"
         in="flood"
         in2="offset"
         id="feComposite89-9-2" /><feComposite
         result="fbSourceGraphic"
         operator="over"
         in="SourceGraphic"
         in2="comp1"
         id="feComposite90-2-6" /><feColorMatrix
         result="fbSourceGraphicAlpha"
         in="fbSourceGraphic"
         values="0 0 0 -1 0 0 0 0 -1 0 0 0 0 -1 0 0 0 0 1 0"
         id="feColorMatrix90-2-6" /><feFlood
         id="feFlood90-8-4"
         result="flood"
         in="fbSourceGraphic"
         flood-opacity="0.796078"
         flood-color="rgb(62,67,73)" /><feGaussianBlur
         id="feGaussianBlur90-9-9"
         result="blur"
         in="fbSourceGraphic"
         stdDeviation="3.000000" /><feOffset
         id="feOffset90-7-5"
         result="offset"
         in="blur"
         dx="1.000000"
         dy="1.000000" /><feComposite
         id="feComposite91-3-0"
         result="comp1"
         operator="in"
         in="flood"
         in2="offset" /><feComposite
         id="feComposite92-6-4"
         result="comp2"
         operator="over"
         in="fbSourceGraphic"
         in2="comp1" /></filter></defs><!--! Font Awesome Pro 6.4.2 by @fontawesome - https://fontawesome.com License - https://fontawesome.com/license (Commercial License) Copyright 2023 Fonticons, Inc. --><g
     id="layer10"
     transform="translate(1251.7023,-966.50111)"><g
       id="layer6-2"
       style="display:inline;fill:#61a78d;fill-opacity:1"
       transform="translate(-0.95068361,669.62611)"><path
         style="display:inline;fill:#ffffff;fill-opacity:1;stroke:none;stroke-width:1.31168;stroke-linecap:butt;stroke-linejoin:miter;stroke-dasharray:none;stroke-dashoffset:0;stroke-opacity:1;paint-order:fill markers stroke;filter:url(#filter90-2-0)"
         id="rect65-7"
         width="642.6438"
         height="250.32849"
         x="825.70776"
         y="875.02576"
         transform="matrix(0.7953885,0,0,0.84925697,-1832.6321,-407.60505)"
         d="m 855.24156,875.02576 h 583.57624 c 16.3617,0 29.5338,12.33657 29.5338,27.66046 v 195.00758 c 0,15.3239 -13.1721,27.6604 -29.5338,27.6604 H 855.24156 c -16.36172,0 -29.5338,-12.3365 -29.5338,-27.6604 V 902.68622 c 0,-15.32389 13.17208,-27.66046 29.5338,-27.66046 z"
         ry="27.660467"
         rx="29.5338" /><g
         id="g11-8-2"
         transform="matrix(0.86376245,0,0,0.86376245,-1913.5458,171.61913)"><rect
           style="font-variation-settings:'wght' 700;fill:#195962;stroke-width:2.53446;stroke-linecap:round;stroke-linejoin:round;paint-order:markers fill stroke"
           id="rect1-9-2"
           width="272.103"
           height="73.842331"
           x="914.89185"
           y="156.37508" /><g
           id="g4-7-6"
           transform="translate(-11.145477,39.927363)"><rect
             style="font-variation-settings:'wght' 700;fill:#e6e6e6;fill-opacity:1;stroke-width:2.49322;stroke-linecap:round;stroke-linejoin:round;paint-order:markers fill stroke"
             id="rect1-3-7-1"
             width="272.53439"
             height="71.346413"
             x="917.30688"
             y="126.45267" /><g
             id="text1-6-0"
             style="font-weight:600;font-size:20.8391px;font-family:Montserrat;-inkscape-font-specification:'Montserrat, Semi-Bold';white-space:pre;inline-size:235.782;fill:#3e4349;stroke-width:3.5;stroke-linecap:round;stroke-linejoin:round;paint-order:markers fill stroke"
             transform="translate(-15.170772,-2.4355768)"
             aria-label="Public part of an asymmetric keypair"><path
               d="m 969.3594,153.02789 h 3.89691 c 2.79244,0 4.5846,-1.97971 4.5846,-5.0639 0,-3.04251 -1.72964,-4.70963 -4.89719,-4.70963 h -6.71019 v 15.1917 h 3.12587 z m 0,-2.60488 v -4.56377 h 2.91747 c 1.66713,0 2.43818,0.72937 2.43818,2.2923 0,1.5421 -0.77105,2.27147 -2.43818,2.27147 z m 20.7349,8.02305 v -11.25311 h -2.91747 v 7.04361 c 0,1.3337 -0.93776,2.20895 -2.35482,2.20895 -1.25034,0 -1.87552,-0.66685 -1.87552,-2.0214 v -7.23116 h -2.91747 v 7.8355 c 0,2.47985 1.37538,3.89691 3.77188,3.89691 1.52125,0 2.54237,-0.56266 3.37593,-1.813 v 1.3337 z m 8.73161,-11.44067 c -1.39622,0 -2.3965,0.52098 -3.10503,1.64629 v -5.39732 h -2.91747 v 15.1917 h 2.91747 v -1.14615 c 0.70853,1.10447 1.68797,1.62545 3.10503,1.62545 2.68819,0 4.73049,-2.56321 4.73049,-5.95998 0,-3.52181 -2.0631,-5.95999 -4.73049,-5.95999 z m -0.64602,2.43818 c 1.4379,0 2.45901,1.45874 2.45901,3.54265 0,2.04223 -1.02111,3.50096 -2.45901,3.50096 -1.47957,0 -2.45901,-1.41705 -2.45901,-3.56348 0,-2.04223 1.00028,-3.48013 2.45901,-3.48013 z m 10.48211,-6.18921 h -2.9175 v 15.1917 h 2.9175 z m 5.7307,3.93859 h -2.9174 v 11.25311 h 2.9174 z m 0,-3.93859 h -2.9174 v 2.60488 h 2.9174 z m 7.5855,6.10585 c 1.1878,0 1.7505,0.56266 2.0839,2.04223 h 2.7924 c -0.2084,-2.75076 -2.0422,-4.39705 -4.8555,-4.39705 -3.3551,0 -5.314,2.20895 -5.314,6.04334 0,3.70936 1.9381,5.87663 5.2723,5.87663 2.73,0 4.6263,-1.68797 4.8972,-4.37621 h -2.7924 c -0.3751,1.45874 -0.9586,2.02139 -2.0839,2.02139 -1.4796,0 -2.3757,-1.3337 -2.3757,-3.52181 0,-1.56293 0.3543,-3.68852 2.3757,-3.68852 z m 18.6927,-2.35482 c -1.4171,0 -2.4174,0.60434 -3.1259,1.85468 v -1.66712 h -2.9175 v 15.79603 h 2.9175 v -5.87662 c 0.7085,1.25034 1.7088,1.83384 3.1259,1.83384 2.709,0 4.7096,-2.54237 4.7096,-5.95998 0,-3.31342 -1.7922,-5.98083 -4.7096,-5.98083 z m -0.6669,2.43818 c 1.4796,0 2.459,1.4379 2.459,3.58432 0,2.04224 -1.0211,3.48013 -2.459,3.48013 -1.4587,0 -2.459,-1.41705 -2.459,-3.5218 0,-2.10475 1.0003,-3.54265 2.459,-3.54265 z m 10.4612,9.48179 c 1.2504,0 2.3965,-0.54182 3.4177,-1.60461 0,0.58349 0.062,0.79188 0.3334,1.12531 h 3.1675 v -0.35426 c -0.521,-0.4793 -0.6668,-0.79189 -0.6668,-1.37539 v -6.25173 c 0,-2.2923 -1.563,-3.45929 -4.6055,-3.45929 -3.0425,0 -4.6262,1.29203 -4.8138,3.89692 h 2.8133 c 0.1459,-1.16699 0.6252,-1.5421 2.063,-1.5421 1.1254,0 1.688,0.37511 1.688,1.12531 0,1.10448 -1.3754,1.16699 -2.334,1.31287 l -1.167,0.20839 c -2.2297,0.3751 -3.3134,1.52125 -3.3134,3.54265 0,2.02139 1.3754,3.37593 3.4176,3.37593 z m 3.3968,-5.00138 c 0,1.68796 -0.8335,2.64656 -2.3131,2.64656 -0.9795,0 -1.5838,-0.52098 -1.5838,-1.35454 0,-0.87524 0.4585,-1.29202 1.6671,-1.54209 l 1.0003,-0.18756 c 0.7711,-0.14587 0.8961,-0.18755 1.2295,-0.35426 z m 5.5015,-6.73103 v 11.25311 h 2.9175 v -5.98082 c 0,-1.70881 0.8544,-2.56321 2.5632,-2.56321 0.3126,0 0.521,0.0208 0.9169,0.0834 v -2.95916 c -0.1667,-0.0208 -0.2709,-0.0208 -0.3542,-0.0208 -1.3337,0 -2.5007,0.87525 -3.1259,2.3965 v -2.20894 z m 13.2329,0.22923 h -1.6255 v -3.02167 h -2.9175 v 3.02167 h -1.4379 v 1.93803 h 1.4379 v 6.91858 c 0,1.77133 0.9378,2.64657 2.855,2.64657 0.646,0 1.167,-0.0625 1.688,-0.22923 v -2.04223 c -0.2918,0.0417 -0.4585,0.0625 -0.6669,0.0625 -0.771,0 -0.9586,-0.22923 -0.9586,-1.2295 v -6.1267 h 1.6255 z m 12.7952,-0.41679 c -3.4385,0 -5.5432,2.27147 -5.5432,5.95999 0,3.70936 2.1047,5.95998 5.564,5.95998 3.4176,0 5.564,-2.27146 5.564,-5.87663 0,-3.81355 -2.063,-6.04334 -5.5848,-6.04334 z m 0.021,2.35482 c 1.6046,0 2.6466,1.4379 2.6466,3.64685 0,2.10474 -1.0837,3.56348 -2.6466,3.56348 -1.5838,0 -2.6466,-1.45874 -2.6466,-3.60516 0,-2.14643 1.0628,-3.60517 2.6466,-3.60517 z m 12.9202,-1.93803 h -1.7296 v -1.10448 c 0,-0.58349 0.2501,-0.87524 0.7919,-0.87524 0.2501,0 0.5835,0.0208 0.8335,0.0625 v -2.18811 c -0.5418,-0.0417 -1.2711,-0.0625 -1.6671,-0.0625 -1.938,0 -2.8758,0.91692 -2.8758,2.81327 v 1.35455 h -1.5837 v 1.93803 h 1.5837 v 9.08585 h 2.9175 v -9.08585 h 1.7296 z m 10.6697,11.50318 c 1.2503,0 2.3965,-0.54182 3.4176,-1.60461 0,0.58349 0.062,0.79188 0.3334,1.12531 h 3.1676 v -0.35426 c -0.521,-0.4793 -0.6669,-0.79189 -0.6669,-1.37539 v -6.25173 c 0,-2.2923 -1.5629,-3.45929 -4.6054,-3.45929 -3.0425,0 -4.6263,1.29203 -4.8139,3.89692 h 2.8133 c 0.1459,-1.16699 0.6252,-1.5421 2.0631,-1.5421 1.1253,0 1.6879,0.37511 1.6879,1.12531 0,1.10448 -1.3753,1.16699 -2.3339,1.31287 l -1.167,0.20839 c -2.2298,0.3751 -3.3134,1.52125 -3.3134,3.54265 0,2.02139 1.3753,3.37593 3.4176,3.37593 z m 3.3967,-5.00138 c 0,1.68796 -0.8335,2.64656 -2.3131,2.64656 -0.9794,0 -1.5838,-0.52098 -1.5838,-1.35454 0,-0.87524 0.4585,-1.29202 1.6672,-1.54209 l 1.0002,-0.18756 c 0.7711,-0.14587 0.8961,-0.18755 1.2295,-0.35426 z m 5.5016,-6.73103 v 11.25311 h 2.9174 v -6.75187 c 0,-1.3337 0.9378,-2.20894 2.3549,-2.20894 1.2503,0 1.8755,0.68769 1.8755,2.02139 v 6.93942 h 2.9174 v -7.54375 c 0,-2.47986 -1.3753,-3.89692 -3.7718,-3.89692 -1.5213,0 -2.5424,0.56266 -3.376,1.81301 v -1.62545 z"
               id="path1" /><path
               d="m 968.81758,184.97423 c 1.25035,0 2.3965,-0.54181 3.41762,-1.60461 0,0.5835 0.0625,0.79189 0.33342,1.12531 h 3.16754 v -0.35426 c -0.52097,-0.4793 -0.66685,-0.79189 -0.66685,-1.37538 v -6.25173 c 0,-2.2923 -1.56293,-3.45929 -4.60544,-3.45929 -3.04251,0 -4.62628,1.29202 -4.81383,3.89691 h 2.81328 c 0.14587,-1.16699 0.62517,-1.54209 2.06307,-1.54209 1.12531,0 1.68797,0.3751 1.68797,1.12531 0,1.10447 -1.37538,1.16699 -2.33398,1.31286 l -1.16699,0.20839 c -2.22979,0.3751 -3.31342,1.52126 -3.31342,3.54265 0,2.02139 1.37538,3.37593 3.41761,3.37593 z m 3.39678,-5.00138 c 0,1.68797 -0.83357,2.64656 -2.31314,2.64656 -0.97944,0 -1.58378,-0.52097 -1.58378,-1.35454 0,-0.87524 0.45846,-1.29202 1.66713,-1.54209 l 1.00028,-0.18755 c 0.77105,-0.14588 0.89608,-0.18756 1.22951,-0.35427 z m 7.62711,1.25034 h -2.85496 c 0.0834,2.45902 1.89636,3.75104 5.31397,3.75104 3.93859,0 4.91803,-2.25062 4.91803,-3.81355 0,-1.45874 -0.72937,-2.3965 -2.20895,-2.83412 l -3.68852,-1.0628 c -0.81272,-0.25006 -1.02111,-0.41678 -1.02111,-0.87524 0,-0.62517 0.66685,-1.04195 1.68796,-1.04195 1.39622,0 2.08391,0.50014 2.10475,1.52125 h 2.81328 c -0.0417,-2.37566 -1.87552,-3.81355 -4.89719,-3.81355 -2.85495,0 -4.62628,1.43789 -4.62628,3.75103 0,2.20895 1.813,2.56321 2.45902,2.77161 l 3.48013,1.08363 c 0.72936,0.22923 0.97943,0.45846 0.97943,0.91692 0,0.68769 -0.81272,1.10447 -2.16726,1.10447 -1.83384,0 -2.12559,-0.68769 -2.2923,-1.45874 z m 12.50345,3.81356 c 0,1.06279 -0.79188,1.87552 -1.813,1.87552 -0.22923,0 -0.39594,-0.0208 -0.77105,-0.12504 v 2.18811 c 0.43762,0.0625 0.68769,0.0834 1.04196,0.0834 3.18838,0 3.48013,-1.72965 3.75104,-2.5007 l 4.62628,-13.31618 h -3.00083 l -2.33398,8.18976 -2.47986,-8.18976 h -3.20922 l 4.18866,11.71157 z m 8.39818,-11.79493 v 11.25311 h 2.9175 v -6.75187 c 0,-1.37538 0.7502,-2.20894 2.0005,-2.20894 0.9794,0 1.5838,0.56266 1.5838,1.45874 v 7.50207 h 2.9174 v -6.75187 c 0,-1.37538 0.7503,-2.20894 2.0006,-2.20894 0.9794,0 1.5838,0.56266 1.5838,1.45874 v 7.50207 h 2.9174 v -7.96053 c 0,-2.18811 -1.3337,-3.48013 -3.5843,-3.48013 -1.417,0 -2.4173,0.50014 -3.2926,1.66712 -0.5418,-1.06279 -1.6671,-1.66712 -3.0633,-1.66712 -1.292,0 -2.1256,0.43762 -3.0842,1.58377 v -1.39622 z m 18.6301,0 v 11.25311 h 2.9175 v -6.75187 c 0,-1.37538 0.7502,-2.20894 2.0005,-2.20894 0.9795,0 1.5838,0.56266 1.5838,1.45874 v 7.50207 h 2.9175 v -6.75187 c 0,-1.37538 0.7502,-2.20894 2.0005,-2.20894 0.9795,0 1.5838,0.56266 1.5838,1.45874 v 7.50207 h 2.9175 v -7.96053 c 0,-2.18811 -1.3337,-3.48013 -3.5843,-3.48013 -1.4171,0 -2.4174,0.50014 -3.2926,1.66712 -0.5418,-1.06279 -1.6671,-1.66712 -3.0634,-1.66712 -1.292,0 -2.1256,0.43762 -3.0842,1.58377 v -1.39622 z m 23.3189,-0.18755 c -3.23,0 -5.2097,2.33398 -5.2097,6.10585 0,3.60517 1.9588,5.81411 5.1472,5.81411 2.5216,0 4.5638,-1.4379 5.2098,-3.64684 h -2.8758 c -0.3543,0.89608 -1.167,1.41706 -2.2298,1.41706 -1.9589,0 -2.2714,-1.4379 -2.334,-2.95915 h 7.5438 c 0.021,-0.25007 0.021,-0.35427 0.021,-0.50014 0,-4.98055 -3.0216,-6.23089 -5.2723,-6.23089 z m 2.2298,4.79299 h -4.4804 c 0.1876,-1.70881 0.9169,-2.56321 2.209,-2.56321 1.3545,0 2.1464,0.91692 2.2714,2.56321 z m 10.2945,-4.37621 h -1.6254 v -3.02167 h -2.9175 v 3.02167 h -1.4379 v 1.93804 h 1.4379 v 6.91858 c 0,1.77132 0.9378,2.64656 2.855,2.64656 0.646,0 1.167,-0.0625 1.6879,-0.22923 v -2.04223 c -0.2917,0.0417 -0.4584,0.0625 -0.6668,0.0625 -0.7711,0 -0.9586,-0.22923 -0.9586,-1.22951 v -6.12669 h 1.6254 z m 1.9797,-0.22923 v 11.25311 h 2.9175 v -5.98082 c 0,-1.70881 0.8544,-2.56321 2.5632,-2.56321 0.3126,0 0.521,0.0208 0.917,0.0834 v -2.95915 c -0.1668,-0.0208 -0.271,-0.0208 -0.3543,-0.0208 -1.3337,0 -2.5007,0.87524 -3.1259,2.39649 v -2.20894 z m 11.1906,0 h -2.9174 v 11.25311 h 2.9174 z m 0,-3.93859 h -2.9174 v 2.60489 h 2.9174 z m 7.5855,6.10586 c 1.1878,0 1.7505,0.56265 2.0839,2.04223 h 2.7924 c -0.2083,-2.75076 -2.0422,-4.39705 -4.8555,-4.39705 -3.3551,0 -5.3139,2.20894 -5.3139,6.04334 0,3.70936 1.938,5.87662 5.2723,5.87662 2.7299,0 4.6262,-1.68797 4.8971,-4.37621 h -2.7924 c -0.3751,1.45874 -0.9586,2.02139 -2.0839,2.02139 -1.4796,0 -2.3757,-1.3337 -2.3757,-3.5218 0,-1.56294 0.3543,-3.68852 2.3757,-3.68852 z m 15.5668,2.20894 v -8.3148 h -2.9175 v 15.1917 h 2.9175 v -3.68852 l 1.167,-1.27118 2.6882,4.9597 h 3.4177 l -4.1053,-7.00193 3.8344,-4.25118 h -3.3135 z m 13.5246,-4.56376 c -3.2301,0 -5.2098,2.33398 -5.2098,6.10585 0,3.60517 1.9589,5.81411 5.1473,5.81411 2.5215,0 4.5637,-1.4379 5.2097,-3.64684 h -2.8758 c -0.3542,0.89608 -1.167,1.41706 -2.2297,1.41706 -1.9589,0 -2.2715,-1.4379 -2.334,-2.95915 h 7.5437 c 0.021,-0.25007 0.021,-0.35427 0.021,-0.50014 0,-4.98055 -3.0217,-6.23089 -5.2723,-6.23089 z m 2.2298,4.79299 h -4.4805 c 0.1876,-1.70881 0.917,-2.56321 2.209,-2.56321 1.3545,0 2.1464,0.91692 2.2715,2.56321 z m 8.2731,7.18949 c 0,1.06279 -0.7919,1.87552 -1.813,1.87552 -0.2292,0 -0.396,-0.0208 -0.7711,-0.12504 v 2.18811 c 0.4377,0.0625 0.6877,0.0834 1.042,0.0834 3.1884,0 3.4801,-1.72965 3.751,-2.5007 l 4.6263,-13.31618 h -3.0008 l -2.334,8.18976 -2.4799,-8.18976 h -3.2092 l 4.1887,11.71157 z m 14.4415,-11.98248 c -1.4171,0 -2.4174,0.60433 -3.1259,1.85468 v -1.66713 h -2.9175 v 15.79604 h 2.9175 v -5.87663 c 0.7085,1.25035 1.7088,1.83384 3.1259,1.83384 2.7091,0 4.7096,-2.54237 4.7096,-5.95998 0,-3.31342 -1.7922,-5.98082 -4.7096,-5.98082 z m -0.6669,2.43817 c 1.4796,0 2.459,1.4379 2.459,3.58433 0,2.04223 -1.0211,3.48013 -2.459,3.48013 -1.4587,0 -2.459,-1.41706 -2.459,-3.52181 0,-2.10475 1.0003,-3.54265 2.459,-3.54265 z m 10.4613,9.48179 c 1.2503,0 2.3965,-0.54181 3.4176,-1.60461 0,0.5835 0.062,0.79189 0.3334,1.12531 h 3.1675 v -0.35426 c -0.5209,-0.4793 -0.6668,-0.79189 -0.6668,-1.37538 v -6.25173 c 0,-2.2923 -1.5629,-3.45929 -4.6055,-3.45929 -3.0425,0 -4.6262,1.29202 -4.8138,3.89691 h 2.8133 c 0.1459,-1.16699 0.6252,-1.54209 2.0631,-1.54209 1.1253,0 1.6879,0.3751 1.6879,1.12531 0,1.10447 -1.3754,1.16699 -2.334,1.31286 l -1.1669,0.20839 c -2.2298,0.3751 -3.3135,1.52126 -3.3135,3.54265 0,2.02139 1.3754,3.37593 3.4177,3.37593 z m 3.3967,-5.00138 c 0,1.68797 -0.8335,2.64656 -2.3131,2.64656 -0.9795,0 -1.5838,-0.52097 -1.5838,-1.35454 0,-0.87524 0.4585,-1.29202 1.6671,-1.54209 l 1.0003,-0.18755 c 0.7711,-0.14588 0.8961,-0.18756 1.2295,-0.35427 z m 8.5232,-6.73103 h -2.9174 v 11.25311 h 2.9174 z m 0,-3.93859 h -2.9174 v 2.60489 h 2.9174 z m 2.8133,3.93859 v 11.25311 h 2.9175 v -5.98082 c 0,-1.70881 0.8544,-2.56321 2.5632,-2.56321 0.3126,0 0.521,0.0208 0.9169,0.0834 v -2.95915 c -0.1667,-0.0208 -0.2709,-0.0208 -0.3542,-0.0208 -1.3337,0 -2.5007,0.87524 -3.1259,2.39649 v -2.20894 z"
               id="path2" /></g></g></g><path
         id="path2-1-4-5-4"
         style="display:inline;fill:none;fill-opacity:1;stroke:#006961;stroke-width:10.4431;stroke-linecap:round;stroke-dasharray:none;stroke-opacity:1"
         d="m 156.30312,759.25868 c -9.78054,19.91382 -30.12868,33.02384 -53.81237,33.02384 -33.173715,0 -60.066326,-26.89261 -60.066326,-60.06633 0,-33.17372 26.892611,-60.06633 60.066326,-60.06633 23.31181,0 43.58824,15.15712 53.54415,34.5646 m -9.14624,1.20213 h 4.97796 c 10.89491,0.20296 25.86265,0 38.79397,0 l 11.43353,7.63836 14.59897,-7.63836 14.59896,7.3422 h 10.87817 l 11.54761,-7.3422 17.66083,7.3422 16.34856,-7.34219 22,25.45886 -22,25.45887 h -135.8606 -4.97796 M 89.058073,732.21619 c -4e-6,6.98969 -5.666271,12.65596 -12.655965,12.65596 -6.989695,0 -12.655963,-5.66627 -12.655967,-12.65596 -2e-6,-6.9897 5.666268,-12.65597 12.655967,-12.65597 6.989698,0 12.655967,5.66627 12.655965,12.65597 z"
         transform="matrix(0.5520304,0,0,-0.5520304,-961.5735,865.9823)" /><path
         style="font-weight:500;font-size:21.3333px;font-family:Montserrat;-inkscape-font-specification:'Montserrat Medium';font-variation-settings:'wght' 500;fill:#3e4349;stroke-width:3.5;stroke-linecap:round;stroke-linejoin:round;paint-order:markers fill stroke"
         d="m -1069.8973,456.73137 c 0,-2.92266 -1.728,-4.56533 -4.8,-4.56533 h -6.4214 v 15.55198 h 1.984 v -6.59199 h 4.8854 c 2.56,0 4.352,-1.728 4.352,-4.39466 z m -9.2374,2.64533 v -5.46133 h 4.1387 c 1.8987,0 3.0293,1.024 3.0293,2.73067 0,1.70666 -1.1306,2.73066 -3.0293,2.73066 z m 20.48,8.34132 v -11.17865 h -1.7707 v 6.33599 c 0,2.28266 -1.1946,3.77599 -3.0506,3.77599 -1.408,0 -2.304,-0.85333 -2.304,-2.19733 v -7.91465 h -1.7707 v 8.61865 c 0,1.856 1.3867,3.05066 3.5627,3.05066 1.6427,0 2.688,-0.576 3.7333,-2.04799 v 1.55733 z m 2.56,-15.55198 v 15.55198 h 1.6 v -1.42933 c 0.8534,1.30133 1.984,1.91999 3.5413,1.91999 2.944,0 4.864,-2.41066 4.864,-6.12265 0,-3.62666 -1.8346,-5.86666 -4.7786,-5.86666 -1.536,0 -2.624,0.576 -3.456,1.83466 v -5.88799 z m 4.8853,5.71733 c 1.984,0 3.264,1.72799 3.264,4.39466 0,2.53866 -1.3226,4.26666 -3.264,4.26666 -1.8773,0 -3.1146,-1.70667 -3.1146,-4.33066 0,-2.624 1.2373,-4.33066 3.1146,-4.33066 z m 8.832,-5.71733 h -1.792 v 15.55198 h 1.792 z m 4.6934,4.37333 h -1.7707 v 11.17865 h 1.7707 z m 0,-4.37333 h -1.792 v 2.24 h 1.792 z m 11.5626,8.12799 c -0.2133,-2.66666 -1.856,-4.07466 -4.416,-4.07466 -3.008,0 -4.9706,2.38933 -4.9706,6.10132 0,3.60533 1.92,5.88799 4.9493,5.88799 2.6667,0 4.352,-1.59999 4.5653,-4.33066 h -1.792 c -0.2986,1.792 -1.216,2.688 -2.7306,2.688 -1.9627,0 -3.136,-1.6 -3.136,-4.24533 0,-2.79466 1.152,-4.45866 3.0933,-4.45866 1.4933,0 2.432,0.87467 2.6453,2.432 z m 9.792,1.984 2.5387,-2.53867 5.4826,7.97866 h 2.3467 l -6.4,-9.21599 6.336,-6.33599 h -2.56 l -7.744,7.87199 v -7.87199 h -1.984 v 15.55198 h 1.984 z m 21.41865,0.448 c 0,-4.05333 -1.51466,-6.50666 -4.97065,-6.50666 -3.1147,0 -5.12,2.38933 -5.12,6.05866 0,3.66932 1.9413,5.93065 5.07733,5.93065 2.55999,0 4.33066,-1.45066 4.77866,-3.88266 h -1.792 c -0.49067,1.472 -1.49333,2.24 -2.92266,2.24 -2.06933,0 -3.24263,-1.55733 -3.28533,-3.83999 z m -8.19195,-1.45067 c 0.1493,-2.06933 1.408,-3.41333 3.19996,-3.41333 1.83467,0 3.09333,1.49333 3.09333,3.41333 z m 16.89596,-4.73599 -3.09333,8.70398 -2.85866,-8.70398 h -1.89867 l 3.776,11.22131 -0.68267,1.77067 c -0.29866,0.78933 -0.68266,1.088 -1.42933,1.088 -0.256,0 -0.55466,-0.0427 -0.93866,-0.128 v 1.59999 c 0.36266,0.192 0.72533,0.27734 1.19466,0.27734 1.216,0 2.26133,-0.66134 2.88,-2.304 l 4.97066,-13.52531 z"
         id="text11-2-1-8-9"
         aria-label="Public Key" /></g></g></svg>
