<?xml version="1.0" encoding="UTF-8" standalone="no"?>
<svg
   viewBox="0 0 661.34149 269.23938"
   version="1.1"
   id="svg1"
   width="661.34149"
   height="269.23938"
   xml:space="preserve"
   xmlns="http://www.w3.org/2000/svg"
   xmlns:svg="http://www.w3.org/2000/svg"><defs
     id="defs1"><linearGradient
       id="swatch251"><stop
         style="stop-color:#195962;stop-opacity:1;"
         offset="0"
         id="stop251" /></linearGradient><filter
       style="color-interpolation-filters:sRGB"
       id="filter90-2-0"
       x="-0.019165826"
       y="-0.028762213"
       width="1.0414438"
       height="1.0655139"><feFlood
         result="flood"
         in="SourceGraphic"
         flood-opacity="0.796078"
         flood-color="rgb(62,67,73)"
         id="feFlood89-3-6" /><feGaussianBlur
         result="blur"
         in="SourceGraphic"
         stdDeviation="2.132 0"
         id="feGaussianBlur89-7-8" /><feOffset
         result="offset"
         in="blur"
         dx="1.000000"
         dy="1.000000"
         id="feOffset89-5-9" /><feComposite
         result="comp1"
         operator="in"
         in="flood"
         in2="offset"
         id="feComposite89-9-2" /><feComposite
         result="fbSourceGraphic"
         operator="over"
         in="SourceGraphic"
         in2="comp1"
         id="feComposite90-2-6" /><feColorMatrix
         result="fbSourceGraphicAlpha"
         in="fbSourceGraphic"
         values="0 0 0 -1 0 0 0 0 -1 0 0 0 0 -1 0 0 0 0 1 0"
         id="feColorMatrix90-2-6" /><feFlood
         id="feFlood90-8-4"
         result="flood"
         in="fbSourceGraphic"
         flood-opacity="0.796078"
         flood-color="rgb(62,67,73)" /><feGaussianBlur
         id="feGaussianBlur90-9-9"
         result="blur"
         in="fbSourceGraphic"
         stdDeviation="3.000000" /><feOffset
         id="feOffset90-7-5"
         result="offset"
         in="blur"
         dx="1.000000"
         dy="1.000000" /><feComposite
         id="feComposite91-3-0"
         result="comp1"
         operator="in"
         in="flood"
         in2="offset" /><feComposite
         id="feComposite92-6-4"
         result="comp2"
         operator="over"
         in="fbSourceGraphic"
         in2="comp1" /></filter></defs><!--! Font Awesome Pro 6.4.2 by @fontawesome - https://fontawesome.com License - https://fontawesome.com/license (Commercial License) Copyright 2023 Fonticons, Inc. --><g
     id="layer10"
     transform="translate(1251.7023,-966.50111)"><g
       id="layer6-2"
       style="display:inline;fill:#61a78d;fill-opacity:1"
       transform="translate(-0.95068361,669.62611)"><path
         style="display:inline;fill:#ffffff;fill-opacity:1;stroke:none;stroke-width:1.31168;stroke-linecap:butt;stroke-linejoin:miter;stroke-dasharray:none;stroke-dashoffset:0;stroke-opacity:1;paint-order:fill markers stroke;filter:url(#filter90-2-0)"
         id="rect65-7"
         width="642.6438"
         height="250.32849"
         x="825.70776"
         y="875.02576"
         transform="matrix(0.7953885,0,0,0.84925697,-1832.6321,-407.60505)"
         d="m 855.24156,875.02576 h 583.57624 c 16.3617,0 29.5338,12.33657 29.5338,27.66046 v 195.00758 c 0,15.3239 -13.1721,27.6604 -29.5338,27.6604 H 855.24156 c -16.36172,0 -29.5338,-12.3365 -29.5338,-27.6604 V 902.68622 c 0,-15.32389 13.17208,-27.66046 29.5338,-27.66046 z"
         ry="27.660467"
         rx="29.5338" /><g
         id="g11-8-2"
         transform="matrix(0.86376245,0,0,0.86376245,-1913.5458,171.61913)"><rect
           style="font-variation-settings:'wght' 700;fill:#195962;stroke-width:2.53446;stroke-linecap:round;stroke-linejoin:round;paint-order:markers fill stroke"
           id="rect1-9-2"
           width="272.103"
           height="73.842331"
           x="914.89185"
           y="156.37508" /><g
           id="g4-7-6"
           transform="translate(-11.145477,39.927363)"><rect
             style="font-variation-settings:'wght' 700;fill:#e6e6e6;fill-opacity:1;stroke-width:2.49322;stroke-linecap:round;stroke-linejoin:round;paint-order:markers fill stroke"
             id="rect1-3-7-1"
             width="272.53439"
             height="71.346413"
             x="917.30688"
             y="126.45267" /><g
             id="text1-6-0"
             style="font-weight:600;font-size:20.8391px;font-family:Montserrat;-inkscape-font-specification:'Montserrat, Semi-Bold';white-space:pre;inline-size:235.782;fill:#3e4349;stroke-width:3.5;stroke-linecap:round;stroke-linejoin:round;paint-order:markers fill stroke"
             transform="translate(-15.170772,-2.4355768)"
             aria-label="Public part of an asymmetric keypair"><path
               d="m 966.47937,143.25427 h 6.50204 q 2.89998,0 4.44663,1.29227 1.55683,1.2821 1.55683,3.66313 0,2.3912 -1.55683,3.68347 -1.54665,1.28209 -4.44663,1.28209 h -2.58453 v 5.27083 h -3.91751 z m 3.91751,2.83893 v 4.24311 h 2.16734 q 1.13964,0 1.76034,-0.54947 0.62069,-0.55964 0.62069,-1.57717 0,-1.01754 -0.62069,-1.56701 -0.6207,-0.54946 -1.76034,-0.54946 z m 11.07077,7.91641 v -6.95993 h 3.66312 v 1.13964 q 0,0.92595 -0.0102,2.33015 -0.0102,1.39402 -0.0102,1.86209 0,1.37367 0.0712,1.98419 0.0712,0.60034 0.24421,0.87508 0.22385,0.35613 0.57999,0.54947 0.36631,0.19333 0.83438,0.19333 1.13964,0 1.79086,-0.87508 0.65122,-0.87508 0.65122,-2.43191 v -5.62696 h 3.64277 v 11.39638 h -3.64277 v -1.64841 q -0.8242,0.99719 -1.75016,1.47543 -0.91578,0.46807 -2.02489,0.46807 -1.97402,0 -3.0119,-1.21087 -1.02771,-1.21087 -1.02771,-3.52067 z m 21.02225,2.08595 q 1.1702,0 1.7807,-0.85473 0.6207,-0.85473 0.6207,-2.48279 0,-1.62805 -0.6207,-2.48278 -0.6105,-0.85473 -1.7807,-0.85473 -1.1702,0 -1.801,0.86491 -0.6207,0.85472 -0.6207,2.4726 0,1.61788 0.6207,2.48279 0.6308,0.85473 1.801,0.85473 z m -2.4217,-7.37713 q 0.7529,-0.99718 1.6687,-1.46525 0.9158,-0.47824 2.1063,-0.47824 2.1063,0 3.4596,1.67893 1.3534,1.66876 1.3534,4.30417 0,2.63542 -1.3534,4.31435 -1.3533,1.66876 -3.4596,1.66876 -1.1905,0 -2.1063,-0.46807 -0.9158,-0.47824 -1.6687,-1.47543 v 1.64841 h -3.6428 v -15.83283 h 3.6428 z m 11.2743,-6.1052 h 3.6427 v 15.83283 h -3.6427 z m 7.143,4.43645 h 3.6428 v 11.39638 h -3.6428 z m 0,-4.43645 h 3.6428 v 2.9712 h -3.6428 z m 16.3518,4.79258 v 2.9712 q -0.7428,-0.50876 -1.4958,-0.75297 -0.7428,-0.24421 -1.5466,-0.24421 -1.5263,0 -2.381,0.89543 -0.8446,0.88526 -0.8446,2.48278 0,1.59753 0.8446,2.49296 0.8547,0.88526 2.381,0.88526 0.8547,0 1.6179,-0.25439 0.7733,-0.25438 1.4245,-0.75297 v 2.98137 q -0.8547,0.31544 -1.74,0.46807 -0.875,0.16281 -1.7603,0.16281 -3.0831,0 -4.8231,-1.57718 -1.74,-1.58736 -1.74,-4.40593 0,-2.81857 1.74,-4.39574 1.74,-1.58736 4.8231,-1.58736 0.8954,0 1.7603,0.16281 0.8751,0.15263 1.74,0.46806 z m 14.042,9.39184 v 5.98311 h -3.6428 v -15.73108 h 3.6428 v 1.66875 q 0.753,-0.99718 1.6687,-1.46525 0.9158,-0.47824 2.1063,-0.47824 2.1063,0 3.4597,1.67893 1.3533,1.66876 1.3533,4.30417 0,2.63542 -1.3533,4.31435 -1.3534,1.66876 -3.4597,1.66876 -1.1905,0 -2.1063,-0.46807 -0.9157,-0.47824 -1.6687,-1.47543 z m 2.4217,-7.37712 q -1.1701,0 -1.801,0.86491 -0.6207,0.85472 -0.6207,2.4726 0,1.61788 0.6207,2.48279 0.6309,0.85473 1.801,0.85473 1.1702,0 1.7807,-0.85473 0.6207,-0.85473 0.6207,-2.48279 0,-1.62805 -0.6207,-2.48278 -0.6105,-0.85473 -1.7807,-0.85473 z m 13.9606,3.89716 q -1.1396,0 -1.7196,0.38666 -0.5699,0.38666 -0.5699,1.13964 0,0.69192 0.4579,1.08876 0.4681,0.38666 1.2923,0.38666 1.0277,0 1.7298,-0.73262 0.7021,-0.7428 0.7021,-1.85191 v -0.41719 z m 5.5659,-1.37367 v 6.50204 h -3.6733 v -1.68911 q -0.7326,1.03789 -1.6484,1.51613 -0.9158,0.46807 -2.2284,0.46807 -1.7705,0 -2.8796,-1.02771 -1.099,-1.03789 -1.099,-2.68629 0,-2.00455 1.3737,-2.94068 1.3839,-0.93613 4.3347,-0.93613 h 2.147 v -0.28491 q 0,-0.8649 -0.6817,-1.26174 -0.6818,-0.40702 -2.1267,-0.40702 -1.1702,0 -2.1775,0.23404 -1.0074,0.23403 -1.8723,0.7021 v -2.77787 q 1.1702,-0.28491 2.3505,-0.42737 1.1804,-0.15263 2.3607,-0.15263 3.0831,0 4.4466,1.22104 1.3737,1.21087 1.3737,3.94804 z m 11.8543,-1.79086 q -0.4783,-0.22386 -0.9565,-0.32561 -0.4681,-0.11193 -0.9463,-0.11193 -1.4042,0 -2.1674,0.9056 -0.7529,0.89543 -0.7529,2.57436 v 5.25048 h -3.6428 v -11.39638 h 3.6428 v 1.87226 q 0.7021,-1.11929 1.6077,-1.62805 0.9157,-0.51895 2.1877,-0.51895 0.1831,0 0.3968,0.0204 0.2137,0.0102 0.6207,0.0611 z m 5.7897,-6.33924 v 3.23576 h 3.7547 v 2.60488 h -3.7547 v 4.83329 q 0,0.79368 0.3155,1.07859 0.3154,0.27473 1.2515,0.27473 h 1.8723 v 2.60489 h -3.1238 q -2.1572,0 -3.0628,-0.89543 -0.8954,-0.90561 -0.8954,-3.06278 v -4.83329 h -1.8112 v -2.60488 h 1.8112 v -3.23576 z m 18.6616,5.56591 q -1.2108,0 -1.8519,0.87508 -0.6309,0.8649 -0.6309,2.50313 0,1.63823 0.6309,2.51331 0.6411,0.86491 1.8519,0.86491 1.1905,0 1.8214,-0.86491 0.6309,-0.87508 0.6309,-2.51331 0,-1.63823 -0.6309,-2.50313 -0.6309,-0.87508 -1.8214,-0.87508 z m 0,-2.60489 q 2.9407,0 4.5891,1.58736 1.6586,1.58735 1.6586,4.39574 0,2.8084 -1.6586,4.39575 -1.6484,1.58736 -4.5891,1.58736 -2.9508,0 -4.6196,-1.58736 -1.6586,-1.58735 -1.6586,-4.39575 0,-2.80839 1.6586,-4.39574 1.6688,-1.58736 4.6196,-1.58736 z m 16.3925,-4.16171 v 2.3912 h -2.0147 q -0.7733,0 -1.0786,0.28491 -0.3053,0.27474 -0.3053,0.96666 v 0.79368 h 3.1137 v 2.60488 h -3.1137 v 8.7915 h -3.6427 v -8.7915 h -1.8112 v -2.60488 h 1.8112 V 146.256 q 0,-1.86209 1.0378,-2.74734 1.0379,-0.89543 3.2155,-0.89543 z m 13.93,10.70446 q -1.1396,0 -1.7196,0.38666 -0.5698,0.38666 -0.5698,1.13964 0,0.69192 0.4579,1.08876 0.468,0.38666 1.2922,0.38666 1.0278,0 1.7299,-0.73262 0.7021,-0.7428 0.7021,-1.85191 v -0.41719 z m 5.566,-1.37367 v 6.50204 h -3.6733 v -1.68911 q -0.7327,1.03789 -1.6485,1.51613 -0.9157,0.46807 -2.2284,0.46807 -1.7705,0 -2.8796,-1.02771 -1.0989,-1.03789 -1.0989,-2.68629 0,-2.00455 1.3737,-2.94068 1.3838,-0.93613 4.3347,-0.93613 h 2.147 v -0.28491 q 0,-0.8649 -0.6818,-1.26174 -0.6817,-0.40702 -2.1266,-0.40702 -1.1702,0 -2.1776,0.23404 -1.0073,0.23403 -1.8722,0.7021 v -2.77787 q 1.1701,-0.28491 2.3505,-0.42737 1.1803,-0.15263 2.3607,-0.15263 3.0831,0 4.4466,1.22104 1.3737,1.21087 1.3737,3.94804 z m 14.8458,-0.43754 v 6.93958 h -3.6632 v -1.12946 -4.18207 q 0,-1.47542 -0.071,-2.03507 -0.061,-0.55964 -0.2238,-0.8242 -0.2137,-0.35614 -0.58,-0.54947 -0.3663,-0.2035 -0.8344,-0.2035 -1.1397,0 -1.7909,0.88525 -0.6512,0.87508 -0.6512,2.43191 v 5.60661 h -3.6428 v -11.39638 h 3.6428 v 1.66875 q 0.8242,-0.99718 1.7502,-1.46525 0.9259,-0.47824 2.0452,-0.47824 1.974,0 2.9916,1.21087 1.0277,1.21086 1.0277,3.52067 z"
               id="path1" /><path
               d="m 971.42459,179.36657 q -1.13964,0 -1.71964,0.38666 -0.56982,0.38666 -0.56982,1.13964 0,0.69192 0.4579,1.08876 0.46806,0.38666 1.29226,0.38666 1.02771,0 1.72981,-0.73262 0.7021,-0.7428 0.7021,-1.85191 v -0.41719 z m 5.56591,-1.37367 v 6.50204 h -3.6733 v -1.68911 q -0.73262,1.03789 -1.64841,1.51613 -0.91578,0.46806 -2.2284,0.46806 -1.7705,0 -2.87962,-1.0277 -1.09893,-1.03789 -1.09893,-2.6863 0,-2.00454 1.37367,-2.94067 1.38384,-0.93613 4.33469,-0.93613 h 2.147 v -0.28491 q 0,-0.8649 -0.68175,-1.26174 -0.68175,-0.40702 -2.12664,-0.40702 -1.17017,0 -2.17753,0.23404 -1.00736,0.23403 -1.87226,0.7021 v -2.77787 q 1.17016,-0.28491 2.3505,-0.42737 1.18034,-0.15263 2.36068,-0.15263 3.08313,0 4.44663,1.22104 1.37367,1.21087 1.37367,3.94804 z m 12.29181,-4.53821 v 2.7677 q -1.17016,-0.48842 -2.25892,-0.73263 -1.08877,-0.24421 -2.05542,-0.24421 -1.03789,0 -1.54666,0.26456 -0.49859,0.25439 -0.49859,0.79368 0,0.43754 0.37649,0.67157 0.38666,0.23404 1.37367,0.34596 l 0.64105,0.0916 q 2.79822,0.35614 3.76487,1.17017 0.96666,0.81402 0.96666,2.55401 0,1.82138 -1.34314,2.73716 -1.34315,0.91578 -4.00909,0.91578 -1.12946,0 -2.34033,-0.18315 -1.20069,-0.17298 -2.4726,-0.52912 v -2.76769 q 1.08876,0.52912 2.2284,0.79367 1.14981,0.26456 2.33015,0.26456 1.06841,0 1.6077,-0.29508 0.5393,-0.29509 0.5393,-0.87508 0,-0.48842 -0.37649,-0.72245 -0.36631,-0.24421 -1.47543,-0.37649 l -0.64104,-0.0814 q -2.43191,-0.30526 -3.40874,-1.12946 -0.97683,-0.82421 -0.97683,-2.50314 0,-1.81121 1.24139,-2.68629 1.24139,-0.87508 3.80557,-0.87508 1.00736,0 2.11648,0.15263 1.10911,0.15263 2.41155,0.47824 z m 2.00454,-0.35613 h 3.64278 l 3.06277,7.73326 2.6049,-7.73326 h 3.6428 l -4.79262,12.47497 q -0.72245,1.90278 -1.68911,2.65576 -0.95648,0.76315 -2.53366,0.76315 h -2.10629 v -2.3912 h 1.13963 q 0.92596,0 1.34315,-0.29509 0.42736,-0.29508 0.6614,-1.05824 l 0.10175,-0.31543 z m 25.64185,1.89261 q 0.6919,-1.05824 1.6382,-1.6077 0.9565,-0.55965 2.0962,-0.55965 1.9638,0 2.9915,1.21087 1.0277,1.21086 1.0277,3.52067 v 6.93958 h -3.6631 v -5.9424 q 0.01,-0.13228 0.01,-0.27473 0.01,-0.14246 0.01,-0.40702 0,-1.21086 -0.3562,-1.75016 -0.3561,-0.54947 -1.1498,-0.54947 -1.0379,0 -1.6077,0.85473 -0.5596,0.85473 -0.58,2.47261 v 5.59644 h -3.6631 v -5.9424 q 0,-1.89261 -0.3256,-2.43191 -0.3256,-0.54947 -1.16,-0.54947 -1.0481,0 -1.6179,0.86491 -0.5698,0.85473 -0.5698,2.45226 v 5.60661 h -3.6631 v -11.39638 h 3.6631 v 1.66875 q 0.6716,-0.96665 1.5365,-1.45507 0.875,-0.48842 1.9231,-0.48842 1.1803,0 2.0859,0.56982 0.9057,0.56982 1.3737,1.59753 z m 21.7142,0 q 0.6919,-1.05824 1.6382,-1.6077 0.9565,-0.55965 2.0961,-0.55965 1.9639,0 2.9916,1.21087 1.0277,1.21086 1.0277,3.52067 v 6.93958 h -3.6631 v -5.9424 q 0.01,-0.13228 0.01,-0.27473 0.01,-0.14246 0.01,-0.40702 0,-1.21086 -0.3561,-1.75016 -0.3561,-0.54947 -1.1498,-0.54947 -1.0379,0 -1.6077,0.85473 -0.5597,0.85473 -0.58,2.47261 v 5.59644 h -3.6631 v -5.9424 q 0,-1.89261 -0.3256,-2.43191 -0.3257,-0.54947 -1.16,-0.54947 -1.0481,0 -1.6179,0.86491 -0.5698,0.85473 -0.5698,2.45226 v 5.60661 h -3.6632 v -11.39638 h 3.6632 v 1.66875 q 0.6715,-0.96665 1.5364,-1.45507 0.8751,-0.48842 1.9232,-0.48842 1.1803,0 2.0859,0.56982 0.9056,0.56982 1.3737,1.59753 z m 22.5282,3.77505 v 1.03789 h -8.5168 q 0.1323,1.28209 0.926,1.92314 0.7937,0.64104 2.2182,0.64104 1.1498,0 2.3505,-0.33578 1.2109,-0.34596 2.4828,-1.03789 v 2.8084 q -1.2923,0.48841 -2.5845,0.73262 -1.2923,0.25438 -2.5846,0.25438 -3.0933,0 -4.8129,-1.567 -1.7095,-1.57718 -1.7095,-4.4161 0,-2.78804 1.679,-4.38557 1.6891,-1.59753 4.6399,-1.59753 2.6863,0 4.294,1.61788 1.6179,1.61788 1.6179,4.32452 z m -3.7445,-1.21086 q 0,-1.03789 -0.6105,-1.66876 -0.6004,-0.64105 -1.5772,-0.64105 -1.0583,0 -1.7197,0.60035 -0.6613,0.59017 -0.8242,1.70946 z m 10.4806,-7.69256 v 3.23576 h 3.7547 v 2.60488 h -3.7547 v 4.83329 q 0,0.79368 0.3154,1.07859 0.3154,0.27473 1.2516,0.27473 h 1.8722 v 2.60489 h -3.1238 q -2.1572,0 -3.0628,-0.89543 -0.8954,-0.90561 -0.8954,-3.06278 v -4.83329 h -1.8112 v -2.60488 h 1.8112 v -3.23576 z m 14.449,6.33924 q -0.4783,-0.22386 -0.9565,-0.32561 -0.4681,-0.11193 -0.9463,-0.11193 -1.4042,0 -2.1674,0.9056 -0.7529,0.89543 -0.7529,2.57436 v 5.25048 h -3.6428 v -11.39638 h 3.6428 v 1.87226 q 0.7021,-1.11929 1.6077,-1.62805 0.9157,-0.51895 2.1877,-0.51895 0.1831,0 0.3968,0.0203 0.2137,0.0102 0.6207,0.0611 z m 1.8112,-3.10348 h 3.6427 v 11.39638 h -3.6427 z m 0,-4.43645 h 3.6427 v 2.9712 h -3.6427 z m 16.3517,4.79258 v 2.9712 q -0.7428,-0.50876 -1.4957,-0.75297 -0.7428,-0.24421 -1.5467,-0.24421 -1.5263,0 -2.381,0.89543 -0.8446,0.88526 -0.8446,2.48278 0,1.59753 0.8446,2.49296 0.8547,0.88526 2.381,0.88526 0.8547,0 1.6179,-0.25439 0.7733,-0.25438 1.4245,-0.75297 v 2.98137 q -0.8547,0.31544 -1.7399,0.46807 -0.8751,0.1628 -1.7604,0.1628 -3.0831,0 -4.8231,-1.57717 -1.74,-1.58736 -1.74,-4.40593 0,-2.81857 1.74,-4.39574 1.74,-1.58736 4.8231,-1.58736 0.8955,0 1.7604,0.16281 0.875,0.15263 1.7399,0.46806 z m 10.3992,-4.79258 h 3.6428 v 8.61851 l 4.1923,-4.18206 h 4.2329 l -5.5659,5.23012 6.0034,6.16626 h -4.4161 l -4.4466,-4.75188 v 4.75188 h -3.6428 z m 24.6753,10.10411 v 1.03789 h -8.5168 q 0.1323,1.28209 0.9259,1.92314 0.7937,0.64104 2.2183,0.64104 1.1498,0 2.3505,-0.33578 1.2108,-0.34596 2.4828,-1.03789 v 2.8084 q -1.2923,0.48841 -2.5846,0.73262 -1.2922,0.25438 -2.5845,0.25438 -3.0933,0 -4.813,-1.567 -1.7094,-1.57718 -1.7094,-4.4161 0,-2.78804 1.6789,-4.38557 1.6891,-1.59753 4.64,-1.59753 2.6863,0 4.294,1.61788 1.6179,1.61788 1.6179,4.32452 z m -3.7446,-1.21086 q 0,-1.03789 -0.6105,-1.66876 -0.6003,-0.64105 -1.5772,-0.64105 -1.0582,0 -1.7196,0.60035 -0.6614,0.59017 -0.8242,1.70946 z m 5.0063,-4.4568 h 3.6428 l 3.0627,7.73326 2.6049,-7.73326 h 3.6428 l -4.7926,12.47497 q -0.7224,1.90278 -1.6891,2.65576 -0.9565,0.76315 -2.5337,0.76315 h -2.1062 v -2.3912 h 1.1396 q 0.9259,0 1.3431,-0.29509 0.4274,-0.29508 0.6614,-1.05824 l 0.1018,-0.31543 z m 18.7226,9.74797 v 5.98311 h -3.6427 v -15.73108 h 3.6427 v 1.66875 q 0.753,-0.99718 1.6688,-1.46525 0.9158,-0.47824 2.1063,-0.47824 2.1063,0 3.4596,1.67893 1.3533,1.66876 1.3533,4.30417 0,2.63542 -1.3533,4.31435 -1.3533,1.66875 -3.4596,1.66875 -1.1905,0 -2.1063,-0.46806 -0.9158,-0.47824 -1.6688,-1.47543 z m 2.4218,-7.37712 q -1.1702,0 -1.8011,0.86491 -0.6207,0.85472 -0.6207,2.4726 0,1.61788 0.6207,2.48279 0.6309,0.85473 1.8011,0.85473 1.1701,0 1.7806,-0.85473 0.6207,-0.85473 0.6207,-2.48279 0,-1.62805 -0.6207,-2.48278 -0.6105,-0.85473 -1.7806,-0.85473 z m 13.9605,3.89716 q -1.1396,0 -1.7196,0.38666 -0.5698,0.38666 -0.5698,1.13964 0,0.69192 0.4579,1.08876 0.468,0.38666 1.2922,0.38666 1.0277,0 1.7298,-0.73262 0.7021,-0.7428 0.7021,-1.85191 v -0.41719 z m 5.5659,-1.37367 v 6.50204 h -3.6733 v -1.68911 q -0.7326,1.03789 -1.6484,1.51613 -0.9157,0.46806 -2.2284,0.46806 -1.7705,0 -2.8796,-1.0277 -1.0989,-1.03789 -1.0989,-2.6863 0,-2.00454 1.3737,-2.94067 1.3838,-0.93613 4.3346,-0.93613 h 2.147 v -0.28491 q 0,-0.8649 -0.6817,-1.26174 -0.6818,-0.40702 -2.1266,-0.40702 -1.1702,0 -2.1776,0.23404 -1.0073,0.23403 -1.8722,0.7021 v -2.77787 q 1.1701,-0.28491 2.3505,-0.42737 1.1803,-0.15263 2.3606,-0.15263 3.0832,0 4.4467,1.22104 1.3736,1.21087 1.3736,3.94804 z m 3.3884,-4.89434 h 3.6428 v 11.39638 h -3.6428 z m 0,-4.43645 h 3.6428 v 2.9712 h -3.6428 z m 15.609,7.53993 q -0.4782,-0.22386 -0.9565,-0.32561 -0.4681,-0.11193 -0.9463,-0.11193 -1.4042,0 -2.1673,0.9056 -0.753,0.89543 -0.753,2.57436 v 5.25048 h -3.6428 v -11.39638 h 3.6428 v 1.87226 q 0.7021,-1.11929 1.6077,-1.62805 0.9158,-0.51895 2.1877,-0.51895 0.1831,0 0.3968,0.0203 0.2137,0.0102 0.6207,0.0611 z"
               id="path2" /></g></g></g><path
         id="path2-1-4-5-4"
         style="display:inline;fill:none;fill-opacity:1;stroke:#006961;stroke-width:10.4431;stroke-linecap:round;stroke-dasharray:none;stroke-opacity:1"
         d="m 156.30312,759.25868 c -9.78054,19.91382 -30.12868,33.02384 -53.81237,33.02384 -33.173715,0 -60.066326,-26.89261 -60.066326,-60.06633 0,-33.17372 26.892611,-60.06633 60.066326,-60.06633 23.31181,0 43.58824,15.15712 53.54415,34.5646 m -9.14624,1.20213 h 4.97796 c 10.89491,0.20296 25.86265,0 38.79397,0 l 11.43353,7.63836 14.59897,-7.63836 14.59896,7.3422 h 10.87817 l 11.54761,-7.3422 17.66083,7.3422 16.34856,-7.34219 22,25.45886 -22,25.45887 h -135.8606 -4.97796 M 89.058073,732.21619 c -4e-6,6.98969 -5.666271,12.65596 -12.655965,12.65596 -6.989695,0 -12.655963,-5.66627 -12.655967,-12.65596 -2e-6,-6.9897 5.666268,-12.65597 12.655967,-12.65597 6.989698,0 12.655967,5.66627 12.655965,12.65597 z"
         transform="matrix(0.5520304,0,0,-0.5520304,-961.5735,865.9823)" /><path
         style="font-weight:500;font-size:21.3333px;font-family:Montserrat;-inkscape-font-specification:'Montserrat Medium';font-variation-settings:'wght' 500;fill:#3e4349;stroke-width:3.5;stroke-linecap:round;stroke-linejoin:round;paint-order:markers fill stroke"
         d="m -1078.6274,453.89512 v 5.84374 h 2.6458 q 1.4688,0 2.2709,-0.76041 0.802,-0.76042 0.802,-2.16667 0,-1.39583 -0.802,-2.15624 -0.8021,-0.76042 -2.2709,-0.76042 z m -2.1042,-1.72916 h 4.75 q 2.6146,0 3.9479,1.1875 1.3438,1.17708 1.3438,3.45832 0,2.30208 -1.3438,3.47917 -1.3333,1.17708 -3.9479,1.17708 h -2.6458 v 6.24999 h -2.1042 z m 12.2083,10.9479 v -7.06249 h 1.9167 v 6.98957 q 0,1.65625 0.6458,2.48958 0.6459,0.82292 1.9375,0.82292 1.5521,0 2.4479,-0.98959 0.9063,-0.98958 0.9063,-2.69791 v -6.61457 h 1.9167 v 11.66665 h -1.9167 v -1.79167 q -0.6979,1.0625 -1.625,1.58333 -0.9167,0.51042 -2.1354,0.51042 -2.0104,0 -3.0521,-1.25 -1.0417,-1.25 -1.0417,-3.65624 z m 4.823,-7.34374 z m 17.2708,6.12499 q 0,-2.11458 -0.875,-3.31249 -0.8646,-1.20834 -2.3855,-1.20834 -1.5208,0 -2.3958,1.20834 -0.8646,1.19791 -0.8646,3.31249 0,2.11458 0.8646,3.32291 0.875,1.19792 2.3958,1.19792 1.5209,0 2.3855,-1.19792 0.875,-1.20833 0.875,-3.32291 z m -6.5209,-4.07291 q 0.6042,-1.04167 1.5209,-1.54166 0.927,-0.51042 2.2083,-0.51042 2.125,0 3.4479,1.6875 1.3333,1.68749 1.3333,4.43749 0,2.75 -1.3333,4.43749 -1.3229,1.6875 -3.4479,1.6875 -1.2813,0 -2.2083,-0.5 -0.9167,-0.51041 -1.5209,-1.55208 v 1.75 h -1.927 v -16.20831 h 1.927 z m 11.6875,-6.31249 h 1.9167 v 16.20831 h -1.9167 z m 5.9271,4.54166 h 1.9167 v 11.66665 h -1.9167 z m 0,-4.54166 h 1.9167 v 2.42708 h -1.9167 z m 14.3229,4.98958 v 1.79166 q -0.8125,-0.44792 -1.6354,-0.66667 -0.8125,-0.22916 -1.6459,-0.22916 -1.8645,0 -2.8958,1.1875 -1.0312,1.17708 -1.0312,3.31249 0,2.13541 1.0312,3.32291 1.0313,1.17708 2.8958,1.17708 0.8334,0 1.6459,-0.21875 0.8229,-0.22916 1.6354,-0.67708 v 1.77083 q -0.8021,0.375 -1.6667,0.5625 -0.8541,0.1875 -1.8229,0.1875 -2.6354,0 -4.1875,-1.65625 -1.5521,-1.65624 -1.5521,-4.46874 0,-2.85416 1.5625,-4.48958 1.5729,-1.63541 4.3021,-1.63541 0.8854,0 1.7292,0.1875 0.8437,0.17708 1.6354,0.54167 z m 10.1979,-4.33333 h 2.1041 v 6.57291 l 6.9792,-6.57291 h 2.70833 l -7.71873,7.24999 8.27082,8.30207 h -2.77082 l -7.4688,-7.48957 v 7.48957 h -2.1041 z m 22.82287,9.23957 v 0.9375 h -8.81249 q 0.125,1.97916 1.1875,3.02082 1.07291,1.03125 2.97916,1.03125 1.10417,0 2.13541,-0.27083 1.04167,-0.27083 2.0625,-0.8125 v 1.8125 q -1.03125,0.4375 -2.11458,0.66666 -1.08333,0.22917 -2.19791,0.22917 -2.79166,0 -4.42708,-1.625 -1.625,-1.62499 -1.625,-4.39582 0,-2.86458 1.54167,-4.54166 1.55208,-1.6875 4.17708,-1.6875 2.35416,0 3.71874,1.52083 1.375,1.51041 1.375,4.11458 z m -1.91667,-0.5625 q -0.0208,-1.57292 -0.88541,-2.51041 -0.85417,-0.9375 -2.27083,-0.9375 -1.60417,0 -2.57291,0.90625 -0.95834,0.90624 -1.10417,2.55208 z m 9.91665,7.95832 q -0.8125,2.08333 -1.58333,2.71874 -0.77083,0.63542 -2.0625,0.63542 h -1.53124 v -1.60416 h 1.125 q 0.79166,0 1.22916,-0.375 0.4375,-0.375 0.96875,-1.77083 l 0.34375,-0.875 -4.71874,-11.47915 h 2.03124 l 3.64583,9.12498 3.64583,-9.12498 h 2.03124 z"
         id="text11-2-1-8-9"
         aria-label="Public Key" /></g></g></svg>
