<?xml version="1.0" encoding="UTF-8" standalone="no"?>
<svg
   viewBox="0 0 661.34149 269.23938"
   version="1.1"
   id="svg1"
   width="661.34149"
   height="269.23938"
   xml:space="preserve"
   xmlns="http://www.w3.org/2000/svg"
   xmlns:svg="http://www.w3.org/2000/svg"><defs
     id="defs1"><linearGradient
       id="swatch251"><stop
         style="stop-color:#195962;stop-opacity:1;"
         offset="0"
         id="stop251" /></linearGradient><filter
       style="color-interpolation-filters:sRGB"
       id="filter90-2-0"
       x="-0.019165826"
       y="-0.028762213"
       width="1.0414438"
       height="1.0655139"><feFlood
         result="flood"
         in="SourceGraphic"
         flood-opacity="0.796078"
         flood-color="rgb(62,67,73)"
         id="feFlood89-3-6" /><feGaussianBlur
         result="blur"
         in="SourceGraphic"
         stdDeviation="2.132 0"
         id="feGaussianBlur89-7-8" /><feOffset
         result="offset"
         in="blur"
         dx="1.000000"
         dy="1.000000"
         id="feOffset89-5-9" /><feComposite
         result="comp1"
         operator="in"
         in="flood"
         in2="offset"
         id="feComposite89-9-2" /><feComposite
         result="fbSourceGraphic"
         operator="over"
         in="SourceGraphic"
         in2="comp1"
         id="feComposite90-2-6" /><feColorMatrix
         result="fbSourceGraphicAlpha"
         in="fbSourceGraphic"
         values="0 0 0 -1 0 0 0 0 -1 0 0 0 0 -1 0 0 0 0 1 0"
         id="feColorMatrix90-2-6" /><feFlood
         id="feFlood90-8-4"
         result="flood"
         in="fbSourceGraphic"
         flood-opacity="0.796078"
         flood-color="rgb(62,67,73)" /><feGaussianBlur
         id="feGaussianBlur90-9-9"
         result="blur"
         in="fbSourceGraphic"
         stdDeviation="3.000000" /><feOffset
         id="feOffset90-7-5"
         result="offset"
         in="blur"
         dx="1.000000"
         dy="1.000000" /><feComposite
         id="feComposite91-3-0"
         result="comp1"
         operator="in"
         in="flood"
         in2="offset" /><feComposite
         id="feComposite92-6-4"
         result="comp2"
         operator="over"
         in="fbSourceGraphic"
         in2="comp1" /></filter></defs><!--! Font Awesome Pro 6.4.2 by @fontawesome - https://fontawesome.com License - https://fontawesome.com/license (Commercial License) Copyright 2023 Fonticons, Inc. --><g
     id="layer10"
     transform="translate(1251.7023,-966.50111)"><g
       id="layer6-2"
       style="display:inline;fill:#61a78d;fill-opacity:1"
       transform="translate(-0.95068361,669.62611)"><path
         style="display:inline;fill:#ffffff;fill-opacity:1;stroke:none;stroke-width:1.31168;stroke-linecap:butt;stroke-linejoin:miter;stroke-dasharray:none;stroke-dashoffset:0;stroke-opacity:1;paint-order:fill markers stroke;filter:url(#filter90-2-0)"
         id="rect65-7"
         width="642.6438"
         height="250.32849"
         x="825.70776"
         y="875.02576"
         transform="matrix(0.7953885,0,0,0.84925697,-1832.6321,-407.60505)"
         d="m 855.24156,875.02576 h 583.57624 c 16.3617,0 29.5338,12.33657 29.5338,27.66046 v 195.00758 c 0,15.3239 -13.1721,27.6604 -29.5338,27.6604 H 855.24156 c -16.36172,0 -29.5338,-12.3365 -29.5338,-27.6604 V 902.68622 c 0,-15.32389 13.17208,-27.66046 29.5338,-27.66046 z"
         ry="27.660467"
         rx="29.5338" /><g
         id="g11-8-2"
         transform="matrix(0.86376245,0,0,0.86376245,-1913.5458,171.61913)"><rect
           style="font-variation-settings:'wght' 700;fill:#195962;stroke-width:2.53446;stroke-linecap:round;stroke-linejoin:round;paint-order:markers fill stroke"
           id="rect1-9-2"
           width="272.103"
           height="73.842331"
           x="914.89185"
           y="156.37508" /><g
           id="g4-7-6"
           transform="translate(-11.145477,39.927363)"><rect
             style="font-variation-settings:'wght' 700;fill:#e6e6e6;fill-opacity:1;stroke-width:2.49322;stroke-linecap:round;stroke-linejoin:round;paint-order:markers fill stroke"
             id="rect1-3-7-1"
             width="272.53439"
             height="71.346413"
             x="917.30688"
             y="126.45267" /><g
             id="text1-6-0"
             style="font-weight:600;font-size:20.8391px;font-family:Montserrat;-inkscape-font-specification:'Montserrat, Semi-Bold';white-space:pre;inline-size:235.782;fill:#3e4349;stroke-width:3.5;stroke-linecap:round;stroke-linejoin:round;paint-order:markers fill stroke"
             transform="translate(-15.170772,-2.4355768)"
             aria-label="Public part of an asymmetric keypair"><path
               d="m 972.52694,143.85869 q 1.89636,0 3.29258,0.62517 1.41706,0.62518 2.16727,1.79217 0.7502,1.16699 0.7502,2.7716 0,1.58377 -0.7502,2.7716 -0.75021,1.16699 -2.16727,1.79216 -1.39622,0.62517 -3.29258,0.62517 h -3.29258 v 4.2095 h -2.70908 v -14.58737 z m -0.12503,8.08557 q 1.77132,0 2.68824,-0.75021 0.91692,-0.7502 0.91692,-2.14642 0,-1.39622 -0.91692,-2.14643 -0.91692,-0.75021 -2.68824,-0.75021 h -3.16755 v 5.79327 z m 17.17141,-4.62628 h 2.60489 v 11.12808 h -2.47985 V 157.029 q -0.62518,0.75021 -1.56294,1.16699 -0.93775,0.39594 -2.02139,0.39594 -2.22978,0 -3.52181,-1.2295 -1.27118,-1.25035 -1.27118,-3.68852 v -6.35593 h 2.60489 v 6.00166 q 0,1.50042 0.66685,2.25062 0.68769,0.72937 1.93803,0.72937 1.39622,0 2.20895,-0.8544 0.83356,-0.87524 0.83356,-2.50069 z m 12.19088,-0.12503 q 1.6254,0 2.8966,0.70853 1.292,0.70853 2.0214,2.00055 0.7294,1.29202 0.7294,2.97999 0,1.68797 -0.7294,3.00083 -0.7294,1.29203 -2.0214,2.00055 -1.2712,0.70853 -2.8966,0.70853 -1.1462,0 -2.10476,-0.39594 -0.93776,-0.39594 -1.58377,-1.18783 v 1.4379 h -2.47985 v -15.46261 h 2.60488 v 5.68907 q 0.66686,-0.72937 1.56294,-1.10447 0.91696,-0.3751 2.00056,-0.3751 z m -0.2918,9.1692 q 1.4379,0 2.3549,-0.9586 0.9377,-0.9586 0.9377,-2.52153 0,-1.56293 -0.9377,-2.52153 -0.917,-0.9586 -2.3549,-0.9586 -0.9377,0 -1.68792,0.43762 -0.75021,0.41678 -1.18783,1.20867 -0.43762,0.79189 -0.43762,1.83384 0,1.04196 0.43762,1.83384 0.43762,0.79189 1.18783,1.22951 0.75022,0.41678 1.68792,0.41678 z m 11.0239,2.08391 h -2.6048 v -15.46261 h 2.6048 z m 6.0225,0 h -2.6049 v -11.12808 h 2.6049 z m -1.292,-12.96192 q -0.7085,0 -1.1878,-0.43762 -0.4793,-0.45846 -0.4793,-1.12531 0,-0.66685 0.4793,-1.10447 0.4793,-0.45846 1.1878,-0.45846 0.7085,0 1.1878,0.43762 0.4793,0.41678 0.4793,1.06279 0,0.68769 -0.4793,1.16699 -0.4584,0.45846 -1.1878,0.45846 z m 9.8152,13.10779 q -1.7296,0 -3.105,-0.72936 -1.3754,-0.72937 -2.1464,-2.0214 -0.7711,-1.31286 -0.7711,-2.95915 0,-1.64629 0.7711,-2.93831 0.771,-1.29203 2.1256,-2.0214 1.3753,-0.72936 3.1258,-0.72936 1.6463,0 2.8758,0.66685 1.2504,0.66685 1.8755,1.91719 l -2.0005,1.16699 q -0.4793,-0.77104 -1.2087,-1.14615 -0.7085,-0.39594 -1.5629,-0.39594 -1.4588,0 -2.4174,0.9586 -0.9586,0.93776 -0.9586,2.52153 0,1.58377 0.9378,2.54237 0.9586,0.93776 2.4382,0.93776 0.8544,0 1.5629,-0.3751 0.7294,-0.39595 1.2087,-1.16699 l 2.0005,1.16699 q -0.646,1.25034 -1.8963,1.93803 -1.2295,0.66685 -2.855,0.66685 z m 18.9219,-11.39898 q 1.6254,0 2.8966,0.70853 1.292,0.70853 2.0214,2.00055 0.7294,1.29202 0.7294,2.97999 0,1.68797 -0.7294,3.00083 -0.7294,1.29203 -2.0214,2.00055 -1.2712,0.70853 -2.8966,0.70853 -2.2506,0 -3.5635,-1.50041 v 5.39733 h -2.6049 v -15.17087 h 2.4799 v 1.45874 q 0.646,-0.79189 1.5837,-1.18783 0.9586,-0.39594 2.1048,-0.39594 z m -0.2918,9.1692 q 1.4379,0 2.3549,-0.9586 0.9377,-0.9586 0.9377,-2.52153 0,-1.56293 -0.9377,-2.52153 -0.917,-0.9586 -2.3549,-0.9586 -0.9377,0 -1.6879,0.43762 -0.7502,0.41678 -1.1879,1.20867 -0.4376,0.79189 -0.4376,1.83384 0,1.04196 0.4376,1.83384 0.4377,0.79189 1.1879,1.22951 0.7502,0.41678 1.6879,0.41678 z m 12.5244,-9.1692 q 2.459,0 3.751,1.18782 1.3129,1.16699 1.3129,3.54265 v 6.52264 h -2.4591 v -1.35454 q -0.4793,0.72937 -1.3753,1.12531 -0.8753,0.3751 -2.1256,0.3751 -1.2504,0 -2.1881,-0.41678 -0.9378,-0.43762 -1.4588,-1.18783 -0.5001,-0.77104 -0.5001,-1.72964 0,-1.50042 1.1045,-2.3965 1.1253,-0.91692 3.5218,-0.91692 h 2.8758 v -0.16671 q 0,-1.16699 -0.7086,-1.79216 -0.6877,-0.62518 -2.063,-0.62518 -0.9378,0 -1.8547,0.29175 -0.8961,0.29175 -1.5213,0.81272 l -1.0211,-1.89635 q 0.8753,-0.66685 2.1048,-1.02112 1.2295,-0.35426 2.6049,-0.35426 z m -0.3543,9.50263 q 0.9794,0 1.7296,-0.43763 0.7711,-0.45846 1.0837,-1.29202 v -1.29202 h -2.6883 q -2.2506,0 -2.2506,1.47957 0,0.70853 0.5627,1.12531 0.5626,0.41679 1.5629,0.41679 z m 11.2323,-7.75215 q 1.1253,-1.75048 3.9594,-1.75048 v 2.47985 q -0.3334,-0.0625 -0.6043,-0.0625 -1.5213,0 -2.3757,0.89608 -0.8544,0.87525 -0.8544,2.54237 v 5.39733 h -2.6049 v -11.12808 h 2.4799 z m 13.2745,8.8983 q -0.4585,0.3751 -1.1253,0.56265 -0.6461,0.18755 -1.3754,0.18755 -1.8339,0 -2.8341,-0.95859 -1.0003,-0.9586 -1.0003,-2.79244 v -5.35565 h -1.8339 v -2.08391 h 1.8339 v -2.54237 h 2.6049 v 2.54237 h 2.98 v 2.08391 h -2.98 v 5.29313 q 0,0.81272 0.3959,1.25034 0.396,0.41679 1.1462,0.41679 0.8752,0 1.4587,-0.45846 z m 12.8994,0.7502 q -1.688,0 -3.0426,-0.72936 -1.3545,-0.72937 -2.1255,-2.0214 -0.7503,-1.31286 -0.7503,-2.95915 0,-1.64629 0.7503,-2.93831 0.771,-1.29203 2.1255,-2.0214 1.3546,-0.72936 3.0426,-0.72936 1.7088,0 3.0633,0.72936 1.3545,0.72937 2.1047,2.0214 0.7711,1.29202 0.7711,2.93831 0,1.64629 -0.7711,2.95915 -0.7502,1.29203 -2.1047,2.0214 -1.3545,0.72936 -3.0633,0.72936 z m 0,-2.22978 q 1.4379,0 2.3756,-0.9586 0.9378,-0.9586 0.9378,-2.52153 0,-1.56293 -0.9378,-2.52153 -0.9377,-0.9586 -2.3756,-0.9586 -1.4379,0 -2.3757,0.9586 -0.9169,0.9586 -0.9169,2.52153 0,1.56293 0.9169,2.52153 0.9378,0.9586 2.3757,0.9586 z m 12.9619,-11.41983 q -1.6463,0 -1.6463,1.79217 v 0.66685 h 3.0633 v 2.08391 h -2.98 v 8.96081 h -2.6048 v -8.96081 h -1.8339 v -2.08391 h 1.8339 v -0.70853 q 0,-1.79216 1.0419,-2.81328 1.042,-1.04196 2.9383,-1.04196 1.5004,0 2.3548,0.60434 l -0.7293,1.95887 q -0.6669,-0.45846 -1.4379,-0.45846 z m 13.1703,2.25063 q 2.459,0 3.751,1.18782 1.3129,1.16699 1.3129,3.54265 v 6.52264 h -2.4591 v -1.35454 q -0.4793,0.72937 -1.3753,1.12531 -0.8753,0.3751 -2.1256,0.3751 -1.2504,0 -2.1881,-0.41678 -0.9378,-0.43762 -1.4588,-1.18783 -0.5001,-0.77104 -0.5001,-1.72964 0,-1.50042 1.1045,-2.3965 1.1253,-0.91692 3.5218,-0.91692 h 2.8758 v -0.16671 q 0,-1.16699 -0.7086,-1.79216 -0.6876,-0.62518 -2.063,-0.62518 -0.9378,0 -1.8547,0.29175 -0.8961,0.29175 -1.5213,0.81272 l -1.0211,-1.89635 q 0.8753,-0.66685 2.1048,-1.02112 1.2295,-0.35426 2.6049,-0.35426 z m -0.3543,9.50263 q 0.9794,0 1.7296,-0.43763 0.7711,-0.45846 1.0837,-1.29202 v -1.29202 h -2.6883 q -2.2506,0 -2.2506,1.47957 0,0.70853 0.5627,1.12531 0.5626,0.41679 1.5629,0.41679 z m 15.0667,-9.50263 q 2.1047,0 3.3759,1.2295 1.2712,1.22951 1.2712,3.64685 v 6.37676 h -2.6049 v -6.04334 q 0,-1.45874 -0.6877,-2.1881 -0.6877,-0.75021 -1.9589,-0.75021 -1.4379,0 -2.2714,0.87524 -0.8336,0.8544 -0.8336,2.47985 v 5.62656 h -2.6049 v -11.12808 h 2.4799 v 1.4379 q 0.646,-0.77105 1.6254,-1.16699 0.9795,-0.39594 2.209,-0.39594 z"
               id="path1" /><path
               d="m 970.52639,173.24183 q 2.45901,0 3.75104,1.18782 1.31286,1.16699 1.31286,3.54265 v 6.52264 h -2.45901 v -1.35454 q -0.4793,0.72937 -1.37538,1.12531 -0.87525,0.3751 -2.12559,0.3751 -1.25035,0 -2.18811,-0.41678 -0.93776,-0.43762 -1.45873,-1.18783 -0.50014,-0.77104 -0.50014,-1.72964 0,-1.50042 1.10447,-2.3965 1.12531,-0.91692 3.52181,-0.91692 h 2.87579 v -0.16671 q 0,-1.16699 -0.70853,-1.79216 -0.68769,-0.62518 -2.06307,-0.62518 -0.93776,0 -1.85468,0.29175 -0.89608,0.29175 -1.52125,0.81272 l -1.02112,-1.89635 q 0.87524,-0.66685 2.10475,-1.02112 1.22951,-0.35426 2.60489,-0.35426 z m -0.35427,9.50263 q 0.97944,0 1.72965,-0.43763 0.77105,-0.45846 1.08363,-1.29202 v -1.29202 h -2.68824 q -2.25062,0 -2.25062,1.47957 0,0.70853 0.56265,1.12531 0.56266,0.41679 1.56293,0.41679 z m 12.19088,1.89635 q -1.35454,0 -2.64656,-0.35426 -1.29203,-0.35427 -2.06307,-0.89608 l 1.00027,-1.97972 q 0.75021,0.50014 1.79217,0.81273 1.06279,0.29175 2.08391,0.29175 2.33398,0 2.33398,-1.22951 0,-0.5835 -0.60434,-0.81273 -0.58349,-0.22923 -1.89636,-0.43762 -1.37538,-0.20839 -2.25062,-0.4793 -0.8544,-0.27091 -1.50041,-0.93776 -0.62518,-0.68769 -0.62518,-1.89635 0,-1.58378 1.31287,-2.52154 1.3337,-0.95859 3.58432,-0.95859 1.14615,0 2.2923,0.2709 1.14615,0.25007 1.87552,0.68769 l -1.00027,1.97972 q -1.41706,-0.83357 -3.18839,-0.83357 -1.14615,0 -1.75048,0.35427 -0.5835,0.33343 -0.5835,0.89608 0,0.62517 0.62518,0.89608 0.64601,0.25007 1.97971,0.4793 1.3337,0.20839 2.18811,0.4793 0.8544,0.27091 1.45873,0.91692 0.62518,0.64601 0.62518,1.83384 0,1.56293 -1.35454,2.50069 -1.35455,0.93776 -3.68853,0.93776 z m 15.00414,-11.27395 h 2.50069 l -5.20977,12.02416 q -0.72937,1.813 -1.77133,2.54237 -1.04195,0.75021 -2.52153,0.75021 -0.83356,0 -1.64629,-0.27091 -0.81272,-0.27091 -1.3337,-0.75021 l 1.04196,-1.91719 q 0.3751,0.35426 0.87524,0.56265 0.52098,0.20839 1.04195,0.20839 0.68769,0 1.12531,-0.35426 0.45846,-0.35427 0.83357,-1.18783 l 0.18755,-0.43762 -4.85551,-11.16976 h 2.70908 l 3.50097,8.23144 z m 18.17166,-0.12503 q 2.1048,0 3.3343,1.2295 1.2295,1.20867 1.2295,3.64684 v 6.37677 h -2.6049 v -6.04334 q 0,-1.45874 -0.646,-2.1881 -0.646,-0.75021 -1.8547,-0.75021 -1.3129,0 -2.1048,0.87524 -0.7918,0.8544 -0.7918,2.45901 v 5.6474 h -2.6049 v -6.04334 q 0,-1.45874 -0.646,-2.1881 -0.646,-0.75021 -1.8547,-0.75021 -1.3337,0 -2.1256,0.8544 -0.7711,0.8544 -0.7711,2.47985 v 5.6474 h -2.6048 v -11.12808 h 2.4798 v 1.41706 q 0.6252,-0.75021 1.5629,-1.14615 0.9378,-0.39594 2.084,-0.39594 1.2503,0 2.2089,0.47929 0.9794,0.45847 1.5421,1.37539 0.6877,-0.87525 1.7713,-1.35455 1.0837,-0.50013 2.3965,-0.50013 z m 21.9436,0 q 2.1047,0 3.3342,1.2295 1.2295,1.20867 1.2295,3.64684 v 6.37677 h -2.6048 v -6.04334 q 0,-1.45874 -0.6461,-2.1881 -0.646,-0.75021 -1.8546,-0.75021 -1.3129,0 -2.1048,0.87524 -0.7919,0.8544 -0.7919,2.45901 v 5.6474 h -2.6049 v -6.04334 q 0,-1.45874 -0.646,-2.1881 -0.646,-0.75021 -1.8547,-0.75021 -1.3337,0 -2.1255,0.8544 -0.7711,0.8544 -0.7711,2.47985 v 5.6474 h -2.6049 v -11.12808 h 2.4799 v 1.41706 q 0.6252,-0.75021 1.5629,-1.14615 0.9378,-0.39594 2.0839,-0.39594 1.2504,0 2.209,0.47929 0.9794,0.45847 1.5421,1.37539 0.6876,-0.87525 1.7713,-1.35455 1.0836,-0.50013 2.3965,-0.50013 z m 18.38,5.75159 q 0,0.27091 -0.042,0.77104 h -8.7316 q 0.2292,1.22951 1.1878,1.95888 0.9794,0.70853 2.4173,0.70853 1.8339,0 3.0217,-1.20867 l 1.3962,1.60461 q -0.7502,0.89608 -1.8963,1.35454 -1.1462,0.45846 -2.5841,0.45846 -1.8338,0 -3.23,-0.72937 -1.3963,-0.72936 -2.1673,-2.02139 -0.7502,-1.31286 -0.7502,-2.95915 0,-1.62545 0.7294,-2.91747 0.7502,-1.31287 2.063,-2.04224 1.3129,-0.72936 2.9592,-0.72936 1.6254,0 2.8966,0.72936 1.292,0.70853 2.0006,2.0214 0.7293,1.29202 0.7293,3.00083 z m -5.6265,-3.66768 q -1.2504,0 -2.1256,0.7502 -0.8544,0.72937 -1.042,1.95888 h 6.3143 q -0.1667,-1.20867 -1.0211,-1.95888 -0.8544,-0.7502 -2.1256,-0.7502 z m 14.8166,8.56487 q -0.4585,0.3751 -1.1253,0.56265 -0.646,0.18755 -1.3754,0.18755 -1.8339,0 -2.8341,-0.9586 -1.0003,-0.95859 -1.0003,-2.79243 v -5.35565 h -1.8339 v -2.08391 h 1.8339 v -2.54237 h 2.6049 v 2.54237 h 2.98 v 2.08391 h -2.98 v 5.29313 q 0,0.81272 0.3959,1.25034 0.396,0.41679 1.1462,0.41679 0.8752,0 1.4587,-0.45846 z m 4.6263,-8.8983 q 1.1253,-1.75048 3.9594,-1.75048 v 2.47985 q -0.3334,-0.0625 -0.6043,-0.0625 -1.5213,0 -2.3757,0.89608 -0.8544,0.87524 -0.8544,2.54237 v 5.39733 h -2.6049 v -11.12808 h 2.4799 z m 8.7732,9.50263 h -2.6048 v -11.12808 h 2.6048 z m -1.292,-12.96192 q -0.7085,0 -1.1878,-0.43762 -0.4793,-0.45846 -0.4793,-1.12531 0,-0.66685 0.4793,-1.10448 0.4793,-0.45846 1.1878,-0.45846 0.7085,0 1.1878,0.43763 0.4793,0.41678 0.4793,1.06279 0,0.68769 -0.4793,1.16699 -0.4584,0.45846 -1.1878,0.45846 z m 9.8152,13.10779 q -1.7296,0 -3.105,-0.72937 -1.3754,-0.72936 -2.1464,-2.02139 -0.7711,-1.31286 -0.7711,-2.95915 0,-1.64629 0.7711,-2.93831 0.771,-1.29203 2.1256,-2.0214 1.3753,-0.72936 3.1258,-0.72936 1.6463,0 2.8758,0.66685 1.2504,0.66685 1.8755,1.91719 l -2.0005,1.16699 q -0.4793,-0.77104 -1.2087,-1.14615 -0.7085,-0.39594 -1.5629,-0.39594 -1.4588,0 -2.4174,0.9586 -0.9586,0.93776 -0.9586,2.52153 0,1.58377 0.9378,2.54237 0.9586,0.93776 2.4382,0.93776 0.8544,0 1.5629,-0.3751 0.7294,-0.39595 1.2087,-1.16699 l 2.0005,1.16699 q -0.646,1.25034 -1.8963,1.93803 -1.2295,0.66685 -2.855,0.66685 z m 24.3192,-0.14587 h -3.1675 l -3.8553,-4.77215 -1.938,1.83384 v 2.93831 h -2.6049 v -15.46261 h 2.6049 v 9.33591 l 5.3973,-5.00138 h 3.1259 l -4.6471,4.66796 z m 11.6908,-5.50152 q 0,0.27091 -0.042,0.77104 h -8.7316 q 0.2292,1.22951 1.1878,1.95888 0.9795,0.70853 2.4174,0.70853 1.8338,0 3.0216,-1.20867 l 1.3963,1.60461 q -0.7503,0.89608 -1.8964,1.35454 -1.1462,0.45846 -2.5841,0.45846 -1.8338,0 -3.23,-0.72937 -1.3962,-0.72936 -2.1673,-2.02139 -0.7502,-1.31286 -0.7502,-2.95915 0,-1.62545 0.7294,-2.91747 0.7502,-1.31287 2.063,-2.04224 1.3129,-0.72936 2.9592,-0.72936 1.6255,0 2.8966,0.72936 1.2921,0.70853 2.0006,2.0214 0.7294,1.29202 0.7294,3.00083 z m -5.6266,-3.66768 q -1.2503,0 -2.1256,0.7502 -0.8544,0.72937 -1.0419,1.95888 h 6.3142 q -0.1667,-1.20867 -1.0211,-1.95888 -0.8544,-0.7502 -2.1256,-0.7502 z m 15.8377,-1.95888 h 2.5007 l -5.2098,12.02416 q -0.7294,1.813 -1.7713,2.54237 -1.042,0.75021 -2.5215,0.75021 -0.8336,0 -1.6463,-0.27091 -0.8128,-0.27091 -1.3337,-0.75021 l 1.0419,-1.91719 q 0.3751,0.35426 0.8753,0.56265 0.5209,0.20839 1.0419,0.20839 0.6877,0 1.1253,-0.35426 0.4585,-0.35427 0.8336,-1.18783 l 0.1875,-0.43762 -4.8555,-11.16976 h 2.7091 l 3.501,8.23144 z m 10.2945,-0.12503 q 1.6254,0 2.8966,0.70853 1.2921,0.70852 2.0214,2.00055 0.7294,1.29202 0.7294,2.97999 0,1.68797 -0.7294,3.00083 -0.7293,1.29202 -2.0214,2.00055 -1.2712,0.70853 -2.8966,0.70853 -2.2506,0 -3.5635,-1.50041 v 5.39732 h -2.6049 v -15.17086 h 2.4799 v 1.45874 q 0.646,-0.79189 1.5837,-1.18783 0.9586,-0.39594 2.1048,-0.39594 z m -0.2918,9.1692 q 1.4379,0 2.3549,-0.9586 0.9377,-0.9586 0.9377,-2.52153 0,-1.56293 -0.9377,-2.52153 -0.917,-0.9586 -2.3549,-0.9586 -0.9377,0 -1.6879,0.43762 -0.7502,0.41678 -1.1878,1.20867 -0.4377,0.79188 -0.4377,1.83384 0,1.04195 0.4377,1.83384 0.4376,0.79189 1.1878,1.22951 0.7502,0.41678 1.6879,0.41678 z m 12.5244,-9.1692 q 2.459,0 3.751,1.18782 1.3129,1.16699 1.3129,3.54265 v 6.52264 h -2.459 v -1.35454 q -0.4793,0.72937 -1.3754,1.12531 -0.8753,0.3751 -2.1256,0.3751 -1.2504,0 -2.1881,-0.41678 -0.9378,-0.43762 -1.4588,-1.18783 -0.5001,-0.77104 -0.5001,-1.72964 0,-1.50042 1.1045,-2.3965 1.1253,-0.91692 3.5218,-0.91692 h 2.8758 v -0.16671 q 0,-1.16699 -0.7086,-1.79216 -0.6876,-0.62518 -2.063,-0.62518 -0.9378,0 -1.8547,0.29175 -0.8961,0.29175 -1.5213,0.81272 l -1.0211,-1.89635 q 0.8753,-0.66685 2.1048,-1.02112 1.2295,-0.35426 2.6049,-0.35426 z m -0.3543,9.50263 q 0.9794,0 1.7296,-0.43763 0.7711,-0.45846 1.0837,-1.29202 v -1.29202 h -2.6883 q -2.2506,0 -2.2506,1.47957 0,0.70853 0.5627,1.12531 0.5626,0.41679 1.5629,0.41679 z m 11.3573,1.75048 h -2.6049 v -11.12808 h 2.6049 z m -1.292,-12.96192 q -0.7085,0 -1.1878,-0.43762 -0.4793,-0.45846 -0.4793,-1.12531 0,-0.66685 0.4793,-1.10448 0.4793,-0.45846 1.1878,-0.45846 0.7085,0 1.1878,0.43763 0.4793,0.41678 0.4793,1.06279 0,0.68769 -0.4793,1.16699 -0.4584,0.45846 -1.1878,0.45846 z m 7.1895,3.45929 q 1.1253,-1.75048 3.9594,-1.75048 v 2.47985 q -0.3334,-0.0625 -0.6043,-0.0625 -1.5213,0 -2.3757,0.89608 -0.8544,0.87524 -0.8544,2.54237 v 5.39733 h -2.6049 v -11.12808 h 2.4799 z"
               id="path2" /></g></g></g><path
         id="path2-1-4-5-4"
         style="display:inline;fill:none;fill-opacity:1;stroke:#006961;stroke-width:10.4431;stroke-linecap:round;stroke-dasharray:none;stroke-opacity:1"
         d="m 156.30312,759.25868 c -9.78054,19.91382 -30.12868,33.02384 -53.81237,33.02384 -33.173715,0 -60.066326,-26.89261 -60.066326,-60.06633 0,-33.17372 26.892611,-60.06633 60.066326,-60.06633 23.31181,0 43.58824,15.15712 53.54415,34.5646 m -9.14624,1.20213 h 4.97796 c 10.89491,0.20296 25.86265,0 38.79397,0 l 11.43353,7.63836 14.59897,-7.63836 14.59896,7.3422 h 10.87817 l 11.54761,-7.3422 17.66083,7.3422 16.34856,-7.34219 22,25.45886 -22,25.45887 h -135.8606 -4.97796 M 89.058073,732.21619 c -4e-6,6.98969 -5.666271,12.65596 -12.655965,12.65596 -6.989695,0 -12.655963,-5.66627 -12.655967,-12.65596 -2e-6,-6.9897 5.666268,-12.65597 12.655967,-12.65597 6.989698,0 12.655967,5.66627 12.655965,12.65597 z"
         transform="matrix(0.5520304,0,0,-0.5520304,-961.5735,865.9823)" /><path
         style="font-weight:500;font-size:21.3333px;font-family:Montserrat;-inkscape-font-specification:'Montserrat Medium';font-variation-settings:'wght' 500;fill:#3e4349;stroke-width:3.5;stroke-linecap:round;stroke-linejoin:round;paint-order:markers fill stroke"
         d="m -1074.7613,452.78471 q 2.9013,0 4.5653,1.38666 1.664,1.38667 1.664,3.81866 0,2.432 -1.664,3.81866 -1.664,1.38667 -4.5653,1.38667 h -3.6907 v 4.52266 h -2.1333 v -14.93331 z m -0.064,8.55465 q 2.0266,0 3.0933,-0.85333 1.0667,-0.87467 1.0667,-2.496 0,-1.62133 -1.0667,-2.47466 -1.0667,-0.87467 -3.0933,-0.87467 h -3.6267 v 6.69866 z m 17.8346,-4.92799 h 2.048 v 11.30665 h -1.9413 v -1.70667 q -0.6187,0.87467 -1.6427,1.36533 -1.0027,0.46934 -2.1973,0.46934 -2.2613,0 -3.5627,-1.23733 -1.3013,-1.25867 -1.3013,-3.69066 v -6.50666 h 2.048 v 6.27199 q 0,1.64266 0.7893,2.49599 0.7894,0.832 2.2614,0.832 1.6213,0 2.5599,-0.98133 0.9387,-0.98133 0.9387,-2.77333 z m 11.9467,-0.10667 q 1.6426,0 2.944,0.72533 1.3013,0.72534 2.0266,2.02667 0.7467,1.30133 0.7467,3.00799 0,1.70667 -0.7467,3.02933 -0.7253,1.30133 -2.0266,2.02667 -1.3014,0.72533 -2.944,0.72533 -1.2587,0 -2.304,-0.49067 -1.0454,-0.49066 -1.728,-1.42933 v 1.792 h -1.9627 v -15.82931 h 2.048 v 6.22932 q 0.6827,-0.896 1.7067,-1.344 1.024,-0.46933 2.24,-0.46933 z m -0.1707,9.74932 q 1.088,0 1.9413,-0.49067 0.8747,-0.51199 1.3654,-1.40799 0.512,-0.91734 0.512,-2.09067 0,-1.17333 -0.512,-2.06933 -0.4907,-0.91733 -1.3654,-1.40799 -0.8533,-0.49067 -1.9413,-0.49067 -1.0667,0 -1.9413,0.49067 -0.8747,0.49066 -1.3654,1.40799 -0.4906,0.896 -0.4906,2.06933 0,1.17333 0.4906,2.09067 0.4907,0.896 1.3654,1.40799 0.8746,0.49067 1.9413,0.49067 z m 10.7733,1.664 h -2.048 v -15.82931 h 2.048 z m 5.952,0 h -2.048 v -11.30665 h 2.048 z m -1.024,-13.48265 q -0.5974,0 -1.0027,-0.384 -0.384,-0.384 -0.384,-0.93866 0,-0.55467 0.384,-0.93867 0.4053,-0.40533 1.0027,-0.40533 0.5973,0 0.9813,0.384 0.4053,0.36267 0.4053,0.91733 0,0.576 -0.4053,0.98133 -0.384,0.384 -0.9813,0.384 z m 9.8559,13.61065 q -1.728,0 -3.0933,-0.74667 -1.344,-0.74666 -2.112,-2.04799 -0.768,-1.32267 -0.768,-2.98667 0,-1.66399 0.768,-2.96533 0.768,-1.32266 2.112,-2.04799 1.3653,-0.74667 3.0933,-0.74667 1.536,0 2.7307,0.61867 1.216,0.61866 1.8773,1.792 l -1.5573,1.00266 q -0.5333,-0.81067 -1.3227,-1.216 -0.7893,-0.40533 -1.7493,-0.40533 -1.1093,0 -2.0053,0.49067 -0.8747,0.49066 -1.3867,1.40799 -0.4907,0.896 -0.4907,2.06933 0,1.19467 0.4907,2.112 0.512,0.896 1.3867,1.38666 0.896,0.49067 2.0053,0.49067 0.96,0 1.7493,-0.40533 0.7894,-0.40534 1.3227,-1.216 l 1.5573,0.98133 q -0.6613,1.17333 -1.8773,1.81333 -1.1947,0.61867 -2.7307,0.61867 z m 26.36796,-0.128 h -2.496 l -5.71736,-6.63466 -2.7306,2.77333 v 3.86133 h -2.1334 v -14.93331 h 2.1334 v 8.34132 l 8.10663,-8.34132 h 2.432 l -6.37863,6.71999 z m 11.69063,-5.58933 q 0,0.23467 -0.0427,0.61867 h -9.17332 q 0.192,1.49333 1.30133,2.41066 1.13066,0.896 2.79466,0.896 2.02666,0 3.264,-1.36533 l 1.13066,1.32266 q -0.768,0.896 -1.92,1.36533 -1.13066,0.46934 -2.53866,0.46934 -1.792,0 -3.17866,-0.72533 -1.38667,-0.74667 -2.15466,-2.06933 -0.74667,-1.32267 -0.74667,-2.98667 0,-1.64266 0.72533,-2.96533 0.74667,-1.32266 2.02667,-2.04799 1.30133,-0.74667 2.92266,-0.74667 1.62133,0 2.87999,0.74667 1.28,0.72533 1.984,2.04799 0.72533,1.32267 0.72533,3.02933 z m -5.58932,-4.09599 q -1.472,0 -2.47466,0.896 -0.98134,0.896 -1.152,2.34666 h 7.25332 q -0.17067,-1.42933 -1.17333,-2.32533 -0.98133,-0.91733 -2.45333,-0.91733 z m 16.21329,-1.62133 h 2.00533 l -5.48266,12.43731 q -0.72533,1.728 -1.70666,2.432 -0.96,0.704 -2.32533,0.704 -0.832,0 -1.62133,-0.27734 -0.768,-0.25599 -1.28,-0.76799 l 0.87466,-1.536 q 0.87467,0.832 2.02667,0.832 0.74666,0 1.23733,-0.40534 0.512,-0.384 0.91733,-1.34399 l 0.36267,-0.78934 -4.992,-11.28531 h 2.13333 l 3.94666,9.04532 z"
         id="text11-2-1-8-9"
         aria-label="Public Key" /></g></g></svg>
