<?xml version="1.0" encoding="UTF-8" standalone="no"?>
<svg
   viewBox="0 0 665.03864 312.75489"
   version="1.1"
   id="svg1"
   width="665.03864"
   height="312.75488"
   xml:space="preserve"
   xmlns="http://www.w3.org/2000/svg"
   xmlns:svg="http://www.w3.org/2000/svg"><defs
     id="defs1"><linearGradient
       id="swatch251"><stop
         style="stop-color:#195962;stop-opacity:1;"
         offset="0"
         id="stop251" /></linearGradient><filter
       style="color-interpolation-filters:sRGB"
       id="filter90-2"
       x="-0.019165826"
       y="-0.028762213"
       width="1.0414438"
       height="1.0655139"><feFlood
         result="flood"
         in="SourceGraphic"
         flood-opacity="0.796078"
         flood-color="rgb(62,67,73)"
         id="feFlood89-3" /><feGaussianBlur
         result="blur"
         in="SourceGraphic"
         stdDeviation="2.132 0"
         id="feGaussianBlur89-7" /><feOffset
         result="offset"
         in="blur"
         dx="1.000000"
         dy="1.000000"
         id="feOffset89-5" /><feComposite
         result="comp1"
         operator="in"
         in="flood"
         in2="offset"
         id="feComposite89-9" /><feComposite
         result="fbSourceGraphic"
         operator="over"
         in="SourceGraphic"
         in2="comp1"
         id="feComposite90-2" /><feColorMatrix
         result="fbSourceGraphicAlpha"
         in="fbSourceGraphic"
         values="0 0 0 -1 0 0 0 0 -1 0 0 0 0 -1 0 0 0 0 1 0"
         id="feColorMatrix90-2" /><feFlood
         id="feFlood90-8"
         result="flood"
         in="fbSourceGraphic"
         flood-opacity="0.796078"
         flood-color="rgb(62,67,73)" /><feGaussianBlur
         id="feGaussianBlur90-9"
         result="blur"
         in="fbSourceGraphic"
         stdDeviation="3.000000" /><feOffset
         id="feOffset90-7"
         result="offset"
         in="blur"
         dx="1.000000"
         dy="1.000000" /><feComposite
         id="feComposite91-3"
         result="comp1"
         operator="in"
         in="flood"
         in2="offset" /><feComposite
         id="feComposite92-6"
         result="comp2"
         operator="over"
         in="fbSourceGraphic"
         in2="comp1" /></filter></defs><!--! Font Awesome Pro 6.4.2 by @fontawesome - https://fontawesome.com License - https://fontawesome.com/license (Commercial License) Copyright 2023 Fonticons, Inc. --><g
     id="layer10"
     transform="translate(1253.9164,-685.7603)"><g
       id="g59"
       style="display:inline;fill:#61a78d;fill-opacity:1"
       transform="translate(34.036671)"><path
         style="display:inline;fill:#ffffff;fill-opacity:1;stroke:none;stroke-width:1.31168;stroke-linecap:butt;stroke-linejoin:miter;stroke-dasharray:none;stroke-dashoffset:0;stroke-opacity:1;paint-order:fill markers stroke;filter:url(#filter90-2)"
         id="path54"
         width="642.6438"
         height="250.32849"
         x="825.70776"
         y="875.02576"
         transform="matrix(0.69387591,0,0,1.0001579,-1753.5098,-153.53499)"
         d="m 859.5623,875.02576 h 574.9347 c 18.7554,0 33.8546,10.47526 33.8546,23.48713 v 203.35421 c 0,13.0119 -15.0992,23.4871 -33.8546,23.4871 H 859.5623 c -18.75541,0 -33.85454,-10.4752 -33.85454,-23.4871 V 898.51289 c 0,-13.01187 15.09913,-23.48713 33.85454,-23.48713 z"
         ry="23.487137"
         rx="33.854534" /><g
         id="g56"
         transform="matrix(0.86376245,0,0,0.86376245,-1925.8086,560.71661)"><rect
           style="font-variation-settings:'wght' 700;fill:#195962;stroke-width:2.05191;stroke-linecap:round;stroke-linejoin:round;paint-order:markers fill stroke"
           id="rect54"
           width="263.40088"
           height="50"
           x="913.1311"
           y="156.37508" /><g
           id="g55"
           transform="translate(-11.145477,39.927363)"><rect
             style="font-variation-settings:'wght' 700;fill:#e6e6e6;fill-opacity:1;stroke-width:2.05381;stroke-linecap:round;stroke-linejoin:round;paint-order:markers fill stroke"
             id="rect55"
             width="263.88953"
             height="50"
             x="917.30688"
             y="126.45267" /><path
             d="m 964.77015,160.71955 q -1.944,0 -3.768,-0.552 -1.8,-0.552 -2.856,-1.464 l 1.08,-2.424 q 1.032,0.816 2.52,1.344 1.512,0.504 3.024,0.504 1.872,0 2.784,-0.6 0.936,-0.6 0.936,-1.584 0,-0.72 -0.528,-1.176 -0.504,-0.48 -1.296,-0.744 -0.792,-0.264 -2.16,-0.6 -1.92,-0.456 -3.12,-0.912 -1.176,-0.456 -2.04,-1.416 -0.84,-0.984 -0.84,-2.64 0,-1.392 0.744,-2.52 0.768,-1.152 2.28,-1.824 1.536,-0.672 3.744,-0.672 1.536,0 3.024,0.384 1.488,0.384 2.568,1.104 l -0.984,2.424 q -1.104,-0.648 -2.304,-0.984 -1.2,-0.336 -2.328,-0.336 -1.848,0 -2.76,0.624 -0.888,0.624 -0.888,1.656 0,0.72 0.504,1.176 0.528,0.456 1.32,0.72 0.792,0.264 2.16,0.6 1.872,0.432 3.072,0.912 1.2,0.456 2.04,1.416 0.864,0.96 0.864,2.592 0,1.392 -0.768,2.52 -0.744,1.128 -2.28,1.8 -1.536,0.672 -3.744,0.672 z m 18.47999,-13.056 h 2.88 l -6,13.848 q -0.84,2.088 -2.04,2.928 -1.2,0.864 -2.904,0.864 -0.96,0 -1.896,-0.312 -0.936,-0.312 -1.536,-0.864 l 1.2,-2.208 q 0.432,0.408 1.008,0.648 0.6,0.24 1.2,0.24 0.792,0 1.296,-0.408 0.528,-0.408 0.96,-1.368 l 0.216,-0.504 -5.592,-12.864 h 3.12 l 4.032,9.48 z m 20.92796,-0.144 q 2.424,0 3.84,1.416 1.416,1.392 1.416,4.2 v 7.344 h -3 v -6.96 q 0,-1.68 -0.744,-2.52 -0.744,-0.864 -2.136,-0.864 -1.512,0 -2.424,1.008 -0.912,0.984 -0.912,2.832 v 6.504 h -2.99998 v -6.96 q 0,-1.68 -0.744,-2.52 -0.744,-0.864 -2.136,-0.864 -1.536,0 -2.448,0.984 -0.888,0.984 -0.888,2.856 v 6.504 h -3 v -12.816 h 2.856 v 1.632 q 0.72,-0.864 1.8,-1.32 1.08,-0.456 2.4,-0.456 1.44,0 2.544,0.552 1.128,0.528 1.776,1.584 0.79198,-1.008 2.03998,-1.56 1.248,-0.576 2.76,-0.576 z m 25.272,0 q 2.424,0 3.84,1.416 1.416,1.392 1.416,4.2 v 7.344 h -3 v -6.96 q 0,-1.68 -0.744,-2.52 -0.744,-0.864 -2.136,-0.864 -1.512,0 -2.424,1.008 -0.912,0.984 -0.912,2.832 v 6.504 h -3 v -6.96 q 0,-1.68 -0.744,-2.52 -0.744,-0.864 -2.136,-0.864 -1.536,0 -2.448,0.984 -0.888,0.984 -0.888,2.856 v 6.504 h -3 v -12.816 h 2.856 v 1.632 q 0.72,-0.864 1.8,-1.32 1.08,-0.456 2.4,-0.456 1.44,0 2.544,0.552 1.128,0.528 1.776,1.584 0.792,-1.008 2.04,-1.56 1.248,-0.576 2.76,-0.576 z m 21.168,6.624 q 0,0.312 -0.048,0.888 h -10.056 q 0.264,1.416 1.368,2.256 1.128,0.816 2.784,0.816 2.112,0 3.48,-1.392 l 1.608,1.848 q -0.864,1.032 -2.184,1.56 -1.32,0.528 -2.976,0.528 -2.112,0 -3.72,-0.84 -1.608,-0.84 -2.496,-2.328 -0.864,-1.512 -0.864,-3.408 0,-1.872 0.84,-3.36 0.864,-1.512 2.376,-2.352 1.512,-0.84 3.408,-0.84 1.872,0 3.336,0.84 1.488,0.816 2.304,2.328 0.84,1.488 0.84,3.456 z m -6.48,-4.224 q -1.44,0 -2.448,0.864 -0.984,0.84 -1.2,2.256 h 7.272 q -0.192,-1.392 -1.176,-2.256 -0.984,-0.864 -2.448,-0.864 z m 17.064,9.864 q -0.528,0.432 -1.296,0.648 -0.744,0.216 -1.584,0.216 -2.112,0 -3.264,-1.104 -1.152,-1.104 -1.152,-3.216 v -6.168 h -2.112 v -2.4 h 2.112 v -2.928 h 3 v 2.928 h 3.432 v 2.4 h -3.432 v 6.096 q 0,0.936 0.456,1.44 0.456,0.48 1.32,0.48 1.008,0 1.68,-0.528 z m 5.328,-10.248 q 1.296,-2.016 4.56,-2.016 v 2.856 q -0.384,-0.072 -0.696,-0.072 -1.752,0 -2.736,1.032 -0.984,1.008 -0.984,2.928 v 6.216 h -3 v -12.816 h 2.856 z m 10.104,10.944 h -3 v -12.816 h 3 z m -1.488,-14.928 q -0.816,0 -1.368,-0.504 -0.552,-0.528 -0.552,-1.296 0,-0.768 0.552,-1.272 0.552,-0.528 1.368,-0.528 0.816,0 1.368,0.504 0.552,0.48 0.552,1.224 0,0.792 -0.552,1.344 -0.528,0.528 -1.368,0.528 z m 11.304,15.096 q -1.992,0 -3.576,-0.84 -1.584,-0.84 -2.472,-2.328 -0.888,-1.512 -0.888,-3.408 0,-1.896 0.888,-3.384 0.888,-1.488 2.448,-2.328 1.584,-0.84 3.6,-0.84 1.896,0 3.312,0.768 1.44,0.768 2.16,2.208 l -2.304,1.344 q -0.552,-0.888 -1.392,-1.32 -0.816,-0.456 -1.8,-0.456 -1.68,0 -2.784,1.104 -1.104,1.08 -1.104,2.904 0,1.824 1.08,2.928 1.104,1.08 2.808,1.08 0.984,0 1.8,-0.432 0.84,-0.456 1.392,-1.344 l 2.304,1.344 q -0.744,1.44 -2.184,2.232 -1.416,0.768 -3.288,0.768 z m 28.0079,-0.168 h -3.648 l -4.44,-5.496 -2.232,2.112 v 3.384 h -3 v -17.808 h 3 v 10.752 l 6.216,-5.76 h 3.6 l -5.352,5.376 z m 13.4641,-6.336 q 0,0.312 -0.048,0.888 h -10.056 q 0.264,1.416 1.368,2.256 1.128,0.816 2.784,0.816 2.112,0 3.48,-1.392 l 1.608,1.848 q -0.864,1.032 -2.184,1.56 -1.32,0.528 -2.976,0.528 -2.112,0 -3.72,-0.84 -1.608,-0.84 -2.496,-2.328 -0.864,-1.512 -0.864,-3.408 0,-1.872 0.84,-3.36 0.864,-1.512 2.376,-2.352 1.512,-0.84 3.408,-0.84 1.872,0 3.336,0.84 1.488,0.816 2.304,2.328 0.84,1.488 0.84,3.456 z m -6.48,-4.224 q -1.44,0 -2.448,0.864 -0.984,0.84 -1.2,2.256 h 7.272 q -0.192,-1.392 -1.176,-2.256 -0.984,-0.864 -2.448,-0.864 z m 18.2399,-2.256 h 2.88 l -6,13.848 q -0.84,2.088 -2.04,2.928 -1.2,0.864 -2.904,0.864 -0.96,0 -1.896,-0.312 -0.936,-0.312 -1.536,-0.864 l 1.2,-2.208 q 0.432,0.408 1.008,0.648 0.6,0.24 1.2,0.24 0.792,0 1.296,-0.408 0.528,-0.408 0.96,-1.368 l 0.216,-0.504 -5.592,-12.864 h 3.12 l 4.032,9.48 z"
             id="text55"
             style="font-weight:600;font-size:24px;font-family:Montserrat;-inkscape-font-specification:'Montserrat, Semi-Bold';fill:#3e4349;stroke-width:3.5;stroke-linecap:round;stroke-linejoin:round;paint-order:markers fill stroke"
             aria-label="Symmetric key" /></g></g><path
         id="path1-6"
         style="color:#000000;fill:#baa600;fill-opacity:1;stroke:#baa600;stroke-width:1.579;stroke-linecap:round;stroke-dasharray:none;stroke-opacity:1"
         d="m 51.039502,477.193 c -7.204445,0 -13.087357,5.88404 -13.087358,13.08848 v 52.2623 c 1e-6,7.20445 5.882913,13.08736 13.087358,13.08736 h 35.760795 c 7.204443,0 13.087357,-5.88291 13.087357,-13.08736 v -10.4133 h 89.613036 c 2.70413,0 4.93846,-2.23546 4.93846,-4.93959 V 505.8856 c 0,-2.70412 -2.23433,-4.93958 -4.93846,-4.93959 h -23.09553 c -22.1765,0 -44.34846,0.0361 -66.517506,0 v -10.66453 c 0,-7.20444 -5.882914,-13.08848 -13.087357,-13.08848 z m 0,4.00033 h 35.760795 c 5.042684,0 9.087026,4.04547 9.087026,9.08815 v 10.66453 c -0.05354,-1.1e-4 -0.107136,1.2e-4 -0.16069,0 h -0.0023 -2.886799 c -1.10426,2.2e-4 -1.999382,0.89535 -1.999598,1.99961 -3.97e-4,1.10469 0.894904,2.0005 1.999598,2.00072 h 2.88454 c 0.722102,0.002 1.443852,-0.001 2.165948,0 22.842678,0.0422 45.682308,0 68.517098,0 h 23.09554 c 0.54237,0 0.93813,0.39689 0.93813,0.93926 v 21.30529 c 0,0.54237 -0.39576,0.93926 -0.93813,0.93926 h -93.778586 -2.88454 c -1.104256,2.2e-4 -1.999377,0.89534 -1.999598,1.9996 -4.03e-4,1.1047 0.8949,2.00051 1.999598,2.00073 h 2.88454 0.165215 v 10.4133 c 0,5.04269 -4.044342,9.08703 -9.087026,9.08703 H 51.039502 c -5.042687,0 -9.088159,-4.04434 -9.08816,-9.08703 v -52.2623 c 1e-6,-5.04268 4.045473,-9.08815 9.08816,-9.08815 z m 9.201725,22.3894 -3.793241,0.0588 c -3.771998,0.0585 -6.839601,3.17466 -6.839601,6.9471 v 11.85728 c 0,3.76993 3.132356,6.85389 6.901841,6.79546 l 3.793241,-0.0588 c 3.771999,-0.0585 6.839601,-3.17352 6.839601,-6.94598 v -11.8584 c 0,-3.76994 -3.132353,-6.85389 -6.901841,-6.79546 z m 0.06224,3.99919 c 1.586041,-0.0246 2.839271,1.21004 2.839271,2.79627 v 11.8584 c 0,1.63266 -1.269056,2.92143 -2.901511,2.94678 l -3.793241,0.0589 c -1.58604,0.0246 -2.839272,-1.21005 -2.839272,-2.79627 v -11.85728 c 0,-1.63264 1.269058,-2.92255 2.901512,-2.9479 z m 53.819583,12.338 c -0.9398,-6.5e-4 -1.70182,0.76137 -1.70117,1.70117 4.3e-4,0.93904 0.76213,1.69987 1.70117,1.69922 h 66.95703 l 0.0117,0.0117 0.30664,-0.0117 0.0605,-0.002 c 2.20129,-0.10155 2.14301,-3.3753 -0.0605,-3.39844 z m -5.8e-4,1.70046 h 67.27526 l -0.36681,0.0131 m 2.05881,-11.88009 c 0,1.08537 -0.87987,1.96525 -1.96524,1.96525 -1.08537,0 -1.96524,-0.87988 -1.96524,-1.96525 -10e-6,-1.08538 0.87986,-1.96526 1.96524,-1.96526 1.08538,0 1.96525,0.87988 1.96524,1.96526 z m -6.73286,-0.20402 c 1e-5,1.08538 -0.87986,1.96526 -1.96524,1.96526 -1.08538,0 -1.96526,-0.87988 -1.96525,-1.96526 0,-1.08538 0.87987,-1.96525 1.96525,-1.96525 1.08537,0 1.96524,0.87988 1.96524,1.96525 z m -12.37048,0.31604 c 0,1.08537 -0.87987,1.96525 -1.96524,1.96525 -1.08538,0 -1.96525,-0.87987 -1.96525,-1.96525 0,-1.08537 0.87988,-1.96524 1.96525,-1.96524 1.08537,0 1.96524,0.87987 1.96524,1.96524 z m -10.66851,-0.11201 c 0,1.08538 -0.87988,1.96526 -1.96526,1.96525 -1.08538,0 -1.96525,-0.87987 -1.96525,-1.96525 -1e-5,-1.08538 0.87987,-1.96526 1.96525,-1.96526 1.08539,-10e-6 1.96527,0.87987 1.96526,1.96526 z m -7.27785,0.0873 c 0,1.08538 -0.87987,1.96525 -1.96525,1.96525 -1.08538,0 -1.96525,-0.87987 -1.96525,-1.96525 0,-1.08538 0.87987,-1.96525 1.96525,-1.96525 1.08538,0 1.96525,0.87987 1.96525,1.96525 z"
         transform="rotate(90,-588.51045,155.10639)" /></g></g></svg>
