<?xml version="1.0" encoding="UTF-8" standalone="no"?>
<svg
   viewBox="0 0 665.03864 312.75489"
   version="1.1"
   id="svg1"
   width="665.03864"
   height="312.75488"
   xml:space="preserve"
   xmlns="http://www.w3.org/2000/svg"
   xmlns:svg="http://www.w3.org/2000/svg"><defs
     id="defs1"><linearGradient
       id="swatch251"><stop
         style="stop-color:#195962;stop-opacity:1;"
         offset="0"
         id="stop251" /></linearGradient><filter
       style="color-interpolation-filters:sRGB"
       id="filter90-2"
       x="-0.019165826"
       y="-0.028762213"
       width="1.0414438"
       height="1.0655139"><feFlood
         result="flood"
         in="SourceGraphic"
         flood-opacity="0.796078"
         flood-color="rgb(62,67,73)"
         id="feFlood89-3" /><feGaussianBlur
         result="blur"
         in="SourceGraphic"
         stdDeviation="2.132 0"
         id="feGaussianBlur89-7" /><feOffset
         result="offset"
         in="blur"
         dx="1.000000"
         dy="1.000000"
         id="feOffset89-5" /><feComposite
         result="comp1"
         operator="in"
         in="flood"
         in2="offset"
         id="feComposite89-9" /><feComposite
         result="fbSourceGraphic"
         operator="over"
         in="SourceGraphic"
         in2="comp1"
         id="feComposite90-2" /><feColorMatrix
         result="fbSourceGraphicAlpha"
         in="fbSourceGraphic"
         values="0 0 0 -1 0 0 0 0 -1 0 0 0 0 -1 0 0 0 0 1 0"
         id="feColorMatrix90-2" /><feFlood
         id="feFlood90-8"
         result="flood"
         in="fbSourceGraphic"
         flood-opacity="0.796078"
         flood-color="rgb(62,67,73)" /><feGaussianBlur
         id="feGaussianBlur90-9"
         result="blur"
         in="fbSourceGraphic"
         stdDeviation="3.000000" /><feOffset
         id="feOffset90-7"
         result="offset"
         in="blur"
         dx="1.000000"
         dy="1.000000" /><feComposite
         id="feComposite91-3"
         result="comp1"
         operator="in"
         in="flood"
         in2="offset" /><feComposite
         id="feComposite92-6"
         result="comp2"
         operator="over"
         in="fbSourceGraphic"
         in2="comp1" /></filter></defs><!--! Font Awesome Pro 6.4.2 by @fontawesome - https://fontawesome.com License - https://fontawesome.com/license (Commercial License) Copyright 2023 Fonticons, Inc. --><g
     id="layer10"
     transform="translate(1253.9164,-685.7603)"><g
       id="g59"
       style="display:inline;fill:#61a78d;fill-opacity:1"
       transform="translate(34.036671)"><path
         style="display:inline;fill:#ffffff;fill-opacity:1;stroke:none;stroke-width:1.31168;stroke-linecap:butt;stroke-linejoin:miter;stroke-dasharray:none;stroke-dashoffset:0;stroke-opacity:1;paint-order:fill markers stroke;filter:url(#filter90-2)"
         id="path54"
         width="642.6438"
         height="250.32849"
         x="825.70776"
         y="875.02576"
         transform="matrix(0.69387591,0,0,1.0001579,-1753.5098,-153.53499)"
         d="m 859.5623,875.02576 h 574.9347 c 18.7554,0 33.8546,10.47526 33.8546,23.48713 v 203.35421 c 0,13.0119 -15.0992,23.4871 -33.8546,23.4871 H 859.5623 c -18.75541,0 -33.85454,-10.4752 -33.85454,-23.4871 V 898.51289 c 0,-13.01187 15.09913,-23.48713 33.85454,-23.48713 z"
         ry="23.487137"
         rx="33.854534" /><g
         id="g56"
         transform="matrix(0.86376245,0,0,0.86376245,-1925.8086,560.71661)"><rect
           style="font-variation-settings:'wght' 700;fill:#195962;stroke-width:2.05191;stroke-linecap:round;stroke-linejoin:round;paint-order:markers fill stroke"
           id="rect54"
           width="263.40088"
           height="50"
           x="913.1311"
           y="156.37508" /><g
           id="g55"
           transform="translate(-11.145477,39.927363)"><rect
             style="font-variation-settings:'wght' 700;fill:#e6e6e6;fill-opacity:1;stroke-width:2.05381;stroke-linecap:round;stroke-linejoin:round;paint-order:markers fill stroke"
             id="rect55"
             width="263.88953"
             height="50"
             x="917.30688"
             y="126.45267" /><path
             d="m 971.68506,143.53424 v 3.70313 q -1.44141,-0.64454 -2.8125,-0.97266 -1.3711,-0.32813 -2.58985,-0.32813 -1.61718,0 -2.39062,0.44532 -0.77344,0.44531 -0.77344,1.38281 0,0.70312 0.51563,1.10156 0.52734,0.38672 1.89843,0.66797 l 1.92188,0.38672 q 2.91797,0.58594 4.14844,1.78125 1.23047,1.19531 1.23047,3.39844 0,2.89453 -1.72266,4.3125 -1.71094,1.40625 -5.23828,1.40625 -1.66406,0 -3.33985,-0.31641 -1.67578,-0.31641 -3.35156,-0.9375 v -3.80859 q 1.67578,0.89062 3.23438,1.34765 1.57031,0.44532 3.02343,0.44532 1.47657,0 2.26172,-0.49219 0.78516,-0.49219 0.78516,-1.40625 0,-0.82031 -0.53906,-1.26563 -0.52735,-0.44531 -2.1211,-0.79687 l -1.74609,-0.38672 q -2.625,-0.5625 -3.84375,-1.79297 -1.20703,-1.23047 -1.20703,-3.31641 0,-2.61328 1.6875,-4.01953 1.6875,-1.40625 4.85156,-1.40625 1.44141,0 2.96484,0.22266 1.52344,0.21094 3.15235,0.64453 z m 3.19922,3.82031 h 4.19531 l 3.52734,8.90625 3,-8.90625 h 4.19532 l -5.51954,14.36719 q -0.83203,2.19141 -1.94531,3.05859 -1.10156,0.87891 -2.91797,0.87891 h -2.42578 v -2.75391 h 1.3125 q 1.06641,0 1.54688,-0.33984 0.49218,-0.33984 0.76172,-1.21875 l 0.11718,-0.36328 z m 29.53122,2.17969 q 0.7969,-1.21875 1.8867,-1.85156 1.1016,-0.64453 2.4141,-0.64453 2.2617,0 3.4453,1.39453 1.1836,1.39453 1.1836,4.05469 v 7.99218 h -4.2187 v -6.84375 q 0.012,-0.15234 0.012,-0.3164 0.012,-0.16407 0.012,-0.46875 0,-1.39453 -0.4102,-2.01563 -0.4101,-0.63281 -1.3242,-0.63281 -1.1953,0 -1.8515,0.98437 -0.6446,0.98438 -0.668,2.84766 v 6.44531 h -4.2188 v -6.84375 q 0,-2.17968 -0.375,-2.80078 -0.37495,-0.63281 -1.33589,-0.63281 -1.20703,0 -1.86328,0.99609 -0.65625,0.98438 -0.65625,2.82422 v 6.45703 h -4.21875 v -13.125 h 4.21875 v 1.92188 q 0.77343,-1.11328 1.76953,-1.67578 1.00781,-0.5625 2.21489,-0.5625 1.3593,0 2.4023,0.65625 1.043,0.65625 1.582,1.83984 z m 25.0078,0 q 0.7969,-1.21875 1.8868,-1.85156 1.1015,-0.64453 2.414,-0.64453 2.2617,0 3.4453,1.39453 1.1836,1.39453 1.1836,4.05469 v 7.99218 h -4.2187 v -6.84375 q 0.012,-0.15234 0.012,-0.3164 0.012,-0.16407 0.012,-0.46875 0,-1.39453 -0.4101,-2.01563 -0.4102,-0.63281 -1.3243,-0.63281 -1.1953,0 -1.8515,0.98437 -0.6446,0.98438 -0.668,2.84766 v 6.44531 h -4.2187 v -6.84375 q 0,-2.17968 -0.375,-2.80078 -0.375,-0.63281 -1.336,-0.63281 -1.207,0 -1.8633,0.99609 -0.6562,0.98438 -0.6562,2.82422 v 6.45703 h -4.2188 v -13.125 h 4.2188 v 1.92188 q 0.7734,-1.11328 1.7695,-1.67578 1.0078,-0.5625 2.2149,-0.5625 1.3593,0 2.4023,0.65625 1.043,0.65625 1.582,1.83984 z m 25.9454,4.34766 v 1.19531 h -9.8086 q 0.1523,1.47656 1.0664,2.21484 0.914,0.73828 2.5547,0.73828 1.3242,0 2.707,-0.38671 1.3945,-0.39844 2.8594,-1.19532 v 3.23438 q -1.4883,0.5625 -2.9766,0.84375 -1.4883,0.29297 -2.9766,0.29297 -3.5625,0 -5.5429,-1.80469 -1.9688,-1.81641 -1.9688,-5.08594 0,-3.21094 1.9336,-5.05078 1.9453,-1.83984 5.3438,-1.83984 3.0937,0 4.9453,1.86328 1.8633,1.86328 1.8633,4.98047 z m -4.3125,-1.39453 q 0,-1.19532 -0.7032,-1.92188 -0.6914,-0.73828 -1.8164,-0.73828 -1.2187,0 -1.9804,0.69141 -0.7618,0.67968 -0.9493,1.96875 z m 12.0703,-8.85938 v 3.72656 h 4.3242 v 3 h -4.3242 v 5.56641 q 0,0.91406 0.3632,1.24219 0.3633,0.3164 1.4415,0.3164 h 2.1562 v 3 h -3.5977 q -2.4843,0 -3.5273,-1.03125 -1.0312,-1.04297 -1.0312,-3.52734 v -5.56641 h -2.086 v -3 h 2.086 v -3.72656 z m 16.6406,7.30078 q -0.5508,-0.25781 -1.1016,-0.375 -0.539,-0.1289 -1.0898,-0.1289 -1.6172,0 -2.4961,1.04296 -0.8672,1.03125 -0.8672,2.96485 v 6.04687 h -4.1953 v -13.125 h 4.1953 v 2.15625 q 0.8086,-1.28906 1.8516,-1.875 1.0547,-0.59765 2.5195,-0.59765 0.2109,0 0.457,0.0234 0.2461,0.0117 0.7149,0.0703 z m 2.0859,-3.57422 h 4.1953 v 13.125 h -4.1953 z m 0,-5.10937 h 4.1953 v 3.42187 h -4.1953 z m 18.8321,5.51953 v 3.42187 q -0.8555,-0.58593 -1.7227,-0.86718 -0.8555,-0.28125 -1.7812,-0.28125 -1.7579,0 -2.7422,1.03125 -0.9727,1.01953 -0.9727,2.85937 0,1.83985 0.9727,2.8711 0.9843,1.01953 2.7422,1.01953 0.9843,0 1.8632,-0.29297 0.8907,-0.29297 1.6407,-0.86719 v 3.43359 q -0.9844,0.36329 -2.0039,0.53907 -1.0079,0.1875 -2.0274,0.1875 -3.5508,0 -5.5547,-1.81641 -2.0039,-1.82812 -2.0039,-5.07422 0,-3.24609 2.0039,-5.0625 2.0039,-1.82812 5.5547,-1.82812 1.0313,0 2.0274,0.1875 1.0078,0.17578 2.0039,0.53906 z m 11.9765,-5.51953 h 4.1953 v 9.92578 l 4.8282,-4.81641 h 4.875 l -6.4102,6.02344 6.9141,7.10156 h -5.086 l -5.1211,-5.47265 v 5.47265 h -4.1953 z m 28.418,11.63672 v 1.19531 h -9.8086 q 0.1523,1.47656 1.0664,2.21484 0.9141,0.73828 2.5547,0.73828 1.3242,0 2.707,-0.38671 1.3946,-0.39844 2.8594,-1.19532 v 3.23438 q -1.4883,0.5625 -2.9766,0.84375 -1.4882,0.29297 -2.9765,0.29297 -3.5625,0 -5.543,-1.80469 -1.9687,-1.81641 -1.9687,-5.08594 0,-3.21094 1.9335,-5.05078 1.9454,-1.83984 5.3438,-1.83984 3.0937,0 4.9453,1.86328 1.8633,1.86328 1.8633,4.98047 z m -4.3125,-1.39453 q 0,-1.19532 -0.7031,-1.92188 -0.6914,-0.73828 -1.8164,-0.73828 -1.2188,0 -1.9805,0.69141 -0.7617,0.67968 -0.9492,1.96875 z m 5.7656,-5.13282 h 4.1953 l 3.5274,8.90625 3,-8.90625 h 4.1953 l -5.5195,14.36719 q -0.8321,2.19141 -1.9454,3.05859 -1.1015,0.87891 -2.9179,0.87891 h -2.4258 v -2.75391 h 1.3125 q 1.0664,0 1.5469,-0.33984 0.4922,-0.33984 0.7617,-1.21875 l 0.1172,-0.36328 z"
             id="text55"
             style="font-weight:600;font-size:24px;font-family:Montserrat;-inkscape-font-specification:'Montserrat, Semi-Bold';fill:#3e4349;stroke-width:3.5;stroke-linecap:round;stroke-linejoin:round;paint-order:markers fill stroke"
             aria-label="Symmetric key" /></g></g><path
         id="path1-6"
         style="color:#000000;fill:#baa600;fill-opacity:1;stroke:#baa600;stroke-width:1.579;stroke-linecap:round;stroke-dasharray:none;stroke-opacity:1"
         d="m 51.039502,477.193 c -7.204445,0 -13.087357,5.88404 -13.087358,13.08848 v 52.2623 c 1e-6,7.20445 5.882913,13.08736 13.087358,13.08736 h 35.760795 c 7.204443,0 13.087357,-5.88291 13.087357,-13.08736 v -10.4133 h 89.613036 c 2.70413,0 4.93846,-2.23546 4.93846,-4.93959 V 505.8856 c 0,-2.70412 -2.23433,-4.93958 -4.93846,-4.93959 h -23.09553 c -22.1765,0 -44.34846,0.0361 -66.517506,0 v -10.66453 c 0,-7.20444 -5.882914,-13.08848 -13.087357,-13.08848 z m 0,4.00033 h 35.760795 c 5.042684,0 9.087026,4.04547 9.087026,9.08815 v 10.66453 c -0.05354,-1.1e-4 -0.107136,1.2e-4 -0.16069,0 h -0.0023 -2.886799 c -1.10426,2.2e-4 -1.999382,0.89535 -1.999598,1.99961 -3.97e-4,1.10469 0.894904,2.0005 1.999598,2.00072 h 2.88454 c 0.722102,0.002 1.443852,-0.001 2.165948,0 22.842678,0.0422 45.682308,0 68.517098,0 h 23.09554 c 0.54237,0 0.93813,0.39689 0.93813,0.93926 v 21.30529 c 0,0.54237 -0.39576,0.93926 -0.93813,0.93926 h -93.778586 -2.88454 c -1.104256,2.2e-4 -1.999377,0.89534 -1.999598,1.9996 -4.03e-4,1.1047 0.8949,2.00051 1.999598,2.00073 h 2.88454 0.165215 v 10.4133 c 0,5.04269 -4.044342,9.08703 -9.087026,9.08703 H 51.039502 c -5.042687,0 -9.088159,-4.04434 -9.08816,-9.08703 v -52.2623 c 1e-6,-5.04268 4.045473,-9.08815 9.08816,-9.08815 z m 9.201725,22.3894 -3.793241,0.0588 c -3.771998,0.0585 -6.839601,3.17466 -6.839601,6.9471 v 11.85728 c 0,3.76993 3.132356,6.85389 6.901841,6.79546 l 3.793241,-0.0588 c 3.771999,-0.0585 6.839601,-3.17352 6.839601,-6.94598 v -11.8584 c 0,-3.76994 -3.132353,-6.85389 -6.901841,-6.79546 z m 0.06224,3.99919 c 1.586041,-0.0246 2.839271,1.21004 2.839271,2.79627 v 11.8584 c 0,1.63266 -1.269056,2.92143 -2.901511,2.94678 l -3.793241,0.0589 c -1.58604,0.0246 -2.839272,-1.21005 -2.839272,-2.79627 v -11.85728 c 0,-1.63264 1.269058,-2.92255 2.901512,-2.9479 z m 53.819583,12.338 c -0.9398,-6.5e-4 -1.70182,0.76137 -1.70117,1.70117 4.3e-4,0.93904 0.76213,1.69987 1.70117,1.69922 h 66.95703 l 0.0117,0.0117 0.30664,-0.0117 0.0605,-0.002 c 2.20129,-0.10155 2.14301,-3.3753 -0.0605,-3.39844 z m -5.8e-4,1.70046 h 67.27526 l -0.36681,0.0131 m 2.05881,-11.88009 c 0,1.08537 -0.87987,1.96525 -1.96524,1.96525 -1.08537,0 -1.96524,-0.87988 -1.96524,-1.96525 -10e-6,-1.08538 0.87986,-1.96526 1.96524,-1.96526 1.08538,0 1.96525,0.87988 1.96524,1.96526 z m -6.73286,-0.20402 c 1e-5,1.08538 -0.87986,1.96526 -1.96524,1.96526 -1.08538,0 -1.96526,-0.87988 -1.96525,-1.96526 0,-1.08538 0.87987,-1.96525 1.96525,-1.96525 1.08537,0 1.96524,0.87988 1.96524,1.96525 z m -12.37048,0.31604 c 0,1.08537 -0.87987,1.96525 -1.96524,1.96525 -1.08538,0 -1.96525,-0.87987 -1.96525,-1.96525 0,-1.08537 0.87988,-1.96524 1.96525,-1.96524 1.08537,0 1.96524,0.87987 1.96524,1.96524 z m -10.66851,-0.11201 c 0,1.08538 -0.87988,1.96526 -1.96526,1.96525 -1.08538,0 -1.96525,-0.87987 -1.96525,-1.96525 -1e-5,-1.08538 0.87987,-1.96526 1.96525,-1.96526 1.08539,-10e-6 1.96527,0.87987 1.96526,1.96526 z m -7.27785,0.0873 c 0,1.08538 -0.87987,1.96525 -1.96525,1.96525 -1.08538,0 -1.96525,-0.87987 -1.96525,-1.96525 0,-1.08538 0.87987,-1.96525 1.96525,-1.96525 1.08538,0 1.96525,0.87987 1.96525,1.96525 z"
         transform="rotate(90,-588.51045,155.10639)" /></g></g></svg>
