<?xml version="1.0" encoding="UTF-8" standalone="no"?>
<svg
   viewBox="0 0 178 178"
   version="1.1"
   id="svg1"
   sodipodi:docname="favicon.svg"
   inkscape:version="1.3.2 (091e20ef0f, 2023-11-25, custom)"
   width="178"
   height="178"
   xml:space="preserve"
   xmlns:inkscape="http://www.inkscape.org/namespaces/inkscape"
   xmlns:sodipodi="http://sodipodi.sourceforge.net/DTD/sodipodi-0.dtd"
   xmlns:xlink="http://www.w3.org/1999/xlink"
   xmlns="http://www.w3.org/2000/svg"
   xmlns:svg="http://www.w3.org/2000/svg"
   xmlns:rdf="http://www.w3.org/1999/02/22-rdf-syntax-ns#"
   xmlns:cc="http://creativecommons.org/ns#"><defs
     id="defs1"><linearGradient
       id="swatch251"
       inkscape:swatch="solid"><stop
         style="stop-color:#195962;stop-opacity:1;"
         offset="0"
         id="stop251" /></linearGradient><pattern
       inkscape:collect="always"
       xlink:href="#shading6"
       preserveAspectRatio="xMidYMid"
       id="pattern180"
       patternTransform="matrix(-0.74999999,0,0,-0.74999999,796.91394,-2553.0795)"
       x="0"
       y="0" /><pattern
       patternUnits="userSpaceOnUse"
       width="372.6899"
       height="66.1838"
       patternTransform="scale(0.2)"
       preserveAspectRatio="xMidYMid"
       id="shading6"
       style="fill:#ee5937"
       inkscape:label="Schmale Linien (Halbton)"
       inkscape:collect="always"
       inkscape:isstock="true"><path
         id="path34"
         style="stroke-width:0.487199;stroke-linecap:square;paint-order:markers fill stroke;stop-color:#000000"
         d="m 371.6961,0 h 0.9938 v 66.1838 h -0.9938 z m -7.9084,0 h 1.1312 v 66.1838 h -1.1312 z m -7.9085,0 h 1.2687 v 66.1838 h -1.2687 z m -7.9084,0 h 1.4062 v 66.1838 h -1.4062 z m -7.9084,0 h 1.5436 v 66.1838 h -1.5436 z m -7.9084,0 h 1.681 v 66.1838 h -1.681 z m -7.9085,0 h 1.8185 v 66.1838 h -1.8185 z m -7.9084,0 h 1.9559 v 66.1838 h -1.9559 z m -7.9084,0 h 2.0934 v 66.1838 h -2.0934 z m -7.9085,0 h 2.2309 v 66.1838 h -2.2309 z m -7.9084,0 h 2.3683 v 66.1838 h -2.3683 z m -7.9084,0 h 2.5057 v 66.1838 h -2.5057 z m -7.9084,0 h 2.6431 v 66.1838 h -2.6431 z m -7.9085,0 h 2.7807 v 66.1838 h -2.7807 z m -7.9084,0 h 2.9181 v 66.1838 h -2.9181 z m -7.9084,0 h 3.0555 v 66.1838 h -3.0555 z m -7.9084,0 h 3.1929 v 66.1838 h -3.1929 z m -7.9085,0 h 3.3304 v 66.1838 h -3.3304 z m -7.9084,0 h 3.4679 v 66.1838 h -3.4679 z m -7.9084,0 h 3.6053 v 66.1838 h -3.6053 z m -7.9085,0 h 3.7428 v 66.1838 h -3.7428 z m -7.9084,0 h 3.8802 v 66.1838 h -3.8802 z m -7.9084,0 h 4.0176 v 66.1838 h -4.0176 z m -7.9084,0 h 4.1551 v 66.1838 h -4.1551 z m -7.9085,0 h 4.2926 v 66.1838 h -4.2926 z m -7.9084,0 h 4.43 v 66.1838 h -4.43 z m -7.9084,0 h 4.5674 v 66.1838 h -4.5674 z m -7.9084,0 h 4.7048 v 66.1838 h -4.7048 z m -7.9085,0 h 4.8424 v 66.1838 h -4.8424 z m -7.9084,0 h 4.9798 v 66.1838 h -4.9798 z m -7.9084,0 h 5.1172 v 66.1838 h -5.1172 z m -7.9084,0 h 5.2546 v 66.1838 h -5.2546 z m -7.9085,0 h 5.3921 v 66.1838 h -5.3921 z m -7.9084,0 h 5.5295 v 66.1838 h -5.5295 z m -7.9084,0 h 5.667 v 66.1838 h -5.667 z m -7.9085,0 h 5.8045 v 66.1838 h -5.8045 z m -7.9084,0 h 5.9419 v 66.1838 h -5.9419 z m -7.9084,0 h 6.0793 v 66.1838 h -6.0793 z m -7.9084,0 h 6.2167 v 66.1838 h -6.2167 z m -7.9085,0 h 6.3543 V 66.1838 H 63.2674 Z M 55.359,0 h 6.4917 V 66.1838 H 55.359 Z m -7.9084,0 h 6.6291 v 66.1838 h -6.6291 z m -7.9084,0 h 6.7665 v 66.1838 h -6.7665 z m -7.9085,0 h 6.904 v 66.1838 h -6.904 z m -7.9084,0 h 7.0415 v 66.1838 h -7.0415 z m -7.9084,0 h 7.1789 V 66.1838 H 15.8169 Z M 7.9084,0 h 7.3164 V 66.1838 H 7.9084 Z M 0,0 H 7.4538 V 66.1838 H 0 Z" /></pattern><inkscape:path-effect
       effect="fillet_chamfer"
       id="path-effect32-1-0-4-9"
       is_visible="true"
       lpeversion="1"
       nodesatellites_param="F,0,0,1,0,0,0,1 @ F,0,0,1,0,0,0,1 @ F,0,0,1,0,0,0,1 @ F,0,0,1,0,0,0,1 @ F,0,0,1,0,0,0,1 | F,0,0,1,0,0,0,1 @ F,0,0,1,0,0,0,1 @ F,0,0,1,0,0,0,1 @ F,0,0,1,0,0,0,1 @ F,0,0,1,0,0,0,1 @ F,0,0,1,0,0,0,1 @ F,0,0,1,0,0,0,1 @ F,0,0,1,0,0,0,1 @ F,0,0,1,0,0,0,1 @ F,0,0,1,0,0,0,1 @ F,0,0,1,0,0,0,1 @ F,0,0,1,0,0,0,1 @ F,0,0,1,0,0,0,1 @ F,0,0,1,0,0,0,1 | F,0,0,1,0,0,0,1 @ F,0,0,1,0,0,0,1 @ F,0,0,1,0,0,0,1 @ F,0,0,1,0,0,0,1"
       radius="0"
       unit="px"
       method="auto"
       mode="F"
       chamfer_steps="1"
       flexible="false"
       use_knot_distance="true"
       apply_no_radius="true"
       apply_with_radius="true"
       only_selected="false"
       hide_knots="false" /></defs><sodipodi:namedview
     id="namedview1"
     pagecolor="#000000"
     bordercolor="#000000"
     borderopacity="0.25"
     inkscape:showpageshadow="false"
     inkscape:pageopacity="0.0"
     inkscape:pagecheckerboard="true"
     inkscape:deskcolor="#d1d1d1"
     inkscape:lockguides="false"
     inkscape:zoom="2.8284271"
     inkscape:cx="172.35728"
     inkscape:cy="81.494057"
     inkscape:window-width="2396"
     inkscape:window-height="1293"
     inkscape:window-x="0"
     inkscape:window-y="0"
     inkscape:window-maximized="1"
     inkscape:current-layer="layer31"
     showgrid="false"
     inkscape:export-bgcolor="#ffffff00"
     showguides="true"
     borderlayer="false"
     showborder="false"><sodipodi:guide
       position="1616.9091,-4139.1099"
       orientation="0,-1"
       id="guide360"
       inkscape:locked="false" /><sodipodi:guide
       position="1460.6512,-3953.7147"
       orientation="0,659.35662"
       id="guide361"
       inkscape:locked="false" /><sodipodi:guide
       position="2281.0798,283.36511"
       orientation="943.88005,0"
       id="guide362"
       inkscape:locked="false" /><sodipodi:guide
       position="2120.0079,-4897.5947"
       orientation="0,-659.35662"
       id="guide363"
       inkscape:locked="false" /><sodipodi:guide
       position="1460.6512,-4897.5947"
       orientation="-943.88005,0"
       id="guide364"
       inkscape:locked="false" /><sodipodi:guide
       position="1460.6512,-3953.7147"
       orientation="0,659.35662"
       id="guide365"
       inkscape:locked="false" /><sodipodi:guide
       position="2120.0079,-4897.5947"
       orientation="0,-659.35662"
       id="guide367"
       inkscape:locked="false" /><sodipodi:guide
       position="1460.6512,-4897.5947"
       orientation="-943.88005,0"
       id="guide368"
       inkscape:locked="false" /><inkscape:page
       x="6.7782037e-07"
       y="-1.4691306e-05"
       width="289.7142"
       height="162.06558"
       id="page94"
       margin="0"
       bleed="0" /></sodipodi:namedview><!--! Font Awesome Pro 6.4.2 by @fontawesome - https://fontawesome.com License - https://fontawesome.com/license (Commercial License) Copyright 2023 Fonticons, Inc. --><g
     inkscape:groupmode="layer"
     id="layer1"
     inkscape:label="background"
     style="display:inline"
     transform="translate(-747.93347,2616.9115)"><circle
       style="fill:#ffffff;stroke-width:1.10046"
       id="path1"
       cx="837.15222"
       cy="-2527.8208"
       r="88.814758" /></g><g
     inkscape:groupmode="layer"
     id="layer31"
     inkscape:label="OpenPGP signature packet"
     style="display:inline"
     transform="translate(-864.87878,2560.6205)"><path
       id="path2-1-4-5-1-7-1"
       style="display:inline;mix-blend-mode:multiply;fill:url(#pattern180);fill-opacity:1;stroke:none;stroke-width:5.8655;stroke-linecap:round;stroke-dasharray:none;stroke-opacity:1"
       inkscape:label="Publickey ((Asym))"
       d="m 998.6159,-2418.8799 c 18.627,0.4549 34.0958,-14.2763 34.5508,-32.9033 0.4549,-18.627 -14.2763,-34.0964 -32.9033,-34.5513 -13.08964,-0.3198 -24.68294,7.9128 -30.53934,18.6737 l -0.02,0.6846 c -5.8504,-0.083 -12.9906,-0.3268 -19.4381,-0.4843 l -6.5249,4.132 -8.0925,-4.489 -8.29796,3.9224 -6.10817,-0.1492 -6.38326,-4.281 -10.01748,3.8804 -9.07911,-4.3467 -12.70174,13.9931 12.00349,14.5971 73.79643,1.8024 -0.01,0.2382 c 5.2187,11.3157 16.4642,18.9558 29.76264,19.2806 z m 16.2144,-25.7678 a 7.1906559,7.1906559 0 0 1 -7.0131,-7.3643 7.1906559,7.1906559 0 0 1 7.3642,-7.013 7.1906559,7.1906559 0 0 1 7.0131,7.3642 7.1906559,7.1906559 0 0 1 -7.3642,7.0131 z" /><path
       id="path2-1-4-5-8"
       style="display:inline;mix-blend-mode:multiply;fill:none;fill-opacity:1;stroke:#006961;stroke-width:10.4431;stroke-linecap:round;stroke-dasharray:none;stroke-opacity:1"
       d="m 156.30312,759.25868 c -9.78054,19.91382 -30.12868,33.02384 -53.81237,33.02384 -33.173715,0 -60.066326,-26.89261 -60.066326,-60.06633 0,-33.17372 26.892611,-60.06633 60.066326,-60.06633 23.31181,0 43.58824,15.15712 53.54415,34.5646 m -9.14624,1.20213 h 4.97796 c 10.89491,0.20296 25.86265,0 38.79397,0 l 11.43353,7.63836 14.59897,-7.63836 14.59896,7.3422 h 10.87817 l 11.54761,-7.3422 17.66083,7.3422 16.34856,-7.34219 22,25.45886 -22,25.45887 h -135.8606 -4.97796 M 89.058073,732.21619 c -4e-6,6.98969 -5.666271,12.65596 -12.655965,12.65596 -6.989695,0 -12.655963,-5.66627 -12.655967,-12.65596 -2e-6,-6.9897 5.666268,-12.65597 12.655967,-12.65597 6.989698,0 12.655967,5.66627 12.655965,12.65597 z"
       inkscape:label="Publickey ((Asym))"
       sodipodi:nodetypes="cssscccccccccccccccsssss"
       transform="matrix(0.56166813,0,0,-0.56166813,852.19581,-2074.1507)"
       inkscape:path-effect="#path-effect32-1-0-4-9"
       inkscape:original-d="m 156.30312,759.25868 c -9.78054,19.91382 -30.12868,33.02384 -53.81237,33.02384 -33.173715,0 -60.066326,-26.89261 -60.066326,-60.06633 0,-33.17372 26.892611,-60.06633 60.066326,-60.06633 23.31181,0 43.58824,15.15712 53.54415,34.5646 m -9.14624,1.20213 h 4.97796 c 10.89491,0.20296 25.86265,0 38.79397,0 l 11.43353,7.63836 14.59897,-7.63836 14.59896,7.3422 h 10.87817 l 11.54761,-7.3422 17.66083,7.3422 16.34856,-7.34219 22,25.45886 -22,25.45887 h -135.8606 -4.97796 M 89.058073,732.21619 c -4e-6,6.98969 -5.666271,12.65596 -12.655965,12.65596 -6.989695,0 -12.655963,-5.66627 -12.655967,-12.65596 -2e-6,-6.9897 5.666268,-12.65597 12.655967,-12.65597 6.989698,0 12.655967,5.66627 12.655965,12.65597 z" /></g><metadata
     id="metadata1"><rdf:RDF><cc:Work
         rdf:about=""><cc:license
           rdf:resource="http://creativecommons.org/licenses/by-sa/4.0/" /></cc:Work><cc:License
         rdf:about="http://creativecommons.org/licenses/by-sa/4.0/"><cc:permits
           rdf:resource="http://creativecommons.org/ns#Reproduction" /><cc:permits
           rdf:resource="http://creativecommons.org/ns#Distribution" /><cc:requires
           rdf:resource="http://creativecommons.org/ns#Notice" /><cc:requires
           rdf:resource="http://creativecommons.org/ns#Attribution" /><cc:permits
           rdf:resource="http://creativecommons.org/ns#DerivativeWorks" /><cc:requires
           rdf:resource="http://creativecommons.org/ns#ShareAlike" /></cc:License></rdf:RDF></metadata></svg>
