<?xml version="1.0" encoding="UTF-8" standalone="no"?>
<!-- Created with Inkscape (http://www.inkscape.org/) -->

<svg
   width="1500"
   height="2300"
   viewBox="0 0 396.87495 608.54159"
   version="1.1"
   id="svg1"
   xmlns:xlink="http://www.w3.org/1999/xlink"
   xmlns="http://www.w3.org/2000/svg"
   xmlns:svg="http://www.w3.org/2000/svg">
  <defs
     id="defs1">
    <linearGradient
       id="linearGradient372">
      <stop
         style="stop-color:#baa600;stop-opacity:1;"
         offset="0"
         id="stop372" />
      <stop
         style="stop-color:#baa600;stop-opacity:0;"
         offset="1"
         id="stop373" />
    </linearGradient>
    <linearGradient
       id="linearGradient369">
      <stop
         style="stop-color:#195962;stop-opacity:1;"
         offset="0"
         id="stop369" />
      <stop
         style="stop-color:#195962;stop-opacity:0;"
         offset="1"
         id="stop370" />
    </linearGradient>
    <pattern
       xlink:href="#shading6"
       preserveAspectRatio="xMidYMid"
       id="pattern180"
       patternTransform="matrix(0.40775398,-0.04285667,0.04285667,0.40775398,0,0)"
       x="0"
       y="0" />
    <pattern
       patternUnits="userSpaceOnUse"
       width="372.6899"
       height="66.1838"
       patternTransform="scale(0.2)"
       preserveAspectRatio="xMidYMid"
       id="shading6"
       style="fill:#ee5937">
      <path
         id="path34"
         style="stroke-width:0.487199;stroke-linecap:square;paint-order:markers fill stroke;stop-color:#000000"
         d="m 371.6961,0 h 0.9938 v 66.1838 h -0.9938 z m -7.9084,0 h 1.1312 v 66.1838 h -1.1312 z m -7.9085,0 h 1.2687 v 66.1838 h -1.2687 z m -7.9084,0 h 1.4062 v 66.1838 h -1.4062 z m -7.9084,0 h 1.5436 v 66.1838 h -1.5436 z m -7.9084,0 h 1.681 v 66.1838 h -1.681 z m -7.9085,0 h 1.8185 v 66.1838 h -1.8185 z m -7.9084,0 h 1.9559 v 66.1838 h -1.9559 z m -7.9084,0 h 2.0934 v 66.1838 h -2.0934 z m -7.9085,0 h 2.2309 v 66.1838 h -2.2309 z m -7.9084,0 h 2.3683 v 66.1838 h -2.3683 z m -7.9084,0 h 2.5057 v 66.1838 h -2.5057 z m -7.9084,0 h 2.6431 v 66.1838 h -2.6431 z m -7.9085,0 h 2.7807 v 66.1838 h -2.7807 z m -7.9084,0 h 2.9181 v 66.1838 h -2.9181 z m -7.9084,0 h 3.0555 v 66.1838 h -3.0555 z m -7.9084,0 h 3.1929 v 66.1838 h -3.1929 z m -7.9085,0 h 3.3304 v 66.1838 h -3.3304 z m -7.9084,0 h 3.4679 v 66.1838 h -3.4679 z m -7.9084,0 h 3.6053 v 66.1838 h -3.6053 z m -7.9085,0 h 3.7428 v 66.1838 h -3.7428 z m -7.9084,0 h 3.8802 v 66.1838 h -3.8802 z m -7.9084,0 h 4.0176 v 66.1838 h -4.0176 z m -7.9084,0 h 4.1551 v 66.1838 h -4.1551 z m -7.9085,0 h 4.2926 v 66.1838 h -4.2926 z m -7.9084,0 h 4.43 v 66.1838 h -4.43 z m -7.9084,0 h 4.5674 v 66.1838 h -4.5674 z m -7.9084,0 h 4.7048 v 66.1838 h -4.7048 z m -7.9085,0 h 4.8424 v 66.1838 h -4.8424 z m -7.9084,0 h 4.9798 v 66.1838 h -4.9798 z m -7.9084,0 h 5.1172 v 66.1838 h -5.1172 z m -7.9084,0 h 5.2546 v 66.1838 h -5.2546 z m -7.9085,0 h 5.3921 v 66.1838 h -5.3921 z m -7.9084,0 h 5.5295 v 66.1838 h -5.5295 z m -7.9084,0 h 5.667 v 66.1838 h -5.667 z m -7.9085,0 h 5.8045 v 66.1838 h -5.8045 z m -7.9084,0 h 5.9419 v 66.1838 h -5.9419 z m -7.9084,0 h 6.0793 v 66.1838 h -6.0793 z m -7.9084,0 h 6.2167 v 66.1838 h -6.2167 z m -7.9085,0 h 6.3543 V 66.1838 H 63.2674 Z M 55.359,0 h 6.4917 V 66.1838 H 55.359 Z m -7.9084,0 h 6.6291 v 66.1838 h -6.6291 z m -7.9084,0 h 6.7665 v 66.1838 h -6.7665 z m -7.9085,0 h 6.904 v 66.1838 h -6.904 z m -7.9084,0 h 7.0415 v 66.1838 h -7.0415 z m -7.9084,0 h 7.1789 V 66.1838 H 15.8169 Z M 7.9084,0 h 7.3164 V 66.1838 H 7.9084 Z M 0,0 H 7.4538 V 66.1838 H 0 Z" />
    </pattern>
    <linearGradient
       id="linearGradient174">
      <stop
         style="stop-color:#18545c;stop-opacity:0;"
         offset="0"
         id="stop173" />
      <stop
         style="stop-color:#1d606b;stop-opacity:1;"
         offset="1"
         id="stop174" />
    </linearGradient>
    <linearGradient
       id="linearGradient160">
      <stop
         style="stop-color:#18545c;stop-opacity:1;"
         offset="0"
         id="stop161" />
      <stop
         style="stop-color:#247583;stop-opacity:1;"
         offset="1"
         id="stop160" />
    </linearGradient>
    <linearGradient
       xlink:href="#linearGradient160"
       id="linearGradient161"
       x1="20.036419"
       y1="23.489492"
       x2="442.06076"
       y2="513.10101"
       gradientUnits="userSpaceOnUse"
       gradientTransform="translate(37.761543,12.043323)" />
    <linearGradient
       xlink:href="#linearGradient174"
       id="linearGradient161-2"
       x1="121.714"
       y1="71.944756"
       x2="431.8092"
       y2="522.57159"
       gradientUnits="userSpaceOnUse"
       gradientTransform="matrix(0.97382777,0,0,0.79485034,46.895547,12.25789)" />
    <filter
       style="color-interpolation-filters:sRGB;"
       id="filter173"
       x="0"
       y="0"
       width="1"
       height="1">
      <feTurbulence
         type="turbulence"
         baseFrequency="23.902 44.5096"
         numOctaves="2"
         seed="36"
         result="turbulence"
         id="feTurbulence172" />
      <feComposite
         in="SourceGraphic"
         in2="turbulence"
         operator="in"
         result="composite1"
         id="feComposite172" />
      <feColorMatrix
         values="1 0 0 0 0 0 1 0 0 0 0 0 1 0 0 0 0 0 26.4208 -0.76 "
         result="color"
         id="feColorMatrix172" />
      <feFlood
         flood-opacity="0"
         flood-color="rgb(0,0,0)"
         result="flood"
         id="feFlood172" />
      <feMerge
         result="merge"
         id="feMerge173">
        <feMergeNode
           in="flood"
           id="feMergeNode172" />
        <feMergeNode
           in="color"
           id="feMergeNode173" />
      </feMerge>
      <feComposite
         in2="SourceGraphic"
         operator="in"
         result="composite2"
         id="feComposite173" />
    </filter>
    <filter
       style="color-interpolation-filters:sRGB;"
       id="filter297"
       x="-0.032322893"
       y="-0.07192049"
       width="1.0646458"
       height="1.143841">
      <feMorphology
         result="result1"
         in="SourceAlpha"
         operator="dilate"
         radius="0"
         id="feMorphology296" />
      <feGaussianBlur
         stdDeviation="3.6"
         in="result1"
         result="result0"
         id="feGaussianBlur296" />
      <feDiffuseLighting
         surfaceScale="-5"
         id="feDiffuseLighting296">
        <feDistantLight
           elevation="45"
           azimuth="225"
           id="feDistantLight296" />
      </feDiffuseLighting>
      <feComposite
         in2="result0"
         operator="in"
         result="result91"
         id="feComposite296" />
      <feComposite
         in="SourceGraphic"
         in2="result91"
         id="feComposite297" />
    </filter>
    <linearGradient
       xlink:href="#linearGradient369"
       id="linearGradient370"
       x1="42.424424"
       y1="732.21619"
       x2="389.82837"
       y2="738.23041"
       gradientUnits="userSpaceOnUse" />
    <linearGradient
       xlink:href="#linearGradient372"
       id="linearGradient373"
       x1="90.017475"
       y1="138.66292"
       x2="187.16899"
       y2="138.73563"
       gradientUnits="userSpaceOnUse" />
  </defs>
  <g
     id="layer4"
     style="display:inline">
    <path
       id="rect1-4"
       style="display:inline;fill:url(#linearGradient161-2);stroke-width:0.369038;stroke-linecap:round;paint-order:fill markers stroke;filter:url(#filter173)"
       transform="matrix(1.0268756,0,0,1.2580985,-10.394352,-3.3783103)"
       d="M -3.4619603,-0.65842062 H 400.21666 V 487.17086 H -3.4619603 Z" />
    <path
       id="rect1"
       style="display:inline;mix-blend-mode:overlay;fill:url(#linearGradient161);stroke-width:0.419456;stroke-linecap:round;paint-order:fill markers stroke"
       d="M -13.49402,-4.477356 H 401.03372 V 609.25995 H -13.49402 Z" />
    <path
       id="rect177"
       style="display:inline;fill:#ffffff;stroke-width:1.82532;stroke-linecap:round;paint-order:fill markers stroke"
       d="M 15.931595,474.54077 H 407.59203 V 614.9326 H 15.931595 Z" />
    <path
       id="rect176"
       style="display:inline;fill:none;stroke:#61a78d;stroke-width:1.94791;stroke-linecap:round;paint-order:fill markers stroke"
       d="M -25.350845,39.61132 H 361.64251 c 8.85246,0 15.97909,6.552207 15.97916,14.691045 l 0.005,567.926315" />
    <path
       id="path17-0"
       style="color:#000000;display:inline;mix-blend-mode:screen;fill:#baa600;fill-opacity:1;stroke:none;stroke-width:0.82448;stroke-linecap:round;-inkscape-stroke:none"
       d="m 336.76318,161.07989 c 0,-6.29434 -5.14701,-11.44127 -11.44127,-11.44127 h -43.08874 c -6.29427,0 -11.44126,5.147 -11.44126,11.44127 v 29.48482 c 0,6.29426 5.14699,11.44126 11.44126,11.44126 h 7.93401 v 24.93998 48.2922 c 0,2.58824 2.135,4.72305 4.72305,4.72305 h 17.56689 c 2.58805,0 4.72305,-2.13481 4.72305,-4.72305 v -19.04194 c 0,-18.06786 -0.028,-36.13046 0,-54.19024 h 8.14174 c 6.29426,0 11.44127,-5.14693 11.44127,-11.44126 z m -1.30113,0 v 29.48482 c 0,5.58549 -4.55457,10.13852 -10.14014,10.13852 h -9.44286 l -0.002,0.65057 c -0.0298,18.27933 0,36.55906 0,54.84241 v 19.04194 c -10e-6,1.87076 -1.54937,3.42192 -3.42031,3.42192 h -17.5669 c -1.87093,0 -3.42191,-1.55116 -3.42191,-3.42192 v -74.53492 h -9.23514 c -5.58557,0 -10.14014,-4.55296 -10.14014,-10.13852 v -29.48482 c 0,-5.58557 4.55457,-10.13853 10.14014,-10.13853 h 43.08874 c 5.58556,0 10.14014,4.55303 10.14014,10.13853 z m -1.99679,0 c 0,-4.50573 -3.63763,-8.14335 -8.14335,-8.14335 h -43.08874 c -4.50572,0 -8.14334,3.63772 -8.14334,8.14335 v 29.48482 c 0,4.50562 3.63772,8.14335 8.14334,8.14335 h 9.23514 v -0.78745 -2.37843 c 1.2e-4,-0.55897 0.43942,-0.9986 0.9984,-0.99839 0.55875,1.1e-4 0.99828,0.43965 0.99839,0.99839 v 2.37843 77.31754 c 0,0.76472 0.66131,1.42513 1.42513,1.42513 h 17.56689 c 0.76383,0 1.42513,-0.66041 1.42513,-1.42513 v -19.04194 c 0,-18.82761 -0.0348,-37.65805 0,-56.48976 8.3e-4,-0.59776 -0.002,-1.19187 0,-1.78423 v -0.002 -2.37843 c 1.2e-4,-0.55897 0.43943,-0.99859 0.9984,-0.99839 0.55874,1.1e-4 0.99667,0.43965 0.99678,0.99839 v 2.38004 c -1.1e-4,0.047 9e-5,0.0907 0,0.13205 v 0.65379 h 9.44448 c 4.50563,0 8.14335,-3.63763 8.14335,-8.14335 z m -1.30113,0 v 29.48482 c 0,3.80945 -3.03267,6.8406 -6.84222,6.8406 h -8.14174 v -1.86313 c -2.4e-4,-1.26213 -1.03739,-2.29928 -2.29952,-2.29952 -1.26262,-4.6e-4 -2.30089,1.0369 -2.30114,2.29952 v 2.37843 c -0.002,0.59782 8.2e-4,1.19181 0,1.78423 -0.0348,18.83492 0,37.66536 0,56.49137 v 19.04194 c 0,0.12962 0.008,0.12239 -0.12239,0.12239 h -17.56689 c -0.13053,0 -0.12238,0.007 -0.12238,-0.12239 v -77.31754 -2.37843 c -2.6e-4,-1.26213 -1.0374,-2.29927 -2.29953,-2.29952 -1.26263,-4.6e-4 -2.30089,1.0369 -2.30114,2.29952 v 1.86313 h -7.93401 c -3.80955,0 -6.84222,-3.03105 -6.84222,-6.8406 v -29.48482 c 0,-3.80956 3.03276,-6.84222 6.84222,-6.84222 h 43.08874 c 3.80945,0 6.84222,3.03276 6.84222,6.84222 z m -17.15788,7.57652 -0.0483,-3.12723 c -0.0537,-3.46283 -2.91528,-6.28022 -6.37845,-6.28022 h -9.77621 c -3.46879,0 -6.30822,2.88433 -6.25445,6.35268 l 0.0483,3.12723 c 0.0537,3.4627 2.91526,6.27861 6.37845,6.27861 h 9.77621 c 3.4688,0 6.30821,-2.88272 6.25445,-6.35107 z m -1.30274,0.0209 c 0.0426,2.74737 -2.20404,5.02901 -4.95171,5.02901 h -9.77621 c -2.75744,0 -5.03294,-2.24125 -5.0757,-4.99841 l -0.0483,-3.12723 c -0.0425,-2.74737 2.20404,-5.02901 4.95171,-5.02901 h 9.77621 c 2.75742,0 5.03294,2.24138 5.0757,4.99841 z m -1.99518,0.0306 -0.0483,-3.12723 c -0.0261,-1.68346 -1.39714,-3.03383 -3.08053,-3.03383 h -9.77621 c -1.65066,0 -2.98213,1.35257 -2.95653,3.00323 l 0.0483,3.12723 c 0.0261,1.68315 1.39713,3.03222 3.08053,3.03222 h 9.77621 c 1.65066,0 2.98213,-1.35097 2.95653,-3.00162 z m -0.002,94.07445 c 0,-1.24666 -1.02388,-2.27215 -2.27054,-2.27215 -1.24666,-2e-5 -2.27215,1.02549 -2.27215,2.27215 0,1.24666 1.02549,2.27055 2.27215,2.27053 1.24665,0 2.27054,-1.02388 2.27054,-2.27053 z m -0.16747,-18.99524 c 0,-1.24667 -1.02548,-2.27217 -2.27216,-2.27216 -1.24665,0 -2.27053,1.02549 -2.27053,2.27216 -2e-5,1.24666 1.02388,2.27053 2.27053,2.27053 1.24668,2e-5 2.27217,-1.02387 2.27216,-2.27053 z m 0,24.54598 c 0,-1.24666 -1.02549,-2.27216 -2.27216,-2.27215 -1.24664,0 -2.27053,1.0255 -2.27053,2.27215 0,1.24666 1.02389,2.27055 2.27053,2.27055 1.24667,10e-6 2.27216,-1.02388 2.27216,-2.27055 z m -0.0725,-30.54762 c 0,-1.24666 -1.02388,-2.27055 -2.27053,-2.27055 -1.24667,0 -2.27215,1.02389 -2.27215,2.27055 0,1.24665 1.02548,2.27215 2.27215,2.27215 1.24665,0 2.27053,-1.0255 2.27053,-2.27215 z m -0.0209,14.79715 c 0,-1.24664 -1.02388,-2.27215 -2.27053,-2.27215 -1.24667,0 -2.27216,1.0255 -2.27216,2.27215 0,1.24667 1.0255,2.27055 2.27216,2.27055 1.24664,0 2.27053,-1.02389 2.27053,-2.27055 z m -1.03865,-83.85379 c 0.0149,0.96466 -0.69044,1.67956 -1.6554,1.67956 h -9.77621 c -1.00878,0 -1.76373,-0.74333 -1.77939,-1.75202 l -0.0483,-3.12723 c -0.0149,-0.96465 0.69044,-1.67956 1.65539,-1.67956 h 9.77621 c 1.00877,0 1.76374,0.74363 1.77939,1.75202 z m -8.87152,44.3625 c 7.9e-4,-1.12695 -0.92619,-2.05393 -2.05314,-2.05315 -1.12606,5.2e-4 -2.05232,0.92709 -2.05154,2.05315 v 54.93581 l -0.0209,0.0193 0.0209,0.53463 0.002,0.0531 v 0.005 c 0.0284,0.61469 0.30248,1.14636 0.70209,1.48149 0.39962,0.33512 0.89784,0.48372 1.38487,0.47504 0.48704,-0.009 0.97973,-0.17422 1.36716,-0.52335 0.38743,-0.34913 0.64249,-0.89194 0.64895,-1.50725 v -0.003 z m -1.30113,0 v 55.46076 c -0.003,0.29307 -0.0924,0.43822 -0.219,0.55235 -0.12664,0.11411 -0.31792,0.18644 -0.51853,0.19001 -0.20059,0.003 -0.39434,-0.0612 -0.52495,-0.1707 -0.13062,-0.10954 -0.22483,-0.25312 -0.23833,-0.54589 v -0.0129 h -0.002 v -0.029 -55.44466 c -2.9e-4,-0.42238 0.32802,-0.75182 0.75041,-0.75201 0.42273,-3e-4 0.7523,0.32927 0.75201,0.75201 z m -0.0998,0 c 6.9e-4,-0.36047 -0.2917,-0.65287 -0.65217,-0.65218 -0.35985,1.9e-4 -0.65127,0.29233 -0.65058,0.65218 v 55.17735 l -0.01,0.01 0.01,0.2802 v 0.0225 l 1.30275,-0.0225 z m 35.97796,-52.01112 c 0,-5.93992 -4.85127,-10.79026 -10.79119,-10.79027 h -43.08922 c -5.93992,1e-5 -10.79026,4.85035 -10.79026,10.79027 v 29.48406 c 0,5.93992 4.85034,10.79026 10.79026,10.79026 h 8.58556 v 73.88415 c 0,2.2295 1.84309,4.07166 4.07259,4.07166 h 17.56579 c 2.22949,0 4.07258,-1.84216 4.07259,-4.07166 v -19.0418 c 0,-18.28408 -0.0298,-36.56442 0,-54.84235 h 8.79269 c 5.93992,0 10.79119,-4.85034 10.79119,-10.79026 z m -3.29819,0 v 29.48406 c 0,4.15759 -3.33541,7.49207 -7.493,7.49207 h -8.79269 c 9e-5,-0.0441 -10e-5,-0.0883 0,-0.13249 v -0.002 -2.38011 c -1.8e-4,-0.91044 -0.7382,-1.64845 -1.64864,-1.64863 -0.91079,-3.3e-4 -1.64937,0.73783 -1.64955,1.64863 v 2.37824 c -0.002,0.59536 8.2e-4,1.19043 0,1.78578 -0.0348,18.83333 0,37.66415 0,56.49098 v 19.04181 c 0,0.44717 -0.32723,0.77347 -0.7744,0.77347 h -17.5652 c -0.44717,0 -0.7744,-0.3263 -0.7744,-0.77347 v -77.31857 -2.37824 c -1.8e-4,-0.91044 -0.73819,-1.64845 -1.64863,-1.64863 -0.9108,-3.3e-4 -1.64938,0.73783 -1.64956,1.64863 v 2.37824 0.13622 h -8.58556 c -4.15759,0 -7.49207,-3.33448 -7.49207,-7.49207 v -29.48403 c 0,-4.1576 3.33448,-7.49301 7.49207,-7.49301 h 43.08922 c 4.15759,0 7.493,3.33541 7.493,7.49301 z m -18.45961,7.58664 -0.0485,-3.12745 c -0.0482,-3.10994 -2.61744,-5.63912 -5.72774,-5.63912 h -9.77609 c -3.10824,0 -5.6509,2.58257 -5.60272,5.69043 l 0.0485,3.12745 c 0.0482,3.10994 2.61651,5.63912 5.72683,5.63912 h 9.77701 c 3.10824,0 5.65089,-2.58257 5.60272,-5.69043 z m -3.29725,0.0513 c 0.0203,1.30766 -0.99766,2.34092 -2.30547,2.34092 h -9.77701 c -1.3461,0 -2.40866,-1.04631 -2.42957,-2.39223 l -0.0486,-3.12745 c -0.0203,-1.30766 0.99766,-2.34093 2.30547,-2.34093 h 9.77609 c 1.34608,0 2.40958,1.04632 2.43049,2.39224 z m -10.17244,44.37317 c 5.4e-4,-0.77485 -0.62773,-1.40312 -1.40258,-1.40258 -0.77422,3.5e-4 -1.40151,0.62836 -1.40097,1.40258 v 55.20473 l -0.01,0.01 0.01,0.25282 0.002,0.0499 c 0.0837,1.81492 2.78287,1.76687 2.80194,-0.0499 z m -1.40199,-4.8e-4 v 55.4671 l -0.0108,-0.30242" />
    <path
       id="path17-0-3-9"
       style="color:#000000;display:inline;mix-blend-mode:screen;fill:url(#linearGradient373);fill-opacity:1;stroke:none;stroke-width:0.825826;stroke-linecap:round;-inkscape-stroke:none"
       d="m 101.47734,73.395153 c -6.304565,0 -11.459865,5.155311 -11.459865,11.459841 v 29.533156 c 0,6.30453 5.1553,11.45983 11.459865,11.45983 h 7.94682 v 24.98079 48.37099 c 0,2.59245 2.13867,4.73093 4.73092,4.73093 h 17.59557 c 2.59228,0 4.73095,-2.13848 4.73095,-4.73093 v -19.07281 c 0,-18.09734 -0.0281,-36.18973 0,-54.27897 h 8.15491 c 6.30452,0 11.45983,-5.15523 11.45983,-11.45983 V 84.854994 c 0,-6.304598 -5.15531,-11.459841 -11.45983,-11.459841 z m 16.8419,8.135761 h 8.56228 c 3.03322,0 5.53956,2.116325 5.58654,4.717476 l 0.0425,2.349417 c 0.0471,2.605295 -2.43968,4.770278 -5.47784,4.770278 h -8.56226 c -3.03325,0 -5.53957,-2.114884 -5.58655,-4.715933 l -0.043,-2.349417 c -0.0471,-2.605295 2.44023,-4.771821 5.47836,-4.771821 z m -0.0626,54.932186 c 1.12878,-7.9e-4 2.05724,0.92766 2.05645,2.05645 l 5.2e-4,55.56158 v 0.003 c -0.006,0.6163 -0.26205,1.15964 -0.65012,1.50934 -0.38806,0.3497 -0.88176,0.51531 -1.36959,0.52433 -0.48782,0.009 -0.98692,-0.14001 -1.38719,-0.47567 -0.40026,-0.33568 -0.67446,-0.8683 -0.7029,-1.48399 v -0.005 l -0.002,-0.0528 -0.0212,-0.53572 0.0212,-0.0191 v -55.02586 c -7.8e-4,-1.1279 0.927,-2.05593 2.0549,-2.05645 z m 9.72946,24.51701 c 1.24869,0 2.27438,1.02567 2.27438,2.27437 0,1.24868 -1.02569,2.27539 -2.27438,2.27539 -1.24868,0 -2.27591,-1.02671 -2.27591,-2.27539 0,-1.2487 1.02723,-2.27437 2.27591,-2.27437 z m 0.071,6.00995 c 1.24871,-1e-5 2.27591,1.02669 2.27591,2.27539 2e-5,1.2487 -1.0272,2.2744 -2.27591,2.27437 -1.24868,0 -2.27439,-1.02567 -2.27437,-2.27437 0,-1.2487 1.02569,-2.27539 2.27437,-2.27539 z m -0.0917,8.80968 c 1.24869,0 2.27385,1.02724 2.27385,2.27593 0,1.24868 -1.02517,2.27436 -2.27385,2.27436 -1.2487,0 -2.27592,-1.02567 -2.27592,-2.27436 0,-1.24869 1.02721,-2.27593 2.27592,-2.27593 z m 0.26087,10.21654 c 1.2487,0 2.27438,1.02671 2.27438,2.27541 0,1.24867 -1.0257,2.27437 -2.27438,2.27437 -1.2487,2e-5 -2.27591,-1.02569 -2.27591,-2.27437 0,-1.2487 1.02721,-2.27543 2.27591,-2.27541 z m -0.16925,5.55964 c 1.2487,-1e-5 2.27592,1.02722 2.27592,2.27591 0,1.24871 -1.02722,2.27439 -2.27592,2.27437 -1.24868,0 -2.27437,-1.02567 -2.27437,-2.27437 0,-1.24868 1.02569,-2.27591 2.27437,-2.27591 z" />
    <path
       style="color:#000000;display:inline;mix-blend-mode:screen;fill:#ee5937;fill-opacity:1;stroke-width:0.841482;stroke-linejoin:round;stroke-dasharray:1.64088, 1.64088;-inkscape-stroke:none;paint-order:fill markers stroke"
       d="m 56.946411,133.69464 -0.03109,3.28232 c -0.521543,-0.0127 -1.038613,-0.009 -1.551479,0.0257 l -0.14493,-3.27805 c 0.580051,-0.0262 1.156611,-0.0328 1.728907,-0.0301 z m 1.722906,0.0616 c 0.575718,0.0333 1.150567,0.0832 1.725008,0.15022 l -0.37874,3.25981 c -0.512284,-0.06 -1.026349,-0.10473 -1.542707,-0.13538 z m -5.175015,0.0904 0.317808,3.2653 c -0.51205,0.0501 -1.021911,0.1144 -1.530418,0.19533 l -0.510174,-3.24265 c 0.572183,-0.0915 1.146328,-0.16185 1.722723,-0.21787 z m 8.615782,0.30894 c 0.570237,0.0999 1.141283,0.21558 1.709853,0.35262 l -0.768926,3.19158 c -0.494759,-0.11831 -0.996422,-0.22257 -1.503957,-0.31105 z m -12.039292,0.22397 0.684129,3.20895 c -0.504043,0.1068 -1.00423,0.22971 -1.499779,0.36599 l -0.871336,-3.1649 c 0.559104,-0.15403 1.121273,-0.28956 1.686986,-0.41004 z m 15.423538,0.58343 c 0.559122,0.16941 1.112033,0.35915 1.658614,0.56665 l -1.162318,3.06754 c -0.47606,-0.18046 -0.960076,-0.34452 -1.447835,-0.49217 z m -18.764118,0.33015 1.038769,3.11309 c -0.487351,0.16252 -0.970377,0.33986 -1.449607,0.53174 l -1.220635,-3.04618 c 0.536428,-0.21461 1.081124,-0.41506 1.631473,-0.59865 z m 22.03265,0.89855 c 0.526223,0.23671 1.049911,0.48928 1.567962,0.76287 l -1.533345,2.90216 c -0.449538,-0.23718 -0.910105,-0.45966 -1.381597,-0.67181 z m -25.249064,0.38559 1.379443,2.9777 c -0.464275,0.21513 -0.924652,0.44727 -1.380981,0.69234 l -1.551696,-2.89112 c 0.507187,-0.27227 1.025091,-0.53404 1.553234,-0.77892 z m 28.319584,1.22044 c 0.501194,0.29824 0.98783,0.60922 1.462067,0.92786 l -1.830411,2.72506 c -0.433827,-0.29129 -0.869547,-0.57091 -1.308611,-0.83179 z m -31.37455,0.41933 1.708828,2.80138 c -0.439794,0.26802 -0.872153,0.54995 -1.294672,0.84301 l -1.869305,-2.69684 c 0.476139,-0.33016 0.960963,-0.64631 1.455149,-0.94755 z m 34.236372,1.50064 c 0.461079,0.34179 0.912198,0.69457 1.354596,1.05475 l -2.073027,2.54428 c -0.405749,-0.33067 -0.817647,-0.65235 -1.235486,-0.96204 z m -37.088802,0.46959 2.014877,2.591 c -0.409293,0.31802 -0.807374,0.6445 -1.193617,0.98201 l -2.160294,-2.47154 c 0.437674,-0.38244 0.884815,-0.74815 1.339034,-1.10147 z m 39.742022,1.68144 c 0.424335,0.37165 0.844145,0.74989 1.257858,1.13763 l -2.245144,2.39379 c -0.384167,-0.36078 -0.776594,-0.71502 -1.175205,-1.06409 z m -42.349144,0.58992 2.284493,2.35561 c -0.367901,0.35692 -0.726571,0.72775 -1.077771,1.10979 l -2.416806,-2.22172 c 0.389145,-0.42347 0.792358,-0.83912 1.210058,-1.24369 z m 44.82055,1.71186 c 0.398342,0.39253 0.792862,0.79111 1.182683,1.19422 l -2.35887,2.28114 c -0.370697,-0.38325 -0.747101,-0.76126 -1.127977,-1.13667 z m -47.164621,0.83908 2.534344,2.08446 c -0.327535,0.39781 -0.644266,0.80465 -0.94731,1.22056 l -2.651579,-1.93277 c 0.341222,-0.46797 0.696661,-0.92554 1.064545,-1.37225 z m 48.373862,4.83845 0.223379,-0.002 0.02067,3.282 -1.640106,0.0103 -0.02067,-3.282 1.099362,-0.007 z m -0.413965,-0.25564 c -0.319528,-0.3494 -0.732989,-0.79025 -1.04913,-1.12622 l 2.392028,-2.24856 c 0.385349,0.40987 0.758088,0.82044 1.127066,1.22389 l -2.461931,2.15131 z m -50.006743,-1.78609 2.75273,1.78573 c -0.282027,0.43514 -0.550107,0.87481 -0.803518,1.32002 l -2.852117,-1.62405 c 0.287967,-0.50546 0.58996,-0.99898 0.902905,-1.4817 z m 45.752888,2.02174 1.642147,0.0219 -0.04264,3.28059 -1.640306,-0.0217 z m 67.243839,-0.3741 0.0206,3.28209 -1.6402,0.0103 -0.0207,-3.28209 z m -3.28208,0.0206 0.0206,3.28208 -1.64012,0.0103 -0.0207,-3.28209 z m -3.2804,0.0206 0.0206,3.2821 -1.6418,0.0103 -0.0206,-3.28211 z m -3.28199,0.0207 0.0207,3.28209 -1.64191,0.0102 -0.0206,-3.28209 z m -3.28199,0.0207 0.0206,3.2821 -1.64027,0.0102 -0.0207,-3.2821 z m -3.28208,0.0207 0.0206,3.28209 -1.64027,0.0103 -0.0206,-3.28209 z m -3.28207,0.0206 0.0207,3.2821 -1.64026,0.0102 -0.0207,-3.28209 z m -3.28038,0.0207 0.0207,3.2821 -1.64184,0.0103 -0.0207,-3.2821 z m -3.28206,0.0206 0.0206,3.28211 -1.64201,0.0103 -0.0207,-3.2821 z m -3.28218,0.0207 0.0206,3.28211 -1.64027,0.0102 -0.0206,-3.28212 z m -3.282,0.0207 0.0207,3.28211 -1.64028,0.0102 -0.0206,-3.28209 z m -3.28207,0.0207 0.0207,3.2821 -1.64029,0.0102 -0.0206,-3.2821 z m -3.28039,0.0207 0.0207,3.2821 -1.6419,0.0103 -0.0207,-3.2821 z m -3.28207,0.0207 0.0207,3.2821 -1.641804,0.0103 -0.0207,-3.2821 z m -3.282074,0.0206 0.0206,3.28211 -1.64009,0.0103 -0.0206,-3.2821 z m -3.281998,0.0207 0.02058,3.2821 -1.640202,0.0102 -0.02067,-3.2821 z m -3.28208,0.0207 0.02067,3.28211 -1.640193,0.0103 -0.02058,-3.2821 z m -3.280473,0.0206 0.02067,3.28211 -1.641687,0.0103 -0.02067,-3.28211 z m -3.282062,0.0207 0.02067,3.2821 -1.641886,0.0103 -0.02058,-3.28211 z m -55.64467,0.98409 2.933146,1.47239 c -0.230084,0.45848 -0.447228,0.92625 -0.65184,1.40117 l -3.014147,-1.29931 c 0.228364,-0.52974 0.472473,-1.05515 0.732841,-1.57425 z m 117.552807,-0.69738 1.08099,1.23584 -2.4699,2.16037 -1.08093,-1.23399 z m 2.16197,2.46991 1.07937,1.23422 -2.46828,2.16196 -1.08092,-1.23405 z m -121.086813,1.40874 3.078936,1.13438 c -0.17689,0.48014 -0.338356,0.96999 -0.488662,1.46572 l -3.142013,-0.95313 c 0.167198,-0.55098 0.350246,-1.10067 0.551739,-1.64697 z m 123.247273,1.06123 1.08098,1.23399 -2.46989,2.16209 -1.08099,-1.23585 z m -105.473801,1.82988 0.0996,3.28157 c -0.403526,0.0192 -0.804707,0.0776 -1.182188,0.19311 l -0.964732,-3.13645 c 0.668158,-0.20585 1.357307,-0.33389 2.047315,-0.33823 z m 2.055851,0.21047 c 0.678041,0.16032 1.330063,0.41163 1.939104,0.74716 l -1.582605,2.87454 c -0.349004,-0.19213 -0.725981,-0.33696 -1.112207,-0.42852 z m -20.835793,0.21498 3.188528,0.7803 c -0.12123,0.49756 -0.227643,1.00035 -0.320813,1.50937 l -3.228365,-0.59126 c 0.104399,-0.567 0.222346,-1.13321 0.36065,-1.69841 z m 14.854569,0.77449 1.748022,2.77807 c -0.337566,0.21241 -0.648799,0.47176 -0.918902,0.76673 l -2.421608,-2.21513 c 0.468166,-0.51201 1.004611,-0.95945 1.592505,-1.32968 z m 111.561004,-0.56059 1.08114,1.23407 -2.4699,2.16199 -1.08093,-1.23575 z m -101.977929,1.54111 c 0.500404,0.48075 0.934821,1.02707 1.29066,1.62388 l -2.818074,1.68111 c -0.204142,-0.34266 -0.457171,-0.66185 -0.745425,-0.93854 z m -25.062152,1.64985 3.255183,0.41839 c -0.06479,0.50676 -0.114994,1.02086 -0.151383,1.53931 l -3.273699,-0.23095 c 0.03882,-0.57251 0.09636,-1.14852 0.169708,-1.72675 z m 127.998321,2.31 2.5334,2.08292 -1.06537,1.24736 -2.49681,-2.12909 m 0.766,-0.76988 -1.07938,-1.23586 2.46821,-2.16034 1.08094,1.23407 m -117.501423,-0.18732 2.912225,1.51174 c -0.183456,0.35333 -0.318825,0.73334 -0.400608,1.12194 l -3.210961,-0.67668 c 0.143992,-0.68162 0.379009,-1.33962 0.699344,-1.957 z m 14.464417,1.48198 c 0.189283,0.67356 0.282809,1.36565 0.287438,2.05435 l -3.281975,0.0207 c -0.0026,-0.40525 -0.05862,-0.80745 -0.165409,-1.18735 z m -27.409375,1.58255 3.280777,0.0519 c -0.01277,0.5143 -0.0096,1.02946 0.02562,1.54481 l -3.279727,0.13915 c -0.02614,-0.57744 -0.02979,-1.15577 -0.02692,-1.7355 z m 15.363822,0.77447 c 0.02258,0.4016 0.09844,0.79874 0.222771,1.17362 l -3.112858,1.04353 c -0.22212,-0.66224 -0.35015,-1.34991 -0.387537,-2.04035 z m 8.908187,0.67045 3.241018,0.51888 c -0.109809,0.68743 -0.312441,1.35636 -0.602154,1.98909 l -2.983386,-1.36527 c 0.165495,-0.36154 0.28194,-0.7503 0.344522,-1.1427 z m 102.526762,-0.64439 2.49688,2.13068 -1.06539,1.24777 -2.49511,-2.1292 z m -110.682715,2.22734 c 0.220679,0.33232 0.488046,0.63811 0.789483,0.90063 l -2.155474,2.47397 c -0.523192,-0.45555 -0.982926,-0.97924 -1.367424,-1.55765 z m -12.709064,0.11462 c 0.05011,0.51524 0.113118,1.02613 0.192088,1.53216 l -3.242764,0.5052 c -0.08946,-0.57496 -0.16098,-1.14931 -0.216275,-1.72272 z m 19.880814,0.34736 2.526224,2.09447 c -0.442755,0.53416 -0.955795,1.00821 -1.524617,1.40664 l -1.882349,-2.68854 c 0.327058,-0.22924 0.625742,-0.5045 0.880742,-0.81257 z m 101.381795,-0.19245 2.49688,2.13085 -1.06537,1.2475 -2.4968,-2.13086 z m -106.758825,1.29717 c 0.357654,0.17449 0.742568,0.30181 1.133059,0.37412 l -0.597595,3.22686 c -0.684901,-0.12762 -1.349542,-0.34644 -1.974806,-0.65171 z m 3.508508,0.18663 1.118937,3.08457 c -0.656373,0.23804 -1.340007,0.38427 -2.030501,0.43837 L 45.896524,169.201 c 0.399965,-0.0315 0.796509,-0.11589 1.168605,-0.25056 z m -17.542632,1.42027 c 0.106726,0.50749 0.227808,1.00853 0.362829,1.50154 l -3.165079,0.86797 c -0.153719,-0.56203 -0.288932,-1.12618 -0.408407,-1.68867 z m 118.662109,-0.40741 2.49689,2.1293 -1.06529,1.24919 -2.4968,-2.13076 z m -9.37059,0.39419 1.42669,0.80965 -1.61907,2.85346 -1.30956,-0.74276 0.0162,0.032 -1.45144,0.76509 -1.53015,-2.90108 1.45135,-0.76687 1.43883,2.72917 z m -21.25623,0.51515 c 0.51691,-0.0566 1.2745,0.11788 1.2745,0.11788 l -0.43321,3.25361 c 0,0 -0.18198,-0.0736 -0.34163,-0.0448 -0.15961,0.0298 -0.24608,0.10376 -0.24608,0.10376 l -1.49283,-2.9211 c 0.35956,-0.25666 0.72262,-0.45219 1.23937,-0.509 z m 2.90137,0.335 1.6268,0.21668 -0.43306,3.25344 -1.62701,-0.21635 z m -16.40192,0.39392 0.24384,0.10198 -0.76696,3.22891 1.9e-4,0.0161 -0.50118,0.28246 -1.61216,-2.85794 1.20039,-0.67636 c 0.44067,-0.24823 0.971,-0.27936 1.4377,-0.0838 z m 20.17796,0.25613 1.45601,0.75506 -1.50857,2.91366 -1.45599,-0.75341 z m 8.66039,0.0804 1.53036,2.90277 -1.4514,0.76513 -1.53033,-2.90272 z m -18.03847,0.18813 1.49269,2.92269 -1.46144,0.74717 -1.49256,-2.92285 z m 26.81202,-0.14936 1.42677,0.80949 -1.62055,2.8552 -1.42693,-0.81112 z m -35.85351,0.35869 1.51434,0.63151 -1.26466,3.02859 -1.51425,-0.63144 z m 39.46211,1.0082 1.06538,-1.2475 2.49509,2.12897 -1.06369,1.24926 c -0.82109,-0.72363 -1.65535,-1.43127 -2.49682,-2.13076 z m -114.944236,0.015 c 0.163186,0.49068 0.339937,0.97518 0.530132,1.45125 l -3.04933,1.21742 c -0.215606,-0.53988 -0.411759,-1.08439 -0.593868,-1.63151 z m 69.657592,-0.1895 1.610534,2.85779 -1.42797,0.80622 -1.612284,-2.85791 z m 30.067354,0.15776 1.53023,2.90275 -1.45137,0.7668 -1.49005,-2.87337 z m -2.96053,3.70847 -1.45758,-0.75343 1.50855,-2.91542 1.4576,0.75517 -0.11113,0.20939 z m -18.25354,-3.43714 1.51441,0.63145 -1.26458,3.02906 -1.5145,-0.63165 z m 3.30012,-0.0834 1.49262,2.92275 -1.46143,0.74708 -1.49263,-2.92274 z m -27.344041,1.08653 0.02058,3.28198 c -0.477694,0.003 -0.954015,0.006 -1.429971,0.009 l 0.567319,0.29236 1.91e-4,0.0161 -0.580433,-0.29867 c -0.06262,0.002 -0.124409,-3e-5 -0.185671,8.7e-4 l -8.07e-4,-0.0977 -1.648826,-0.84907 0.02215,0.96788 c -0.5448,0.003 -1.08531,0.0228 -1.623744,0.0263 l -0.07686,-3.28 c 0.555344,-0.0195 1.10743,-0.0229 1.656607,-0.0297 l 0.0337,2.30559 1.64893,0.84934 -0.03596,-3.17525 c 0.551383,-0.003 1.101724,-0.007 1.650294,-0.0104 z m 1.643589,-0.0103 1.640106,-0.0103 0.0043,3.28208 -1.640219,-0.006 z m 3.285423,-0.004 0.859655,-0.005 0.782136,-0.005 0.0043,3.2822 -0.78079,0.005 -0.859404,0.005 z m 3.346147,-0.005 1.574702,0.006 0.0043,3.28194 -1.576143,-0.006 v 0 l -0.06331,4.7e-4 -0.0043,-3.2821 z m 3.211478,-0.004 1.64197,-0.0104 0.0207,3.28192 -1.64198,0.0102 z m -18.050414,0.11344 0.02067,3.28192 -1.641808,0.0104 -0.02067,-3.28213 z m -46.759376,1.54954 c 0.215459,0.466 0.445586,0.92709 0.689192,1.38291 l -2.894421,1.54661 c -0.272274,-0.50888 -0.530548,-1.02619 -0.773937,-1.55311 z m 48.562225,2.32527 2.850423,1.62559 c -0.286074,0.50169 -0.587085,0.99541 -0.902835,1.48145 l -2.751062,-1.78712 c 0.280133,-0.43117 0.547726,-0.87153 0.803474,-1.31992 z m -47.103586,0.4057 c 0.265778,0.43877 0.546572,0.8709 0.839898,1.29645 l -2.703583,1.86262 c -0.327283,-0.47521 -0.643528,-0.96167 -0.944305,-1.45842 z m 45.67054,1.71474 2.659717,1.92278 c -0.335795,0.46497 -0.685085,0.92395 -1.05131,1.37563 l -2.549047,-2.06644 c 0.32281,-0.39796 0.635807,-0.81018 0.94064,-1.23197 z m -43.917255,0.83497 c 0.316106,0.40905 0.642095,0.80824 0.978958,1.19514 l -2.474846,2.15388 c -0.381449,-0.43806 -0.747162,-0.88614 -1.099891,-1.34237 z m 41.961764,1.58837 2.45111,2.18222 c -0.388189,0.4357 -0.787347,0.8554 -1.193548,1.26152 l -2.320448,-2.3228 c 0.367701,-0.36752 0.723436,-0.73992 1.062912,-1.1211 z m -39.932105,0.75232 c 0.358392,0.37035 0.727066,0.72999 1.106501,1.07957 l -2.223545,2.41342 c -0.425133,-0.39188 -0.839524,-0.79581 -1.241782,-1.21173 z m 37.741877,1.43916 2.194674,2.44009 c -0.426575,0.38353 -0.86662,0.76124 -1.324208,1.12607 l -2.045906,-2.56844 c 0.397786,-0.31727 0.788606,-0.65077 1.17544,-0.99858 z m -35.463845,0.66189 c 0.395441,0.32723 0.80238,0.64309 1.218881,0.94889 l -1.942499,2.64681 c -0.46517,-0.34146 -0.921846,-0.69774 -1.369065,-1.06803 z m 33.043473,1.28299 1.92174,2.66034 c -0.473203,0.3417 -0.953728,0.66534 -1.43861,0.9738 l -1.761162,-2.76988 c 0.438152,-0.27856 0.864701,-0.56567 1.278032,-0.86426 z m -30.550155,0.54852 c 0.432915,0.28298 0.871562,0.55234 1.316705,0.80701 l -1.629076,2.84882 c -0.50413,-0.28861 -0.998498,-0.591 -1.481533,-0.90624 z m 27.94246,1.10984 1.602467,2.86269 c -0.504894,0.28249 -1.018325,0.55088 -1.539815,0.8037 l -1.432056,-2.95269 c 0.462791,-0.22472 0.919797,-0.46216 1.369404,-0.7137 z m -25.258687,0.43487 c 0.461497,0.23232 0.928022,0.44995 1.39954,0.6536 l -1.300786,3.01271 c -0.532885,-0.23028 -1.05685,-0.47535 -1.57273,-0.73474 z m 22.478062,0.91565 1.261688,3.02924 c -0.533684,0.22227 -1.076183,0.42922 -1.624873,0.61999 l -1.077885,-3.09962 c 0.484381,-0.16829 0.965062,-0.35142 1.44107,-0.54961 z m -19.635228,0.31548 c 0.480724,0.17817 0.96804,0.34277 1.462564,0.49387 l -0.958053,3.13865 c -0.551721,-0.16847 -1.100543,-0.35301 -1.645516,-0.55512 z m 16.721163,0.70019 0.897416,3.15671 c -0.556394,0.15817 -1.118876,0.30137 -1.686969,0.42658 l -0.705284,-3.20559 c 0.500369,-0.10982 0.998836,-0.23671 1.494837,-0.3777 z m -13.760331,0.20511 c 0.496418,0.12277 0.999488,0.22925 1.509228,0.32405 l -0.599462,3.22685 c -0.565574,-0.10441 -1.132902,-0.22586 -1.698328,-0.36579 z m 10.74686,0.46164 0.520006,3.24097 c -0.573391,0.0925 -1.149977,0.16547 -1.72605,0.22306 l -0.324444,-3.26528 c 0.512563,-0.0502 1.023953,-0.11764 1.530584,-0.19883 z m -7.704304,0.10181 c 0.508176,0.065 1.021633,0.1167 1.537566,0.15301 l -0.234114,3.27391 c -0.575118,-0.0412 -1.15213,-0.098 -1.728325,-0.17322 z m 4.631092,0.20422 0.137539,3.27793 c -0.579964,0.0262 -1.159164,0.0298 -1.737088,0.0269 l 0.05801,-3.2811 c 0.516019,0.0129 1.03024,0.01 1.543176,-0.0257 z"
       id="path2-7-9" />
    <path
       id="path2-1-4-5"
       style="display:inline;mix-blend-mode:screen;fill:none;fill-opacity:1;stroke:#006961;stroke-width:10.4431;stroke-linecap:round;stroke-dasharray:none;stroke-opacity:1"
       d="m 156.30312,759.25868 c -9.78054,19.91382 -30.12868,33.02384 -53.81237,33.02384 -33.173715,0 -60.066326,-26.89261 -60.066326,-60.06633 0,-33.17372 26.892611,-60.06633 60.066326,-60.06633 23.31181,0 43.58824,15.15712 53.54415,34.5646 m -9.14624,1.20213 h 4.97796 c 10.89491,0.20296 25.86265,0 38.79397,0 l 11.43353,7.63836 14.59897,-7.63836 14.59896,7.3422 h 10.87817 l 11.54761,-7.3422 17.66083,7.3422 16.34856,-7.34219 22,25.45886 -22,25.45887 h -135.8606 -4.97796 M 89.058073,732.21619 c -4e-6,6.98969 -5.666271,12.65596 -12.655965,12.65596 -6.989695,0 -12.655963,-5.66627 -12.655967,-12.65596 -2e-6,-6.9897 5.666268,-12.65597 12.655967,-12.65597 6.989698,0 12.655967,5.66627 12.655965,12.65597 z"
       transform="matrix(0.46777897,0,0,-0.46777897,3.4650047,705.98961)" />
    <path
       id="path2-1-4-5-1"
       style="display:inline;mix-blend-mode:screen;fill:#006961;fill-opacity:1;stroke:none;stroke-width:10.443;stroke-linecap:round;stroke-dasharray:none;stroke-opacity:1;filter:url(#filter297)"
       d="m 156.30312,759.25868 c -9.78054,19.91382 -30.12868,33.02384 -53.81237,33.02384 -33.173715,0 -60.066326,-26.89261 -60.066326,-60.06633 0,-33.17372 26.892611,-60.06633 60.066326,-60.06633 23.31181,0 43.58824,15.15712 53.54415,34.5646 m -9.14624,1.20213 h 4.97796 c 10.89491,0.20296 25.86265,0 38.79397,0 l 11.43353,7.63836 14.59897,-7.63836 14.59896,7.3422 h 10.87817 l 11.54761,-7.3422 17.66083,7.3422 16.34856,-7.34219 22,25.45886 -22,25.45887 h -135.8606 -4.97796 M 89.058073,732.21619 c -4e-6,6.98969 -5.666271,12.65596 -12.655965,12.65596 -6.989695,0 -12.655963,-5.66627 -12.655967,-12.65596 -2e-6,-6.9897 5.666268,-12.65597 12.655967,-12.65597 6.989698,0 12.655967,5.66627 12.655965,12.65597 z"
       transform="matrix(0.46777897,0,0,-0.46777897,192.51095,577.33097)" />
    <path
       id="path2-1-4-5-1-7"
       style="display:inline;mix-blend-mode:screen;fill:url(#linearGradient370);fill-opacity:1;stroke:none;stroke-width:10.443;stroke-linecap:round;stroke-dasharray:none;stroke-opacity:1"
       d="m 156.30312,759.25868 c -9.78054,19.91382 -30.12868,33.02384 -53.81237,33.02384 -33.173715,0 -60.066326,-26.89261 -60.066326,-60.06633 0,-33.17372 26.892611,-60.06633 60.066326,-60.06633 23.31181,0 43.58824,15.15712 53.54415,34.5646 m -9.14624,1.20213 h 4.97796 c 10.89491,0.20296 25.86265,0 38.79397,0 l 11.43353,7.63836 14.59897,-7.63836 14.59896,7.3422 h 10.87817 l 11.54761,-7.3422 17.66083,7.3422 16.34856,-7.34219 22,25.45886 -22,25.45887 h -135.8606 -4.97796 M 89.058073,732.21619 c -4e-6,6.98969 -5.666271,12.65596 -12.655965,12.65596 -6.989695,0 -12.655963,-5.66627 -12.655967,-12.65596 -2e-6,-6.9897 5.666268,-12.65597 12.655967,-12.65597 6.989698,0 12.655967,5.66627 12.655965,12.65597 z"
       transform="matrix(0.52791985,0,0,-0.52791985,172.75593,786.77255)" />
    <path
       id="path2-1-4-5-1-7-1"
       style="display:inline;opacity:1;mix-blend-mode:screen;fill:url(#pattern180);fill-opacity:1;stroke:none;stroke-width:4.88502;stroke-linecap:round;stroke-dasharray:none;stroke-opacity:1"
       d="m 90.39428,310.90415 c -15.51333,-0.37889 -28.39628,11.88978 -28.77516,27.40311 -0.37889,15.51332 11.88977,28.39679 27.40309,28.77568 10.90152,0.26625 20.55692,-6.59017 25.43435,-15.55217 l 0.0169,-0.57025 c 4.87244,0.0693 10.81906,0.27224 16.18882,0.40338 l 5.43415,-3.44125 6.73978,3.73858 6.91086,-3.26666 5.08705,0.12425 5.31628,3.56528 8.3429,-3.23169 7.56146,3.62013 10.57855,-11.65404 -9.99701,-12.15705 -61.4606,-1.50107 0.006,-0.19835 c -4.34633,-9.42419 -13.71203,-15.78714 -24.78743,-16.05763 z m -13.50395,21.46038 a 5.9886565,5.9886565 0 0 1 5.84076,6.13321 5.9886565,5.9886565 0 0 1 -6.13321,5.84077 5.9886565,5.9886565 0 0 1 -5.84078,-6.13321 5.9886565,5.9886565 0 0 1 6.13323,-5.84077 z" />
    <path
       style="font-weight:500;font-size:12.7px;line-height:1.2;font-family:Montserrat;-inkscape-font-specification:'Montserrat Medium';letter-spacing:0.883708px;fill:#3e4349;stroke-width:0.354806;stroke-linecap:round;paint-order:fill markers stroke"
       d="m 46.029114,582.53942 c -0.9525,0 -1.7907,0.3556 -2.3495,1.0795 v -3.7084 h -1.2192 v 9.4234 h 1.1684 v -1.0668 c 0.5461,0.762 1.4097,1.143 2.4003,1.143 1.9685,0 3.4036,-1.3843 3.4036,-3.4417 0,-2.0574 -1.4351,-3.429 -3.4036,-3.429 z m -0.1016,5.8039 c -1.2827,0 -2.2606,-0.9398 -2.2606,-2.3749 0,-1.4351 0.9779,-2.3622 2.2606,-2.3622 1.2954,0 2.2733,0.9271 2.2733,2.3622 0,1.4351 -0.9779,2.3749 -2.2733,2.3749 z m 8.325906,-0.3556 -2.3495,-5.3848 h -1.27 l 2.9718,6.7183 -0.2159,0.4699 c -0.3302,0.7747 -0.6985,1.0414 -1.2827,1.0414 -0.4572,0 -0.8763,-0.1778 -1.2065,-0.4953 l -0.5207,0.9144 c 0.4191,0.4064 1.0795,0.6223 1.7272,0.6223 1.0287,0 1.8034,-0.4445 2.4003,-1.8669 l 3.2639,-7.4041 h -1.1938 z m 13.248204,0.0762 c -0.254,0.2032 -0.5969,0.3175 -0.9525,0.3175 -0.6731,0 -1.0541,-0.4064 -1.0541,-1.1303 v -3.6449 h 1.9304 v -1.0033 h -1.9304 v -1.4732 h -1.2192 v 1.4732 h -1.143 v 1.0033 h 1.143 v 3.6957 c 0,1.3589 0.7747,2.1082 2.1336,2.1082 0.5461,0 1.1049,-0.1524 1.4732,-0.4699 z m 6.332002,-5.5245 c -1.0287,0 -1.8669,0.3683 -2.3749,1.016 v -3.6449 h -1.2192 v 9.4234 h 1.2192 v -3.4671 c 0,-1.4605 0.8382,-2.2352 2.1336,-2.2352 1.1557,0 1.8161,0.6477 1.8161,1.9685 v 3.7338 h 1.2192 v -3.8735 c 0,-1.9812 -1.1557,-2.921 -2.794,-2.921 z m 12.021604,3.4671 c 0,-2.0701 -1.3843,-3.4671 -3.3274,-3.4671 -1.9431,0 -3.3782,1.4351 -3.3782,3.429 0,2.0066 1.4478,3.4417 3.6195,3.4417 1.1176,0 2.0447,-0.381 2.6543,-1.0922 l -0.6731,-0.7874 c -0.4953,0.5461 -1.1557,0.8128 -1.9431,0.8128 -1.3335,0 -2.286,-0.7874 -2.4384,-1.9685 h 5.461 c 0.0127,-0.1143 0.0254,-0.2667 0.0254,-0.3683 z m -3.3274,-2.4384 c 1.1811,0 2.032,0.8001 2.159,1.9304 h -4.318 c 0.127,-1.143 0.9906,-1.9304 2.159,-1.9304 z m 10.8225,0.3048 0.0889,-3.429 h -1.0668 l 0.0762,3.429 z m 2.2987,0 0.0889,-3.429 h -1.0541 l 0.0762,3.429 z m 9.48162,3.2004 -5.334001,-6.6294 h -1.0414 v 8.89 h 1.270001 v -6.6294 l 5.334,6.6294 h 1.0414 v -8.89 h -1.27 z m 7.52581,2.3368 c 2.01929,0 3.49249,-1.4351 3.49249,-3.4417 0,-2.0066 -1.4732,-3.429 -3.49249,-3.429 -2.0193,0 -3.5052,1.4224 -3.5052,3.429 0,2.0066 1.4859,3.4417 3.5052,3.4417 z m 0,-1.0668 c -1.2954,0 -2.2733,-0.9398 -2.2733,-2.3749 0,-1.4351 0.9779,-2.3622 2.2733,-2.3622 1.29539,0 2.26059,0.9271 2.26059,2.3622 0,1.4351 -0.9652,2.3749 -2.26059,2.3749 z m 9.46891,-0.2794 c -0.254,0.2032 -0.5969,0.3175 -0.9525,0.3175 -0.6731,0 -1.0541,-0.4064 -1.0541,-1.1303 v -3.6449 h 1.9304 v -1.0033 h -1.9304 v -1.4732 h -1.2192 v 1.4732 h -1.143 v 1.0033 h 1.143 v 3.6957 c 0,1.3589 0.7747,2.1082 2.1336,2.1082 0.5461,0 1.1049,-0.1524 1.4732,-0.4699 z m 8.59261,-2.0574 c 0,-2.0701 -1.3843,-3.4671 -3.3274,-3.4671 -1.9431,0 -3.3782,1.4351 -3.3782,3.429 0,2.0066 1.4478,3.4417 3.6195,3.4417 1.1176,0 2.0447,-0.381 2.6543,-1.0922 l -0.6731,-0.7874 c -0.4953,0.5461 -1.1557,0.8128 -1.9431,0.8128 -1.3335,0 -2.286,-0.7874 -2.4384,-1.9685 h 5.461 c 0.0127,-0.1143 0.0254,-0.2667 0.0254,-0.3683 z m -3.3274,-2.4384 c 1.1811,0 2.032,0.8001 2.159,1.9304 h -4.318 c 0.127,-1.143 0.9906,-1.9304 2.159,-1.9304 z m 7.83059,5.842 c 1.7907,0 2.9083,-0.7747 2.9083,-1.9939 0,-2.6162 -4.2672,-1.3208 -4.2672,-2.9083 0,-0.5334 0.5207,-0.9271 1.5875,-0.9271 0.6604,0 1.3335,0.1397 1.9431,0.5334 l 0.5207,-0.9652 c -0.5842,-0.381 -1.5748,-0.6096 -2.4511,-0.6096 -1.7272,0 -2.8067,0.8128 -2.8067,2.0193 0,2.6797 4.2545,1.3716 4.2545,2.8829 0,0.5715 -0.4699,0.9144 -1.6002,0.9144 -0.8763,0 -1.7907,-0.2921 -2.3622,-0.6985 l -0.508,0.9652 c 0.5588,0.4445 1.6637,0.7874 2.7813,0.7874 z m 12.49891,0 c 2.0193,0 3.4925,-1.4351 3.4925,-3.4417 0,-2.0066 -1.4732,-3.429 -3.4925,-3.429 -2.0193,0 -3.5052,1.4224 -3.5052,3.429 0,2.0066 1.4859,3.4417 3.5052,3.4417 z m 0,-1.0668 c -1.2954,0 -2.2733,-0.9398 -2.2733,-2.3749 0,-1.4351 0.9779,-2.3622 2.2733,-2.3622 1.2954,0 2.2606,0.9271 2.2606,2.3622 0,1.4351 -0.9652,2.3749 -2.2606,2.3749 z m 9.65941,-5.8039 c -1.0668,0 -1.9304,0.3937 -2.4257,1.0795 v -1.016 h -1.1684 v 6.731 h 1.2192 v -3.4671 c 0,-1.4605 0.8382,-2.2352 2.1336,-2.2352 1.1557,0 1.8161,0.6477 1.8161,1.9685 v 3.7338 h 1.2192 v -3.8735 c 0,-1.9812 -1.1557,-2.921 -2.794,-2.921 z m 14.4293,6.8961 c 2.7051,0 4.7117,-1.9304 4.7117,-4.5466 0,-2.6162 -2.0066,-4.5466 -4.7117,-4.5466 -2.7305,0 -4.7371,1.9431 -4.7371,4.5466 0,2.6035 2.0066,4.5466 4.7371,4.5466 z m 0,-1.1303 c -1.9939,0 -3.4671,-1.4478 -3.4671,-3.4163 0,-1.9685 1.4732,-3.4163 3.4671,-3.4163 1.9685,0 3.4417,1.4478 3.4417,3.4163 0,1.9685 -1.4732,3.4163 -3.4417,3.4163 z m 10.9294,-5.7658 c -0.9906,0 -1.8542,0.381 -2.4003,1.1303 v -1.0668 h -1.1684 v 9.1948 h 1.2192 v -3.4798 c 0.5588,0.7239 1.397,1.0922 2.3495,1.0922 1.9685,0 3.4036,-1.3716 3.4036,-3.4417 0,-2.0574 -1.4351,-3.429 -3.4036,-3.429 z m -0.1016,5.8039 c -1.2827,0 -2.2606,-0.9398 -2.2606,-2.3749 0,-1.4224 0.9779,-2.3622 2.2606,-2.3622 1.2954,0 2.2733,0.9398 2.2733,2.3622 0,1.4351 -0.9779,2.3749 -2.2733,2.3749 z m 12.16131,-2.3368 c 0,-2.0701 -1.3843,-3.4671 -3.3274,-3.4671 -1.9431,0 -3.3782,1.4351 -3.3782,3.429 0,2.0066 1.4478,3.4417 3.6195,3.4417 1.1176,0 2.0447,-0.381 2.6543,-1.0922 l -0.6731,-0.7874 c -0.4953,0.5461 -1.1557,0.8128 -1.9431,0.8128 -1.3335,0 -2.286,-0.7874 -2.4384,-1.9685 h 5.461 c 0.0127,-0.1143 0.0254,-0.2667 0.0254,-0.3683 z m -3.3274,-2.4384 c 1.1811,0 2.032,0.8001 2.159,1.9304 h -4.318 c 0.127,-1.143 0.9906,-1.9304 2.159,-1.9304 z m 9.49429,-1.0287 c -1.0668,0 -1.9304,0.3937 -2.4257,1.0795 v -1.016 h -1.1684 v 6.731 h 1.2192 v -3.4671 c 0,-1.4605 0.8382,-2.2352 2.1336,-2.2352 1.1557,0 1.8161,0.6477 1.8161,1.9685 v 3.7338 h 1.2192 v -3.8735 c 0,-1.9812 -1.1557,-2.921 -2.794,-2.921 z m 6.11611,-2.0955 v 8.89 h 1.27 v -2.6924 h 2.1971 c 2.3114,0 3.7084,-1.1684 3.7084,-3.0988 0,-1.9304 -1.397,-3.0988 -3.7084,-3.0988 z m 1.27,5.0927 v -3.9878 h 2.159 c 1.6256,0 2.4765,0.7239 2.4765,1.9939 0,1.27 -0.8509,1.9939 -2.4765,1.9939 z m 14.94262,2.1971 c -0.635,0.4064 -1.3335,0.5715 -2.0828,0.5715 -2.0447,0 -3.5306,-1.4605 -3.5306,-3.4163 0,-1.9812 1.4859,-3.4163 3.5433,-3.4163 1.0033,0 1.8415,0.3175 2.5781,1.0287 l 0.7874,-0.7874 c -0.8128,-0.9017 -2.0066,-1.3716 -3.4163,-1.3716 -2.7559,0 -4.7625,1.9177 -4.7625,4.5466 0,2.6289 2.0066,4.5466 4.7371,4.5466 1.2446,0 2.4765,-0.381 3.3655,-1.1303 v -3.4671 h -1.2192 z m 4.52859,-7.2898 v 8.89 h 1.27 v -2.6924 h 2.1971 c 2.3114,0 3.7084,-1.1684 3.7084,-3.0988 0,-1.9304 -1.397,-3.0988 -3.7084,-3.0988 z m 1.27,5.0927 v -3.9878 h 2.159 c 1.6256,0 2.4765,0.7239 2.4765,1.9939 0,1.27 -0.8509,1.9939 -2.4765,1.9939 z m 9.2276,-1.6637 0.0889,-3.429 h -1.0668 l 0.0762,3.429 z m 2.2987,0 0.0889,-3.429 h -1.0541 l 0.0762,3.429 z m 10.79712,-1.3335 c -0.9906,0 -1.8542,0.381 -2.4003,1.1303 v -1.0668 h -1.1684 v 9.1948 h 1.2192 v -3.4798 c 0.5588,0.7239 1.397,1.0922 2.3495,1.0922 1.9685,0 3.4036,-1.3716 3.4036,-3.4417 0,-2.0574 -1.4351,-3.429 -3.4036,-3.429 z m -0.1016,5.8039 c -1.2827,0 -2.2606,-0.9398 -2.2606,-2.3749 0,-1.4224 0.9779,-2.3622 2.2606,-2.3622 1.2954,0 2.2733,0.9398 2.2733,2.3622 0,1.4351 -0.9779,2.3749 -2.2733,2.3749 z m 7.2464,-5.7404 h -1.1684 v 6.731 h 1.2192 v -3.3528 c 0,-1.4732 0.8128,-2.2733 2.1209,-2.2733 0.0889,0 0.1778,0 0.2794,0.0127 v -1.1811 c -1.1811,0 -2.0193,0.4064 -2.4511,1.1938 z m 7.65281,6.8072 c 2.0193,0 3.4925,-1.4351 3.4925,-3.4417 0,-2.0066 -1.4732,-3.429 -3.4925,-3.429 -2.0193,0 -3.5052,1.4224 -3.5052,3.429 0,2.0066 1.4859,3.4417 3.5052,3.4417 z m 0,-1.0668 c -1.2954,0 -2.2733,-0.9398 -2.2733,-2.3749 0,-1.4351 0.9779,-2.3622 2.2733,-2.3622 1.2954,0 2.2606,0.9271 2.2606,2.3622 0,1.4351 -0.9652,2.3749 -2.2606,2.3749 z m 6.73841,-7.0358 c 0.4826,0 0.8255,-0.3556 0.8255,-0.8128 0,-0.4318 -0.3556,-0.7747 -0.8255,-0.7747 -0.4699,0 -0.8255,0.3556 -0.8255,0.8001 0,0.4445 0.3556,0.7874 0.8255,0.7874 z m -1.5367,10.5664 c 1.3843,0 2.1463,-0.8636 2.1463,-2.2352 v -7.0358 h -1.2192 v 7.0612 c 0,0.7747 -0.3556,1.1811 -1.0033,1.1811 -0.3937,0 -0.7493,-0.1143 -0.9906,-0.3175 l -0.3937,0.9398 c 0.3429,0.2794 0.9017,0.4064 1.4605,0.4064 z m 11.43743,-5.8674 c 0,-2.0701 -1.3843,-3.4671 -3.3274,-3.4671 -1.9431,0 -3.3782,1.4351 -3.3782,3.429 0,2.0066 1.4478,3.4417 3.6195,3.4417 1.1176,0 2.0447,-0.381 2.6543,-1.0922 l -0.6731,-0.7874 c -0.4953,0.5461 -1.1557,0.8128 -1.9431,0.8128 -1.3335,0 -2.286,-0.7874 -2.4384,-1.9685 h 5.461 c 0.0127,-0.1143 0.0254,-0.2667 0.0254,-0.3683 z m -3.3274,-2.4384 c 1.1811,0 2.032,0.8001 2.159,1.9304 h -4.318 c 0.127,-1.143 0.9906,-1.9304 2.159,-1.9304 z m 8.83389,5.842 c 1.2065,0 2.2098,-0.508 2.7432,-1.4478 l -0.9271,-0.5842 c -0.4318,0.6604 -1.0922,0.9652 -1.8288,0.9652 -1.3208,0 -2.3114,-0.9144 -2.3114,-2.3749 0,-1.4351 0.9906,-2.3622 2.3114,-2.3622 0.7366,0 1.397,0.3048 1.8288,0.9652 l 0.9271,-0.5969 c -0.5334,-0.9398 -1.5367,-1.4351 -2.7432,-1.4351 -2.0701,0 -3.556,1.4224 -3.556,3.429 0,2.0066 1.4859,3.4417 3.556,3.4417 z m 8.69419,-1.3462 c -0.254,0.2032 -0.5969,0.3175 -0.9525,0.3175 -0.6731,0 -1.0541,-0.4064 -1.0541,-1.1303 v -3.6449 h 1.9304 v -1.0033 h -1.9304 v -1.4732 h -1.2192 v 1.4732 h -1.143 v 1.0033 h 1.143 v 3.6957 c 0,1.3589 0.7747,2.1082 2.1336,2.1082 0.5461,0 1.1049,-0.1524 1.4732,-0.4699 z"
       id="text2-0-8"
       aria-label="by the &quot;Notes on OpenPGP&quot; project" />
    <path
       style="font-size:78.1037px;line-height:1.3;font-family:Montserrat;-inkscape-font-specification:Montserrat;text-align:center;letter-spacing:3.34px;text-anchor:middle;white-space:pre;inline-size:1303.39;fill:#195962;stroke-width:1.341;stroke-linecap:round;paint-order:fill markers stroke"
       d="m -4742.9554,2328.203 c 16.4018,0 28.6641,-11.7937 28.6641,-27.8049 0,-16.0113 -12.2623,-27.8049 -28.6641,-27.8049 -16.558,0 -28.7421,11.8717 -28.7421,27.8049 0,15.9331 12.1841,27.8049 28.7421,27.8049 z m 0,-5.1548 c -13.1995,0 -23.0406,-9.6068 -23.0406,-22.6501 0,-13.0433 9.8411,-22.6501 23.0406,-22.6501 13.1215,0 22.8844,9.6068 22.8844,22.6501 0,13.0433 -9.7629,22.6501 -22.8844,22.6501 z m 64.9639,-36.7088 c -6.795,0 -12.4966,2.968 -15.855,8.4352 v -8.1228 h -5.3111 v 56.2347 h 5.5454 v -22.8844 c 3.4365,5.3111 9.06,8.1228 15.6207,8.1228 11.7156,0 20.4632,-8.4352 20.4632,-20.9318 0,-12.4185 -8.7476,-20.8537 -20.4632,-20.8537 z m -0.3905,36.865 c -8.7476,0 -15.3083,-6.4045 -15.3083,-16.0113 0,-9.5286 6.5607,-16.0113 15.3083,-16.0113 8.6695,0 15.3083,6.4827 15.3083,16.0113 0,9.6068 -6.6388,16.0113 -15.3083,16.0113 z m 71.3683,-16.0113 c 0,-12.3404 -8.3571,-20.8537 -19.9165,-20.8537 -11.5593,0 -20.0726,8.6695 -20.0726,20.8537 0,12.1842 8.7476,20.9318 21.5566,20.9318 6.4826,0 12.1842,-2.3431 15.8551,-6.7169 l -3.1242,-3.5928 c -3.1241,3.5928 -7.5761,5.3892 -12.5747,5.3892 -8.9819,0 -15.5426,-5.7016 -16.1675,-14.293 h 34.3657 c 0,-0.6248 0.078,-1.2497 0.078,-1.7183 z m -19.9165,-16.0894 c 8.0447,0 13.9025,5.6235 14.6054,13.6682 h -29.1327 c 0.703,-8.0447 6.5608,-13.6682 14.5273,-13.6682 z m 55.5133,-4.7643 c -7.1074,0 -12.6528,2.8899 -15.6207,7.8885 v -7.5761 h -5.3111 v 41.0826 h 5.5454 v -21.5566 c 0,-9.3725 5.5453,-14.8397 14.3711,-14.8397 7.8103,0 12.3403,4.4519 12.3403,13.1214 v 23.2749 h 5.5454 v -23.8217 c 0,-11.7936 -6.8731,-17.5733 -16.8704,-17.5733 z m 36.456,-13.2776 v 54.6726 h 5.7797 v -17.2609 h 14.6835 c 13.9024,0 22.3376,-7.0294 22.3376,-18.6668 0,-11.7156 -8.4352,-18.7449 -22.3376,-18.7449 z m 5.7797,32.3349 v -27.3363 h 14.5272 c 10.9346,0 16.7142,4.9987 16.7142,13.7463 0,8.5914 -5.7796,13.59 -16.7142,13.59 z m 92.1439,13.4339 c -4.2176,3.046 -9.0601,4.2176 -14.293,4.2176 -13.4338,0 -23.353,-9.6849 -23.353,-22.6501 0,-13.0433 9.9192,-22.6501 23.4311,-22.6501 6.4045,0 11.8718,1.8745 16.4799,6.4045 l 3.5928,-3.6709 c -4.8425,-5.2329 -12.028,-7.8884 -20.307,-7.8884 -16.7142,0 -28.8984,11.7936 -28.8984,27.8049 0,16.0112 12.1842,27.8049 28.8203,27.8049 7.576,0 14.9178,-2.3431 20.0726,-6.9512 v -20.8537 h -5.5453 z m 25.2091,-45.7688 v 54.6726 h 5.7797 v -17.2609 h 14.6835 c 13.9024,0 22.3376,-7.0294 22.3376,-18.6668 0,-11.7156 -8.4352,-18.7449 -22.3376,-18.7449 z m 5.7797,32.3349 v -27.3363 h 14.5272 c 10.9346,0 16.7142,4.9987 16.7142,13.7463 0,8.5914 -5.7796,13.59 -16.7142,13.59 z"
       id="text1-0-5-4-5"
       transform="matrix(0.53185944,0,0,0.51779387,2580.333,-686.13004)"
       aria-label="OpenPGP &#10;" />
    <path
       d="m 48.353247,538.1643 c 0.531989,0 1.023055,0.18415 1.411816,0.45015 l 0.716138,-1.92335 c -0.57291,-0.40922 -1.432277,-0.59337 -2.312104,-0.59337 -2.537176,0 -3.90807,1.49366 -3.90807,3.78531 v 0.69567 H 42.46045 v 2.04611 h 1.800577 v 8.79828 h 2.557638 v -8.79828 h 2.925937 v -2.04611 H 46.73682 v -0.65475 c 0,-1.16628 0.55245,-1.75966 1.616427,-1.75966 z m 8.740772,13.40202 c 3.396542,0 5.831413,-2.33256 5.831413,-5.60634 0,-3.27377 -2.434871,-5.58588 -5.831413,-5.58588 -3.355621,0 -5.810953,2.31211 -5.810953,5.58588 0,3.27378 2.455332,5.60634 5.810953,5.60634 z m 0,-2.18933 c -1.841499,0 -3.232854,-1.32998 -3.232854,-3.41701 0,-2.08703 1.391355,-3.417 3.232854,-3.417 1.86196,0 3.253315,1.32997 3.253315,3.417 0,2.08703 -1.391355,3.41701 -3.253315,3.41701 z m 11.605332,-8.88012 H 66.26448 v 10.92623 h 2.557638 v -5.29943 c 0,-2.23026 1.227666,-3.37608 3.17147,-3.37608 0.18415,0 0.3683,0.0205 0.593372,0.0614 v -2.43487 c -1.821038,0 -3.151009,0.57291 -3.887609,1.71873 z m 17.747517,-0.12277 c -1.759654,0 -3.457926,0.45015 -4.624208,1.35043 l 1.002593,1.86196 c 0.818444,-0.67521 2.087033,-1.08443 3.314699,-1.08443 1.821037,0 2.721326,0.87982 2.721326,2.37348 v 0.16369 h -2.823632 c -3.314698,0 -4.542364,1.43228 -4.542364,3.25332 0,1.90288 1.575505,3.27377 4.071759,3.27377 1.636888,0 2.823632,-0.53199 3.437465,-1.4732 v 1.32998 h 2.414409 v -6.40433 c 0,-3.15101 -1.821038,-4.64467 -4.972047,-4.64467 z m -0.347839,9.33026 c -1.30951,0 -2.087032,-0.59337 -2.087032,-1.51412 0,-0.79798 0.470606,-1.45274 2.209799,-1.45274 h 2.639482 v 1.26859 c -0.429683,1.12536 -1.514122,1.69827 -2.762249,1.69827 z m 15.533861,-9.33026 c -1.49366,0 -2.762245,0.51153 -3.621611,1.55505 v -1.43228 h -2.434871 v 14.89568 h 2.557637 v -5.29943 c 0.879828,1.0026 2.107495,1.4732 3.498845,1.4732 3.19193,0 5.54496,-2.2098 5.54496,-5.60634 0,-3.37608 -2.35303,-5.58588 -5.54496,-5.58588 z m -0.28645,9.00289 c -1.841501,0 -3.253317,-1.32998 -3.253317,-3.41701 0,-2.08703 1.411816,-3.417 3.253317,-3.417 1.8415,0 3.23285,1.32997 3.23285,3.417 0,2.08703 -1.39135,3.41701 -3.23285,3.41701 z m 15.20649,-9.00289 c -1.49366,0 -2.76224,0.51153 -3.62161,1.55505 v -1.43228 h -2.43487 v 14.89568 h 2.55764 v -5.29943 c 0.87982,1.0026 2.10749,1.4732 3.49884,1.4732 3.19194,0 5.54496,-2.2098 5.54496,-5.60634 0,-3.37608 -2.35302,-5.58588 -5.54496,-5.58588 z m -0.28645,9.00289 c -1.8415,0 -3.25332,-1.32998 -3.25332,-3.41701 0,-2.08703 1.41182,-3.417 3.25332,-3.417 1.8415,0 3.23285,1.32997 3.23285,3.417 0,2.08703 -1.39135,3.41701 -3.23285,3.41701 z m 11.70764,2.04611 v -15.18214 h -2.55764 v 15.18214 z m 5.52837,-12.72681 c 0.96167,0 1.63689,-0.69568 1.63689,-1.59596 0,-0.83891 -0.69568,-1.4732 -1.63689,-1.4732 -0.94121,0 -1.63689,0.67521 -1.63689,1.53458 0,0.85937 0.69568,1.53458 1.63689,1.53458 z m 1.26859,12.72681 v -10.92623 h -2.55764 v 10.92623 z m 9.25229,0.14322 c 2.12796,0 3.82623,-0.92075 4.66513,-2.55763 l -1.96426,-1.14583 c -0.65476,1.04352 -1.63689,1.51413 -2.72133,1.51413 -1.88242,0 -3.3147,-1.28905 -3.3147,-3.41701 0,-2.10749 1.43228,-3.417 3.3147,-3.417 1.08444,0 2.06657,0.4706 2.72133,1.51412 l 1.96426,-1.14582 c -0.8389,-1.65735 -2.53717,-2.53718 -4.66513,-2.53718 -3.45792,0 -5.91326,2.31211 -5.91326,5.58588 0,3.27378 2.45534,5.60634 5.91326,5.60634 z m 11.93269,-11.19222 c -1.75966,0 -3.45793,0.45015 -4.62421,1.35043 l 1.00259,1.86196 c 0.81845,-0.67521 2.08704,-1.08443 3.3147,-1.08443 1.82104,0 2.72133,0.87982 2.72133,2.37348 v 0.16369 h -2.82363 c -3.3147,0 -4.54237,1.43228 -4.54237,3.25332 0,1.90288 1.57551,3.27377 4.07176,3.27377 1.63689,0 2.82363,-0.53199 3.43747,-1.4732 v 1.32998 h 2.4144 v -6.40433 c 0,-3.15101 -1.82103,-4.64467 -4.97204,-4.64467 z m -0.34784,9.33026 c -1.30951,0 -2.08703,-0.59337 -2.08703,-1.51412 0,-0.79798 0.4706,-1.45274 2.2098,-1.45274 h 2.63948 v 1.26859 c -0.42969,1.12536 -1.51412,1.69827 -2.76225,1.69827 z m 15.32925,-0.69567 c -0.38876,0.30691 -0.90029,0.45014 -1.43227,0.45014 -0.98214,0 -1.51413,-0.57291 -1.51413,-1.63689 v -5.19712 h 2.92594 v -2.04611 h -2.92594 v -2.49625 h -2.55763 v 2.49625 h -1.80058 v 2.04611 h 1.80058 v 5.25851 c 0,2.41441 1.37089,3.68299 3.76484,3.68299 0.92075,0 1.8415,-0.24553 2.45533,-0.7366 z m 4.99638,-10.3124 c 0.96167,0 1.63689,-0.69568 1.63689,-1.59596 0,-0.83891 -0.69568,-1.4732 -1.63689,-1.4732 -0.94121,0 -1.63689,0.67521 -1.63689,1.53458 0,0.85937 0.69568,1.53458 1.63689,1.53458 z m 1.26859,12.72681 v -10.92623 h -2.55764 v 10.92623 z m 9.14999,0.14322 c 3.39654,0 5.83142,-2.33256 5.83142,-5.60634 0,-3.27377 -2.43488,-5.58588 -5.83142,-5.58588 -3.35562,0 -5.81095,2.31211 -5.81095,5.58588 0,3.27378 2.45533,5.60634 5.81095,5.60634 z m 0,-2.18933 c -1.8415,0 -3.23285,-1.32998 -3.23285,-3.41701 0,-2.08703 1.39135,-3.417 3.23285,-3.417 1.86196,0 3.25332,1.32997 3.25332,3.417 0,2.08703 -1.39136,3.41701 -3.25332,3.41701 z m 15.37017,-9.00289 c -1.59597,0 -2.92594,0.53199 -3.76485,1.53458 v -1.41181 h -2.43487 v 10.92623 h 2.55764 v -5.5245 c 0,-2.18934 1.22767,-3.29424 3.04871,-3.29424 1.63688,0 2.59855,0.94121 2.59855,2.88502 v 5.93372 h 2.55764 v -6.2611 c 0,-3.29424 -1.9438,-4.7879 -4.56282,-4.7879 z m 23.37431,1.4732 c -0.85936,-1.00259 -2.10749,-1.4732 -3.51931,-1.4732 -3.17147,0 -5.52449,2.18934 -5.52449,5.58588 0,3.39654 2.35302,5.60634 5.52449,5.60634 1.49366,0 2.76225,-0.51152 3.62162,-1.55504 v 1.41182 h 2.45533 v -15.18214 h -2.55764 z m -3.21239,7.52969 c -1.8415,0 -3.25331,-1.32998 -3.25331,-3.41701 0,-2.08703 1.41181,-3.417 3.25331,-3.417 1.8415,0 3.25332,1.32997 3.25332,3.417 0,2.08703 -1.41182,3.41701 -3.25332,3.41701 z m 20.28084,-3.35562 c 0,-3.41701 -2.33257,-5.64727 -5.5245,-5.64727 -3.25331,0 -5.64726,2.33257 -5.64726,5.58588 0,3.25332 2.37349,5.60634 6.03602,5.60634 1.88242,0 3.41701,-0.61383 4.39914,-1.78011 l -1.3709,-1.57551 c -0.77752,0.79799 -1.73919,1.18675 -2.96685,1.18675 -1.90289,0 -3.23286,-1.02306 -3.53977,-2.61902 h 8.5732 c 0.0205,-0.24554 0.0409,-0.55245 0.0409,-0.75706 z m -5.5245,-3.60116 c 1.67781,0 2.88502,1.08444 3.08963,2.65994 h -6.19972 c 0.24554,-1.59596 1.45274,-2.65994 3.11009,-2.65994 z m 12.93528,6.17925 -3.39654,-8.10259 h -2.65995 l 4.6856,10.92623 h 2.63948 l 4.68559,-10.92623 h -2.45533 z m 18.39841,-2.57809 c 0,-3.41701 -2.33257,-5.64727 -5.5245,-5.64727 -3.25331,0 -5.64726,2.33257 -5.64726,5.58588 0,3.25332 2.37348,5.60634 6.03602,5.60634 1.88242,0 3.417,-0.61383 4.39914,-1.78011 l -1.3709,-1.57551 c -0.77752,0.79799 -1.73919,1.18675 -2.96686,1.18675 -1.90288,0 -3.23285,-1.02306 -3.53977,-2.61902 h 8.5732 c 0.0205,-0.24554 0.0409,-0.55245 0.0409,-0.75706 z m -5.5245,-3.60116 c 1.67781,0 2.88502,1.08444 3.08963,2.65994 h -6.19972 c 0.24554,-1.59596 1.45274,-2.65994 3.11009,-2.65994 z m 11.42117,9.00289 v -15.18214 h -2.55764 v 15.18214 z m 9.14997,0.14322 c 3.39655,0 5.83142,-2.33256 5.83142,-5.60634 0,-3.27377 -2.43487,-5.58588 -5.83142,-5.58588 -3.35562,0 -5.81095,2.31211 -5.81095,5.58588 0,3.27378 2.45533,5.60634 5.81095,5.60634 z m 0,-2.18933 c -1.84149,0 -3.23285,-1.32998 -3.23285,-3.41701 0,-2.08703 1.39136,-3.417 3.23285,-3.417 1.86196,0 3.25332,1.32997 3.25332,3.417 0,2.08703 -1.39136,3.41701 -3.25332,3.41701 z m 15.22696,-9.00289 c -1.49366,0 -2.76225,0.51153 -3.62162,1.55505 v -1.43228 h -2.43487 v 14.89568 h 2.55764 v -5.29943 c 0.87983,1.0026 2.10749,1.4732 3.49885,1.4732 3.19193,0 5.54495,-2.2098 5.54495,-5.60634 0,-3.37608 -2.35302,-5.58588 -5.54495,-5.58588 z m -0.28646,9.00289 c -1.8415,0 -3.25331,-1.32998 -3.25331,-3.41701 0,-2.08703 1.41181,-3.417 3.25331,-3.417 1.8415,0 3.23286,1.32997 3.23286,3.417 0,2.08703 -1.39136,3.41701 -3.23286,3.41701 z m 19.42149,-3.35562 c 0,-3.41701 -2.33257,-5.64727 -5.5245,-5.64727 -3.25331,0 -5.64726,2.33257 -5.64726,5.58588 0,3.25332 2.37348,5.60634 6.03602,5.60634 1.88242,0 3.417,-0.61383 4.39914,-1.78011 l -1.3709,-1.57551 c -0.77752,0.79799 -1.73919,1.18675 -2.96686,1.18675 -1.90288,0 -3.23285,-1.02306 -3.53977,-2.61902 h 8.57321 c 0.0205,-0.24554 0.0409,-0.55245 0.0409,-0.75706 z m -5.5245,-3.60116 c 1.67781,0 2.88502,1.08444 3.08963,2.65994 h -6.19972 c 0.24554,-1.59596 1.45274,-2.65994 3.11009,-2.65994 z m 11.2984,-1.92334 h -2.43487 v 10.92623 h 2.55764 v -5.29943 c 0,-2.23026 1.22766,-3.37608 3.17147,-3.37608 0.18415,0 0.3683,0.0205 0.59337,0.0614 v -2.43487 c -1.82104,0 -3.15101,0.57291 -3.88761,1.71873 z m 10.41857,11.06945 c 3.06916,0 4.95158,-1.32997 4.95158,-3.37608 0,-4.27637 -6.75216,-2.3121 -6.75216,-4.5219 0,-0.71614 0.7366,-1.22767 2.29164,-1.22767 1.04352,0 2.08704,0.20461 3.13055,0.81845 l 0.98213,-1.94381 c -0.98213,-0.59337 -2.63948,-0.94121 -4.09222,-0.94121 -2.94639,0 -4.80835,1.35043 -4.80835,3.41701 0,4.35821 6.75216,2.39394 6.75216,4.48098 0,0.75706 -0.67522,1.2072 -2.29164,1.2072 -1.3709,0 -2.8441,-0.45014 -3.80577,-1.08444 l -0.98213,1.94381 c 0.98213,0.69567 2.80317,1.22766 4.62421,1.22766 z"
       id="text1144-1-6-4"
       style="font-weight:600;font-size:20.4611px;line-height:1.3;font-family:Montserrat;-inkscape-font-specification:'Montserrat Semi-Bold';letter-spacing:0.883708px;fill:#61a78d;fill-rule:evenodd;stroke-width:1.77271;stroke-linecap:round;paint-order:fill markers stroke"
       aria-label="for application developers" />
  </g>
</svg>
